<?xml version="1.0" encoding="UTF-8" standalone="no"?><svg xmlns="http://www.w3.org/2000/svg" xmlns:xlink="http://www.w3.org/1999/xlink" clip-rule="evenodd" stroke-miterlimit="10" viewBox="0 0 1024 768"><desc>SVG generated by Keynote</desc><defs></defs><g transform="matrix(1.00, 0.00, -0.00, -1.00, 0.0, 768.0)"><path d="M 0.0 768.0 L 1024.0 768.0 L 1024.0 0.0 L 0.0 0.0 Z M 0.0 768.0 " fill="#FEFFFF"></path><text xml:space="preserve" font-family="GillSans,Gill Sans" font-size="42.0" fill="#000000" transform="matrix(1.00, 0.00, -0.00, -1.00, 285.1, 716.7)">w</text><text xml:space="preserve" font-family="GillSans,Gill Sans" font-size="42.0" fill="#000000" transform="matrix(1.00, 0.00, -0.00, -1.00, 315.3, 716.7)">h</text><text xml:space="preserve" font-family="GillSans,Gill Sans" font-size="42.0" fill="#000000" transform="matrix(1.00, 0.00, -0.00, -1.00, 336.3, 716.7)">a</text><text xml:space="preserve" font-family="GillSans,Gill Sans" font-size="42.0" fill="#000000" transform="matrix(1.00, 0.00, -0.00, -1.00, 354.2, 716.7)">t</text><text xml:space="preserve" font-family="GillSans,Gill Sans" font-size="42.0" fill="#000000" transform="matrix(1.00, 0.00, -0.00, -1.00, 368.2, 716.7)"> </text><text xml:space="preserve" font-family="GillSans,Gill Sans" font-size="42.0" fill="#000000" transform="matrix(1.00, 0.00, -0.00, -1.00, 379.8, 716.7)">a</text><text xml:space="preserve" font-family="GillSans,Gill Sans" font-size="42.0" fill="#000000" transform="matrix(1.00, 0.00, -0.00, -1.00, 397.8, 716.7)">b</text><text xml:space="preserve" font-family="GillSans,Gill Sans" font-size="42.0" fill="#000000" transform="matrix(1.00, 0.00, -0.00, -1.00, 418.8, 716.7)">o</text><text xml:space="preserve" font-family="GillSans,Gill Sans" font-size="42.0" fill="#000000" transform="matrix(1.00, 0.00, -0.00, -1.00, 441.9, 716.7)">u</text><text xml:space="preserve" font-family="GillSans,Gill Sans" font-size="42.0" fill="#000000" transform="matrix(1.00, 0.00, -0.00, -1.00, 462.9, 716.7)">t</text><text xml:space="preserve" font-family="GillSans,Gill Sans" font-size="42.0" fill="#000000" transform="matrix(1.00, 0.00, -0.00, -1.00, 476.9, 716.7)"> </text><text xml:space="preserve" font-family="GillSans,Gill Sans" font-size="42.0" fill="#000000" transform="matrix(1.00, 0.00, -0.00, -1.00, 488.6, 716.7)">i</text><text xml:space="preserve" font-family="GillSans,Gill Sans" font-size="42.0" fill="#000000" transform="matrix(1.00, 0.00, -0.00, -1.00, 497.8, 716.7)">n</text><text xml:space="preserve" font-family="GillSans,Gill Sans" font-size="42.0" fill="#000000" transform="matrix(1.00, 0.00, -0.00, -1.00, 518.8, 716.7)">t</text><text xml:space="preserve" font-family="GillSans,Gill Sans" font-size="42.0" fill="#000000" transform="matrix(1.00, 0.00, -0.00, -1.00, 532.8, 716.7)">e</text><text xml:space="preserve" font-family="GillSans,Gill Sans" font-size="42.0" fill="#000000" transform="matrix(1.00, 0.00, -0.00, -1.00, 552.9, 716.7)">r</text><text xml:space="preserve" font-family="GillSans,Gill Sans" font-size="42.0" fill="#000000" transform="matrix(1.00, 0.00, -0.00, -1.00, 569.5, 716.7)">b</text><text xml:space="preserve" font-family="GillSans,Gill Sans" font-size="42.0" fill="#000000" transform="matrix(1.00, 0.00, -0.00, -1.00, 590.5, 716.7)">r</text><text xml:space="preserve" font-family="GillSans,Gill Sans" font-size="42.0" fill="#000000" transform="matrix(1.00, 0.00, -0.00, -1.00, 606.3, 716.7)">e</text><text xml:space="preserve" font-family="GillSans,Gill Sans" font-size="42.0" fill="#000000" transform="matrix(1.00, 0.00, -0.00, -1.00, 626.4, 716.7)">e</text><text xml:space="preserve" font-family="GillSans,Gill Sans" font-size="42.0" fill="#000000" transform="matrix(1.00, 0.00, -0.00, -1.00, 646.6, 716.7)">d</text><text xml:space="preserve" font-family="GillSans,Gill Sans" font-size="42.0" fill="#000000" transform="matrix(1.00, 0.00, -0.00, -1.00, 668.0, 716.7)">i</text><text xml:space="preserve" font-family="GillSans,Gill Sans" font-size="42.0" fill="#000000" transform="matrix(1.00, 0.00, -0.00, -1.00, 677.2, 716.7)">n</text><text xml:space="preserve" font-family="GillSans,Gill Sans" font-size="42.0" fill="#000000" transform="matrix(1.00, 0.00, -0.00, -1.00, 698.2, 716.7)">g</text><text xml:space="preserve" font-family="GillSans,Gill Sans" font-size="42.0" fill="#000000" transform="matrix(1.00, 0.00, -0.00, -1.00, 716.1, 716.7)">?</text><g><clipPath id="clip0x7fbd9673c090"><path d="M 97.0 464.5 L 395.0 464.5 L 395.0 688.0 L 97.0 688.0 Z M 97.0 464.5 "></path></clipPath><g clip-path="url(#clip0x7fbd9673c090)"><image xlink:href="../../D4BC38C2-3481-47AE-94C2-36115222C330/assets/264C4895870ED1D88A9AE8692A05622C.png" width="800.00" height="600.00" transform="matrix(0.37, 0.00, -0.00, -0.37, 97.0, 688.0)"></image></g></g><g><clipPath id="clip0x7fbd9676a420"><path d="M 141.0 348.4 L 575.7 348.4 L 575.7 470.6 L 141.0 470.6 Z M 141.0 348.4 "></path></clipPath><g clip-path="url(#clip0x7fbd9676a420)"><text xml:space="preserve" font-family="GillSans-Italic,Gill Sans" font-style="italic" font-size="42.0" fill="#000000" transform="matrix(1.00, 0.00, -0.00, -1.00, 165.2, 419.2)">R</text><text xml:space="preserve" font-family="GillSans-Italic,Gill Sans" font-style="italic" font-size="42.0" fill="#000000" transform="matrix(1.00, 0.00, -0.00, -1.00, 187.5, 419.2)">.</text><text xml:space="preserve" font-family="GillSans-Italic,Gill Sans" font-style="italic" font-size="42.0" fill="#000000" transform="matrix(1.00, 0.00, -0.00, -1.00, 191.6, 419.2)"> </text><text xml:space="preserve" font-family="GillSans-Italic,Gill Sans" font-style="italic" font-size="42.0" fill="#000000" transform="matrix(1.00, 0.00, -0.00, -1.00, 203.3, 419.2)">e</text><text xml:space="preserve" font-family="GillSans-Italic,Gill Sans" font-style="italic" font-size="42.0" fill="#000000" transform="matrix(1.00, 0.00, -0.00, -1.00, 221.7, 419.2)">s</text><text xml:space="preserve" font-family="GillSans-Italic,Gill Sans" font-style="italic" font-size="42.0" fill="#000000" transform="matrix(1.00, 0.00, -0.00, -1.00, 236.6, 419.2)">c</text><text xml:space="preserve" font-family="GillSans-Italic,Gill Sans" font-style="italic" font-size="42.0" fill="#000000" transform="matrix(1.00, 0.00, -0.00, -1.00, 252.7, 419.2)">u</text><text xml:space="preserve" font-family="GillSans-Italic,Gill Sans" font-style="italic" font-size="42.0" fill="#000000" transform="matrix(1.00, 0.00, -0.00, -1.00, 272.4, 419.2)">l</text><text xml:space="preserve" font-family="GillSans-Italic,Gill Sans" font-style="italic" font-size="42.0" fill="#000000" transform="matrix(1.00, 0.00, -0.00, -1.00, 280.3, 419.2)">e</text><text xml:space="preserve" font-family="GillSans-Italic,Gill Sans" font-style="italic" font-size="42.0" fill="#000000" transform="matrix(1.00, 0.00, -0.00, -1.00, 298.7, 419.2)">n</text><text xml:space="preserve" font-family="GillSans-Italic,Gill Sans" font-style="italic" font-size="42.0" fill="#000000" transform="matrix(1.00, 0.00, -0.00, -1.00, 318.4, 419.2)">t</text><text xml:space="preserve" font-family="GillSans-Italic,Gill Sans" font-style="italic" font-size="42.0" fill="#000000" transform="matrix(1.00, 0.00, -0.00, -1.00, 330.2, 419.2)">a</text><text xml:space="preserve" font-family="GillSans,Gill Sans" font-size="42.0" fill="#000000" transform="matrix(1.00, 0.00, -0.00, -1.00, 349.9, 419.2)"> </text><text xml:space="preserve" font-family="GillSans,Gill Sans" font-size="42.0" fill="#000000" transform="matrix(1.00, 0.00, -0.00, -1.00, 156.2, 370.2)">(</text><text xml:space="preserve" font-family="GillSans,Gill Sans" font-size="42.0" fill="#000000" transform="matrix(1.00, 0.00, -0.00, -1.00, 169.8, 370.2)">L</text><text xml:space="preserve" font-family="GillSans,Gill Sans" font-size="42.0" fill="#000000" transform="matrix(1.00, 0.00, -0.00, -1.00, 190.4, 370.2)">R</text><text xml:space="preserve" font-family="GillSans,Gill Sans" font-size="42.0" fill="#000000" transform="matrix(1.00, 0.00, -0.00, -1.00, 215.7, 370.2)"> </text><text xml:space="preserve" font-family="GillSans,Gill Sans" font-size="42.0" fill="#000000" transform="matrix(1.00, 0.00, -0.00, -1.00, 227.4, 370.2)">o</text><text xml:space="preserve" font-family="GillSans,Gill Sans" font-size="42.0" fill="#000000" transform="matrix(1.00, 0.00, -0.00, -1.00, 250.6, 370.2)">r</text><text xml:space="preserve" font-family="GillSans,Gill Sans" font-size="42.0" fill="#000000" transform="matrix(1.00, 0.00, -0.00, -1.00, 267.2, 370.2)"> </text><text xml:space="preserve" font-family="GillSans,Gill Sans" font-size="42.0" fill="#000000" transform="matrix(1.00, 0.00, -0.00, -1.00, 278.8, 370.2)">L</text><text xml:space="preserve" font-family="GillSans,Gill Sans" font-size="42.0" fill="#000000" transform="matrix(1.00, 0.00, -0.00, -1.00, 299.4, 370.2)">L</text><text xml:space="preserve" font-family="GillSans,Gill Sans" font-size="42.0" fill="#000000" transform="matrix(1.00, 0.00, -0.00, -1.00, 320.0, 370.2)">R</text><text xml:space="preserve" font-family="GillSans,Gill Sans" font-size="42.0" fill="#000000" transform="matrix(1.00, 0.00, -0.00, -1.00, 345.4, 370.2)">)</text></g></g><g><clipPath id="clip0x7fbd967767d0"><path d="M 496.5 646.5 C 509.2 633.8 509.2 613.2 496.5 600.5 C 483.8 587.8 463.2 587.8 450.5 600.5 C 437.8 613.2 437.8 633.8 450.5 646.5 C 463.2 659.2 483.8 659.2 496.5 646.5 "></path></clipPath><g clip-path="url(#clip0x7fbd967767d0)"><g><clipPath id="clip0x7fbd96776d00"><path d="M 439.0 589.0 L 508.0 589.0 L 508.0 658.0 L 439.0 658.0 Z M 439.0 589.0 "></path></clipPath><g clip-path="url(#clip0x7fbd96776d00)"><image xlink:href="../../9D8150EA-3D34-4856-BCE2-BE38EADF62D9/assets/D49104237B6EEC8B7192E15227E1FFFD.jpeg" width="300.00" height="300.00" transform="matrix(1.00, 0.00, -0.00, -1.00, 441.0, 656.0)"></image></g></g></g></g><g><clipPath id="clip0x7fbd96778770"><path d="M 439.0 589.0 L 508.0 589.0 L 508.0 658.0 L 439.0 658.0 Z M 439.0 589.0 "></path></clipPath><g clip-path="url(#clip0x7fbd96778770)"><path d="M 55.5 9.5 C 68.2 22.2 68.2 42.8 55.5 55.5 C 42.8 68.2 22.2 68.2 9.5 55.5 C -3.2 42.8 -3.2 22.2 9.5 9.5 C 22.2 -3.2 42.8 -3.2 55.5 9.5 " fill="none" stroke="#000000" stroke-width="2.00" transform="matrix(1.00, 0.00, 0.00, -1.00, 441.0, 656.0)"></path></g></g><image xlink:href="../../D4BC38C2-3481-47AE-94C2-36115222C330/assets/8D0E68CAE7AD005274267FAF01CE9BAE.png" width="23.00" height="34.00" transform="matrix(1.00, 0.00, -0.00, -1.00, 463.0, 639.0)"></image><g><clipPath id="clip0x7fbd9677b410"><path d="M 441.0 585.0 L 506.0 585.0 L 506.0 660.0 L 441.0 660.0 Z M 441.0 585.0 "></path></clipPath><g clip-path="url(#clip0x7fbd9677b410)"><text xml:space="preserve" font-family="GillSans,Gill Sans" font-size="40.0" fill="#FEFFFF" transform="matrix(1.00, 0.00, -0.00, -1.00, 463.7, 609.7)">L</text></g></g><g><clipPath id="clip0x7fbd9677cbd0"><path d="M 496.5 561.5 C 509.2 548.8 509.2 528.2 496.5 515.5 C 483.8 502.8 463.2 502.8 450.5 515.5 C 437.8 528.2 437.8 548.8 450.5 561.5 C 463.2 574.2 483.8 574.2 496.5 561.5 "></path></clipPath><g clip-path="url(#clip0x7fbd9677cbd0)"><g><clipPath id="clip0x7fbd9677d430"><path d="M 439.0 504.0 L 508.0 504.0 L 508.0 573.0 L 439.0 573.0 Z M 439.0 504.0 "></path></clipPath><g clip-path="url(#clip0x7fbd9677d430)"><image xlink:href="../../9D8150EA-3D34-4856-BCE2-BE38EADF62D9/assets/D49104237B6EEC8B7192E15227E1FFFD.jpeg" width="300.00" height="300.00" transform="matrix(1.00, 0.00, -0.00, -1.00, 441.0, 571.0)"></image></g></g></g></g><g><clipPath id="clip0x7fbd966b5680"><path d="M 439.0 504.0 L 508.0 504.0 L 508.0 573.0 L 439.0 573.0 Z M 439.0 504.0 "></path></clipPath><g clip-path="url(#clip0x7fbd966b5680)"><path d="M 55.5 9.5 C 68.2 22.2 68.2 42.8 55.5 55.5 C 42.8 68.2 22.2 68.2 9.5 55.5 C -3.2 42.8 -3.2 22.2 9.5 9.5 C 22.2 -3.2 42.8 -3.2 55.5 9.5 " fill="none" stroke="#000000" stroke-width="2.00" transform="matrix(1.00, 0.00, 0.00, -1.00, 441.0, 571.0)"></path></g></g><image xlink:href="../../D4BC38C2-3481-47AE-94C2-36115222C330/assets/90169FBCC3CC0472E1E25EDFDBD21220.png" width="28.00" height="34.00" transform="matrix(1.00, 0.00, -0.00, -1.00, 461.0, 555.0)"></image><g><clipPath id="clip0x7fbd966ba2f0"><path d="M 441.0 500.5 L 506.0 500.5 L 506.0 575.5 L 441.0 575.5 Z M 441.0 500.5 "></path></clipPath><g clip-path="url(#clip0x7fbd966ba2f0)"><text xml:space="preserve" font-family="GillSans,Gill Sans" font-size="40.0" fill="#FEFFFF" transform="matrix(1.00, 0.00, -0.00, -1.00, 461.4, 525.2)">R</text></g></g><g><clipPath id="clip0x7fbd966bf550"><path d="M 222.5 314.9 L 268.6 314.9 L 268.6 388.1 L 222.5 388.1 Z M 222.5 314.9 "></path></clipPath><g clip-path="url(#clip0x7fbd966bf550)"><text xml:space="preserve" font-family="GillSans,Gill Sans" font-size="42.0" fill="#000000" transform="matrix(1.00, 0.00, -0.00, -1.00, 235.1, 336.7)">x</text></g></g><g><clipPath id="clip0x7fbd966c07b0"><path d="M 103.0 108.5 L 401.0 108.5 L 401.0 332.0 L 103.0 332.0 Z M 103.0 108.5 "></path></clipPath><g clip-path="url(#clip0x7fbd966c07b0)"><image xlink:href="../../D4BC38C2-3481-47AE-94C2-36115222C330/assets/264C4895870ED1D88A9AE8692A05622C.png" width="800.00" height="600.00" transform="matrix(0.37, 0.00, -0.00, -0.37, 103.0, 332.0)"></image></g></g><g><clipPath id="clip0x7fbd967776a0"><path d="M 147.3 -8.1 L 582.0 -8.1 L 582.0 114.1 L 147.3 114.1 Z M 147.3 -8.1 "></path></clipPath><g clip-path="url(#clip0x7fbd967776a0)"><text xml:space="preserve" font-family="GillSans-Italic,Gill Sans" font-style="italic" font-size="42.0" fill="#000000" transform="matrix(1.00, 0.00, -0.00, -1.00, 171.5, 62.7)">R</text><text xml:space="preserve" font-family="GillSans-Italic,Gill Sans" font-style="italic" font-size="42.0" fill="#000000" transform="matrix(1.00, 0.00, -0.00, -1.00, 193.8, 62.7)">.</text><text xml:space="preserve" font-family="GillSans-Italic,Gill Sans" font-style="italic" font-size="42.0" fill="#000000" transform="matrix(1.00, 0.00, -0.00, -1.00, 198.0, 62.7)"> </text><text xml:space="preserve" font-family="GillSans-Italic,Gill Sans" font-style="italic" font-size="42.0" fill="#000000" transform="matrix(1.00, 0.00, -0.00, -1.00, 209.6, 62.7)">e</text><text xml:space="preserve" font-family="GillSans-Italic,Gill Sans" font-style="italic" font-size="42.0" fill="#000000" transform="matrix(1.00, 0.00, -0.00, -1.00, 228.0, 62.7)">s</text><text xml:space="preserve" font-family="GillSans-Italic,Gill Sans" font-style="italic" font-size="42.0" fill="#000000" transform="matrix(1.00, 0.00, -0.00, -1.00, 242.9, 62.7)">c</text><text xml:space="preserve" font-family="GillSans-Italic,Gill Sans" font-style="italic" font-size="42.0" fill="#000000" transform="matrix(1.00, 0.00, -0.00, -1.00, 259.0, 62.7)">u</text><text xml:space="preserve" font-family="GillSans-Italic,Gill Sans" font-style="italic" font-size="42.0" fill="#000000" transform="matrix(1.00, 0.00, -0.00, -1.00, 278.8, 62.7)">l</text><text xml:space="preserve" font-family="GillSans-Italic,Gill Sans" font-style="italic" font-size="42.0" fill="#000000" transform="matrix(1.00, 0.00, -0.00, -1.00, 286.6, 62.7)">e</text><text xml:space="preserve" font-family="GillSans-Italic,Gill Sans" font-style="italic" font-size="42.0" fill="#000000" transform="matrix(1.00, 0.00, -0.00, -1.00, 305.0, 62.7)">n</text><text xml:space="preserve" font-family="GillSans-Italic,Gill Sans" font-style="italic" font-size="42.0" fill="#000000" transform="matrix(1.00, 0.00, -0.00, -1.00, 324.8, 62.7)">t</text><text xml:space="preserve" font-family="GillSans-Italic,Gill Sans" font-style="italic" font-size="42.0" fill="#000000" transform="matrix(1.00, 0.00, -0.00, -1.00, 336.5, 62.7)">a</text><text xml:space="preserve" font-family="GillSans,Gill Sans" font-size="42.0" fill="#000000" transform="matrix(1.00, 0.00, -0.00, -1.00, 356.3, 62.7)"> </text><text xml:space="preserve" font-family="GillSans,Gill Sans" font-size="42.0" fill="#000000" transform="matrix(1.00, 0.00, -0.00, -1.00, 162.5, 13.7)">(</text><text xml:space="preserve" font-family="GillSans,Gill Sans" font-size="42.0" fill="#000000" transform="matrix(1.00, 0.00, -0.00, -1.00, 176.1, 13.7)">L</text><text xml:space="preserve" font-family="GillSans,Gill Sans" font-size="42.0" fill="#000000" transform="matrix(1.00, 0.00, -0.00, -1.00, 196.7, 13.7)">R</text><text xml:space="preserve" font-family="GillSans,Gill Sans" font-size="42.0" fill="#000000" transform="matrix(1.00, 0.00, -0.00, -1.00, 222.1, 13.7)"> </text><text xml:space="preserve" font-family="GillSans,Gill Sans" font-size="42.0" fill="#000000" transform="matrix(1.00, 0.00, -0.00, -1.00, 233.7, 13.7)">o</text><text xml:space="preserve" font-family="GillSans,Gill Sans" font-size="42.0" fill="#000000" transform="matrix(1.00, 0.00, -0.00, -1.00, 256.9, 13.7)">r</text><text xml:space="preserve" font-family="GillSans,Gill Sans" font-size="42.0" fill="#000000" transform="matrix(1.00, 0.00, -0.00, -1.00, 273.5, 13.7)"> </text><text xml:space="preserve" font-family="GillSans,Gill Sans" font-size="42.0" fill="#000000" transform="matrix(1.00, 0.00, -0.00, -1.00, 285.2, 13.7)">L</text><text xml:space="preserve" font-family="GillSans,Gill Sans" font-size="42.0" fill="#000000" transform="matrix(1.00, 0.00, -0.00, -1.00, 305.8, 13.7)">L</text><text xml:space="preserve" font-family="GillSans,Gill Sans" font-size="42.0" fill="#000000" transform="matrix(1.00, 0.00, -0.00, -1.00, 326.4, 13.7)">R</text><text xml:space="preserve" font-family="GillSans,Gill Sans" font-size="42.0" fill="#000000" transform="matrix(1.00, 0.00, -0.00, -1.00, 351.7, 13.7)">)</text></g></g><g><clipPath id="clip0x7fbd96788a40"><path d="M 502.5 290.5 C 515.2 277.8 515.2 257.2 502.5 244.5 C 489.8 231.8 469.2 231.8 456.5 244.5 C 443.8 257.2 443.8 277.8 456.5 290.5 C 469.2 303.2 489.8 303.2 502.5 290.5 "></path></clipPath><g clip-path="url(#clip0x7fbd96788a40)"><g><clipPath id="clip0x7fbd967890b0"><path d="M 445.0 233.0 L 514.0 233.0 L 514.0 302.0 L 445.0 302.0 Z M 445.0 233.0 "></path></clipPath><g clip-path="url(#clip0x7fbd967890b0)"><image xlink:href="../../9D8150EA-3D34-4856-BCE2-BE38EADF62D9/assets/D49104237B6EEC8B7192E15227E1FFFD.jpeg" width="300.00" height="300.00" transform="matrix(1.00, 0.00, -0.00, -1.00, 447.0, 300.0)"></image></g></g></g></g><g><clipPath id="clip0x7fbd9678a780"><path d="M 445.0 233.0 L 514.0 233.0 L 514.0 302.0 L 445.0 302.0 Z M 445.0 233.0 "></path></clipPath><g clip-path="url(#clip0x7fbd9678a780)"><path d="M 55.5 9.5 C 68.2 22.2 68.2 42.8 55.5 55.5 C 42.8 68.2 22.2 68.2 9.5 55.5 C -3.2 42.8 -3.2 22.2 9.5 9.5 C 22.2 -3.2 42.8 -3.2 55.5 9.5 " fill="none" stroke="#000000" stroke-width="2.00" transform="matrix(1.00, 0.00, 0.00, -1.00, 447.0, 300.0)"></path></g></g><image xlink:href="../../D4BC38C2-3481-47AE-94C2-36115222C330/assets/8D0E68CAE7AD005274267FAF01CE9BAE.png" width="23.00" height="34.00" transform="matrix(1.00, 0.00, -0.00, -1.00, 469.0, 283.0)"></image><g><clipPath id="clip0x7fbd9678d410"><path d="M 447.0 229.0 L 512.0 229.0 L 512.0 304.0 L 447.0 304.0 Z M 447.0 229.0 "></path></clipPath><g clip-path="url(#clip0x7fbd9678d410)"><text xml:space="preserve" font-family="GillSans,Gill Sans" font-size="40.0" fill="#FEFFFF" transform="matrix(1.00, 0.00, -0.00, -1.00, 469.7, 253.7)">L</text></g></g><g><clipPath id="clip0x7fbd9678ecc0"><path d="M 502.5 205.5 C 515.2 192.8 515.2 172.2 502.5 159.5 C 489.8 146.8 469.2 146.8 456.5 159.5 C 443.8 172.2 443.8 192.8 456.5 205.5 C 469.2 218.2 489.8 218.2 502.5 205.5 "></path></clipPath><g clip-path="url(#clip0x7fbd9678ecc0)"><g><clipPath id="clip0x7fbd9678f520"><path d="M 445.0 148.0 L 514.0 148.0 L 514.0 217.0 L 445.0 217.0 Z M 445.0 148.0 "></path></clipPath><g clip-path="url(#clip0x7fbd9678f520)"><image xlink:href="../../9D8150EA-3D34-4856-BCE2-BE38EADF62D9/assets/D49104237B6EEC8B7192E15227E1FFFD.jpeg" width="300.00" height="300.00" transform="matrix(1.00, 0.00, -0.00, -1.00, 447.0, 215.0)"></image></g></g></g></g><g><clipPath id="clip0x7fbd96513dc0"><path d="M 445.0 148.0 L 514.0 148.0 L 514.0 217.0 L 445.0 217.0 Z M 445.0 148.0 "></path></clipPath><g clip-path="url(#clip0x7fbd96513dc0)"><path d="M 55.5 9.5 C 68.2 22.2 68.2 42.8 55.5 55.5 C 42.8 68.2 22.2 68.2 9.5 55.5 C -3.2 42.8 -3.2 22.2 9.5 9.5 C 22.2 -3.2 42.8 -3.2 55.5 9.5 " fill="none" stroke="#000000" stroke-width="2.00" transform="matrix(1.00, 0.00, 0.00, -1.00, 447.0, 215.0)"></path></g></g><image xlink:href="../../D4BC38C2-3481-47AE-94C2-36115222C330/assets/90169FBCC3CC0472E1E25EDFDBD21220.png" width="28.00" height="34.00" transform="matrix(1.00, 0.00, -0.00, -1.00, 467.0, 199.0)"></image><g><clipPath id="clip0x7fbd965254c0"><path d="M 447.0 144.5 L 512.0 144.5 L 512.0 219.5 L 447.0 219.5 Z M 447.0 144.5 "></path></clipPath><g clip-path="url(#clip0x7fbd965254c0)"><text xml:space="preserve" font-family="GillSans,Gill Sans" font-size="40.0" fill="#FEFFFF" transform="matrix(1.00, 0.00, -0.00, -1.00, 467.4, 169.2)">R</text></g></g><g><clipPath id="clip0x7fbd9652b0f0"><path d="M 442.0 364.5 L 518.0 364.5 L 518.0 404.9 L 442.0 404.9 Z M 442.0 364.5 "></path></clipPath><g clip-path="url(#clip0x7fbd9652b0f0)"><path d="M 50.0 0.0 L 45.2 0.0 L 0.0 0.0 " fill="none" stroke="#000000" stroke-width="10.00" transform="matrix(1.00, 0.00, 0.00, -1.00, 443.0, 385.0)"></path><path d="M 478.2 365.9 L 516.8 384.8 L 478.6 404.3 L 488.0 385.0 Z M 478.2 365.9 " fill="#000000"></path></g></g><g><clipPath id="clip0x7fbd9652c8a0"><path d="M 729.5 500.5 C 742.2 487.8 742.2 467.2 729.5 454.5 C 716.8 441.8 696.2 441.8 683.5 454.5 C 670.8 467.2 670.8 487.8 683.5 500.5 C 696.2 513.2 716.8 513.2 729.5 500.5 "></path></clipPath><g clip-path="url(#clip0x7fbd9652c8a0)"><g><clipPath id="clip0x7fbd9652d110"><path d="M 672.0 443.0 L 741.0 443.0 L 741.0 512.0 L 672.0 512.0 Z M 672.0 443.0 "></path></clipPath><g clip-path="url(#clip0x7fbd9652d110)"><image xlink:href="../../9D8150EA-3D34-4856-BCE2-BE38EADF62D9/assets/D49104237B6EEC8B7192E15227E1FFFD.jpeg" width="300.00" height="300.00" transform="matrix(1.00, 0.00, -0.00, -1.00, 674.0, 510.0)"></image></g></g></g></g><g><clipPath id="clip0x7fbd967906c0"><path d="M 672.0 443.0 L 741.0 443.0 L 741.0 512.0 L 672.0 512.0 Z M 672.0 443.0 "></path></clipPath><g clip-path="url(#clip0x7fbd967906c0)"><path d="M 55.5 9.5 C 68.2 22.2 68.2 42.8 55.5 55.5 C 42.8 68.2 22.2 68.2 9.5 55.5 C -3.2 42.8 -3.2 22.2 9.5 9.5 C 22.2 -3.2 42.8 -3.2 55.5 9.5 " fill="none" stroke="#000000" stroke-width="2.00" transform="matrix(1.00, 0.00, 0.00, -1.00, 674.0, 510.0)"></path></g></g><image xlink:href="../../D4BC38C2-3481-47AE-94C2-36115222C330/assets/8D0E68CAE7AD005274267FAF01CE9BAE.png" width="23.00" height="34.00" transform="matrix(1.00, 0.00, -0.00, -1.00, 696.0, 493.0)"></image><g><clipPath id="clip0x7fbd96792be0"><path d="M 674.0 439.0 L 739.0 439.0 L 739.0 514.0 L 674.0 514.0 Z M 674.0 439.0 "></path></clipPath><g clip-path="url(#clip0x7fbd96792be0)"><text xml:space="preserve" font-family="GillSans,Gill Sans" font-size="40.0" fill="#FEFFFF" transform="matrix(1.00, 0.00, -0.00, -1.00, 696.7, 463.7)">L</text></g></g><g><clipPath id="clip0x7fbd967943c0"><path d="M 794.5 500.5 C 807.2 487.8 807.2 467.2 794.5 454.5 C 781.8 441.8 761.2 441.8 748.5 454.5 C 735.8 467.2 735.8 487.8 748.5 500.5 C 761.2 513.2 781.8 513.2 794.5 500.5 "></path></clipPath><g clip-path="url(#clip0x7fbd967943c0)"><g><clipPath id="clip0x7fbd96794c20"><path d="M 737.0 443.0 L 806.0 443.0 L 806.0 512.0 L 737.0 512.0 Z M 737.0 443.0 "></path></clipPath><g clip-path="url(#clip0x7fbd96794c20)"><image xlink:href="../../9D8150EA-3D34-4856-BCE2-BE38EADF62D9/assets/D49104237B6EEC8B7192E15227E1FFFD.jpeg" width="300.00" height="300.00" transform="matrix(1.00, 0.00, -0.00, -1.00, 739.0, 510.0)"></image></g></g></g></g><g><clipPath id="clip0x7fbd967960f0"><path d="M 737.0 443.0 L 806.0 443.0 L 806.0 512.0 L 737.0 512.0 Z M 737.0 443.0 "></path></clipPath><g clip-path="url(#clip0x7fbd967960f0)"><path d="M 55.5 9.5 C 68.2 22.2 68.2 42.8 55.5 55.5 C 42.8 68.2 22.2 68.2 9.5 55.5 C -3.2 42.8 -3.2 22.2 9.5 9.5 C 22.2 -3.2 42.8 -3.2 55.5 9.5 " fill="none" stroke="#000000" stroke-width="2.00" transform="matrix(1.00, 0.00, 0.00, -1.00, 739.0, 510.0)"></path></g></g><image xlink:href="../../D4BC38C2-3481-47AE-94C2-36115222C330/assets/8D0E68CAE7AD005274267FAF01CE9BAE.png" width="23.00" height="34.00" transform="matrix(1.00, 0.00, -0.00, -1.00, 761.0, 493.0)"></image><g><clipPath id="clip0x7fbd96797bd0"><path d="M 739.0 439.0 L 804.0 439.0 L 804.0 514.0 L 739.0 514.0 Z M 739.0 439.0 "></path></clipPath><g clip-path="url(#clip0x7fbd96797bd0)"><text xml:space="preserve" font-family="GillSans,Gill Sans" font-size="40.0" fill="#FEFFFF" transform="matrix(1.00, 0.00, -0.00, -1.00, 761.7, 463.7)">L</text></g></g><g><clipPath id="clip0x7fbd96798fc0"><path d="M 729.5 407.5 C 742.2 394.8 742.2 374.2 729.5 361.5 C 716.8 348.8 696.2 348.8 683.5 361.5 C 670.8 374.2 670.8 394.8 683.5 407.5 C 696.2 420.2 716.8 420.2 729.5 407.5 "></path></clipPath><g clip-path="url(#clip0x7fbd96798fc0)"><g><clipPath id="clip0x7fbd96799820"><path d="M 672.0 350.0 L 741.0 350.0 L 741.0 419.0 L 672.0 419.0 Z M 672.0 350.0 "></path></clipPath><g clip-path="url(#clip0x7fbd96799820)"><image xlink:href="../../9D8150EA-3D34-4856-BCE2-BE38EADF62D9/assets/D49104237B6EEC8B7192E15227E1FFFD.jpeg" width="300.00" height="300.00" transform="matrix(1.00, 0.00, -0.00, -1.00, 674.0, 417.0)"></image></g></g></g></g><g><clipPath id="clip0x7fbd9679bcc0"><path d="M 672.0 350.0 L 741.0 350.0 L 741.0 419.0 L 672.0 419.0 Z M 672.0 350.0 "></path></clipPath><g clip-path="url(#clip0x7fbd9679bcc0)"><path d="M 55.5 9.5 C 68.2 22.2 68.2 42.8 55.5 55.5 C 42.8 68.2 22.2 68.2 9.5 55.5 C -3.2 42.8 -3.2 22.2 9.5 9.5 C 22.2 -3.2 42.8 -3.2 55.5 9.5 " fill="none" stroke="#000000" stroke-width="2.00" transform="matrix(1.00, 0.00, 0.00, -1.00, 674.0, 417.0)"></path></g></g><image xlink:href="../../D4BC38C2-3481-47AE-94C2-36115222C330/assets/8D0E68CAE7AD005274267FAF01CE9BAE.png" width="23.00" height="34.00" transform="matrix(1.00, 0.00, -0.00, -1.00, 696.0, 400.0)"></image><g><clipPath id="clip0x7fbd9679d1d0"><path d="M 674.0 346.0 L 739.0 346.0 L 739.0 421.0 L 674.0 421.0 Z M 674.0 346.0 "></path></clipPath><g clip-path="url(#clip0x7fbd9679d1d0)"><text xml:space="preserve" font-family="GillSans,Gill Sans" font-size="40.0" fill="#FEFFFF" transform="matrix(1.00, 0.00, -0.00, -1.00, 696.7, 370.7)">L</text></g></g><g><clipPath id="clip0x7fbd9679e990"><path d="M 794.5 407.5 C 807.2 394.8 807.2 374.2 794.5 361.5 C 781.8 348.8 761.2 348.8 748.5 361.5 C 735.8 374.2 735.8 394.8 748.5 407.5 C 761.2 420.2 781.8 420.2 794.5 407.5 "></path></clipPath><g clip-path="url(#clip0x7fbd9679e990)"><g><clipPath id="clip0x7fbd9679f1f0"><path d="M 737.0 350.0 L 806.0 350.0 L 806.0 419.0 L 737.0 419.0 Z M 737.0 350.0 "></path></clipPath><g clip-path="url(#clip0x7fbd9679f1f0)"><image xlink:href="../../9D8150EA-3D34-4856-BCE2-BE38EADF62D9/assets/D49104237B6EEC8B7192E15227E1FFFD.jpeg" width="300.00" height="300.00" transform="matrix(1.00, 0.00, -0.00, -1.00, 739.0, 417.0)"></image></g></g></g></g><g><clipPath id="clip0x7fbd9652ee30"><path d="M 737.0 350.0 L 806.0 350.0 L 806.0 419.0 L 737.0 419.0 Z M 737.0 350.0 "></path></clipPath><g clip-path="url(#clip0x7fbd9652ee30)"><path d="M 55.5 9.5 C 68.2 22.2 68.2 42.8 55.5 55.5 C 42.8 68.2 22.2 68.2 9.5 55.5 C -3.2 42.8 -3.2 22.2 9.5 9.5 C 22.2 -3.2 42.8 -3.2 55.5 9.5 " fill="none" stroke="#000000" stroke-width="2.00" transform="matrix(1.00, 0.00, 0.00, -1.00, 739.0, 417.0)"></path></g></g><image xlink:href="../../D4BC38C2-3481-47AE-94C2-36115222C330/assets/90169FBCC3CC0472E1E25EDFDBD21220.png" width="28.00" height="34.00" transform="matrix(1.00, 0.00, -0.00, -1.00, 759.0, 401.0)"></image><g><clipPath id="clip0x7fbd96531080"><path d="M 739.0 346.5 L 804.0 346.5 L 804.0 421.5 L 739.0 421.5 Z M 739.0 346.5 "></path></clipPath><g clip-path="url(#clip0x7fbd96531080)"><text xml:space="preserve" font-family="GillSans,Gill Sans" font-size="40.0" fill="#FEFFFF" transform="matrix(1.00, 0.00, -0.00, -1.00, 759.4, 371.2)">R</text></g></g><g><clipPath id="clip0x7fbd96532870"><path d="M 729.5 314.5 C 742.2 301.8 742.2 281.2 729.5 268.5 C 716.8 255.8 696.2 255.8 683.5 268.5 C 670.8 281.2 670.8 301.8 683.5 314.5 C 696.2 327.2 716.8 327.2 729.5 314.5 "></path></clipPath><g clip-path="url(#clip0x7fbd96532870)"><g><clipPath id="clip0x7fbd965330d0"><path d="M 672.0 257.0 L 741.0 257.0 L 741.0 326.0 L 672.0 326.0 Z M 672.0 257.0 "></path></clipPath><g clip-path="url(#clip0x7fbd965330d0)"><image xlink:href="../../9D8150EA-3D34-4856-BCE2-BE38EADF62D9/assets/D49104237B6EEC8B7192E15227E1FFFD.jpeg" width="300.00" height="300.00" transform="matrix(1.00, 0.00, -0.00, -1.00, 674.0, 324.0)"></image></g></g></g></g><g><clipPath id="clip0x7fbd96534780"><path d="M 672.0 257.0 L 741.0 257.0 L 741.0 326.0 L 672.0 326.0 Z M 672.0 257.0 "></path></clipPath><g clip-path="url(#clip0x7fbd96534780)"><path d="M 55.5 9.5 C 68.2 22.2 68.2 42.8 55.5 55.5 C 42.8 68.2 22.2 68.2 9.5 55.5 C -3.2 42.8 -3.2 22.2 9.5 9.5 C 22.2 -3.2 42.8 -3.2 55.5 9.5 " fill="none" stroke="#000000" stroke-width="2.00" transform="matrix(1.00, 0.00, 0.00, -1.00, 674.0, 324.0)"></path></g></g><image xlink:href="../../D4BC38C2-3481-47AE-94C2-36115222C330/assets/90169FBCC3CC0472E1E25EDFDBD21220.png" width="28.00" height="34.00" transform="matrix(1.00, 0.00, -0.00, -1.00, 694.0, 308.0)"></image><g><clipPath id="clip0x7fbd96535b70"><path d="M 674.0 253.5 L 739.0 253.5 L 739.0 328.5 L 674.0 328.5 Z M 674.0 253.5 "></path></clipPath><g clip-path="url(#clip0x7fbd96535b70)"><text xml:space="preserve" font-family="GillSans,Gill Sans" font-size="40.0" fill="#FEFFFF" transform="matrix(1.00, 0.00, -0.00, -1.00, 694.4, 278.2)">R</text></g></g><g><clipPath id="clip0x7fbd96537160"><path d="M 794.5 314.5 C 807.2 301.8 807.2 281.2 794.5 268.5 C 781.8 255.8 761.2 255.8 748.5 268.5 C 735.8 281.2 735.8 301.8 748.5 314.5 C 761.2 327.2 781.8 327.2 794.5 314.5 "></path></clipPath><g clip-path="url(#clip0x7fbd96537160)"><g><clipPath id="clip0x7fbd96537d30"><path d="M 737.0 257.0 L 806.0 257.0 L 806.0 326.0 L 737.0 326.0 Z M 737.0 257.0 "></path></clipPath><g clip-path="url(#clip0x7fbd96537d30)"><image xlink:href="../../9D8150EA-3D34-4856-BCE2-BE38EADF62D9/assets/D49104237B6EEC8B7192E15227E1FFFD.jpeg" width="300.00" height="300.00" transform="matrix(1.00, 0.00, -0.00, -1.00, 739.0, 324.0)"></image></g></g></g></g><g><clipPath id="clip0x7fbd966c1930"><path d="M 737.0 257.0 L 806.0 257.0 L 806.0 326.0 L 737.0 326.0 Z M 737.0 257.0 "></path></clipPath><g clip-path="url(#clip0x7fbd966c1930)"><path d="M 55.5 9.5 C 68.2 22.2 68.2 42.8 55.5 55.5 C 42.8 68.2 22.2 68.2 9.5 55.5 C -3.2 42.8 -3.2 22.2 9.5 9.5 C 22.2 -3.2 42.8 -3.2 55.5 9.5 " fill="none" stroke="#000000" stroke-width="2.00" transform="matrix(1.00, 0.00, 0.00, -1.00, 739.0, 324.0)"></path></g></g><image xlink:href="../../D4BC38C2-3481-47AE-94C2-36115222C330/assets/90169FBCC3CC0472E1E25EDFDBD21220.png" width="28.00" height="34.00" transform="matrix(1.00, 0.00, -0.00, -1.00, 759.0, 308.0)"></image><g><clipPath id="clip0x7fbd966c3920"><path d="M 739.0 253.5 L 804.0 253.5 L 804.0 328.5 L 739.0 328.5 Z M 739.0 253.5 "></path></clipPath><g clip-path="url(#clip0x7fbd966c3920)"><text xml:space="preserve" font-family="GillSans,Gill Sans" font-size="40.0" fill="#FEFFFF" transform="matrix(1.00, 0.00, -0.00, -1.00, 759.4, 278.2)">R</text></g></g><g><clipPath id="clip0x7fbd966c55f0"><path d="M 683.7 449.1 L 796.3 449.1 L 796.3 505.6 L 683.7 505.6 Z M 683.7 449.1 "></path></clipPath><g clip-path="url(#clip0x7fbd966c55f0)"><path d="M 0.0 0.0 L 106.7 45.3 " fill="none" stroke="#E22400" stroke-width="10.00" transform="matrix(1.00, 0.00, 0.00, -1.00, 686.7, 500.0)"></path></g></g><g><clipPath id="clip0x7fbd966c65f0"><path d="M 684.9 447.8 L 792.4 447.8 L 792.4 505.5 L 684.9 505.5 Z M 684.9 447.8 "></path></clipPath><g clip-path="url(#clip0x7fbd966c65f0)"><path d="M 101.3 0.0 L 0.0 46.7 " fill="none" stroke="#E22400" stroke-width="10.00" transform="matrix(1.00, 0.00, 0.00, -1.00, 688.0, 500.0)"></path></g></g><g><clipPath id="clip0x7fbd966c75f0"><path d="M 682.0 263.1 L 794.6 263.1 L 794.6 319.6 L 682.0 319.6 Z M 682.0 263.1 "></path></clipPath><g clip-path="url(#clip0x7fbd966c75f0)"><path d="M 0.0 0.0 L 106.7 45.3 " fill="none" stroke="#E22400" stroke-width="10.00" transform="matrix(1.00, 0.00, 0.00, -1.00, 685.0, 314.0)"></path></g></g><g><clipPath id="clip0x7fbd966c85f0"><path d="M 682.9 261.8 L 790.4 261.8 L 790.4 319.5 L 682.9 319.5 Z M 682.9 261.8 "></path></clipPath><g clip-path="url(#clip0x7fbd966c85f0)"><path d="M 101.3 0.0 L 0.0 46.7 " fill="none" stroke="#E22400" stroke-width="10.00" transform="matrix(1.00, 0.00, 0.00, -1.00, 686.0, 314.0)"></path></g></g><g><clipPath id="clip0x7fbd966c95f0"><path d="M 590.0 311.5 L 888.0 311.5 L 888.0 535.0 L 590.0 535.0 Z M 590.0 311.5 "></path></clipPath><g clip-path="url(#clip0x7fbd966c95f0)"><image xlink:href="../../D4BC38C2-3481-47AE-94C2-36115222C330/assets/264C4895870ED1D88A9AE8692A05622C.png" width="800.00" height="600.00" transform="matrix(0.37, 0.00, -0.00, -0.37, 590.0, 535.0)"></image></g></g><g><clipPath id="clip0x7fbd967a01b0"><path d="M 641.4 202.0 L 860.4 202.0 L 860.4 310.0 L 641.4 310.0 Z M 641.4 202.0 "></path></clipPath><g clip-path="url(#clip0x7fbd967a01b0)"><path d="M 642.0 309.0 L 859.0 309.0 L 859.0 203.0 L 642.0 203.0 Z M 642.4 309.0 " fill="#FFFFFF"></path></g></g><g><clipPath id="clip0x7fbd967a10e0"><path d="M 634.3 194.9 L 1069.0 194.9 L 1069.0 317.1 L 634.3 317.1 Z M 634.3 194.9 "></path></clipPath><g clip-path="url(#clip0x7fbd967a10e0)"><text xml:space="preserve" font-family="GillSans-Italic,Gill Sans" font-style="italic" font-size="42.0" fill="#000000" transform="matrix(1.00, 0.00, -0.00, -1.00, 658.5, 265.7)">R</text><text xml:space="preserve" font-family="GillSans-Italic,Gill Sans" font-style="italic" font-size="42.0" fill="#000000" transform="matrix(1.00, 0.00, -0.00, -1.00, 680.8, 265.7)">.</text><text xml:space="preserve" font-family="GillSans-Italic,Gill Sans" font-style="italic" font-size="42.0" fill="#000000" transform="matrix(1.00, 0.00, -0.00, -1.00, 685.0, 265.7)"> </text><text xml:space="preserve" font-family="GillSans-Italic,Gill Sans" font-style="italic" font-size="42.0" fill="#000000" transform="matrix(1.00, 0.00, -0.00, -1.00, 696.6, 265.7)">e</text><text xml:space="preserve" font-family="GillSans-Italic,Gill Sans" font-style="italic" font-size="42.0" fill="#000000" transform="matrix(1.00, 0.00, -0.00, -1.00, 715.0, 265.7)">s</text><text xml:space="preserve" font-family="GillSans-Italic,Gill Sans" font-style="italic" font-size="42.0" fill="#000000" transform="matrix(1.00, 0.00, -0.00, -1.00, 729.9, 265.7)">c</text><text xml:space="preserve" font-family="GillSans-Italic,Gill Sans" font-style="italic" font-size="42.0" fill="#000000" transform="matrix(1.00, 0.00, -0.00, -1.00, 746.0, 265.7)">u</text><text xml:space="preserve" font-family="GillSans-Italic,Gill Sans" font-style="italic" font-size="42.0" fill="#000000" transform="matrix(1.00, 0.00, -0.00, -1.00, 765.8, 265.7)">l</text><text xml:space="preserve" font-family="GillSans-Italic,Gill Sans" font-style="italic" font-size="42.0" fill="#000000" transform="matrix(1.00, 0.00, -0.00, -1.00, 773.6, 265.7)">e</text><text xml:space="preserve" font-family="GillSans-Italic,Gill Sans" font-style="italic" font-size="42.0" fill="#000000" transform="matrix(1.00, 0.00, -0.00, -1.00, 792.0, 265.7)">n</text><text xml:space="preserve" font-family="GillSans-Italic,Gill Sans" font-style="italic" font-size="42.0" fill="#000000" transform="matrix(1.00, 0.00, -0.00, -1.00, 811.8, 265.7)">t</text><text xml:space="preserve" font-family="GillSans-Italic,Gill Sans" font-style="italic" font-size="42.0" fill="#000000" transform="matrix(1.00, 0.00, -0.00, -1.00, 823.5, 265.7)">a</text><text xml:space="preserve" font-family="GillSans,Gill Sans" font-size="42.0" fill="#000000" transform="matrix(1.00, 0.00, -0.00, -1.00, 843.3, 265.7)"> </text><text xml:space="preserve" font-family="GillSans,Gill Sans" font-size="42.0" fill="#000000" transform="matrix(1.00, 0.00, -0.00, -1.00, 649.5, 216.7)">(</text><text xml:space="preserve" font-family="GillSans,Gill Sans" font-size="42.0" fill="#000000" transform="matrix(1.00, 0.00, -0.00, -1.00, 663.1, 216.7)">L</text><text xml:space="preserve" font-family="GillSans,Gill Sans" font-size="42.0" fill="#000000" transform="matrix(1.00, 0.00, -0.00, -1.00, 683.7, 216.7)">R</text><text xml:space="preserve" font-family="GillSans,Gill Sans" font-size="42.0" fill="#000000" transform="matrix(1.00, 0.00, -0.00, -1.00, 709.1, 216.7)"> </text><text xml:space="preserve" font-family="GillSans,Gill Sans" font-size="42.0" fill="#000000" transform="matrix(1.00, 0.00, -0.00, -1.00, 720.7, 216.7)">o</text><text xml:space="preserve" font-family="GillSans,Gill Sans" font-size="42.0" fill="#000000" transform="matrix(1.00, 0.00, -0.00, -1.00, 743.9, 216.7)">r</text><text xml:space="preserve" font-family="GillSans,Gill Sans" font-size="42.0" fill="#000000" transform="matrix(1.00, 0.00, -0.00, -1.00, 760.5, 216.7)"> </text><text xml:space="preserve" font-family="GillSans,Gill Sans" font-size="42.0" fill="#000000" transform="matrix(1.00, 0.00, -0.00, -1.00, 772.2, 216.7)">L</text><text xml:space="preserve" font-family="GillSans,Gill Sans" font-size="42.0" fill="#000000" transform="matrix(1.00, 0.00, -0.00, -1.00, 792.8, 216.7)">L</text><text xml:space="preserve" font-family="GillSans,Gill Sans" font-size="42.0" fill="#000000" transform="matrix(1.00, 0.00, -0.00, -1.00, 813.4, 216.7)">R</text><text xml:space="preserve" font-family="GillSans,Gill Sans" font-size="42.0" fill="#000000" transform="matrix(1.00, 0.00, -0.00, -1.00, 838.7, 216.7)">)</text></g></g></g></svg>