<?xml version="1.0" encoding="UTF-8" standalone="no"?><svg xmlns="http://www.w3.org/2000/svg" xmlns:xlink="http://www.w3.org/1999/xlink" clip-rule="evenodd" stroke-miterlimit="10" viewBox="0 0 411 382"><desc>SVG generated by Keynote</desc><defs></defs><g transform="matrix(1.00, 0.00, -0.00, -1.00, 0.0, 382.0)"><g><clipPath id="clip0x7fbd964b4fc0"><path d="M 119.5 315.9 L 165.6 315.9 L 165.6 389.1 L 119.5 389.1 Z M 119.5 315.9 "></path></clipPath><g clip-path="url(#clip0x7fbd964b4fc0)"><text xml:space="preserve" font-family="GillSans,Gill Sans" font-size="42.0" fill="#000000" transform="matrix(1.00, 0.00, -0.00, -1.00, 132.1, 337.7)">x</text></g></g><g><clipPath id="clip0x7fbd964b7290"><path d="M 0.0 109.5 L 298.0 109.5 L 298.0 333.0 L 0.0 333.0 Z M 0.0 109.5 "></path></clipPath><g clip-path="url(#clip0x7fbd964b7290)"><image xlink:href="../../D4BC38C2-3481-47AE-94C2-36115222C330/assets/264C4895870ED1D88A9AE8692A05622C.png" width="800.00" height="600.00" transform="matrix(0.37, 0.00, -0.00, -0.37, 0.0, 333.0)"></image></g></g><g><clipPath id="clip0x7fbd96628eb0"><path d="M 44.3 -7.1 L 479.0 -7.1 L 479.0 115.1 L 44.3 115.1 Z M 44.3 -7.1 "></path></clipPath><g clip-path="url(#clip0x7fbd96628eb0)"><text xml:space="preserve" font-family="GillSans-Italic,Gill Sans" font-style="italic" font-size="42.0" fill="#000000" transform="matrix(1.00, 0.00, -0.00, -1.00, 68.5, 63.7)">R</text><text xml:space="preserve" font-family="GillSans-Italic,Gill Sans" font-style="italic" font-size="42.0" fill="#000000" transform="matrix(1.00, 0.00, -0.00, -1.00, 90.8, 63.7)">.</text><text xml:space="preserve" font-family="GillSans-Italic,Gill Sans" font-style="italic" font-size="42.0" fill="#000000" transform="matrix(1.00, 0.00, -0.00, -1.00, 95.0, 63.7)"> </text><text xml:space="preserve" font-family="GillSans-Italic,Gill Sans" font-style="italic" font-size="42.0" fill="#000000" transform="matrix(1.00, 0.00, -0.00, -1.00, 106.6, 63.7)">e</text><text xml:space="preserve" font-family="GillSans-Italic,Gill Sans" font-style="italic" font-size="42.0" fill="#000000" transform="matrix(1.00, 0.00, -0.00, -1.00, 125.0, 63.7)">s</text><text xml:space="preserve" font-family="GillSans-Italic,Gill Sans" font-style="italic" font-size="42.0" fill="#000000" transform="matrix(1.00, 0.00, -0.00, -1.00, 139.9, 63.7)">c</text><text xml:space="preserve" font-family="GillSans-Italic,Gill Sans" font-style="italic" font-size="42.0" fill="#000000" transform="matrix(1.00, 0.00, -0.00, -1.00, 156.0, 63.7)">u</text><text xml:space="preserve" font-family="GillSans-Italic,Gill Sans" font-style="italic" font-size="42.0" fill="#000000" transform="matrix(1.00, 0.00, -0.00, -1.00, 175.8, 63.7)">l</text><text xml:space="preserve" font-family="GillSans-Italic,Gill Sans" font-style="italic" font-size="42.0" fill="#000000" transform="matrix(1.00, 0.00, -0.00, -1.00, 183.6, 63.7)">e</text><text xml:space="preserve" font-family="GillSans-Italic,Gill Sans" font-style="italic" font-size="42.0" fill="#000000" transform="matrix(1.00, 0.00, -0.00, -1.00, 202.0, 63.7)">n</text><text xml:space="preserve" font-family="GillSans-Italic,Gill Sans" font-style="italic" font-size="42.0" fill="#000000" transform="matrix(1.00, 0.00, -0.00, -1.00, 221.8, 63.7)">t</text><text xml:space="preserve" font-family="GillSans-Italic,Gill Sans" font-style="italic" font-size="42.0" fill="#000000" transform="matrix(1.00, 0.00, -0.00, -1.00, 233.5, 63.7)">a</text><text xml:space="preserve" font-family="GillSans,Gill Sans" font-size="42.0" fill="#000000" transform="matrix(1.00, 0.00, -0.00, -1.00, 253.3, 63.7)"> </text><text xml:space="preserve" font-family="GillSans,Gill Sans" font-size="42.0" fill="#000000" transform="matrix(1.00, 0.00, -0.00, -1.00, 59.5, 14.7)">(</text><text xml:space="preserve" font-family="GillSans,Gill Sans" font-size="42.0" fill="#000000" transform="matrix(1.00, 0.00, -0.00, -1.00, 73.1, 14.7)">L</text><text xml:space="preserve" font-family="GillSans,Gill Sans" font-size="42.0" fill="#000000" transform="matrix(1.00, 0.00, -0.00, -1.00, 93.7, 14.7)">R</text><text xml:space="preserve" font-family="GillSans,Gill Sans" font-size="42.0" fill="#000000" transform="matrix(1.00, 0.00, -0.00, -1.00, 119.1, 14.7)"> </text><text xml:space="preserve" font-family="GillSans,Gill Sans" font-size="42.0" fill="#000000" transform="matrix(1.00, 0.00, -0.00, -1.00, 130.7, 14.7)">o</text><text xml:space="preserve" font-family="GillSans,Gill Sans" font-size="42.0" fill="#000000" transform="matrix(1.00, 0.00, -0.00, -1.00, 153.9, 14.7)">r</text><text xml:space="preserve" font-family="GillSans,Gill Sans" font-size="42.0" fill="#000000" transform="matrix(1.00, 0.00, -0.00, -1.00, 170.5, 14.7)"> </text><text xml:space="preserve" font-family="GillSans,Gill Sans" font-size="42.0" fill="#000000" transform="matrix(1.00, 0.00, -0.00, -1.00, 182.2, 14.7)">L</text><text xml:space="preserve" font-family="GillSans,Gill Sans" font-size="42.0" fill="#000000" transform="matrix(1.00, 0.00, -0.00, -1.00, 202.8, 14.7)">L</text><text xml:space="preserve" font-family="GillSans,Gill Sans" font-size="42.0" fill="#000000" transform="matrix(1.00, 0.00, -0.00, -1.00, 223.4, 14.7)">R</text><text xml:space="preserve" font-family="GillSans,Gill Sans" font-size="42.0" fill="#000000" transform="matrix(1.00, 0.00, -0.00, -1.00, 248.7, 14.7)">)</text></g></g><g><clipPath id="clip0x7fbd96631b40"><path d="M 399.5 291.5 C 412.2 278.8 412.2 258.2 399.5 245.5 C 386.8 232.8 366.2 232.8 353.5 245.5 C 340.8 258.2 340.8 278.8 353.5 291.5 C 366.2 304.2 386.8 304.2 399.5 291.5 "></path></clipPath><g clip-path="url(#clip0x7fbd96631b40)"><g><clipPath id="clip0x7fbd96632400"><path d="M 342.0 234.0 L 411.0 234.0 L 411.0 303.0 L 342.0 303.0 Z M 342.0 234.0 "></path></clipPath><g clip-path="url(#clip0x7fbd96632400)"><image xlink:href="../../9D8150EA-3D34-4856-BCE2-BE38EADF62D9/assets/D49104237B6EEC8B7192E15227E1FFFD.jpeg" width="300.00" height="300.00" transform="matrix(1.00, 0.00, -0.00, -1.00, 344.0, 301.0)"></image></g></g></g></g><g><clipPath id="clip0x7fbd96633e30"><path d="M 342.0 234.0 L 411.0 234.0 L 411.0 303.0 L 342.0 303.0 Z M 342.0 234.0 "></path></clipPath><g clip-path="url(#clip0x7fbd96633e30)"><path d="M 55.5 9.5 C 68.2 22.2 68.2 42.8 55.5 55.5 C 42.8 68.2 22.2 68.2 9.5 55.5 C -3.2 42.8 -3.2 22.2 9.5 9.5 C 22.2 -3.2 42.8 -3.2 55.5 9.5 " fill="none" stroke="#000000" stroke-width="2.00" transform="matrix(1.00, 0.00, 0.00, -1.00, 344.0, 301.0)"></path></g></g><image xlink:href="../../D4BC38C2-3481-47AE-94C2-36115222C330/assets/8D0E68CAE7AD005274267FAF01CE9BAE.png" width="23.00" height="34.00" transform="matrix(1.00, 0.00, -0.00, -1.00, 366.0, 284.0)"></image><g><clipPath id="clip0x7fbd96636af0"><path d="M 344.0 230.0 L 409.0 230.0 L 409.0 305.0 L 344.0 305.0 Z M 344.0 230.0 "></path></clipPath><g clip-path="url(#clip0x7fbd96636af0)"><text xml:space="preserve" font-family="GillSans,Gill Sans" font-size="40.0" fill="#FEFFFF" transform="matrix(1.00, 0.00, -0.00, -1.00, 366.7, 254.7)">L</text></g></g><g><clipPath id="clip0x7fbd96638320"><path d="M 399.5 206.5 C 412.2 193.8 412.2 173.2 399.5 160.5 C 386.8 147.8 366.2 147.8 353.5 160.5 C 340.8 173.2 340.8 193.8 353.5 206.5 C 366.2 219.2 386.8 219.2 399.5 206.5 "></path></clipPath><g clip-path="url(#clip0x7fbd96638320)"><g><clipPath id="clip0x7fbd96638b80"><path d="M 342.0 149.0 L 411.0 149.0 L 411.0 218.0 L 342.0 218.0 Z M 342.0 149.0 "></path></clipPath><g clip-path="url(#clip0x7fbd96638b80)"><image xlink:href="../../9D8150EA-3D34-4856-BCE2-BE38EADF62D9/assets/D49104237B6EEC8B7192E15227E1FFFD.jpeg" width="300.00" height="300.00" transform="matrix(1.00, 0.00, -0.00, -1.00, 344.0, 216.0)"></image></g></g></g></g><g><clipPath id="clip0x7fbd957ecb30"><path d="M 342.0 149.0 L 411.0 149.0 L 411.0 218.0 L 342.0 218.0 Z M 342.0 149.0 "></path></clipPath><g clip-path="url(#clip0x7fbd957ecb30)"><path d="M 55.5 9.5 C 68.2 22.2 68.2 42.8 55.5 55.5 C 42.8 68.2 22.2 68.2 9.5 55.5 C -3.2 42.8 -3.2 22.2 9.5 9.5 C 22.2 -3.2 42.8 -3.2 55.5 9.5 " fill="none" stroke="#000000" stroke-width="2.00" transform="matrix(1.00, 0.00, 0.00, -1.00, 344.0, 216.0)"></path></g></g><image xlink:href="../../D4BC38C2-3481-47AE-94C2-36115222C330/assets/90169FBCC3CC0472E1E25EDFDBD21220.png" width="28.00" height="34.00" transform="matrix(1.00, 0.00, -0.00, -1.00, 364.0, 200.0)"></image><g><clipPath id="clip0x7fbd957e78f0"><path d="M 344.0 145.5 L 409.0 145.5 L 409.0 220.5 L 344.0 220.5 Z M 344.0 145.5 "></path></clipPath><g clip-path="url(#clip0x7fbd957e78f0)"><text xml:space="preserve" font-family="GillSans,Gill Sans" font-size="40.0" fill="#FEFFFF" transform="matrix(1.00, 0.00, -0.00, -1.00, 364.4, 170.2)">R</text></g></g></g></svg>