<?xml version="1.0" encoding="UTF-8" standalone="no"?><svg xmlns="http://www.w3.org/2000/svg" xmlns:xlink="http://www.w3.org/1999/xlink" clip-rule="evenodd" stroke-miterlimit="10" viewBox="0 0 720 540"><desc>SVG generated by Keynote</desc><defs></defs><g transform="matrix(1.00, 0.00, -0.00, -1.00, 0.0, 540.0)"><path d="M 0.0 540.0 L 720.0 540.0 L 720.0 0.0 L 0.0 0.0 Z M 0.0 540.0 " fill="#FEFFFF"></path><image xlink:href="../../0983FBAA-73BA-44C7-A5F1-83F1279ED68E/assets/1BD99046FBAB026206F5D9386D659428.png" width="720.00" height="995.00" transform="matrix(0.53, 0.00, -0.00, -0.53, 168.0, 536.0)"></image><text xml:space="preserve" font-family="GillSans,Gill Sans" font-size="14.0" fill="#000000" transform="matrix(1.00, 0.00, -0.00, -1.00, 610.2, 9.2)">C</text><text xml:space="preserve" font-family="GillSans,Gill Sans" font-size="14.0" fill="#000000" transform="matrix(1.00, 0.00, -0.00, -1.00, 620.1, 9.2)">o</text><text xml:space="preserve" font-family="GillSans,Gill Sans" font-size="14.0" fill="#000000" transform="matrix(1.00, 0.00, -0.00, -1.00, 627.8, 9.2)">a</text><text xml:space="preserve" font-family="GillSans,Gill Sans" font-size="14.0" fill="#000000" transform="matrix(1.00, 0.00, -0.00, -1.00, 633.8, 9.2)">t</text><text xml:space="preserve" font-family="GillSans,Gill Sans" font-size="14.0" fill="#000000" transform="matrix(1.00, 0.00, -0.00, -1.00, 638.4, 9.2)">e</text><text xml:space="preserve" font-family="GillSans,Gill Sans" font-size="14.0" fill="#000000" transform="matrix(1.00, 0.00, -0.00, -1.00, 645.1, 9.2)">s</text><text xml:space="preserve" font-family="GillSans,Gill Sans" font-size="14.0" fill="#000000" transform="matrix(1.00, 0.00, -0.00, -1.00, 650.5, 9.2)"> </text><text xml:space="preserve" font-family="GillSans,Gill Sans" font-size="14.0" fill="#000000" transform="matrix(1.00, 0.00, -0.00, -1.00, 654.4, 9.2)">e</text><text xml:space="preserve" font-family="GillSans,Gill Sans" font-size="14.0" fill="#000000" transform="matrix(1.00, 0.00, -0.00, -1.00, 661.1, 9.2)">t</text><text xml:space="preserve" font-family="GillSans,Gill Sans" font-size="14.0" fill="#000000" transform="matrix(1.00, 0.00, -0.00, -1.00, 665.8, 9.2)"> </text><text xml:space="preserve" font-family="GillSans,Gill Sans" font-size="14.0" fill="#000000" transform="matrix(1.00, 0.00, -0.00, -1.00, 669.7, 9.2)">a</text><text xml:space="preserve" font-family="GillSans,Gill Sans" font-size="14.0" fill="#000000" transform="matrix(1.00, 0.00, -0.00, -1.00, 675.6, 9.2)">l</text><text xml:space="preserve" font-family="GillSans,Gill Sans" font-size="14.0" fill="#000000" transform="matrix(1.00, 0.00, -0.00, -1.00, 678.7, 9.2)">.</text><text xml:space="preserve" font-family="GillSans,Gill Sans" font-size="14.0" fill="#000000" transform="matrix(1.00, 0.00, -0.00, -1.00, 680.4, 9.2)"> </text><text xml:space="preserve" font-family="GillSans,Gill Sans" font-size="14.0" fill="#000000" transform="matrix(1.00, 0.00, -0.00, -1.00, 684.3, 9.2)">2</text><text xml:space="preserve" font-family="GillSans,Gill Sans" font-size="14.0" fill="#000000" transform="matrix(1.00, 0.00, -0.00, -1.00, 691.3, 9.2)">0</text><text xml:space="preserve" font-family="GillSans,Gill Sans" font-size="14.0" fill="#000000" transform="matrix(1.00, 0.00, -0.00, -1.00, 698.3, 9.2)">0</text><text xml:space="preserve" font-family="GillSans,Gill Sans" font-size="14.0" fill="#000000" transform="matrix(1.00, 0.00, -0.00, -1.00, 705.3, 9.2)">8</text><path d="M 8.0 0.5 L 9.9 0.5 L 84.0 0.5 " fill="none" stroke="#FF4013" stroke-width="3.00" transform="matrix(1.00, 0.00, 0.00, -1.00, 514.0, 90.0)"></path><path d="M 526.8 96.1 L 513.6 89.5 L 526.8 82.9 L 523.5 89.5 Z M 526.8 96.1 " fill="#FF4013"></path></g></svg>