<?xml version="1.0" encoding="UTF-8" standalone="no"?><svg xmlns="http://www.w3.org/2000/svg" xmlns:xlink="http://www.w3.org/1999/xlink" clip-rule="evenodd" stroke-miterlimit="4.00" viewBox="0 0 1024 768"><desc>SVG generated by Keynote</desc><defs></defs><g transform="matrix(1.00, 0.00, -0.00, -1.00, 0.0, 768.0)"><g><clipPath id="clip-494"><path d="M 0.0 768.0 L 1024.0 768.0 L 1024.0 0.0 L 0.0 0.0 Z M 0.0 768.0 "></path></clipPath><g clip-path="url(#clip-494)"><image xlink:href="../../C9BB2F21-7097-4279-8A02-40FCEE817F8A/assets/5E504543DA7BCE62C2A0475F0A9742EF.jpeg" width="1365.00" height="767.00" transform="matrix(2.81, 0.00, -0.00, -2.82, -1408.0, 1464.0)"></image></g></g><path d="M 0.0 0.0 L 980.0 0.0 L 980.0 726.0 L 0.0 726.0 Z M 0.0 0.0 " fill="none" stroke="#A2A0A6" stroke-width="2.00" transform="matrix(1.00, 0.00, 0.00, -1.00, 22.3, 746.0)"></path><path d="M 0.0 0.0 L 981.1 0.0 " fill="none" stroke="#A2A0A6" stroke-width="2.00" transform="matrix(1.00, 0.00, 0.00, -1.00, 21.9, 110.0)"></path><g><clipPath id="clip-495"><path d="M 0.0 768.0 L 1024.0 768.0 L 1024.0 0.0 L 0.0 0.0 Z M 0.0 768.0 "></path></clipPath><g clip-path="url(#clip-495)"><image xlink:href="../../C9BB2F21-7097-4279-8A02-40FCEE817F8A/assets/5E504543DA7BCE62C2A0475F0A9742EF.jpeg" width="1365.00" height="767.00" transform="matrix(2.81, 0.00, -0.00, -2.82, -1408.0, 1464.0)"></image></g></g><path d="M 0.0 0.0 L 1024.0 0.0 L 1024.0 768.0 L 0.0 768.0 Z M 0.0 0.0 " fill="none" stroke="#000000" stroke-width="1.00" transform="matrix(1.00, 0.00, 0.00, -1.00, 0.0, 768.0)"></path><path d="M 0.0 0.0 L 980.0 0.0 L 980.0 726.0 L 0.0 726.0 Z M 0.0 0.0 " fill="none" stroke="#A2A0A6" stroke-width="2.00" transform="matrix(1.00, 0.00, 0.00, -1.00, 22.3, 746.0)"></path><path d="M 0.0 0.0 L 981.1 0.0 " fill="none" stroke="#A2A0A6" stroke-width="2.00" transform="matrix(1.00, 0.00, 0.00, -1.00, 21.9, 110.0)"></path><image xlink:href="../../41C32F21-7097-4279-8A02-40FCEE817F8A/assets/12B84A26CF3BC043B350C19E1E032F7A.jpeg" width="545.00" height="215.00" transform="matrix(1.00, 0.00, -0.00, -1.00, 27.0, 743.0)"></image><text xml:space="preserve" font-family="HelveticaNeue-CondensedBold" font-weight="bold" font-size="36.0" fill="#DDDCDE" transform="matrix(1.00, 0.00, -0.00, -1.00, 33.0, 69.0)">H</text><text xml:space="preserve" font-family="HelveticaNeue-CondensedBold" font-weight="bold" font-size="36.0" fill="#DDDCDE" transform="matrix(1.00, 0.00, -0.00, -1.00, 53.0, 69.0)">A</text><text xml:space="preserve" font-family="HelveticaNeue-CondensedBold" font-weight="bold" font-size="36.0" fill="#DDDCDE" transform="matrix(1.00, 0.00, -0.00, -1.00, 73.0, 69.0)">B</text><text xml:space="preserve" font-family="HelveticaNeue-CondensedBold" font-weight="bold" font-size="36.0" fill="#DDDCDE" transform="matrix(1.00, 0.00, -0.00, -1.00, 93.0, 69.0)">I</text><text xml:space="preserve" font-family="HelveticaNeue-CondensedBold" font-weight="bold" font-size="36.0" fill="#DDDCDE" transform="matrix(1.00, 0.00, -0.00, -1.00, 102.3, 69.0)">T</text><text xml:space="preserve" font-family="HelveticaNeue-CondensedBold" font-weight="bold" font-size="36.0" fill="#DDDCDE" transform="matrix(1.00, 0.00, -0.00, -1.00, 117.6, 69.0)">A</text><text xml:space="preserve" font-family="HelveticaNeue-CondensedBold" font-weight="bold" font-size="36.0" fill="#DDDCDE" transform="matrix(1.00, 0.00, -0.00, -1.00, 135.7, 69.0)">T</text><text xml:space="preserve" font-family="HelveticaNeue-CondensedBold" font-weight="bold" font-size="36.0" fill="#DDDCDE" transform="matrix(1.00, 0.00, -0.00, -1.00, 153.0, 69.0)"> </text><text xml:space="preserve" font-family="HelveticaNeue-CondensedBold" font-weight="bold" font-size="36.0" fill="#DDDCDE" transform="matrix(1.00, 0.00, -0.00, -1.00, 161.6, 69.0)">D</text><text xml:space="preserve" font-family="HelveticaNeue-CondensedBold" font-weight="bold" font-size="36.0" fill="#DDDCDE" transform="matrix(1.00, 0.00, -0.00, -1.00, 182.3, 69.0)">E</text><text xml:space="preserve" font-family="HelveticaNeue-CondensedBold" font-weight="bold" font-size="36.0" fill="#DDDCDE" transform="matrix(1.00, 0.00, -0.00, -1.00, 199.6, 69.0)">S</text><text xml:space="preserve" font-family="HelveticaNeue-CondensedBold" font-weight="bold" font-size="36.0" fill="#DDDCDE" transform="matrix(1.00, 0.00, -0.00, -1.00, 218.3, 69.0)">T</text><text xml:space="preserve" font-family="HelveticaNeue-CondensedBold" font-weight="bold" font-size="36.0" fill="#DDDCDE" transform="matrix(1.00, 0.00, -0.00, -1.00, 235.5, 69.0)">R</text><text xml:space="preserve" font-family="HelveticaNeue-CondensedBold" font-weight="bold" font-size="36.0" fill="#DDDCDE" transform="matrix(1.00, 0.00, -0.00, -1.00, 256.3, 69.0)">U</text><text xml:space="preserve" font-family="HelveticaNeue-CondensedBold" font-weight="bold" font-size="36.0" fill="#DDDCDE" transform="matrix(1.00, 0.00, -0.00, -1.00, 275.6, 69.0)">C</text><text xml:space="preserve" font-family="HelveticaNeue-CondensedBold" font-weight="bold" font-size="36.0" fill="#DDDCDE" transform="matrix(1.00, 0.00, -0.00, -1.00, 295.0, 69.0)">T</text><text xml:space="preserve" font-family="HelveticaNeue-CondensedBold" font-weight="bold" font-size="36.0" fill="#DDDCDE" transform="matrix(1.00, 0.00, -0.00, -1.00, 312.3, 69.0)">I</text><text xml:space="preserve" font-family="HelveticaNeue-CondensedBold" font-weight="bold" font-size="36.0" fill="#DDDCDE" transform="matrix(1.00, 0.00, -0.00, -1.00, 321.5, 69.0)">O</text><text xml:space="preserve" font-family="HelveticaNeue-CondensedBold" font-weight="bold" font-size="36.0" fill="#DDDCDE" transform="matrix(1.00, 0.00, -0.00, -1.00, 341.6, 69.0)">N</text><text xml:space="preserve" font-family="HelveticaNeue-CondensedBold" font-weight="bold" font-size="36.0" fill="#DDDCDE" transform="matrix(1.00, 0.00, -0.00, -1.00, 362.2, 69.0)">,</text><text xml:space="preserve" font-family="HelveticaNeue-CondensedBold" font-weight="bold" font-size="36.0" fill="#DDDCDE" transform="matrix(1.00, 0.00, -0.00, -1.00, 369.5, 69.0)"> </text><text xml:space="preserve" font-family="HelveticaNeue-CondensedBold" font-weight="bold" font-size="36.0" fill="#DDDCDE" transform="matrix(1.00, 0.00, -0.00, -1.00, 376.8, 69.0)">A</text><text xml:space="preserve" font-family="HelveticaNeue-CondensedBold" font-weight="bold" font-size="36.0" fill="#DDDCDE" transform="matrix(1.00, 0.00, -0.00, -1.00, 396.9, 69.0)">L</text><text xml:space="preserve" font-family="HelveticaNeue-CondensedBold" font-weight="bold" font-size="36.0" fill="#DDDCDE" transform="matrix(1.00, 0.00, -0.00, -1.00, 410.1, 69.0)">T</text><text xml:space="preserve" font-family="HelveticaNeue-CondensedBold" font-weight="bold" font-size="36.0" fill="#DDDCDE" transform="matrix(1.00, 0.00, -0.00, -1.00, 427.4, 69.0)">E</text><text xml:space="preserve" font-family="HelveticaNeue-CondensedBold" font-weight="bold" font-size="36.0" fill="#DDDCDE" transform="matrix(1.00, 0.00, -0.00, -1.00, 444.7, 69.0)">R</text><text xml:space="preserve" font-family="HelveticaNeue-CondensedBold" font-weight="bold" font-size="36.0" fill="#DDDCDE" transform="matrix(1.00, 0.00, -0.00, -1.00, 464.7, 69.0)">A</text><text xml:space="preserve" font-family="HelveticaNeue-CondensedBold" font-weight="bold" font-size="36.0" fill="#DDDCDE" transform="matrix(1.00, 0.00, -0.00, -1.00, 482.8, 69.0)">T</text><text xml:space="preserve" font-family="HelveticaNeue-CondensedBold" font-weight="bold" font-size="36.0" fill="#DDDCDE" transform="matrix(1.00, 0.00, -0.00, -1.00, 500.1, 69.0)">I</text><text xml:space="preserve" font-family="HelveticaNeue-CondensedBold" font-weight="bold" font-size="36.0" fill="#DDDCDE" transform="matrix(1.00, 0.00, -0.00, -1.00, 509.4, 69.0)">O</text><text xml:space="preserve" font-family="HelveticaNeue-CondensedBold" font-weight="bold" font-size="36.0" fill="#DDDCDE" transform="matrix(1.00, 0.00, -0.00, -1.00, 529.4, 69.0)">N</text><text xml:space="preserve" font-family="HelveticaNeue-CondensedBold" font-weight="bold" font-size="36.0" fill="#DDDCDE" transform="matrix(1.00, 0.00, -0.00, -1.00, 550.0, 69.0)">,</text><text xml:space="preserve" font-family="HelveticaNeue-CondensedBold" font-weight="bold" font-size="36.0" fill="#DDDCDE" transform="matrix(1.00, 0.00, -0.00, -1.00, 557.3, 69.0)"> </text><text xml:space="preserve" font-family="HelveticaNeue-CondensedBold" font-weight="bold" font-size="36.0" fill="#DDDCDE" transform="matrix(1.00, 0.00, -0.00, -1.00, 566.0, 69.0)">F</text><text xml:space="preserve" font-family="HelveticaNeue-CondensedBold" font-weight="bold" font-size="36.0" fill="#DDDCDE" transform="matrix(1.00, 0.00, -0.00, -1.00, 582.6, 69.0)">R</text><text xml:space="preserve" font-family="HelveticaNeue-CondensedBold" font-weight="bold" font-size="36.0" fill="#DDDCDE" transform="matrix(1.00, 0.00, -0.00, -1.00, 602.7, 69.0)">A</text><text xml:space="preserve" font-family="HelveticaNeue-CondensedBold" font-weight="bold" font-size="36.0" fill="#DDDCDE" transform="matrix(1.00, 0.00, -0.00, -1.00, 622.7, 69.0)">G</text><text xml:space="preserve" font-family="HelveticaNeue-CondensedBold" font-weight="bold" font-size="36.0" fill="#DDDCDE" transform="matrix(1.00, 0.00, -0.00, -1.00, 642.7, 69.0)">M</text><text xml:space="preserve" font-family="HelveticaNeue-CondensedBold" font-weight="bold" font-size="36.0" fill="#DDDCDE" transform="matrix(1.00, 0.00, -0.00, -1.00, 669.3, 69.0)">E</text><text xml:space="preserve" font-family="HelveticaNeue-CondensedBold" font-weight="bold" font-size="36.0" fill="#DDDCDE" transform="matrix(1.00, 0.00, -0.00, -1.00, 686.7, 69.0)">N</text><text xml:space="preserve" font-family="HelveticaNeue-CondensedBold" font-weight="bold" font-size="36.0" fill="#DDDCDE" transform="matrix(1.00, 0.00, -0.00, -1.00, 707.3, 69.0)">T</text><text xml:space="preserve" font-family="HelveticaNeue-CondensedBold" font-weight="bold" font-size="36.0" fill="#DDDCDE" transform="matrix(1.00, 0.00, -0.00, -1.00, 722.6, 69.0)">A</text><text xml:space="preserve" font-family="HelveticaNeue-CondensedBold" font-weight="bold" font-size="36.0" fill="#DDDCDE" transform="matrix(1.00, 0.00, -0.00, -1.00, 740.7, 69.0)">T</text><text xml:space="preserve" font-family="HelveticaNeue-CondensedBold" font-weight="bold" font-size="36.0" fill="#DDDCDE" transform="matrix(1.00, 0.00, -0.00, -1.00, 757.9, 69.0)">I</text><text xml:space="preserve" font-family="HelveticaNeue-CondensedBold" font-weight="bold" font-size="36.0" fill="#DDDCDE" transform="matrix(1.00, 0.00, -0.00, -1.00, 767.2, 69.0)">O</text><text xml:space="preserve" font-family="HelveticaNeue-CondensedBold" font-weight="bold" font-size="36.0" fill="#DDDCDE" transform="matrix(1.00, 0.00, -0.00, -1.00, 787.2, 69.0)">N</text><text xml:space="preserve" font-family="HelveticaNeue-CondensedBold" font-weight="bold" font-size="21.1" fill="#6596B5" transform="matrix(1.00, 0.00, -0.00, -1.00, 33.0, 33.0)">A</text><text xml:space="preserve" font-family="HelveticaNeue-CondensedBold" font-weight="bold" font-size="21.1" fill="#6596B5" transform="matrix(1.00, 0.00, -0.00, -1.00, 44.7, 33.0)"> </text><text xml:space="preserve" font-family="HelveticaNeue-CondensedBold" font-weight="bold" font-size="21.1" fill="#6596B5" transform="matrix(1.00, 0.00, -0.00, -1.00, 49.8, 33.0)">M</text><text xml:space="preserve" font-family="HelveticaNeue-CondensedBold" font-weight="bold" font-size="21.1" fill="#6596B5" transform="matrix(1.00, 0.00, -0.00, -1.00, 65.4, 33.0)">A</text><text xml:space="preserve" font-family="HelveticaNeue-CondensedBold" font-weight="bold" font-size="21.1" fill="#6596B5" transform="matrix(1.00, 0.00, -0.00, -1.00, 77.2, 33.0)">I</text><text xml:space="preserve" font-family="HelveticaNeue-CondensedBold" font-weight="bold" font-size="21.1" fill="#6596B5" transform="matrix(1.00, 0.00, -0.00, -1.00, 82.6, 33.0)">N</text><text xml:space="preserve" font-family="HelveticaNeue-CondensedBold" font-weight="bold" font-size="21.1" fill="#6596B5" transform="matrix(1.00, 0.00, -0.00, -1.00, 94.8, 33.0)"> </text><text xml:space="preserve" font-family="HelveticaNeue-CondensedBold" font-weight="bold" font-size="21.1" fill="#6596B5" transform="matrix(1.00, 0.00, -0.00, -1.00, 99.0, 33.0)">T</text><text xml:space="preserve" font-family="HelveticaNeue-CondensedBold" font-weight="bold" font-size="21.1" fill="#6596B5" transform="matrix(1.00, 0.00, -0.00, -1.00, 109.2, 33.0)">H</text><text xml:space="preserve" font-family="HelveticaNeue-CondensedBold" font-weight="bold" font-size="21.1" fill="#6596B5" transform="matrix(1.00, 0.00, -0.00, -1.00, 120.9, 33.0)">R</text><text xml:space="preserve" font-family="HelveticaNeue-CondensedBold" font-weight="bold" font-size="21.1" fill="#6596B5" transform="matrix(1.00, 0.00, -0.00, -1.00, 132.7, 33.0)">E</text><text xml:space="preserve" font-family="HelveticaNeue-CondensedBold" font-weight="bold" font-size="21.1" fill="#6596B5" transform="matrix(1.00, 0.00, -0.00, -1.00, 142.8, 33.0)">A</text><text xml:space="preserve" font-family="HelveticaNeue-CondensedBold" font-weight="bold" font-size="21.1" fill="#6596B5" transform="matrix(1.00, 0.00, -0.00, -1.00, 153.4, 33.0)">T</text><text xml:space="preserve" font-family="HelveticaNeue-CondensedBold" font-weight="bold" font-size="21.1" fill="#6596B5" transform="matrix(1.00, 0.00, -0.00, -1.00, 163.5, 33.0)"> </text><text xml:space="preserve" font-family="HelveticaNeue-CondensedBold" font-weight="bold" font-size="21.1" fill="#6596B5" transform="matrix(1.00, 0.00, -0.00, -1.00, 167.8, 33.0)">T</text><text xml:space="preserve" font-family="HelveticaNeue-CondensedBold" font-weight="bold" font-size="21.1" fill="#6596B5" transform="matrix(1.00, 0.00, -0.00, -1.00, 178.0, 33.0)">O</text><text xml:space="preserve" font-family="HelveticaNeue-CondensedBold" font-weight="bold" font-size="21.1" fill="#6596B5" transform="matrix(1.00, 0.00, -0.00, -1.00, 189.7, 33.0)"> </text><text xml:space="preserve" font-family="HelveticaNeue-CondensedBold" font-weight="bold" font-size="21.1" fill="#6596B5" transform="matrix(1.00, 0.00, -0.00, -1.00, 194.0, 33.0)">A</text><text xml:space="preserve" font-family="HelveticaNeue-CondensedBold" font-weight="bold" font-size="21.1" fill="#6596B5" transform="matrix(1.00, 0.00, -0.00, -1.00, 205.7, 33.0)">M</text><text xml:space="preserve" font-family="HelveticaNeue-CondensedBold" font-weight="bold" font-size="21.1" fill="#6596B5" transform="matrix(1.00, 0.00, -0.00, -1.00, 221.4, 33.0)">P</text><text xml:space="preserve" font-family="HelveticaNeue-CondensedBold" font-weight="bold" font-size="21.1" fill="#6596B5" transform="matrix(1.00, 0.00, -0.00, -1.00, 232.3, 33.0)">H</text><text xml:space="preserve" font-family="HelveticaNeue-CondensedBold" font-weight="bold" font-size="21.1" fill="#6596B5" transform="matrix(1.00, 0.00, -0.00, -1.00, 244.1, 33.0)">I</text><text xml:space="preserve" font-family="HelveticaNeue-CondensedBold" font-weight="bold" font-size="21.1" fill="#6596B5" transform="matrix(1.00, 0.00, -0.00, -1.00, 249.5, 33.0)">B</text><text xml:space="preserve" font-family="HelveticaNeue-CondensedBold" font-weight="bold" font-size="21.1" fill="#6596B5" transform="matrix(1.00, 0.00, -0.00, -1.00, 261.3, 33.0)">I</text><text xml:space="preserve" font-family="HelveticaNeue-CondensedBold" font-weight="bold" font-size="21.1" fill="#6596B5" transform="matrix(1.00, 0.00, -0.00, -1.00, 266.7, 33.0)">A</text><text xml:space="preserve" font-family="HelveticaNeue-CondensedBold" font-weight="bold" font-size="21.1" fill="#6596B5" transform="matrix(1.00, 0.00, -0.00, -1.00, 278.5, 33.0)">N</text><text xml:space="preserve" font-family="HelveticaNeue-CondensedBold" font-weight="bold" font-size="21.1" fill="#6596B5" transform="matrix(1.00, 0.00, -0.00, -1.00, 290.6, 33.0)">S</text><text xml:space="preserve" font-family="HelveticaNeue-CondensedBold" font-weight="bold" font-size="24.0" fill="#5B88A5" transform="matrix(1.00, 0.00, -0.00, -1.00, 94.0, 497.0)">E</text><text xml:space="preserve" font-family="HelveticaNeue-CondensedBold" font-weight="bold" font-size="24.0" fill="#5B88A5" transform="matrix(1.00, 0.00, -0.00, -1.00, 105.5, 497.0)">N</text><text xml:space="preserve" font-family="HelveticaNeue-CondensedBold" font-weight="bold" font-size="24.0" fill="#5B88A5" transform="matrix(1.00, 0.00, -0.00, -1.00, 119.3, 497.0)">C</text><text xml:space="preserve" font-family="HelveticaNeue-CondensedBold" font-weight="bold" font-size="24.0" fill="#5B88A5" transform="matrix(1.00, 0.00, -0.00, -1.00, 132.2, 497.0)">R</text><text xml:space="preserve" font-family="HelveticaNeue-CondensedBold" font-weight="bold" font-size="24.0" fill="#5B88A5" transform="matrix(1.00, 0.00, -0.00, -1.00, 145.6, 497.0)">O</text><text xml:space="preserve" font-family="HelveticaNeue-CondensedBold" font-weight="bold" font-size="24.0" fill="#5B88A5" transform="matrix(1.00, 0.00, -0.00, -1.00, 158.9, 497.0)">A</text><text xml:space="preserve" font-family="HelveticaNeue-CondensedBold" font-weight="bold" font-size="24.0" fill="#5B88A5" transform="matrix(1.00, 0.00, -0.00, -1.00, 172.2, 497.0)">C</text><text xml:space="preserve" font-family="HelveticaNeue-CondensedBold" font-weight="bold" font-size="24.0" fill="#5B88A5" transform="matrix(1.00, 0.00, -0.00, -1.00, 185.1, 497.0)">H</text><text xml:space="preserve" font-family="HelveticaNeue-CondensedBold" font-weight="bold" font-size="24.0" fill="#5B88A5" transform="matrix(1.00, 0.00, -0.00, -1.00, 198.5, 497.0)">I</text><text xml:space="preserve" font-family="HelveticaNeue-CondensedBold" font-weight="bold" font-size="24.0" fill="#5B88A5" transform="matrix(1.00, 0.00, -0.00, -1.00, 204.7, 497.0)">N</text><text xml:space="preserve" font-family="HelveticaNeue-CondensedBold" font-weight="bold" font-size="24.0" fill="#5B88A5" transform="matrix(1.00, 0.00, -0.00, -1.00, 218.4, 497.0)">G</text><text xml:space="preserve" font-family="HelveticaNeue-CondensedBold" font-weight="bold" font-size="24.0" fill="#5B88A5" transform="matrix(1.00, 0.00, -0.00, -1.00, 231.8, 497.0)"> </text><text xml:space="preserve" font-family="HelveticaNeue-CondensedBold" font-weight="bold" font-size="24.0" fill="#5B88A5" transform="matrix(1.00, 0.00, -0.00, -1.00, 237.5, 497.0)">U</text><text xml:space="preserve" font-family="HelveticaNeue-CondensedBold" font-weight="bold" font-size="24.0" fill="#5B88A5" transform="matrix(1.00, 0.00, -0.00, -1.00, 250.5, 497.0)">R</text><text xml:space="preserve" font-family="HelveticaNeue-CondensedBold" font-weight="bold" font-size="24.0" fill="#5B88A5" transform="matrix(1.00, 0.00, -0.00, -1.00, 263.8, 497.0)">B</text><text xml:space="preserve" font-family="HelveticaNeue-CondensedBold" font-weight="bold" font-size="24.0" fill="#5B88A5" transform="matrix(1.00, 0.00, -0.00, -1.00, 277.1, 497.0)">A</text><text xml:space="preserve" font-family="HelveticaNeue-CondensedBold" font-weight="bold" font-size="24.0" fill="#5B88A5" transform="matrix(1.00, 0.00, -0.00, -1.00, 290.5, 497.0)">N</text><text xml:space="preserve" font-family="HelveticaNeue-CondensedBold" font-weight="bold" font-size="24.0" fill="#5B88A5" transform="matrix(1.00, 0.00, -0.00, -1.00, 304.3, 497.0)">I</text><text xml:space="preserve" font-family="HelveticaNeue-CondensedBold" font-weight="bold" font-size="24.0" fill="#5B88A5" transform="matrix(1.00, 0.00, -0.00, -1.00, 310.5, 497.0)">Z</text><text xml:space="preserve" font-family="HelveticaNeue-CondensedBold" font-weight="bold" font-size="24.0" fill="#5B88A5" transform="matrix(1.00, 0.00, -0.00, -1.00, 322.0, 497.0)">A</text><text xml:space="preserve" font-family="HelveticaNeue-CondensedBold" font-weight="bold" font-size="24.0" fill="#5B88A5" transform="matrix(1.00, 0.00, -0.00, -1.00, 334.0, 497.0)">T</text><text xml:space="preserve" font-family="HelveticaNeue-CondensedBold" font-weight="bold" font-size="24.0" fill="#5B88A5" transform="matrix(1.00, 0.00, -0.00, -1.00, 345.5, 497.0)">I</text><text xml:space="preserve" font-family="HelveticaNeue-CondensedBold" font-weight="bold" font-size="24.0" fill="#5B88A5" transform="matrix(1.00, 0.00, -0.00, -1.00, 351.7, 497.0)">O</text><text xml:space="preserve" font-family="HelveticaNeue-CondensedBold" font-weight="bold" font-size="24.0" fill="#5B88A5" transform="matrix(1.00, 0.00, -0.00, -1.00, 365.1, 497.0)">N</text><text xml:space="preserve" font-family="HelveticaNeue-CondensedBold" font-weight="bold" font-size="24.0" fill="#5B88A5" transform="matrix(1.00, 0.00, -0.00, -1.00, 378.9, 497.0)"> </text><text xml:space="preserve" font-family="HelveticaNeue-CondensedBold" font-weight="bold" font-size="24.0" fill="#5B88A5" transform="matrix(1.00, 0.00, -0.00, -1.00, 384.6, 497.0)">I</text><text xml:space="preserve" font-family="HelveticaNeue-CondensedBold" font-weight="bold" font-size="24.0" fill="#5B88A5" transform="matrix(1.00, 0.00, -0.00, -1.00, 390.8, 497.0)">N</text><text xml:space="preserve" font-family="HelveticaNeue-CondensedBold" font-weight="bold" font-size="24.0" fill="#5B88A5" transform="matrix(1.00, 0.00, -0.00, -1.00, 404.6, 497.0)"> </text><text xml:space="preserve" font-family="HelveticaNeue-CondensedBold" font-weight="bold" font-size="24.0" fill="#5B88A5" transform="matrix(1.00, 0.00, -0.00, -1.00, 410.3, 497.0)">H</text><text xml:space="preserve" font-family="HelveticaNeue-CondensedBold" font-weight="bold" font-size="24.0" fill="#5B88A5" transform="matrix(1.00, 0.00, -0.00, -1.00, 423.7, 497.0)">A</text><text xml:space="preserve" font-family="HelveticaNeue-CondensedBold" font-weight="bold" font-size="24.0" fill="#5B88A5" transform="matrix(1.00, 0.00, -0.00, -1.00, 437.0, 497.0)">B</text><text xml:space="preserve" font-family="HelveticaNeue-CondensedBold" font-weight="bold" font-size="24.0" fill="#5B88A5" transform="matrix(1.00, 0.00, -0.00, -1.00, 450.4, 497.0)">I</text><text xml:space="preserve" font-family="HelveticaNeue-CondensedBold" font-weight="bold" font-size="24.0" fill="#5B88A5" transform="matrix(1.00, 0.00, -0.00, -1.00, 456.6, 497.0)">T</text><text xml:space="preserve" font-family="HelveticaNeue-CondensedBold" font-weight="bold" font-size="24.0" fill="#5B88A5" transform="matrix(1.00, 0.00, -0.00, -1.00, 466.8, 497.0)">A</text><text xml:space="preserve" font-family="HelveticaNeue-CondensedBold" font-weight="bold" font-size="24.0" fill="#5B88A5" transform="matrix(1.00, 0.00, -0.00, -1.00, 478.8, 497.0)">T</text><text xml:space="preserve" font-family="HelveticaNeue-CondensedBold" font-weight="bold" font-size="24.0" fill="#5B88A5" transform="matrix(1.00, 0.00, -0.00, -1.00, 490.3, 497.0)">S</text><text xml:space="preserve" font-family="HelveticaNeue-CondensedBold" font-weight="bold" font-size="24.0" fill="#5B88A5" transform="matrix(1.00, 0.00, -0.00, -1.00, 502.8, 497.0)"> </text><text xml:space="preserve" font-family="HelveticaNeue-CondensedBold" font-weight="bold" font-size="24.0" fill="#5B88A5" transform="matrix(1.00, 0.00, -0.00, -1.00, 508.5, 497.0)"> </text><text xml:space="preserve" font-family="HelveticaNeue-CondensedBold" font-weight="bold" font-size="24.0" fill="#5B88A5" transform="matrix(1.00, 0.00, -0.00, -1.00, 100.0, 468.0)">O</text><text xml:space="preserve" font-family="HelveticaNeue-CondensedBold" font-weight="bold" font-size="24.0" fill="#5B88A5" transform="matrix(1.00, 0.00, -0.00, -1.00, 113.3, 468.0)">F</text><text xml:space="preserve" font-family="HelveticaNeue-CondensedBold" font-weight="bold" font-size="24.0" fill="#5B88A5" transform="matrix(1.00, 0.00, -0.00, -1.00, 124.5, 468.0)"> </text><text xml:space="preserve" font-family="HelveticaNeue-CondensedBold" font-weight="bold" font-size="24.0" fill="#5B88A5" transform="matrix(1.00, 0.00, -0.00, -1.00, 129.3, 468.0)">T</text><text xml:space="preserve" font-family="HelveticaNeue-CondensedBold" font-weight="bold" font-size="24.0" fill="#5B88A5" transform="matrix(1.00, 0.00, -0.00, -1.00, 140.8, 468.0)">H</text><text xml:space="preserve" font-family="HelveticaNeue-CondensedBold" font-weight="bold" font-size="24.0" fill="#5B88A5" transform="matrix(1.00, 0.00, -0.00, -1.00, 154.2, 468.0)">E</text><text xml:space="preserve" font-family="HelveticaNeue-CondensedBold" font-weight="bold" font-size="24.0" fill="#5B88A5" transform="matrix(1.00, 0.00, -0.00, -1.00, 165.7, 468.0)"> </text><text xml:space="preserve" font-family="HelveticaNeue-CondensedBold" font-weight="bold" font-size="24.0" fill="#5B88A5" transform="matrix(1.00, 0.00, -0.00, -1.00, 171.5, 468.0)">R</text><text xml:space="preserve" font-family="HelveticaNeue-CondensedBold" font-weight="bold" font-size="24.0" fill="#5B88A5" transform="matrix(1.00, 0.00, -0.00, -1.00, 184.8, 468.0)">E</text><text xml:space="preserve" font-family="HelveticaNeue-CondensedBold" font-weight="bold" font-size="24.0" fill="#5B88A5" transform="matrix(1.00, 0.00, -0.00, -1.00, 196.4, 468.0)">D</text><text xml:space="preserve" font-family="HelveticaNeue-CondensedBold" font-weight="bold" font-size="24.0" fill="#5B88A5" transform="matrix(1.00, 0.00, -0.00, -1.00, 210.2, 468.0)">-</text><text xml:space="preserve" font-family="HelveticaNeue-CondensedBold" font-weight="bold" font-size="24.0" fill="#5B88A5" transform="matrix(1.00, 0.00, -0.00, -1.00, 219.0, 468.0)">L</text><text xml:space="preserve" font-family="HelveticaNeue-CondensedBold" font-weight="bold" font-size="24.0" fill="#5B88A5" transform="matrix(1.00, 0.00, -0.00, -1.00, 230.2, 468.0)">E</text><text xml:space="preserve" font-family="HelveticaNeue-CondensedBold" font-weight="bold" font-size="24.0" fill="#5B88A5" transform="matrix(1.00, 0.00, -0.00, -1.00, 241.7, 468.0)">G</text><text xml:space="preserve" font-family="HelveticaNeue-CondensedBold" font-weight="bold" font-size="24.0" fill="#5B88A5" transform="matrix(1.00, 0.00, -0.00, -1.00, 255.0, 468.0)">G</text><text xml:space="preserve" font-family="HelveticaNeue-CondensedBold" font-weight="bold" font-size="24.0" fill="#5B88A5" transform="matrix(1.00, 0.00, -0.00, -1.00, 268.4, 468.0)">E</text><text xml:space="preserve" font-family="HelveticaNeue-CondensedBold" font-weight="bold" font-size="24.0" fill="#5B88A5" transform="matrix(1.00, 0.00, -0.00, -1.00, 279.9, 468.0)">D</text><text xml:space="preserve" font-family="HelveticaNeue-CondensedBold" font-weight="bold" font-size="24.0" fill="#5B88A5" transform="matrix(1.00, 0.00, -0.00, -1.00, 293.7, 468.0)"> </text><text xml:space="preserve" font-family="HelveticaNeue-CondensedBold" font-weight="bold" font-size="24.0" fill="#5B88A5" transform="matrix(1.00, 0.00, -0.00, -1.00, 299.5, 468.0)">F</text><text xml:space="preserve" font-family="HelveticaNeue-CondensedBold" font-weight="bold" font-size="24.0" fill="#5B88A5" transform="matrix(1.00, 0.00, -0.00, -1.00, 310.6, 468.0)">R</text><text xml:space="preserve" font-family="HelveticaNeue-CondensedBold" font-weight="bold" font-size="24.0" fill="#5B88A5" transform="matrix(1.00, 0.00, -0.00, -1.00, 323.9, 468.0)">O</text><text xml:space="preserve" font-family="HelveticaNeue-CondensedBold" font-weight="bold" font-size="24.0" fill="#5B88A5" transform="matrix(1.00, 0.00, -0.00, -1.00, 337.3, 468.0)">G</text><text xml:space="preserve" font-family="HelveticaNeue-CondensedBold" font-weight="bold" font-size="24.0" fill="#5B88A5" transform="matrix(1.00, 0.00, -0.00, -1.00, 350.6, 468.0)"> </text><text xml:space="preserve" font-family="HelveticaNeue-CondensedBold" font-weight="bold" font-size="24.0" fill="#5B88A5" transform="matrix(1.00, 0.00, -0.00, -1.00, 356.4, 468.0)">I</text><text xml:space="preserve" font-family="HelveticaNeue-CondensedBold" font-weight="bold" font-size="24.0" fill="#5B88A5" transform="matrix(1.00, 0.00, -0.00, -1.00, 362.6, 468.0)">N</text><text xml:space="preserve" font-family="HelveticaNeue-CondensedBold" font-weight="bold" font-size="24.0" fill="#5B88A5" transform="matrix(1.00, 0.00, -0.00, -1.00, 376.3, 468.0)"> </text><text xml:space="preserve" font-family="HelveticaNeue-CondensedBold" font-weight="bold" font-size="24.0" fill="#5B88A5" transform="matrix(1.00, 0.00, -0.00, -1.00, 382.1, 468.0)">C</text><text xml:space="preserve" font-family="HelveticaNeue-CondensedBold" font-weight="bold" font-size="24.0" fill="#5B88A5" transform="matrix(1.00, 0.00, -0.00, -1.00, 395.0, 468.0)">A</text><text xml:space="preserve" font-family="HelveticaNeue-CondensedBold" font-weight="bold" font-size="24.0" fill="#5B88A5" transform="matrix(1.00, 0.00, -0.00, -1.00, 408.3, 468.0)">L</text><text xml:space="preserve" font-family="HelveticaNeue-CondensedBold" font-weight="bold" font-size="24.0" fill="#5B88A5" transform="matrix(1.00, 0.00, -0.00, -1.00, 419.4, 468.0)">I</text><text xml:space="preserve" font-family="HelveticaNeue-CondensedBold" font-weight="bold" font-size="24.0" fill="#5B88A5" transform="matrix(1.00, 0.00, -0.00, -1.00, 425.6, 468.0)">F</text><text xml:space="preserve" font-family="HelveticaNeue-CondensedBold" font-weight="bold" font-size="24.0" fill="#5B88A5" transform="matrix(1.00, 0.00, -0.00, -1.00, 436.7, 468.0)">O</text><text xml:space="preserve" font-family="HelveticaNeue-CondensedBold" font-weight="bold" font-size="24.0" fill="#5B88A5" transform="matrix(1.00, 0.00, -0.00, -1.00, 450.1, 468.0)">R</text><text xml:space="preserve" font-family="HelveticaNeue-CondensedBold" font-weight="bold" font-size="24.0" fill="#5B88A5" transform="matrix(1.00, 0.00, -0.00, -1.00, 463.4, 468.0)">N</text><text xml:space="preserve" font-family="HelveticaNeue-CondensedBold" font-weight="bold" font-size="24.0" fill="#5B88A5" transform="matrix(1.00, 0.00, -0.00, -1.00, 477.2, 468.0)">I</text><text xml:space="preserve" font-family="HelveticaNeue-CondensedBold" font-weight="bold" font-size="24.0" fill="#5B88A5" transform="matrix(1.00, 0.00, -0.00, -1.00, 483.4, 468.0)">A</text><image xlink:href="../../41C32F21-7097-4279-8A02-40FCEE817F8A/assets/9D2B34D546E14EAAD357D5983050CE86.jpeg" width="440.00" height="299.00" transform="matrix(1.00, 0.00, -0.00, -1.00, 563.0, 744.0)"></image><text xml:space="preserve" font-family="HelveticaNeue-CondensedBold" font-weight="bold" font-size="24.0" fill="#5B88A5" transform="matrix(1.00, 0.00, -0.00, -1.00, 674.0, 420.0)">C</text><text xml:space="preserve" font-family="HelveticaNeue-CondensedBold" font-weight="bold" font-size="24.0" fill="#5B88A5" transform="matrix(1.00, 0.00, -0.00, -1.00, 686.9, 420.0)">L</text><text xml:space="preserve" font-family="HelveticaNeue-CondensedBold" font-weight="bold" font-size="24.0" fill="#5B88A5" transform="matrix(1.00, 0.00, -0.00, -1.00, 698.0, 420.0)">E</text><text xml:space="preserve" font-family="HelveticaNeue-CondensedBold" font-weight="bold" font-size="24.0" fill="#5B88A5" transform="matrix(1.00, 0.00, -0.00, -1.00, 709.5, 420.0)">A</text><text xml:space="preserve" font-family="HelveticaNeue-CondensedBold" font-weight="bold" font-size="24.0" fill="#5B88A5" transform="matrix(1.00, 0.00, -0.00, -1.00, 722.9, 420.0)">R</text><text xml:space="preserve" font-family="HelveticaNeue-CondensedBold" font-weight="bold" font-size="24.0" fill="#5B88A5" transform="matrix(1.00, 0.00, -0.00, -1.00, 736.2, 420.0)">C</text><text xml:space="preserve" font-family="HelveticaNeue-CondensedBold" font-weight="bold" font-size="24.0" fill="#5B88A5" transform="matrix(1.00, 0.00, -0.00, -1.00, 749.1, 420.0)">U</text><text xml:space="preserve" font-family="HelveticaNeue-CondensedBold" font-weight="bold" font-size="24.0" fill="#5B88A5" transform="matrix(1.00, 0.00, -0.00, -1.00, 762.0, 420.0)">T</text><text xml:space="preserve" font-family="HelveticaNeue-CondensedBold" font-weight="bold" font-size="24.0" fill="#5B88A5" transform="matrix(1.00, 0.00, -0.00, -1.00, 773.6, 420.0)"> </text><text xml:space="preserve" font-family="HelveticaNeue-CondensedBold" font-weight="bold" font-size="24.0" fill="#5B88A5" transform="matrix(1.00, 0.00, -0.00, -1.00, 779.3, 420.0)">I</text><text xml:space="preserve" font-family="HelveticaNeue-CondensedBold" font-weight="bold" font-size="24.0" fill="#5B88A5" transform="matrix(1.00, 0.00, -0.00, -1.00, 785.5, 420.0)">N</text><text xml:space="preserve" font-family="HelveticaNeue-CondensedBold" font-weight="bold" font-size="24.0" fill="#5B88A5" transform="matrix(1.00, 0.00, -0.00, -1.00, 799.3, 420.0)"> </text><text xml:space="preserve" font-family="HelveticaNeue-CondensedBold" font-weight="bold" font-size="24.0" fill="#5B88A5" transform="matrix(1.00, 0.00, -0.00, -1.00, 805.0, 420.0)">C</text><text xml:space="preserve" font-family="HelveticaNeue-CondensedBold" font-weight="bold" font-size="24.0" fill="#5B88A5" transform="matrix(1.00, 0.00, -0.00, -1.00, 817.9, 420.0)">O</text><text xml:space="preserve" font-family="HelveticaNeue-CondensedBold" font-weight="bold" font-size="24.0" fill="#5B88A5" transform="matrix(1.00, 0.00, -0.00, -1.00, 831.3, 420.0)">A</text><text xml:space="preserve" font-family="HelveticaNeue-CondensedBold" font-weight="bold" font-size="24.0" fill="#5B88A5" transform="matrix(1.00, 0.00, -0.00, -1.00, 844.6, 420.0)">S</text><text xml:space="preserve" font-family="HelveticaNeue-CondensedBold" font-weight="bold" font-size="24.0" fill="#5B88A5" transform="matrix(1.00, 0.00, -0.00, -1.00, 857.1, 420.0)">T</text><text xml:space="preserve" font-family="HelveticaNeue-CondensedBold" font-weight="bold" font-size="24.0" fill="#5B88A5" transform="matrix(1.00, 0.00, -0.00, -1.00, 867.3, 420.0)">A</text><text xml:space="preserve" font-family="HelveticaNeue-CondensedBold" font-weight="bold" font-size="24.0" fill="#5B88A5" transform="matrix(1.00, 0.00, -0.00, -1.00, 880.6, 420.0)">L</text><text xml:space="preserve" font-family="HelveticaNeue-CondensedBold" font-weight="bold" font-size="24.0" fill="#5B88A5" transform="matrix(1.00, 0.00, -0.00, -1.00, 891.7, 420.0)"> </text><text xml:space="preserve" font-family="HelveticaNeue-CondensedBold" font-weight="bold" font-size="24.0" fill="#5B88A5" transform="matrix(1.00, 0.00, -0.00, -1.00, 682.0, 391.0)">F</text><text xml:space="preserve" font-family="HelveticaNeue-CondensedBold" font-weight="bold" font-size="24.0" fill="#5B88A5" transform="matrix(1.00, 0.00, -0.00, -1.00, 693.1, 391.0)">O</text><text xml:space="preserve" font-family="HelveticaNeue-CondensedBold" font-weight="bold" font-size="24.0" fill="#5B88A5" transform="matrix(1.00, 0.00, -0.00, -1.00, 706.5, 391.0)">R</text><text xml:space="preserve" font-family="HelveticaNeue-CondensedBold" font-weight="bold" font-size="24.0" fill="#5B88A5" transform="matrix(1.00, 0.00, -0.00, -1.00, 719.8, 391.0)">E</text><text xml:space="preserve" font-family="HelveticaNeue-CondensedBold" font-weight="bold" font-size="24.0" fill="#5B88A5" transform="matrix(1.00, 0.00, -0.00, -1.00, 731.3, 391.0)">S</text><text xml:space="preserve" font-family="HelveticaNeue-CondensedBold" font-weight="bold" font-size="24.0" fill="#5B88A5" transform="matrix(1.00, 0.00, -0.00, -1.00, 743.8, 391.0)">T</text><text xml:space="preserve" font-family="HelveticaNeue-CondensedBold" font-weight="bold" font-size="24.0" fill="#5B88A5" transform="matrix(1.00, 0.00, -0.00, -1.00, 755.3, 391.0)">S</text><text xml:space="preserve" font-family="HelveticaNeue-CondensedBold" font-weight="bold" font-size="24.0" fill="#5B88A5" transform="matrix(1.00, 0.00, -0.00, -1.00, 767.8, 391.0)"> </text><text xml:space="preserve" font-family="HelveticaNeue-CondensedBold" font-weight="bold" font-size="24.0" fill="#5B88A5" transform="matrix(1.00, 0.00, -0.00, -1.00, 773.5, 391.0)">O</text><text xml:space="preserve" font-family="HelveticaNeue-CondensedBold" font-weight="bold" font-size="24.0" fill="#5B88A5" transform="matrix(1.00, 0.00, -0.00, -1.00, 786.9, 391.0)">F</text><text xml:space="preserve" font-family="HelveticaNeue-CondensedBold" font-weight="bold" font-size="24.0" fill="#5B88A5" transform="matrix(1.00, 0.00, -0.00, -1.00, 798.0, 391.0)"> </text><text xml:space="preserve" font-family="HelveticaNeue-CondensedBold" font-weight="bold" font-size="24.0" fill="#5B88A5" transform="matrix(1.00, 0.00, -0.00, -1.00, 803.8, 391.0)">O</text><text xml:space="preserve" font-family="HelveticaNeue-CondensedBold" font-weight="bold" font-size="24.0" fill="#5B88A5" transform="matrix(1.00, 0.00, -0.00, -1.00, 817.1, 391.0)">R</text><text xml:space="preserve" font-family="HelveticaNeue-CondensedBold" font-weight="bold" font-size="24.0" fill="#5B88A5" transform="matrix(1.00, 0.00, -0.00, -1.00, 830.4, 391.0)">E</text><text xml:space="preserve" font-family="HelveticaNeue-CondensedBold" font-weight="bold" font-size="24.0" fill="#5B88A5" transform="matrix(1.00, 0.00, -0.00, -1.00, 842.0, 391.0)">G</text><text xml:space="preserve" font-family="HelveticaNeue-CondensedBold" font-weight="bold" font-size="24.0" fill="#5B88A5" transform="matrix(1.00, 0.00, -0.00, -1.00, 855.3, 391.0)">O</text><text xml:space="preserve" font-family="HelveticaNeue-CondensedBold" font-weight="bold" font-size="24.0" fill="#5B88A5" transform="matrix(1.00, 0.00, -0.00, -1.00, 868.7, 391.0)">N</text><image xlink:href="../../41C32F21-7097-4279-8A02-40FCEE817F8A/assets/C84DE97CCAAE42AEC5AC416ED863A21A.jpeg" width="600.00" height="279.00" transform="matrix(1.00, 0.00, -0.00, -1.00, 50.0, 449.0)"></image><text xml:space="preserve" font-family="HelveticaNeue-CondensedBold" font-weight="bold" font-size="24.0" fill="#5B88A5" transform="matrix(1.00, 0.00, -0.00, -1.00, 203.0, 148.0)">E</text><text xml:space="preserve" font-family="HelveticaNeue-CondensedBold" font-weight="bold" font-size="24.0" fill="#5B88A5" transform="matrix(1.00, 0.00, -0.00, -1.00, 214.5, 148.0)">F</text><text xml:space="preserve" font-family="HelveticaNeue-CondensedBold" font-weight="bold" font-size="24.0" fill="#5B88A5" transform="matrix(1.00, 0.00, -0.00, -1.00, 225.7, 148.0)">F</text><text xml:space="preserve" font-family="HelveticaNeue-CondensedBold" font-weight="bold" font-size="24.0" fill="#5B88A5" transform="matrix(1.00, 0.00, -0.00, -1.00, 236.8, 148.0)">E</text><text xml:space="preserve" font-family="HelveticaNeue-CondensedBold" font-weight="bold" font-size="24.0" fill="#5B88A5" transform="matrix(1.00, 0.00, -0.00, -1.00, 248.3, 148.0)">C</text><text xml:space="preserve" font-family="HelveticaNeue-CondensedBold" font-weight="bold" font-size="24.0" fill="#5B88A5" transform="matrix(1.00, 0.00, -0.00, -1.00, 261.2, 148.0)">T</text><text xml:space="preserve" font-family="HelveticaNeue-CondensedBold" font-weight="bold" font-size="24.0" fill="#5B88A5" transform="matrix(1.00, 0.00, -0.00, -1.00, 272.7, 148.0)">S</text><text xml:space="preserve" font-family="HelveticaNeue-CondensedBold" font-weight="bold" font-size="24.0" fill="#5B88A5" transform="matrix(1.00, 0.00, -0.00, -1.00, 285.2, 148.0)"> </text><text xml:space="preserve" font-family="HelveticaNeue-CondensedBold" font-weight="bold" font-size="24.0" fill="#5B88A5" transform="matrix(1.00, 0.00, -0.00, -1.00, 290.9, 148.0)">O</text><text xml:space="preserve" font-family="HelveticaNeue-CondensedBold" font-weight="bold" font-size="24.0" fill="#5B88A5" transform="matrix(1.00, 0.00, -0.00, -1.00, 304.3, 148.0)">F</text><text xml:space="preserve" font-family="HelveticaNeue-CondensedBold" font-weight="bold" font-size="24.0" fill="#5B88A5" transform="matrix(1.00, 0.00, -0.00, -1.00, 315.4, 148.0)"> </text><text xml:space="preserve" font-family="HelveticaNeue-CondensedBold" font-weight="bold" font-size="24.0" fill="#5B88A5" transform="matrix(1.00, 0.00, -0.00, -1.00, 321.2, 148.0)">C</text><text xml:space="preserve" font-family="HelveticaNeue-CondensedBold" font-weight="bold" font-size="24.0" fill="#5B88A5" transform="matrix(1.00, 0.00, -0.00, -1.00, 334.0, 148.0)">A</text><text xml:space="preserve" font-family="HelveticaNeue-CondensedBold" font-weight="bold" font-size="24.0" fill="#5B88A5" transform="matrix(1.00, 0.00, -0.00, -1.00, 346.1, 148.0)">T</text><text xml:space="preserve" font-family="HelveticaNeue-CondensedBold" font-weight="bold" font-size="24.0" fill="#5B88A5" transform="matrix(1.00, 0.00, -0.00, -1.00, 357.6, 148.0)">T</text><text xml:space="preserve" font-family="HelveticaNeue-CondensedBold" font-weight="bold" font-size="24.0" fill="#5B88A5" transform="matrix(1.00, 0.00, -0.00, -1.00, 369.1, 148.0)">L</text><text xml:space="preserve" font-family="HelveticaNeue-CondensedBold" font-weight="bold" font-size="24.0" fill="#5B88A5" transform="matrix(1.00, 0.00, -0.00, -1.00, 380.2, 148.0)">E</text><text xml:space="preserve" font-family="HelveticaNeue-CondensedBold" font-weight="bold" font-size="24.0" fill="#5B88A5" transform="matrix(1.00, 0.00, -0.00, -1.00, 391.8, 148.0)"> </text><text xml:space="preserve" font-family="HelveticaNeue-CondensedBold" font-weight="bold" font-size="24.0" fill="#5B88A5" transform="matrix(1.00, 0.00, -0.00, -1.00, 397.5, 148.0)">O</text><text xml:space="preserve" font-family="HelveticaNeue-CondensedBold" font-weight="bold" font-size="24.0" fill="#5B88A5" transform="matrix(1.00, 0.00, -0.00, -1.00, 410.9, 148.0)">N</text><text xml:space="preserve" font-family="HelveticaNeue-CondensedBold" font-weight="bold" font-size="24.0" fill="#5B88A5" transform="matrix(1.00, 0.00, -0.00, -1.00, 424.6, 148.0)"> </text><text xml:space="preserve" font-family="HelveticaNeue-CondensedBold" font-weight="bold" font-size="24.0" fill="#5B88A5" transform="matrix(1.00, 0.00, -0.00, -1.00, 430.4, 148.0)">P</text><text xml:space="preserve" font-family="HelveticaNeue-CondensedBold" font-weight="bold" font-size="24.0" fill="#5B88A5" transform="matrix(1.00, 0.00, -0.00, -1.00, 442.9, 148.0)">O</text><text xml:space="preserve" font-family="HelveticaNeue-CondensedBold" font-weight="bold" font-size="24.0" fill="#5B88A5" transform="matrix(1.00, 0.00, -0.00, -1.00, 456.2, 148.0)">N</text><text xml:space="preserve" font-family="HelveticaNeue-CondensedBold" font-weight="bold" font-size="24.0" fill="#5B88A5" transform="matrix(1.00, 0.00, -0.00, -1.00, 470.0, 148.0)">D</text><text xml:space="preserve" font-family="HelveticaNeue-CondensedBold" font-weight="bold" font-size="24.0" fill="#5B88A5" transform="matrix(1.00, 0.00, -0.00, -1.00, 483.8, 148.0)">S</text><text xml:space="preserve" font-family="HelveticaNeue-CondensedBold" font-weight="bold" font-size="24.0" fill="#5B88A5" transform="matrix(1.00, 0.00, -0.00, -1.00, 496.2, 148.0)"> </text><text xml:space="preserve" font-family="HelveticaNeue-CondensedBold" font-weight="bold" font-size="24.0" fill="#5B88A5" transform="matrix(1.00, 0.00, -0.00, -1.00, 230.0, 119.0)">(</text><text xml:space="preserve" font-family="HelveticaNeue-CondensedBold" font-weight="bold" font-size="24.0" fill="#5B88A5" transform="matrix(1.00, 0.00, -0.00, -1.00, 237.1, 119.0)">N</text><text xml:space="preserve" font-family="HelveticaNeue-CondensedBold" font-weight="bold" font-size="24.0" fill="#5B88A5" transform="matrix(1.00, 0.00, -0.00, -1.00, 250.9, 119.0)">O</text><text xml:space="preserve" font-family="HelveticaNeue-CondensedBold" font-weight="bold" font-size="24.0" fill="#5B88A5" transform="matrix(1.00, 0.00, -0.00, -1.00, 264.2, 119.0)">T</text><text xml:space="preserve" font-family="HelveticaNeue-CondensedBold" font-weight="bold" font-size="24.0" fill="#5B88A5" transform="matrix(1.00, 0.00, -0.00, -1.00, 275.7, 119.0)">E</text><text xml:space="preserve" font-family="HelveticaNeue-CondensedBold" font-weight="bold" font-size="24.0" fill="#5B88A5" transform="matrix(1.00, 0.00, -0.00, -1.00, 287.3, 119.0)"> </text><text xml:space="preserve" font-family="HelveticaNeue-CondensedBold" font-weight="bold" font-size="24.0" fill="#5B88A5" transform="matrix(1.00, 0.00, -0.00, -1.00, 293.0, 119.0)">F</text><text xml:space="preserve" font-family="HelveticaNeue-CondensedBold" font-weight="bold" font-size="24.0" fill="#5B88A5" transform="matrix(1.00, 0.00, -0.00, -1.00, 304.2, 119.0)">E</text><text xml:space="preserve" font-family="HelveticaNeue-CondensedBold" font-weight="bold" font-size="24.0" fill="#5B88A5" transform="matrix(1.00, 0.00, -0.00, -1.00, 315.7, 119.0)">N</text><text xml:space="preserve" font-family="HelveticaNeue-CondensedBold" font-weight="bold" font-size="24.0" fill="#5B88A5" transform="matrix(1.00, 0.00, -0.00, -1.00, 329.5, 119.0)">C</text><text xml:space="preserve" font-family="HelveticaNeue-CondensedBold" font-weight="bold" font-size="24.0" fill="#5B88A5" transform="matrix(1.00, 0.00, -0.00, -1.00, 342.4, 119.0)">E</text><text xml:space="preserve" font-family="HelveticaNeue-CondensedBold" font-weight="bold" font-size="24.0" fill="#5B88A5" transform="matrix(1.00, 0.00, -0.00, -1.00, 353.9, 119.0)">D</text><text xml:space="preserve" font-family="HelveticaNeue-CondensedBold" font-weight="bold" font-size="24.0" fill="#5B88A5" transform="matrix(1.00, 0.00, -0.00, -1.00, 367.7, 119.0)">-</text><text xml:space="preserve" font-family="HelveticaNeue-CondensedBold" font-weight="bold" font-size="24.0" fill="#5B88A5" transform="matrix(1.00, 0.00, -0.00, -1.00, 376.6, 119.0)">O</text><text xml:space="preserve" font-family="HelveticaNeue-CondensedBold" font-weight="bold" font-size="24.0" fill="#5B88A5" transform="matrix(1.00, 0.00, -0.00, -1.00, 389.9, 119.0)">F</text><text xml:space="preserve" font-family="HelveticaNeue-CondensedBold" font-weight="bold" font-size="24.0" fill="#5B88A5" transform="matrix(1.00, 0.00, -0.00, -1.00, 401.0, 119.0)">F</text><text xml:space="preserve" font-family="HelveticaNeue-CondensedBold" font-weight="bold" font-size="24.0" fill="#5B88A5" transform="matrix(1.00, 0.00, -0.00, -1.00, 412.1, 119.0)"> </text><text xml:space="preserve" font-family="HelveticaNeue-CondensedBold" font-weight="bold" font-size="24.0" fill="#5B88A5" transform="matrix(1.00, 0.00, -0.00, -1.00, 417.9, 119.0)">S</text><text xml:space="preserve" font-family="HelveticaNeue-CondensedBold" font-weight="bold" font-size="24.0" fill="#5B88A5" transform="matrix(1.00, 0.00, -0.00, -1.00, 430.4, 119.0)">I</text><text xml:space="preserve" font-family="HelveticaNeue-CondensedBold" font-weight="bold" font-size="24.0" fill="#5B88A5" transform="matrix(1.00, 0.00, -0.00, -1.00, 436.5, 119.0)">D</text><text xml:space="preserve" font-family="HelveticaNeue-CondensedBold" font-weight="bold" font-size="24.0" fill="#5B88A5" transform="matrix(1.00, 0.00, -0.00, -1.00, 450.3, 119.0)">E</text><text xml:space="preserve" font-family="HelveticaNeue-CondensedBold" font-weight="bold" font-size="24.0" fill="#5B88A5" transform="matrix(1.00, 0.00, -0.00, -1.00, 461.9, 119.0)">)</text></g></svg>