<?xml version="1.0" encoding="UTF-8" standalone="no"?><svg xmlns="http://www.w3.org/2000/svg" xmlns:xlink="http://www.w3.org/1999/xlink" clip-rule="evenodd" stroke-miterlimit="10" viewBox="0 0 187 26"><desc>SVG generated by Keynote</desc><defs></defs><g transform="matrix(1.00, 0.00, -0.00, -1.00, 0.0, 26.0)"><text xml:space="preserve" font-family="Arial-ItalicMT,Arial" font-style="italic" font-size="24.0" fill="#000000" transform="matrix(1.00, 0.00, -0.00, -1.00, 0.2, 6.9)">H</text><text xml:space="preserve" font-family="Arial-ItalicMT,Arial" font-style="italic" font-size="24.0" fill="#000000" transform="matrix(1.00, 0.00, -0.00, -1.00, 17.5, 6.9)">y</text><text xml:space="preserve" font-family="Arial-ItalicMT,Arial" font-style="italic" font-size="24.0" fill="#000000" transform="matrix(1.00, 0.00, -0.00, -1.00, 29.5, 6.9)">l</text><text xml:space="preserve" font-family="Arial-ItalicMT,Arial" font-style="italic" font-size="24.0" fill="#000000" transform="matrix(1.00, 0.00, -0.00, -1.00, 34.9, 6.9)">a</text><text xml:space="preserve" font-family="Arial-ItalicMT,Arial" font-style="italic" font-size="24.0" fill="#000000" transform="matrix(1.00, 0.00, -0.00, -1.00, 48.2, 6.9)"> </text><text xml:space="preserve" font-family="Arial-ItalicMT,Arial" font-style="italic" font-size="24.0" fill="#000000" transform="matrix(1.00, 0.00, -0.00, -1.00, 54.9, 6.9)">c</text><text xml:space="preserve" font-family="Arial-ItalicMT,Arial" font-style="italic" font-size="24.0" fill="#000000" transform="matrix(1.00, 0.00, -0.00, -1.00, 66.9, 6.9)">h</text><text xml:space="preserve" font-family="Arial-ItalicMT,Arial" font-style="italic" font-size="24.0" fill="#000000" transform="matrix(1.00, 0.00, -0.00, -1.00, 80.2, 6.9)">r</text><text xml:space="preserve" font-family="Arial-ItalicMT,Arial" font-style="italic" font-size="24.0" fill="#000000" transform="matrix(1.00, 0.00, -0.00, -1.00, 88.2, 6.9)">y</text><text xml:space="preserve" font-family="Arial-ItalicMT,Arial" font-style="italic" font-size="24.0" fill="#000000" transform="matrix(1.00, 0.00, -0.00, -1.00, 100.2, 6.9)">s</text><text xml:space="preserve" font-family="Arial-ItalicMT,Arial" font-style="italic" font-size="24.0" fill="#000000" transform="matrix(1.00, 0.00, -0.00, -1.00, 112.2, 6.9)">o</text><text xml:space="preserve" font-family="Arial-ItalicMT,Arial" font-style="italic" font-size="24.0" fill="#000000" transform="matrix(1.00, 0.00, -0.00, -1.00, 125.6, 6.9)">s</text><text xml:space="preserve" font-family="Arial-ItalicMT,Arial" font-style="italic" font-size="24.0" fill="#000000" transform="matrix(1.00, 0.00, -0.00, -1.00, 137.6, 6.9)">c</text><text xml:space="preserve" font-family="Arial-ItalicMT,Arial" font-style="italic" font-size="24.0" fill="#000000" transform="matrix(1.00, 0.00, -0.00, -1.00, 149.6, 6.9)">e</text><text xml:space="preserve" font-family="Arial-ItalicMT,Arial" font-style="italic" font-size="24.0" fill="#000000" transform="matrix(1.00, 0.00, -0.00, -1.00, 162.9, 6.9)">l</text><text xml:space="preserve" font-family="Arial-ItalicMT,Arial" font-style="italic" font-size="24.0" fill="#000000" transform="matrix(1.00, 0.00, -0.00, -1.00, 168.3, 6.9)">i</text><text xml:space="preserve" font-family="Arial-ItalicMT,Arial" font-style="italic" font-size="24.0" fill="#000000" transform="matrix(1.00, 0.00, -0.00, -1.00, 173.6, 6.9)">s</text></g></svg>