<?xml version="1.0" encoding="UTF-8" standalone="no"?><svg xmlns="http://www.w3.org/2000/svg" xmlns:xlink="http://www.w3.org/1999/xlink" clip-rule="evenodd" stroke-miterlimit="10" viewBox="0 0 720 540"><desc>SVG generated by Keynote</desc><defs></defs><g transform="matrix(1.00, 0.00, -0.00, -1.00, 0.0, 540.0)"><path d="M 0.0 540.0 L 720.0 540.0 L 720.0 0.0 L 0.0 0.0 Z M 0.0 540.0 " fill="#FEFFFF"></path><text xml:space="preserve" font-family="ArialMT,Arial" font-size="44.0" fill="#000000" transform="matrix(1.00, 0.00, -0.00, -1.00, 75.1, 431.8)">N</text><text xml:space="preserve" font-family="ArialMT,Arial" font-size="44.0" fill="#000000" transform="matrix(1.00, 0.00, -0.00, -1.00, 106.9, 431.8)">o</text><text xml:space="preserve" font-family="ArialMT,Arial" font-size="44.0" fill="#000000" transform="matrix(1.00, 0.00, -0.00, -1.00, 131.4, 431.8)">t</text><text xml:space="preserve" font-family="ArialMT,Arial" font-size="44.0" fill="#000000" transform="matrix(1.00, 0.00, -0.00, -1.00, 143.6, 431.8)"> </text><text xml:space="preserve" font-family="ArialMT,Arial" font-size="44.0" fill="#000000" transform="matrix(1.00, 0.00, -0.00, -1.00, 155.8, 431.8)">a</text><text xml:space="preserve" font-family="ArialMT,Arial" font-size="44.0" fill="#000000" transform="matrix(1.00, 0.00, -0.00, -1.00, 180.3, 431.8)">l</text><text xml:space="preserve" font-family="ArialMT,Arial" font-size="44.0" fill="#000000" transform="matrix(1.00, 0.00, -0.00, -1.00, 190.1, 431.8)">l</text><text xml:space="preserve" font-family="ArialMT,Arial" font-size="44.0" fill="#000000" transform="matrix(1.00, 0.00, -0.00, -1.00, 199.8, 431.8)"> </text><text xml:space="preserve" font-family="ArialMT,Arial" font-size="44.0" fill="#000000" transform="matrix(1.00, 0.00, -0.00, -1.00, 212.1, 431.8)">a</text><text xml:space="preserve" font-family="ArialMT,Arial" font-size="44.0" fill="#000000" transform="matrix(1.00, 0.00, -0.00, -1.00, 236.5, 431.8)">n</text><text xml:space="preserve" font-family="ArialMT,Arial" font-size="44.0" fill="#000000" transform="matrix(1.00, 0.00, -0.00, -1.00, 261.0, 431.8)">i</text><text xml:space="preserve" font-family="ArialMT,Arial" font-size="44.0" fill="#000000" transform="matrix(1.00, 0.00, -0.00, -1.00, 270.8, 431.8)">m</text><text xml:space="preserve" font-family="ArialMT,Arial" font-size="44.0" fill="#000000" transform="matrix(1.00, 0.00, -0.00, -1.00, 307.5, 431.8)">a</text><text xml:space="preserve" font-family="ArialMT,Arial" font-size="44.0" fill="#000000" transform="matrix(1.00, 0.00, -0.00, -1.00, 331.9, 431.8)">l</text><text xml:space="preserve" font-family="ArialMT,Arial" font-size="44.0" fill="#000000" transform="matrix(1.00, 0.00, -0.00, -1.00, 341.7, 431.8)">s</text><text xml:space="preserve" font-family="ArialMT,Arial" font-size="44.0" fill="#000000" transform="matrix(1.00, 0.00, -0.00, -1.00, 363.7, 431.8)"> </text><text xml:space="preserve" font-family="ArialMT,Arial" font-size="44.0" fill="#000000" transform="matrix(1.00, 0.00, -0.00, -1.00, 375.9, 431.8)">h</text><text xml:space="preserve" font-family="ArialMT,Arial" font-size="44.0" fill="#000000" transform="matrix(1.00, 0.00, -0.00, -1.00, 400.4, 431.8)">a</text><text xml:space="preserve" font-family="ArialMT,Arial" font-size="44.0" fill="#000000" transform="matrix(1.00, 0.00, -0.00, -1.00, 424.9, 431.8)">v</text><text xml:space="preserve" font-family="ArialMT,Arial" font-size="44.0" fill="#000000" transform="matrix(1.00, 0.00, -0.00, -1.00, 446.9, 431.8)">e</text><text xml:space="preserve" font-family="ArialMT,Arial" font-size="44.0" fill="#000000" transform="matrix(1.00, 0.00, -0.00, -1.00, 471.4, 431.8)"> </text><text xml:space="preserve" font-family="ArialMT,Arial" font-size="44.0" fill="#000000" transform="matrix(1.00, 0.00, -0.00, -1.00, 483.6, 431.8)">“</text><text xml:space="preserve" font-family="ArialMT,Arial" font-size="44.0" fill="#000000" transform="matrix(1.00, 0.00, -0.00, -1.00, 498.2, 431.8)">h</text><text xml:space="preserve" font-family="ArialMT,Arial" font-size="44.0" fill="#000000" transform="matrix(1.00, 0.00, -0.00, -1.00, 522.7, 431.8)">o</text><text xml:space="preserve" font-family="ArialMT,Arial" font-size="44.0" fill="#000000" transform="matrix(1.00, 0.00, -0.00, -1.00, 547.2, 431.8)">m</text><text xml:space="preserve" font-family="ArialMT,Arial" font-size="44.0" fill="#000000" transform="matrix(1.00, 0.00, -0.00, -1.00, 583.9, 431.8)">e</text><text xml:space="preserve" font-family="ArialMT,Arial" font-size="44.0" fill="#000000" transform="matrix(1.00, 0.00, -0.00, -1.00, 608.3, 431.8)">s</text><text xml:space="preserve" font-family="ArialMT,Arial" font-size="44.0" fill="#000000" transform="matrix(1.00, 0.00, -0.00, -1.00, 630.3, 431.8)">”</text><text xml:space="preserve" font-family="ArialMT,Arial" font-size="28.0" fill="#000000" transform="matrix(1.00, 0.00, -0.00, -1.00, 49.2, 354.8)">•</text><text xml:space="preserve" font-family="ArialMT,Arial" font-size="28.0" fill="#000000" transform="matrix(1.00, 0.00, -0.00, -1.00, 76.2, 354.8)">S</text><text xml:space="preserve" font-family="ArialMT,Arial" font-size="28.0" fill="#000000" transform="matrix(1.00, 0.00, -0.00, -1.00, 94.9, 354.8)">m</text><text xml:space="preserve" font-family="ArialMT,Arial" font-size="28.0" fill="#000000" transform="matrix(1.00, 0.00, -0.00, -1.00, 118.2, 354.8)">a</text><text xml:space="preserve" font-family="ArialMT,Arial" font-size="28.0" fill="#000000" transform="matrix(1.00, 0.00, -0.00, -1.00, 133.8, 354.8)">l</text><text xml:space="preserve" font-family="ArialMT,Arial" font-size="28.0" fill="#000000" transform="matrix(1.00, 0.00, -0.00, -1.00, 140.0, 354.8)">l</text><text xml:space="preserve" font-family="ArialMT,Arial" font-size="28.0" fill="#000000" transform="matrix(1.00, 0.00, -0.00, -1.00, 146.2, 354.8)"> </text><text xml:space="preserve" font-family="ArialMT,Arial" font-size="28.0" fill="#000000" transform="matrix(1.00, 0.00, -0.00, -1.00, 154.0, 354.8)">h</text><text xml:space="preserve" font-family="ArialMT,Arial" font-size="28.0" fill="#000000" transform="matrix(1.00, 0.00, -0.00, -1.00, 169.6, 354.8)">o</text><text xml:space="preserve" font-family="ArialMT,Arial" font-size="28.0" fill="#000000" transform="matrix(1.00, 0.00, -0.00, -1.00, 185.2, 354.8)">m</text><text xml:space="preserve" font-family="ArialMT,Arial" font-size="28.0" fill="#000000" transform="matrix(1.00, 0.00, -0.00, -1.00, 208.5, 354.8)">e</text><text xml:space="preserve" font-family="ArialMT,Arial" font-size="28.0" fill="#000000" transform="matrix(1.00, 0.00, -0.00, -1.00, 224.1, 354.8)"> </text><text xml:space="preserve" font-family="ArialMT,Arial" font-size="28.0" fill="#000000" transform="matrix(1.00, 0.00, -0.00, -1.00, 231.8, 354.8)">r</text><text xml:space="preserve" font-family="ArialMT,Arial" font-size="28.0" fill="#000000" transform="matrix(1.00, 0.00, -0.00, -1.00, 241.2, 354.8)">a</text><text xml:space="preserve" font-family="ArialMT,Arial" font-size="28.0" fill="#000000" transform="matrix(1.00, 0.00, -0.00, -1.00, 256.7, 354.8)">n</text><text xml:space="preserve" font-family="ArialMT,Arial" font-size="28.0" fill="#000000" transform="matrix(1.00, 0.00, -0.00, -1.00, 272.3, 354.8)">g</text><text xml:space="preserve" font-family="ArialMT,Arial" font-size="28.0" fill="#000000" transform="matrix(1.00, 0.00, -0.00, -1.00, 287.9, 354.8)">e</text><text xml:space="preserve" font-family="ArialMT,Arial" font-size="28.0" fill="#000000" transform="matrix(1.00, 0.00, -0.00, -1.00, 303.5, 354.8)"> </text><text xml:space="preserve" font-family="ArialMT,Arial" font-size="28.0" fill="#000000" transform="matrix(1.00, 0.00, -0.00, -1.00, 49.2, 207.2)">•</text><text xml:space="preserve" font-family="ArialMT,Arial" font-size="28.0" fill="#000000" transform="matrix(1.00, 0.00, -0.00, -1.00, 76.2, 207.2)">L</text><text xml:space="preserve" font-family="ArialMT,Arial" font-size="28.0" fill="#000000" transform="matrix(1.00, 0.00, -0.00, -1.00, 91.8, 207.2)">a</text><text xml:space="preserve" font-family="ArialMT,Arial" font-size="28.0" fill="#000000" transform="matrix(1.00, 0.00, -0.00, -1.00, 107.4, 207.2)">r</text><text xml:space="preserve" font-family="ArialMT,Arial" font-size="28.0" fill="#000000" transform="matrix(1.00, 0.00, -0.00, -1.00, 116.7, 207.2)">g</text><text xml:space="preserve" font-family="ArialMT,Arial" font-size="28.0" fill="#000000" transform="matrix(1.00, 0.00, -0.00, -1.00, 132.3, 207.2)">e</text><text xml:space="preserve" font-family="ArialMT,Arial" font-size="28.0" fill="#000000" transform="matrix(1.00, 0.00, -0.00, -1.00, 147.8, 207.2)"> </text><text xml:space="preserve" font-family="ArialMT,Arial" font-size="28.0" fill="#000000" transform="matrix(1.00, 0.00, -0.00, -1.00, 155.6, 207.2)">h</text><text xml:space="preserve" font-family="ArialMT,Arial" font-size="28.0" fill="#000000" transform="matrix(1.00, 0.00, -0.00, -1.00, 171.2, 207.2)">o</text><text xml:space="preserve" font-family="ArialMT,Arial" font-size="28.0" fill="#000000" transform="matrix(1.00, 0.00, -0.00, -1.00, 186.8, 207.2)">m</text><text xml:space="preserve" font-family="ArialMT,Arial" font-size="28.0" fill="#000000" transform="matrix(1.00, 0.00, -0.00, -1.00, 210.1, 207.2)">e</text><text xml:space="preserve" font-family="ArialMT,Arial" font-size="28.0" fill="#000000" transform="matrix(1.00, 0.00, -0.00, -1.00, 225.7, 207.2)"> </text><text xml:space="preserve" font-family="ArialMT,Arial" font-size="28.0" fill="#000000" transform="matrix(1.00, 0.00, -0.00, -1.00, 233.4, 207.2)">r</text><text xml:space="preserve" font-family="ArialMT,Arial" font-size="28.0" fill="#000000" transform="matrix(1.00, 0.00, -0.00, -1.00, 242.8, 207.2)">a</text><text xml:space="preserve" font-family="ArialMT,Arial" font-size="28.0" fill="#000000" transform="matrix(1.00, 0.00, -0.00, -1.00, 258.3, 207.2)">n</text><text xml:space="preserve" font-family="ArialMT,Arial" font-size="28.0" fill="#000000" transform="matrix(1.00, 0.00, -0.00, -1.00, 273.9, 207.2)">g</text><text xml:space="preserve" font-family="ArialMT,Arial" font-size="28.0" fill="#000000" transform="matrix(1.00, 0.00, -0.00, -1.00, 289.5, 207.2)">e</text><text xml:space="preserve" font-family="ArialMT,Arial" font-size="28.0" fill="#000000" transform="matrix(1.00, 0.00, -0.00, -1.00, 415.2, 354.8)">•</text><text xml:space="preserve" font-family="ArialMT,Arial" font-size="28.0" fill="#000000" transform="matrix(1.00, 0.00, -0.00, -1.00, 442.2, 354.8)">N</text><text xml:space="preserve" font-family="ArialMT,Arial" font-size="28.0" fill="#000000" transform="matrix(1.00, 0.00, -0.00, -1.00, 462.4, 354.8)">o</text><text xml:space="preserve" font-family="ArialMT,Arial" font-size="28.0" fill="#000000" transform="matrix(1.00, 0.00, -0.00, -1.00, 478.0, 354.8)">m</text><text xml:space="preserve" font-family="ArialMT,Arial" font-size="28.0" fill="#000000" transform="matrix(1.00, 0.00, -0.00, -1.00, 501.3, 354.8)">a</text><text xml:space="preserve" font-family="ArialMT,Arial" font-size="28.0" fill="#000000" transform="matrix(1.00, 0.00, -0.00, -1.00, 516.9, 354.8)">d</text><text xml:space="preserve" font-family="ArialMT,Arial" font-size="28.0" fill="#000000" transform="matrix(1.00, 0.00, -0.00, -1.00, 532.5, 354.8)">i</text><text xml:space="preserve" font-family="ArialMT,Arial" font-size="28.0" fill="#000000" transform="matrix(1.00, 0.00, -0.00, -1.00, 538.7, 354.8)">c</text><g><clipPath id="clip0x7fd2d796c400"><path d="M 162.0 280.0 L 282.0 280.0 L 282.0 348.0 L 162.0 348.0 Z M 162.0 280.0 "></path></clipPath><g clip-path="url(#clip0x7fd2d796c400)"><path d="M 162.0 348.0 L 282.0 348.0 L 282.0 280.0 L 162.0 280.0 Z M 162.0 348.0 " fill="#FFFFFF"></path><image xlink:href="../../0533EC9C-DBDB-46F8-853F-BE0D165F0DEA/assets/4897617D9AFBBBEF99AB8A274508AC1F.png" width="240.00" height="136.00" transform="matrix(0.50, 0.00, -0.00, -0.50, 162.0, 348.0)"></image></g></g><g><clipPath id="clip0x7fd2d953b670"><path d="M 102.0 28.0 L 312.0 28.0 L 312.0 186.0 L 102.0 186.0 Z M 102.0 28.0 "></path></clipPath><g clip-path="url(#clip0x7fd2d953b670)"><path d="M 102.0 186.0 L 312.0 186.0 L 312.0 28.0 L 102.0 28.0 Z M 102.0 186.0 " fill="#FFFFFF"></path><image xlink:href="../../0533EC9C-DBDB-46F8-853F-BE0D165F0DEA/assets/C2FB4EB7F07DDBC48DC8EC91E5B3E5B2.png" width="450.00" height="338.00" transform="matrix(0.47, 0.00, -0.00, -0.47, 102.0, 186.0)"></image></g></g><text xml:space="preserve" font-family="ArialMT,Arial" font-size="14.0" fill="#000000" transform="matrix(1.00, 0.00, -0.00, -1.00, 109.2, 7.4)">B</text><text xml:space="preserve" font-family="ArialMT,Arial" font-size="14.0" fill="#000000" transform="matrix(1.00, 0.00, -0.00, -1.00, 118.5, 7.4)">l</text><text xml:space="preserve" font-family="ArialMT,Arial" font-size="14.0" fill="#000000" transform="matrix(1.00, 0.00, -0.00, -1.00, 121.7, 7.4)">a</text><text xml:space="preserve" font-family="ArialMT,Arial" font-size="14.0" fill="#000000" transform="matrix(1.00, 0.00, -0.00, -1.00, 129.4, 7.4)">c</text><text xml:space="preserve" font-family="ArialMT,Arial" font-size="14.0" fill="#000000" transform="matrix(1.00, 0.00, -0.00, -1.00, 136.4, 7.4)">k</text><text xml:space="preserve" font-family="ArialMT,Arial" font-size="14.0" fill="#000000" transform="matrix(1.00, 0.00, -0.00, -1.00, 143.4, 7.4)"> </text><text xml:space="preserve" font-family="ArialMT,Arial" font-size="14.0" fill="#000000" transform="matrix(1.00, 0.00, -0.00, -1.00, 147.3, 7.4)">r</text><text xml:space="preserve" font-family="ArialMT,Arial" font-size="14.0" fill="#000000" transform="matrix(1.00, 0.00, -0.00, -1.00, 152.0, 7.4)">a</text><text xml:space="preserve" font-family="ArialMT,Arial" font-size="14.0" fill="#000000" transform="matrix(1.00, 0.00, -0.00, -1.00, 159.8, 7.4)">t</text><text xml:space="preserve" font-family="ArialMT,Arial" font-size="14.0" fill="#000000" transform="matrix(1.00, 0.00, -0.00, -1.00, 163.7, 7.4)"> </text><text xml:space="preserve" font-family="ArialMT,Arial" font-size="14.0" fill="#000000" transform="matrix(1.00, 0.00, -0.00, -1.00, 167.6, 7.4)">s</text><text xml:space="preserve" font-family="ArialMT,Arial" font-size="14.0" fill="#000000" transform="matrix(1.00, 0.00, -0.00, -1.00, 174.6, 7.4)">n</text><text xml:space="preserve" font-family="ArialMT,Arial" font-size="14.0" fill="#000000" transform="matrix(1.00, 0.00, -0.00, -1.00, 182.3, 7.4)">a</text><text xml:space="preserve" font-family="ArialMT,Arial" font-size="14.0" fill="#000000" transform="matrix(1.00, 0.00, -0.00, -1.00, 190.1, 7.4)">k</text><text xml:space="preserve" font-family="ArialMT,Arial" font-size="14.0" fill="#000000" transform="matrix(1.00, 0.00, -0.00, -1.00, 197.1, 7.4)">e</text><text xml:space="preserve" font-family="Arial-ItalicMT,Arial" font-style="italic" font-size="14.0" fill="#000000" transform="matrix(1.00, 0.00, -0.00, -1.00, 204.9, 7.4)"> </text><text xml:space="preserve" font-family="Arial-ItalicMT,Arial" font-style="italic" font-size="14.0" fill="#000000" transform="matrix(1.00, 0.00, -0.00, -1.00, 208.8, 7.4)">E</text><text xml:space="preserve" font-family="Arial-ItalicMT,Arial" font-style="italic" font-size="14.0" fill="#000000" transform="matrix(1.00, 0.00, -0.00, -1.00, 218.1, 7.4)">l</text><text xml:space="preserve" font-family="Arial-ItalicMT,Arial" font-style="italic" font-size="14.0" fill="#000000" transform="matrix(1.00, 0.00, -0.00, -1.00, 221.2, 7.4)">a</text><text xml:space="preserve" font-family="Arial-ItalicMT,Arial" font-style="italic" font-size="14.0" fill="#000000" transform="matrix(1.00, 0.00, -0.00, -1.00, 229.0, 7.4)">p</text><text xml:space="preserve" font-family="Arial-ItalicMT,Arial" font-style="italic" font-size="14.0" fill="#000000" transform="matrix(1.00, 0.00, -0.00, -1.00, 236.8, 7.4)">h</text><text xml:space="preserve" font-family="Arial-ItalicMT,Arial" font-style="italic" font-size="14.0" fill="#000000" transform="matrix(1.00, 0.00, -0.00, -1.00, 244.6, 7.4)">e</text><text xml:space="preserve" font-family="Arial-ItalicMT,Arial" font-style="italic" font-size="14.0" fill="#000000" transform="matrix(1.00, 0.00, -0.00, -1.00, 252.4, 7.4)"> </text><text xml:space="preserve" font-family="Arial-ItalicMT,Arial" font-style="italic" font-size="14.0" fill="#000000" transform="matrix(1.00, 0.00, -0.00, -1.00, 256.3, 7.4)">o</text><text xml:space="preserve" font-family="Arial-ItalicMT,Arial" font-style="italic" font-size="14.0" fill="#000000" transform="matrix(1.00, 0.00, -0.00, -1.00, 264.1, 7.4)">b</text><text xml:space="preserve" font-family="Arial-ItalicMT,Arial" font-style="italic" font-size="14.0" fill="#000000" transform="matrix(1.00, 0.00, -0.00, -1.00, 271.9, 7.4)">s</text><text xml:space="preserve" font-family="Arial-ItalicMT,Arial" font-style="italic" font-size="14.0" fill="#000000" transform="matrix(1.00, 0.00, -0.00, -1.00, 278.9, 7.4)">o</text><text xml:space="preserve" font-family="Arial-ItalicMT,Arial" font-style="italic" font-size="14.0" fill="#000000" transform="matrix(1.00, 0.00, -0.00, -1.00, 286.7, 7.4)">l</text><text xml:space="preserve" font-family="Arial-ItalicMT,Arial" font-style="italic" font-size="14.0" fill="#000000" transform="matrix(1.00, 0.00, -0.00, -1.00, 289.8, 7.4)">e</text><text xml:space="preserve" font-family="Arial-ItalicMT,Arial" font-style="italic" font-size="14.0" fill="#000000" transform="matrix(1.00, 0.00, -0.00, -1.00, 297.6, 7.4)">t</text><text xml:space="preserve" font-family="Arial-ItalicMT,Arial" font-style="italic" font-size="14.0" fill="#000000" transform="matrix(1.00, 0.00, -0.00, -1.00, 301.4, 7.4)">a</text><text xml:space="preserve" font-family="Arial-BoldMT,Arial" font-weight="bold" font-size="12.0" fill="#000000" transform="matrix(1.00, 0.00, -0.00, -1.00, 127.2, 260.9)">B</text><text xml:space="preserve" font-family="Arial-BoldMT,Arial" font-weight="bold" font-size="12.0" fill="#000000" transform="matrix(1.00, 0.00, -0.00, -1.00, 135.9, 260.9)">o</text><text xml:space="preserve" font-family="Arial-BoldMT,Arial" font-weight="bold" font-size="12.0" fill="#000000" transform="matrix(1.00, 0.00, -0.00, -1.00, 143.2, 260.9)">g</text><text xml:space="preserve" font-family="Arial-BoldMT,Arial" font-weight="bold" font-size="12.0" fill="#000000" transform="matrix(1.00, 0.00, -0.00, -1.00, 150.5, 260.9)"> </text><text xml:space="preserve" font-family="Arial-BoldMT,Arial" font-weight="bold" font-size="12.0" fill="#000000" transform="matrix(1.00, 0.00, -0.00, -1.00, 153.9, 260.9)">t</text><text xml:space="preserve" font-family="Arial-BoldMT,Arial" font-weight="bold" font-size="12.0" fill="#000000" transform="matrix(1.00, 0.00, -0.00, -1.00, 157.9, 260.9)">u</text><text xml:space="preserve" font-family="Arial-BoldMT,Arial" font-weight="bold" font-size="12.0" fill="#000000" transform="matrix(1.00, 0.00, -0.00, -1.00, 165.2, 260.9)">r</text><text xml:space="preserve" font-family="Arial-BoldMT,Arial" font-weight="bold" font-size="12.0" fill="#000000" transform="matrix(1.00, 0.00, -0.00, -1.00, 169.9, 260.9)">t</text><text xml:space="preserve" font-family="Arial-BoldMT,Arial" font-weight="bold" font-size="12.0" fill="#000000" transform="matrix(1.00, 0.00, -0.00, -1.00, 173.8, 260.9)">l</text><text xml:space="preserve" font-family="Arial-BoldMT,Arial" font-weight="bold" font-size="12.0" fill="#000000" transform="matrix(1.00, 0.00, -0.00, -1.00, 177.2, 260.9)">e</text><text xml:space="preserve" font-family="Arial-BoldMT,Arial" font-weight="bold" font-size="12.0" fill="#000000" transform="matrix(1.00, 0.00, -0.00, -1.00, 183.9, 260.9)"> </text><text xml:space="preserve" font-family="Arial-ItalicMT,Arial" font-style="italic" font-size="12.0" fill="#000000" transform="matrix(1.00, 0.00, -0.00, -1.00, 187.2, 260.9)">G</text><text xml:space="preserve" font-family="Arial-ItalicMT,Arial" font-style="italic" font-size="12.0" fill="#000000" transform="matrix(1.00, 0.00, -0.00, -1.00, 196.5, 260.9)">l</text><text xml:space="preserve" font-family="Arial-ItalicMT,Arial" font-style="italic" font-size="12.0" fill="#000000" transform="matrix(1.00, 0.00, -0.00, -1.00, 199.2, 260.9)">y</text><text xml:space="preserve" font-family="Arial-ItalicMT,Arial" font-style="italic" font-size="12.0" fill="#000000" transform="matrix(1.00, 0.00, -0.00, -1.00, 205.2, 260.9)">p</text><text xml:space="preserve" font-family="Arial-ItalicMT,Arial" font-style="italic" font-size="12.0" fill="#000000" transform="matrix(1.00, 0.00, -0.00, -1.00, 211.9, 260.9)">t</text><text xml:space="preserve" font-family="Arial-ItalicMT,Arial" font-style="italic" font-size="12.0" fill="#000000" transform="matrix(1.00, 0.00, -0.00, -1.00, 215.2, 260.9)">e</text><text xml:space="preserve" font-family="Arial-ItalicMT,Arial" font-style="italic" font-size="12.0" fill="#000000" transform="matrix(1.00, 0.00, -0.00, -1.00, 221.9, 260.9)">m</text><text xml:space="preserve" font-family="Arial-ItalicMT,Arial" font-style="italic" font-size="12.0" fill="#000000" transform="matrix(1.00, 0.00, -0.00, -1.00, 231.9, 260.9)">y</text><text xml:space="preserve" font-family="Arial-ItalicMT,Arial" font-style="italic" font-size="12.0" fill="#000000" transform="matrix(1.00, 0.00, -0.00, -1.00, 237.9, 260.9)">s</text><text xml:space="preserve" font-family="Arial-ItalicMT,Arial" font-style="italic" font-size="12.0" fill="#000000" transform="matrix(1.00, 0.00, -0.00, -1.00, 243.9, 260.9)"> </text><text xml:space="preserve" font-family="Arial-ItalicMT,Arial" font-style="italic" font-size="12.0" fill="#000000" transform="matrix(1.00, 0.00, -0.00, -1.00, 247.2, 260.9)">m</text><text xml:space="preserve" font-family="Arial-ItalicMT,Arial" font-style="italic" font-size="12.0" fill="#000000" transform="matrix(1.00, 0.00, -0.00, -1.00, 257.2, 260.9)">u</text><text xml:space="preserve" font-family="Arial-ItalicMT,Arial" font-style="italic" font-size="12.0" fill="#000000" transform="matrix(1.00, 0.00, -0.00, -1.00, 263.9, 260.9)">h</text><text xml:space="preserve" font-family="Arial-ItalicMT,Arial" font-style="italic" font-size="12.0" fill="#000000" transform="matrix(1.00, 0.00, -0.00, -1.00, 270.6, 260.9)">l</text><text xml:space="preserve" font-family="Arial-ItalicMT,Arial" font-style="italic" font-size="12.0" fill="#000000" transform="matrix(1.00, 0.00, -0.00, -1.00, 273.2, 260.9)">e</text><text xml:space="preserve" font-family="Arial-ItalicMT,Arial" font-style="italic" font-size="12.0" fill="#000000" transform="matrix(1.00, 0.00, -0.00, -1.00, 279.9, 260.9)">n</text><text xml:space="preserve" font-family="Arial-ItalicMT,Arial" font-style="italic" font-size="12.0" fill="#000000" transform="matrix(1.00, 0.00, -0.00, -1.00, 286.6, 260.9)">b</text><text xml:space="preserve" font-family="Arial-ItalicMT,Arial" font-style="italic" font-size="12.0" fill="#000000" transform="matrix(1.00, 0.00, -0.00, -1.00, 293.3, 260.9)">e</text><text xml:space="preserve" font-family="Arial-ItalicMT,Arial" font-style="italic" font-size="12.0" fill="#000000" transform="matrix(1.00, 0.00, -0.00, -1.00, 299.9, 260.9)">r</text><text xml:space="preserve" font-family="Arial-ItalicMT,Arial" font-style="italic" font-size="12.0" fill="#000000" transform="matrix(1.00, 0.00, -0.00, -1.00, 303.9, 260.9)">g</text><text xml:space="preserve" font-family="Arial-ItalicMT,Arial" font-style="italic" font-size="12.0" fill="#000000" transform="matrix(1.00, 0.00, -0.00, -1.00, 310.6, 260.9)">i</text><text xml:space="preserve" font-family="Arial-ItalicMT,Arial" font-style="italic" font-size="12.0" fill="#000000" transform="matrix(1.00, 0.00, -0.00, -1.00, 313.3, 260.9)">i</text><g><clipPath id="clip0x7fd2d988cac0"><path d="M 390.0 124.0 L 661.0 124.0 L 661.0 317.0 L 390.0 317.0 Z M 390.0 124.0 "></path></clipPath><g clip-path="url(#clip0x7fd2d988cac0)"><path d="M 390.0 317.0 L 661.0 317.0 L 661.0 124.0 L 390.0 124.0 Z M 390.0 317.0 " fill="#FFFFFF"></path><image xlink:href="../../0533EC9C-DBDB-46F8-853F-BE0D165F0DEA/assets/80B7B07ED09CF3D4C849FEF823F5B542.png" width="397.00" height="283.00" transform="matrix(0.68, 0.00, -0.00, -0.68, 390.0, 317.0)"></image></g></g><text xml:space="preserve" font-family="Verdana,Verdana" font-size="13.0" fill="#000000" transform="matrix(1.00, 0.00, -0.00, -1.00, 391.2, 96.7)">L</text><text xml:space="preserve" font-family="Verdana,Verdana" font-size="13.0" fill="#000000" transform="matrix(1.00, 0.00, -0.00, -1.00, 398.4, 96.7)">e</text><text xml:space="preserve" font-family="Verdana,Verdana" font-size="13.0" fill="#000000" transform="matrix(1.00, 0.00, -0.00, -1.00, 406.2, 96.7)">a</text><text xml:space="preserve" font-family="Verdana,Verdana" font-size="13.0" fill="#000000" transform="matrix(1.00, 0.00, -0.00, -1.00, 414.0, 96.7)">t</text><text xml:space="preserve" font-family="Verdana,Verdana" font-size="13.0" fill="#000000" transform="matrix(1.00, 0.00, -0.00, -1.00, 419.1, 96.7)">h</text><text xml:space="preserve" font-family="Verdana,Verdana" font-size="13.0" fill="#000000" transform="matrix(1.00, 0.00, -0.00, -1.00, 427.3, 96.7)">e</text><text xml:space="preserve" font-family="Verdana,Verdana" font-size="13.0" fill="#000000" transform="matrix(1.00, 0.00, -0.00, -1.00, 435.1, 96.7)">r</text><text xml:space="preserve" font-family="Verdana,Verdana" font-size="13.0" fill="#000000" transform="matrix(1.00, 0.00, -0.00, -1.00, 440.6, 96.7)">b</text><text xml:space="preserve" font-family="Verdana,Verdana" font-size="13.0" fill="#000000" transform="matrix(1.00, 0.00, -0.00, -1.00, 448.7, 96.7)">a</text><text xml:space="preserve" font-family="Verdana,Verdana" font-size="13.0" fill="#000000" transform="matrix(1.00, 0.00, -0.00, -1.00, 456.5, 96.7)">c</text><text xml:space="preserve" font-family="Verdana,Verdana" font-size="13.0" fill="#000000" transform="matrix(1.00, 0.00, -0.00, -1.00, 463.3, 96.7)">k</text><text xml:space="preserve" font-family="Verdana,Verdana" font-size="13.0" fill="#000000" transform="matrix(1.00, 0.00, -0.00, -1.00, 471.0, 96.7)"> </text><text xml:space="preserve" font-family="Verdana,Verdana" font-size="13.0" fill="#000000" transform="matrix(1.00, 0.00, -0.00, -1.00, 475.5, 96.7)">T</text><text xml:space="preserve" font-family="Verdana,Verdana" font-size="13.0" fill="#000000" transform="matrix(1.00, 0.00, -0.00, -1.00, 482.3, 96.7)">u</text><text xml:space="preserve" font-family="Verdana,Verdana" font-size="13.0" fill="#000000" transform="matrix(1.00, 0.00, -0.00, -1.00, 490.5, 96.7)">r</text><text xml:space="preserve" font-family="Verdana,Verdana" font-size="13.0" fill="#000000" transform="matrix(1.00, 0.00, -0.00, -1.00, 496.1, 96.7)">t</text><text xml:space="preserve" font-family="Verdana,Verdana" font-size="13.0" fill="#000000" transform="matrix(1.00, 0.00, -0.00, -1.00, 501.2, 96.7)">l</text><text xml:space="preserve" font-family="Verdana,Verdana" font-size="13.0" fill="#000000" transform="matrix(1.00, 0.00, -0.00, -1.00, 504.7, 96.7)">e</text><text xml:space="preserve" font-family="Verdana,Verdana" font-size="13.0" fill="#000000" transform="matrix(1.00, 0.00, -0.00, -1.00, 512.5, 96.7)"> </text><text xml:space="preserve" font-family="Verdana,Verdana" font-size="13.0" fill="#000000" transform="matrix(1.00, 0.00, -0.00, -1.00, 517.1, 96.7)">(</text><text xml:space="preserve" font-family="Verdana-Italic,Verdana" font-style="italic" font-size="13.0" fill="#000000" transform="matrix(1.00, 0.00, -0.00, -1.00, 523.0, 96.7)">D</text><text xml:space="preserve" font-family="Verdana-Italic,Verdana" font-style="italic" font-size="13.0" fill="#000000" transform="matrix(1.00, 0.00, -0.00, -1.00, 532.9, 96.7)">e</text><text xml:space="preserve" font-family="Verdana-Italic,Verdana" font-style="italic" font-size="13.0" fill="#000000" transform="matrix(1.00, 0.00, -0.00, -1.00, 540.7, 96.7)">r</text><text xml:space="preserve" font-family="Verdana-Italic,Verdana" font-style="italic" font-size="13.0" fill="#000000" transform="matrix(1.00, 0.00, -0.00, -1.00, 546.2, 96.7)">m</text><text xml:space="preserve" font-family="Verdana-Italic,Verdana" font-style="italic" font-size="13.0" fill="#000000" transform="matrix(1.00, 0.00, -0.00, -1.00, 558.9, 96.7)">o</text><text xml:space="preserve" font-family="Verdana-Italic,Verdana" font-style="italic" font-size="13.0" fill="#000000" transform="matrix(1.00, 0.00, -0.00, -1.00, 566.8, 96.7)">c</text><text xml:space="preserve" font-family="Verdana-Italic,Verdana" font-style="italic" font-size="13.0" fill="#000000" transform="matrix(1.00, 0.00, -0.00, -1.00, 573.5, 96.7)">h</text><text xml:space="preserve" font-family="Verdana-Italic,Verdana" font-style="italic" font-size="13.0" fill="#000000" transform="matrix(1.00, 0.00, -0.00, -1.00, 581.8, 96.7)">e</text><text xml:space="preserve" font-family="Verdana-Italic,Verdana" font-style="italic" font-size="13.0" fill="#000000" transform="matrix(1.00, 0.00, -0.00, -1.00, 589.5, 96.7)">l</text><text xml:space="preserve" font-family="Verdana-Italic,Verdana" font-style="italic" font-size="13.0" fill="#000000" transform="matrix(1.00, 0.00, -0.00, -1.00, 593.1, 96.7)">y</text><text xml:space="preserve" font-family="Verdana-Italic,Verdana" font-style="italic" font-size="13.0" fill="#000000" transform="matrix(1.00, 0.00, -0.00, -1.00, 600.8, 96.7)">s</text><text xml:space="preserve" font-family="Verdana-Italic,Verdana" font-style="italic" font-size="13.0" fill="#000000" transform="matrix(1.00, 0.00, -0.00, -1.00, 607.5, 96.7)"> </text><text xml:space="preserve" font-family="Verdana-Italic,Verdana" font-style="italic" font-size="13.0" fill="#000000" transform="matrix(1.00, 0.00, -0.00, -1.00, 612.1, 96.7)">c</text><text xml:space="preserve" font-family="Verdana-Italic,Verdana" font-style="italic" font-size="13.0" fill="#000000" transform="matrix(1.00, 0.00, -0.00, -1.00, 618.9, 96.7)">o</text><text xml:space="preserve" font-family="Verdana-Italic,Verdana" font-style="italic" font-size="13.0" fill="#000000" transform="matrix(1.00, 0.00, -0.00, -1.00, 626.8, 96.7)">r</text><text xml:space="preserve" font-family="Verdana-Italic,Verdana" font-style="italic" font-size="13.0" fill="#000000" transform="matrix(1.00, 0.00, -0.00, -1.00, 632.3, 96.7)">i</text><text xml:space="preserve" font-family="Verdana-Italic,Verdana" font-style="italic" font-size="13.0" fill="#000000" transform="matrix(1.00, 0.00, -0.00, -1.00, 635.9, 96.7)">a</text><text xml:space="preserve" font-family="Verdana-Italic,Verdana" font-style="italic" font-size="13.0" fill="#000000" transform="matrix(1.00, 0.00, -0.00, -1.00, 643.7, 96.7)">c</text><text xml:space="preserve" font-family="Verdana-Italic,Verdana" font-style="italic" font-size="13.0" fill="#000000" transform="matrix(1.00, 0.00, -0.00, -1.00, 650.5, 96.7)">e</text><text xml:space="preserve" font-family="Verdana-Italic,Verdana" font-style="italic" font-size="13.0" fill="#000000" transform="matrix(1.00, 0.00, -0.00, -1.00, 658.2, 96.7)">a</text><text xml:space="preserve" font-family="Verdana,Verdana" font-size="13.0" fill="#000000" transform="matrix(1.00, 0.00, -0.00, -1.00, 666.0, 96.7)">)</text></g></svg>