<?xml version="1.0" encoding="UTF-8" standalone="no"?><svg xmlns="http://www.w3.org/2000/svg" xmlns:xlink="http://www.w3.org/1999/xlink" clip-rule="evenodd" stroke-miterlimit="10" viewBox="0 0 720 540"><desc>SVG generated by Keynote</desc><defs></defs><g transform="matrix(1.00, 0.00, -0.00, -1.00, 0.0, 540.0)"><path d="M 0.0 540.0 L 720.0 540.0 L 720.0 0.0 L 0.0 0.0 Z M 0.0 540.0 " fill="#FEFFFF"></path><image xlink:href="../../E24399A9-2ED3-4660-B9EC-6FA0749C39E5/assets/11551F6A856EC4AD77FBFC8BEC6271C5.jpeg" width="945.00" height="636.00" transform="matrix(0.35, 0.00, -0.00, -0.35, 65.0, 429.0)"></image><image xlink:href="../../8D78C6F8-57DE-422C-9718-23F7B11E9472/assets/50011B608901AF30AE42F6C6FF78CB9D.jpeg" width="786.00" height="1472.00" transform="matrix(0.27, 0.00, -0.00, -0.27, 438.0, 516.0)"></image><text xml:space="preserve" font-family="ArialMT,Arial" font-size="16.0" fill="#000000" transform="matrix(1.00, 0.00, -0.00, -1.00, 463.2, 89.9)">H</text><text xml:space="preserve" font-family="ArialMT,Arial" font-size="16.0" fill="#000000" transform="matrix(1.00, 0.00, -0.00, -1.00, 474.8, 89.9)">o</text><text xml:space="preserve" font-family="ArialMT,Arial" font-size="16.0" fill="#000000" transform="matrix(1.00, 0.00, -0.00, -1.00, 483.7, 89.9)">m</text><text xml:space="preserve" font-family="ArialMT,Arial" font-size="16.0" fill="#000000" transform="matrix(1.00, 0.00, -0.00, -1.00, 497.0, 89.9)">e</text><text xml:space="preserve" font-family="ArialMT,Arial" font-size="16.0" fill="#000000" transform="matrix(1.00, 0.00, -0.00, -1.00, 505.9, 89.9)"> </text><text xml:space="preserve" font-family="ArialMT,Arial" font-size="16.0" fill="#000000" transform="matrix(1.00, 0.00, -0.00, -1.00, 510.3, 89.9)">r</text><text xml:space="preserve" font-family="ArialMT,Arial" font-size="16.0" fill="#000000" transform="matrix(1.00, 0.00, -0.00, -1.00, 515.7, 89.9)">a</text><text xml:space="preserve" font-family="ArialMT,Arial" font-size="16.0" fill="#000000" transform="matrix(1.00, 0.00, -0.00, -1.00, 524.6, 89.9)">n</text><text xml:space="preserve" font-family="ArialMT,Arial" font-size="16.0" fill="#000000" transform="matrix(1.00, 0.00, -0.00, -1.00, 533.5, 89.9)">g</text><text xml:space="preserve" font-family="ArialMT,Arial" font-size="16.0" fill="#000000" transform="matrix(1.00, 0.00, -0.00, -1.00, 542.4, 89.9)">e</text><text xml:space="preserve" font-family="ArialMT,Arial" font-size="16.0" fill="#000000" transform="matrix(1.00, 0.00, -0.00, -1.00, 551.3, 89.9)">s</text><text xml:space="preserve" font-family="ArialMT,Arial" font-size="16.0" fill="#000000" transform="matrix(1.00, 0.00, -0.00, -1.00, 559.3, 89.9)"> </text><text xml:space="preserve" font-family="ArialMT,Arial" font-size="16.0" fill="#000000" transform="matrix(1.00, 0.00, -0.00, -1.00, 563.7, 89.9)">o</text><text xml:space="preserve" font-family="ArialMT,Arial" font-size="16.0" fill="#000000" transform="matrix(1.00, 0.00, -0.00, -1.00, 572.6, 89.9)">f</text><text xml:space="preserve" font-family="ArialMT,Arial" font-size="16.0" fill="#000000" transform="matrix(1.00, 0.00, -0.00, -1.00, 577.1, 89.9)"> </text><text xml:space="preserve" font-family="Arial-ItalicMT,Arial" font-style="italic" font-size="16.0" fill="#000000" transform="matrix(1.00, 0.00, -0.00, -1.00, 463.2, 71.9)">P</text><text xml:space="preserve" font-family="Arial-ItalicMT,Arial" font-style="italic" font-size="16.0" fill="#000000" transform="matrix(1.00, 0.00, -0.00, -1.00, 473.9, 71.9)">l</text><text xml:space="preserve" font-family="Arial-ItalicMT,Arial" font-style="italic" font-size="16.0" fill="#000000" transform="matrix(1.00, 0.00, -0.00, -1.00, 477.4, 71.9)">e</text><text xml:space="preserve" font-family="Arial-ItalicMT,Arial" font-style="italic" font-size="16.0" fill="#000000" transform="matrix(1.00, 0.00, -0.00, -1.00, 486.3, 71.9)">t</text><text xml:space="preserve" font-family="Arial-ItalicMT,Arial" font-style="italic" font-size="16.0" fill="#000000" transform="matrix(1.00, 0.00, -0.00, -1.00, 490.8, 71.9)">h</text><text xml:space="preserve" font-family="Arial-ItalicMT,Arial" font-style="italic" font-size="16.0" fill="#000000" transform="matrix(1.00, 0.00, -0.00, -1.00, 499.7, 71.9)">o</text><text xml:space="preserve" font-family="Arial-ItalicMT,Arial" font-style="italic" font-size="16.0" fill="#000000" transform="matrix(1.00, 0.00, -0.00, -1.00, 508.6, 71.9)">d</text><text xml:space="preserve" font-family="Arial-ItalicMT,Arial" font-style="italic" font-size="16.0" fill="#000000" transform="matrix(1.00, 0.00, -0.00, -1.00, 517.5, 71.9)">o</text><text xml:space="preserve" font-family="Arial-ItalicMT,Arial" font-style="italic" font-size="16.0" fill="#000000" transform="matrix(1.00, 0.00, -0.00, -1.00, 526.4, 71.9)">n</text><text xml:space="preserve" font-family="Arial-ItalicMT,Arial" font-style="italic" font-size="16.0" fill="#000000" transform="matrix(1.00, 0.00, -0.00, -1.00, 535.3, 71.9)"> </text><text xml:space="preserve" font-family="Arial-ItalicMT,Arial" font-style="italic" font-size="16.0" fill="#000000" transform="matrix(1.00, 0.00, -0.00, -1.00, 539.7, 71.9)">t</text><text xml:space="preserve" font-family="Arial-ItalicMT,Arial" font-style="italic" font-size="16.0" fill="#000000" transform="matrix(1.00, 0.00, -0.00, -1.00, 544.2, 71.9)">e</text><text xml:space="preserve" font-family="Arial-ItalicMT,Arial" font-style="italic" font-size="16.0" fill="#000000" transform="matrix(1.00, 0.00, -0.00, -1.00, 553.1, 71.9)">y</text><text xml:space="preserve" font-family="Arial-ItalicMT,Arial" font-style="italic" font-size="16.0" fill="#000000" transform="matrix(1.00, 0.00, -0.00, -1.00, 561.1, 71.9)">a</text><text xml:space="preserve" font-family="Arial-ItalicMT,Arial" font-style="italic" font-size="16.0" fill="#000000" transform="matrix(1.00, 0.00, -0.00, -1.00, 570.0, 71.9)">h</text><text xml:space="preserve" font-family="Arial-ItalicMT,Arial" font-style="italic" font-size="16.0" fill="#000000" transform="matrix(1.00, 0.00, -0.00, -1.00, 578.9, 71.9)">a</text><text xml:space="preserve" font-family="Arial-ItalicMT,Arial" font-style="italic" font-size="16.0" fill="#000000" transform="matrix(1.00, 0.00, -0.00, -1.00, 587.8, 71.9)">l</text><text xml:space="preserve" font-family="Arial-ItalicMT,Arial" font-style="italic" font-size="16.0" fill="#000000" transform="matrix(1.00, 0.00, -0.00, -1.00, 591.3, 71.9)">e</text><text xml:space="preserve" font-family="Arial-ItalicMT,Arial" font-style="italic" font-size="16.0" fill="#000000" transform="matrix(1.00, 0.00, -0.00, -1.00, 600.2, 71.9)">e</text><text xml:space="preserve" font-family="ArialMT,Arial" font-size="16.0" fill="#000000" transform="matrix(1.00, 0.00, -0.00, -1.00, 609.1, 71.9)"> </text><text xml:space="preserve" font-family="ArialMT,Arial" font-size="16.0" fill="#000000" transform="matrix(1.00, 0.00, -0.00, -1.00, 463.2, 53.9)">i</text><text xml:space="preserve" font-family="ArialMT,Arial" font-size="16.0" fill="#000000" transform="matrix(1.00, 0.00, -0.00, -1.00, 466.8, 53.9)">n</text><text xml:space="preserve" font-family="ArialMT,Arial" font-size="16.0" fill="#000000" transform="matrix(1.00, 0.00, -0.00, -1.00, 475.7, 53.9)"> </text><text xml:space="preserve" font-family="ArialMT,Arial" font-size="16.0" fill="#000000" transform="matrix(1.00, 0.00, -0.00, -1.00, 480.1, 53.9)">t</text><text xml:space="preserve" font-family="ArialMT,Arial" font-size="16.0" fill="#000000" transform="matrix(1.00, 0.00, -0.00, -1.00, 484.5, 53.9)">w</text><text xml:space="preserve" font-family="ArialMT,Arial" font-size="16.0" fill="#000000" transform="matrix(1.00, 0.00, -0.00, -1.00, 496.1, 53.9)">o</text><text xml:space="preserve" font-family="ArialMT,Arial" font-size="16.0" fill="#000000" transform="matrix(1.00, 0.00, -0.00, -1.00, 505.0, 53.9)"> </text><text xml:space="preserve" font-family="ArialMT,Arial" font-size="16.0" fill="#000000" transform="matrix(1.00, 0.00, -0.00, -1.00, 509.4, 53.9)">t</text><text xml:space="preserve" font-family="ArialMT,Arial" font-size="16.0" fill="#000000" transform="matrix(1.00, 0.00, -0.00, -1.00, 513.9, 53.9)">y</text><text xml:space="preserve" font-family="ArialMT,Arial" font-size="16.0" fill="#000000" transform="matrix(1.00, 0.00, -0.00, -1.00, 521.9, 53.9)">p</text><text xml:space="preserve" font-family="ArialMT,Arial" font-size="16.0" fill="#000000" transform="matrix(1.00, 0.00, -0.00, -1.00, 530.8, 53.9)">e</text><text xml:space="preserve" font-family="ArialMT,Arial" font-size="16.0" fill="#000000" transform="matrix(1.00, 0.00, -0.00, -1.00, 539.7, 53.9)">s</text><text xml:space="preserve" font-family="ArialMT,Arial" font-size="16.0" fill="#000000" transform="matrix(1.00, 0.00, -0.00, -1.00, 547.7, 53.9)"> </text><text xml:space="preserve" font-family="ArialMT,Arial" font-size="16.0" fill="#000000" transform="matrix(1.00, 0.00, -0.00, -1.00, 552.1, 53.9)">o</text><text xml:space="preserve" font-family="ArialMT,Arial" font-size="16.0" fill="#000000" transform="matrix(1.00, 0.00, -0.00, -1.00, 561.0, 53.9)">f</text><text xml:space="preserve" font-family="ArialMT,Arial" font-size="16.0" fill="#000000" transform="matrix(1.00, 0.00, -0.00, -1.00, 565.5, 53.9)"> </text><text xml:space="preserve" font-family="ArialMT,Arial" font-size="16.0" fill="#000000" transform="matrix(1.00, 0.00, -0.00, -1.00, 463.2, 27.9)">h</text><text xml:space="preserve" font-family="ArialMT,Arial" font-size="16.0" fill="#000000" transform="matrix(1.00, 0.00, -0.00, -1.00, 472.1, 27.9)">a</text><text xml:space="preserve" font-family="ArialMT,Arial" font-size="16.0" fill="#000000" transform="matrix(1.00, 0.00, -0.00, -1.00, 481.0, 27.9)">b</text><text xml:space="preserve" font-family="ArialMT,Arial" font-size="16.0" fill="#000000" transform="matrix(1.00, 0.00, -0.00, -1.00, 489.9, 27.9)">i</text><text xml:space="preserve" font-family="ArialMT,Arial" font-size="16.0" fill="#000000" transform="matrix(1.00, 0.00, -0.00, -1.00, 493.5, 27.9)">t</text><text xml:space="preserve" font-family="ArialMT,Arial" font-size="16.0" fill="#000000" transform="matrix(1.00, 0.00, -0.00, -1.00, 497.9, 27.9)">a</text><text xml:space="preserve" font-family="ArialMT,Arial" font-size="16.0" fill="#000000" transform="matrix(1.00, 0.00, -0.00, -1.00, 506.8, 27.9)">t</text><text xml:space="preserve" font-family="ArialMT,Arial" font-size="24.0" fill="#000000" transform="matrix(1.00, 0.00, -0.00, -1.00, 511.2, 27.9)"> </text><text xml:space="preserve" font-family="ArialMT,Arial" font-size="24.0" fill="#000000" transform="matrix(1.00, 0.00, -0.00, -1.00, 108.0, 175.4)">H</text><text xml:space="preserve" font-family="ArialMT,Arial" font-size="24.0" fill="#000000" transform="matrix(1.00, 0.00, -0.00, -1.00, 125.3, 175.4)">o</text><text xml:space="preserve" font-family="ArialMT,Arial" font-size="24.0" fill="#000000" transform="matrix(1.00, 0.00, -0.00, -1.00, 138.6, 175.4)">m</text><text xml:space="preserve" font-family="ArialMT,Arial" font-size="24.0" fill="#000000" transform="matrix(1.00, 0.00, -0.00, -1.00, 158.6, 175.4)">e</text><text xml:space="preserve" font-family="ArialMT,Arial" font-size="24.0" fill="#000000" transform="matrix(1.00, 0.00, -0.00, -1.00, 172.0, 175.4)"> </text><text xml:space="preserve" font-family="ArialMT,Arial" font-size="24.0" fill="#000000" transform="matrix(1.00, 0.00, -0.00, -1.00, 178.6, 175.4)">r</text><text xml:space="preserve" font-family="ArialMT,Arial" font-size="24.0" fill="#000000" transform="matrix(1.00, 0.00, -0.00, -1.00, 186.6, 175.4)">a</text><text xml:space="preserve" font-family="ArialMT,Arial" font-size="24.0" fill="#000000" transform="matrix(1.00, 0.00, -0.00, -1.00, 200.0, 175.4)">n</text><text xml:space="preserve" font-family="ArialMT,Arial" font-size="24.0" fill="#000000" transform="matrix(1.00, 0.00, -0.00, -1.00, 213.3, 175.4)">g</text><text xml:space="preserve" font-family="ArialMT,Arial" font-size="24.0" fill="#000000" transform="matrix(1.00, 0.00, -0.00, -1.00, 226.7, 175.4)">e</text><text xml:space="preserve" font-family="ArialMT,Arial" font-size="24.0" fill="#000000" transform="matrix(1.00, 0.00, -0.00, -1.00, 240.0, 175.4)">s</text><text xml:space="preserve" font-family="ArialMT,Arial" font-size="24.0" fill="#000000" transform="matrix(1.00, 0.00, -0.00, -1.00, 252.0, 175.4)"> </text><text xml:space="preserve" font-family="ArialMT,Arial" font-size="24.0" fill="#000000" transform="matrix(1.00, 0.00, -0.00, -1.00, 258.7, 175.4)">o</text><text xml:space="preserve" font-family="ArialMT,Arial" font-size="24.0" fill="#000000" transform="matrix(1.00, 0.00, -0.00, -1.00, 272.1, 175.4)">f</text><text xml:space="preserve" font-family="ArialMT,Arial" font-size="24.0" fill="#000000" transform="matrix(1.00, 0.00, -0.00, -1.00, 278.7, 175.4)"> </text><text xml:space="preserve" font-family="ArialMT,Arial" font-size="24.0" fill="#000000" transform="matrix(1.00, 0.00, -0.00, -1.00, 285.4, 175.4)">j</text><text xml:space="preserve" font-family="ArialMT,Arial" font-size="24.0" fill="#000000" transform="matrix(1.00, 0.00, -0.00, -1.00, 290.7, 175.4)">u</text><text xml:space="preserve" font-family="ArialMT,Arial" font-size="24.0" fill="#000000" transform="matrix(1.00, 0.00, -0.00, -1.00, 304.1, 175.4)">v</text><text xml:space="preserve" font-family="ArialMT,Arial" font-size="24.0" fill="#000000" transform="matrix(1.00, 0.00, -0.00, -1.00, 316.1, 175.4)">e</text><text xml:space="preserve" font-family="ArialMT,Arial" font-size="24.0" fill="#000000" transform="matrix(1.00, 0.00, -0.00, -1.00, 329.4, 175.4)">n</text><text xml:space="preserve" font-family="ArialMT,Arial" font-size="24.0" fill="#000000" transform="matrix(1.00, 0.00, -0.00, -1.00, 342.8, 175.4)">i</text><text xml:space="preserve" font-family="ArialMT,Arial" font-size="24.0" fill="#000000" transform="matrix(1.00, 0.00, -0.00, -1.00, 348.1, 175.4)">l</text><text xml:space="preserve" font-family="ArialMT,Arial" font-size="24.0" fill="#000000" transform="matrix(1.00, 0.00, -0.00, -1.00, 353.5, 175.4)">e</text><text xml:space="preserve" font-family="ArialMT,Arial" font-size="24.0" fill="#000000" transform="matrix(1.00, 0.00, -0.00, -1.00, 366.8, 175.4)"> </text><text xml:space="preserve" font-family="Arial-ItalicMT,Arial" font-style="italic" font-size="24.0" fill="#000000" transform="matrix(1.00, 0.00, -0.00, -1.00, 108.0, 147.4)">A</text><text xml:space="preserve" font-family="Arial-ItalicMT,Arial" font-style="italic" font-size="24.0" fill="#000000" transform="matrix(1.00, 0.00, -0.00, -1.00, 124.0, 147.4)">n</text><text xml:space="preserve" font-family="Arial-ItalicMT,Arial" font-style="italic" font-size="24.0" fill="#000000" transform="matrix(1.00, 0.00, -0.00, -1.00, 137.3, 147.4)">o</text><text xml:space="preserve" font-family="Arial-ItalicMT,Arial" font-style="italic" font-size="24.0" fill="#000000" transform="matrix(1.00, 0.00, -0.00, -1.00, 150.7, 147.4)">l</text><text xml:space="preserve" font-family="Arial-ItalicMT,Arial" font-style="italic" font-size="24.0" fill="#000000" transform="matrix(1.00, 0.00, -0.00, -1.00, 156.0, 147.4)">i</text><text xml:space="preserve" font-family="Arial-ItalicMT,Arial" font-style="italic" font-size="24.0" fill="#000000" transform="matrix(1.00, 0.00, -0.00, -1.00, 161.3, 147.4)">s</text><text xml:space="preserve" font-family="Arial-ItalicMT,Arial" font-style="italic" font-size="24.0" fill="#000000" transform="matrix(1.00, 0.00, -0.00, -1.00, 173.3, 147.4)"> </text><text xml:space="preserve" font-family="Arial-ItalicMT,Arial" font-style="italic" font-size="24.0" fill="#000000" transform="matrix(1.00, 0.00, -0.00, -1.00, 180.0, 147.4)">a</text><text xml:space="preserve" font-family="Arial-ItalicMT,Arial" font-style="italic" font-size="24.0" fill="#000000" transform="matrix(1.00, 0.00, -0.00, -1.00, 193.4, 147.4)">e</text><text xml:space="preserve" font-family="Arial-ItalicMT,Arial" font-style="italic" font-size="24.0" fill="#000000" transform="matrix(1.00, 0.00, -0.00, -1.00, 206.7, 147.4)">n</text><text xml:space="preserve" font-family="Arial-ItalicMT,Arial" font-style="italic" font-size="24.0" fill="#000000" transform="matrix(1.00, 0.00, -0.00, -1.00, 220.1, 147.4)">e</text><text xml:space="preserve" font-family="Arial-ItalicMT,Arial" font-style="italic" font-size="24.0" fill="#000000" transform="matrix(1.00, 0.00, -0.00, -1.00, 233.4, 147.4)">u</text><text xml:space="preserve" font-family="Arial-ItalicMT,Arial" font-style="italic" font-size="24.0" fill="#000000" transform="matrix(1.00, 0.00, -0.00, -1.00, 246.8, 147.4)">s</text><text xml:space="preserve" font-family="Arial-ItalicMT,Arial" font-style="italic" font-size="24.0" fill="#000000" transform="matrix(1.00, 0.00, -0.00, -1.00, 258.8, 147.4)"> </text><text xml:space="preserve" font-family="ArialMT,Arial" font-size="24.0" fill="#000000" transform="matrix(1.00, 0.00, -0.00, -1.00, 265.4, 147.4)">i</text><text xml:space="preserve" font-family="ArialMT,Arial" font-size="24.0" fill="#000000" transform="matrix(1.00, 0.00, -0.00, -1.00, 270.7, 147.4)">n</text><text xml:space="preserve" font-family="Arial-ItalicMT,Arial" font-style="italic" font-size="24.0" fill="#000000" transform="matrix(1.00, 0.00, -0.00, -1.00, 284.1, 147.4)"> </text><text xml:space="preserve" font-family="ArialMT,Arial" font-size="24.0" fill="#000000" transform="matrix(1.00, 0.00, -0.00, -1.00, 108.0, 119.4)">e</text><text xml:space="preserve" font-family="ArialMT,Arial" font-size="24.0" fill="#000000" transform="matrix(1.00, 0.00, -0.00, -1.00, 121.3, 119.4)">x</text><text xml:space="preserve" font-family="ArialMT,Arial" font-size="24.0" fill="#000000" transform="matrix(1.00, 0.00, -0.00, -1.00, 133.3, 119.4)">p</text><text xml:space="preserve" font-family="ArialMT,Arial" font-size="24.0" fill="#000000" transform="matrix(1.00, 0.00, -0.00, -1.00, 146.7, 119.4)">e</text><text xml:space="preserve" font-family="ArialMT,Arial" font-size="24.0" fill="#000000" transform="matrix(1.00, 0.00, -0.00, -1.00, 160.0, 119.4)">r</text><text xml:space="preserve" font-family="ArialMT,Arial" font-size="24.0" fill="#000000" transform="matrix(1.00, 0.00, -0.00, -1.00, 168.0, 119.4)">i</text><text xml:space="preserve" font-family="ArialMT,Arial" font-size="24.0" fill="#000000" transform="matrix(1.00, 0.00, -0.00, -1.00, 173.3, 119.4)">m</text><text xml:space="preserve" font-family="ArialMT,Arial" font-size="24.0" fill="#000000" transform="matrix(1.00, 0.00, -0.00, -1.00, 193.3, 119.4)">e</text><text xml:space="preserve" font-family="ArialMT,Arial" font-size="24.0" fill="#000000" transform="matrix(1.00, 0.00, -0.00, -1.00, 206.7, 119.4)">n</text><text xml:space="preserve" font-family="ArialMT,Arial" font-size="24.0" fill="#000000" transform="matrix(1.00, 0.00, -0.00, -1.00, 220.0, 119.4)">t</text><text xml:space="preserve" font-family="ArialMT,Arial" font-size="24.0" fill="#000000" transform="matrix(1.00, 0.00, -0.00, -1.00, 226.7, 119.4)">a</text><text xml:space="preserve" font-family="ArialMT,Arial" font-size="24.0" fill="#000000" transform="matrix(1.00, 0.00, -0.00, -1.00, 240.0, 119.4)">l</text><text xml:space="preserve" font-family="ArialMT,Arial" font-size="24.0" fill="#000000" transform="matrix(1.00, 0.00, -0.00, -1.00, 245.4, 119.4)"> </text><text xml:space="preserve" font-family="ArialMT,Arial" font-size="24.0" fill="#000000" transform="matrix(1.00, 0.00, -0.00, -1.00, 252.0, 119.4)">p</text><text xml:space="preserve" font-family="ArialMT,Arial" font-size="24.0" fill="#000000" transform="matrix(1.00, 0.00, -0.00, -1.00, 265.4, 119.4)">a</text><text xml:space="preserve" font-family="ArialMT,Arial" font-size="24.0" fill="#000000" transform="matrix(1.00, 0.00, -0.00, -1.00, 278.8, 119.4)">t</text><text xml:space="preserve" font-family="ArialMT,Arial" font-size="24.0" fill="#000000" transform="matrix(1.00, 0.00, -0.00, -1.00, 285.4, 119.4)">c</text><text xml:space="preserve" font-family="ArialMT,Arial" font-size="24.0" fill="#000000" transform="matrix(1.00, 0.00, -0.00, -1.00, 297.4, 119.4)">h</text><text xml:space="preserve" font-family="ArialMT,Arial" font-size="24.0" fill="#000000" transform="matrix(1.00, 0.00, -0.00, -1.00, 310.8, 119.4)">e</text><text xml:space="preserve" font-family="ArialMT,Arial" font-size="24.0" fill="#000000" transform="matrix(1.00, 0.00, -0.00, -1.00, 324.1, 119.4)">s</text></g></svg>