<?xml version="1.0" encoding="UTF-8" standalone="no"?><svg xmlns="http://www.w3.org/2000/svg" xmlns:xlink="http://www.w3.org/1999/xlink" clip-rule="evenodd" stroke-miterlimit="4.00" viewBox="0 0 720 540"><desc>SVG generated by Keynote</desc><defs></defs><g transform="matrix(1.00, 0.00, -0.00, -1.00, 0.0, 540.0)"><path d="M 0.0 540.0 L 720.0 540.0 L 720.0 0.0 L 0.0 0.0 Z M 0.0 540.0 " fill="#FEFFFF"></path><text xml:space="preserve" font-family="ArialMT" font-size="44.0" fill="#000000" transform="matrix(1.00, 0.00, -0.00, -1.00, 163.0, 432.0)">C</text><text xml:space="preserve" font-family="ArialMT" font-size="44.0" fill="#000000" transform="matrix(1.00, 0.00, -0.00, -1.00, 194.8, 432.0)">o</text><text xml:space="preserve" font-family="ArialMT" font-size="44.0" fill="#000000" transform="matrix(1.00, 0.00, -0.00, -1.00, 219.3, 432.0)">m</text><text xml:space="preserve" font-family="ArialMT" font-size="44.0" fill="#000000" transform="matrix(1.00, 0.00, -0.00, -1.00, 255.9, 432.0)">p</text><text xml:space="preserve" font-family="ArialMT" font-size="44.0" fill="#000000" transform="matrix(1.00, 0.00, -0.00, -1.00, 280.4, 432.0)">e</text><text xml:space="preserve" font-family="ArialMT" font-size="44.0" fill="#000000" transform="matrix(1.00, 0.00, -0.00, -1.00, 304.9, 432.0)">t</text><text xml:space="preserve" font-family="ArialMT" font-size="44.0" fill="#000000" transform="matrix(1.00, 0.00, -0.00, -1.00, 317.1, 432.0)">i</text><text xml:space="preserve" font-family="ArialMT" font-size="44.0" fill="#000000" transform="matrix(1.00, 0.00, -0.00, -1.00, 326.9, 432.0)">t</text><text xml:space="preserve" font-family="ArialMT" font-size="44.0" fill="#000000" transform="matrix(1.00, 0.00, -0.00, -1.00, 339.1, 432.0)">i</text><text xml:space="preserve" font-family="ArialMT" font-size="44.0" fill="#000000" transform="matrix(1.00, 0.00, -0.00, -1.00, 348.9, 432.0)">o</text><text xml:space="preserve" font-family="ArialMT" font-size="44.0" fill="#000000" transform="matrix(1.00, 0.00, -0.00, -1.00, 373.4, 432.0)">n</text><text xml:space="preserve" font-family="ArialMT" font-size="44.0" fill="#000000" transform="matrix(1.00, 0.00, -0.00, -1.00, 397.8, 432.0)"> </text><text xml:space="preserve" font-family="ArialMT" font-size="44.0" fill="#000000" transform="matrix(1.00, 0.00, -0.00, -1.00, 410.0, 432.0)">M</text><text xml:space="preserve" font-family="ArialMT" font-size="44.0" fill="#000000" transform="matrix(1.00, 0.00, -0.00, -1.00, 446.7, 432.0)">a</text><text xml:space="preserve" font-family="ArialMT" font-size="44.0" fill="#000000" transform="matrix(1.00, 0.00, -0.00, -1.00, 471.2, 432.0)">t</text><text xml:space="preserve" font-family="ArialMT" font-size="44.0" fill="#000000" transform="matrix(1.00, 0.00, -0.00, -1.00, 483.4, 432.0)">t</text><text xml:space="preserve" font-family="ArialMT" font-size="44.0" fill="#000000" transform="matrix(1.00, 0.00, -0.00, -1.00, 495.6, 432.0)">e</text><text xml:space="preserve" font-family="ArialMT" font-size="44.0" fill="#000000" transform="matrix(1.00, 0.00, -0.00, -1.00, 520.1, 432.0)">r</text><text xml:space="preserve" font-family="ArialMT" font-size="44.0" fill="#000000" transform="matrix(1.00, 0.00, -0.00, -1.00, 534.7, 432.0)">s</text><text xml:space="preserve" font-family="ArialMT" font-size="32.0" fill="#000000" transform="matrix(1.00, 0.00, -0.00, -1.00, 61.2, 350.8)">•</text><text xml:space="preserve" font-family="Arial-BoldMT" font-weight="bold" font-size="32.0" fill="#000000" transform="matrix(1.00, 0.00, -0.00, -1.00, 88.0, 351.0)">G</text><text xml:space="preserve" font-family="Arial-BoldMT" font-weight="bold" font-size="32.0" fill="#000000" transform="matrix(1.00, 0.00, -0.00, -1.00, 112.9, 351.0)">a</text><text xml:space="preserve" font-family="Arial-BoldMT" font-weight="bold" font-size="32.0" fill="#000000" transform="matrix(1.00, 0.00, -0.00, -1.00, 130.7, 351.0)">u</text><text xml:space="preserve" font-family="Arial-BoldMT" font-weight="bold" font-size="32.0" fill="#000000" transform="matrix(1.00, 0.00, -0.00, -1.00, 150.2, 351.0)">s</text><text xml:space="preserve" font-family="Arial-BoldMT" font-weight="bold" font-size="32.0" fill="#000000" transform="matrix(1.00, 0.00, -0.00, -1.00, 168.0, 351.0)">s</text><text xml:space="preserve" font-family="Arial-BoldMT" font-weight="bold" font-size="32.0" fill="#000000" transform="matrix(1.00, 0.00, -0.00, -1.00, 185.8, 351.0)">’</text><text xml:space="preserve" font-family="Arial-BoldMT" font-weight="bold" font-size="32.0" fill="#000000" transform="matrix(1.00, 0.00, -0.00, -1.00, 193.5, 351.0)">s</text><text xml:space="preserve" font-family="Arial-BoldMT" font-weight="bold" font-size="32.0" fill="#000000" transform="matrix(1.00, 0.00, -0.00, -1.00, 211.3, 351.0)"> </text><text xml:space="preserve" font-family="Arial-BoldMT" font-weight="bold" font-size="32.0" fill="#000000" transform="matrix(1.00, 0.00, -0.00, -1.00, 220.2, 351.0)">c</text><text xml:space="preserve" font-family="Arial-BoldMT" font-weight="bold" font-size="32.0" fill="#000000" transform="matrix(1.00, 0.00, -0.00, -1.00, 238.0, 351.0)">o</text><text xml:space="preserve" font-family="Arial-BoldMT" font-weight="bold" font-size="32.0" fill="#000000" transform="matrix(1.00, 0.00, -0.00, -1.00, 257.6, 351.0)">m</text><text xml:space="preserve" font-family="Arial-BoldMT" font-weight="bold" font-size="32.0" fill="#000000" transform="matrix(1.00, 0.00, -0.00, -1.00, 286.0, 351.0)">p</text><text xml:space="preserve" font-family="Arial-BoldMT" font-weight="bold" font-size="32.0" fill="#000000" transform="matrix(1.00, 0.00, -0.00, -1.00, 305.6, 351.0)">e</text><text xml:space="preserve" font-family="Arial-BoldMT" font-weight="bold" font-size="32.0" fill="#000000" transform="matrix(1.00, 0.00, -0.00, -1.00, 323.4, 351.0)">t</text><text xml:space="preserve" font-family="Arial-BoldMT" font-weight="bold" font-size="32.0" fill="#000000" transform="matrix(1.00, 0.00, -0.00, -1.00, 334.0, 351.0)">i</text><text xml:space="preserve" font-family="Arial-BoldMT" font-weight="bold" font-size="32.0" fill="#000000" transform="matrix(1.00, 0.00, -0.00, -1.00, 342.9, 351.0)">t</text><text xml:space="preserve" font-family="Arial-BoldMT" font-weight="bold" font-size="32.0" fill="#000000" transform="matrix(1.00, 0.00, -0.00, -1.00, 353.6, 351.0)">i</text><text xml:space="preserve" font-family="Arial-BoldMT" font-weight="bold" font-size="32.0" fill="#000000" transform="matrix(1.00, 0.00, -0.00, -1.00, 362.4, 351.0)">v</text><text xml:space="preserve" font-family="Arial-BoldMT" font-weight="bold" font-size="32.0" fill="#000000" transform="matrix(1.00, 0.00, -0.00, -1.00, 380.3, 351.0)">e</text><text xml:space="preserve" font-family="Arial-BoldMT" font-weight="bold" font-size="32.0" fill="#000000" transform="matrix(1.00, 0.00, -0.00, -1.00, 398.1, 351.0)"> </text><text xml:space="preserve" font-family="Arial-BoldMT" font-weight="bold" font-size="32.0" fill="#000000" transform="matrix(1.00, 0.00, -0.00, -1.00, 406.9, 351.0)">e</text><text xml:space="preserve" font-family="Arial-BoldMT" font-weight="bold" font-size="32.0" fill="#000000" transform="matrix(1.00, 0.00, -0.00, -1.00, 424.7, 351.0)">x</text><text xml:space="preserve" font-family="Arial-BoldMT" font-weight="bold" font-size="32.0" fill="#000000" transform="matrix(1.00, 0.00, -0.00, -1.00, 442.5, 351.0)">c</text><text xml:space="preserve" font-family="Arial-BoldMT" font-weight="bold" font-size="32.0" fill="#000000" transform="matrix(1.00, 0.00, -0.00, -1.00, 460.3, 351.0)">l</text><text xml:space="preserve" font-family="Arial-BoldMT" font-weight="bold" font-size="32.0" fill="#000000" transform="matrix(1.00, 0.00, -0.00, -1.00, 469.2, 351.0)">u</text><text xml:space="preserve" font-family="Arial-BoldMT" font-weight="bold" font-size="32.0" fill="#000000" transform="matrix(1.00, 0.00, -0.00, -1.00, 488.8, 351.0)">s</text><text xml:space="preserve" font-family="Arial-BoldMT" font-weight="bold" font-size="32.0" fill="#000000" transform="matrix(1.00, 0.00, -0.00, -1.00, 506.6, 351.0)">i</text><text xml:space="preserve" font-family="Arial-BoldMT" font-weight="bold" font-size="32.0" fill="#000000" transform="matrix(1.00, 0.00, -0.00, -1.00, 515.5, 351.0)">o</text><text xml:space="preserve" font-family="Arial-BoldMT" font-weight="bold" font-size="32.0" fill="#000000" transform="matrix(1.00, 0.00, -0.00, -1.00, 535.0, 351.0)">n</text><text xml:space="preserve" font-family="Arial-BoldMT" font-weight="bold" font-size="32.0" fill="#000000" transform="matrix(1.00, 0.00, -0.00, -1.00, 554.5, 351.0)"> </text><text xml:space="preserve" font-family="Arial-BoldMT" font-weight="bold" font-size="32.0" fill="#000000" transform="matrix(1.00, 0.00, -0.00, -1.00, 88.0, 317.0)">p</text><text xml:space="preserve" font-family="Arial-BoldMT" font-weight="bold" font-size="32.0" fill="#000000" transform="matrix(1.00, 0.00, -0.00, -1.00, 107.5, 317.0)">r</text><text xml:space="preserve" font-family="Arial-BoldMT" font-weight="bold" font-size="32.0" fill="#000000" transform="matrix(1.00, 0.00, -0.00, -1.00, 120.0, 317.0)">i</text><text xml:space="preserve" font-family="Arial-BoldMT" font-weight="bold" font-size="32.0" fill="#000000" transform="matrix(1.00, 0.00, -0.00, -1.00, 128.9, 317.0)">n</text><text xml:space="preserve" font-family="Arial-BoldMT" font-weight="bold" font-size="32.0" fill="#000000" transform="matrix(1.00, 0.00, -0.00, -1.00, 148.4, 317.0)">c</text><text xml:space="preserve" font-family="Arial-BoldMT" font-weight="bold" font-size="32.0" fill="#000000" transform="matrix(1.00, 0.00, -0.00, -1.00, 166.2, 317.0)">i</text><text xml:space="preserve" font-family="Arial-BoldMT" font-weight="bold" font-size="32.0" fill="#000000" transform="matrix(1.00, 0.00, -0.00, -1.00, 175.1, 317.0)">p</text><text xml:space="preserve" font-family="Arial-BoldMT" font-weight="bold" font-size="32.0" fill="#000000" transform="matrix(1.00, 0.00, -0.00, -1.00, 194.6, 317.0)">l</text><text xml:space="preserve" font-family="Arial-BoldMT" font-weight="bold" font-size="32.0" fill="#000000" transform="matrix(1.00, 0.00, -0.00, -1.00, 203.5, 317.0)">e</text><text xml:space="preserve" font-family="ArialMT" font-size="32.0" fill="#000000" transform="matrix(1.00, 0.00, -0.00, -1.00, 221.4, 317.0)"> </text><text xml:space="preserve" font-family="ArialMT" font-size="32.0" fill="#000000" transform="matrix(1.00, 0.00, -0.00, -1.00, 230.2, 317.0)">s</text><text xml:space="preserve" font-family="ArialMT" font-size="32.0" fill="#000000" transform="matrix(1.00, 0.00, -0.00, -1.00, 246.2, 317.0)">t</text><text xml:space="preserve" font-family="ArialMT" font-size="32.0" fill="#000000" transform="matrix(1.00, 0.00, -0.00, -1.00, 255.1, 317.0)">a</text><text xml:space="preserve" font-family="ArialMT" font-size="32.0" fill="#000000" transform="matrix(1.00, 0.00, -0.00, -1.00, 272.9, 317.0)">t</text><text xml:space="preserve" font-family="ArialMT" font-size="32.0" fill="#000000" transform="matrix(1.00, 0.00, -0.00, -1.00, 281.8, 317.0)">e</text><text xml:space="preserve" font-family="ArialMT" font-size="32.0" fill="#000000" transform="matrix(1.00, 0.00, -0.00, -1.00, 299.6, 317.0)">s</text><text xml:space="preserve" font-family="ArialMT" font-size="32.0" fill="#000000" transform="matrix(1.00, 0.00, -0.00, -1.00, 315.6, 317.0)"> </text><text xml:space="preserve" font-family="ArialMT" font-size="32.0" fill="#000000" transform="matrix(1.00, 0.00, -0.00, -1.00, 324.5, 317.0)">t</text><text xml:space="preserve" font-family="ArialMT" font-size="32.0" fill="#000000" transform="matrix(1.00, 0.00, -0.00, -1.00, 333.4, 317.0)">h</text><text xml:space="preserve" font-family="ArialMT" font-size="32.0" fill="#000000" transform="matrix(1.00, 0.00, -0.00, -1.00, 351.2, 317.0)">a</text><text xml:space="preserve" font-family="ArialMT" font-size="32.0" fill="#000000" transform="matrix(1.00, 0.00, -0.00, -1.00, 369.0, 317.0)">t</text><text xml:space="preserve" font-family="ArialMT" font-size="32.0" fill="#000000" transform="matrix(1.00, 0.00, -0.00, -1.00, 377.9, 317.0)"> </text><text xml:space="preserve" font-family="ArialMT" font-size="32.0" fill="#000000" transform="matrix(1.00, 0.00, -0.00, -1.00, 386.8, 317.0)">t</text><text xml:space="preserve" font-family="ArialMT" font-size="32.0" fill="#000000" transform="matrix(1.00, 0.00, -0.00, -1.00, 395.6, 317.0)">w</text><text xml:space="preserve" font-family="ArialMT" font-size="32.0" fill="#000000" transform="matrix(1.00, 0.00, -0.00, -1.00, 418.8, 317.0)">o</text><text xml:space="preserve" font-family="ArialMT" font-size="32.0" fill="#000000" transform="matrix(1.00, 0.00, -0.00, -1.00, 436.6, 317.0)"> </text><text xml:space="preserve" font-family="ArialMT" font-size="32.0" fill="#000000" transform="matrix(1.00, 0.00, -0.00, -1.00, 445.4, 317.0)">s</text><text xml:space="preserve" font-family="ArialMT" font-size="32.0" fill="#000000" transform="matrix(1.00, 0.00, -0.00, -1.00, 461.4, 317.0)">p</text><text xml:space="preserve" font-family="ArialMT" font-size="32.0" fill="#000000" transform="matrix(1.00, 0.00, -0.00, -1.00, 479.3, 317.0)">e</text><text xml:space="preserve" font-family="ArialMT" font-size="32.0" fill="#000000" transform="matrix(1.00, 0.00, -0.00, -1.00, 497.1, 317.0)">c</text><text xml:space="preserve" font-family="ArialMT" font-size="32.0" fill="#000000" transform="matrix(1.00, 0.00, -0.00, -1.00, 513.1, 317.0)">i</text><text xml:space="preserve" font-family="ArialMT" font-size="32.0" fill="#000000" transform="matrix(1.00, 0.00, -0.00, -1.00, 520.2, 317.0)">e</text><text xml:space="preserve" font-family="ArialMT" font-size="32.0" fill="#000000" transform="matrix(1.00, 0.00, -0.00, -1.00, 538.0, 317.0)">s</text><text xml:space="preserve" font-family="ArialMT" font-size="32.0" fill="#000000" transform="matrix(1.00, 0.00, -0.00, -1.00, 554.0, 317.0)"> </text><text xml:space="preserve" font-family="ArialMT" font-size="32.0" fill="#000000" transform="matrix(1.00, 0.00, -0.00, -1.00, 88.0, 284.0)">c</text><text xml:space="preserve" font-family="ArialMT" font-size="32.0" fill="#000000" transform="matrix(1.00, 0.00, -0.00, -1.00, 104.0, 284.0)">o</text><text xml:space="preserve" font-family="ArialMT" font-size="32.0" fill="#000000" transform="matrix(1.00, 0.00, -0.00, -1.00, 121.8, 284.0)">m</text><text xml:space="preserve" font-family="ArialMT" font-size="32.0" fill="#000000" transform="matrix(1.00, 0.00, -0.00, -1.00, 148.5, 284.0)">p</text><text xml:space="preserve" font-family="ArialMT" font-size="32.0" fill="#000000" transform="matrix(1.00, 0.00, -0.00, -1.00, 166.3, 284.0)">e</text><text xml:space="preserve" font-family="ArialMT" font-size="32.0" fill="#000000" transform="matrix(1.00, 0.00, -0.00, -1.00, 184.1, 284.0)">t</text><text xml:space="preserve" font-family="ArialMT" font-size="32.0" fill="#000000" transform="matrix(1.00, 0.00, -0.00, -1.00, 193.0, 284.0)">i</text><text xml:space="preserve" font-family="ArialMT" font-size="32.0" fill="#000000" transform="matrix(1.00, 0.00, -0.00, -1.00, 200.1, 284.0)">n</text><text xml:space="preserve" font-family="ArialMT" font-size="32.0" fill="#000000" transform="matrix(1.00, 0.00, -0.00, -1.00, 217.9, 284.0)">g</text><text xml:space="preserve" font-family="ArialMT" font-size="32.0" fill="#000000" transform="matrix(1.00, 0.00, -0.00, -1.00, 235.7, 284.0)"> </text><text xml:space="preserve" font-family="ArialMT" font-size="32.0" fill="#000000" transform="matrix(1.00, 0.00, -0.00, -1.00, 244.6, 284.0)">f</text><text xml:space="preserve" font-family="ArialMT" font-size="32.0" fill="#000000" transform="matrix(1.00, 0.00, -0.00, -1.00, 253.4, 284.0)">o</text><text xml:space="preserve" font-family="ArialMT" font-size="32.0" fill="#000000" transform="matrix(1.00, 0.00, -0.00, -1.00, 271.2, 284.0)">r</text><text xml:space="preserve" font-family="ArialMT" font-size="32.0" fill="#000000" transform="matrix(1.00, 0.00, -0.00, -1.00, 281.9, 284.0)"> </text><text xml:space="preserve" font-family="ArialMT" font-size="32.0" fill="#000000" transform="matrix(1.00, 0.00, -0.00, -1.00, 290.8, 284.0)">e</text><text xml:space="preserve" font-family="ArialMT" font-size="32.0" fill="#000000" transform="matrix(1.00, 0.00, -0.00, -1.00, 308.6, 284.0)">x</text><text xml:space="preserve" font-family="ArialMT" font-size="32.0" fill="#000000" transform="matrix(1.00, 0.00, -0.00, -1.00, 324.6, 284.0)">a</text><text xml:space="preserve" font-family="ArialMT" font-size="32.0" fill="#000000" transform="matrix(1.00, 0.00, -0.00, -1.00, 342.4, 284.0)">c</text><text xml:space="preserve" font-family="ArialMT" font-size="32.0" fill="#000000" transform="matrix(1.00, 0.00, -0.00, -1.00, 358.4, 284.0)">t</text><text xml:space="preserve" font-family="ArialMT" font-size="32.0" fill="#000000" transform="matrix(1.00, 0.00, -0.00, -1.00, 367.3, 284.0)">l</text><text xml:space="preserve" font-family="ArialMT" font-size="32.0" fill="#000000" transform="matrix(1.00, 0.00, -0.00, -1.00, 374.4, 284.0)">y</text><text xml:space="preserve" font-family="ArialMT" font-size="32.0" fill="#000000" transform="matrix(1.00, 0.00, -0.00, -1.00, 390.4, 284.0)"> </text><text xml:space="preserve" font-family="ArialMT" font-size="32.0" fill="#000000" transform="matrix(1.00, 0.00, -0.00, -1.00, 399.3, 284.0)">t</text><text xml:space="preserve" font-family="ArialMT" font-size="32.0" fill="#000000" transform="matrix(1.00, 0.00, -0.00, -1.00, 408.2, 284.0)">h</text><text xml:space="preserve" font-family="ArialMT" font-size="32.0" fill="#000000" transform="matrix(1.00, 0.00, -0.00, -1.00, 426.0, 284.0)">e</text><text xml:space="preserve" font-family="ArialMT" font-size="32.0" fill="#000000" transform="matrix(1.00, 0.00, -0.00, -1.00, 443.8, 284.0)"> </text><text xml:space="preserve" font-family="ArialMT" font-size="32.0" fill="#000000" transform="matrix(1.00, 0.00, -0.00, -1.00, 452.7, 284.0)">s</text><text xml:space="preserve" font-family="ArialMT" font-size="32.0" fill="#000000" transform="matrix(1.00, 0.00, -0.00, -1.00, 468.7, 284.0)">a</text><text xml:space="preserve" font-family="ArialMT" font-size="32.0" fill="#000000" transform="matrix(1.00, 0.00, -0.00, -1.00, 486.5, 284.0)">m</text><text xml:space="preserve" font-family="ArialMT" font-size="32.0" fill="#000000" transform="matrix(1.00, 0.00, -0.00, -1.00, 513.1, 284.0)">e</text><text xml:space="preserve" font-family="ArialMT" font-size="32.0" fill="#000000" transform="matrix(1.00, 0.00, -0.00, -1.00, 530.9, 284.0)"> </text><text xml:space="preserve" font-family="ArialMT" font-size="32.0" fill="#000000" transform="matrix(1.00, 0.00, -0.00, -1.00, 88.0, 251.0)">r</text><text xml:space="preserve" font-family="ArialMT" font-size="32.0" fill="#000000" transform="matrix(1.00, 0.00, -0.00, -1.00, 98.7, 251.0)">e</text><text xml:space="preserve" font-family="ArialMT" font-size="32.0" fill="#000000" transform="matrix(1.00, 0.00, -0.00, -1.00, 116.5, 251.0)">s</text><text xml:space="preserve" font-family="ArialMT" font-size="32.0" fill="#000000" transform="matrix(1.00, 0.00, -0.00, -1.00, 132.5, 251.0)">o</text><text xml:space="preserve" font-family="ArialMT" font-size="32.0" fill="#000000" transform="matrix(1.00, 0.00, -0.00, -1.00, 150.3, 251.0)">u</text><text xml:space="preserve" font-family="ArialMT" font-size="32.0" fill="#000000" transform="matrix(1.00, 0.00, -0.00, -1.00, 168.1, 251.0)">r</text><text xml:space="preserve" font-family="ArialMT" font-size="32.0" fill="#000000" transform="matrix(1.00, 0.00, -0.00, -1.00, 178.7, 251.0)">c</text><text xml:space="preserve" font-family="ArialMT" font-size="32.0" fill="#000000" transform="matrix(1.00, 0.00, -0.00, -1.00, 194.7, 251.0)">e</text><text xml:space="preserve" font-family="ArialMT" font-size="32.0" fill="#000000" transform="matrix(1.00, 0.00, -0.00, -1.00, 212.5, 251.0)">s</text><text xml:space="preserve" font-family="ArialMT" font-size="32.0" fill="#000000" transform="matrix(1.00, 0.00, -0.00, -1.00, 228.5, 251.0)"> </text><text xml:space="preserve" font-family="ArialMT" font-size="32.0" fill="#000000" transform="matrix(1.00, 0.00, -0.00, -1.00, 237.4, 251.0)">c</text><text xml:space="preserve" font-family="ArialMT" font-size="32.0" fill="#000000" transform="matrix(1.00, 0.00, -0.00, -1.00, 253.4, 251.0)">a</text><text xml:space="preserve" font-family="ArialMT" font-size="32.0" fill="#000000" transform="matrix(1.00, 0.00, -0.00, -1.00, 271.2, 251.0)">n</text><text xml:space="preserve" font-family="ArialMT" font-size="32.0" fill="#000000" transform="matrix(1.00, 0.00, -0.00, -1.00, 289.0, 251.0)">n</text><text xml:space="preserve" font-family="ArialMT" font-size="32.0" fill="#000000" transform="matrix(1.00, 0.00, -0.00, -1.00, 306.8, 251.0)">o</text><text xml:space="preserve" font-family="ArialMT" font-size="32.0" fill="#000000" transform="matrix(1.00, 0.00, -0.00, -1.00, 324.6, 251.0)">t</text><text xml:space="preserve" font-family="ArialMT" font-size="32.0" fill="#000000" transform="matrix(1.00, 0.00, -0.00, -1.00, 333.5, 251.0)"> </text><text xml:space="preserve" font-family="ArialMT" font-size="32.0" fill="#000000" transform="matrix(1.00, 0.00, -0.00, -1.00, 342.4, 251.0)">c</text><text xml:space="preserve" font-family="ArialMT" font-size="32.0" fill="#000000" transform="matrix(1.00, 0.00, -0.00, -1.00, 358.4, 251.0)">o</text><text xml:space="preserve" font-family="ArialMT" font-size="32.0" fill="#000000" transform="matrix(1.00, 0.00, -0.00, -1.00, 376.2, 251.0)">e</text><text xml:space="preserve" font-family="ArialMT" font-size="32.0" fill="#000000" transform="matrix(1.00, 0.00, -0.00, -1.00, 394.0, 251.0)">x</text><text xml:space="preserve" font-family="ArialMT" font-size="32.0" fill="#000000" transform="matrix(1.00, 0.00, -0.00, -1.00, 410.0, 251.0)">i</text><text xml:space="preserve" font-family="ArialMT" font-size="32.0" fill="#000000" transform="matrix(1.00, 0.00, -0.00, -1.00, 417.1, 251.0)">s</text><text xml:space="preserve" font-family="ArialMT" font-size="32.0" fill="#000000" transform="matrix(1.00, 0.00, -0.00, -1.00, 433.1, 251.0)">t</text><text xml:space="preserve" font-family="ArialMT" font-size="32.0" fill="#000000" transform="matrix(1.00, 0.00, -0.00, -1.00, 442.0, 251.0)"> </text><text xml:space="preserve" font-family="ArialMT" font-size="32.0" fill="#000000" transform="matrix(1.00, 0.00, -0.00, -1.00, 61.2, 209.8)">•</text><text xml:space="preserve" font-family="ArialMT" font-size="32.0" fill="#000000" transform="matrix(1.00, 0.00, -0.00, -1.00, 88.0, 210.0)">T</text><text xml:space="preserve" font-family="ArialMT" font-size="32.0" fill="#000000" transform="matrix(1.00, 0.00, -0.00, -1.00, 105.8, 210.0)">w</text><text xml:space="preserve" font-family="ArialMT" font-size="32.0" fill="#000000" transform="matrix(1.00, 0.00, -0.00, -1.00, 128.9, 210.0)">o</text><text xml:space="preserve" font-family="ArialMT" font-size="32.0" fill="#000000" transform="matrix(1.00, 0.00, -0.00, -1.00, 146.7, 210.0)"> </text><text xml:space="preserve" font-family="ArialMT" font-size="32.0" fill="#000000" transform="matrix(1.00, 0.00, -0.00, -1.00, 155.6, 210.0)">s</text><text xml:space="preserve" font-family="ArialMT" font-size="32.0" fill="#000000" transform="matrix(1.00, 0.00, -0.00, -1.00, 171.6, 210.0)">p</text><text xml:space="preserve" font-family="ArialMT" font-size="32.0" fill="#000000" transform="matrix(1.00, 0.00, -0.00, -1.00, 189.4, 210.0)">e</text><text xml:space="preserve" font-family="ArialMT" font-size="32.0" fill="#000000" transform="matrix(1.00, 0.00, -0.00, -1.00, 207.2, 210.0)">c</text><text xml:space="preserve" font-family="ArialMT" font-size="32.0" fill="#000000" transform="matrix(1.00, 0.00, -0.00, -1.00, 223.2, 210.0)">i</text><text xml:space="preserve" font-family="ArialMT" font-size="32.0" fill="#000000" transform="matrix(1.00, 0.00, -0.00, -1.00, 230.3, 210.0)">e</text><text xml:space="preserve" font-family="ArialMT" font-size="32.0" fill="#000000" transform="matrix(1.00, 0.00, -0.00, -1.00, 248.1, 210.0)">s</text><text xml:space="preserve" font-family="ArialMT" font-size="32.0" fill="#000000" transform="matrix(1.00, 0.00, -0.00, -1.00, 264.1, 210.0)"> </text><text xml:space="preserve" font-family="ArialMT" font-size="32.0" fill="#000000" transform="matrix(1.00, 0.00, -0.00, -1.00, 273.0, 210.0)">i</text><text xml:space="preserve" font-family="ArialMT" font-size="32.0" fill="#000000" transform="matrix(1.00, 0.00, -0.00, -1.00, 280.1, 210.0)">n</text><text xml:space="preserve" font-family="ArialMT" font-size="32.0" fill="#000000" transform="matrix(1.00, 0.00, -0.00, -1.00, 297.9, 210.0)"> </text><text xml:space="preserve" font-family="ArialMT" font-size="32.0" fill="#000000" transform="matrix(1.00, 0.00, -0.00, -1.00, 306.8, 210.0)">t</text><text xml:space="preserve" font-family="ArialMT" font-size="32.0" fill="#000000" transform="matrix(1.00, 0.00, -0.00, -1.00, 315.7, 210.0)">h</text><text xml:space="preserve" font-family="ArialMT" font-size="32.0" fill="#000000" transform="matrix(1.00, 0.00, -0.00, -1.00, 333.5, 210.0)">e</text><text xml:space="preserve" font-family="ArialMT" font-size="32.0" fill="#000000" transform="matrix(1.00, 0.00, -0.00, -1.00, 351.3, 210.0)"> </text><text xml:space="preserve" font-family="ArialMT" font-size="32.0" fill="#000000" transform="matrix(1.00, 0.00, -0.00, -1.00, 360.2, 210.0)">s</text><text xml:space="preserve" font-family="ArialMT" font-size="32.0" fill="#000000" transform="matrix(1.00, 0.00, -0.00, -1.00, 376.2, 210.0)">a</text><text xml:space="preserve" font-family="ArialMT" font-size="32.0" fill="#000000" transform="matrix(1.00, 0.00, -0.00, -1.00, 394.0, 210.0)">m</text><text xml:space="preserve" font-family="ArialMT" font-size="32.0" fill="#000000" transform="matrix(1.00, 0.00, -0.00, -1.00, 420.6, 210.0)">e</text><text xml:space="preserve" font-family="ArialMT" font-size="32.0" fill="#000000" transform="matrix(1.00, 0.00, -0.00, -1.00, 438.4, 210.0)"> </text><text xml:space="preserve" font-family="ArialMT" font-size="32.0" fill="#000000" transform="matrix(1.00, 0.00, -0.00, -1.00, 447.3, 210.0)">p</text><text xml:space="preserve" font-family="ArialMT" font-size="32.0" fill="#000000" transform="matrix(1.00, 0.00, -0.00, -1.00, 465.1, 210.0)">l</text><text xml:space="preserve" font-family="ArialMT" font-size="32.0" fill="#000000" transform="matrix(1.00, 0.00, -0.00, -1.00, 472.2, 210.0)">a</text><text xml:space="preserve" font-family="ArialMT" font-size="32.0" fill="#000000" transform="matrix(1.00, 0.00, -0.00, -1.00, 490.0, 210.0)">c</text><text xml:space="preserve" font-family="ArialMT" font-size="32.0" fill="#000000" transform="matrix(1.00, 0.00, -0.00, -1.00, 506.0, 210.0)">e</text><text xml:space="preserve" font-family="ArialMT" font-size="32.0" fill="#000000" transform="matrix(1.00, 0.00, -0.00, -1.00, 523.8, 210.0)"> </text><text xml:space="preserve" font-family="ArialMT" font-size="32.0" fill="#000000" transform="matrix(1.00, 0.00, -0.00, -1.00, 532.7, 210.0)">c</text><text xml:space="preserve" font-family="ArialMT" font-size="32.0" fill="#000000" transform="matrix(1.00, 0.00, -0.00, -1.00, 548.7, 210.0)">a</text><text xml:space="preserve" font-family="ArialMT" font-size="32.0" fill="#000000" transform="matrix(1.00, 0.00, -0.00, -1.00, 566.5, 210.0)">n</text><text xml:space="preserve" font-family="ArialMT" font-size="32.0" fill="#000000" transform="matrix(1.00, 0.00, -0.00, -1.00, 584.3, 210.0)">n</text><text xml:space="preserve" font-family="ArialMT" font-size="32.0" fill="#000000" transform="matrix(1.00, 0.00, -0.00, -1.00, 602.1, 210.0)">o</text><text xml:space="preserve" font-family="ArialMT" font-size="32.0" fill="#000000" transform="matrix(1.00, 0.00, -0.00, -1.00, 619.9, 210.0)">t</text><text xml:space="preserve" font-family="ArialMT" font-size="32.0" fill="#000000" transform="matrix(1.00, 0.00, -0.00, -1.00, 628.8, 210.0)"> </text><text xml:space="preserve" font-family="ArialMT" font-size="32.0" fill="#000000" transform="matrix(1.00, 0.00, -0.00, -1.00, 88.0, 176.0)">h</text><text xml:space="preserve" font-family="ArialMT" font-size="32.0" fill="#000000" transform="matrix(1.00, 0.00, -0.00, -1.00, 105.8, 176.0)">a</text><text xml:space="preserve" font-family="ArialMT" font-size="32.0" fill="#000000" transform="matrix(1.00, 0.00, -0.00, -1.00, 123.6, 176.0)">v</text><text xml:space="preserve" font-family="ArialMT" font-size="32.0" fill="#000000" transform="matrix(1.00, 0.00, -0.00, -1.00, 139.6, 176.0)">e</text><text xml:space="preserve" font-family="ArialMT" font-size="32.0" fill="#000000" transform="matrix(1.00, 0.00, -0.00, -1.00, 157.4, 176.0)"> </text><text xml:space="preserve" font-family="ArialMT" font-size="32.0" fill="#000000" transform="matrix(1.00, 0.00, -0.00, -1.00, 166.3, 176.0)">t</text><text xml:space="preserve" font-family="ArialMT" font-size="32.0" fill="#000000" transform="matrix(1.00, 0.00, -0.00, -1.00, 175.2, 176.0)">h</text><text xml:space="preserve" font-family="ArialMT" font-size="32.0" fill="#000000" transform="matrix(1.00, 0.00, -0.00, -1.00, 193.0, 176.0)">e</text><text xml:space="preserve" font-family="ArialMT" font-size="32.0" fill="#000000" transform="matrix(1.00, 0.00, -0.00, -1.00, 210.8, 176.0)"> </text><text xml:space="preserve" font-family="ArialMT" font-size="32.0" fill="#000000" transform="matrix(1.00, 0.00, -0.00, -1.00, 219.7, 176.0)">s</text><text xml:space="preserve" font-family="ArialMT" font-size="32.0" fill="#000000" transform="matrix(1.00, 0.00, -0.00, -1.00, 235.7, 176.0)">a</text><text xml:space="preserve" font-family="ArialMT" font-size="32.0" fill="#000000" transform="matrix(1.00, 0.00, -0.00, -1.00, 253.5, 176.0)">m</text><text xml:space="preserve" font-family="ArialMT" font-size="32.0" fill="#000000" transform="matrix(1.00, 0.00, -0.00, -1.00, 280.1, 176.0)">e</text><text xml:space="preserve" font-family="ArialMT" font-size="32.0" fill="#000000" transform="matrix(1.00, 0.00, -0.00, -1.00, 297.9, 176.0)"> </text><text xml:space="preserve" font-family="ArialMT" font-size="32.0" fill="#000000" transform="matrix(1.00, 0.00, -0.00, -1.00, 306.8, 176.0)">n</text><text xml:space="preserve" font-family="ArialMT" font-size="32.0" fill="#000000" transform="matrix(1.00, 0.00, -0.00, -1.00, 324.6, 176.0)">i</text><text xml:space="preserve" font-family="ArialMT" font-size="32.0" fill="#000000" transform="matrix(1.00, 0.00, -0.00, -1.00, 331.7, 176.0)">c</text><text xml:space="preserve" font-family="ArialMT" font-size="32.0" fill="#000000" transform="matrix(1.00, 0.00, -0.00, -1.00, 347.7, 176.0)">h</text><text xml:space="preserve" font-family="ArialMT" font-size="32.0" fill="#000000" transform="matrix(1.00, 0.00, -0.00, -1.00, 365.5, 176.0)">e</text><text xml:space="preserve" font-family="ArialMT" font-size="32.0" fill="#000000" transform="matrix(1.00, 0.00, -0.00, -1.00, 383.3, 176.0)"> </text><text xml:space="preserve" font-family="ArialMT" font-size="32.0" fill="#000000" transform="matrix(1.00, 0.00, -0.00, -1.00, 61.2, 135.6)">•</text><text xml:space="preserve" font-family="ArialMT" font-size="32.0" fill="#000000" transform="matrix(1.00, 0.00, -0.00, -1.00, 88.0, 136.0)">O</text><text xml:space="preserve" font-family="ArialMT" font-size="32.0" fill="#000000" transform="matrix(1.00, 0.00, -0.00, -1.00, 112.9, 136.0)">n</text><text xml:space="preserve" font-family="ArialMT" font-size="32.0" fill="#000000" transform="matrix(1.00, 0.00, -0.00, -1.00, 130.7, 136.0)">e</text><text xml:space="preserve" font-family="ArialMT" font-size="32.0" fill="#000000" transform="matrix(1.00, 0.00, -0.00, -1.00, 148.5, 136.0)"> </text><text xml:space="preserve" font-family="ArialMT" font-size="32.0" fill="#000000" transform="matrix(1.00, 0.00, -0.00, -1.00, 157.4, 136.0)">w</text><text xml:space="preserve" font-family="ArialMT" font-size="32.0" fill="#000000" transform="matrix(1.00, 0.00, -0.00, -1.00, 180.5, 136.0)">i</text><text xml:space="preserve" font-family="ArialMT" font-size="32.0" fill="#000000" transform="matrix(1.00, 0.00, -0.00, -1.00, 187.6, 136.0)">l</text><text xml:space="preserve" font-family="ArialMT" font-size="32.0" fill="#000000" transform="matrix(1.00, 0.00, -0.00, -1.00, 194.7, 136.0)">l</text><text xml:space="preserve" font-family="ArialMT" font-size="32.0" fill="#000000" transform="matrix(1.00, 0.00, -0.00, -1.00, 201.8, 136.0)"> </text><text xml:space="preserve" font-family="ArialMT" font-size="32.0" fill="#000000" transform="matrix(1.00, 0.00, -0.00, -1.00, 210.7, 136.0)">e</text><text xml:space="preserve" font-family="ArialMT" font-size="32.0" fill="#000000" transform="matrix(1.00, 0.00, -0.00, -1.00, 228.5, 136.0)">v</text><text xml:space="preserve" font-family="ArialMT" font-size="32.0" fill="#000000" transform="matrix(1.00, 0.00, -0.00, -1.00, 244.5, 136.0)">e</text><text xml:space="preserve" font-family="ArialMT" font-size="32.0" fill="#000000" transform="matrix(1.00, 0.00, -0.00, -1.00, 262.3, 136.0)">n</text><text xml:space="preserve" font-family="ArialMT" font-size="32.0" fill="#000000" transform="matrix(1.00, 0.00, -0.00, -1.00, 280.1, 136.0)">t</text><text xml:space="preserve" font-family="ArialMT" font-size="32.0" fill="#000000" transform="matrix(1.00, 0.00, -0.00, -1.00, 289.0, 136.0)">u</text><text xml:space="preserve" font-family="ArialMT" font-size="32.0" fill="#000000" transform="matrix(1.00, 0.00, -0.00, -1.00, 306.8, 136.0)">a</text><text xml:space="preserve" font-family="ArialMT" font-size="32.0" fill="#000000" transform="matrix(1.00, 0.00, -0.00, -1.00, 324.6, 136.0)">l</text><text xml:space="preserve" font-family="ArialMT" font-size="32.0" fill="#000000" transform="matrix(1.00, 0.00, -0.00, -1.00, 331.7, 136.0)">l</text><text xml:space="preserve" font-family="ArialMT" font-size="32.0" fill="#000000" transform="matrix(1.00, 0.00, -0.00, -1.00, 338.9, 136.0)">y</text><text xml:space="preserve" font-family="ArialMT" font-size="32.0" fill="#000000" transform="matrix(1.00, 0.00, -0.00, -1.00, 354.9, 136.0)"> </text><text xml:space="preserve" font-family="ArialMT" font-size="32.0" fill="#000000" transform="matrix(1.00, 0.00, -0.00, -1.00, 363.7, 136.0)">o</text><text xml:space="preserve" font-family="ArialMT" font-size="32.0" fill="#000000" transform="matrix(1.00, 0.00, -0.00, -1.00, 381.5, 136.0)">u</text><text xml:space="preserve" font-family="ArialMT" font-size="32.0" fill="#000000" transform="matrix(1.00, 0.00, -0.00, -1.00, 399.3, 136.0)">t</text><text xml:space="preserve" font-family="ArialMT" font-size="32.0" fill="#000000" transform="matrix(1.00, 0.00, -0.00, -1.00, 408.2, 136.0)">c</text><text xml:space="preserve" font-family="ArialMT" font-size="32.0" fill="#000000" transform="matrix(1.00, 0.00, -0.00, -1.00, 424.2, 136.0)">o</text><text xml:space="preserve" font-family="ArialMT" font-size="32.0" fill="#000000" transform="matrix(1.00, 0.00, -0.00, -1.00, 442.0, 136.0)">m</text><text xml:space="preserve" font-family="ArialMT" font-size="32.0" fill="#000000" transform="matrix(1.00, 0.00, -0.00, -1.00, 468.7, 136.0)">p</text><text xml:space="preserve" font-family="ArialMT" font-size="32.0" fill="#000000" transform="matrix(1.00, 0.00, -0.00, -1.00, 486.5, 136.0)">e</text><text xml:space="preserve" font-family="ArialMT" font-size="32.0" fill="#000000" transform="matrix(1.00, 0.00, -0.00, -1.00, 504.3, 136.0)">t</text><text xml:space="preserve" font-family="ArialMT" font-size="32.0" fill="#000000" transform="matrix(1.00, 0.00, -0.00, -1.00, 513.2, 136.0)">e</text><text xml:space="preserve" font-family="ArialMT" font-size="32.0" fill="#000000" transform="matrix(1.00, 0.00, -0.00, -1.00, 531.0, 136.0)"> </text><text xml:space="preserve" font-family="ArialMT" font-size="32.0" fill="#000000" transform="matrix(1.00, 0.00, -0.00, -1.00, 539.9, 136.0)">t</text><text xml:space="preserve" font-family="ArialMT" font-size="32.0" fill="#000000" transform="matrix(1.00, 0.00, -0.00, -1.00, 548.8, 136.0)">h</text><text xml:space="preserve" font-family="ArialMT" font-size="32.0" fill="#000000" transform="matrix(1.00, 0.00, -0.00, -1.00, 566.6, 136.0)">e</text><text xml:space="preserve" font-family="ArialMT" font-size="32.0" fill="#000000" transform="matrix(1.00, 0.00, -0.00, -1.00, 584.4, 136.0)"> </text><text xml:space="preserve" font-family="ArialMT" font-size="32.0" fill="#000000" transform="matrix(1.00, 0.00, -0.00, -1.00, 88.0, 102.0)">o</text><text xml:space="preserve" font-family="ArialMT" font-size="32.0" fill="#000000" transform="matrix(1.00, 0.00, -0.00, -1.00, 105.8, 102.0)">t</text><text xml:space="preserve" font-family="ArialMT" font-size="32.0" fill="#000000" transform="matrix(1.00, 0.00, -0.00, -1.00, 114.7, 102.0)">h</text><text xml:space="preserve" font-family="ArialMT" font-size="32.0" fill="#000000" transform="matrix(1.00, 0.00, -0.00, -1.00, 132.5, 102.0)">e</text><text xml:space="preserve" font-family="ArialMT" font-size="32.0" fill="#000000" transform="matrix(1.00, 0.00, -0.00, -1.00, 150.3, 102.0)">r</text></g></svg>