<?xml version="1.0" encoding="UTF-8" standalone="no"?><svg xmlns="http://www.w3.org/2000/svg" xmlns:xlink="http://www.w3.org/1999/xlink" clip-rule="evenodd" stroke-miterlimit="10" viewBox="0 0 720 540"><desc>SVG generated by Keynote</desc><defs></defs><g transform="matrix(1.00, 0.00, -0.00, -1.00, 0.0, 540.0)"><path d="M 0.0 540.0 L 720.0 540.0 L 720.0 0.0 L 0.0 0.0 Z M 0.0 540.0 " fill="#FEFFFF"></path><image xlink:href="../../0983FBAA-73BA-44C7-A5F1-83F1279ED68E/assets/1BD99046FBAB026206F5D9386D659428.png" width="720.00" height="995.00" transform="matrix(0.53, 0.00, -0.00, -0.53, 168.0, 536.0)"></image><text xml:space="preserve" font-family="GillSans,Gill Sans" font-size="14.0" fill="#000000" transform="matrix(1.00, 0.00, -0.00, -1.00, 610.2, 9.2)">C</text><text xml:space="preserve" font-family="GillSans,Gill Sans" font-size="14.0" fill="#000000" transform="matrix(1.00, 0.00, -0.00, -1.00, 620.1, 9.2)">o</text><text xml:space="preserve" font-family="GillSans,Gill Sans" font-size="14.0" fill="#000000" transform="matrix(1.00, 0.00, -0.00, -1.00, 627.8, 9.2)">a</text><text xml:space="preserve" font-family="GillSans,Gill Sans" font-size="14.0" fill="#000000" transform="matrix(1.00, 0.00, -0.00, -1.00, 633.8, 9.2)">t</text><text xml:space="preserve" font-family="GillSans,Gill Sans" font-size="14.0" fill="#000000" transform="matrix(1.00, 0.00, -0.00, -1.00, 638.4, 9.2)">e</text><text xml:space="preserve" font-family="GillSans,Gill Sans" font-size="14.0" fill="#000000" transform="matrix(1.00, 0.00, -0.00, -1.00, 645.1, 9.2)">s</text><text xml:space="preserve" font-family="GillSans,Gill Sans" font-size="14.0" fill="#000000" transform="matrix(1.00, 0.00, -0.00, -1.00, 650.5, 9.2)"> </text><text xml:space="preserve" font-family="GillSans,Gill Sans" font-size="14.0" fill="#000000" transform="matrix(1.00, 0.00, -0.00, -1.00, 654.4, 9.2)">e</text><text xml:space="preserve" font-family="GillSans,Gill Sans" font-size="14.0" fill="#000000" transform="matrix(1.00, 0.00, -0.00, -1.00, 661.1, 9.2)">t</text><text xml:space="preserve" font-family="GillSans,Gill Sans" font-size="14.0" fill="#000000" transform="matrix(1.00, 0.00, -0.00, -1.00, 665.8, 9.2)"> </text><text xml:space="preserve" font-family="GillSans,Gill Sans" font-size="14.0" fill="#000000" transform="matrix(1.00, 0.00, -0.00, -1.00, 669.7, 9.2)">a</text><text xml:space="preserve" font-family="GillSans,Gill Sans" font-size="14.0" fill="#000000" transform="matrix(1.00, 0.00, -0.00, -1.00, 675.6, 9.2)">l</text><text xml:space="preserve" font-family="GillSans,Gill Sans" font-size="14.0" fill="#000000" transform="matrix(1.00, 0.00, -0.00, -1.00, 678.7, 9.2)">.</text><text xml:space="preserve" font-family="GillSans,Gill Sans" font-size="14.0" fill="#000000" transform="matrix(1.00, 0.00, -0.00, -1.00, 680.4, 9.2)"> </text><text xml:space="preserve" font-family="GillSans,Gill Sans" font-size="14.0" fill="#000000" transform="matrix(1.00, 0.00, -0.00, -1.00, 684.3, 9.2)">2</text><text xml:space="preserve" font-family="GillSans,Gill Sans" font-size="14.0" fill="#000000" transform="matrix(1.00, 0.00, -0.00, -1.00, 691.3, 9.2)">0</text><text xml:space="preserve" font-family="GillSans,Gill Sans" font-size="14.0" fill="#000000" transform="matrix(1.00, 0.00, -0.00, -1.00, 698.3, 9.2)">0</text><text xml:space="preserve" font-family="GillSans,Gill Sans" font-size="14.0" fill="#000000" transform="matrix(1.00, 0.00, -0.00, -1.00, 705.3, 9.2)">8</text><g><clipPath id="clip0x608001ca3780"><path d="M 529.0 171.4 L 614.7 171.4 L 614.7 186.6 L 529.0 186.6 Z M 529.0 171.4 "></path></clipPath><g clip-path="url(#clip0x608001ca3780)"><path d="M 8.0 0.5 L 9.9 0.5 L 84.0 0.5 " fill="none" stroke="#FF4013" stroke-width="3.00" transform="matrix(1.00, 0.00, 0.00, -1.00, 530.0, 179.0)"></path><path d="M 542.8 185.1 L 529.6 178.5 L 542.8 171.9 L 539.5 178.5 Z M 542.8 185.1 " fill="#FF4013"></path></g></g><g><clipPath id="clip0x608001ca3a80"><path d="M 423.0 40.4 L 623.1 40.4 L 623.1 55.6 L 423.0 55.6 Z M 423.0 40.4 "></path></clipPath><g clip-path="url(#clip0x608001ca3a80)"><path d="M 8.0 0.5 L 9.9 0.5 L 198.0 0.5 " fill="none" stroke="#FF4013" stroke-width="3.00" transform="matrix(1.00, 0.00, 0.00, -1.00, 424.0, 48.0)"></path><path d="M 436.8 54.1 L 423.6 47.5 L 436.8 40.9 L 433.5 47.5 Z M 436.8 54.1 " fill="#FF4013"></path></g></g><g><clipPath id="clip0x608001ca3d80"><path d="M 414.5 77.0 L 414.5 10.9 L 409.5 10.9 L 409.5 77.0 Z M 414.5 77.0 "></path></clipPath><g clip-path="url(#clip0x608001ca3d80)"><path d="M -0.0 -0.5 L 64.0 -0.5 " fill="none" stroke="#FF4013" stroke-width="3.00" transform="matrix(0.00, -1.00, -1.00, 0.00, 412.0, 76.0)"></path></g></g></g></svg>