<?xml version="1.0" encoding="UTF-8" standalone="no"?><svg xmlns="http://www.w3.org/2000/svg" xmlns:xlink="http://www.w3.org/1999/xlink" clip-rule="evenodd" stroke-miterlimit="10" viewBox="0 0 1024 768"><desc>SVG generated by Keynote</desc><defs></defs><g transform="matrix(1.00, 0.00, -0.00, -1.00, 0.0, 768.0)"><path d="M 0.0 768.0 L 1024.0 768.0 L 1024.0 0.0 L 0.0 0.0 Z M 0.0 768.0 " fill="#FEFFFF"></path><text xml:space="preserve" font-family="GillSans,Gill Sans" font-size="84.0" fill="#000000" transform="matrix(1.00, 0.00, -0.00, -1.00, 276.3, 623.4)">K</text><text xml:space="preserve" font-family="GillSans,Gill Sans" font-size="84.0" fill="#000000" transform="matrix(1.00, 0.00, -0.00, -1.00, 331.4, 623.4)">l</text><text xml:space="preserve" font-family="GillSans,Gill Sans" font-size="84.0" fill="#000000" transform="matrix(1.00, 0.00, -0.00, -1.00, 349.8, 623.4)">e</text><text xml:space="preserve" font-family="GillSans,Gill Sans" font-size="84.0" fill="#000000" transform="matrix(1.00, 0.00, -0.00, -1.00, 390.0, 623.4)">p</text><text xml:space="preserve" font-family="GillSans,Gill Sans" font-size="84.0" fill="#000000" transform="matrix(1.00, 0.00, -0.00, -1.00, 432.0, 623.4)">t</text><text xml:space="preserve" font-family="GillSans,Gill Sans" font-size="84.0" fill="#000000" transform="matrix(1.00, 0.00, -0.00, -1.00, 460.0, 623.4)">o</text><text xml:space="preserve" font-family="GillSans,Gill Sans" font-size="84.0" fill="#000000" transform="matrix(1.00, 0.00, -0.00, -1.00, 506.3, 623.4)">g</text><text xml:space="preserve" font-family="GillSans,Gill Sans" font-size="84.0" fill="#000000" transform="matrix(1.00, 0.00, -0.00, -1.00, 542.2, 623.4)">e</text><text xml:space="preserve" font-family="GillSans,Gill Sans" font-size="84.0" fill="#000000" transform="matrix(1.00, 0.00, -0.00, -1.00, 582.4, 623.4)">n</text><text xml:space="preserve" font-family="GillSans,Gill Sans" font-size="84.0" fill="#000000" transform="matrix(1.00, 0.00, -0.00, -1.00, 624.4, 623.4)">e</text><text xml:space="preserve" font-family="GillSans,Gill Sans" font-size="84.0" fill="#000000" transform="matrix(1.00, 0.00, -0.00, -1.00, 664.6, 623.4)">s</text><text xml:space="preserve" font-family="GillSans,Gill Sans" font-size="84.0" fill="#000000" transform="matrix(1.00, 0.00, -0.00, -1.00, 696.9, 623.4)">i</text><text xml:space="preserve" font-family="GillSans,Gill Sans" font-size="84.0" fill="#000000" transform="matrix(1.00, 0.00, -0.00, -1.00, 715.4, 623.4)">s</text><image xlink:href="../../0EEF7BB3-6C1B-4E75-B7B1-7ACFD9ED4151/assets/0822AEDBD7296F7C911D41F96535B9EC.png" width="178.00" height="396.00" transform="matrix(1.24, 0.00, -0.00, -1.24, 45.0, 573.0)"></image><image xlink:href="B91FE8BCA6400543049B90F8932A3182.png" width="320.00" height="238.00" transform="matrix(1.62, 0.00, -0.00, -1.63, 417.0, 535.0)"></image></g></svg>