<?xml version="1.0" encoding="UTF-8" standalone="no"?><svg xmlns="http://www.w3.org/2000/svg" xmlns:xlink="http://www.w3.org/1999/xlink" clip-rule="evenodd" stroke-miterlimit="10" viewBox="0 0 720 540"><desc>SVG generated by Keynote</desc><defs></defs><g transform="matrix(1.00, 0.00, -0.00, -1.00, 0.0, 540.0)"><path d="M 0.0 540.0 L 720.0 540.0 L 720.0 0.0 L 0.0 0.0 Z M 0.0 540.0 " fill="#FEFFFF"></path><image xlink:href="../../75458A99-E402-4133-9807-21AFA70AE4B1/assets/B40EE69D1F9193A14AEA9F59CB5FCF30.png" width="725.00" height="659.00" transform="matrix(-0.71, 0.00, 0.00, 0.71, 536.0, 33.0)"></image><path d="M 90.0 119.5 L 96.0 198.0 L 114.0 246.0 L 156.0 288.0 L 168.0 300.0 L 216.0 288.0 L 234.0 246.0 L 228.0 228.0 L 174.0 216.0 L 144.0 162.0 L 96.0 119.5 L 90.0 119.5 Z M 90.0 120.0 " fill="#FF2600"></path><path d="M 0.0 180.5 L 6.0 102.0 L 24.0 54.0 L 66.0 12.0 L 78.0 0.0 L 126.0 12.0 L 144.0 54.0 L 138.0 72.0 L 84.0 84.0 L 54.0 138.0 L 6.0 180.5 L 0.0 180.5 Z M 0.0 180.0 " fill="none" stroke="#000000" stroke-width="1.00" stroke-linejoin="round" transform="matrix(1.00, 0.00, 0.00, -1.00, 90.0, 300.0)"></path><path d="M 251.1 293.1 C 252.3 291.9 252.3 290.1 251.1 288.9 C 249.9 287.7 248.1 287.7 246.9 288.9 C 245.7 290.1 245.7 291.9 246.9 293.1 C 248.1 294.3 249.9 294.3 251.1 293.1 " fill="#FF2600"></path><path d="M 5.1 0.9 C 6.3 2.1 6.3 3.9 5.1 5.1 C 3.9 6.3 2.1 6.3 0.9 5.1 C -0.3 3.9 -0.3 2.1 0.9 0.9 C 2.1 -0.3 3.9 -0.3 5.1 0.9 " fill="none" stroke="#000000" stroke-width="1.00" stroke-linejoin="round" transform="matrix(1.00, 0.00, 0.00, -1.00, 246.0, 294.0)"></path><path d="M 269.1 317.1 C 270.3 315.9 270.3 314.1 269.1 312.9 C 267.9 311.7 266.1 311.7 264.9 312.9 C 263.7 314.1 263.7 315.9 264.9 317.1 C 266.1 318.3 267.9 318.3 269.1 317.1 " fill="#FF2600"></path><path d="M 5.1 0.9 C 6.3 2.1 6.3 3.9 5.1 5.1 C 3.9 6.3 2.1 6.3 0.9 5.1 C -0.3 3.9 -0.3 2.1 0.9 0.9 C 2.1 -0.3 3.9 -0.3 5.1 0.9 " fill="none" stroke="#000000" stroke-width="1.00" stroke-linejoin="round" transform="matrix(1.00, 0.00, 0.00, -1.00, 264.0, 318.0)"></path><path d="M 275.1 299.1 C 276.3 297.9 276.3 296.1 275.1 294.9 C 273.9 293.7 272.1 293.7 270.9 294.9 C 269.7 296.1 269.7 297.9 270.9 299.1 C 272.1 300.3 273.9 300.3 275.1 299.1 " fill="#FF2600"></path><path d="M 5.1 0.9 C 6.3 2.1 6.3 3.9 5.1 5.1 C 3.9 6.3 2.1 6.3 0.9 5.1 C -0.3 3.9 -0.3 2.1 0.9 0.9 C 2.1 -0.3 3.9 -0.3 5.1 0.9 " fill="none" stroke="#000000" stroke-width="1.00" stroke-linejoin="round" transform="matrix(1.00, 0.00, 0.00, -1.00, 270.0, 300.0)"></path><path d="M 305.1 335.1 C 306.3 333.9 306.3 332.1 305.1 330.9 C 303.9 329.7 302.1 329.7 300.9 330.9 C 299.7 332.1 299.7 333.9 300.9 335.1 C 302.1 336.3 303.9 336.3 305.1 335.1 " fill="#FF2600"></path><path d="M 5.1 0.9 C 6.3 2.1 6.3 3.9 5.1 5.1 C 3.9 6.3 2.1 6.3 0.9 5.1 C -0.3 3.9 -0.3 2.1 0.9 0.9 C 2.1 -0.3 3.9 -0.3 5.1 0.9 " fill="none" stroke="#000000" stroke-width="1.00" stroke-linejoin="round" transform="matrix(1.00, 0.00, 0.00, -1.00, 300.0, 336.0)"></path><path d="M 329.1 341.1 C 330.3 339.9 330.3 338.1 329.1 336.9 C 327.9 335.7 326.1 335.7 324.9 336.9 C 323.7 338.1 323.7 339.9 324.9 341.1 C 326.1 342.3 327.9 342.3 329.1 341.1 " fill="#FF2600"></path><path d="M 5.1 0.9 C 6.3 2.1 6.3 3.9 5.1 5.1 C 3.9 6.3 2.1 6.3 0.9 5.1 C -0.3 3.9 -0.3 2.1 0.9 0.9 C 2.1 -0.3 3.9 -0.3 5.1 0.9 " fill="none" stroke="#000000" stroke-width="1.00" stroke-linejoin="round" transform="matrix(1.00, 0.00, 0.00, -1.00, 324.0, 342.0)"></path><path d="M 353.1 341.1 C 354.3 339.9 354.3 338.1 353.1 336.9 C 351.9 335.7 350.1 335.7 348.9 336.9 C 347.7 338.1 347.7 339.9 348.9 341.1 C 350.1 342.3 351.9 342.3 353.1 341.1 " fill="#FF2600"></path><path d="M 5.1 0.9 C 6.3 2.1 6.3 3.9 5.1 5.1 C 3.9 6.3 2.1 6.3 0.9 5.1 C -0.3 3.9 -0.3 2.1 0.9 0.9 C 2.1 -0.3 3.9 -0.3 5.1 0.9 " fill="none" stroke="#000000" stroke-width="1.00" stroke-linejoin="round" transform="matrix(1.00, 0.00, 0.00, -1.00, 348.0, 342.0)"></path><path d="M 305.1 263.1 C 306.3 261.9 306.3 260.1 305.1 258.9 C 303.9 257.7 302.1 257.7 300.9 258.9 C 299.7 260.1 299.7 261.9 300.9 263.1 C 302.1 264.3 303.9 264.3 305.1 263.1 " fill="#FF2600"></path><path d="M 5.1 0.9 C 6.3 2.1 6.3 3.9 5.1 5.1 C 3.9 6.3 2.1 6.3 0.9 5.1 C -0.3 3.9 -0.3 2.1 0.9 0.9 C 2.1 -0.3 3.9 -0.3 5.1 0.9 " fill="none" stroke="#000000" stroke-width="1.00" stroke-linejoin="round" transform="matrix(1.00, 0.00, 0.00, -1.00, 300.0, 264.0)"></path><path d="M 335.1 263.1 C 336.3 261.9 336.3 260.1 335.1 258.9 C 333.9 257.7 332.1 257.7 330.9 258.9 C 329.7 260.1 329.7 261.9 330.9 263.1 C 332.1 264.3 333.9 264.3 335.1 263.1 " fill="#FF2600"></path><path d="M 5.1 0.9 C 6.3 2.1 6.3 3.9 5.1 5.1 C 3.9 6.3 2.1 6.3 0.9 5.1 C -0.3 3.9 -0.3 2.1 0.9 0.9 C 2.1 -0.3 3.9 -0.3 5.1 0.9 " fill="none" stroke="#000000" stroke-width="1.00" stroke-linejoin="round" transform="matrix(1.00, 0.00, 0.00, -1.00, 330.0, 264.0)"></path><path d="M 554.5 422.5 C 559.2 417.8 559.2 410.2 554.5 405.5 C 549.8 400.8 542.2 400.8 537.5 405.5 C 532.8 410.2 532.8 417.8 537.5 422.5 C 542.2 427.2 549.8 427.2 554.5 422.5 " fill="#FF2600"></path><path d="M 20.5 3.5 C 25.2 8.2 25.2 15.8 20.5 20.5 C 15.8 25.2 8.2 25.2 3.5 20.5 C -1.2 15.8 -1.2 8.2 3.5 3.5 C 8.2 -1.2 15.8 -1.2 20.5 3.5 " fill="none" stroke="#000000" stroke-width="1.00" stroke-linejoin="round" transform="matrix(1.00, 0.00, 0.00, -1.00, 534.0, 426.0)"></path><path d="M 90.0 156.0 L 114.0 246.0 L 156.0 288.0 L 174.0 306.0 L 216.0 300.0 L 198.0 336.0 L 150.0 342.0 L 108.0 270.0 L 78.0 186.0 L 90.0 162.0 " fill="#FEFB00"></path><path d="M 12.0 186.0 L 36.0 96.0 L 78.0 54.0 L 96.0 36.0 L 138.0 42.0 L 120.0 6.0 L 72.0 0.0 L 30.0 72.0 L 0.0 156.0 L 12.0 180.0 " fill="none" stroke="#000000" stroke-width="1.00" stroke-linejoin="round" transform="matrix(1.00, 0.00, 0.00, -1.00, 78.0, 342.0)"></path><path d="M 336.0 480.0 L 360.0 450.0 L 402.0 456.0 L 384.0 426.0 L 324.0 384.0 L 312.0 390.0 L 342.0 420.0 L 336.0 480.0 Z M 336.0 480.0 " fill="#FEFB00"></path><path d="M 24.0 0.0 L 48.0 30.0 L 90.0 24.0 L 72.0 54.0 L 12.0 96.0 L 0.0 90.0 L 30.0 60.0 L 24.0 0.0 Z M 24.0 0.0 " fill="none" stroke="#000000" stroke-width="1.00" stroke-linejoin="round" transform="matrix(1.00, 0.00, 0.00, -1.00, 312.0, 480.0)"></path><path d="M 336.0 246.0 L 396.0 228.0 L 402.0 204.0 L 408.0 144.0 L 384.0 198.0 L 336.0 246.0 Z M 336.0 246.0 " fill="#FEFB00"></path><path d="M 0.0 0.0 L 60.0 18.0 L 66.0 42.0 L 72.0 102.0 L 48.0 48.0 L 0.0 0.0 Z M 0.0 0.0 " fill="none" stroke="#000000" stroke-width="1.00" stroke-linejoin="round" transform="matrix(1.00, 0.00, 0.00, -1.00, 336.0, 246.0)"></path><path d="M 554.5 380.5 C 559.2 375.8 559.2 368.2 554.5 363.5 C 549.8 358.8 542.2 358.8 537.5 363.5 C 532.8 368.2 532.8 375.8 537.5 380.5 C 542.2 385.2 549.8 385.2 554.5 380.5 " fill="#FEFB00"></path><path d="M 20.5 3.5 C 25.2 8.2 25.2 15.8 20.5 20.5 C 15.8 25.2 8.2 25.2 3.5 20.5 C -1.2 15.8 -1.2 8.2 3.5 3.5 C 8.2 -1.2 15.8 -1.2 20.5 3.5 " fill="none" stroke="#000000" stroke-width="1.00" stroke-linejoin="round" transform="matrix(1.00, 0.00, 0.00, -1.00, 534.0, 384.0)"></path><text xml:space="preserve" font-family="Arial-BoldMT,Arial" font-weight="bold" font-size="24.0" fill="#000000" transform="matrix(1.00, 0.00, -0.00, -1.00, 576.0, 408.1)">D</text><text xml:space="preserve" font-family="Arial-BoldMT,Arial" font-weight="bold" font-size="24.0" fill="#000000" transform="matrix(1.00, 0.00, -0.00, -1.00, 593.3, 408.1)">r</text><text xml:space="preserve" font-family="Arial-BoldMT,Arial" font-weight="bold" font-size="24.0" fill="#000000" transform="matrix(1.00, 0.00, -0.00, -1.00, 602.6, 408.1)">y</text><text xml:space="preserve" font-family="Arial-BoldMT,Arial" font-weight="bold" font-size="24.0" fill="#000000" transform="matrix(1.00, 0.00, -0.00, -1.00, 616.0, 408.1)"> </text><text xml:space="preserve" font-family="Arial-BoldMT,Arial" font-weight="bold" font-size="24.0" fill="#000000" transform="matrix(1.00, 0.00, -0.00, -1.00, 622.7, 408.1)">s</text><text xml:space="preserve" font-family="Arial-BoldMT,Arial" font-weight="bold" font-size="24.0" fill="#000000" transform="matrix(1.00, 0.00, -0.00, -1.00, 636.0, 408.1)">e</text><text xml:space="preserve" font-family="Arial-BoldMT,Arial" font-weight="bold" font-size="24.0" fill="#000000" transform="matrix(1.00, 0.00, -0.00, -1.00, 649.4, 408.1)">a</text><text xml:space="preserve" font-family="Arial-BoldMT,Arial" font-weight="bold" font-size="24.0" fill="#000000" transform="matrix(1.00, 0.00, -0.00, -1.00, 662.7, 408.1)">s</text><text xml:space="preserve" font-family="Arial-BoldMT,Arial" font-weight="bold" font-size="24.0" fill="#000000" transform="matrix(1.00, 0.00, -0.00, -1.00, 676.1, 408.1)">o</text><text xml:space="preserve" font-family="Arial-BoldMT,Arial" font-weight="bold" font-size="24.0" fill="#000000" transform="matrix(1.00, 0.00, -0.00, -1.00, 690.7, 408.1)">n</text><text xml:space="preserve" font-family="Arial-BoldMT,Arial" font-weight="bold" font-size="24.0" fill="#000000" transform="matrix(1.00, 0.00, -0.00, -1.00, 577.2, 363.9)">W</text><text xml:space="preserve" font-family="Arial-BoldMT,Arial" font-weight="bold" font-size="24.0" fill="#000000" transform="matrix(1.00, 0.00, -0.00, -1.00, 599.4, 363.9)">e</text><text xml:space="preserve" font-family="Arial-BoldMT,Arial" font-weight="bold" font-size="24.0" fill="#000000" transform="matrix(1.00, 0.00, -0.00, -1.00, 612.8, 363.9)">t</text><text xml:space="preserve" font-family="Arial-BoldMT,Arial" font-weight="bold" font-size="24.0" fill="#000000" transform="matrix(1.00, 0.00, -0.00, -1.00, 620.8, 363.9)"> </text><text xml:space="preserve" font-family="Arial-BoldMT,Arial" font-weight="bold" font-size="24.0" fill="#000000" transform="matrix(1.00, 0.00, -0.00, -1.00, 627.4, 363.9)">s</text><text xml:space="preserve" font-family="Arial-BoldMT,Arial" font-weight="bold" font-size="24.0" fill="#000000" transform="matrix(1.00, 0.00, -0.00, -1.00, 640.8, 363.9)">e</text><text xml:space="preserve" font-family="Arial-BoldMT,Arial" font-weight="bold" font-size="24.0" fill="#000000" transform="matrix(1.00, 0.00, -0.00, -1.00, 654.1, 363.9)">a</text><text xml:space="preserve" font-family="Arial-BoldMT,Arial" font-weight="bold" font-size="24.0" fill="#000000" transform="matrix(1.00, 0.00, -0.00, -1.00, 667.5, 363.9)">s</text><text xml:space="preserve" font-family="Arial-BoldMT,Arial" font-weight="bold" font-size="24.0" fill="#000000" transform="matrix(1.00, 0.00, -0.00, -1.00, 680.8, 363.9)">o</text><text xml:space="preserve" font-family="Arial-BoldMT,Arial" font-weight="bold" font-size="24.0" fill="#000000" transform="matrix(1.00, 0.00, -0.00, -1.00, 695.5, 363.9)">n</text><text xml:space="preserve" font-family="Arial-BoldMT,Arial" font-weight="bold" font-size="24.0" fill="#000000" transform="matrix(1.00, 0.00, -0.00, -1.00, 516.3, 183.9)">S</text><text xml:space="preserve" font-family="Arial-BoldMT,Arial" font-weight="bold" font-size="24.0" fill="#000000" transform="matrix(1.00, 0.00, -0.00, -1.00, 532.3, 183.9)">e</text><text xml:space="preserve" font-family="Arial-BoldMT,Arial" font-weight="bold" font-size="24.0" fill="#000000" transform="matrix(1.00, 0.00, -0.00, -1.00, 545.7, 183.9)">a</text><text xml:space="preserve" font-family="Arial-BoldMT,Arial" font-weight="bold" font-size="24.0" fill="#000000" transform="matrix(1.00, 0.00, -0.00, -1.00, 559.0, 183.9)">s</text><text xml:space="preserve" font-family="Arial-BoldMT,Arial" font-weight="bold" font-size="24.0" fill="#000000" transform="matrix(1.00, 0.00, -0.00, -1.00, 572.4, 183.9)">o</text><text xml:space="preserve" font-family="Arial-BoldMT,Arial" font-weight="bold" font-size="24.0" fill="#000000" transform="matrix(1.00, 0.00, -0.00, -1.00, 587.0, 183.9)">n</text><text xml:space="preserve" font-family="Arial-BoldMT,Arial" font-weight="bold" font-size="24.0" fill="#000000" transform="matrix(1.00, 0.00, -0.00, -1.00, 601.7, 183.9)">a</text><text xml:space="preserve" font-family="Arial-BoldMT,Arial" font-weight="bold" font-size="24.0" fill="#000000" transform="matrix(1.00, 0.00, -0.00, -1.00, 615.1, 183.9)">l</text><text xml:space="preserve" font-family="Arial-BoldMT,Arial" font-weight="bold" font-size="24.0" fill="#000000" transform="matrix(1.00, 0.00, -0.00, -1.00, 621.7, 183.9)"> </text><text xml:space="preserve" font-family="Arial-BoldMT,Arial" font-weight="bold" font-size="24.0" fill="#000000" transform="matrix(1.00, 0.00, -0.00, -1.00, 516.3, 155.9)">m</text><text xml:space="preserve" font-family="Arial-BoldMT,Arial" font-weight="bold" font-size="24.0" fill="#000000" transform="matrix(1.00, 0.00, -0.00, -1.00, 537.7, 155.9)">o</text><text xml:space="preserve" font-family="Arial-BoldMT,Arial" font-weight="bold" font-size="24.0" fill="#000000" transform="matrix(1.00, 0.00, -0.00, -1.00, 552.3, 155.9)">v</text><text xml:space="preserve" font-family="Arial-BoldMT,Arial" font-weight="bold" font-size="24.0" fill="#000000" transform="matrix(1.00, 0.00, -0.00, -1.00, 565.7, 155.9)">e</text><text xml:space="preserve" font-family="Arial-BoldMT,Arial" font-weight="bold" font-size="24.0" fill="#000000" transform="matrix(1.00, 0.00, -0.00, -1.00, 579.0, 155.9)">m</text><text xml:space="preserve" font-family="Arial-BoldMT,Arial" font-weight="bold" font-size="24.0" fill="#000000" transform="matrix(1.00, 0.00, -0.00, -1.00, 600.4, 155.9)">e</text><text xml:space="preserve" font-family="Arial-BoldMT,Arial" font-weight="bold" font-size="24.0" fill="#000000" transform="matrix(1.00, 0.00, -0.00, -1.00, 613.7, 155.9)">n</text><text xml:space="preserve" font-family="Arial-BoldMT,Arial" font-weight="bold" font-size="24.0" fill="#000000" transform="matrix(1.00, 0.00, -0.00, -1.00, 628.4, 155.9)">t</text><text xml:space="preserve" font-family="Arial-BoldMT,Arial" font-weight="bold" font-size="24.0" fill="#000000" transform="matrix(1.00, 0.00, -0.00, -1.00, 636.4, 155.9)"> </text><text xml:space="preserve" font-family="Arial-BoldMT,Arial" font-weight="bold" font-size="24.0" fill="#000000" transform="matrix(1.00, 0.00, -0.00, -1.00, 643.0, 155.9)">i</text><text xml:space="preserve" font-family="Arial-BoldMT,Arial" font-weight="bold" font-size="24.0" fill="#000000" transform="matrix(1.00, 0.00, -0.00, -1.00, 649.7, 155.9)">n</text><text xml:space="preserve" font-family="Arial-BoldMT,Arial" font-weight="bold" font-size="24.0" fill="#000000" transform="matrix(1.00, 0.00, -0.00, -1.00, 664.4, 155.9)"> </text><text xml:space="preserve" font-family="Arial-BoldMT,Arial" font-weight="bold" font-size="24.0" fill="#000000" transform="matrix(1.00, 0.00, -0.00, -1.00, 671.0, 155.9)"> </text><text xml:space="preserve" font-family="Arial-BoldMT,Arial" font-weight="bold" font-size="24.0" fill="#000000" transform="matrix(1.00, 0.00, -0.00, -1.00, 516.3, 127.9)">A</text><text xml:space="preserve" font-family="Arial-BoldMT,Arial" font-weight="bold" font-size="24.0" fill="#000000" transform="matrix(1.00, 0.00, -0.00, -1.00, 533.7, 127.9)">u</text><text xml:space="preserve" font-family="Arial-BoldMT,Arial" font-weight="bold" font-size="24.0" fill="#000000" transform="matrix(1.00, 0.00, -0.00, -1.00, 548.3, 127.9)">s</text><text xml:space="preserve" font-family="Arial-BoldMT,Arial" font-weight="bold" font-size="24.0" fill="#000000" transform="matrix(1.00, 0.00, -0.00, -1.00, 561.7, 127.9)">t</text><text xml:space="preserve" font-family="Arial-BoldMT,Arial" font-weight="bold" font-size="24.0" fill="#000000" transform="matrix(1.00, 0.00, -0.00, -1.00, 569.7, 127.9)">r</text><text xml:space="preserve" font-family="Arial-BoldMT,Arial" font-weight="bold" font-size="24.0" fill="#000000" transform="matrix(1.00, 0.00, -0.00, -1.00, 579.0, 127.9)">a</text><text xml:space="preserve" font-family="Arial-BoldMT,Arial" font-weight="bold" font-size="24.0" fill="#000000" transform="matrix(1.00, 0.00, -0.00, -1.00, 592.4, 127.9)">l</text><text xml:space="preserve" font-family="Arial-BoldMT,Arial" font-weight="bold" font-size="24.0" fill="#000000" transform="matrix(1.00, 0.00, -0.00, -1.00, 599.0, 127.9)">i</text><text xml:space="preserve" font-family="Arial-BoldMT,Arial" font-weight="bold" font-size="24.0" fill="#000000" transform="matrix(1.00, 0.00, -0.00, -1.00, 605.7, 127.9)">a</text><text xml:space="preserve" font-family="Arial-BoldMT,Arial" font-weight="bold" font-size="24.0" fill="#000000" transform="matrix(1.00, 0.00, -0.00, -1.00, 619.0, 127.9)">n</text><text xml:space="preserve" font-family="Arial-BoldMT,Arial" font-weight="bold" font-size="24.0" fill="#000000" transform="matrix(1.00, 0.00, -0.00, -1.00, 633.7, 127.9)"> </text><text xml:space="preserve" font-family="Arial-BoldMT,Arial" font-weight="bold" font-size="24.0" fill="#000000" transform="matrix(1.00, 0.00, -0.00, -1.00, 640.4, 127.9)">w</text><text xml:space="preserve" font-family="Arial-BoldMT,Arial" font-weight="bold" font-size="24.0" fill="#000000" transform="matrix(1.00, 0.00, -0.00, -1.00, 659.0, 127.9)">a</text><text xml:space="preserve" font-family="Arial-BoldMT,Arial" font-weight="bold" font-size="24.0" fill="#000000" transform="matrix(1.00, 0.00, -0.00, -1.00, 672.4, 127.9)">t</text><text xml:space="preserve" font-family="Arial-BoldMT,Arial" font-weight="bold" font-size="24.0" fill="#000000" transform="matrix(1.00, 0.00, -0.00, -1.00, 680.4, 127.9)">e</text><text xml:space="preserve" font-family="Arial-BoldMT,Arial" font-weight="bold" font-size="24.0" fill="#000000" transform="matrix(1.00, 0.00, -0.00, -1.00, 693.7, 127.9)">r</text><text xml:space="preserve" font-family="Arial-BoldMT,Arial" font-weight="bold" font-size="24.0" fill="#000000" transform="matrix(1.00, 0.00, -0.00, -1.00, 703.1, 127.9)"> </text><text xml:space="preserve" font-family="Arial-BoldMT,Arial" font-weight="bold" font-size="24.0" fill="#000000" transform="matrix(1.00, 0.00, -0.00, -1.00, 516.3, 99.9)">p</text><text xml:space="preserve" font-family="Arial-BoldMT,Arial" font-weight="bold" font-size="24.0" fill="#000000" transform="matrix(1.00, 0.00, -0.00, -1.00, 531.0, 99.9)">y</text><text xml:space="preserve" font-family="Arial-BoldMT,Arial" font-weight="bold" font-size="24.0" fill="#000000" transform="matrix(1.00, 0.00, -0.00, -1.00, 544.3, 99.9)">t</text><text xml:space="preserve" font-family="Arial-BoldMT,Arial" font-weight="bold" font-size="24.0" fill="#000000" transform="matrix(1.00, 0.00, -0.00, -1.00, 552.3, 99.9)">h</text><text xml:space="preserve" font-family="Arial-BoldMT,Arial" font-weight="bold" font-size="24.0" fill="#000000" transform="matrix(1.00, 0.00, -0.00, -1.00, 567.0, 99.9)">o</text><text xml:space="preserve" font-family="Arial-BoldMT,Arial" font-weight="bold" font-size="24.0" fill="#000000" transform="matrix(1.00, 0.00, -0.00, -1.00, 581.6, 99.9)">n</text><text xml:space="preserve" font-family="Arial-BoldMT,Arial" font-weight="bold" font-size="24.0" fill="#000000" transform="matrix(1.00, 0.00, -0.00, -1.00, 596.3, 99.9)">s</text><text xml:space="preserve" font-family="Arial-BoldMT,Arial" font-weight="bold" font-size="24.0" fill="#000000" transform="matrix(1.00, 0.00, -0.00, -1.00, 609.6, 99.9)"> </text><text xml:space="preserve" font-family="Arial-BoldMT,Arial" font-weight="bold" font-size="24.0" fill="#000000" transform="matrix(1.00, 0.00, -0.00, -1.00, 616.3, 99.9)">(</text><text xml:space="preserve" font-family="Arial-BoldItalicMT,Arial" font-style="italic" font-weight="bold" font-size="24.0" fill="#000000" transform="matrix(1.00, 0.00, -0.00, -1.00, 624.3, 99.9)">L</text><text xml:space="preserve" font-family="Arial-BoldItalicMT,Arial" font-style="italic" font-weight="bold" font-size="24.0" fill="#000000" transform="matrix(1.00, 0.00, -0.00, -1.00, 639.0, 99.9)">i</text><text xml:space="preserve" font-family="Arial-BoldItalicMT,Arial" font-style="italic" font-weight="bold" font-size="24.0" fill="#000000" transform="matrix(1.00, 0.00, -0.00, -1.00, 645.6, 99.9)">a</text><text xml:space="preserve" font-family="Arial-BoldItalicMT,Arial" font-style="italic" font-weight="bold" font-size="24.0" fill="#000000" transform="matrix(1.00, 0.00, -0.00, -1.00, 659.0, 99.9)">s</text><text xml:space="preserve" font-family="Arial-BoldItalicMT,Arial" font-style="italic" font-weight="bold" font-size="24.0" fill="#000000" transform="matrix(1.00, 0.00, -0.00, -1.00, 672.3, 99.9)">i</text><text xml:space="preserve" font-family="Arial-BoldItalicMT,Arial" font-style="italic" font-weight="bold" font-size="24.0" fill="#000000" transform="matrix(1.00, 0.00, -0.00, -1.00, 679.0, 99.9)">s</text><text xml:space="preserve" font-family="Arial-BoldItalicMT,Arial" font-style="italic" font-weight="bold" font-size="24.0" fill="#000000" transform="matrix(1.00, 0.00, -0.00, -1.00, 692.3, 99.9)"> </text><text xml:space="preserve" font-family="Arial-BoldItalicMT,Arial" font-style="italic" font-weight="bold" font-size="24.0" fill="#000000" transform="matrix(1.00, 0.00, -0.00, -1.00, 516.3, 71.9)">f</text><text xml:space="preserve" font-family="Arial-BoldItalicMT,Arial" font-style="italic" font-weight="bold" font-size="24.0" fill="#000000" transform="matrix(1.00, 0.00, -0.00, -1.00, 524.3, 71.9)">u</text><text xml:space="preserve" font-family="Arial-BoldItalicMT,Arial" font-style="italic" font-weight="bold" font-size="24.0" fill="#000000" transform="matrix(1.00, 0.00, -0.00, -1.00, 539.0, 71.9)">s</text><text xml:space="preserve" font-family="Arial-BoldItalicMT,Arial" font-style="italic" font-weight="bold" font-size="24.0" fill="#000000" transform="matrix(1.00, 0.00, -0.00, -1.00, 552.3, 71.9)">c</text><text xml:space="preserve" font-family="Arial-BoldItalicMT,Arial" font-style="italic" font-weight="bold" font-size="24.0" fill="#000000" transform="matrix(1.00, 0.00, -0.00, -1.00, 565.7, 71.9)">u</text><text xml:space="preserve" font-family="Arial-BoldItalicMT,Arial" font-style="italic" font-weight="bold" font-size="24.0" fill="#000000" transform="matrix(1.00, 0.00, -0.00, -1.00, 580.3, 71.9)">s</text><text xml:space="preserve" font-family="Arial-BoldMT,Arial" font-weight="bold" font-size="24.0" fill="#000000" transform="matrix(1.00, 0.00, -0.00, -1.00, 593.7, 71.9)">)</text><text xml:space="preserve" font-family="Arial-BoldMT,Arial" font-weight="bold" font-size="14.0" fill="#000000" transform="matrix(1.00, 0.00, -0.00, -1.00, 539.1, 12.3)">M</text><text xml:space="preserve" font-family="Arial-BoldMT,Arial" font-weight="bold" font-size="14.0" fill="#000000" transform="matrix(1.00, 0.00, -0.00, -1.00, 550.7, 12.3)">a</text><text xml:space="preserve" font-family="Arial-BoldMT,Arial" font-weight="bold" font-size="14.0" fill="#000000" transform="matrix(1.00, 0.00, -0.00, -1.00, 558.5, 12.3)">d</text><text xml:space="preserve" font-family="Arial-BoldMT,Arial" font-weight="bold" font-size="14.0" fill="#000000" transform="matrix(1.00, 0.00, -0.00, -1.00, 567.1, 12.3)">s</text><text xml:space="preserve" font-family="Arial-BoldMT,Arial" font-weight="bold" font-size="14.0" fill="#000000" transform="matrix(1.00, 0.00, -0.00, -1.00, 574.9, 12.3)">e</text><text xml:space="preserve" font-family="Arial-BoldMT,Arial" font-weight="bold" font-size="14.0" fill="#000000" transform="matrix(1.00, 0.00, -0.00, -1.00, 582.7, 12.3)">n</text><text xml:space="preserve" font-family="Arial-BoldMT,Arial" font-weight="bold" font-size="14.0" fill="#000000" transform="matrix(1.00, 0.00, -0.00, -1.00, 591.2, 12.3)"> </text><text xml:space="preserve" font-family="Arial-BoldMT,Arial" font-weight="bold" font-size="14.0" fill="#000000" transform="matrix(1.00, 0.00, -0.00, -1.00, 595.1, 12.3)">a</text><text xml:space="preserve" font-family="Arial-BoldMT,Arial" font-weight="bold" font-size="14.0" fill="#000000" transform="matrix(1.00, 0.00, -0.00, -1.00, 602.9, 12.3)">n</text><text xml:space="preserve" font-family="Arial-BoldMT,Arial" font-weight="bold" font-size="14.0" fill="#000000" transform="matrix(1.00, 0.00, -0.00, -1.00, 611.4, 12.3)">d</text><text xml:space="preserve" font-family="Arial-BoldMT,Arial" font-weight="bold" font-size="14.0" fill="#000000" transform="matrix(1.00, 0.00, -0.00, -1.00, 620.0, 12.3)"> </text><text xml:space="preserve" font-family="Arial-BoldMT,Arial" font-weight="bold" font-size="14.0" fill="#000000" transform="matrix(1.00, 0.00, -0.00, -1.00, 623.9, 12.3)">S</text><text xml:space="preserve" font-family="Arial-BoldMT,Arial" font-weight="bold" font-size="14.0" fill="#000000" transform="matrix(1.00, 0.00, -0.00, -1.00, 633.2, 12.3)">h</text><text xml:space="preserve" font-family="Arial-BoldMT,Arial" font-weight="bold" font-size="14.0" fill="#000000" transform="matrix(1.00, 0.00, -0.00, -1.00, 641.7, 12.3)">i</text><text xml:space="preserve" font-family="Arial-BoldMT,Arial" font-weight="bold" font-size="14.0" fill="#000000" transform="matrix(1.00, 0.00, -0.00, -1.00, 645.6, 12.3)">n</text><text xml:space="preserve" font-family="Arial-BoldMT,Arial" font-weight="bold" font-size="14.0" fill="#000000" transform="matrix(1.00, 0.00, -0.00, -1.00, 654.2, 12.3)">e</text><text xml:space="preserve" font-family="Arial-BoldMT,Arial" font-weight="bold" font-size="14.0" fill="#000000" transform="matrix(1.00, 0.00, -0.00, -1.00, 662.0, 12.3)"> </text><text xml:space="preserve" font-family="Arial-BoldMT,Arial" font-weight="bold" font-size="14.0" fill="#000000" transform="matrix(1.00, 0.00, -0.00, -1.00, 665.9, 12.3)">1</text><text xml:space="preserve" font-family="Arial-BoldMT,Arial" font-weight="bold" font-size="14.0" fill="#000000" transform="matrix(1.00, 0.00, -0.00, -1.00, 673.6, 12.3)">9</text><text xml:space="preserve" font-family="Arial-BoldMT,Arial" font-weight="bold" font-size="14.0" fill="#000000" transform="matrix(1.00, 0.00, -0.00, -1.00, 681.4, 12.3)">9</text><text xml:space="preserve" font-family="Arial-BoldMT,Arial" font-weight="bold" font-size="14.0" fill="#000000" transform="matrix(1.00, 0.00, -0.00, -1.00, 689.2, 12.3)">6</text></g></svg>