<?xml version="1.0" encoding="UTF-8" standalone="no"?><svg xmlns="http://www.w3.org/2000/svg" xmlns:xlink="http://www.w3.org/1999/xlink" clip-rule="evenodd" stroke-miterlimit="4.00" viewBox="0 0 720 540"><desc>SVG generated by Keynote</desc><defs></defs><g transform="matrix(1.00, 0.00, -0.00, -1.00, 0.0, 540.0)"><path d="M 0.0 540.0 L 720.0 540.0 L 720.0 0.0 L 0.0 0.0 Z M 0.0 540.0 " fill="#FEFFFF"></path><g><clipPath id="clip-100"><path d="M 0.0 22.0 L 720.0 22.0 L 720.0 540.0 L 0.0 540.0 Z M 0.0 22.0 "></path></clipPath><g clip-path="url(#clip-100)"><path d="M 0.0 540.0 L 720.0 540.0 L 720.0 22.0 L 0.0 22.0 Z M 0.0 540.0 " fill="#FFFFFF"></path><image xlink:href="../../C11F4E45-164F-4446-B199-7D0D4C64D2CC/assets/6EDE91CEA1E7710637C12637A8469CF1.png" width="640.00" height="460.00" transform="matrix(1.12, 0.00, -0.00, -1.13, 0.0, 540.0)"></image></g></g><text xml:space="preserve" font-family="Arial-ItalicMT" font-style="italic" font-size="18.0" fill="#000000" transform="matrix(1.00, 0.00, -0.00, -1.00, 163.0, 8.0)">P</text><text xml:space="preserve" font-family="Arial-ItalicMT" font-style="italic" font-size="18.0" fill="#000000" transform="matrix(1.00, 0.00, -0.00, -1.00, 175.0, 8.0)">h</text><text xml:space="preserve" font-family="Arial-ItalicMT" font-style="italic" font-size="18.0" fill="#000000" transform="matrix(1.00, 0.00, -0.00, -1.00, 185.0, 8.0)">r</text><text xml:space="preserve" font-family="Arial-ItalicMT" font-style="italic" font-size="18.0" fill="#000000" transform="matrix(1.00, 0.00, -0.00, -1.00, 191.0, 8.0)">y</text><text xml:space="preserve" font-family="Arial-ItalicMT" font-style="italic" font-size="18.0" fill="#000000" transform="matrix(1.00, 0.00, -0.00, -1.00, 200.0, 8.0)">n</text><text xml:space="preserve" font-family="Arial-ItalicMT" font-style="italic" font-size="18.0" fill="#000000" transform="matrix(1.00, 0.00, -0.00, -1.00, 210.0, 8.0)">o</text><text xml:space="preserve" font-family="Arial-ItalicMT" font-style="italic" font-size="18.0" fill="#000000" transform="matrix(1.00, 0.00, -0.00, -1.00, 220.0, 8.0)">s</text><text xml:space="preserve" font-family="Arial-ItalicMT" font-style="italic" font-size="18.0" fill="#000000" transform="matrix(1.00, 0.00, -0.00, -1.00, 229.0, 8.0)">o</text><text xml:space="preserve" font-family="Arial-ItalicMT" font-style="italic" font-size="18.0" fill="#000000" transform="matrix(1.00, 0.00, -0.00, -1.00, 239.1, 8.0)">m</text><text xml:space="preserve" font-family="Arial-ItalicMT" font-style="italic" font-size="18.0" fill="#000000" transform="matrix(1.00, 0.00, -0.00, -1.00, 254.1, 8.0)">a</text><text xml:space="preserve" font-family="Arial-ItalicMT" font-style="italic" font-size="18.0" fill="#000000" transform="matrix(1.00, 0.00, -0.00, -1.00, 264.1, 8.0)"> </text><text xml:space="preserve" font-family="Arial-ItalicMT" font-style="italic" font-size="18.0" fill="#000000" transform="matrix(1.00, 0.00, -0.00, -1.00, 269.1, 8.0)">m</text><text xml:space="preserve" font-family="Arial-ItalicMT" font-style="italic" font-size="18.0" fill="#000000" transform="matrix(1.00, 0.00, -0.00, -1.00, 284.1, 8.0)">o</text><text xml:space="preserve" font-family="Arial-ItalicMT" font-style="italic" font-size="18.0" fill="#000000" transform="matrix(1.00, 0.00, -0.00, -1.00, 294.1, 8.0)">d</text><text xml:space="preserve" font-family="Arial-ItalicMT" font-style="italic" font-size="18.0" fill="#000000" transform="matrix(1.00, 0.00, -0.00, -1.00, 304.1, 8.0)">e</text><text xml:space="preserve" font-family="Arial-ItalicMT" font-style="italic" font-size="18.0" fill="#000000" transform="matrix(1.00, 0.00, -0.00, -1.00, 314.1, 8.0)">s</text><text xml:space="preserve" font-family="Arial-ItalicMT" font-style="italic" font-size="18.0" fill="#000000" transform="matrix(1.00, 0.00, -0.00, -1.00, 323.1, 8.0)">t</text><text xml:space="preserve" font-family="Arial-ItalicMT" font-style="italic" font-size="18.0" fill="#000000" transform="matrix(1.00, 0.00, -0.00, -1.00, 328.1, 8.0)">u</text><text xml:space="preserve" font-family="Arial-ItalicMT" font-style="italic" font-size="18.0" fill="#000000" transform="matrix(1.00, 0.00, -0.00, -1.00, 338.1, 8.0)">m</text><text xml:space="preserve" font-family="ArialMT" font-size="18.0" fill="#000000" transform="matrix(1.00, 0.00, -0.00, -1.00, 353.1, 8.0)">,</text><text xml:space="preserve" font-family="ArialMT" font-size="18.0" fill="#000000" transform="matrix(1.00, 0.00, -0.00, -1.00, 358.1, 8.0)"> </text><text xml:space="preserve" font-family="ArialMT" font-size="18.0" fill="#000000" transform="matrix(1.00, 0.00, -0.00, -1.00, 363.1, 8.0)">r</text><text xml:space="preserve" font-family="ArialMT" font-size="18.0" fill="#000000" transform="matrix(1.00, 0.00, -0.00, -1.00, 369.1, 8.0)">o</text><text xml:space="preserve" font-family="ArialMT" font-size="18.0" fill="#000000" transform="matrix(1.00, 0.00, -0.00, -1.00, 379.1, 8.0)">u</text><text xml:space="preserve" font-family="ArialMT" font-size="18.0" fill="#000000" transform="matrix(1.00, 0.00, -0.00, -1.00, 389.1, 8.0)">n</text><text xml:space="preserve" font-family="ArialMT" font-size="18.0" fill="#000000" transform="matrix(1.00, 0.00, -0.00, -1.00, 399.1, 8.0)">d</text><text xml:space="preserve" font-family="ArialMT" font-size="18.0" fill="#000000" transform="matrix(1.00, 0.00, -0.00, -1.00, 409.1, 8.0)">-</text><text xml:space="preserve" font-family="ArialMT" font-size="18.0" fill="#000000" transform="matrix(1.00, 0.00, -0.00, -1.00, 415.1, 8.0)">t</text><text xml:space="preserve" font-family="ArialMT" font-size="18.0" fill="#000000" transform="matrix(1.00, 0.00, -0.00, -1.00, 420.1, 8.0)">a</text><text xml:space="preserve" font-family="ArialMT" font-size="18.0" fill="#000000" transform="matrix(1.00, 0.00, -0.00, -1.00, 430.1, 8.0)">i</text><text xml:space="preserve" font-family="ArialMT" font-size="18.0" fill="#000000" transform="matrix(1.00, 0.00, -0.00, -1.00, 434.1, 8.0)">l</text><text xml:space="preserve" font-family="ArialMT" font-size="18.0" fill="#000000" transform="matrix(1.00, 0.00, -0.00, -1.00, 438.1, 8.0)">e</text><text xml:space="preserve" font-family="ArialMT" font-size="18.0" fill="#000000" transform="matrix(1.00, 0.00, -0.00, -1.00, 448.2, 8.0)">d</text><text xml:space="preserve" font-family="ArialMT" font-size="18.0" fill="#000000" transform="matrix(1.00, 0.00, -0.00, -1.00, 458.2, 8.0)"> </text><text xml:space="preserve" font-family="ArialMT" font-size="18.0" fill="#000000" transform="matrix(1.00, 0.00, -0.00, -1.00, 463.2, 8.0)">h</text><text xml:space="preserve" font-family="ArialMT" font-size="18.0" fill="#000000" transform="matrix(1.00, 0.00, -0.00, -1.00, 473.2, 8.0)">o</text><text xml:space="preserve" font-family="ArialMT" font-size="18.0" fill="#000000" transform="matrix(1.00, 0.00, -0.00, -1.00, 483.2, 8.0)">r</text><text xml:space="preserve" font-family="ArialMT" font-size="18.0" fill="#000000" transform="matrix(1.00, 0.00, -0.00, -1.00, 489.2, 8.0)">n</text><text xml:space="preserve" font-family="ArialMT" font-size="18.0" fill="#000000" transform="matrix(1.00, 0.00, -0.00, -1.00, 499.2, 8.0)">e</text><text xml:space="preserve" font-family="ArialMT" font-size="18.0" fill="#000000" transform="matrix(1.00, 0.00, -0.00, -1.00, 509.2, 8.0)">d</text><text xml:space="preserve" font-family="ArialMT" font-size="18.0" fill="#000000" transform="matrix(1.00, 0.00, -0.00, -1.00, 519.2, 8.0)"> </text><text xml:space="preserve" font-family="ArialMT" font-size="18.0" fill="#000000" transform="matrix(1.00, 0.00, -0.00, -1.00, 524.2, 8.0)">l</text><text xml:space="preserve" font-family="ArialMT" font-size="18.0" fill="#000000" transform="matrix(1.00, 0.00, -0.00, -1.00, 528.2, 8.0)">i</text><text xml:space="preserve" font-family="ArialMT" font-size="18.0" fill="#000000" transform="matrix(1.00, 0.00, -0.00, -1.00, 532.2, 8.0)">z</text><text xml:space="preserve" font-family="ArialMT" font-size="18.0" fill="#000000" transform="matrix(1.00, 0.00, -0.00, -1.00, 541.2, 8.0)">a</text><text xml:space="preserve" font-family="ArialMT" font-size="18.0" fill="#000000" transform="matrix(1.00, 0.00, -0.00, -1.00, 551.2, 8.0)">r</text><text xml:space="preserve" font-family="ArialMT" font-size="18.0" fill="#000000" transform="matrix(1.00, 0.00, -0.00, -1.00, 557.2, 8.0)">d</text></g></svg>