<?xml version="1.0" encoding="UTF-8" standalone="no"?><svg xmlns="http://www.w3.org/2000/svg" xmlns:xlink="http://www.w3.org/1999/xlink" clip-rule="evenodd" stroke-miterlimit="10" viewBox="0 0 720 540"><desc>SVG generated by Keynote</desc><defs></defs><g transform="matrix(1.00, 0.00, -0.00, -1.00, 0.0, 540.0)"><path d="M 0.0 540.0 L 720.0 540.0 L 720.0 0.0 L 0.0 0.0 Z M 0.0 540.0 " fill="#FEFFFF"></path><text xml:space="preserve" font-family="ArialMT,Arial" font-size="44.0" fill="#000000" transform="matrix(1.00, 0.00, -0.00, -1.00, 257.3, 431.8)">M</text><text xml:space="preserve" font-family="ArialMT,Arial" font-size="44.0" fill="#000000" transform="matrix(1.00, 0.00, -0.00, -1.00, 293.9, 431.8)">o</text><text xml:space="preserve" font-family="ArialMT,Arial" font-size="44.0" fill="#000000" transform="matrix(1.00, 0.00, -0.00, -1.00, 318.4, 431.8)">v</text><text xml:space="preserve" font-family="ArialMT,Arial" font-size="44.0" fill="#000000" transform="matrix(1.00, 0.00, -0.00, -1.00, 340.4, 431.8)">e</text><text xml:space="preserve" font-family="ArialMT,Arial" font-size="44.0" fill="#000000" transform="matrix(1.00, 0.00, -0.00, -1.00, 364.9, 431.8)">m</text><text xml:space="preserve" font-family="ArialMT,Arial" font-size="44.0" fill="#000000" transform="matrix(1.00, 0.00, -0.00, -1.00, 401.6, 431.8)">e</text><text xml:space="preserve" font-family="ArialMT,Arial" font-size="44.0" fill="#000000" transform="matrix(1.00, 0.00, -0.00, -1.00, 426.0, 431.8)">n</text><text xml:space="preserve" font-family="ArialMT,Arial" font-size="44.0" fill="#000000" transform="matrix(1.00, 0.00, -0.00, -1.00, 450.5, 431.8)">t</text><text xml:space="preserve" font-family="ArialMT,Arial" font-size="32.0" fill="#000000" transform="matrix(1.00, 0.00, -0.00, -1.00, 61.2, 350.8)">•</text><text xml:space="preserve" font-family="ArialMT,Arial" font-size="32.0" fill="#000000" transform="matrix(1.00, 0.00, -0.00, -1.00, 88.2, 350.8)">F</text><text xml:space="preserve" font-family="ArialMT,Arial" font-size="32.0" fill="#000000" transform="matrix(1.00, 0.00, -0.00, -1.00, 107.7, 350.8)">o</text><text xml:space="preserve" font-family="ArialMT,Arial" font-size="32.0" fill="#000000" transform="matrix(1.00, 0.00, -0.00, -1.00, 125.5, 350.8)">r</text><text xml:space="preserve" font-family="ArialMT,Arial" font-size="32.0" fill="#000000" transform="matrix(1.00, 0.00, -0.00, -1.00, 136.2, 350.8)">a</text><text xml:space="preserve" font-family="ArialMT,Arial" font-size="32.0" fill="#000000" transform="matrix(1.00, 0.00, -0.00, -1.00, 154.0, 350.8)">g</text><text xml:space="preserve" font-family="ArialMT,Arial" font-size="32.0" fill="#000000" transform="matrix(1.00, 0.00, -0.00, -1.00, 171.8, 350.8)">i</text><text xml:space="preserve" font-family="ArialMT,Arial" font-size="32.0" fill="#000000" transform="matrix(1.00, 0.00, -0.00, -1.00, 178.9, 350.8)">n</text><text xml:space="preserve" font-family="ArialMT,Arial" font-size="32.0" fill="#000000" transform="matrix(1.00, 0.00, -0.00, -1.00, 196.7, 350.8)">g</text><text xml:space="preserve" font-family="ArialMT,Arial" font-size="32.0" fill="#000000" transform="matrix(1.00, 0.00, -0.00, -1.00, 214.5, 350.8)"> </text><text xml:space="preserve" font-family="ArialMT,Arial" font-size="32.0" fill="#000000" transform="matrix(1.00, 0.00, -0.00, -1.00, 223.4, 350.8)">m</text><text xml:space="preserve" font-family="ArialMT,Arial" font-size="32.0" fill="#000000" transform="matrix(1.00, 0.00, -0.00, -1.00, 250.1, 350.8)">o</text><text xml:space="preserve" font-family="ArialMT,Arial" font-size="32.0" fill="#000000" transform="matrix(1.00, 0.00, -0.00, -1.00, 267.9, 350.8)">d</text><text xml:space="preserve" font-family="ArialMT,Arial" font-size="32.0" fill="#000000" transform="matrix(1.00, 0.00, -0.00, -1.00, 285.7, 350.8)">e</text><text xml:space="preserve" font-family="ArialMT,Arial" font-size="32.0" fill="#000000" transform="matrix(1.00, 0.00, -0.00, -1.00, 303.5, 350.8)">s</text><text xml:space="preserve" font-family="ArialMT,Arial" font-size="32.0" fill="#000000" transform="matrix(1.00, 0.00, -0.00, -1.00, 319.5, 350.8)"> </text><text xml:space="preserve" font-family="ArialMT,Arial" font-size="32.0" fill="#000000" transform="matrix(1.00, 0.00, -0.00, -1.00, 61.2, 306.4)">•</text><text xml:space="preserve" font-family="ArialMT,Arial" font-size="32.0" fill="#000000" transform="matrix(1.00, 0.00, -0.00, -1.00, 88.2, 306.4)">T</text><text xml:space="preserve" font-family="ArialMT,Arial" font-size="32.0" fill="#000000" transform="matrix(1.00, 0.00, -0.00, -1.00, 106.0, 306.4)">y</text><text xml:space="preserve" font-family="ArialMT,Arial" font-size="32.0" fill="#000000" transform="matrix(1.00, 0.00, -0.00, -1.00, 122.0, 306.4)">p</text><text xml:space="preserve" font-family="ArialMT,Arial" font-size="32.0" fill="#000000" transform="matrix(1.00, 0.00, -0.00, -1.00, 139.8, 306.4)">e</text><text xml:space="preserve" font-family="ArialMT,Arial" font-size="32.0" fill="#000000" transform="matrix(1.00, 0.00, -0.00, -1.00, 157.6, 306.4)">s</text><text xml:space="preserve" font-family="ArialMT,Arial" font-size="32.0" fill="#000000" transform="matrix(1.00, 0.00, -0.00, -1.00, 173.6, 306.4)"> </text><text xml:space="preserve" font-family="ArialMT,Arial" font-size="32.0" fill="#000000" transform="matrix(1.00, 0.00, -0.00, -1.00, 182.5, 306.4)">o</text><text xml:space="preserve" font-family="ArialMT,Arial" font-size="32.0" fill="#000000" transform="matrix(1.00, 0.00, -0.00, -1.00, 200.3, 306.4)">f</text><text xml:space="preserve" font-family="ArialMT,Arial" font-size="32.0" fill="#000000" transform="matrix(1.00, 0.00, -0.00, -1.00, 209.2, 306.4)"> </text><text xml:space="preserve" font-family="ArialMT,Arial" font-size="32.0" fill="#000000" transform="matrix(1.00, 0.00, -0.00, -1.00, 218.0, 306.4)">m</text><text xml:space="preserve" font-family="ArialMT,Arial" font-size="32.0" fill="#000000" transform="matrix(1.00, 0.00, -0.00, -1.00, 244.7, 306.4)">o</text><text xml:space="preserve" font-family="ArialMT,Arial" font-size="32.0" fill="#000000" transform="matrix(1.00, 0.00, -0.00, -1.00, 262.5, 306.4)">v</text><text xml:space="preserve" font-family="ArialMT,Arial" font-size="32.0" fill="#000000" transform="matrix(1.00, 0.00, -0.00, -1.00, 278.5, 306.4)">e</text><text xml:space="preserve" font-family="ArialMT,Arial" font-size="32.0" fill="#000000" transform="matrix(1.00, 0.00, -0.00, -1.00, 296.3, 306.4)">m</text><text xml:space="preserve" font-family="ArialMT,Arial" font-size="32.0" fill="#000000" transform="matrix(1.00, 0.00, -0.00, -1.00, 323.0, 306.4)">e</text><text xml:space="preserve" font-family="ArialMT,Arial" font-size="32.0" fill="#000000" transform="matrix(1.00, 0.00, -0.00, -1.00, 340.8, 306.4)">n</text><text xml:space="preserve" font-family="ArialMT,Arial" font-size="32.0" fill="#000000" transform="matrix(1.00, 0.00, -0.00, -1.00, 358.6, 306.4)">t</text><text xml:space="preserve" font-family="ArialMT,Arial" font-size="32.0" fill="#000000" transform="matrix(1.00, 0.00, -0.00, -1.00, 367.4, 306.4)"> </text><text xml:space="preserve" font-family="ArialMT,Arial" font-size="28.0" fill="#000000" transform="matrix(1.00, 0.00, -0.00, -1.00, 97.2, 267.0)">–</text><text xml:space="preserve" font-family="ArialMT,Arial" font-size="28.0" fill="#000000" transform="matrix(1.00, 0.00, -0.00, -1.00, 119.7, 267.0)">L</text><text xml:space="preserve" font-family="ArialMT,Arial" font-size="28.0" fill="#000000" transform="matrix(1.00, 0.00, -0.00, -1.00, 135.3, 267.0)">o</text><text xml:space="preserve" font-family="ArialMT,Arial" font-size="28.0" fill="#000000" transform="matrix(1.00, 0.00, -0.00, -1.00, 150.9, 267.0)">c</text><text xml:space="preserve" font-family="ArialMT,Arial" font-size="28.0" fill="#000000" transform="matrix(1.00, 0.00, -0.00, -1.00, 164.9, 267.0)">a</text><text xml:space="preserve" font-family="ArialMT,Arial" font-size="28.0" fill="#000000" transform="matrix(1.00, 0.00, -0.00, -1.00, 180.4, 267.0)">l</text><text xml:space="preserve" font-family="ArialMT,Arial" font-size="28.0" fill="#000000" transform="matrix(1.00, 0.00, -0.00, -1.00, 186.7, 267.0)"> </text><text xml:space="preserve" font-family="ArialMT,Arial" font-size="28.0" fill="#000000" transform="matrix(1.00, 0.00, -0.00, -1.00, 194.4, 267.0)">m</text><text xml:space="preserve" font-family="ArialMT,Arial" font-size="28.0" fill="#000000" transform="matrix(1.00, 0.00, -0.00, -1.00, 217.8, 267.0)">o</text><text xml:space="preserve" font-family="ArialMT,Arial" font-size="28.0" fill="#000000" transform="matrix(1.00, 0.00, -0.00, -1.00, 233.3, 267.0)">v</text><text xml:space="preserve" font-family="ArialMT,Arial" font-size="28.0" fill="#000000" transform="matrix(1.00, 0.00, -0.00, -1.00, 247.3, 267.0)">e</text><text xml:space="preserve" font-family="ArialMT,Arial" font-size="28.0" fill="#000000" transform="matrix(1.00, 0.00, -0.00, -1.00, 262.9, 267.0)">m</text><text xml:space="preserve" font-family="ArialMT,Arial" font-size="28.0" fill="#000000" transform="matrix(1.00, 0.00, -0.00, -1.00, 286.2, 267.0)">e</text><text xml:space="preserve" font-family="ArialMT,Arial" font-size="28.0" fill="#000000" transform="matrix(1.00, 0.00, -0.00, -1.00, 301.8, 267.0)">n</text><text xml:space="preserve" font-family="ArialMT,Arial" font-size="28.0" fill="#000000" transform="matrix(1.00, 0.00, -0.00, -1.00, 317.4, 267.0)">t</text><text xml:space="preserve" font-family="ArialMT,Arial" font-size="28.0" fill="#000000" transform="matrix(1.00, 0.00, -0.00, -1.00, 325.2, 267.0)">s</text><text xml:space="preserve" font-family="ArialMT,Arial" font-size="28.0" fill="#000000" transform="matrix(1.00, 0.00, -0.00, -1.00, 339.2, 267.0)"> </text><text xml:space="preserve" font-family="ArialMT,Arial" font-size="28.0" fill="#000000" transform="matrix(1.00, 0.00, -0.00, -1.00, 346.9, 267.0)">a</text><text xml:space="preserve" font-family="ArialMT,Arial" font-size="28.0" fill="#000000" transform="matrix(1.00, 0.00, -0.00, -1.00, 362.5, 267.0)">n</text><text xml:space="preserve" font-family="ArialMT,Arial" font-size="28.0" fill="#000000" transform="matrix(1.00, 0.00, -0.00, -1.00, 378.1, 267.0)">d</text><text xml:space="preserve" font-family="ArialMT,Arial" font-size="28.0" fill="#000000" transform="matrix(1.00, 0.00, -0.00, -1.00, 393.7, 267.0)"> </text><text xml:space="preserve" font-family="ArialMT,Arial" font-size="28.0" fill="#000000" transform="matrix(1.00, 0.00, -0.00, -1.00, 401.4, 267.0)">h</text><text xml:space="preserve" font-family="ArialMT,Arial" font-size="28.0" fill="#000000" transform="matrix(1.00, 0.00, -0.00, -1.00, 417.0, 267.0)">o</text><text xml:space="preserve" font-family="ArialMT,Arial" font-size="28.0" fill="#000000" transform="matrix(1.00, 0.00, -0.00, -1.00, 432.6, 267.0)">m</text><text xml:space="preserve" font-family="ArialMT,Arial" font-size="28.0" fill="#000000" transform="matrix(1.00, 0.00, -0.00, -1.00, 455.9, 267.0)">e</text><text xml:space="preserve" font-family="ArialMT,Arial" font-size="28.0" fill="#000000" transform="matrix(1.00, 0.00, -0.00, -1.00, 471.5, 267.0)"> </text><text xml:space="preserve" font-family="ArialMT,Arial" font-size="28.0" fill="#000000" transform="matrix(1.00, 0.00, -0.00, -1.00, 479.3, 267.0)">r</text><text xml:space="preserve" font-family="ArialMT,Arial" font-size="28.0" fill="#000000" transform="matrix(1.00, 0.00, -0.00, -1.00, 488.6, 267.0)">a</text><text xml:space="preserve" font-family="ArialMT,Arial" font-size="28.0" fill="#000000" transform="matrix(1.00, 0.00, -0.00, -1.00, 504.2, 267.0)">n</text><text xml:space="preserve" font-family="ArialMT,Arial" font-size="28.0" fill="#000000" transform="matrix(1.00, 0.00, -0.00, -1.00, 519.8, 267.0)">g</text><text xml:space="preserve" font-family="ArialMT,Arial" font-size="28.0" fill="#000000" transform="matrix(1.00, 0.00, -0.00, -1.00, 535.3, 267.0)">e</text><text xml:space="preserve" font-family="ArialMT,Arial" font-size="28.0" fill="#000000" transform="matrix(1.00, 0.00, -0.00, -1.00, 550.9, 267.0)"> </text><text xml:space="preserve" font-family="ArialMT,Arial" font-size="28.0" fill="#000000" transform="matrix(1.00, 0.00, -0.00, -1.00, 97.2, 228.6)">–</text><text xml:space="preserve" font-family="ArialMT,Arial" font-size="28.0" fill="#000000" transform="matrix(1.00, 0.00, -0.00, -1.00, 119.7, 228.6)">T</text><text xml:space="preserve" font-family="ArialMT,Arial" font-size="28.0" fill="#000000" transform="matrix(1.00, 0.00, -0.00, -1.00, 133.7, 228.6)">e</text><text xml:space="preserve" font-family="ArialMT,Arial" font-size="28.0" fill="#000000" transform="matrix(1.00, 0.00, -0.00, -1.00, 149.3, 228.6)">r</text><text xml:space="preserve" font-family="ArialMT,Arial" font-size="28.0" fill="#000000" transform="matrix(1.00, 0.00, -0.00, -1.00, 158.6, 228.6)">r</text><text xml:space="preserve" font-family="ArialMT,Arial" font-size="28.0" fill="#000000" transform="matrix(1.00, 0.00, -0.00, -1.00, 167.9, 228.6)">i</text><text xml:space="preserve" font-family="ArialMT,Arial" font-size="28.0" fill="#000000" transform="matrix(1.00, 0.00, -0.00, -1.00, 174.1, 228.6)">t</text><text xml:space="preserve" font-family="ArialMT,Arial" font-size="28.0" fill="#000000" transform="matrix(1.00, 0.00, -0.00, -1.00, 181.9, 228.6)">o</text><text xml:space="preserve" font-family="ArialMT,Arial" font-size="28.0" fill="#000000" transform="matrix(1.00, 0.00, -0.00, -1.00, 197.5, 228.6)">r</text><text xml:space="preserve" font-family="ArialMT,Arial" font-size="28.0" fill="#000000" transform="matrix(1.00, 0.00, -0.00, -1.00, 206.8, 228.6)">i</text><text xml:space="preserve" font-family="ArialMT,Arial" font-size="28.0" fill="#000000" transform="matrix(1.00, 0.00, -0.00, -1.00, 213.1, 228.6)">a</text><text xml:space="preserve" font-family="ArialMT,Arial" font-size="28.0" fill="#000000" transform="matrix(1.00, 0.00, -0.00, -1.00, 228.6, 228.6)">l</text><text xml:space="preserve" font-family="ArialMT,Arial" font-size="28.0" fill="#000000" transform="matrix(1.00, 0.00, -0.00, -1.00, 234.9, 228.6)">i</text><text xml:space="preserve" font-family="ArialMT,Arial" font-size="28.0" fill="#000000" transform="matrix(1.00, 0.00, -0.00, -1.00, 241.1, 228.6)">t</text><text xml:space="preserve" font-family="ArialMT,Arial" font-size="28.0" fill="#000000" transform="matrix(1.00, 0.00, -0.00, -1.00, 248.9, 228.6)">y</text><text xml:space="preserve" font-family="ArialMT,Arial" font-size="28.0" fill="#000000" transform="matrix(1.00, 0.00, -0.00, -1.00, 262.9, 228.6)"> </text><text xml:space="preserve" font-family="ArialMT,Arial" font-size="28.0" fill="#000000" transform="matrix(1.00, 0.00, -0.00, -1.00, 97.2, 190.2)">–</text><text xml:space="preserve" font-family="ArialMT,Arial" font-size="28.0" fill="#000000" transform="matrix(1.00, 0.00, -0.00, -1.00, 119.7, 190.2)">M</text><text xml:space="preserve" font-family="ArialMT,Arial" font-size="28.0" fill="#000000" transform="matrix(1.00, 0.00, -0.00, -1.00, 143.0, 190.2)">i</text><text xml:space="preserve" font-family="ArialMT,Arial" font-size="28.0" fill="#000000" transform="matrix(1.00, 0.00, -0.00, -1.00, 149.3, 190.2)">g</text><text xml:space="preserve" font-family="ArialMT,Arial" font-size="28.0" fill="#000000" transform="matrix(1.00, 0.00, -0.00, -1.00, 164.8, 190.2)">r</text><text xml:space="preserve" font-family="ArialMT,Arial" font-size="28.0" fill="#000000" transform="matrix(1.00, 0.00, -0.00, -1.00, 174.2, 190.2)">a</text><text xml:space="preserve" font-family="ArialMT,Arial" font-size="28.0" fill="#000000" transform="matrix(1.00, 0.00, -0.00, -1.00, 189.7, 190.2)">t</text><text xml:space="preserve" font-family="ArialMT,Arial" font-size="28.0" fill="#000000" transform="matrix(1.00, 0.00, -0.00, -1.00, 197.5, 190.2)">i</text><text xml:space="preserve" font-family="ArialMT,Arial" font-size="28.0" fill="#000000" transform="matrix(1.00, 0.00, -0.00, -1.00, 203.7, 190.2)">o</text><text xml:space="preserve" font-family="ArialMT,Arial" font-size="28.0" fill="#000000" transform="matrix(1.00, 0.00, -0.00, -1.00, 219.3, 190.2)">n</text><text xml:space="preserve" font-family="ArialMT,Arial" font-size="28.0" fill="#000000" transform="matrix(1.00, 0.00, -0.00, -1.00, 234.9, 190.2)"> </text><text xml:space="preserve" font-family="ArialMT,Arial" font-size="32.0" fill="#000000" transform="matrix(1.00, 0.00, -0.00, -1.00, 61.2, 146.8)">•</text><text xml:space="preserve" font-family="ArialMT,Arial" font-size="32.0" fill="#000000" transform="matrix(1.00, 0.00, -0.00, -1.00, 88.2, 146.8)">N</text><text xml:space="preserve" font-family="ArialMT,Arial" font-size="32.0" fill="#000000" transform="matrix(1.00, 0.00, -0.00, -1.00, 111.3, 146.8)">a</text><text xml:space="preserve" font-family="ArialMT,Arial" font-size="32.0" fill="#000000" transform="matrix(1.00, 0.00, -0.00, -1.00, 129.1, 146.8)">v</text><text xml:space="preserve" font-family="ArialMT,Arial" font-size="32.0" fill="#000000" transform="matrix(1.00, 0.00, -0.00, -1.00, 145.1, 146.8)">i</text><text xml:space="preserve" font-family="ArialMT,Arial" font-size="32.0" fill="#000000" transform="matrix(1.00, 0.00, -0.00, -1.00, 152.2, 146.8)">g</text><text xml:space="preserve" font-family="ArialMT,Arial" font-size="32.0" fill="#000000" transform="matrix(1.00, 0.00, -0.00, -1.00, 170.0, 146.8)">a</text><text xml:space="preserve" font-family="ArialMT,Arial" font-size="32.0" fill="#000000" transform="matrix(1.00, 0.00, -0.00, -1.00, 187.8, 146.8)">t</text><text xml:space="preserve" font-family="ArialMT,Arial" font-size="32.0" fill="#000000" transform="matrix(1.00, 0.00, -0.00, -1.00, 196.7, 146.8)">i</text><text xml:space="preserve" font-family="ArialMT,Arial" font-size="32.0" fill="#000000" transform="matrix(1.00, 0.00, -0.00, -1.00, 203.8, 146.8)">o</text><text xml:space="preserve" font-family="ArialMT,Arial" font-size="32.0" fill="#000000" transform="matrix(1.00, 0.00, -0.00, -1.00, 221.6, 146.8)">n</text></g></svg>