<?xml version="1.0" encoding="UTF-8" standalone="no"?><svg xmlns="http://www.w3.org/2000/svg" xmlns:xlink="http://www.w3.org/1999/xlink" clip-rule="evenodd" stroke-miterlimit="10" viewBox="0 0 1024 768"><desc>SVG generated by Keynote</desc><defs></defs><g transform="matrix(1.00, 0.00, -0.00, -1.00, 0.0, 768.0)"><path d="M 0.0 768.0 L 1024.0 768.0 L 1024.0 0.0 L 0.0 0.0 Z M 0.0 768.0 " fill="#FEFFFF"></path><text xml:space="preserve" font-family="ArialMT,Arial" font-size="62.0" fill="#000000" transform="matrix(1.00, 0.00, -0.00, -1.00, 255.2, 649.8)">S</text><text xml:space="preserve" font-family="ArialMT,Arial" font-size="62.0" fill="#000000" transform="matrix(1.00, 0.00, -0.00, -1.00, 296.6, 649.8)">u</text><text xml:space="preserve" font-family="ArialMT,Arial" font-size="62.0" fill="#000000" transform="matrix(1.00, 0.00, -0.00, -1.00, 331.1, 649.8)">c</text><text xml:space="preserve" font-family="ArialMT,Arial" font-size="62.0" fill="#000000" transform="matrix(1.00, 0.00, -0.00, -1.00, 362.1, 649.8)">t</text><text xml:space="preserve" font-family="ArialMT,Arial" font-size="62.0" fill="#000000" transform="matrix(1.00, 0.00, -0.00, -1.00, 379.3, 649.8)">i</text><text xml:space="preserve" font-family="ArialMT,Arial" font-size="62.0" fill="#000000" transform="matrix(1.00, 0.00, -0.00, -1.00, 393.1, 649.8)">o</text><text xml:space="preserve" font-family="ArialMT,Arial" font-size="62.0" fill="#000000" transform="matrix(1.00, 0.00, -0.00, -1.00, 427.6, 649.8)">n</text><text xml:space="preserve" font-family="ArialMT,Arial" font-size="62.0" fill="#000000" transform="matrix(1.00, 0.00, -0.00, -1.00, 462.1, 649.8)"> </text><text xml:space="preserve" font-family="ArialMT,Arial" font-size="62.0" fill="#000000" transform="matrix(1.00, 0.00, -0.00, -1.00, 479.3, 649.8)">F</text><text xml:space="preserve" font-family="ArialMT,Arial" font-size="62.0" fill="#000000" transform="matrix(1.00, 0.00, -0.00, -1.00, 517.1, 649.8)">e</text><text xml:space="preserve" font-family="ArialMT,Arial" font-size="62.0" fill="#000000" transform="matrix(1.00, 0.00, -0.00, -1.00, 551.6, 649.8)">e</text><text xml:space="preserve" font-family="ArialMT,Arial" font-size="62.0" fill="#000000" transform="matrix(1.00, 0.00, -0.00, -1.00, 586.1, 649.8)">d</text><text xml:space="preserve" font-family="ArialMT,Arial" font-size="62.0" fill="#000000" transform="matrix(1.00, 0.00, -0.00, -1.00, 620.6, 649.8)">i</text><text xml:space="preserve" font-family="ArialMT,Arial" font-size="62.0" fill="#000000" transform="matrix(1.00, 0.00, -0.00, -1.00, 634.4, 649.8)">n</text><text xml:space="preserve" font-family="ArialMT,Arial" font-size="62.0" fill="#000000" transform="matrix(1.00, 0.00, -0.00, -1.00, 668.9, 649.8)">g</text><text xml:space="preserve" font-family="ArialMT,Arial" font-size="62.0" fill="#000000" transform="matrix(1.00, 0.00, -0.00, -1.00, 703.4, 649.8)"> </text><text xml:space="preserve" font-family="ArialMT,Arial" font-size="62.0" fill="#000000" transform="matrix(1.00, 0.00, -0.00, -1.00, 720.6, 649.8)">i</text><text xml:space="preserve" font-family="ArialMT,Arial" font-size="62.0" fill="#000000" transform="matrix(1.00, 0.00, -0.00, -1.00, 734.4, 649.8)">n</text><text xml:space="preserve" font-family="ArialMT,Arial" font-size="62.0" fill="#000000" transform="matrix(1.00, 0.00, -0.00, -1.00, 768.9, 649.8)"> </text><text xml:space="preserve" font-family="ArialMT,Arial" font-size="62.0" fill="#000000" transform="matrix(1.00, 0.00, -0.00, -1.00, 329.3, 578.8)">S</text><text xml:space="preserve" font-family="ArialMT,Arial" font-size="62.0" fill="#000000" transform="matrix(1.00, 0.00, -0.00, -1.00, 370.7, 578.8)">a</text><text xml:space="preserve" font-family="ArialMT,Arial" font-size="62.0" fill="#000000" transform="matrix(1.00, 0.00, -0.00, -1.00, 405.2, 578.8)">l</text><text xml:space="preserve" font-family="ArialMT,Arial" font-size="62.0" fill="#000000" transform="matrix(1.00, 0.00, -0.00, -1.00, 419.0, 578.8)">a</text><text xml:space="preserve" font-family="ArialMT,Arial" font-size="62.0" fill="#000000" transform="matrix(1.00, 0.00, -0.00, -1.00, 453.5, 578.8)">m</text><text xml:space="preserve" font-family="ArialMT,Arial" font-size="62.0" fill="#000000" transform="matrix(1.00, 0.00, -0.00, -1.00, 505.1, 578.8)">a</text><text xml:space="preserve" font-family="ArialMT,Arial" font-size="62.0" fill="#000000" transform="matrix(1.00, 0.00, -0.00, -1.00, 539.6, 578.8)">n</text><text xml:space="preserve" font-family="ArialMT,Arial" font-size="62.0" fill="#000000" transform="matrix(1.00, 0.00, -0.00, -1.00, 574.1, 578.8)">d</text><text xml:space="preserve" font-family="ArialMT,Arial" font-size="62.0" fill="#000000" transform="matrix(1.00, 0.00, -0.00, -1.00, 608.6, 578.8)">e</text><text xml:space="preserve" font-family="ArialMT,Arial" font-size="62.0" fill="#000000" transform="matrix(1.00, 0.00, -0.00, -1.00, 643.1, 578.8)">r</text><text xml:space="preserve" font-family="ArialMT,Arial" font-size="62.0" fill="#000000" transform="matrix(1.00, 0.00, -0.00, -1.00, 663.7, 578.8)">s</text><text xml:space="preserve" font-family="ArialMT,Arial" font-size="38.0" fill="#000000" transform="matrix(1.00, 0.00, -0.00, -1.00, 85.7, 506.7)">•</text><text xml:space="preserve" font-family="ArialMT,Arial" font-size="38.0" fill="#000000" transform="matrix(1.00, 0.00, -0.00, -1.00, 122.3, 506.7)">L</text><text xml:space="preserve" font-family="ArialMT,Arial" font-size="38.0" fill="#000000" transform="matrix(1.00, 0.00, -0.00, -1.00, 143.5, 506.7)">a</text><text xml:space="preserve" font-family="ArialMT,Arial" font-size="38.0" fill="#000000" transform="matrix(1.00, 0.00, -0.00, -1.00, 164.6, 506.7)">r</text><text xml:space="preserve" font-family="ArialMT,Arial" font-size="38.0" fill="#000000" transform="matrix(1.00, 0.00, -0.00, -1.00, 177.3, 506.7)">v</text><text xml:space="preserve" font-family="ArialMT,Arial" font-size="38.0" fill="#000000" transform="matrix(1.00, 0.00, -0.00, -1.00, 196.3, 506.7)">a</text><text xml:space="preserve" font-family="ArialMT,Arial" font-size="38.0" fill="#000000" transform="matrix(1.00, 0.00, -0.00, -1.00, 217.4, 506.7)">l</text><text xml:space="preserve" font-family="ArialMT,Arial" font-size="38.0" fill="#000000" transform="matrix(1.00, 0.00, -0.00, -1.00, 225.9, 506.7)"> </text><text xml:space="preserve" font-family="ArialMT,Arial" font-size="38.0" fill="#000000" transform="matrix(1.00, 0.00, -0.00, -1.00, 236.4, 506.7)">s</text><text xml:space="preserve" font-family="ArialMT,Arial" font-size="38.0" fill="#000000" transform="matrix(1.00, 0.00, -0.00, -1.00, 255.4, 506.7)">a</text><text xml:space="preserve" font-family="ArialMT,Arial" font-size="38.0" fill="#000000" transform="matrix(1.00, 0.00, -0.00, -1.00, 276.6, 506.7)">l</text><text xml:space="preserve" font-family="ArialMT,Arial" font-size="38.0" fill="#000000" transform="matrix(1.00, 0.00, -0.00, -1.00, 285.0, 506.7)">a</text><text xml:space="preserve" font-family="ArialMT,Arial" font-size="38.0" fill="#000000" transform="matrix(1.00, 0.00, -0.00, -1.00, 306.1, 506.7)">m</text><text xml:space="preserve" font-family="ArialMT,Arial" font-size="38.0" fill="#000000" transform="matrix(1.00, 0.00, -0.00, -1.00, 337.8, 506.7)">a</text><text xml:space="preserve" font-family="ArialMT,Arial" font-size="38.0" fill="#000000" transform="matrix(1.00, 0.00, -0.00, -1.00, 358.9, 506.7)">n</text><text xml:space="preserve" font-family="ArialMT,Arial" font-size="38.0" fill="#000000" transform="matrix(1.00, 0.00, -0.00, -1.00, 380.1, 506.7)">d</text><text xml:space="preserve" font-family="ArialMT,Arial" font-size="38.0" fill="#000000" transform="matrix(1.00, 0.00, -0.00, -1.00, 401.2, 506.7)">e</text><text xml:space="preserve" font-family="ArialMT,Arial" font-size="38.0" fill="#000000" transform="matrix(1.00, 0.00, -0.00, -1.00, 422.4, 506.7)">r</text><text xml:space="preserve" font-family="ArialMT,Arial" font-size="38.0" fill="#000000" transform="matrix(1.00, 0.00, -0.00, -1.00, 435.0, 506.7)">s</text><text xml:space="preserve" font-family="ArialMT,Arial" font-size="38.0" fill="#000000" transform="matrix(1.00, 0.00, -0.00, -1.00, 454.0, 506.7)"> </text><text xml:space="preserve" font-family="ArialMT,Arial" font-size="38.0" fill="#000000" transform="matrix(1.00, 0.00, -0.00, -1.00, 464.6, 506.7)">a</text><text xml:space="preserve" font-family="ArialMT,Arial" font-size="38.0" fill="#000000" transform="matrix(1.00, 0.00, -0.00, -1.00, 485.7, 506.7)">n</text><text xml:space="preserve" font-family="ArialMT,Arial" font-size="38.0" fill="#000000" transform="matrix(1.00, 0.00, -0.00, -1.00, 506.8, 506.7)">d</text><text xml:space="preserve" font-family="ArialMT,Arial" font-size="38.0" fill="#000000" transform="matrix(1.00, 0.00, -0.00, -1.00, 528.0, 506.7)"> </text><text xml:space="preserve" font-family="ArialMT,Arial" font-size="38.0" fill="#000000" transform="matrix(1.00, 0.00, -0.00, -1.00, 538.5, 506.7)">p</text><text xml:space="preserve" font-family="ArialMT,Arial" font-size="38.0" fill="#000000" transform="matrix(1.00, 0.00, -0.00, -1.00, 559.7, 506.7)">a</text><text xml:space="preserve" font-family="ArialMT,Arial" font-size="38.0" fill="#000000" transform="matrix(1.00, 0.00, -0.00, -1.00, 580.8, 506.7)">e</text><text xml:space="preserve" font-family="ArialMT,Arial" font-size="38.0" fill="#000000" transform="matrix(1.00, 0.00, -0.00, -1.00, 602.0, 506.7)">d</text><text xml:space="preserve" font-family="ArialMT,Arial" font-size="38.0" fill="#000000" transform="matrix(1.00, 0.00, -0.00, -1.00, 623.1, 506.7)">o</text><text xml:space="preserve" font-family="ArialMT,Arial" font-size="38.0" fill="#000000" transform="matrix(1.00, 0.00, -0.00, -1.00, 644.2, 506.7)">m</text><text xml:space="preserve" font-family="ArialMT,Arial" font-size="38.0" fill="#000000" transform="matrix(1.00, 0.00, -0.00, -1.00, 675.9, 506.7)">o</text><text xml:space="preserve" font-family="ArialMT,Arial" font-size="38.0" fill="#000000" transform="matrix(1.00, 0.00, -0.00, -1.00, 697.0, 506.7)">r</text><text xml:space="preserve" font-family="ArialMT,Arial" font-size="38.0" fill="#000000" transform="matrix(1.00, 0.00, -0.00, -1.00, 709.7, 506.7)">p</text><text xml:space="preserve" font-family="ArialMT,Arial" font-size="38.0" fill="#000000" transform="matrix(1.00, 0.00, -0.00, -1.00, 730.8, 506.7)">h</text><text xml:space="preserve" font-family="ArialMT,Arial" font-size="38.0" fill="#000000" transform="matrix(1.00, 0.00, -0.00, -1.00, 752.0, 506.7)">i</text><text xml:space="preserve" font-family="ArialMT,Arial" font-size="38.0" fill="#000000" transform="matrix(1.00, 0.00, -0.00, -1.00, 760.4, 506.7)">c</text><text xml:space="preserve" font-family="ArialMT,Arial" font-size="38.0" fill="#000000" transform="matrix(1.00, 0.00, -0.00, -1.00, 779.4, 506.7)"> </text><text xml:space="preserve" font-family="ArialMT,Arial" font-size="38.0" fill="#000000" transform="matrix(1.00, 0.00, -0.00, -1.00, 790.0, 506.7)">a</text><text xml:space="preserve" font-family="ArialMT,Arial" font-size="38.0" fill="#000000" transform="matrix(1.00, 0.00, -0.00, -1.00, 811.1, 506.7)">d</text><text xml:space="preserve" font-family="ArialMT,Arial" font-size="38.0" fill="#000000" transform="matrix(1.00, 0.00, -0.00, -1.00, 832.3, 506.7)">u</text><text xml:space="preserve" font-family="ArialMT,Arial" font-size="38.0" fill="#000000" transform="matrix(1.00, 0.00, -0.00, -1.00, 853.4, 506.7)">l</text><text xml:space="preserve" font-family="ArialMT,Arial" font-size="38.0" fill="#000000" transform="matrix(1.00, 0.00, -0.00, -1.00, 861.9, 506.7)">t</text><text xml:space="preserve" font-family="ArialMT,Arial" font-size="38.0" fill="#000000" transform="matrix(1.00, 0.00, -0.00, -1.00, 872.4, 506.7)">s</text><text xml:space="preserve" font-family="ArialMT,Arial" font-size="38.0" fill="#000000" transform="matrix(1.00, 0.00, -0.00, -1.00, 891.4, 506.7)"> </text><text xml:space="preserve" font-family="ArialMT,Arial" font-size="38.0" fill="#000000" transform="matrix(1.00, 0.00, -0.00, -1.00, 902.0, 506.7)">-</text><text xml:space="preserve" font-family="ArialMT,Arial" font-size="38.0" fill="#000000" transform="matrix(1.00, 0.00, -0.00, -1.00, 914.6, 506.7)"> </text><text xml:space="preserve" font-family="ArialMT,Arial" font-size="38.0" fill="#000000" transform="matrix(1.00, 0.00, -0.00, -1.00, 122.3, 467.9)">u</text><text xml:space="preserve" font-family="ArialMT,Arial" font-size="38.0" fill="#000000" transform="matrix(1.00, 0.00, -0.00, -1.00, 143.5, 467.9)">n</text><text xml:space="preserve" font-family="ArialMT,Arial" font-size="38.0" fill="#000000" transform="matrix(1.00, 0.00, -0.00, -1.00, 164.6, 467.9)">i</text><text xml:space="preserve" font-family="ArialMT,Arial" font-size="38.0" fill="#000000" transform="matrix(1.00, 0.00, -0.00, -1.00, 173.1, 467.9)">d</text><text xml:space="preserve" font-family="ArialMT,Arial" font-size="38.0" fill="#000000" transform="matrix(1.00, 0.00, -0.00, -1.00, 194.2, 467.9)">i</text><text xml:space="preserve" font-family="ArialMT,Arial" font-size="38.0" fill="#000000" transform="matrix(1.00, 0.00, -0.00, -1.00, 202.7, 467.9)">r</text><text xml:space="preserve" font-family="ArialMT,Arial" font-size="38.0" fill="#000000" transform="matrix(1.00, 0.00, -0.00, -1.00, 215.3, 467.9)">e</text><text xml:space="preserve" font-family="ArialMT,Arial" font-size="38.0" fill="#000000" transform="matrix(1.00, 0.00, -0.00, -1.00, 236.5, 467.9)">c</text><text xml:space="preserve" font-family="ArialMT,Arial" font-size="38.0" fill="#000000" transform="matrix(1.00, 0.00, -0.00, -1.00, 255.5, 467.9)">t</text><text xml:space="preserve" font-family="ArialMT,Arial" font-size="38.0" fill="#000000" transform="matrix(1.00, 0.00, -0.00, -1.00, 266.0, 467.9)">i</text><text xml:space="preserve" font-family="ArialMT,Arial" font-size="38.0" fill="#000000" transform="matrix(1.00, 0.00, -0.00, -1.00, 274.5, 467.9)">o</text><text xml:space="preserve" font-family="ArialMT,Arial" font-size="38.0" fill="#000000" transform="matrix(1.00, 0.00, -0.00, -1.00, 295.6, 467.9)">n</text><text xml:space="preserve" font-family="ArialMT,Arial" font-size="38.0" fill="#000000" transform="matrix(1.00, 0.00, -0.00, -1.00, 316.7, 467.9)">a</text><text xml:space="preserve" font-family="ArialMT,Arial" font-size="38.0" fill="#000000" transform="matrix(1.00, 0.00, -0.00, -1.00, 337.9, 467.9)">l</text><text xml:space="preserve" font-family="ArialMT,Arial" font-size="38.0" fill="#000000" transform="matrix(1.00, 0.00, -0.00, -1.00, 346.3, 467.9)"> </text><text xml:space="preserve" font-family="ArialMT,Arial" font-size="38.0" fill="#000000" transform="matrix(1.00, 0.00, -0.00, -1.00, 356.9, 467.9)">f</text><text xml:space="preserve" font-family="ArialMT,Arial" font-size="38.0" fill="#000000" transform="matrix(1.00, 0.00, -0.00, -1.00, 367.4, 467.9)">l</text><text xml:space="preserve" font-family="ArialMT,Arial" font-size="38.0" fill="#000000" transform="matrix(1.00, 0.00, -0.00, -1.00, 375.9, 467.9)">o</text><text xml:space="preserve" font-family="ArialMT,Arial" font-size="38.0" fill="#000000" transform="matrix(1.00, 0.00, -0.00, -1.00, 397.0, 467.9)">w</text><text xml:space="preserve" font-family="ArialMT,Arial" font-size="38.0" fill="#000000" transform="matrix(1.00, 0.00, -0.00, -1.00, 424.5, 467.9)"> </text><text xml:space="preserve" font-family="ArialMT,Arial" font-size="38.0" fill="#000000" transform="matrix(1.00, 0.00, -0.00, -1.00, 85.7, 421.7)">•</text><text xml:space="preserve" font-family="ArialMT,Arial" font-size="38.0" fill="#000000" transform="matrix(1.00, 0.00, -0.00, -1.00, 122.3, 421.7)">E</text><text xml:space="preserve" font-family="ArialMT,Arial" font-size="38.0" fill="#000000" transform="matrix(1.00, 0.00, -0.00, -1.00, 147.7, 421.7)">x</text><text xml:space="preserve" font-family="ArialMT,Arial" font-size="38.0" fill="#000000" transform="matrix(1.00, 0.00, -0.00, -1.00, 166.7, 421.7)">p</text><text xml:space="preserve" font-family="ArialMT,Arial" font-size="38.0" fill="#000000" transform="matrix(1.00, 0.00, -0.00, -1.00, 187.8, 421.7)">a</text><text xml:space="preserve" font-family="ArialMT,Arial" font-size="38.0" fill="#000000" transform="matrix(1.00, 0.00, -0.00, -1.00, 209.0, 421.7)">n</text><text xml:space="preserve" font-family="ArialMT,Arial" font-size="38.0" fill="#000000" transform="matrix(1.00, 0.00, -0.00, -1.00, 230.1, 421.7)">s</text><text xml:space="preserve" font-family="ArialMT,Arial" font-size="38.0" fill="#000000" transform="matrix(1.00, 0.00, -0.00, -1.00, 249.1, 421.7)">i</text><text xml:space="preserve" font-family="ArialMT,Arial" font-size="38.0" fill="#000000" transform="matrix(1.00, 0.00, -0.00, -1.00, 257.6, 421.7)">v</text><text xml:space="preserve" font-family="ArialMT,Arial" font-size="38.0" fill="#000000" transform="matrix(1.00, 0.00, -0.00, -1.00, 276.6, 421.7)">e</text><text xml:space="preserve" font-family="ArialMT,Arial" font-size="38.0" fill="#000000" transform="matrix(1.00, 0.00, -0.00, -1.00, 297.7, 421.7)"> </text><text xml:space="preserve" font-family="ArialMT,Arial" font-size="38.0" fill="#000000" transform="matrix(1.00, 0.00, -0.00, -1.00, 308.2, 421.7)">p</text><text xml:space="preserve" font-family="ArialMT,Arial" font-size="38.0" fill="#000000" transform="matrix(1.00, 0.00, -0.00, -1.00, 329.4, 421.7)">h</text><text xml:space="preserve" font-family="ArialMT,Arial" font-size="38.0" fill="#000000" transform="matrix(1.00, 0.00, -0.00, -1.00, 350.5, 421.7)">a</text><text xml:space="preserve" font-family="ArialMT,Arial" font-size="38.0" fill="#000000" transform="matrix(1.00, 0.00, -0.00, -1.00, 371.7, 421.7)">s</text><text xml:space="preserve" font-family="ArialMT,Arial" font-size="38.0" fill="#000000" transform="matrix(1.00, 0.00, -0.00, -1.00, 390.7, 421.7)">e</text><text xml:space="preserve" font-family="ArialMT,Arial" font-size="38.0" fill="#000000" transform="matrix(1.00, 0.00, -0.00, -1.00, 411.8, 421.7)"> </text><text xml:space="preserve" font-family="ArialMT,Arial" font-size="38.0" fill="#000000" transform="matrix(1.00, 0.00, -0.00, -1.00, 422.4, 421.7)"> </text><text xml:space="preserve" font-family="ArialMT,Arial" font-size="34.0" fill="#000000" transform="matrix(1.00, 0.00, -0.00, -1.00, 121.7, 379.5)">–</text><text xml:space="preserve" font-family="ArialMT,Arial" font-size="34.0" fill="#000000" transform="matrix(1.00, 0.00, -0.00, -1.00, 153.6, 379.5)">U</text><text xml:space="preserve" font-family="ArialMT,Arial" font-size="34.0" fill="#000000" transform="matrix(1.00, 0.00, -0.00, -1.00, 178.1, 379.5)">s</text><text xml:space="preserve" font-family="ArialMT,Arial" font-size="34.0" fill="#000000" transform="matrix(1.00, 0.00, -0.00, -1.00, 195.1, 379.5)">e</text><text xml:space="preserve" font-family="ArialMT,Arial" font-size="34.0" fill="#000000" transform="matrix(1.00, 0.00, -0.00, -1.00, 214.0, 379.5)"> </text><text xml:space="preserve" font-family="ArialMT,Arial" font-size="34.0" fill="#000000" transform="matrix(1.00, 0.00, -0.00, -1.00, 223.5, 379.5)">h</text><text xml:space="preserve" font-family="ArialMT,Arial" font-size="34.0" fill="#000000" transform="matrix(1.00, 0.00, -0.00, -1.00, 242.4, 379.5)">y</text><text xml:space="preserve" font-family="ArialMT,Arial" font-size="34.0" fill="#000000" transform="matrix(1.00, 0.00, -0.00, -1.00, 259.4, 379.5)">o</text><text xml:space="preserve" font-family="ArialMT,Arial" font-size="34.0" fill="#000000" transform="matrix(1.00, 0.00, -0.00, -1.00, 278.3, 379.5)">i</text><text xml:space="preserve" font-family="ArialMT,Arial" font-size="34.0" fill="#000000" transform="matrix(1.00, 0.00, -0.00, -1.00, 285.9, 379.5)">d</text><text xml:space="preserve" font-family="ArialMT,Arial" font-size="34.0" fill="#000000" transform="matrix(1.00, 0.00, -0.00, -1.00, 304.8, 379.5)"> </text><text xml:space="preserve" font-family="ArialMT,Arial" font-size="34.0" fill="#000000" transform="matrix(1.00, 0.00, -0.00, -1.00, 314.2, 379.5)">a</text><text xml:space="preserve" font-family="ArialMT,Arial" font-size="34.0" fill="#000000" transform="matrix(1.00, 0.00, -0.00, -1.00, 333.1, 379.5)">p</text><text xml:space="preserve" font-family="ArialMT,Arial" font-size="34.0" fill="#000000" transform="matrix(1.00, 0.00, -0.00, -1.00, 352.1, 379.5)">p</text><text xml:space="preserve" font-family="ArialMT,Arial" font-size="34.0" fill="#000000" transform="matrix(1.00, 0.00, -0.00, -1.00, 371.0, 379.5)">a</text><text xml:space="preserve" font-family="ArialMT,Arial" font-size="34.0" fill="#000000" transform="matrix(1.00, 0.00, -0.00, -1.00, 389.9, 379.5)">r</text><text xml:space="preserve" font-family="ArialMT,Arial" font-size="34.0" fill="#000000" transform="matrix(1.00, 0.00, -0.00, -1.00, 401.2, 379.5)">a</text><text xml:space="preserve" font-family="ArialMT,Arial" font-size="34.0" fill="#000000" transform="matrix(1.00, 0.00, -0.00, -1.00, 420.1, 379.5)">t</text><text xml:space="preserve" font-family="ArialMT,Arial" font-size="34.0" fill="#000000" transform="matrix(1.00, 0.00, -0.00, -1.00, 429.6, 379.5)">u</text><text xml:space="preserve" font-family="ArialMT,Arial" font-size="34.0" fill="#000000" transform="matrix(1.00, 0.00, -0.00, -1.00, 448.5, 379.5)">s</text><text xml:space="preserve" font-family="ArialMT,Arial" font-size="34.0" fill="#000000" transform="matrix(1.00, 0.00, -0.00, -1.00, 465.5, 379.5)"> </text><text xml:space="preserve" font-family="ArialMT,Arial" font-size="34.0" fill="#000000" transform="matrix(1.00, 0.00, -0.00, -1.00, 474.9, 379.5)"> </text><text xml:space="preserve" font-family="ArialMT,Arial" font-size="34.0" fill="#000000" transform="matrix(1.00, 0.00, -0.00, -1.00, 121.7, 337.9)">–</text><text xml:space="preserve" font-family="ArialMT,Arial" font-size="34.0" fill="#000000" transform="matrix(1.00, 0.00, -0.00, -1.00, 153.6, 337.9)">E</text><text xml:space="preserve" font-family="ArialMT,Arial" font-size="34.0" fill="#000000" transform="matrix(1.00, 0.00, -0.00, -1.00, 176.2, 337.9)">x</text><text xml:space="preserve" font-family="ArialMT,Arial" font-size="34.0" fill="#000000" transform="matrix(1.00, 0.00, -0.00, -1.00, 193.2, 337.9)">p</text><text xml:space="preserve" font-family="ArialMT,Arial" font-size="34.0" fill="#000000" transform="matrix(1.00, 0.00, -0.00, -1.00, 212.2, 337.9)">a</text><text xml:space="preserve" font-family="ArialMT,Arial" font-size="34.0" fill="#000000" transform="matrix(1.00, 0.00, -0.00, -1.00, 231.1, 337.9)">n</text><text xml:space="preserve" font-family="ArialMT,Arial" font-size="34.0" fill="#000000" transform="matrix(1.00, 0.00, -0.00, -1.00, 250.0, 337.9)">d</text><text xml:space="preserve" font-family="ArialMT,Arial" font-size="34.0" fill="#000000" transform="matrix(1.00, 0.00, -0.00, -1.00, 268.9, 337.9)"> </text><text xml:space="preserve" font-family="ArialMT,Arial" font-size="34.0" fill="#000000" transform="matrix(1.00, 0.00, -0.00, -1.00, 278.3, 337.9)">b</text><text xml:space="preserve" font-family="ArialMT,Arial" font-size="34.0" fill="#000000" transform="matrix(1.00, 0.00, -0.00, -1.00, 297.3, 337.9)">u</text><text xml:space="preserve" font-family="ArialMT,Arial" font-size="34.0" fill="#000000" transform="matrix(1.00, 0.00, -0.00, -1.00, 316.2, 337.9)">c</text><text xml:space="preserve" font-family="ArialMT,Arial" font-size="34.0" fill="#000000" transform="matrix(1.00, 0.00, -0.00, -1.00, 333.2, 337.9)">c</text><text xml:space="preserve" font-family="ArialMT,Arial" font-size="34.0" fill="#000000" transform="matrix(1.00, 0.00, -0.00, -1.00, 350.2, 337.9)">o</text><text xml:space="preserve" font-family="ArialMT,Arial" font-size="34.0" fill="#000000" transform="matrix(1.00, 0.00, -0.00, -1.00, 369.1, 337.9)">p</text><text xml:space="preserve" font-family="ArialMT,Arial" font-size="34.0" fill="#000000" transform="matrix(1.00, 0.00, -0.00, -1.00, 388.0, 337.9)">h</text><text xml:space="preserve" font-family="ArialMT,Arial" font-size="34.0" fill="#000000" transform="matrix(1.00, 0.00, -0.00, -1.00, 406.9, 337.9)">a</text><text xml:space="preserve" font-family="ArialMT,Arial" font-size="34.0" fill="#000000" transform="matrix(1.00, 0.00, -0.00, -1.00, 425.8, 337.9)">r</text><text xml:space="preserve" font-family="ArialMT,Arial" font-size="34.0" fill="#000000" transform="matrix(1.00, 0.00, -0.00, -1.00, 437.2, 337.9)">y</text><text xml:space="preserve" font-family="ArialMT,Arial" font-size="34.0" fill="#000000" transform="matrix(1.00, 0.00, -0.00, -1.00, 454.2, 337.9)">n</text><text xml:space="preserve" font-family="ArialMT,Arial" font-size="34.0" fill="#000000" transform="matrix(1.00, 0.00, -0.00, -1.00, 473.1, 337.9)">g</text><text xml:space="preserve" font-family="ArialMT,Arial" font-size="34.0" fill="#000000" transform="matrix(1.00, 0.00, -0.00, -1.00, 492.0, 337.9)">e</text><text xml:space="preserve" font-family="ArialMT,Arial" font-size="34.0" fill="#000000" transform="matrix(1.00, 0.00, -0.00, -1.00, 510.9, 337.9)">a</text><text xml:space="preserve" font-family="ArialMT,Arial" font-size="34.0" fill="#000000" transform="matrix(1.00, 0.00, -0.00, -1.00, 529.8, 337.9)">l</text><text xml:space="preserve" font-family="ArialMT,Arial" font-size="34.0" fill="#000000" transform="matrix(1.00, 0.00, -0.00, -1.00, 537.4, 337.9)"> </text><text xml:space="preserve" font-family="ArialMT,Arial" font-size="34.0" fill="#000000" transform="matrix(1.00, 0.00, -0.00, -1.00, 546.8, 337.9)">c</text><text xml:space="preserve" font-family="ArialMT,Arial" font-size="34.0" fill="#000000" transform="matrix(1.00, 0.00, -0.00, -1.00, 563.8, 337.9)">a</text><text xml:space="preserve" font-family="ArialMT,Arial" font-size="34.0" fill="#000000" transform="matrix(1.00, 0.00, -0.00, -1.00, 582.7, 337.9)">v</text><text xml:space="preserve" font-family="ArialMT,Arial" font-size="34.0" fill="#000000" transform="matrix(1.00, 0.00, -0.00, -1.00, 599.7, 337.9)">i</text><text xml:space="preserve" font-family="ArialMT,Arial" font-size="34.0" fill="#000000" transform="matrix(1.00, 0.00, -0.00, -1.00, 607.3, 337.9)">t</text><text xml:space="preserve" font-family="ArialMT,Arial" font-size="34.0" fill="#000000" transform="matrix(1.00, 0.00, -0.00, -1.00, 616.7, 337.9)">y</text><text xml:space="preserve" font-family="ArialMT,Arial" font-size="34.0" fill="#000000" transform="matrix(1.00, 0.00, -0.00, -1.00, 633.7, 337.9)"> </text><text xml:space="preserve" font-family="ArialMT,Arial" font-size="38.0" fill="#000000" transform="matrix(1.00, 0.00, -0.00, -1.00, 85.7, 292.2)">•</text><text xml:space="preserve" font-family="ArialMT,Arial" font-size="38.0" fill="#000000" transform="matrix(1.00, 0.00, -0.00, -1.00, 122.3, 292.2)">C</text><text xml:space="preserve" font-family="ArialMT,Arial" font-size="38.0" fill="#000000" transform="matrix(1.00, 0.00, -0.00, -1.00, 149.8, 292.2)">o</text><text xml:space="preserve" font-family="ArialMT,Arial" font-size="38.0" fill="#000000" transform="matrix(1.00, 0.00, -0.00, -1.00, 170.9, 292.2)">m</text><text xml:space="preserve" font-family="ArialMT,Arial" font-size="38.0" fill="#000000" transform="matrix(1.00, 0.00, -0.00, -1.00, 202.6, 292.2)">p</text><text xml:space="preserve" font-family="ArialMT,Arial" font-size="38.0" fill="#000000" transform="matrix(1.00, 0.00, -0.00, -1.00, 223.7, 292.2)">r</text><text xml:space="preserve" font-family="ArialMT,Arial" font-size="38.0" fill="#000000" transform="matrix(1.00, 0.00, -0.00, -1.00, 236.4, 292.2)">e</text><text xml:space="preserve" font-family="ArialMT,Arial" font-size="38.0" fill="#000000" transform="matrix(1.00, 0.00, -0.00, -1.00, 257.5, 292.2)">s</text><text xml:space="preserve" font-family="ArialMT,Arial" font-size="38.0" fill="#000000" transform="matrix(1.00, 0.00, -0.00, -1.00, 276.5, 292.2)">s</text><text xml:space="preserve" font-family="ArialMT,Arial" font-size="38.0" fill="#000000" transform="matrix(1.00, 0.00, -0.00, -1.00, 295.5, 292.2)">i</text><text xml:space="preserve" font-family="ArialMT,Arial" font-size="38.0" fill="#000000" transform="matrix(1.00, 0.00, -0.00, -1.00, 304.0, 292.2)">v</text><text xml:space="preserve" font-family="ArialMT,Arial" font-size="38.0" fill="#000000" transform="matrix(1.00, 0.00, -0.00, -1.00, 323.0, 292.2)">e</text><text xml:space="preserve" font-family="ArialMT,Arial" font-size="38.0" fill="#000000" transform="matrix(1.00, 0.00, -0.00, -1.00, 344.1, 292.2)"> </text><text xml:space="preserve" font-family="ArialMT,Arial" font-size="38.0" fill="#000000" transform="matrix(1.00, 0.00, -0.00, -1.00, 354.7, 292.2)">p</text><text xml:space="preserve" font-family="ArialMT,Arial" font-size="38.0" fill="#000000" transform="matrix(1.00, 0.00, -0.00, -1.00, 375.8, 292.2)">h</text><text xml:space="preserve" font-family="ArialMT,Arial" font-size="38.0" fill="#000000" transform="matrix(1.00, 0.00, -0.00, -1.00, 396.9, 292.2)">a</text><text xml:space="preserve" font-family="ArialMT,Arial" font-size="38.0" fill="#000000" transform="matrix(1.00, 0.00, -0.00, -1.00, 418.1, 292.2)">s</text><text xml:space="preserve" font-family="ArialMT,Arial" font-size="38.0" fill="#000000" transform="matrix(1.00, 0.00, -0.00, -1.00, 437.1, 292.2)">e</text><text xml:space="preserve" font-family="ArialMT,Arial" font-size="38.0" fill="#000000" transform="matrix(1.00, 0.00, -0.00, -1.00, 458.2, 292.2)"> </text><text xml:space="preserve" font-family="ArialMT,Arial" font-size="34.0" fill="#000000" transform="matrix(1.00, 0.00, -0.00, -1.00, 121.7, 250.0)">–</text><text xml:space="preserve" font-family="ArialMT,Arial" font-size="34.0" fill="#000000" transform="matrix(1.00, 0.00, -0.00, -1.00, 153.6, 250.0)">A</text><text xml:space="preserve" font-family="ArialMT,Arial" font-size="34.0" fill="#000000" transform="matrix(1.00, 0.00, -0.00, -1.00, 176.2, 250.0)">d</text><text xml:space="preserve" font-family="ArialMT,Arial" font-size="34.0" fill="#000000" transform="matrix(1.00, 0.00, -0.00, -1.00, 195.2, 250.0)">d</text><text xml:space="preserve" font-family="ArialMT,Arial" font-size="34.0" fill="#000000" transform="matrix(1.00, 0.00, -0.00, -1.00, 214.1, 250.0)">u</text><text xml:space="preserve" font-family="ArialMT,Arial" font-size="34.0" fill="#000000" transform="matrix(1.00, 0.00, -0.00, -1.00, 233.0, 250.0)">c</text><text xml:space="preserve" font-family="ArialMT,Arial" font-size="34.0" fill="#000000" transform="matrix(1.00, 0.00, -0.00, -1.00, 250.0, 250.0)">t</text><text xml:space="preserve" font-family="ArialMT,Arial" font-size="34.0" fill="#000000" transform="matrix(1.00, 0.00, -0.00, -1.00, 259.4, 250.0)">o</text><text xml:space="preserve" font-family="ArialMT,Arial" font-size="34.0" fill="#000000" transform="matrix(1.00, 0.00, -0.00, -1.00, 278.3, 250.0)">r</text><text xml:space="preserve" font-family="ArialMT,Arial" font-size="34.0" fill="#000000" transform="matrix(1.00, 0.00, -0.00, -1.00, 289.7, 250.0)"> </text><text xml:space="preserve" font-family="ArialMT,Arial" font-size="34.0" fill="#000000" transform="matrix(1.00, 0.00, -0.00, -1.00, 299.1, 250.0)">m</text><text xml:space="preserve" font-family="ArialMT,Arial" font-size="34.0" fill="#000000" transform="matrix(1.00, 0.00, -0.00, -1.00, 327.4, 250.0)">a</text><text xml:space="preserve" font-family="ArialMT,Arial" font-size="34.0" fill="#000000" transform="matrix(1.00, 0.00, -0.00, -1.00, 346.3, 250.0)">n</text><text xml:space="preserve" font-family="ArialMT,Arial" font-size="34.0" fill="#000000" transform="matrix(1.00, 0.00, -0.00, -1.00, 365.3, 250.0)">d</text><text xml:space="preserve" font-family="ArialMT,Arial" font-size="34.0" fill="#000000" transform="matrix(1.00, 0.00, -0.00, -1.00, 384.2, 250.0)">i</text><text xml:space="preserve" font-family="ArialMT,Arial" font-size="34.0" fill="#000000" transform="matrix(1.00, 0.00, -0.00, -1.00, 391.7, 250.0)">b</text><text xml:space="preserve" font-family="ArialMT,Arial" font-size="34.0" fill="#000000" transform="matrix(1.00, 0.00, -0.00, -1.00, 410.7, 250.0)">l</text><text xml:space="preserve" font-family="ArialMT,Arial" font-size="34.0" fill="#000000" transform="matrix(1.00, 0.00, -0.00, -1.00, 418.2, 250.0)">u</text><text xml:space="preserve" font-family="ArialMT,Arial" font-size="34.0" fill="#000000" transform="matrix(1.00, 0.00, -0.00, -1.00, 437.1, 250.0)">l</text><text xml:space="preserve" font-family="ArialMT,Arial" font-size="34.0" fill="#000000" transform="matrix(1.00, 0.00, -0.00, -1.00, 444.7, 250.0)">a</text><text xml:space="preserve" font-family="ArialMT,Arial" font-size="34.0" fill="#000000" transform="matrix(1.00, 0.00, -0.00, -1.00, 463.6, 250.0)">e</text><text xml:space="preserve" font-family="ArialMT,Arial" font-size="34.0" fill="#000000" transform="matrix(1.00, 0.00, -0.00, -1.00, 482.5, 250.0)"> </text><text xml:space="preserve" font-family="ArialMT,Arial" font-size="34.0" fill="#000000" transform="matrix(1.00, 0.00, -0.00, -1.00, 492.0, 250.0)">m</text><text xml:space="preserve" font-family="ArialMT,Arial" font-size="34.0" fill="#000000" transform="matrix(1.00, 0.00, -0.00, -1.00, 520.3, 250.0)">u</text><text xml:space="preserve" font-family="ArialMT,Arial" font-size="34.0" fill="#000000" transform="matrix(1.00, 0.00, -0.00, -1.00, 539.2, 250.0)">s</text><text xml:space="preserve" font-family="ArialMT,Arial" font-size="34.0" fill="#000000" transform="matrix(1.00, 0.00, -0.00, -1.00, 556.2, 250.0)">c</text><text xml:space="preserve" font-family="ArialMT,Arial" font-size="34.0" fill="#000000" transform="matrix(1.00, 0.00, -0.00, -1.00, 573.2, 250.0)">l</text><text xml:space="preserve" font-family="ArialMT,Arial" font-size="34.0" fill="#000000" transform="matrix(1.00, 0.00, -0.00, -1.00, 580.8, 250.0)">e</text><text xml:space="preserve" font-family="ArialMT,Arial" font-size="34.0" fill="#000000" transform="matrix(1.00, 0.00, -0.00, -1.00, 599.7, 250.0)">s</text><text xml:space="preserve" font-family="ArialMT,Arial" font-size="34.0" fill="#000000" transform="matrix(1.00, 0.00, -0.00, -1.00, 616.7, 250.0)"> </text><text xml:space="preserve" font-family="ArialMT,Arial" font-size="34.0" fill="#000000" transform="matrix(1.00, 0.00, -0.00, -1.00, 121.7, 208.4)">–</text><text xml:space="preserve" font-family="ArialMT,Arial" font-size="34.0" fill="#000000" transform="matrix(1.00, 0.00, -0.00, -1.00, 153.6, 208.4)">W</text><text xml:space="preserve" font-family="ArialMT,Arial" font-size="34.0" fill="#000000" transform="matrix(1.00, 0.00, -0.00, -1.00, 184.4, 208.4)">a</text><text xml:space="preserve" font-family="ArialMT,Arial" font-size="34.0" fill="#000000" transform="matrix(1.00, 0.00, -0.00, -1.00, 203.3, 208.4)">t</text><text xml:space="preserve" font-family="ArialMT,Arial" font-size="34.0" fill="#000000" transform="matrix(1.00, 0.00, -0.00, -1.00, 212.7, 208.4)">e</text><text xml:space="preserve" font-family="ArialMT,Arial" font-size="34.0" fill="#000000" transform="matrix(1.00, 0.00, -0.00, -1.00, 231.7, 208.4)">r</text><text xml:space="preserve" font-family="ArialMT,Arial" font-size="34.0" fill="#000000" transform="matrix(1.00, 0.00, -0.00, -1.00, 243.0, 208.4)"> </text><text xml:space="preserve" font-family="ArialMT,Arial" font-size="34.0" fill="#000000" transform="matrix(1.00, 0.00, -0.00, -1.00, 252.4, 208.4)">f</text><text xml:space="preserve" font-family="ArialMT,Arial" font-size="34.0" fill="#000000" transform="matrix(1.00, 0.00, -0.00, -1.00, 261.9, 208.4)">o</text><text xml:space="preserve" font-family="ArialMT,Arial" font-size="34.0" fill="#000000" transform="matrix(1.00, 0.00, -0.00, -1.00, 280.8, 208.4)">r</text><text xml:space="preserve" font-family="ArialMT,Arial" font-size="34.0" fill="#000000" transform="matrix(1.00, 0.00, -0.00, -1.00, 292.1, 208.4)">c</text><text xml:space="preserve" font-family="ArialMT,Arial" font-size="34.0" fill="#000000" transform="matrix(1.00, 0.00, -0.00, -1.00, 309.1, 208.4)">e</text><text xml:space="preserve" font-family="ArialMT,Arial" font-size="34.0" fill="#000000" transform="matrix(1.00, 0.00, -0.00, -1.00, 328.0, 208.4)">d</text><text xml:space="preserve" font-family="ArialMT,Arial" font-size="34.0" fill="#000000" transform="matrix(1.00, 0.00, -0.00, -1.00, 346.9, 208.4)"> </text><text xml:space="preserve" font-family="ArialMT,Arial" font-size="34.0" fill="#000000" transform="matrix(1.00, 0.00, -0.00, -1.00, 356.4, 208.4)">t</text><text xml:space="preserve" font-family="ArialMT,Arial" font-size="34.0" fill="#000000" transform="matrix(1.00, 0.00, -0.00, -1.00, 365.8, 208.4)">h</text><text xml:space="preserve" font-family="ArialMT,Arial" font-size="34.0" fill="#000000" transform="matrix(1.00, 0.00, -0.00, -1.00, 384.7, 208.4)">r</text><text xml:space="preserve" font-family="ArialMT,Arial" font-size="34.0" fill="#000000" transform="matrix(1.00, 0.00, -0.00, -1.00, 396.0, 208.4)">o</text><text xml:space="preserve" font-family="ArialMT,Arial" font-size="34.0" fill="#000000" transform="matrix(1.00, 0.00, -0.00, -1.00, 415.0, 208.4)">u</text><text xml:space="preserve" font-family="ArialMT,Arial" font-size="34.0" fill="#000000" transform="matrix(1.00, 0.00, -0.00, -1.00, 433.9, 208.4)">g</text><text xml:space="preserve" font-family="ArialMT,Arial" font-size="34.0" fill="#000000" transform="matrix(1.00, 0.00, -0.00, -1.00, 452.8, 208.4)">h</text><text xml:space="preserve" font-family="ArialMT,Arial" font-size="34.0" fill="#000000" transform="matrix(1.00, 0.00, -0.00, -1.00, 471.7, 208.4)"> </text><text xml:space="preserve" font-family="ArialMT,Arial" font-size="34.0" fill="#000000" transform="matrix(1.00, 0.00, -0.00, -1.00, 481.2, 208.4)">b</text><text xml:space="preserve" font-family="ArialMT,Arial" font-size="34.0" fill="#000000" transform="matrix(1.00, 0.00, -0.00, -1.00, 500.1, 208.4)">r</text><text xml:space="preserve" font-family="ArialMT,Arial" font-size="34.0" fill="#000000" transform="matrix(1.00, 0.00, -0.00, -1.00, 511.4, 208.4)">a</text><text xml:space="preserve" font-family="ArialMT,Arial" font-size="34.0" fill="#000000" transform="matrix(1.00, 0.00, -0.00, -1.00, 530.3, 208.4)">n</text><text xml:space="preserve" font-family="ArialMT,Arial" font-size="34.0" fill="#000000" transform="matrix(1.00, 0.00, -0.00, -1.00, 549.2, 208.4)">c</text><text xml:space="preserve" font-family="ArialMT,Arial" font-size="34.0" fill="#000000" transform="matrix(1.00, 0.00, -0.00, -1.00, 566.2, 208.4)">h</text><text xml:space="preserve" font-family="ArialMT,Arial" font-size="34.0" fill="#000000" transform="matrix(1.00, 0.00, -0.00, -1.00, 585.1, 208.4)">i</text><text xml:space="preserve" font-family="ArialMT,Arial" font-size="34.0" fill="#000000" transform="matrix(1.00, 0.00, -0.00, -1.00, 592.7, 208.4)">a</text><text xml:space="preserve" font-family="ArialMT,Arial" font-size="34.0" fill="#000000" transform="matrix(1.00, 0.00, -0.00, -1.00, 611.6, 208.4)">l</text><text xml:space="preserve" font-family="ArialMT,Arial" font-size="34.0" fill="#000000" transform="matrix(1.00, 0.00, -0.00, -1.00, 619.2, 208.4)"> </text><text xml:space="preserve" font-family="ArialMT,Arial" font-size="34.0" fill="#000000" transform="matrix(1.00, 0.00, -0.00, -1.00, 628.6, 208.4)">s</text><text xml:space="preserve" font-family="ArialMT,Arial" font-size="34.0" fill="#000000" transform="matrix(1.00, 0.00, -0.00, -1.00, 645.6, 208.4)">l</text><text xml:space="preserve" font-family="ArialMT,Arial" font-size="34.0" fill="#000000" transform="matrix(1.00, 0.00, -0.00, -1.00, 653.2, 208.4)">i</text><text xml:space="preserve" font-family="ArialMT,Arial" font-size="34.0" fill="#000000" transform="matrix(1.00, 0.00, -0.00, -1.00, 660.7, 208.4)">t</text><text xml:space="preserve" font-family="ArialMT,Arial" font-size="34.0" fill="#000000" transform="matrix(1.00, 0.00, -0.00, -1.00, 670.2, 208.4)">s</text></g></svg>