<?xml version="1.0" encoding="UTF-8" standalone="no"?><svg xmlns="http://www.w3.org/2000/svg" xmlns:xlink="http://www.w3.org/1999/xlink" clip-rule="evenodd" stroke-miterlimit="4.00" viewBox="0 0 1024 768"><desc>SVG generated by Keynote</desc><defs></defs><g transform="matrix(1.00, 0.00, -0.00, -1.00, 0.0, 768.0)"><g><clipPath id="clip-238"><path d="M 0.0 768.0 L 1024.0 768.0 L 1024.0 0.0 L 0.0 0.0 Z M 0.0 768.0 "></path></clipPath><g clip-path="url(#clip-238)"><image xlink:href="../../C9BB2F21-7097-4279-8A02-40FCEE817F8A/assets/5E504543DA7BCE62C2A0475F0A9742EF.jpeg" width="1365.00" height="767.00" transform="matrix(2.81, 0.00, -0.00, -2.82, -1408.0, 1464.0)"></image></g></g><path d="M 0.0 0.0 L 980.0 0.0 L 980.0 726.0 L 0.0 726.0 Z M 0.0 0.0 " fill="none" stroke="#A2A0A6" stroke-width="2.00" transform="matrix(1.00, 0.00, 0.00, -1.00, 22.3, 746.0)"></path><path d="M 0.0 0.0 L 981.1 0.0 " fill="none" stroke="#A2A0A6" stroke-width="2.00" transform="matrix(1.00, 0.00, 0.00, -1.00, 21.9, 110.0)"></path><g><clipPath id="clip-239"><path d="M 677.0 425.0 L 995.0 425.0 L 995.0 117.0 L 677.0 117.0 Z M 677.0 425.0 "></path></clipPath><g clip-path="url(#clip-239)"><image xlink:href="222856CD04573C397687EB1EA27FA4C2.jpeg" width="318.00" height="477.00" transform="matrix(1.00, 0.00, -0.00, -1.00, 677.0, 509.0)"></image></g></g><g><clipPath id="clip-240"><path d="M 29.0 739.0 L 670.0 739.0 L 670.0 117.0 L 29.0 117.0 Z M 29.0 739.0 "></path></clipPath><g clip-path="url(#clip-240)"><image xlink:href="55287EE798E13F432021AF1401ADE997.jpeg" width="239.00" height="358.00" transform="matrix(1.71, 0.00, -0.00, -1.71, 145.0, 734.0)"></image></g></g><g><clipPath id="clip-241"><path d="M 677.0 739.0 L 995.0 739.0 L 995.0 431.0 L 677.0 431.0 Z M 677.0 739.0 "></path></clipPath><g clip-path="url(#clip-241)"><image xlink:href="CB0000D2194C1876018A71728D1FD7D4.jpeg" width="318.00" height="477.00" transform="matrix(1.00, 0.00, -0.00, -1.00, 677.0, 823.0)"></image></g></g><text xml:space="preserve" font-family="HelveticaNeue-CondensedBold" font-weight="bold" font-size="37.8" fill="#DDDCDE" transform="matrix(1.00, 0.00, -0.00, -1.00, 33.0, 69.0)">M</text><text xml:space="preserve" font-family="HelveticaNeue-CondensedBold" font-weight="bold" font-size="37.8" fill="#DDDCDE" transform="matrix(1.00, 0.00, -0.00, -1.00, 61.0, 69.0)">I</text><text xml:space="preserve" font-family="HelveticaNeue-CondensedBold" font-weight="bold" font-size="37.8" fill="#DDDCDE" transform="matrix(1.00, 0.00, -0.00, -1.00, 70.7, 69.0)">C</text><text xml:space="preserve" font-family="HelveticaNeue-CondensedBold" font-weight="bold" font-size="37.8" fill="#DDDCDE" transform="matrix(1.00, 0.00, -0.00, -1.00, 91.0, 69.0)">O</text><text xml:space="preserve" font-family="HelveticaNeue-CondensedBold" font-weight="bold" font-size="37.8" fill="#DDDCDE" transform="matrix(1.00, 0.00, -0.00, -1.00, 112.0, 69.0)">N</text><text xml:space="preserve" font-family="HelveticaNeue-CondensedBold" font-weight="bold" font-size="37.8" fill="#DDDCDE" transform="matrix(1.00, 0.00, -0.00, -1.00, 133.7, 69.0)">I</text><text xml:space="preserve" font-family="HelveticaNeue-CondensedBold" font-weight="bold" font-size="37.8" fill="#DDDCDE" transform="matrix(1.00, 0.00, -0.00, -1.00, 143.5, 69.0)">A</text><text xml:space="preserve" font-family="HelveticaNeue-CondensedBold" font-weight="bold" font-size="37.8" fill="#DDDCDE" transform="matrix(1.00, 0.00, -0.00, -1.00, 164.5, 69.0)">,</text><text xml:space="preserve" font-family="HelveticaNeue-CondensedBold" font-weight="bold" font-size="37.8" fill="#DDDCDE" transform="matrix(1.00, 0.00, -0.00, -1.00, 172.2, 69.0)"> </text><text xml:space="preserve" font-family="HelveticaNeue-CondensedBold" font-weight="bold" font-size="37.8" fill="#DDDCDE" transform="matrix(1.00, 0.00, -0.00, -1.00, 179.9, 69.0)">T</text><text xml:space="preserve" font-family="HelveticaNeue-CondensedBold" font-weight="bold" font-size="37.8" fill="#DDDCDE" transform="matrix(1.00, 0.00, -0.00, -1.00, 198.0, 69.0)">H</text><text xml:space="preserve" font-family="HelveticaNeue-CondensedBold" font-weight="bold" font-size="37.8" fill="#DDDCDE" transform="matrix(1.00, 0.00, -0.00, -1.00, 219.0, 69.0)">E</text><text xml:space="preserve" font-family="HelveticaNeue-CondensedBold" font-weight="bold" font-size="37.8" fill="#DDDCDE" transform="matrix(1.00, 0.00, -0.00, -1.00, 237.2, 69.0)"> </text><text xml:space="preserve" font-family="HelveticaNeue-CondensedBold" font-weight="bold" font-size="37.8" fill="#DDDCDE" transform="matrix(1.00, 0.00, -0.00, -1.00, 244.9, 69.0)">“</text><text xml:space="preserve" font-family="HelveticaNeue-CondensedBold" font-weight="bold" font-size="37.8" fill="#DDDCDE" transform="matrix(1.00, 0.00, -0.00, -1.00, 262.4, 69.0)">G</text><text xml:space="preserve" font-family="HelveticaNeue-CondensedBold" font-weight="bold" font-size="37.8" fill="#DDDCDE" transform="matrix(1.00, 0.00, -0.00, -1.00, 283.4, 69.0)">R</text><text xml:space="preserve" font-family="HelveticaNeue-CondensedBold" font-weight="bold" font-size="37.8" fill="#DDDCDE" transform="matrix(1.00, 0.00, -0.00, -1.00, 304.4, 69.0)">E</text><text xml:space="preserve" font-family="HelveticaNeue-CondensedBold" font-weight="bold" font-size="37.8" fill="#DDDCDE" transform="matrix(1.00, 0.00, -0.00, -1.00, 322.6, 69.0)">E</text><text xml:space="preserve" font-family="HelveticaNeue-CondensedBold" font-weight="bold" font-size="37.8" fill="#DDDCDE" transform="matrix(1.00, 0.00, -0.00, -1.00, 340.8, 69.0)">N</text><text xml:space="preserve" font-family="HelveticaNeue-CondensedBold" font-weight="bold" font-size="37.8" fill="#DDDCDE" transform="matrix(1.00, 0.00, -0.00, -1.00, 362.5, 69.0)"> </text><text xml:space="preserve" font-family="HelveticaNeue-CondensedBold" font-weight="bold" font-size="37.8" fill="#DDDCDE" transform="matrix(1.00, 0.00, -0.00, -1.00, 371.5, 69.0)">C</text><text xml:space="preserve" font-family="HelveticaNeue-CondensedBold" font-weight="bold" font-size="37.8" fill="#DDDCDE" transform="matrix(1.00, 0.00, -0.00, -1.00, 391.8, 69.0)">A</text><text xml:space="preserve" font-family="HelveticaNeue-CondensedBold" font-weight="bold" font-size="37.8" fill="#DDDCDE" transform="matrix(1.00, 0.00, -0.00, -1.00, 412.9, 69.0)">N</text><text xml:space="preserve" font-family="HelveticaNeue-CondensedBold" font-weight="bold" font-size="37.8" fill="#DDDCDE" transform="matrix(1.00, 0.00, -0.00, -1.00, 434.5, 69.0)">C</text><text xml:space="preserve" font-family="HelveticaNeue-CondensedBold" font-weight="bold" font-size="37.8" fill="#DDDCDE" transform="matrix(1.00, 0.00, -0.00, -1.00, 454.8, 69.0)">E</text><text xml:space="preserve" font-family="HelveticaNeue-CondensedBold" font-weight="bold" font-size="37.8" fill="#DDDCDE" transform="matrix(1.00, 0.00, -0.00, -1.00, 473.0, 69.0)">R</text><text xml:space="preserve" font-family="HelveticaNeue-CondensedBold" font-weight="bold" font-size="37.8" fill="#DDDCDE" transform="matrix(1.00, 0.00, -0.00, -1.00, 494.0, 69.0)">”</text><text xml:space="preserve" font-family="HelveticaNeue-CondensedBold" font-weight="bold" font-size="21.1" fill="#6596B5" transform="matrix(1.00, 0.00, -0.00, -1.00, 33.0, 33.0)">H</text><text xml:space="preserve" font-family="HelveticaNeue-CondensedBold" font-weight="bold" font-size="21.1" fill="#6596B5" transform="matrix(1.00, 0.00, -0.00, -1.00, 44.7, 33.0)">U</text><text xml:space="preserve" font-family="HelveticaNeue-CondensedBold" font-weight="bold" font-size="21.1" fill="#6596B5" transform="matrix(1.00, 0.00, -0.00, -1.00, 56.1, 33.0)">G</text><text xml:space="preserve" font-family="HelveticaNeue-CondensedBold" font-weight="bold" font-size="21.1" fill="#6596B5" transform="matrix(1.00, 0.00, -0.00, -1.00, 67.8, 33.0)">E</text><text xml:space="preserve" font-family="HelveticaNeue-CondensedBold" font-weight="bold" font-size="21.1" fill="#6596B5" transform="matrix(1.00, 0.00, -0.00, -1.00, 78.0, 33.0)"> </text><text xml:space="preserve" font-family="HelveticaNeue-CondensedBold" font-weight="bold" font-size="21.1" fill="#6596B5" transform="matrix(1.00, 0.00, -0.00, -1.00, 83.1, 33.0)">P</text><text xml:space="preserve" font-family="HelveticaNeue-CondensedBold" font-weight="bold" font-size="21.1" fill="#6596B5" transform="matrix(1.00, 0.00, -0.00, -1.00, 94.0, 33.0)">R</text><text xml:space="preserve" font-family="HelveticaNeue-CondensedBold" font-weight="bold" font-size="21.1" fill="#6596B5" transform="matrix(1.00, 0.00, -0.00, -1.00, 105.8, 33.0)">O</text><text xml:space="preserve" font-family="HelveticaNeue-CondensedBold" font-weight="bold" font-size="21.1" fill="#6596B5" transform="matrix(1.00, 0.00, -0.00, -1.00, 117.5, 33.0)">B</text><text xml:space="preserve" font-family="HelveticaNeue-CondensedBold" font-weight="bold" font-size="21.1" fill="#6596B5" transform="matrix(1.00, 0.00, -0.00, -1.00, 129.3, 33.0)">L</text><text xml:space="preserve" font-family="HelveticaNeue-CondensedBold" font-weight="bold" font-size="21.1" fill="#6596B5" transform="matrix(1.00, 0.00, -0.00, -1.00, 139.0, 33.0)">E</text><text xml:space="preserve" font-family="HelveticaNeue-CondensedBold" font-weight="bold" font-size="21.1" fill="#6596B5" transform="matrix(1.00, 0.00, -0.00, -1.00, 149.2, 33.0)">M</text><text xml:space="preserve" font-family="HelveticaNeue-CondensedBold" font-weight="bold" font-size="21.1" fill="#6596B5" transform="matrix(1.00, 0.00, -0.00, -1.00, 164.8, 33.0)"> </text><text xml:space="preserve" font-family="HelveticaNeue-CondensedBold" font-weight="bold" font-size="21.1" fill="#6596B5" transform="matrix(1.00, 0.00, -0.00, -1.00, 169.9, 33.0)">I</text><text xml:space="preserve" font-family="HelveticaNeue-CondensedBold" font-weight="bold" font-size="21.1" fill="#6596B5" transform="matrix(1.00, 0.00, -0.00, -1.00, 175.3, 33.0)">N</text><text xml:space="preserve" font-family="HelveticaNeue-CondensedBold" font-weight="bold" font-size="21.1" fill="#6596B5" transform="matrix(1.00, 0.00, -0.00, -1.00, 187.5, 33.0)"> </text><text xml:space="preserve" font-family="HelveticaNeue-CondensedBold" font-weight="bold" font-size="21.1" fill="#6596B5" transform="matrix(1.00, 0.00, -0.00, -1.00, 191.8, 33.0)">T</text><text xml:space="preserve" font-family="HelveticaNeue-CondensedBold" font-weight="bold" font-size="21.1" fill="#6596B5" transform="matrix(1.00, 0.00, -0.00, -1.00, 200.7, 33.0)">A</text><text xml:space="preserve" font-family="HelveticaNeue-CondensedBold" font-weight="bold" font-size="21.1" fill="#6596B5" transform="matrix(1.00, 0.00, -0.00, -1.00, 212.5, 33.0)">H</text><text xml:space="preserve" font-family="HelveticaNeue-CondensedBold" font-weight="bold" font-size="21.1" fill="#6596B5" transform="matrix(1.00, 0.00, -0.00, -1.00, 224.2, 33.0)">I</text><text xml:space="preserve" font-family="HelveticaNeue-CondensedBold" font-weight="bold" font-size="21.1" fill="#6596B5" transform="matrix(1.00, 0.00, -0.00, -1.00, 229.7, 33.0)">T</text><text xml:space="preserve" font-family="HelveticaNeue-CondensedBold" font-weight="bold" font-size="21.1" fill="#6596B5" transform="matrix(1.00, 0.00, -0.00, -1.00, 239.8, 33.0)">I</text><text xml:space="preserve" font-family="HelveticaNeue-CondensedBold" font-weight="bold" font-size="21.1" fill="#6596B5" transform="matrix(1.00, 0.00, -0.00, -1.00, 245.3, 33.0)">;</text><text xml:space="preserve" font-family="HelveticaNeue-CondensedBold" font-weight="bold" font-size="21.1" fill="#6596B5" transform="matrix(1.00, 0.00, -0.00, -1.00, 250.3, 33.0)"> </text><text xml:space="preserve" font-family="HelveticaNeue-CondensedBold" font-weight="bold" font-size="21.1" fill="#6596B5" transform="matrix(1.00, 0.00, -0.00, -1.00, 255.4, 33.0)">S</text><text xml:space="preserve" font-family="HelveticaNeue-CondensedBold" font-weight="bold" font-size="21.1" fill="#6596B5" transform="matrix(1.00, 0.00, -0.00, -1.00, 266.4, 33.0)">P</text><text xml:space="preserve" font-family="HelveticaNeue-CondensedBold" font-weight="bold" font-size="21.1" fill="#6596B5" transform="matrix(1.00, 0.00, -0.00, -1.00, 277.3, 33.0)">R</text><text xml:space="preserve" font-family="HelveticaNeue-CondensedBold" font-weight="bold" font-size="21.1" fill="#6596B5" transform="matrix(1.00, 0.00, -0.00, -1.00, 289.1, 33.0)">E</text><text xml:space="preserve" font-family="HelveticaNeue-CondensedBold" font-weight="bold" font-size="21.1" fill="#6596B5" transform="matrix(1.00, 0.00, -0.00, -1.00, 299.2, 33.0)">A</text><text xml:space="preserve" font-family="HelveticaNeue-CondensedBold" font-weight="bold" font-size="21.1" fill="#6596B5" transform="matrix(1.00, 0.00, -0.00, -1.00, 311.0, 33.0)">D</text><text xml:space="preserve" font-family="HelveticaNeue-CondensedBold" font-weight="bold" font-size="21.1" fill="#6596B5" transform="matrix(1.00, 0.00, -0.00, -1.00, 323.1, 33.0)">I</text><text xml:space="preserve" font-family="HelveticaNeue-CondensedBold" font-weight="bold" font-size="21.1" fill="#6596B5" transform="matrix(1.00, 0.00, -0.00, -1.00, 328.5, 33.0)">N</text><text xml:space="preserve" font-family="HelveticaNeue-CondensedBold" font-weight="bold" font-size="21.1" fill="#6596B5" transform="matrix(1.00, 0.00, -0.00, -1.00, 340.7, 33.0)">G</text><text xml:space="preserve" font-family="HelveticaNeue-CondensedBold" font-weight="bold" font-size="21.1" fill="#6596B5" transform="matrix(1.00, 0.00, -0.00, -1.00, 352.4, 33.0)"> </text><text xml:space="preserve" font-family="HelveticaNeue-CondensedBold" font-weight="bold" font-size="21.1" fill="#6596B5" transform="matrix(1.00, 0.00, -0.00, -1.00, 357.5, 33.0)">I</text><text xml:space="preserve" font-family="HelveticaNeue-CondensedBold" font-weight="bold" font-size="21.1" fill="#6596B5" transform="matrix(1.00, 0.00, -0.00, -1.00, 362.9, 33.0)">N</text><text xml:space="preserve" font-family="HelveticaNeue-CondensedBold" font-weight="bold" font-size="21.1" fill="#6596B5" transform="matrix(1.00, 0.00, -0.00, -1.00, 375.0, 33.0)"> </text><text xml:space="preserve" font-family="HelveticaNeue-CondensedBold" font-weight="bold" font-size="21.1" fill="#6596B5" transform="matrix(1.00, 0.00, -0.00, -1.00, 380.1, 33.0)">H</text><text xml:space="preserve" font-family="HelveticaNeue-CondensedBold" font-weight="bold" font-size="21.1" fill="#6596B5" transform="matrix(1.00, 0.00, -0.00, -1.00, 391.8, 33.0)">A</text><text xml:space="preserve" font-family="HelveticaNeue-CondensedBold" font-weight="bold" font-size="21.1" fill="#6596B5" transform="matrix(1.00, 0.00, -0.00, -1.00, 403.2, 33.0)">W</text><text xml:space="preserve" font-family="HelveticaNeue-CondensedBold" font-weight="bold" font-size="21.1" fill="#6596B5" transform="matrix(1.00, 0.00, -0.00, -1.00, 418.8, 33.0)">A</text><text xml:space="preserve" font-family="HelveticaNeue-CondensedBold" font-weight="bold" font-size="21.1" fill="#6596B5" transform="matrix(1.00, 0.00, -0.00, -1.00, 430.6, 33.0)">I</text><text xml:space="preserve" font-family="HelveticaNeue-CondensedBold" font-weight="bold" font-size="21.1" fill="#6596B5" transform="matrix(1.00, 0.00, -0.00, -1.00, 436.0, 33.0)">I</text></g></svg>