<?xml version="1.0" encoding="UTF-8" standalone="no"?><svg xmlns="http://www.w3.org/2000/svg" xmlns:xlink="http://www.w3.org/1999/xlink" clip-rule="evenodd" stroke-miterlimit="10" viewBox="0 0 1024 768"><desc>SVG generated by Keynote</desc><defs></defs><g transform="matrix(1.00, 0.00, -0.00, -1.00, 0.0, 768.0)"><path d="M 0.0 768.0 L 1024.0 768.0 L 1024.0 0.0 L 0.0 0.0 Z M 0.0 768.0 " fill="#FEFFFF"></path><text xml:space="preserve" font-family="ArialMT,Arial" font-size="62.0" fill="#000000" transform="matrix(1.00, 0.00, -0.00, -1.00, 255.2, 649.8)">S</text><text xml:space="preserve" font-family="ArialMT,Arial" font-size="62.0" fill="#000000" transform="matrix(1.00, 0.00, -0.00, -1.00, 296.6, 649.8)">u</text><text xml:space="preserve" font-family="ArialMT,Arial" font-size="62.0" fill="#000000" transform="matrix(1.00, 0.00, -0.00, -1.00, 331.1, 649.8)">c</text><text xml:space="preserve" font-family="ArialMT,Arial" font-size="62.0" fill="#000000" transform="matrix(1.00, 0.00, -0.00, -1.00, 362.1, 649.8)">t</text><text xml:space="preserve" font-family="ArialMT,Arial" font-size="62.0" fill="#000000" transform="matrix(1.00, 0.00, -0.00, -1.00, 379.3, 649.8)">i</text><text xml:space="preserve" font-family="ArialMT,Arial" font-size="62.0" fill="#000000" transform="matrix(1.00, 0.00, -0.00, -1.00, 393.1, 649.8)">o</text><text xml:space="preserve" font-family="ArialMT,Arial" font-size="62.0" fill="#000000" transform="matrix(1.00, 0.00, -0.00, -1.00, 427.6, 649.8)">n</text><text xml:space="preserve" font-family="ArialMT,Arial" font-size="62.0" fill="#000000" transform="matrix(1.00, 0.00, -0.00, -1.00, 462.1, 649.8)"> </text><text xml:space="preserve" font-family="ArialMT,Arial" font-size="62.0" fill="#000000" transform="matrix(1.00, 0.00, -0.00, -1.00, 479.3, 649.8)">F</text><text xml:space="preserve" font-family="ArialMT,Arial" font-size="62.0" fill="#000000" transform="matrix(1.00, 0.00, -0.00, -1.00, 517.1, 649.8)">e</text><text xml:space="preserve" font-family="ArialMT,Arial" font-size="62.0" fill="#000000" transform="matrix(1.00, 0.00, -0.00, -1.00, 551.6, 649.8)">e</text><text xml:space="preserve" font-family="ArialMT,Arial" font-size="62.0" fill="#000000" transform="matrix(1.00, 0.00, -0.00, -1.00, 586.1, 649.8)">d</text><text xml:space="preserve" font-family="ArialMT,Arial" font-size="62.0" fill="#000000" transform="matrix(1.00, 0.00, -0.00, -1.00, 620.6, 649.8)">i</text><text xml:space="preserve" font-family="ArialMT,Arial" font-size="62.0" fill="#000000" transform="matrix(1.00, 0.00, -0.00, -1.00, 634.4, 649.8)">n</text><text xml:space="preserve" font-family="ArialMT,Arial" font-size="62.0" fill="#000000" transform="matrix(1.00, 0.00, -0.00, -1.00, 668.9, 649.8)">g</text><text xml:space="preserve" font-family="ArialMT,Arial" font-size="62.0" fill="#000000" transform="matrix(1.00, 0.00, -0.00, -1.00, 703.4, 649.8)"> </text><text xml:space="preserve" font-family="ArialMT,Arial" font-size="62.0" fill="#000000" transform="matrix(1.00, 0.00, -0.00, -1.00, 720.6, 649.8)">i</text><text xml:space="preserve" font-family="ArialMT,Arial" font-size="62.0" fill="#000000" transform="matrix(1.00, 0.00, -0.00, -1.00, 734.4, 649.8)">n</text><text xml:space="preserve" font-family="ArialMT,Arial" font-size="62.0" fill="#000000" transform="matrix(1.00, 0.00, -0.00, -1.00, 768.9, 649.8)"> </text><text xml:space="preserve" font-family="ArialMT,Arial" font-size="62.0" fill="#000000" transform="matrix(1.00, 0.00, -0.00, -1.00, 329.3, 578.8)">S</text><text xml:space="preserve" font-family="ArialMT,Arial" font-size="62.0" fill="#000000" transform="matrix(1.00, 0.00, -0.00, -1.00, 370.7, 578.8)">a</text><text xml:space="preserve" font-family="ArialMT,Arial" font-size="62.0" fill="#000000" transform="matrix(1.00, 0.00, -0.00, -1.00, 405.2, 578.8)">l</text><text xml:space="preserve" font-family="ArialMT,Arial" font-size="62.0" fill="#000000" transform="matrix(1.00, 0.00, -0.00, -1.00, 419.0, 578.8)">a</text><text xml:space="preserve" font-family="ArialMT,Arial" font-size="62.0" fill="#000000" transform="matrix(1.00, 0.00, -0.00, -1.00, 453.5, 578.8)">m</text><text xml:space="preserve" font-family="ArialMT,Arial" font-size="62.0" fill="#000000" transform="matrix(1.00, 0.00, -0.00, -1.00, 505.1, 578.8)">a</text><text xml:space="preserve" font-family="ArialMT,Arial" font-size="62.0" fill="#000000" transform="matrix(1.00, 0.00, -0.00, -1.00, 539.6, 578.8)">n</text><text xml:space="preserve" font-family="ArialMT,Arial" font-size="62.0" fill="#000000" transform="matrix(1.00, 0.00, -0.00, -1.00, 574.1, 578.8)">d</text><text xml:space="preserve" font-family="ArialMT,Arial" font-size="62.0" fill="#000000" transform="matrix(1.00, 0.00, -0.00, -1.00, 608.6, 578.8)">e</text><text xml:space="preserve" font-family="ArialMT,Arial" font-size="62.0" fill="#000000" transform="matrix(1.00, 0.00, -0.00, -1.00, 643.1, 578.8)">r</text><text xml:space="preserve" font-family="ArialMT,Arial" font-size="62.0" fill="#000000" transform="matrix(1.00, 0.00, -0.00, -1.00, 663.7, 578.8)">s</text></g></svg>