<?xml version="1.0" encoding="UTF-8" standalone="no"?><svg xmlns="http://www.w3.org/2000/svg" xmlns:xlink="http://www.w3.org/1999/xlink" clip-rule="evenodd" stroke-miterlimit="10" viewBox="0 0 224 507"><desc>SVG generated by Keynote</desc><defs></defs><g transform="matrix(1.00, 0.00, -0.00, -1.00, 0.0, 507.0)"><g><clipPath id="clip0x600001aa39c0"><path d="M 8.5 459.5 L 122.5 459.5 L 122.5 506.5 L 8.5 506.5 Z M 8.5 459.5 "></path></clipPath><g clip-path="url(#clip0x600001aa39c0)"><path d="M 0.5 0.5 L 107.5 0.5 L 107.5 40.5 L 0.5 40.5 Z M 0.0 0.0 " fill="none" stroke="#E22400" stroke-width="5.00" transform="matrix(1.00, 0.00, 0.00, -1.00, 12.0, 503.0)"></path></g></g><g><clipPath id="clip0x600001aa3420"><path d="M 153.5 471.0 L 191.0 471.0 L 191.0 495.0 L 153.5 495.0 Z M 153.5 471.0 "></path></clipPath><g clip-path="url(#clip0x600001aa3420)"><text xml:space="preserve" font-family="GillSans,Gill Sans" font-size="14.0" fill="#E22400" transform="matrix(1.00, 0.00, -0.00, -1.00, 158.0, 478.2)">l</text><text xml:space="preserve" font-family="GillSans,Gill Sans" font-size="14.0" fill="#E22400" transform="matrix(1.00, 0.00, -0.00, -1.00, 161.1, 478.2)">u</text><text xml:space="preserve" font-family="GillSans,Gill Sans" font-size="14.0" fill="#E22400" transform="matrix(1.00, 0.00, -0.00, -1.00, 168.1, 478.2)">n</text><text xml:space="preserve" font-family="GillSans,Gill Sans" font-size="14.0" fill="#E22400" transform="matrix(1.00, 0.00, -0.00, -1.00, 175.1, 478.2)">g</text><text xml:space="preserve" font-family="GillSans,Gill Sans" font-size="14.0" fill="#E22400" transform="matrix(1.00, 0.00, -0.00, -1.00, 181.1, 478.2)">s</text></g></g><g><clipPath id="clip0x600001aa2be0"><path d="M 8.5 348.5 L 122.5 348.5 L 122.5 395.5 L 8.5 395.5 Z M 8.5 348.5 "></path></clipPath><g clip-path="url(#clip0x600001aa2be0)"><path d="M 0.5 0.5 L 107.5 0.5 L 107.5 40.5 L 0.5 40.5 Z M 0.0 0.0 " fill="none" stroke="#E22400" stroke-width="5.00" transform="matrix(1.00, 0.00, 0.00, -1.00, 12.0, 392.0)"></path></g></g><g><clipPath id="clip0x600001aa2940"><path d="M 127.2 352.0 L 218.2 352.0 L 218.2 392.0 L 127.2 392.0 Z M 127.2 352.0 "></path></clipPath><g clip-path="url(#clip0x600001aa2940)"><text xml:space="preserve" font-family="GillSans,Gill Sans" font-size="14.0" fill="#E22400" transform="matrix(1.00, 0.00, -0.00, -1.00, 135.0, 375.2)">s</text><text xml:space="preserve" font-family="GillSans,Gill Sans" font-size="14.0" fill="#E22400" transform="matrix(1.00, 0.00, -0.00, -1.00, 140.2, 375.2)">w</text><text xml:space="preserve" font-family="GillSans,Gill Sans" font-size="14.0" fill="#E22400" transform="matrix(1.00, 0.00, -0.00, -1.00, 150.3, 375.2)">i</text><text xml:space="preserve" font-family="GillSans,Gill Sans" font-size="14.0" fill="#E22400" transform="matrix(1.00, 0.00, -0.00, -1.00, 153.4, 375.2)">m</text><text xml:space="preserve" font-family="GillSans,Gill Sans" font-size="14.0" fill="#E22400" transform="matrix(1.00, 0.00, -0.00, -1.00, 164.1, 375.2)"> </text><text xml:space="preserve" font-family="GillSans,Gill Sans" font-size="14.0" fill="#E22400" transform="matrix(1.00, 0.00, -0.00, -1.00, 168.0, 375.2)">b</text><text xml:space="preserve" font-family="GillSans,Gill Sans" font-size="14.0" fill="#E22400" transform="matrix(1.00, 0.00, -0.00, -1.00, 175.0, 375.2)">l</text><text xml:space="preserve" font-family="GillSans,Gill Sans" font-size="14.0" fill="#E22400" transform="matrix(1.00, 0.00, -0.00, -1.00, 178.1, 375.2)">a</text><text xml:space="preserve" font-family="GillSans,Gill Sans" font-size="14.0" fill="#E22400" transform="matrix(1.00, 0.00, -0.00, -1.00, 184.1, 375.2)">d</text><text xml:space="preserve" font-family="GillSans,Gill Sans" font-size="14.0" fill="#E22400" transform="matrix(1.00, 0.00, -0.00, -1.00, 191.1, 375.2)">d</text><text xml:space="preserve" font-family="GillSans,Gill Sans" font-size="14.0" fill="#E22400" transform="matrix(1.00, 0.00, -0.00, -1.00, 198.2, 375.2)">e</text><text xml:space="preserve" font-family="GillSans,Gill Sans" font-size="14.0" fill="#E22400" transform="matrix(1.00, 0.00, -0.00, -1.00, 204.9, 375.2)">r</text><text xml:space="preserve" font-family="GillSans,Gill Sans" font-size="14.0" fill="#E22400" transform="matrix(1.00, 0.00, -0.00, -1.00, 210.5, 375.2)"> </text><text xml:space="preserve" font-family="GillSans,Gill Sans" font-size="14.0" fill="#E22400" transform="matrix(1.00, 0.00, -0.00, -1.00, 153.6, 359.2)">a</text><text xml:space="preserve" font-family="GillSans,Gill Sans" font-size="14.0" fill="#E22400" transform="matrix(1.00, 0.00, -0.00, -1.00, 159.5, 359.2)">s</text><text xml:space="preserve" font-family="GillSans,Gill Sans" font-size="14.0" fill="#E22400" transform="matrix(1.00, 0.00, -0.00, -1.00, 164.9, 359.2)"> </text><text xml:space="preserve" font-family="GillSans,Gill Sans" font-size="14.0" fill="#E22400" transform="matrix(1.00, 0.00, -0.00, -1.00, 168.8, 359.2)">l</text><text xml:space="preserve" font-family="GillSans,Gill Sans" font-size="14.0" fill="#E22400" transform="matrix(1.00, 0.00, -0.00, -1.00, 171.9, 359.2)">u</text><text xml:space="preserve" font-family="GillSans,Gill Sans" font-size="14.0" fill="#E22400" transform="matrix(1.00, 0.00, -0.00, -1.00, 178.9, 359.2)">n</text><text xml:space="preserve" font-family="GillSans,Gill Sans" font-size="14.0" fill="#E22400" transform="matrix(1.00, 0.00, -0.00, -1.00, 185.9, 359.2)">g</text></g></g><g><clipPath id="clip0x600001aa59a0"><path d="M 8.5 281.5 L 122.5 281.5 L 122.5 328.5 L 8.5 328.5 Z M 8.5 281.5 "></path></clipPath><g clip-path="url(#clip0x600001aa59a0)"><path d="M 0.5 0.5 L 107.5 0.5 L 107.5 40.5 L 0.5 40.5 Z M 0.0 0.0 " fill="none" stroke="#E22400" stroke-width="5.00" transform="matrix(1.00, 0.00, 0.00, -1.00, 12.0, 325.0)"></path></g></g><g><clipPath id="clip0x600001aa5be0"><path d="M 122.2 285.0 L 225.5 285.0 L 225.5 325.0 L 122.2 325.0 Z M 122.2 285.0 "></path></clipPath><g clip-path="url(#clip0x600001aa5be0)"><text xml:space="preserve" font-family="GillSans,Gill Sans" font-size="14.0" fill="#E22400" transform="matrix(1.00, 0.00, -0.00, -1.00, 135.0, 308.2)">s</text><text xml:space="preserve" font-family="GillSans,Gill Sans" font-size="14.0" fill="#E22400" transform="matrix(1.00, 0.00, -0.00, -1.00, 140.2, 308.2)">w</text><text xml:space="preserve" font-family="GillSans,Gill Sans" font-size="14.0" fill="#E22400" transform="matrix(1.00, 0.00, -0.00, -1.00, 150.3, 308.2)">i</text><text xml:space="preserve" font-family="GillSans,Gill Sans" font-size="14.0" fill="#E22400" transform="matrix(1.00, 0.00, -0.00, -1.00, 153.4, 308.2)">m</text><text xml:space="preserve" font-family="GillSans,Gill Sans" font-size="14.0" fill="#E22400" transform="matrix(1.00, 0.00, -0.00, -1.00, 164.1, 308.2)"> </text><text xml:space="preserve" font-family="GillSans,Gill Sans" font-size="14.0" fill="#E22400" transform="matrix(1.00, 0.00, -0.00, -1.00, 168.0, 308.2)">b</text><text xml:space="preserve" font-family="GillSans,Gill Sans" font-size="14.0" fill="#E22400" transform="matrix(1.00, 0.00, -0.00, -1.00, 175.0, 308.2)">l</text><text xml:space="preserve" font-family="GillSans,Gill Sans" font-size="14.0" fill="#E22400" transform="matrix(1.00, 0.00, -0.00, -1.00, 178.1, 308.2)">a</text><text xml:space="preserve" font-family="GillSans,Gill Sans" font-size="14.0" fill="#E22400" transform="matrix(1.00, 0.00, -0.00, -1.00, 184.1, 308.2)">d</text><text xml:space="preserve" font-family="GillSans,Gill Sans" font-size="14.0" fill="#E22400" transform="matrix(1.00, 0.00, -0.00, -1.00, 191.1, 308.2)">d</text><text xml:space="preserve" font-family="GillSans,Gill Sans" font-size="14.0" fill="#E22400" transform="matrix(1.00, 0.00, -0.00, -1.00, 198.2, 308.2)">e</text><text xml:space="preserve" font-family="GillSans,Gill Sans" font-size="14.0" fill="#E22400" transform="matrix(1.00, 0.00, -0.00, -1.00, 204.9, 308.2)">r</text><text xml:space="preserve" font-family="GillSans,Gill Sans" font-size="14.0" fill="#E22400" transform="matrix(1.00, 0.00, -0.00, -1.00, 210.5, 308.2)"> </text><text xml:space="preserve" font-family="GillSans,Gill Sans" font-size="14.0" fill="#E22400" transform="matrix(1.00, 0.00, -0.00, -1.00, 153.6, 292.2)">a</text><text xml:space="preserve" font-family="GillSans,Gill Sans" font-size="14.0" fill="#E22400" transform="matrix(1.00, 0.00, -0.00, -1.00, 159.5, 292.2)">s</text><text xml:space="preserve" font-family="GillSans,Gill Sans" font-size="14.0" fill="#E22400" transform="matrix(1.00, 0.00, -0.00, -1.00, 164.9, 292.2)"> </text><text xml:space="preserve" font-family="GillSans,Gill Sans" font-size="14.0" fill="#E22400" transform="matrix(1.00, 0.00, -0.00, -1.00, 168.8, 292.2)">l</text><text xml:space="preserve" font-family="GillSans,Gill Sans" font-size="14.0" fill="#E22400" transform="matrix(1.00, 0.00, -0.00, -1.00, 171.9, 292.2)">u</text><text xml:space="preserve" font-family="GillSans,Gill Sans" font-size="14.0" fill="#E22400" transform="matrix(1.00, 0.00, -0.00, -1.00, 178.9, 292.2)">n</text><text xml:space="preserve" font-family="GillSans,Gill Sans" font-size="14.0" fill="#E22400" transform="matrix(1.00, 0.00, -0.00, -1.00, 185.9, 292.2)">g</text></g></g><g><clipPath id="clip0x600001aa57c0"><path d="M 0.5 140.5 L 130.5 140.5 L 130.5 187.5 L 0.5 187.5 Z M 0.5 140.5 "></path></clipPath><g clip-path="url(#clip0x600001aa57c0)"><path d="M 0.5 0.5 L 123.5 0.5 L 123.5 40.5 L 0.5 40.5 Z M 0.0 0.0 " fill="none" stroke="#E22400" stroke-width="5.00" transform="matrix(1.00, 0.00, 0.00, -1.00, 4.0, 184.0)"></path></g></g><g><clipPath id="clip0x600001aa8700"><path d="M 136.3 152.0 L 209.1 152.0 L 209.1 176.0 L 136.3 176.0 Z M 136.3 152.0 "></path></clipPath><g clip-path="url(#clip0x600001aa8700)"><text xml:space="preserve" font-family="GillSans,Gill Sans" font-size="14.0" fill="#E22400" transform="matrix(1.00, 0.00, -0.00, -1.00, 140.8, 159.2)">“</text><text xml:space="preserve" font-family="GillSans,Gill Sans" font-size="14.0" fill="#E22400" transform="matrix(1.00, 0.00, -0.00, -1.00, 146.8, 159.2)">f</text><text xml:space="preserve" font-family="GillSans,Gill Sans" font-size="14.0" fill="#E22400" transform="matrix(1.00, 0.00, -0.00, -1.00, 150.3, 159.2)">a</text><text xml:space="preserve" font-family="GillSans,Gill Sans" font-size="14.0" fill="#E22400" transform="matrix(1.00, 0.00, -0.00, -1.00, 156.3, 159.2)">t</text><text xml:space="preserve" font-family="GillSans,Gill Sans" font-size="14.0" fill="#E22400" transform="matrix(1.00, 0.00, -0.00, -1.00, 160.9, 159.2)">t</text><text xml:space="preserve" font-family="GillSans,Gill Sans" font-size="14.0" fill="#E22400" transform="matrix(1.00, 0.00, -0.00, -1.00, 165.6, 159.2)">y</text><text xml:space="preserve" font-family="GillSans,Gill Sans" font-size="14.0" fill="#E22400" transform="matrix(1.00, 0.00, -0.00, -1.00, 171.7, 159.2)"> </text><text xml:space="preserve" font-family="GillSans,Gill Sans" font-size="14.0" fill="#E22400" transform="matrix(1.00, 0.00, -0.00, -1.00, 175.6, 159.2)">l</text><text xml:space="preserve" font-family="GillSans,Gill Sans" font-size="14.0" fill="#E22400" transform="matrix(1.00, 0.00, -0.00, -1.00, 178.7, 159.2)">u</text><text xml:space="preserve" font-family="GillSans,Gill Sans" font-size="14.0" fill="#E22400" transform="matrix(1.00, 0.00, -0.00, -1.00, 185.7, 159.2)">n</text><text xml:space="preserve" font-family="GillSans,Gill Sans" font-size="14.0" fill="#E22400" transform="matrix(1.00, 0.00, -0.00, -1.00, 192.7, 159.2)">g</text><text xml:space="preserve" font-family="GillSans,Gill Sans" font-size="14.0" fill="#E22400" transform="matrix(1.00, 0.00, -0.00, -1.00, 198.6, 159.2)">”</text></g></g><g><clipPath id="clip0x608001aabb80"><path d="M 8.5 66.5 L 122.5 66.5 L 122.5 113.5 L 8.5 113.5 Z M 8.5 66.5 "></path></clipPath><g clip-path="url(#clip0x608001aabb80)"><path d="M 0.5 0.5 L 107.5 0.5 L 107.5 40.5 L 0.5 40.5 Z M 0.0 0.0 " fill="none" stroke="#E22400" stroke-width="5.00" transform="matrix(1.00, 0.00, 0.00, -1.00, 12.0, 110.0)"></path></g></g><g><clipPath id="clip0x608001aab8e0"><path d="M 154.0 78.0 L 191.5 78.0 L 191.5 102.0 L 154.0 102.0 Z M 154.0 78.0 "></path></clipPath><g clip-path="url(#clip0x608001aab8e0)"><text xml:space="preserve" font-family="GillSans,Gill Sans" font-size="14.0" fill="#E22400" transform="matrix(1.00, 0.00, -0.00, -1.00, 158.5, 85.2)">l</text><text xml:space="preserve" font-family="GillSans,Gill Sans" font-size="14.0" fill="#E22400" transform="matrix(1.00, 0.00, -0.00, -1.00, 161.6, 85.2)">u</text><text xml:space="preserve" font-family="GillSans,Gill Sans" font-size="14.0" fill="#E22400" transform="matrix(1.00, 0.00, -0.00, -1.00, 168.6, 85.2)">n</text><text xml:space="preserve" font-family="GillSans,Gill Sans" font-size="14.0" fill="#E22400" transform="matrix(1.00, 0.00, -0.00, -1.00, 175.6, 85.2)">g</text><text xml:space="preserve" font-family="GillSans,Gill Sans" font-size="14.0" fill="#E22400" transform="matrix(1.00, 0.00, -0.00, -1.00, 181.5, 85.2)">s</text></g></g><g><clipPath id="clip0x608001aaa320"><path d="M 8.5 0.5 L 122.5 0.5 L 122.5 47.5 L 8.5 47.5 Z M 8.5 0.5 "></path></clipPath><g clip-path="url(#clip0x608001aaa320)"><path d="M 0.5 0.5 L 107.5 0.5 L 107.5 40.5 L 0.5 40.5 Z M 0.0 0.0 " fill="none" stroke="#E22400" stroke-width="5.00" transform="matrix(1.00, 0.00, 0.00, -1.00, 12.0, 44.0)"></path></g></g><g><clipPath id="clip0x608001aac120"><path d="M 154.0 12.0 L 191.5 12.0 L 191.5 36.0 L 154.0 36.0 Z M 154.0 12.0 "></path></clipPath><g clip-path="url(#clip0x608001aac120)"><text xml:space="preserve" font-family="GillSans,Gill Sans" font-size="14.0" fill="#E22400" transform="matrix(1.00, 0.00, -0.00, -1.00, 158.5, 19.2)">l</text><text xml:space="preserve" font-family="GillSans,Gill Sans" font-size="14.0" fill="#E22400" transform="matrix(1.00, 0.00, -0.00, -1.00, 161.6, 19.2)">u</text><text xml:space="preserve" font-family="GillSans,Gill Sans" font-size="14.0" fill="#E22400" transform="matrix(1.00, 0.00, -0.00, -1.00, 168.6, 19.2)">n</text><text xml:space="preserve" font-family="GillSans,Gill Sans" font-size="14.0" fill="#E22400" transform="matrix(1.00, 0.00, -0.00, -1.00, 175.6, 19.2)">g</text><text xml:space="preserve" font-family="GillSans,Gill Sans" font-size="14.0" fill="#E22400" transform="matrix(1.00, 0.00, -0.00, -1.00, 181.5, 19.2)">s</text></g></g></g></svg>