<?xml version="1.0" encoding="UTF-8" standalone="no"?><svg xmlns="http://www.w3.org/2000/svg" xmlns:xlink="http://www.w3.org/1999/xlink" clip-rule="evenodd" stroke-miterlimit="10" viewBox="0 0 208 243"><desc>SVG generated by Keynote</desc><defs></defs><g transform="matrix(1.00, 0.00, -0.00, -1.00, 0.0, 243.0)"><g><clipPath id="clip0x6080014b7100"><path d="M 0.5 195.5 L 114.5 195.5 L 114.5 242.5 L 0.5 242.5 Z M 0.5 195.5 "></path></clipPath><g clip-path="url(#clip0x6080014b7100)"><path d="M 0.5 0.5 L 107.5 0.5 L 107.5 40.5 L 0.5 40.5 Z M 0.0 0.0 " fill="none" stroke="#0056D5" stroke-width="5.00" transform="matrix(1.00, 0.00, 0.00, -1.00, 4.0, 239.0)"></path></g></g><g><clipPath id="clip0x6080014b77c0"><path d="M 0.5 0.5 L 114.5 0.5 L 114.5 47.5 L 0.5 47.5 Z M 0.5 0.5 "></path></clipPath><g clip-path="url(#clip0x6080014b77c0)"><path d="M 0.5 0.5 L 107.5 0.5 L 107.5 40.5 L 0.5 40.5 Z M 0.0 0.0 " fill="none" stroke="#0056D5" stroke-width="5.00" transform="matrix(1.00, 0.00, 0.00, -1.00, 4.0, 44.0)"></path></g></g><g><clipPath id="clip0x6080014b7a00"><path d="M 123.0 207.0 L 207.5 207.0 L 207.5 231.0 L 123.0 231.0 Z M 123.0 207.0 "></path></clipPath><g clip-path="url(#clip0x6080014b7a00)"><text xml:space="preserve" font-family="GillSans,Gill Sans" font-size="14.0" fill="#0056D5" transform="matrix(1.00, 0.00, -0.00, -1.00, 127.5, 214.2)">s</text><text xml:space="preserve" font-family="GillSans,Gill Sans" font-size="14.0" fill="#0056D5" transform="matrix(1.00, 0.00, -0.00, -1.00, 132.7, 214.2)">w</text><text xml:space="preserve" font-family="GillSans,Gill Sans" font-size="14.0" fill="#0056D5" transform="matrix(1.00, 0.00, -0.00, -1.00, 142.8, 214.2)">i</text><text xml:space="preserve" font-family="GillSans,Gill Sans" font-size="14.0" fill="#0056D5" transform="matrix(1.00, 0.00, -0.00, -1.00, 145.9, 214.2)">m</text><text xml:space="preserve" font-family="GillSans,Gill Sans" font-size="14.0" fill="#0056D5" transform="matrix(1.00, 0.00, -0.00, -1.00, 156.7, 214.2)"> </text><text xml:space="preserve" font-family="GillSans,Gill Sans" font-size="14.0" fill="#0056D5" transform="matrix(1.00, 0.00, -0.00, -1.00, 160.5, 214.2)">b</text><text xml:space="preserve" font-family="GillSans,Gill Sans" font-size="14.0" fill="#0056D5" transform="matrix(1.00, 0.00, -0.00, -1.00, 167.5, 214.2)">l</text><text xml:space="preserve" font-family="GillSans,Gill Sans" font-size="14.0" fill="#0056D5" transform="matrix(1.00, 0.00, -0.00, -1.00, 170.6, 214.2)">a</text><text xml:space="preserve" font-family="GillSans,Gill Sans" font-size="14.0" fill="#0056D5" transform="matrix(1.00, 0.00, -0.00, -1.00, 176.6, 214.2)">d</text><text xml:space="preserve" font-family="GillSans,Gill Sans" font-size="14.0" fill="#0056D5" transform="matrix(1.00, 0.00, -0.00, -1.00, 183.6, 214.2)">d</text><text xml:space="preserve" font-family="GillSans,Gill Sans" font-size="14.0" fill="#0056D5" transform="matrix(1.00, 0.00, -0.00, -1.00, 190.7, 214.2)">e</text><text xml:space="preserve" font-family="GillSans,Gill Sans" font-size="14.0" fill="#0056D5" transform="matrix(1.00, 0.00, -0.00, -1.00, 197.4, 214.2)">r</text></g></g><g><clipPath id="clip0x6080014b8060"><path d="M 122.0 9.0 L 206.5 9.0 L 206.5 33.0 L 122.0 33.0 Z M 122.0 9.0 "></path></clipPath><g clip-path="url(#clip0x6080014b8060)"><text xml:space="preserve" font-family="GillSans,Gill Sans" font-size="14.0" fill="#0056D5" transform="matrix(1.00, 0.00, -0.00, -1.00, 126.5, 16.2)">s</text><text xml:space="preserve" font-family="GillSans,Gill Sans" font-size="14.0" fill="#0056D5" transform="matrix(1.00, 0.00, -0.00, -1.00, 131.7, 16.2)">w</text><text xml:space="preserve" font-family="GillSans,Gill Sans" font-size="14.0" fill="#0056D5" transform="matrix(1.00, 0.00, -0.00, -1.00, 141.8, 16.2)">i</text><text xml:space="preserve" font-family="GillSans,Gill Sans" font-size="14.0" fill="#0056D5" transform="matrix(1.00, 0.00, -0.00, -1.00, 144.9, 16.2)">m</text><text xml:space="preserve" font-family="GillSans,Gill Sans" font-size="14.0" fill="#0056D5" transform="matrix(1.00, 0.00, -0.00, -1.00, 155.7, 16.2)"> </text><text xml:space="preserve" font-family="GillSans,Gill Sans" font-size="14.0" fill="#0056D5" transform="matrix(1.00, 0.00, -0.00, -1.00, 159.6, 16.2)">b</text><text xml:space="preserve" font-family="GillSans,Gill Sans" font-size="14.0" fill="#0056D5" transform="matrix(1.00, 0.00, -0.00, -1.00, 166.6, 16.2)">l</text><text xml:space="preserve" font-family="GillSans,Gill Sans" font-size="14.0" fill="#0056D5" transform="matrix(1.00, 0.00, -0.00, -1.00, 169.6, 16.2)">a</text><text xml:space="preserve" font-family="GillSans,Gill Sans" font-size="14.0" fill="#0056D5" transform="matrix(1.00, 0.00, -0.00, -1.00, 175.6, 16.2)">d</text><text xml:space="preserve" font-family="GillSans,Gill Sans" font-size="14.0" fill="#0056D5" transform="matrix(1.00, 0.00, -0.00, -1.00, 182.6, 16.2)">d</text><text xml:space="preserve" font-family="GillSans,Gill Sans" font-size="14.0" fill="#0056D5" transform="matrix(1.00, 0.00, -0.00, -1.00, 189.7, 16.2)">e</text><text xml:space="preserve" font-family="GillSans,Gill Sans" font-size="14.0" fill="#0056D5" transform="matrix(1.00, 0.00, -0.00, -1.00, 196.5, 16.2)">r</text></g></g></g></svg>