<?xml version="1.0" encoding="UTF-8" standalone="no"?><svg xmlns="http://www.w3.org/2000/svg" xmlns:xlink="http://www.w3.org/1999/xlink" clip-rule="evenodd" stroke-miterlimit="10" viewBox="0 0 720 540"><desc>SVG generated by Keynote</desc><defs></defs><g transform="matrix(1.00, 0.00, -0.00, -1.00, 0.0, 540.0)"><path d="M 0.0 540.0 L 720.0 540.0 L 720.0 0.0 L 0.0 0.0 Z M 0.0 540.0 " fill="#FEFFFF"></path><text xml:space="preserve" font-family="GillSans,Gill Sans" font-size="56.0" fill="#000000" transform="matrix(1.00, 0.00, -0.00, -1.00, 89.1, 470.9)">H</text><text xml:space="preserve" font-family="GillSans,Gill Sans" font-size="56.0" fill="#000000" transform="matrix(1.00, 0.00, -0.00, -1.00, 130.0, 470.9)">o</text><text xml:space="preserve" font-family="GillSans,Gill Sans" font-size="56.0" fill="#000000" transform="matrix(1.00, 0.00, -0.00, -1.00, 160.3, 470.9)">w</text><text xml:space="preserve" font-family="GillSans,Gill Sans" font-size="56.0" fill="#000000" transform="matrix(1.00, 0.00, -0.00, -1.00, 200.6, 470.9)"> </text><text xml:space="preserve" font-family="GillSans,Gill Sans" font-size="56.0" fill="#000000" transform="matrix(1.00, 0.00, -0.00, -1.00, 216.1, 470.9)">d</text><text xml:space="preserve" font-family="GillSans,Gill Sans" font-size="56.0" fill="#000000" transform="matrix(1.00, 0.00, -0.00, -1.00, 244.7, 470.9)">o</text><text xml:space="preserve" font-family="GillSans,Gill Sans" font-size="56.0" fill="#000000" transform="matrix(1.00, 0.00, -0.00, -1.00, 275.6, 470.9)"> </text><text xml:space="preserve" font-family="GillSans,Gill Sans" font-size="56.0" fill="#000000" transform="matrix(1.00, 0.00, -0.00, -1.00, 291.1, 470.9)">w</text><text xml:space="preserve" font-family="GillSans,Gill Sans" font-size="56.0" fill="#000000" transform="matrix(1.00, 0.00, -0.00, -1.00, 330.3, 470.9)">e</text><text xml:space="preserve" font-family="GillSans,Gill Sans" font-size="56.0" fill="#000000" transform="matrix(1.00, 0.00, -0.00, -1.00, 357.1, 470.9)"> </text><text xml:space="preserve" font-family="GillSans,Gill Sans" font-size="56.0" fill="#000000" transform="matrix(1.00, 0.00, -0.00, -1.00, 372.6, 470.9)">l</text><text xml:space="preserve" font-family="GillSans,Gill Sans" font-size="56.0" fill="#000000" transform="matrix(1.00, 0.00, -0.00, -1.00, 384.9, 470.9)">e</text><text xml:space="preserve" font-family="GillSans,Gill Sans" font-size="56.0" fill="#000000" transform="matrix(1.00, 0.00, -0.00, -1.00, 411.8, 470.9)">a</text><text xml:space="preserve" font-family="GillSans,Gill Sans" font-size="56.0" fill="#000000" transform="matrix(1.00, 0.00, -0.00, -1.00, 435.6, 470.9)">r</text><text xml:space="preserve" font-family="GillSans,Gill Sans" font-size="56.0" fill="#000000" transform="matrix(1.00, 0.00, -0.00, -1.00, 457.8, 470.9)">n</text><text xml:space="preserve" font-family="GillSans,Gill Sans" font-size="56.0" fill="#000000" transform="matrix(1.00, 0.00, -0.00, -1.00, 485.8, 470.9)"> </text><text xml:space="preserve" font-family="GillSans,Gill Sans" font-size="56.0" fill="#000000" transform="matrix(1.00, 0.00, -0.00, -1.00, 501.4, 470.9)">a</text><text xml:space="preserve" font-family="GillSans,Gill Sans" font-size="56.0" fill="#000000" transform="matrix(1.00, 0.00, -0.00, -1.00, 525.3, 470.9)">b</text><text xml:space="preserve" font-family="GillSans,Gill Sans" font-size="56.0" fill="#000000" transform="matrix(1.00, 0.00, -0.00, -1.00, 553.3, 470.9)">o</text><text xml:space="preserve" font-family="GillSans,Gill Sans" font-size="56.0" fill="#000000" transform="matrix(1.00, 0.00, -0.00, -1.00, 584.1, 470.9)">u</text><text xml:space="preserve" font-family="GillSans,Gill Sans" font-size="56.0" fill="#000000" transform="matrix(1.00, 0.00, -0.00, -1.00, 612.1, 470.9)">t</text><text xml:space="preserve" font-family="GillSans,Gill Sans" font-size="56.0" fill="#000000" transform="matrix(1.00, 0.00, -0.00, -1.00, 630.8, 470.9)"> </text><text xml:space="preserve" font-family="GillSans,Gill Sans" font-size="56.0" fill="#000000" transform="matrix(1.00, 0.00, -0.00, -1.00, 140.1, 406.9)">t</text><text xml:space="preserve" font-family="GillSans,Gill Sans" font-size="56.0" fill="#000000" transform="matrix(1.00, 0.00, -0.00, -1.00, 158.8, 406.9)">h</text><text xml:space="preserve" font-family="GillSans,Gill Sans" font-size="56.0" fill="#000000" transform="matrix(1.00, 0.00, -0.00, -1.00, 186.8, 406.9)">e</text><text xml:space="preserve" font-family="GillSans,Gill Sans" font-size="56.0" fill="#000000" transform="matrix(1.00, 0.00, -0.00, -1.00, 213.6, 406.9)"> </text><text xml:space="preserve" font-family="GillSans,Gill Sans" font-size="56.0" fill="#000000" transform="matrix(1.00, 0.00, -0.00, -1.00, 229.1, 406.9)">o</text><text xml:space="preserve" font-family="GillSans,Gill Sans" font-size="56.0" fill="#000000" transform="matrix(1.00, 0.00, -0.00, -1.00, 260.0, 406.9)">r</text><text xml:space="preserve" font-family="GillSans,Gill Sans" font-size="56.0" fill="#000000" transform="matrix(1.00, 0.00, -0.00, -1.00, 282.2, 406.9)">i</text><text xml:space="preserve" font-family="GillSans,Gill Sans" font-size="56.0" fill="#000000" transform="matrix(1.00, 0.00, -0.00, -1.00, 294.5, 406.9)">g</text><text xml:space="preserve" font-family="GillSans,Gill Sans" font-size="56.0" fill="#000000" transform="matrix(1.00, 0.00, -0.00, -1.00, 318.4, 406.9)">i</text><text xml:space="preserve" font-family="GillSans,Gill Sans" font-size="56.0" fill="#000000" transform="matrix(1.00, 0.00, -0.00, -1.00, 330.7, 406.9)">n</text><text xml:space="preserve" font-family="GillSans,Gill Sans" font-size="56.0" fill="#000000" transform="matrix(1.00, 0.00, -0.00, -1.00, 358.7, 406.9)"> </text><text xml:space="preserve" font-family="GillSans,Gill Sans" font-size="56.0" fill="#000000" transform="matrix(1.00, 0.00, -0.00, -1.00, 374.2, 406.9)">o</text><text xml:space="preserve" font-family="GillSans,Gill Sans" font-size="56.0" fill="#000000" transform="matrix(1.00, 0.00, -0.00, -1.00, 405.1, 406.9)">f</text><text xml:space="preserve" font-family="GillSans,Gill Sans" font-size="56.0" fill="#000000" transform="matrix(1.00, 0.00, -0.00, -1.00, 419.1, 406.9)"> </text><text xml:space="preserve" font-family="GillSans,Gill Sans" font-size="56.0" fill="#000000" transform="matrix(1.00, 0.00, -0.00, -1.00, 434.6, 406.9)">h</text><text xml:space="preserve" font-family="GillSans,Gill Sans" font-size="56.0" fill="#000000" transform="matrix(1.00, 0.00, -0.00, -1.00, 462.6, 406.9)">e</text><text xml:space="preserve" font-family="GillSans,Gill Sans" font-size="56.0" fill="#000000" transform="matrix(1.00, 0.00, -0.00, -1.00, 489.5, 406.9)">r</text><text xml:space="preserve" font-family="GillSans,Gill Sans" font-size="56.0" fill="#000000" transform="matrix(1.00, 0.00, -0.00, -1.00, 511.6, 406.9)">p</text><text xml:space="preserve" font-family="GillSans,Gill Sans" font-size="56.0" fill="#000000" transform="matrix(1.00, 0.00, -0.00, -1.00, 539.6, 406.9)">s</text><text xml:space="preserve" font-family="GillSans,Gill Sans" font-size="56.0" fill="#000000" transform="matrix(1.00, 0.00, -0.00, -1.00, 561.2, 406.9)">?</text><text xml:space="preserve" font-family="GillSans,Gill Sans" font-size="47.9" fill="#C82505" transform="matrix(1.00, 0.00, -0.00, -1.00, 93.0, 259.5)">•</text><text xml:space="preserve" font-family="GillSans,Gill Sans" font-size="28.0" fill="#C82505" transform="matrix(1.00, 0.00, -0.00, -1.00, 128.0, 266.5)">S</text><text xml:space="preserve" font-family="GillSans,Gill Sans" font-size="28.0" fill="#C82505" transform="matrix(1.00, 0.00, -0.00, -1.00, 140.8, 266.5)">t</text><text xml:space="preserve" font-family="GillSans,Gill Sans" font-size="28.0" fill="#C82505" transform="matrix(1.00, 0.00, -0.00, -1.00, 150.1, 266.5)">u</text><text xml:space="preserve" font-family="GillSans,Gill Sans" font-size="28.0" fill="#C82505" transform="matrix(1.00, 0.00, -0.00, -1.00, 164.1, 266.5)">d</text><text xml:space="preserve" font-family="GillSans,Gill Sans" font-size="28.0" fill="#C82505" transform="matrix(1.00, 0.00, -0.00, -1.00, 178.4, 266.5)">y</text><text xml:space="preserve" font-family="GillSans,Gill Sans" font-size="28.0" fill="#C82505" transform="matrix(1.00, 0.00, -0.00, -1.00, 190.7, 266.5)"> </text><text xml:space="preserve" font-family="GillSans,Gill Sans" font-size="28.0" fill="#C82505" transform="matrix(1.00, 0.00, -0.00, -1.00, 198.5, 266.5)">r</text><text xml:space="preserve" font-family="GillSans,Gill Sans" font-size="28.0" fill="#C82505" transform="matrix(1.00, 0.00, -0.00, -1.00, 209.0, 266.5)">e</text><text xml:space="preserve" font-family="GillSans,Gill Sans" font-size="28.0" fill="#C82505" transform="matrix(1.00, 0.00, -0.00, -1.00, 222.4, 266.5)">l</text><text xml:space="preserve" font-family="GillSans,Gill Sans" font-size="28.0" fill="#C82505" transform="matrix(1.00, 0.00, -0.00, -1.00, 228.5, 266.5)">a</text><text xml:space="preserve" font-family="GillSans,Gill Sans" font-size="28.0" fill="#C82505" transform="matrix(1.00, 0.00, -0.00, -1.00, 240.5, 266.5)">t</text><text xml:space="preserve" font-family="GillSans,Gill Sans" font-size="28.0" fill="#C82505" transform="matrix(1.00, 0.00, -0.00, -1.00, 249.8, 266.5)">i</text><text xml:space="preserve" font-family="GillSans,Gill Sans" font-size="28.0" fill="#C82505" transform="matrix(1.00, 0.00, -0.00, -1.00, 256.0, 266.5)">o</text><text xml:space="preserve" font-family="GillSans,Gill Sans" font-size="28.0" fill="#C82505" transform="matrix(1.00, 0.00, -0.00, -1.00, 271.4, 266.5)">n</text><text xml:space="preserve" font-family="GillSans,Gill Sans" font-size="28.0" fill="#C82505" transform="matrix(1.00, 0.00, -0.00, -1.00, 285.4, 266.5)">s</text><text xml:space="preserve" font-family="GillSans,Gill Sans" font-size="28.0" fill="#C82505" transform="matrix(1.00, 0.00, -0.00, -1.00, 296.2, 266.5)">h</text><text xml:space="preserve" font-family="GillSans,Gill Sans" font-size="28.0" fill="#C82505" transform="matrix(1.00, 0.00, -0.00, -1.00, 310.2, 266.5)">i</text><text xml:space="preserve" font-family="GillSans,Gill Sans" font-size="28.0" fill="#C82505" transform="matrix(1.00, 0.00, -0.00, -1.00, 316.3, 266.5)">p</text><text xml:space="preserve" font-family="GillSans,Gill Sans" font-size="28.0" fill="#C82505" transform="matrix(1.00, 0.00, -0.00, -1.00, 330.3, 266.5)">s</text><text xml:space="preserve" font-family="GillSans,Gill Sans" font-size="28.0" fill="#C82505" transform="matrix(1.00, 0.00, -0.00, -1.00, 341.1, 266.5)"> </text><text xml:space="preserve" font-family="GillSans,Gill Sans" font-size="28.0" fill="#C82505" transform="matrix(1.00, 0.00, -0.00, -1.00, 348.8, 266.5)">a</text><text xml:space="preserve" font-family="GillSans,Gill Sans" font-size="28.0" fill="#C82505" transform="matrix(1.00, 0.00, -0.00, -1.00, 360.8, 266.5)">m</text><text xml:space="preserve" font-family="GillSans,Gill Sans" font-size="28.0" fill="#C82505" transform="matrix(1.00, 0.00, -0.00, -1.00, 382.4, 266.5)">o</text><text xml:space="preserve" font-family="GillSans,Gill Sans" font-size="28.0" fill="#C82505" transform="matrix(1.00, 0.00, -0.00, -1.00, 397.8, 266.5)">n</text><text xml:space="preserve" font-family="GillSans,Gill Sans" font-size="28.0" fill="#C82505" transform="matrix(1.00, 0.00, -0.00, -1.00, 411.8, 266.5)">g</text><text xml:space="preserve" font-family="GillSans,Gill Sans" font-size="28.0" fill="#C82505" transform="matrix(1.00, 0.00, -0.00, -1.00, 423.8, 266.5)"> </text><text xml:space="preserve" font-family="GillSans,Gill Sans" font-size="28.0" fill="#C82505" transform="matrix(1.00, 0.00, -0.00, -1.00, 431.5, 266.5)">l</text><text xml:space="preserve" font-family="GillSans,Gill Sans" font-size="28.0" fill="#C82505" transform="matrix(1.00, 0.00, -0.00, -1.00, 437.7, 266.5)">i</text><text xml:space="preserve" font-family="GillSans,Gill Sans" font-size="28.0" fill="#C82505" transform="matrix(1.00, 0.00, -0.00, -1.00, 443.8, 266.5)">v</text><text xml:space="preserve" font-family="GillSans,Gill Sans" font-size="28.0" fill="#C82505" transform="matrix(1.00, 0.00, -0.00, -1.00, 456.1, 266.5)">i</text><text xml:space="preserve" font-family="GillSans,Gill Sans" font-size="28.0" fill="#C82505" transform="matrix(1.00, 0.00, -0.00, -1.00, 462.2, 266.5)">n</text><text xml:space="preserve" font-family="GillSans,Gill Sans" font-size="28.0" fill="#C82505" transform="matrix(1.00, 0.00, -0.00, -1.00, 476.2, 266.5)">g</text><text xml:space="preserve" font-family="GillSans,Gill Sans" font-size="28.0" fill="#C82505" transform="matrix(1.00, 0.00, -0.00, -1.00, 488.2, 266.5)"> </text><text xml:space="preserve" font-family="GillSans,Gill Sans" font-size="28.0" fill="#C82505" transform="matrix(1.00, 0.00, -0.00, -1.00, 496.0, 266.5)">s</text><text xml:space="preserve" font-family="GillSans,Gill Sans" font-size="28.0" fill="#C82505" transform="matrix(1.00, 0.00, -0.00, -1.00, 506.7, 266.5)">p</text><text xml:space="preserve" font-family="GillSans,Gill Sans" font-size="28.0" fill="#C82505" transform="matrix(1.00, 0.00, -0.00, -1.00, 520.7, 266.5)">e</text><text xml:space="preserve" font-family="GillSans,Gill Sans" font-size="28.0" fill="#C82505" transform="matrix(1.00, 0.00, -0.00, -1.00, 534.1, 266.5)">c</text><text xml:space="preserve" font-family="GillSans,Gill Sans" font-size="28.0" fill="#C82505" transform="matrix(1.00, 0.00, -0.00, -1.00, 546.4, 266.5)">i</text><text xml:space="preserve" font-family="GillSans,Gill Sans" font-size="28.0" fill="#C82505" transform="matrix(1.00, 0.00, -0.00, -1.00, 552.5, 266.5)">e</text><text xml:space="preserve" font-family="GillSans,Gill Sans" font-size="28.0" fill="#C82505" transform="matrix(1.00, 0.00, -0.00, -1.00, 566.0, 266.5)">s</text><text xml:space="preserve" font-family="GillSans,Gill Sans" font-size="47.9" fill="#000000" transform="matrix(1.00, 0.00, -0.00, -1.00, 93.0, 211.5)">•</text><text xml:space="preserve" font-family="GillSans,Gill Sans" font-size="28.0" fill="#000000" transform="matrix(1.00, 0.00, -0.00, -1.00, 128.0, 218.5)">F</text><text xml:space="preserve" font-family="GillSans,Gill Sans" font-size="28.0" fill="#000000" transform="matrix(1.00, 0.00, -0.00, -1.00, 141.1, 218.5)">i</text><text xml:space="preserve" font-family="GillSans,Gill Sans" font-size="28.0" fill="#000000" transform="matrix(1.00, 0.00, -0.00, -1.00, 147.3, 218.5)">n</text><text xml:space="preserve" font-family="GillSans,Gill Sans" font-size="28.0" fill="#000000" transform="matrix(1.00, 0.00, -0.00, -1.00, 161.3, 218.5)">d</text><text xml:space="preserve" font-family="GillSans,Gill Sans" font-size="28.0" fill="#000000" transform="matrix(1.00, 0.00, -0.00, -1.00, 175.6, 218.5)"> </text><text xml:space="preserve" font-family="GillSans,Gill Sans" font-size="28.0" fill="#000000" transform="matrix(1.00, 0.00, -0.00, -1.00, 183.3, 218.5)">a</text><text xml:space="preserve" font-family="GillSans,Gill Sans" font-size="28.0" fill="#000000" transform="matrix(1.00, 0.00, -0.00, -1.00, 195.3, 218.5)">n</text><text xml:space="preserve" font-family="GillSans,Gill Sans" font-size="28.0" fill="#000000" transform="matrix(1.00, 0.00, -0.00, -1.00, 209.3, 218.5)">d</text><text xml:space="preserve" font-family="GillSans,Gill Sans" font-size="28.0" fill="#000000" transform="matrix(1.00, 0.00, -0.00, -1.00, 223.5, 218.5)"> </text><text xml:space="preserve" font-family="GillSans,Gill Sans" font-size="28.0" fill="#000000" transform="matrix(1.00, 0.00, -0.00, -1.00, 231.3, 218.5)">a</text><text xml:space="preserve" font-family="GillSans,Gill Sans" font-size="28.0" fill="#000000" transform="matrix(1.00, 0.00, -0.00, -1.00, 243.3, 218.5)">n</text><text xml:space="preserve" font-family="GillSans,Gill Sans" font-size="28.0" fill="#000000" transform="matrix(1.00, 0.00, -0.00, -1.00, 257.3, 218.5)">a</text><text xml:space="preserve" font-family="GillSans,Gill Sans" font-size="28.0" fill="#000000" transform="matrix(1.00, 0.00, -0.00, -1.00, 269.2, 218.5)">l</text><text xml:space="preserve" font-family="GillSans,Gill Sans" font-size="28.0" fill="#000000" transform="matrix(1.00, 0.00, -0.00, -1.00, 275.1, 218.5)">y</text><text xml:space="preserve" font-family="GillSans,Gill Sans" font-size="28.0" fill="#000000" transform="matrix(1.00, 0.00, -0.00, -1.00, 287.3, 218.5)">z</text><text xml:space="preserve" font-family="GillSans,Gill Sans" font-size="28.0" fill="#000000" transform="matrix(1.00, 0.00, -0.00, -1.00, 299.0, 218.5)">e</text><text xml:space="preserve" font-family="GillSans,Gill Sans" font-size="28.0" fill="#000000" transform="matrix(1.00, 0.00, -0.00, -1.00, 312.4, 218.5)"> </text><text xml:space="preserve" font-family="GillSans,Gill Sans" font-size="28.0" fill="#000000" transform="matrix(1.00, 0.00, -0.00, -1.00, 320.2, 218.5)">f</text><text xml:space="preserve" font-family="GillSans,Gill Sans" font-size="28.0" fill="#000000" transform="matrix(1.00, 0.00, -0.00, -1.00, 326.9, 218.5)">o</text><text xml:space="preserve" font-family="GillSans,Gill Sans" font-size="28.0" fill="#000000" transform="matrix(1.00, 0.00, -0.00, -1.00, 342.4, 218.5)">s</text><text xml:space="preserve" font-family="GillSans,Gill Sans" font-size="28.0" fill="#000000" transform="matrix(1.00, 0.00, -0.00, -1.00, 353.1, 218.5)">s</text><text xml:space="preserve" font-family="GillSans,Gill Sans" font-size="28.0" fill="#000000" transform="matrix(1.00, 0.00, -0.00, -1.00, 363.9, 218.5)">i</text><text xml:space="preserve" font-family="GillSans,Gill Sans" font-size="28.0" fill="#000000" transform="matrix(1.00, 0.00, -0.00, -1.00, 370.0, 218.5)">l</text><text xml:space="preserve" font-family="GillSans,Gill Sans" font-size="28.0" fill="#000000" transform="matrix(1.00, 0.00, -0.00, -1.00, 376.2, 218.5)">s</text><text xml:space="preserve" font-family="GillSans,Gill Sans" font-size="47.9" fill="#000000" transform="matrix(1.00, 0.00, -0.00, -1.00, 93.0, 163.5)">•</text><text xml:space="preserve" font-family="GillSans,Gill Sans" font-size="28.0" fill="#000000" transform="matrix(1.00, 0.00, -0.00, -1.00, 128.0, 170.5)">U</text><text xml:space="preserve" font-family="GillSans,Gill Sans" font-size="28.0" fill="#000000" transform="matrix(1.00, 0.00, -0.00, -1.00, 147.8, 170.5)">n</text><text xml:space="preserve" font-family="GillSans,Gill Sans" font-size="28.0" fill="#000000" transform="matrix(1.00, 0.00, -0.00, -1.00, 161.8, 170.5)">d</text><text xml:space="preserve" font-family="GillSans,Gill Sans" font-size="28.0" fill="#000000" transform="matrix(1.00, 0.00, -0.00, -1.00, 176.1, 170.5)">e</text><text xml:space="preserve" font-family="GillSans,Gill Sans" font-size="28.0" fill="#000000" transform="matrix(1.00, 0.00, -0.00, -1.00, 189.5, 170.5)">r</text><text xml:space="preserve" font-family="GillSans,Gill Sans" font-size="28.0" fill="#000000" transform="matrix(1.00, 0.00, -0.00, -1.00, 200.6, 170.5)">s</text><text xml:space="preserve" font-family="GillSans,Gill Sans" font-size="28.0" fill="#000000" transform="matrix(1.00, 0.00, -0.00, -1.00, 211.4, 170.5)">t</text><text xml:space="preserve" font-family="GillSans,Gill Sans" font-size="28.0" fill="#000000" transform="matrix(1.00, 0.00, -0.00, -1.00, 220.7, 170.5)">a</text><text xml:space="preserve" font-family="GillSans,Gill Sans" font-size="28.0" fill="#000000" transform="matrix(1.00, 0.00, -0.00, -1.00, 232.6, 170.5)">n</text><text xml:space="preserve" font-family="GillSans,Gill Sans" font-size="28.0" fill="#000000" transform="matrix(1.00, 0.00, -0.00, -1.00, 246.6, 170.5)">d</text><text xml:space="preserve" font-family="GillSans,Gill Sans" font-size="28.0" fill="#000000" transform="matrix(1.00, 0.00, -0.00, -1.00, 260.9, 170.5)"> </text><text xml:space="preserve" font-family="GillSans,Gill Sans" font-size="28.0" fill="#000000" transform="matrix(1.00, 0.00, -0.00, -1.00, 268.7, 170.5)">g</text><text xml:space="preserve" font-family="GillSans,Gill Sans" font-size="28.0" fill="#000000" transform="matrix(1.00, 0.00, -0.00, -1.00, 280.6, 170.5)">e</text><text xml:space="preserve" font-family="GillSans,Gill Sans" font-size="28.0" fill="#000000" transform="matrix(1.00, 0.00, -0.00, -1.00, 294.0, 170.5)">n</text><text xml:space="preserve" font-family="GillSans,Gill Sans" font-size="28.0" fill="#000000" transform="matrix(1.00, 0.00, -0.00, -1.00, 308.0, 170.5)">e</text><text xml:space="preserve" font-family="GillSans,Gill Sans" font-size="28.0" fill="#000000" transform="matrix(1.00, 0.00, -0.00, -1.00, 321.4, 170.5)">t</text><text xml:space="preserve" font-family="GillSans,Gill Sans" font-size="28.0" fill="#000000" transform="matrix(1.00, 0.00, -0.00, -1.00, 330.8, 170.5)">i</text><text xml:space="preserve" font-family="GillSans,Gill Sans" font-size="28.0" fill="#000000" transform="matrix(1.00, 0.00, -0.00, -1.00, 336.9, 170.5)">c</text><text xml:space="preserve" font-family="GillSans,Gill Sans" font-size="28.0" fill="#000000" transform="matrix(1.00, 0.00, -0.00, -1.00, 349.2, 170.5)">s</text><text xml:space="preserve" font-family="GillSans,Gill Sans" font-size="28.0" fill="#000000" transform="matrix(1.00, 0.00, -0.00, -1.00, 359.9, 170.5)"> </text><text xml:space="preserve" font-family="GillSans,Gill Sans" font-size="28.0" fill="#000000" transform="matrix(1.00, 0.00, -0.00, -1.00, 367.7, 170.5)">a</text><text xml:space="preserve" font-family="GillSans,Gill Sans" font-size="28.0" fill="#000000" transform="matrix(1.00, 0.00, -0.00, -1.00, 379.7, 170.5)">n</text><text xml:space="preserve" font-family="GillSans,Gill Sans" font-size="28.0" fill="#000000" transform="matrix(1.00, 0.00, -0.00, -1.00, 393.7, 170.5)">d</text><text xml:space="preserve" font-family="GillSans,Gill Sans" font-size="28.0" fill="#000000" transform="matrix(1.00, 0.00, -0.00, -1.00, 407.9, 170.5)"> </text><text xml:space="preserve" font-family="GillSans,Gill Sans" font-size="28.0" fill="#000000" transform="matrix(1.00, 0.00, -0.00, -1.00, 415.7, 170.5)">d</text><text xml:space="preserve" font-family="GillSans,Gill Sans" font-size="28.0" fill="#000000" transform="matrix(1.00, 0.00, -0.00, -1.00, 430.0, 170.5)">e</text><text xml:space="preserve" font-family="GillSans,Gill Sans" font-size="28.0" fill="#000000" transform="matrix(1.00, 0.00, -0.00, -1.00, 443.0, 170.5)">v</text><text xml:space="preserve" font-family="GillSans,Gill Sans" font-size="28.0" fill="#000000" transform="matrix(1.00, 0.00, -0.00, -1.00, 454.7, 170.5)">e</text><text xml:space="preserve" font-family="GillSans,Gill Sans" font-size="28.0" fill="#000000" transform="matrix(1.00, 0.00, -0.00, -1.00, 468.1, 170.5)">l</text><text xml:space="preserve" font-family="GillSans,Gill Sans" font-size="28.0" fill="#000000" transform="matrix(1.00, 0.00, -0.00, -1.00, 474.2, 170.5)">o</text><text xml:space="preserve" font-family="GillSans,Gill Sans" font-size="28.0" fill="#000000" transform="matrix(1.00, 0.00, -0.00, -1.00, 489.7, 170.5)">p</text><text xml:space="preserve" font-family="GillSans,Gill Sans" font-size="28.0" fill="#000000" transform="matrix(1.00, 0.00, -0.00, -1.00, 503.7, 170.5)">m</text><text xml:space="preserve" font-family="GillSans,Gill Sans" font-size="28.0" fill="#000000" transform="matrix(1.00, 0.00, -0.00, -1.00, 525.2, 170.5)">e</text><text xml:space="preserve" font-family="GillSans,Gill Sans" font-size="28.0" fill="#000000" transform="matrix(1.00, 0.00, -0.00, -1.00, 538.7, 170.5)">n</text><text xml:space="preserve" font-family="GillSans,Gill Sans" font-size="28.0" fill="#000000" transform="matrix(1.00, 0.00, -0.00, -1.00, 552.7, 170.5)">t</text></g></svg>