<?xml version="1.0" encoding="UTF-8" standalone="no"?><svg xmlns="http://www.w3.org/2000/svg" xmlns:xlink="http://www.w3.org/1999/xlink" clip-rule="evenodd" stroke-miterlimit="10" viewBox="0 0 720 540"><desc>SVG generated by Keynote</desc><defs></defs><g transform="matrix(1.00, 0.00, -0.00, -1.00, 0.0, 540.0)"><path d="M 0.0 540.0 L 720.0 540.0 L 720.0 0.0 L 0.0 0.0 Z M 0.0 540.0 " fill="#FEFFFF"></path><path d="M 1.0 539.0 L 720.0 539.0 L 720.0 0.0 L 1.0 0.0 Z M 1.0 539.0 " fill="#0B9DE0"></path><path d="M 0.0 0.0 L 719.0 0.0 L 719.0 539.0 L 0.0 539.0 Z M 0.0 0.0 " fill="none" stroke="#000000" stroke-opacity="0.00" stroke-width="2.00" transform="matrix(1.00, 0.00, 0.00, -1.00, 1.0, 539.0)"></path><image xlink:href="6B068D18CEAD531878E8E5DB5D6C1C6D.png" width="800.00" height="444.00" transform="matrix(1.04, 0.00, -0.00, -1.04, -13.0, 501.0)"></image><text xml:space="preserve" font-family="Helvetica-Oblique,Helvetica" font-style="italic" font-size="26.0" fill="#FFFFFF" transform="matrix(1.00, 0.00, -0.00, -1.00, 79.0, 160.0)">E</text><text xml:space="preserve" font-family="Helvetica-Oblique,Helvetica" font-style="italic" font-size="26.0" fill="#FFFFFF" transform="matrix(1.00, 0.00, -0.00, -1.00, 96.3, 160.0)">u</text><text xml:space="preserve" font-family="Helvetica-Oblique,Helvetica" font-style="italic" font-size="26.0" fill="#FFFFFF" transform="matrix(1.00, 0.00, -0.00, -1.00, 110.8, 160.0)">s</text><text xml:space="preserve" font-family="Helvetica-Oblique,Helvetica" font-style="italic" font-size="26.0" fill="#FFFFFF" transform="matrix(1.00, 0.00, -0.00, -1.00, 123.8, 160.0)">t</text><text xml:space="preserve" font-family="Helvetica-Oblique,Helvetica" font-style="italic" font-size="26.0" fill="#FFFFFF" transform="matrix(1.00, 0.00, -0.00, -1.00, 131.0, 160.0)">h</text><text xml:space="preserve" font-family="Helvetica-Oblique,Helvetica" font-style="italic" font-size="26.0" fill="#FFFFFF" transform="matrix(1.00, 0.00, -0.00, -1.00, 145.5, 160.0)">e</text><text xml:space="preserve" font-family="Helvetica-Oblique,Helvetica" font-style="italic" font-size="26.0" fill="#FFFFFF" transform="matrix(1.00, 0.00, -0.00, -1.00, 160.0, 160.0)">n</text><text xml:space="preserve" font-family="Helvetica-Oblique,Helvetica" font-style="italic" font-size="26.0" fill="#FFFFFF" transform="matrix(1.00, 0.00, -0.00, -1.00, 174.4, 160.0)">o</text><text xml:space="preserve" font-family="Helvetica-Oblique,Helvetica" font-style="italic" font-size="26.0" fill="#FFFFFF" transform="matrix(1.00, 0.00, -0.00, -1.00, 188.9, 160.0)">p</text><text xml:space="preserve" font-family="Helvetica-Oblique,Helvetica" font-style="italic" font-size="26.0" fill="#FFFFFF" transform="matrix(1.00, 0.00, -0.00, -1.00, 203.4, 160.0)">t</text><text xml:space="preserve" font-family="Helvetica-Oblique,Helvetica" font-style="italic" font-size="26.0" fill="#FFFFFF" transform="matrix(1.00, 0.00, -0.00, -1.00, 210.6, 160.0)">e</text><text xml:space="preserve" font-family="Helvetica-Oblique,Helvetica" font-style="italic" font-size="26.0" fill="#FFFFFF" transform="matrix(1.00, 0.00, -0.00, -1.00, 225.0, 160.0)">r</text><text xml:space="preserve" font-family="Helvetica-Oblique,Helvetica" font-style="italic" font-size="26.0" fill="#FFFFFF" transform="matrix(1.00, 0.00, -0.00, -1.00, 233.7, 160.0)">o</text><text xml:space="preserve" font-family="Helvetica-Oblique,Helvetica" font-style="italic" font-size="26.0" fill="#FFFFFF" transform="matrix(1.00, 0.00, -0.00, -1.00, 248.2, 160.0)">n</text></g></svg>