<?xml version="1.0" encoding="UTF-8" standalone="no"?><svg xmlns="http://www.w3.org/2000/svg" xmlns:xlink="http://www.w3.org/1999/xlink" clip-rule="evenodd" stroke-miterlimit="10" viewBox="0 0 720 540"><desc>SVG generated by Keynote</desc><defs></defs><g transform="matrix(1.00, 0.00, -0.00, -1.00, 0.0, 540.0)"><path d="M 0.0 540.0 L 720.0 540.0 L 720.0 0.0 L 0.0 0.0 Z M 0.0 540.0 " fill="#FEFFFF"></path><text xml:space="preserve" font-family="ArialMT,Arial" font-size="44.0" fill="#000000" transform="matrix(1.00, 0.00, -0.00, -1.00, 166.0, 431.8)">V</text><text xml:space="preserve" font-family="ArialMT,Arial" font-size="44.0" fill="#000000" transform="matrix(1.00, 0.00, -0.00, -1.00, 194.5, 431.8)">i</text><text xml:space="preserve" font-family="ArialMT,Arial" font-size="44.0" fill="#000000" transform="matrix(1.00, 0.00, -0.00, -1.00, 204.3, 431.8)">c</text><text xml:space="preserve" font-family="ArialMT,Arial" font-size="44.0" fill="#000000" transform="matrix(1.00, 0.00, -0.00, -1.00, 226.3, 431.8)">a</text><text xml:space="preserve" font-family="ArialMT,Arial" font-size="44.0" fill="#000000" transform="matrix(1.00, 0.00, -0.00, -1.00, 250.8, 431.8)">r</text><text xml:space="preserve" font-family="ArialMT,Arial" font-size="44.0" fill="#000000" transform="matrix(1.00, 0.00, -0.00, -1.00, 265.4, 431.8)">i</text><text xml:space="preserve" font-family="ArialMT,Arial" font-size="44.0" fill="#000000" transform="matrix(1.00, 0.00, -0.00, -1.00, 275.2, 431.8)">a</text><text xml:space="preserve" font-family="ArialMT,Arial" font-size="44.0" fill="#000000" transform="matrix(1.00, 0.00, -0.00, -1.00, 299.7, 431.8)">n</text><text xml:space="preserve" font-family="ArialMT,Arial" font-size="44.0" fill="#000000" transform="matrix(1.00, 0.00, -0.00, -1.00, 324.2, 431.8)">c</text><text xml:space="preserve" font-family="ArialMT,Arial" font-size="44.0" fill="#000000" transform="matrix(1.00, 0.00, -0.00, -1.00, 346.2, 431.8)">e</text><text xml:space="preserve" font-family="ArialMT,Arial" font-size="44.0" fill="#000000" transform="matrix(1.00, 0.00, -0.00, -1.00, 370.7, 431.8)"> </text><text xml:space="preserve" font-family="ArialMT,Arial" font-size="44.0" fill="#000000" transform="matrix(1.00, 0.00, -0.00, -1.00, 382.9, 431.8)">E</text><text xml:space="preserve" font-family="ArialMT,Arial" font-size="44.0" fill="#000000" transform="matrix(1.00, 0.00, -0.00, -1.00, 412.2, 431.8)">x</text><text xml:space="preserve" font-family="ArialMT,Arial" font-size="44.0" fill="#000000" transform="matrix(1.00, 0.00, -0.00, -1.00, 434.2, 431.8)">a</text><text xml:space="preserve" font-family="ArialMT,Arial" font-size="44.0" fill="#000000" transform="matrix(1.00, 0.00, -0.00, -1.00, 458.7, 431.8)">m</text><text xml:space="preserve" font-family="ArialMT,Arial" font-size="44.0" fill="#000000" transform="matrix(1.00, 0.00, -0.00, -1.00, 495.4, 431.8)">p</text><text xml:space="preserve" font-family="ArialMT,Arial" font-size="44.0" fill="#000000" transform="matrix(1.00, 0.00, -0.00, -1.00, 519.8, 431.8)">l</text><text xml:space="preserve" font-family="ArialMT,Arial" font-size="44.0" fill="#000000" transform="matrix(1.00, 0.00, -0.00, -1.00, 529.6, 431.8)">e</text><image xlink:href="1CCE333B1F1D573909ABAE5DDE91DA3D.png" width="364.00" height="496.00" transform="matrix(0.78, 0.00, -0.00, -0.78, 78.0, 414.0)"></image><g><clipPath id="clip0x6000010ba760"><path d="M 438.0 247.0 L 599.0 247.0 L 599.0 402.0 L 438.0 402.0 Z M 438.0 247.0 "></path></clipPath><g clip-path="url(#clip0x6000010ba760)"><image xlink:href="586BA6A767D5731A1A8D0734FF406E55.png" width="467.00" height="450.00" transform="matrix(0.34, 0.00, -0.00, -0.34, 438.0, 402.0)"></image></g></g><text xml:space="preserve" font-family="Arial-ItalicMT,Arial" font-style="italic" font-size="12.0" fill="#000000" transform="matrix(1.00, 0.00, -0.00, -1.00, 481.2, 221.9)">L</text><text xml:space="preserve" font-family="Arial-ItalicMT,Arial" font-style="italic" font-size="12.0" fill="#000000" transform="matrix(1.00, 0.00, -0.00, -1.00, 487.9, 221.9)">a</text><text xml:space="preserve" font-family="Arial-ItalicMT,Arial" font-style="italic" font-size="12.0" fill="#000000" transform="matrix(1.00, 0.00, -0.00, -1.00, 494.6, 221.9)">c</text><text xml:space="preserve" font-family="Arial-ItalicMT,Arial" font-style="italic" font-size="12.0" fill="#000000" transform="matrix(1.00, 0.00, -0.00, -1.00, 500.6, 221.9)">h</text><text xml:space="preserve" font-family="Arial-ItalicMT,Arial" font-style="italic" font-size="12.0" fill="#000000" transform="matrix(1.00, 0.00, -0.00, -1.00, 507.2, 221.9)">e</text><text xml:space="preserve" font-family="Arial-ItalicMT,Arial" font-style="italic" font-size="12.0" fill="#000000" transform="matrix(1.00, 0.00, -0.00, -1.00, 513.9, 221.9)">s</text><text xml:space="preserve" font-family="Arial-ItalicMT,Arial" font-style="italic" font-size="12.0" fill="#000000" transform="matrix(1.00, 0.00, -0.00, -1.00, 519.9, 221.9)">i</text><text xml:space="preserve" font-family="Arial-ItalicMT,Arial" font-style="italic" font-size="12.0" fill="#000000" transform="matrix(1.00, 0.00, -0.00, -1.00, 522.6, 221.9)">s</text><text xml:space="preserve" font-family="Arial-ItalicMT,Arial" font-style="italic" font-size="12.0" fill="#000000" transform="matrix(1.00, 0.00, -0.00, -1.00, 528.6, 221.9)"> </text><text xml:space="preserve" font-family="Arial-ItalicMT,Arial" font-style="italic" font-size="12.0" fill="#000000" transform="matrix(1.00, 0.00, -0.00, -1.00, 531.9, 221.9)">m</text><text xml:space="preserve" font-family="Arial-ItalicMT,Arial" font-style="italic" font-size="12.0" fill="#000000" transform="matrix(1.00, 0.00, -0.00, -1.00, 541.9, 221.9)">u</text><text xml:space="preserve" font-family="Arial-ItalicMT,Arial" font-style="italic" font-size="12.0" fill="#000000" transform="matrix(1.00, 0.00, -0.00, -1.00, 548.6, 221.9)">t</text><text xml:space="preserve" font-family="Arial-ItalicMT,Arial" font-style="italic" font-size="12.0" fill="#000000" transform="matrix(1.00, 0.00, -0.00, -1.00, 551.9, 221.9)">a</text><g><clipPath id="clip0x608000ab6860"><path d="M 426.0 45.0 L 632.0 45.0 L 632.0 202.0 L 426.0 202.0 Z M 426.0 45.0 "></path></clipPath><g clip-path="url(#clip0x608000ab6860)"><image xlink:href="B9EB7576A966CCBCA0BC1548AAC48A42.png" width="380.00" height="290.00" transform="matrix(0.54, 0.00, -0.00, -0.54, 426.0, 202.0)"></image></g></g><text xml:space="preserve" font-family="ArialMT,Arial" font-size="24.0" fill="#000000" transform="matrix(1.00, 0.00, -0.00, -1.00, 428.2, 9.9)">Z</text><text xml:space="preserve" font-family="ArialMT,Arial" font-size="24.0" fill="#000000" transform="matrix(1.00, 0.00, -0.00, -1.00, 442.9, 9.9)">a</text><text xml:space="preserve" font-family="ArialMT,Arial" font-size="24.0" fill="#000000" transform="matrix(1.00, 0.00, -0.00, -1.00, 456.2, 9.9)">m</text><text xml:space="preserve" font-family="ArialMT,Arial" font-size="24.0" fill="#000000" transform="matrix(1.00, 0.00, -0.00, -1.00, 476.2, 9.9)">u</text><text xml:space="preserve" font-family="ArialMT,Arial" font-size="24.0" fill="#000000" transform="matrix(1.00, 0.00, -0.00, -1.00, 489.6, 9.9)">d</text><text xml:space="preserve" font-family="ArialMT,Arial" font-size="24.0" fill="#000000" transform="matrix(1.00, 0.00, -0.00, -1.00, 502.9, 9.9)">i</text><text xml:space="preserve" font-family="ArialMT,Arial" font-size="24.0" fill="#000000" transform="matrix(1.00, 0.00, -0.00, -1.00, 508.2, 9.9)">o</text><text xml:space="preserve" font-family="ArialMT,Arial" font-size="24.0" fill="#000000" transform="matrix(1.00, 0.00, -0.00, -1.00, 521.6, 9.9)"> </text><text xml:space="preserve" font-family="ArialMT,Arial" font-size="24.0" fill="#000000" transform="matrix(1.00, 0.00, -0.00, -1.00, 528.3, 9.9)">a</text><text xml:space="preserve" font-family="ArialMT,Arial" font-size="24.0" fill="#000000" transform="matrix(1.00, 0.00, -0.00, -1.00, 541.6, 9.9)">n</text><text xml:space="preserve" font-family="ArialMT,Arial" font-size="24.0" fill="#000000" transform="matrix(1.00, 0.00, -0.00, -1.00, 555.0, 9.9)">d</text><text xml:space="preserve" font-family="ArialMT,Arial" font-size="24.0" fill="#000000" transform="matrix(1.00, 0.00, -0.00, -1.00, 568.3, 9.9)"> </text><text xml:space="preserve" font-family="ArialMT,Arial" font-size="24.0" fill="#000000" transform="matrix(1.00, 0.00, -0.00, -1.00, 575.0, 9.9)">G</text><text xml:space="preserve" font-family="ArialMT,Arial" font-size="24.0" fill="#000000" transform="matrix(1.00, 0.00, -0.00, -1.00, 593.6, 9.9)">r</text><text xml:space="preserve" font-family="ArialMT,Arial" font-size="24.0" fill="#000000" transform="matrix(1.00, 0.00, -0.00, -1.00, 601.6, 9.9)">e</text><text xml:space="preserve" font-family="ArialMT,Arial" font-size="24.0" fill="#000000" transform="matrix(1.00, 0.00, -0.00, -1.00, 615.0, 9.9)">e</text><text xml:space="preserve" font-family="ArialMT,Arial" font-size="24.0" fill="#000000" transform="matrix(1.00, 0.00, -0.00, -1.00, 628.3, 9.9)">n</text><text xml:space="preserve" font-family="ArialMT,Arial" font-size="24.0" fill="#000000" transform="matrix(1.00, 0.00, -0.00, -1.00, 641.7, 9.9)">e</text><text xml:space="preserve" font-family="ArialMT,Arial" font-size="24.0" fill="#000000" transform="matrix(1.00, 0.00, -0.00, -1.00, 655.0, 9.9)"> </text><text xml:space="preserve" font-family="ArialMT,Arial" font-size="24.0" fill="#000000" transform="matrix(1.00, 0.00, -0.00, -1.00, 661.7, 9.9)">1</text><text xml:space="preserve" font-family="ArialMT,Arial" font-size="24.0" fill="#000000" transform="matrix(1.00, 0.00, -0.00, -1.00, 675.1, 9.9)">9</text><text xml:space="preserve" font-family="ArialMT,Arial" font-size="24.0" fill="#000000" transform="matrix(1.00, 0.00, -0.00, -1.00, 688.4, 9.9)">9</text><text xml:space="preserve" font-family="ArialMT,Arial" font-size="24.0" fill="#000000" transform="matrix(1.00, 0.00, -0.00, -1.00, 701.8, 9.9)">7</text></g></svg>