<?xml version="1.0" encoding="UTF-8" standalone="no"?><svg xmlns="http://www.w3.org/2000/svg" xmlns:xlink="http://www.w3.org/1999/xlink" clip-rule="evenodd" stroke-miterlimit="10" viewBox="0 0 720 540"><desc>SVG generated by Keynote</desc><defs></defs><g transform="matrix(1.00, 0.00, -0.00, -1.00, 0.0, 540.0)"><path d="M 0.0 540.0 L 720.0 540.0 L 720.0 0.0 L 0.0 0.0 Z M 0.0 540.0 " fill="#FEFFFF"></path><image xlink:href="0B9C91ED0C2F0AD28C1E99805C8D112F.png" width="1333.00" height="540.00" transform="matrix(0.54, 0.00, -0.00, -0.54, -1.0, 416.0)"></image><text xml:space="preserve" font-family="GillSans,Gill Sans" font-size="72.0" fill="#000000" transform="matrix(1.00, 0.00, -0.00, -1.00, 260.4, 461.1)">D</text><text xml:space="preserve" font-family="GillSans,Gill Sans" font-size="72.0" fill="#000000" transform="matrix(1.00, 0.00, -0.00, -1.00, 314.4, 461.1)">i</text><text xml:space="preserve" font-family="GillSans,Gill Sans" font-size="72.0" fill="#000000" transform="matrix(1.00, 0.00, -0.00, -1.00, 330.2, 461.1)">p</text><text xml:space="preserve" font-family="GillSans,Gill Sans" font-size="72.0" fill="#000000" transform="matrix(1.00, 0.00, -0.00, -1.00, 366.2, 461.1)">n</text><text xml:space="preserve" font-family="GillSans,Gill Sans" font-size="72.0" fill="#000000" transform="matrix(1.00, 0.00, -0.00, -1.00, 402.2, 461.1)">o</text><text xml:space="preserve" font-family="GillSans,Gill Sans" font-size="72.0" fill="#000000" transform="matrix(1.00, 0.00, -0.00, -1.00, 441.9, 461.1)">i</text><text xml:space="preserve" font-family="GillSans,Gill Sans" font-size="28.0" fill="#000000" transform="matrix(1.00, 0.00, -0.00, -1.00, 316.8, 19.5)">l</text><text xml:space="preserve" font-family="GillSans,Gill Sans" font-size="28.0" fill="#000000" transform="matrix(1.00, 0.00, -0.00, -1.00, 322.9, 19.5)">u</text><text xml:space="preserve" font-family="GillSans,Gill Sans" font-size="28.0" fill="#000000" transform="matrix(1.00, 0.00, -0.00, -1.00, 336.9, 19.5)">n</text><text xml:space="preserve" font-family="GillSans,Gill Sans" font-size="28.0" fill="#000000" transform="matrix(1.00, 0.00, -0.00, -1.00, 350.9, 19.5)">g</text><text xml:space="preserve" font-family="GillSans,Gill Sans" font-size="28.0" fill="#000000" transform="matrix(1.00, 0.00, -0.00, -1.00, 362.9, 19.5)">ï¬</text><text xml:space="preserve" font-family="GillSans,Gill Sans" font-size="28.0" fill="#000000" transform="matrix(1.00, 0.00, -0.00, -1.00, 376.9, 19.5)">s</text><text xml:space="preserve" font-family="GillSans,Gill Sans" font-size="28.0" fill="#000000" transform="matrix(1.00, 0.00, -0.00, -1.00, 387.7, 19.5)">h</text></g></svg>