<?xml version="1.0" encoding="UTF-8" standalone="no"?><svg xmlns="http://www.w3.org/2000/svg" xmlns:xlink="http://www.w3.org/1999/xlink" clip-rule="evenodd" stroke-miterlimit="10" viewBox="0 0 720 540"><desc>SVG generated by Keynote</desc><defs></defs><g transform="matrix(1.00, 0.00, -0.00, -1.00, 0.0, 540.0)"><path d="M 0.0 540.0 L 720.0 540.0 L 720.0 0.0 L 0.0 0.0 Z M 0.0 540.0 " fill="#FEFFFF"></path><path d="M -0.0 0.0 L 272.0 0.0 " fill="none" stroke="#000000" stroke-width="6.00" stroke-linejoin="round" transform="matrix(0.00, -1.00, -1.00, 0.00, 75.0, 303.0)"></path><path d="M -0.2 -0.0 L 40.8 -0.0 " fill="none" stroke="#000000" stroke-width="6.00" stroke-linejoin="round" transform="matrix(0.00, 1.00, 1.00, 0.00, 660.0, 262.2)"></path><path d="M -0.1 0.0 L 85.9 0.0 " fill="none" stroke="#000000" stroke-width="6.00" stroke-linejoin="round" transform="matrix(0.00, 1.00, 1.00, 0.00, 140.0, 217.1)"></path><path d="M 0.4 0.0 L 37.4 0.0 " fill="none" stroke="#000000" stroke-width="6.00" stroke-linejoin="round" transform="matrix(0.00, 1.00, 1.00, 0.00, 270.0, 265.6)"></path><path d="M 0.4 0.0 L 30.4 0.0 " fill="none" stroke="#000000" stroke-width="6.00" stroke-linejoin="round" transform="matrix(0.00, 1.00, 1.00, 0.00, 205.0, 268.6)"></path><path d="M 0.3 0.0 L 190.3 0.0 " fill="none" stroke="#000000" stroke-width="6.00" stroke-linejoin="round" transform="matrix(0.00, 1.00, 1.00, 0.00, 335.0, 112.7)"></path><path d="M 0.4 -0.0 L 42.4 -0.0 " fill="none" stroke="#000000" stroke-width="6.00" stroke-linejoin="round" transform="matrix(0.00, 1.00, 1.00, 0.00, 400.0, 260.6)"></path><path d="M -0.3 0.0 L 76.7 0.0 " fill="none" stroke="#000000" stroke-width="6.00" stroke-linejoin="round" transform="matrix(0.00, 1.00, 1.00, 0.00, 530.0, 226.3)"></path><path d="M -0.1 0.0 L 41.9 0.0 " fill="none" stroke="#000000" stroke-width="6.00" stroke-linejoin="round" transform="matrix(0.00, 1.00, 1.00, 0.00, 465.0, 261.1)"></path><path d="M 0.4 0.0 L 33.4 0.0 " fill="none" stroke="#000000" stroke-width="6.00" stroke-linejoin="round" transform="matrix(0.00, 1.00, 1.00, 0.00, 595.0, 267.6)"></path><text xml:space="preserve" font-family="ArialMT,Arial" font-size="24.0" fill="#000000" transform="matrix(0.00, 1.00, 1.00, -0.00, 83.1, 312.2)">L</text><text xml:space="preserve" font-family="ArialMT,Arial" font-size="24.0" fill="#000000" transform="matrix(0.00, 1.00, 1.00, -0.00, 83.1, 325.6)">u</text><text xml:space="preserve" font-family="ArialMT,Arial" font-size="24.0" fill="#000000" transform="matrix(0.00, 1.00, 1.00, -0.00, 83.1, 338.9)">n</text><text xml:space="preserve" font-family="ArialMT,Arial" font-size="24.0" fill="#000000" transform="matrix(0.00, 1.00, 1.00, -0.00, 83.1, 352.3)">g</text><text xml:space="preserve" font-family="ArialMT,Arial" font-size="24.0" fill="#000000" transform="matrix(0.00, 1.00, 1.00, -0.00, 83.1, 365.6)">f</text><text xml:space="preserve" font-family="ArialMT,Arial" font-size="24.0" fill="#000000" transform="matrix(0.00, 1.00, 1.00, -0.00, 83.1, 372.3)">i</text><text xml:space="preserve" font-family="ArialMT,Arial" font-size="24.0" fill="#000000" transform="matrix(0.00, 1.00, 1.00, -0.00, 83.1, 377.6)">s</text><text xml:space="preserve" font-family="ArialMT,Arial" font-size="24.0" fill="#000000" transform="matrix(0.00, 1.00, 1.00, -0.00, 83.1, 389.6)">h</text><text xml:space="preserve" font-family="ArialMT,Arial" font-size="24.0" fill="#000000" transform="matrix(0.00, 1.00, 1.00, -0.00, 148.1, 311.3)">G</text><text xml:space="preserve" font-family="ArialMT,Arial" font-size="24.0" fill="#000000" transform="matrix(0.00, 1.00, 1.00, -0.00, 148.1, 329.9)">y</text><text xml:space="preserve" font-family="ArialMT,Arial" font-size="24.0" fill="#000000" transform="matrix(0.00, 1.00, 1.00, -0.00, 148.1, 341.9)">m</text><text xml:space="preserve" font-family="ArialMT,Arial" font-size="24.0" fill="#000000" transform="matrix(0.00, 1.00, 1.00, -0.00, 148.1, 361.9)">n</text><text xml:space="preserve" font-family="ArialMT,Arial" font-size="24.0" fill="#000000" transform="matrix(0.00, 1.00, 1.00, -0.00, 148.1, 375.3)">o</text><text xml:space="preserve" font-family="ArialMT,Arial" font-size="24.0" fill="#000000" transform="matrix(0.00, 1.00, 1.00, -0.00, 148.1, 388.6)">p</text><text xml:space="preserve" font-family="ArialMT,Arial" font-size="24.0" fill="#000000" transform="matrix(0.00, 1.00, 1.00, -0.00, 148.1, 402.0)">h</text><text xml:space="preserve" font-family="ArialMT,Arial" font-size="24.0" fill="#000000" transform="matrix(0.00, 1.00, 1.00, -0.00, 148.1, 415.3)">i</text><text xml:space="preserve" font-family="ArialMT,Arial" font-size="24.0" fill="#000000" transform="matrix(0.00, 1.00, 1.00, -0.00, 148.1, 420.7)">o</text><text xml:space="preserve" font-family="ArialMT,Arial" font-size="24.0" fill="#000000" transform="matrix(0.00, 1.00, 1.00, -0.00, 148.1, 434.0)">n</text><text xml:space="preserve" font-family="ArialMT,Arial" font-size="24.0" fill="#000000" transform="matrix(0.00, 1.00, 1.00, -0.00, 148.1, 447.4)">a</text><text xml:space="preserve" font-family="ArialMT,Arial" font-size="24.0" fill="#000000" transform="matrix(0.00, 1.00, 1.00, -0.00, 213.1, 311.3)">A</text><text xml:space="preserve" font-family="ArialMT,Arial" font-size="24.0" fill="#000000" transform="matrix(0.00, 1.00, 1.00, -0.00, 213.1, 327.3)">n</text><text xml:space="preserve" font-family="ArialMT,Arial" font-size="24.0" fill="#000000" transform="matrix(0.00, 1.00, 1.00, -0.00, 213.1, 340.6)">u</text><text xml:space="preserve" font-family="ArialMT,Arial" font-size="24.0" fill="#000000" transform="matrix(0.00, 1.00, 1.00, -0.00, 213.1, 354.0)">r</text><text xml:space="preserve" font-family="ArialMT,Arial" font-size="24.0" fill="#000000" transform="matrix(0.00, 1.00, 1.00, -0.00, 213.1, 362.0)">a</text><text xml:space="preserve" font-family="ArialMT,Arial" font-size="24.0" fill="#000000" transform="matrix(0.00, 1.00, 1.00, -0.00, 278.1, 311.3)">C</text><text xml:space="preserve" font-family="ArialMT,Arial" font-size="24.0" fill="#000000" transform="matrix(0.00, 1.00, 1.00, -0.00, 278.1, 328.6)">a</text><text xml:space="preserve" font-family="ArialMT,Arial" font-size="24.0" fill="#000000" transform="matrix(0.00, 1.00, 1.00, -0.00, 278.1, 342.0)">u</text><text xml:space="preserve" font-family="ArialMT,Arial" font-size="24.0" fill="#000000" transform="matrix(0.00, 1.00, 1.00, -0.00, 278.1, 355.3)">d</text><text xml:space="preserve" font-family="ArialMT,Arial" font-size="24.0" fill="#000000" transform="matrix(0.00, 1.00, 1.00, -0.00, 278.1, 368.7)">a</text><text xml:space="preserve" font-family="ArialMT,Arial" font-size="24.0" fill="#000000" transform="matrix(0.00, 1.00, 1.00, -0.00, 278.1, 382.0)">t</text><text xml:space="preserve" font-family="ArialMT,Arial" font-size="24.0" fill="#000000" transform="matrix(0.00, 1.00, 1.00, -0.00, 278.1, 388.7)">a</text><text xml:space="preserve" font-family="ArialMT,Arial" font-size="24.0" fill="#000000" transform="matrix(0.00, 1.00, 1.00, -0.00, 343.1, 311.3)">M</text><text xml:space="preserve" font-family="ArialMT,Arial" font-size="24.0" fill="#000000" transform="matrix(0.00, 1.00, 1.00, -0.00, 343.1, 331.3)">a</text><text xml:space="preserve" font-family="ArialMT,Arial" font-size="24.0" fill="#000000" transform="matrix(0.00, 1.00, 1.00, -0.00, 343.1, 344.6)">m</text><text xml:space="preserve" font-family="ArialMT,Arial" font-size="24.0" fill="#000000" transform="matrix(0.00, 1.00, 1.00, -0.00, 343.1, 364.6)">m</text><text xml:space="preserve" font-family="ArialMT,Arial" font-size="24.0" fill="#000000" transform="matrix(0.00, 1.00, 1.00, -0.00, 343.1, 384.6)">a</text><text xml:space="preserve" font-family="ArialMT,Arial" font-size="24.0" fill="#000000" transform="matrix(0.00, 1.00, 1.00, -0.00, 343.1, 397.9)">l</text><text xml:space="preserve" font-family="ArialMT,Arial" font-size="24.0" fill="#000000" transform="matrix(0.00, 1.00, 1.00, -0.00, 343.1, 403.3)">i</text><text xml:space="preserve" font-family="ArialMT,Arial" font-size="24.0" fill="#000000" transform="matrix(0.00, 1.00, 1.00, -0.00, 343.1, 408.6)">a</text><text xml:space="preserve" font-family="ArialMT,Arial" font-size="24.0" fill="#000000" transform="matrix(0.00, 1.00, 1.00, -0.00, 408.1, 311.3)">S</text><text xml:space="preserve" font-family="ArialMT,Arial" font-size="24.0" fill="#000000" transform="matrix(0.00, 1.00, 1.00, -0.00, 408.1, 327.3)">p</text><text xml:space="preserve" font-family="ArialMT,Arial" font-size="24.0" fill="#000000" transform="matrix(0.00, 1.00, 1.00, -0.00, 408.1, 340.6)">h</text><text xml:space="preserve" font-family="ArialMT,Arial" font-size="24.0" fill="#000000" transform="matrix(0.00, 1.00, 1.00, -0.00, 408.1, 354.0)">e</text><text xml:space="preserve" font-family="ArialMT,Arial" font-size="24.0" fill="#000000" transform="matrix(0.00, 1.00, 1.00, -0.00, 408.1, 367.3)">n</text><text xml:space="preserve" font-family="ArialMT,Arial" font-size="24.0" fill="#000000" transform="matrix(0.00, 1.00, 1.00, -0.00, 408.1, 380.7)">o</text><text xml:space="preserve" font-family="ArialMT,Arial" font-size="24.0" fill="#000000" transform="matrix(0.00, 1.00, 1.00, -0.00, 408.1, 394.0)">d</text><text xml:space="preserve" font-family="ArialMT,Arial" font-size="24.0" fill="#000000" transform="matrix(0.00, 1.00, 1.00, -0.00, 408.1, 407.4)">o</text><text xml:space="preserve" font-family="ArialMT,Arial" font-size="24.0" fill="#000000" transform="matrix(0.00, 1.00, 1.00, -0.00, 408.1, 420.7)">n</text><text xml:space="preserve" font-family="ArialMT,Arial" font-size="24.0" fill="#000000" transform="matrix(0.00, 1.00, 1.00, -0.00, 408.1, 434.1)">t</text><text xml:space="preserve" font-family="ArialMT,Arial" font-size="24.0" fill="#000000" transform="matrix(0.00, 1.00, 1.00, -0.00, 408.1, 440.8)">i</text><text xml:space="preserve" font-family="ArialMT,Arial" font-size="24.0" fill="#000000" transform="matrix(0.00, 1.00, 1.00, -0.00, 408.1, 446.1)">d</text><text xml:space="preserve" font-family="ArialMT,Arial" font-size="24.0" fill="#000000" transform="matrix(0.00, 1.00, 1.00, -0.00, 408.1, 459.4)">a</text><text xml:space="preserve" font-family="ArialMT,Arial" font-size="24.0" fill="#000000" transform="matrix(0.00, 1.00, 1.00, -0.00, 473.1, 311.3)">S</text><text xml:space="preserve" font-family="ArialMT,Arial" font-size="24.0" fill="#000000" transform="matrix(0.00, 1.00, 1.00, -0.00, 473.1, 327.3)">q</text><text xml:space="preserve" font-family="ArialMT,Arial" font-size="24.0" fill="#000000" transform="matrix(0.00, 1.00, 1.00, -0.00, 473.1, 340.6)">u</text><text xml:space="preserve" font-family="ArialMT,Arial" font-size="24.0" fill="#000000" transform="matrix(0.00, 1.00, 1.00, -0.00, 473.1, 354.0)">a</text><text xml:space="preserve" font-family="ArialMT,Arial" font-size="24.0" fill="#000000" transform="matrix(0.00, 1.00, 1.00, -0.00, 473.1, 367.3)">m</text><text xml:space="preserve" font-family="ArialMT,Arial" font-size="24.0" fill="#000000" transform="matrix(0.00, 1.00, 1.00, -0.00, 473.1, 387.3)">a</text><text xml:space="preserve" font-family="ArialMT,Arial" font-size="24.0" fill="#000000" transform="matrix(0.00, 1.00, 1.00, -0.00, 473.1, 400.7)">t</text><text xml:space="preserve" font-family="ArialMT,Arial" font-size="24.0" fill="#000000" transform="matrix(0.00, 1.00, 1.00, -0.00, 473.1, 407.3)">a</text><text xml:space="preserve" font-family="ArialMT,Arial" font-size="24.0" fill="#000000" transform="matrix(0.00, 1.00, 1.00, -0.00, 538.1, 311.3)">T</text><text xml:space="preserve" font-family="ArialMT,Arial" font-size="24.0" fill="#000000" transform="matrix(0.00, 1.00, 1.00, -0.00, 538.1, 323.3)">e</text><text xml:space="preserve" font-family="ArialMT,Arial" font-size="24.0" fill="#000000" transform="matrix(0.00, 1.00, 1.00, -0.00, 538.1, 336.6)">s</text><text xml:space="preserve" font-family="ArialMT,Arial" font-size="24.0" fill="#000000" transform="matrix(0.00, 1.00, 1.00, -0.00, 538.1, 348.6)">t</text><text xml:space="preserve" font-family="ArialMT,Arial" font-size="24.0" fill="#000000" transform="matrix(0.00, 1.00, 1.00, -0.00, 538.1, 355.3)">u</text><text xml:space="preserve" font-family="ArialMT,Arial" font-size="24.0" fill="#000000" transform="matrix(0.00, 1.00, 1.00, -0.00, 538.1, 368.6)">d</text><text xml:space="preserve" font-family="ArialMT,Arial" font-size="24.0" fill="#000000" transform="matrix(0.00, 1.00, 1.00, -0.00, 538.1, 382.0)">i</text><text xml:space="preserve" font-family="ArialMT,Arial" font-size="24.0" fill="#000000" transform="matrix(0.00, 1.00, 1.00, -0.00, 538.1, 387.3)">n</text><text xml:space="preserve" font-family="ArialMT,Arial" font-size="24.0" fill="#000000" transform="matrix(0.00, 1.00, 1.00, -0.00, 538.1, 400.7)">e</text><text xml:space="preserve" font-family="ArialMT,Arial" font-size="24.0" fill="#000000" transform="matrix(0.00, 1.00, 1.00, -0.00, 538.1, 414.0)">s</text><text xml:space="preserve" font-family="ArialMT,Arial" font-size="24.0" fill="#000000" transform="matrix(0.00, 1.00, 1.00, -0.00, 603.1, 311.3)">C</text><text xml:space="preserve" font-family="ArialMT,Arial" font-size="24.0" fill="#000000" transform="matrix(0.00, 1.00, 1.00, -0.00, 603.1, 328.6)">r</text><text xml:space="preserve" font-family="ArialMT,Arial" font-size="24.0" fill="#000000" transform="matrix(0.00, 1.00, 1.00, -0.00, 603.1, 336.6)">o</text><text xml:space="preserve" font-family="ArialMT,Arial" font-size="24.0" fill="#000000" transform="matrix(0.00, 1.00, 1.00, -0.00, 603.1, 349.9)">c</text><text xml:space="preserve" font-family="ArialMT,Arial" font-size="24.0" fill="#000000" transform="matrix(0.00, 1.00, 1.00, -0.00, 603.1, 361.9)">o</text><text xml:space="preserve" font-family="ArialMT,Arial" font-size="24.0" fill="#000000" transform="matrix(0.00, 1.00, 1.00, -0.00, 603.1, 375.3)">d</text><text xml:space="preserve" font-family="ArialMT,Arial" font-size="24.0" fill="#000000" transform="matrix(0.00, 1.00, 1.00, -0.00, 603.1, 388.6)">i</text><text xml:space="preserve" font-family="ArialMT,Arial" font-size="24.0" fill="#000000" transform="matrix(0.00, 1.00, 1.00, -0.00, 603.1, 394.0)">l</text><text xml:space="preserve" font-family="ArialMT,Arial" font-size="24.0" fill="#000000" transform="matrix(0.00, 1.00, 1.00, -0.00, 603.1, 399.3)">i</text><text xml:space="preserve" font-family="ArialMT,Arial" font-size="24.0" fill="#000000" transform="matrix(0.00, 1.00, 1.00, -0.00, 603.1, 404.7)">a</text><text xml:space="preserve" font-family="ArialMT,Arial" font-size="24.0" fill="#000000" transform="matrix(0.00, 1.00, 1.00, -0.00, 668.1, 311.3)">A</text><text xml:space="preserve" font-family="ArialMT,Arial" font-size="24.0" fill="#000000" transform="matrix(0.00, 1.00, 1.00, -0.00, 668.1, 326.8)">v</text><text xml:space="preserve" font-family="ArialMT,Arial" font-size="24.0" fill="#000000" transform="matrix(0.00, 1.00, 1.00, -0.00, 668.1, 338.8)">e</text><text xml:space="preserve" font-family="ArialMT,Arial" font-size="24.0" fill="#000000" transform="matrix(0.00, 1.00, 1.00, -0.00, 668.1, 352.2)">s</text><path d="M -0.0 0.0 L 71.0 0.0 " fill="none" stroke="#000000" stroke-width="6.00" stroke-linejoin="round" transform="matrix(1.00, 0.00, 0.00, -1.00, 592.0, 265.0)"></path><path d="M -0.4 -0.0 L 41.6 -0.0 " fill="none" stroke="#000000" stroke-width="6.00" stroke-linejoin="round" transform="matrix(0.00, 1.00, 1.00, 0.00, 627.0, 226.4)"></path><path d="M -0.3 0.0 L 102.7 0.0 " fill="none" stroke="#000000" stroke-width="6.00" stroke-linejoin="round" transform="matrix(1.00, 0.00, 0.00, -1.00, 527.3, 229.0)"></path><path d="M -0.0 0.0 L 71.0 0.0 " fill="none" stroke="#000000" stroke-width="6.00" stroke-linejoin="round" transform="matrix(1.00, 0.00, 0.00, -1.00, 397.0, 262.0)"></path><path d="M -0.5 -0.0 L 107.5 -0.0 " fill="none" stroke="#000000" stroke-width="6.00" stroke-linejoin="round" transform="matrix(0.00, 1.00, 1.00, 0.00, 434.0, 157.5)"></path><path d="M 0.0 0.0 L 149.0 0.0 " fill="none" stroke="#000000" stroke-width="6.00" stroke-linejoin="round" transform="matrix(1.00, 0.00, 0.00, -1.00, 431.0, 159.0)"></path><path d="M -0.5 0.0 L 73.5 0.0 " fill="none" stroke="#000000" stroke-width="6.00" stroke-linejoin="round" transform="matrix(0.00, 1.00, 1.00, 0.00, 577.0, 158.5)"></path><path d="M -0.3 -0.0 L 50.7 -0.0 " fill="none" stroke="#000000" stroke-width="6.00" stroke-linejoin="round" transform="matrix(0.00, 1.00, 1.00, 0.00, 508.0, 111.3)"></path><path d="M 0.0 0.0 L 178.0 0.0 " fill="none" stroke="#000000" stroke-width="6.00" stroke-linejoin="round" transform="matrix(1.00, 0.00, 0.00, -1.00, 332.0, 114.0)"></path><path d="M 0.1 0.0 L 71.1 0.0 " fill="none" stroke="#000000" stroke-width="6.00" stroke-linejoin="round" transform="matrix(1.00, 0.00, 0.00, -1.00, 201.9, 268.0)"></path><path d="M 0.4 0.0 L 47.4 0.0 " fill="none" stroke="#000000" stroke-width="6.00" stroke-linejoin="round" transform="matrix(0.00, 1.00, 1.00, 0.00, 239.0, 222.6)"></path><path d="M -0.2 0.0 L 104.8 0.0 " fill="none" stroke="#000000" stroke-width="6.00" stroke-linejoin="round" transform="matrix(1.00, 0.00, 0.00, -1.00, 137.2, 220.0)"></path><path d="M -0.1 0.0 L 149.9 0.0 " fill="none" stroke="#000000" stroke-width="6.00" stroke-linejoin="round" transform="matrix(0.00, 1.00, 1.00, 0.00, 189.0, 73.1)"></path><path d="M 0.0 0.0 L 238.0 0.0 " fill="none" stroke="#000000" stroke-width="6.00" stroke-linejoin="round" transform="matrix(1.00, 0.00, 0.00, -1.00, 186.0, 75.0)"></path><path d="M 0.2 -0.0 L 43.2 -0.0 " fill="none" stroke="#000000" stroke-width="6.00" stroke-linejoin="round" transform="matrix(0.00, 1.00, 1.00, 0.00, 421.0, 73.8)"></path><path d="M 0.1 -0.0 L 236.1 -0.0 " fill="none" stroke="#000000" stroke-width="6.00" stroke-linejoin="round" transform="matrix(1.00, 0.00, 0.00, -1.00, 71.9, 31.0)"></path><path d="M 0.4 0.0 L 48.4 0.0 " fill="none" stroke="#000000" stroke-width="6.00" stroke-linejoin="round" transform="matrix(0.00, 1.00, 1.00, 0.00, 305.0, 29.6)"></path><path d="M 0.2 0.0 L 43.2 0.0 " fill="none" stroke="#000000" stroke-width="6.00" stroke-linejoin="round" transform="matrix(0.00, 1.00, 1.00, 0.00, 181.0, -10.2)"></path><path d="M 60.5 491.5 L 96.5 491.5 L 96.5 450.5 L 60.5 450.5 Z M 60.0 492.0 " fill="#FFD5A9"></path><path d="M 0.5 0.5 L 36.5 0.5 L 36.5 41.5 L 0.5 41.5 Z M 0.0 0.0 " fill="none" stroke="#000000" stroke-width="1.00" transform="matrix(1.00, 0.00, 0.00, -1.00, 60.0, 492.0)"></path><g><clipPath id="clip0x608000cb8300"><path d="M 56.7 447.7 L 99.3 447.7 L 99.3 495.3 L 56.7 495.3 Z M 56.7 447.7 "></path></clipPath><g clip-path="url(#clip0x608000cb8300)"><text xml:space="preserve" font-family="ArialMT,Arial" font-size="28.0" fill="#000000" transform="matrix(1.00, 0.00, -0.00, -1.00, 67.7, 462.3)">6</text></g></g><path d="M 110.5 511.5 L 170.5 511.5 L 170.5 474.5 L 110.5 474.5 Z M 110.0 512.0 " fill="#FEFCA9" fill-opacity="0.99"></path><path d="M 0.5 0.5 L 60.5 0.5 L 60.5 37.5 L 0.5 37.5 Z M 0.0 0.0 " fill="none" stroke="#000000" stroke-width="1.00" transform="matrix(1.00, 0.00, 0.00, -1.00, 110.0, 512.0)"></path><g><clipPath id="clip0x608000ca6e40"><path d="M 107.8 472.8 L 172.2 472.8 L 172.2 514.2 L 107.8 514.2 Z M 107.8 472.8 "></path></clipPath><g clip-path="url(#clip0x608000ca6e40)"><text xml:space="preserve" font-family="ArialMT,Arial" font-size="24.0" fill="#000000" transform="matrix(1.00, 0.00, -0.00, -1.00, 117.7, 485.4)">2</text><text xml:space="preserve" font-family="ArialMT,Arial" font-size="24.0" fill="#000000" transform="matrix(1.00, 0.00, -0.00, -1.00, 131.1, 485.4)">0</text><text xml:space="preserve" font-family="ArialMT,Arial" font-size="24.0" fill="#000000" transform="matrix(1.00, 0.00, -0.00, -1.00, 144.4, 485.4)">0</text></g></g><path d="M 172.5 422.5 L 244.5 422.5 L 244.5 385.5 L 172.5 385.5 Z M 172.5 422.9 " fill="#D4FDD5" fill-opacity="0.99"></path><path d="M 0.0 0.4 L 72.0 0.4 L 72.0 37.4 L 0.0 37.4 Z M 0.0 0.0 " fill="none" stroke="#000000" stroke-width="1.00" transform="matrix(1.00, 0.00, 0.00, -1.00, 172.5, 422.9)"></path><g><clipPath id="clip0x608000ab90e0"><path d="M 170.3 383.7 L 246.7 383.7 L 246.7 425.1 L 170.3 425.1 Z M 170.3 383.7 "></path></clipPath><g clip-path="url(#clip0x608000ab90e0)"><text xml:space="preserve" font-family="ArialMT,Arial" font-size="24.0" fill="#000000" transform="matrix(1.00, 0.00, -0.00, -1.00, 180.2, 396.2)">6</text><text xml:space="preserve" font-family="ArialMT,Arial" font-size="24.0" fill="#000000" transform="matrix(1.00, 0.00, -0.00, -1.00, 193.6, 396.2)">4</text><text xml:space="preserve" font-family="ArialMT,Arial" font-size="24.0" fill="#000000" transform="matrix(1.00, 0.00, -0.00, -1.00, 206.9, 396.2)">4</text><text xml:space="preserve" font-family="ArialMT,Arial" font-size="24.0" fill="#000000" transform="matrix(1.00, 0.00, -0.00, -1.00, 220.3, 396.2)">9</text></g></g><path d="M 249.5 450.5 L 309.5 450.5 L 309.5 413.5 L 249.5 413.5 Z M 249.5 450.8 " fill="#D4FEFF" fill-opacity="0.99"></path><path d="M 0.0 0.3 L 60.0 0.3 L 60.0 37.3 L 0.0 37.3 Z M 0.0 0.0 " fill="none" stroke="#000000" stroke-width="1.00" transform="matrix(1.00, 0.00, 0.00, -1.00, 249.5, 450.8)"></path><g><clipPath id="clip0x608000aae6a0"><path d="M 247.3 411.6 L 311.7 411.6 L 311.7 453.0 L 247.3 453.0 Z M 247.3 411.6 "></path></clipPath><g clip-path="url(#clip0x608000aae6a0)"><text xml:space="preserve" font-family="ArialMT,Arial" font-size="24.0" fill="#000000" transform="matrix(1.00, 0.00, -0.00, -1.00, 257.2, 424.2)">6</text><text xml:space="preserve" font-family="ArialMT,Arial" font-size="24.0" fill="#000000" transform="matrix(1.00, 0.00, -0.00, -1.00, 270.6, 424.2)">6</text><text xml:space="preserve" font-family="ArialMT,Arial" font-size="24.0" fill="#000000" transform="matrix(1.00, 0.00, -0.00, -1.00, 283.9, 424.2)">8</text></g></g><path d="M 306.5 491.5 L 378.5 491.5 L 378.5 454.5 L 306.5 454.5 Z M 306.0 492.0 " fill="#A8D6FF" fill-opacity="0.99"></path><path d="M 0.5 0.5 L 72.5 0.5 L 72.5 37.5 L 0.5 37.5 Z M 0.0 0.0 " fill="none" stroke="#000000" stroke-width="1.00" transform="matrix(1.00, 0.00, 0.00, -1.00, 306.0, 492.0)"></path><g><clipPath id="clip0x6080008b5180"><path d="M 303.8 452.8 L 380.2 452.8 L 380.2 494.2 L 303.8 494.2 Z M 303.8 452.8 "></path></clipPath><g clip-path="url(#clip0x6080008b5180)"><text xml:space="preserve" font-family="ArialMT,Arial" font-size="24.0" fill="#000000" transform="matrix(1.00, 0.00, -0.00, -1.00, 313.7, 465.4)">5</text><text xml:space="preserve" font-family="ArialMT,Arial" font-size="24.0" fill="#000000" transform="matrix(1.00, 0.00, -0.00, -1.00, 327.1, 465.4)">5</text><text xml:space="preserve" font-family="ArialMT,Arial" font-size="24.0" fill="#000000" transform="matrix(1.00, 0.00, -0.00, -1.00, 340.4, 465.4)">0</text><text xml:space="preserve" font-family="ArialMT,Arial" font-size="24.0" fill="#000000" transform="matrix(1.00, 0.00, -0.00, -1.00, 353.7, 465.4)">0</text></g></g><path d="M 506.5 476.5 L 572.5 476.5 L 572.5 439.5 L 506.5 439.5 Z M 506.6 477.0 " fill="#D6AEFF" fill-opacity="0.99"></path><path d="M -0.1 0.5 L 65.9 0.5 L 65.9 37.5 L -0.1 37.5 Z M 0.0 0.0 " fill="none" stroke="#000000" stroke-width="1.00" transform="matrix(1.00, 0.00, 0.00, -1.00, 506.6, 477.0)"></path><g><clipPath id="clip0x608000ea1b60"><path d="M 504.4 437.8 L 574.8 437.8 L 574.8 479.2 L 504.4 479.2 Z M 504.4 437.8 "></path></clipPath><g clip-path="url(#clip0x608000ea1b60)"><text xml:space="preserve" font-family="ArialMT,Arial" font-size="24.0" fill="#000000" transform="matrix(1.00, 0.00, -0.00, -1.00, 514.3, 450.4)">3</text><text xml:space="preserve" font-family="ArialMT,Arial" font-size="24.0" fill="#000000" transform="matrix(1.00, 0.00, -0.00, -1.00, 527.7, 450.4)">4</text><text xml:space="preserve" font-family="ArialMT,Arial" font-size="24.0" fill="#000000" transform="matrix(1.00, 0.00, -0.00, -1.00, 541.0, 450.4)">1</text></g></g><path d="M 387.5 523.5 L 417.5 523.5 L 417.5 486.5 L 387.5 486.5 Z M 387.5 523.1 " fill="#FFADD5" fill-opacity="0.99"></path><path d="M 0.0 -0.4 L 30.0 -0.4 L 30.0 36.6 L 0.0 36.6 Z M 0.0 0.0 " fill="none" stroke="#000000" stroke-width="1.00" transform="matrix(1.00, 0.00, 0.00, -1.00, 387.5, 523.1)"></path><g><clipPath id="clip0x608000aa2d00"><path d="M 385.3 483.9 L 419.7 483.9 L 419.7 525.3 L 385.3 525.3 Z M 385.3 483.9 "></path></clipPath><g clip-path="url(#clip0x608000aa2d00)"><text xml:space="preserve" font-family="ArialMT,Arial" font-size="24.0" fill="#000000" transform="matrix(1.00, 0.00, -0.00, -1.00, 395.0, 496.4)">2</text></g></g><path d="M 429.5 461.5 L 501.5 461.5 L 501.5 424.5 L 429.5 424.5 Z M 429.0 462.0 " fill="#FFD300" fill-opacity="0.99"></path><path d="M 0.5 0.5 L 72.5 0.5 L 72.5 37.5 L 0.5 37.5 Z M 0.0 0.0 " fill="none" stroke="#000000" stroke-width="1.00" transform="matrix(1.00, 0.00, 0.00, -1.00, 429.0, 462.0)"></path><g><clipPath id="clip0x608000ab6e60"><path d="M 426.8 422.8 L 503.2 422.8 L 503.2 464.2 L 426.8 464.2 Z M 426.8 422.8 "></path></clipPath><g clip-path="url(#clip0x608000ab6e60)"><text xml:space="preserve" font-family="ArialMT,Arial" font-size="24.0" fill="#000000" transform="matrix(1.00, 0.00, -0.00, -1.00, 436.7, 435.4)">9</text><text xml:space="preserve" font-family="ArialMT,Arial" font-size="24.0" fill="#000000" transform="matrix(1.00, 0.00, -0.00, -1.00, 450.1, 435.4)">6</text><text xml:space="preserve" font-family="ArialMT,Arial" font-size="24.0" fill="#000000" transform="matrix(1.00, 0.00, -0.00, -1.00, 463.4, 435.4)">7</text><text xml:space="preserve" font-family="ArialMT,Arial" font-size="24.0" fill="#000000" transform="matrix(1.00, 0.00, -0.00, -1.00, 476.8, 435.4)">1</text></g></g><path d="M 618.5 407.5 L 708.5 407.5 L 708.5 370.5 L 618.5 370.5 Z M 618.0 408.0 " fill="#FEFFFF" fill-opacity="0.99"></path><path d="M 0.5 0.5 L 90.5 0.5 L 90.5 37.5 L 0.5 37.5 Z M 0.0 0.0 " fill="none" stroke="#000000" stroke-width="1.00" transform="matrix(1.00, 0.00, 0.00, -1.00, 618.0, 408.0)"></path><g><clipPath id="clip0x6080008bd220"><path d="M 615.8 368.8 L 710.2 368.8 L 710.2 410.2 L 615.8 410.2 Z M 615.8 368.8 "></path></clipPath><g clip-path="url(#clip0x6080008bd220)"><text xml:space="preserve" font-family="ArialMT,Arial" font-size="24.0" fill="#000000" transform="matrix(1.00, 0.00, -0.00, -1.00, 625.7, 381.4)">1</text><text xml:space="preserve" font-family="ArialMT,Arial" font-size="24.0" fill="#000000" transform="matrix(1.00, 0.00, -0.00, -1.00, 639.1, 381.4)">0</text><text xml:space="preserve" font-family="ArialMT,Arial" font-size="24.0" fill="#000000" transform="matrix(1.00, 0.00, -0.00, -1.00, 652.4, 381.4)">,</text><text xml:space="preserve" font-family="ArialMT,Arial" font-size="24.0" fill="#000000" transform="matrix(1.00, 0.00, -0.00, -1.00, 659.1, 381.4)">0</text><text xml:space="preserve" font-family="ArialMT,Arial" font-size="24.0" fill="#000000" transform="matrix(1.00, 0.00, -0.00, -1.00, 672.4, 381.4)">0</text><text xml:space="preserve" font-family="ArialMT,Arial" font-size="24.0" fill="#000000" transform="matrix(1.00, 0.00, -0.00, -1.00, 685.8, 381.4)">0</text></g></g><path d="M 578.5 463.5 L 625.5 463.5 L 625.5 426.5 L 578.5 426.5 Z M 578.3 463.5 " fill="#CBCBCB" fill-opacity="0.99"></path><path d="M 0.2 0.0 L 47.2 0.0 L 47.2 37.0 L 0.2 37.0 Z M 0.0 0.0 " fill="none" stroke="#000000" stroke-width="1.00" transform="matrix(1.00, 0.00, 0.00, -1.00, 578.3, 463.5)"></path><g><clipPath id="clip0x608000aa25e0"><path d="M 576.1 424.3 L 627.5 424.3 L 627.5 465.7 L 576.1 465.7 Z M 576.1 424.3 "></path></clipPath><g clip-path="url(#clip0x608000aa25e0)"><text xml:space="preserve" font-family="ArialMT,Arial" font-size="24.0" fill="#000000" transform="matrix(1.00, 0.00, -0.00, -1.00, 586.0, 436.9)">2</text><text xml:space="preserve" font-family="ArialMT,Arial" font-size="24.0" fill="#000000" transform="matrix(1.00, 0.00, -0.00, -1.00, 599.3, 436.9)">5</text></g></g><g><clipPath id="clip0x6080008a3300"><path d="M 608.0 243.0 L 647.0 243.0 L 647.0 282.0 L 608.0 282.0 Z M 608.0 243.0 "></path></clipPath><g clip-path="url(#clip0x6080008a3300)"><path d="M 645.5 262.5 L 638.5 265.1 L 638.5 259.9 Z M 640.2 275.2 L 633.3 271.9 L 636.9 268.3 Z M 627.5 280.5 L 624.9 273.5 L 630.1 273.5 Z M 614.8 275.2 L 618.1 268.3 L 621.7 271.9 Z M 609.5 262.5 L 616.5 259.9 L 616.5 265.1 Z M 614.8 249.8 L 621.7 253.1 L 618.1 256.7 Z M 627.5 244.5 L 630.1 251.5 L 624.9 251.5 Z M 640.2 249.8 L 636.9 256.7 L 633.3 253.1 Z M 627.5 271.5 C 622.5 271.5 618.5 267.5 618.5 262.5 C 618.5 257.5 622.5 253.5 627.5 253.5 C 632.5 253.5 636.5 257.5 636.5 262.5 C 636.5 267.5 632.5 271.5 627.5 271.5 Z M 627.5 271.5 " fill="#FEFB00"></path><path d="M 36.0 18.0 L 29.0 15.4 L 29.0 20.6 Z M 30.7 5.3 L 23.8 8.6 L 27.4 12.2 Z M 18.0 0.0 L 15.4 7.0 L 20.6 7.0 Z M 5.3 5.3 L 8.6 12.2 L 12.2 8.6 Z M 0.0 18.0 L 7.0 20.6 L 7.0 15.4 Z M 5.3 30.7 L 12.2 27.4 L 8.6 23.8 Z M 18.0 36.0 L 20.6 29.0 L 15.4 29.0 Z M 30.7 30.7 L 27.4 23.8 L 23.8 27.4 Z M 18.0 9.0 C 13.0 9.0 9.0 13.0 9.0 18.0 C 9.0 23.0 13.0 27.0 18.0 27.0 C 23.0 27.0 27.0 23.0 27.0 18.0 C 27.0 13.0 23.0 9.0 18.0 9.0 Z M 18.0 9.0 " fill="none" stroke="#000000" stroke-width="1.00" stroke-linejoin="round" transform="matrix(1.00, 0.00, 0.00, -1.00, 609.5, 280.5)"></path></g></g><g><clipPath id="clip0x608000cb7ca0"><path d="M 417.0 240.3 L 456.0 240.3 L 456.0 279.3 L 417.0 279.3 Z M 417.0 240.3 "></path></clipPath><g clip-path="url(#clip0x608000cb7ca0)"><path d="M 454.5 259.8 L 447.5 262.4 L 447.5 257.2 Z M 449.2 272.5 L 442.3 269.2 L 445.9 265.6 Z M 436.5 277.8 L 433.9 270.5 L 439.1 270.5 Z M 423.8 272.5 L 427.1 265.6 L 430.7 269.2 Z M 418.5 259.8 L 425.5 257.2 L 425.5 262.4 Z M 423.8 247.1 L 430.7 250.4 L 427.1 254.0 Z M 436.5 241.8 L 439.1 249.5 L 433.9 249.5 Z M 449.2 247.1 L 445.9 254.0 L 442.3 250.4 Z M 436.5 268.8 C 431.5 268.8 427.5 264.8 427.5 259.8 C 427.5 254.8 431.5 250.8 436.5 250.8 C 441.5 250.8 445.5 254.8 445.5 259.8 C 445.5 264.8 441.5 268.8 436.5 268.8 Z M 436.5 268.8 " fill="#FEFB00"></path><path d="M 36.0 18.0 L 29.0 15.4 L 29.0 20.6 Z M 30.7 5.3 L 23.8 8.6 L 27.4 12.2 Z M 18.0 0.0 L 15.4 7.3 L 20.6 7.3 Z M 5.3 5.3 L 8.6 12.2 L 12.2 8.6 Z M 0.0 18.0 L 7.0 20.6 L 7.0 15.4 Z M 5.3 30.7 L 12.2 27.4 L 8.6 23.8 Z M 18.0 36.0 L 20.6 28.3 L 15.4 28.3 Z M 30.7 30.7 L 27.4 23.8 L 23.8 27.4 Z M 18.0 9.0 C 13.0 9.0 9.0 13.0 9.0 18.0 C 9.0 23.0 13.0 27.0 18.0 27.0 C 23.0 27.0 27.0 23.0 27.0 18.0 C 27.0 13.0 23.0 9.0 18.0 9.0 Z M 18.0 9.0 " fill="none" stroke="#000000" stroke-width="1.00" stroke-linejoin="round" transform="matrix(1.00, 0.00, 0.00, -1.00, 418.5, 277.8)"></path></g></g><g><clipPath id="clip0x608000ca9420"><path d="M 161.5 11.5 L 200.5 11.5 L 200.5 50.5 L 161.5 50.5 Z M 161.5 11.5 "></path></clipPath><g clip-path="url(#clip0x608000ca9420)"><path d="M 199.0 31.0 L 191.5 33.6 L 191.5 28.4 Z M 193.7 43.7 L 186.8 40.4 L 190.4 36.8 Z M 181.0 49.0 L 178.4 41.5 L 183.6 41.5 Z M 168.3 43.7 L 171.6 36.8 L 175.2 40.4 Z M 163.0 31.0 L 170.5 28.4 L 170.5 33.6 Z M 168.3 18.3 L 175.2 21.6 L 171.6 25.2 Z M 181.0 13.0 L 183.6 20.5 L 178.4 20.5 Z M 193.7 18.3 L 190.4 25.2 L 186.8 21.6 Z M 181.0 40.0 C 176.0 40.0 172.0 36.0 172.0 31.0 C 172.0 26.0 176.0 22.0 181.0 22.0 C 186.0 22.0 190.0 26.0 190.0 31.0 C 190.0 36.0 186.0 40.0 181.0 40.0 Z M 181.0 40.0 " fill="#FEFB00"></path><path d="M 36.0 18.0 L 28.5 15.4 L 28.5 20.6 Z M 30.7 5.3 L 23.8 8.6 L 27.4 12.2 Z M 18.0 0.0 L 15.4 7.5 L 20.6 7.5 Z M 5.3 5.3 L 8.6 12.2 L 12.2 8.6 Z M 0.0 18.0 L 7.5 20.6 L 7.5 15.4 Z M 5.3 30.7 L 12.2 27.4 L 8.6 23.8 Z M 18.0 36.0 L 20.6 28.5 L 15.4 28.5 Z M 30.7 30.7 L 27.4 23.8 L 23.8 27.4 Z M 18.0 9.0 C 13.0 9.0 9.0 13.0 9.0 18.0 C 9.0 23.0 13.0 27.0 18.0 27.0 C 23.0 27.0 27.0 23.0 27.0 18.0 C 27.0 13.0 23.0 9.0 18.0 9.0 Z M 18.0 9.0 " fill="none" stroke="#000000" stroke-width="1.00" stroke-linejoin="round" transform="matrix(1.00, 0.00, 0.00, -1.00, 163.0, 49.0)"></path></g></g></g></svg>