<?xml version="1.0" encoding="UTF-8" standalone="no"?><svg xmlns="http://www.w3.org/2000/svg" xmlns:xlink="http://www.w3.org/1999/xlink" clip-rule="evenodd" stroke-miterlimit="10" viewBox="0 0 70 41"><desc>SVG generated by Keynote</desc><defs></defs><g transform="matrix(1.00, 0.00, -0.00, -1.00, 0.0, 41.0)"><path d="M 1.5 38.5 L 67.5 38.5 L 67.5 1.5 L 1.5 1.5 Z M 1.6 39.0 " fill="#D6AEFF" fill-opacity="0.99"></path><path d="M -0.1 0.5 L 65.9 0.5 L 65.9 37.5 L -0.1 37.5 Z M 0.0 0.0 " fill="none" stroke="#000000" stroke-width="1.00" transform="matrix(1.00, 0.00, 0.00, -1.00, 1.6, 39.0)"></path><g><clipPath id="clip0x6000010a3ba0"><path d="M -0.6 -0.2 L 69.8 -0.2 L 69.8 41.2 L -0.6 41.2 Z M -0.6 -0.2 "></path></clipPath><g clip-path="url(#clip0x6000010a3ba0)"><text xml:space="preserve" font-family="ArialMT,Arial" font-size="24.0" fill="#000000" transform="matrix(1.00, 0.00, -0.00, -1.00, 9.3, 12.4)">3</text><text xml:space="preserve" font-family="ArialMT,Arial" font-size="24.0" fill="#000000" transform="matrix(1.00, 0.00, -0.00, -1.00, 22.7, 12.4)">4</text><text xml:space="preserve" font-family="ArialMT,Arial" font-size="24.0" fill="#000000" transform="matrix(1.00, 0.00, -0.00, -1.00, 36.0, 12.4)">1</text></g></g></g></svg>