<?xml version="1.0" encoding="UTF-8" standalone="no"?><svg xmlns="http://www.w3.org/2000/svg" xmlns:xlink="http://www.w3.org/1999/xlink" clip-rule="evenodd" stroke-miterlimit="10" viewBox="0 0 75 41"><desc>SVG generated by Keynote</desc><defs></defs><g transform="matrix(1.00, 0.00, -0.00, -1.00, 0.0, 41.0)"><path d="M 1.5 38.5 L 73.5 38.5 L 73.5 1.5 L 1.5 1.5 Z M 1.5 38.9 " fill="#D4FDD5" fill-opacity="0.99"></path><path d="M 0.0 0.4 L 72.0 0.4 L 72.0 37.4 L 0.0 37.4 Z M 0.0 0.0 " fill="none" stroke="#000000" stroke-width="1.00" transform="matrix(1.00, 0.00, 0.00, -1.00, 1.5, 38.9)"></path><g><clipPath id="clip0x6000010a2340"><path d="M -0.7 -0.3 L 75.7 -0.3 L 75.7 41.1 L -0.7 41.1 Z M -0.7 -0.3 "></path></clipPath><g clip-path="url(#clip0x6000010a2340)"><text xml:space="preserve" font-family="ArialMT,Arial" font-size="24.0" fill="#000000" transform="matrix(1.00, 0.00, -0.00, -1.00, 9.2, 12.2)">6</text><text xml:space="preserve" font-family="ArialMT,Arial" font-size="24.0" fill="#000000" transform="matrix(1.00, 0.00, -0.00, -1.00, 22.6, 12.2)">4</text><text xml:space="preserve" font-family="ArialMT,Arial" font-size="24.0" fill="#000000" transform="matrix(1.00, 0.00, -0.00, -1.00, 35.9, 12.2)">4</text><text xml:space="preserve" font-family="ArialMT,Arial" font-size="24.0" fill="#000000" transform="matrix(1.00, 0.00, -0.00, -1.00, 49.3, 12.2)">9</text></g></g></g></svg>