<?xml version="1.0" encoding="UTF-8" standalone="no"?><svg xmlns="http://www.w3.org/2000/svg" xmlns:xlink="http://www.w3.org/1999/xlink" clip-rule="evenodd" stroke-miterlimit="10" viewBox="0 0 720 540"><desc>SVG generated by Keynote</desc><defs></defs><g transform="matrix(1.00, 0.00, -0.00, -1.00, 0.0, 540.0)"><path d="M 0.0 540.0 L 720.0 540.0 L 720.0 0.0 L 0.0 0.0 Z M 0.0 540.0 " fill="#FEFFFF"></path><image xlink:href="../../75458A99-E402-4133-9807-21AFA70AE4B1/assets/B40EE69D1F9193A14AEA9F59CB5FCF30.png" width="725.00" height="659.00" transform="matrix(-0.71, 0.00, 0.00, 0.71, 536.0, 33.0)"></image><path d="M 554.5 422.5 C 559.2 417.8 559.2 410.2 554.5 405.5 C 549.8 400.8 542.2 400.8 537.5 405.5 C 532.8 410.2 532.8 417.8 537.5 422.5 C 542.2 427.2 549.8 427.2 554.5 422.5 " fill="#FF2600"></path><path d="M 20.5 3.5 C 25.2 8.2 25.2 15.8 20.5 20.5 C 15.8 25.2 8.2 25.2 3.5 20.5 C -1.2 15.8 -1.2 8.2 3.5 3.5 C 8.2 -1.2 15.8 -1.2 20.5 3.5 " fill="none" stroke="#000000" stroke-width="1.00" stroke-linejoin="round" transform="matrix(1.00, 0.00, 0.00, -1.00, 534.0, 426.0)"></path><path d="M 554.5 380.5 C 559.2 375.8 559.2 368.2 554.5 363.5 C 549.8 358.8 542.2 358.8 537.5 363.5 C 532.8 368.2 532.8 375.8 537.5 380.5 C 542.2 385.2 549.8 385.2 554.5 380.5 " fill="#FEFB00"></path><path d="M 20.5 3.5 C 25.2 8.2 25.2 15.8 20.5 20.5 C 15.8 25.2 8.2 25.2 3.5 20.5 C -1.2 15.8 -1.2 8.2 3.5 3.5 C 8.2 -1.2 15.8 -1.2 20.5 3.5 " fill="none" stroke="#000000" stroke-width="1.00" stroke-linejoin="round" transform="matrix(1.00, 0.00, 0.00, -1.00, 534.0, 384.0)"></path><text xml:space="preserve" font-family="Arial-BoldMT,Arial" font-weight="bold" font-size="24.0" fill="#000000" transform="matrix(1.00, 0.00, -0.00, -1.00, 576.0, 408.1)">D</text><text xml:space="preserve" font-family="Arial-BoldMT,Arial" font-weight="bold" font-size="24.0" fill="#000000" transform="matrix(1.00, 0.00, -0.00, -1.00, 593.3, 408.1)">r</text><text xml:space="preserve" font-family="Arial-BoldMT,Arial" font-weight="bold" font-size="24.0" fill="#000000" transform="matrix(1.00, 0.00, -0.00, -1.00, 602.6, 408.1)">y</text><text xml:space="preserve" font-family="Arial-BoldMT,Arial" font-weight="bold" font-size="24.0" fill="#000000" transform="matrix(1.00, 0.00, -0.00, -1.00, 616.0, 408.1)"> </text><text xml:space="preserve" font-family="Arial-BoldMT,Arial" font-weight="bold" font-size="24.0" fill="#000000" transform="matrix(1.00, 0.00, -0.00, -1.00, 622.7, 408.1)">s</text><text xml:space="preserve" font-family="Arial-BoldMT,Arial" font-weight="bold" font-size="24.0" fill="#000000" transform="matrix(1.00, 0.00, -0.00, -1.00, 636.0, 408.1)">e</text><text xml:space="preserve" font-family="Arial-BoldMT,Arial" font-weight="bold" font-size="24.0" fill="#000000" transform="matrix(1.00, 0.00, -0.00, -1.00, 649.4, 408.1)">a</text><text xml:space="preserve" font-family="Arial-BoldMT,Arial" font-weight="bold" font-size="24.0" fill="#000000" transform="matrix(1.00, 0.00, -0.00, -1.00, 662.7, 408.1)">s</text><text xml:space="preserve" font-family="Arial-BoldMT,Arial" font-weight="bold" font-size="24.0" fill="#000000" transform="matrix(1.00, 0.00, -0.00, -1.00, 676.1, 408.1)">o</text><text xml:space="preserve" font-family="Arial-BoldMT,Arial" font-weight="bold" font-size="24.0" fill="#000000" transform="matrix(1.00, 0.00, -0.00, -1.00, 690.7, 408.1)">n</text><text xml:space="preserve" font-family="Arial-BoldMT,Arial" font-weight="bold" font-size="24.0" fill="#000000" transform="matrix(1.00, 0.00, -0.00, -1.00, 577.2, 363.9)">W</text><text xml:space="preserve" font-family="Arial-BoldMT,Arial" font-weight="bold" font-size="24.0" fill="#000000" transform="matrix(1.00, 0.00, -0.00, -1.00, 599.4, 363.9)">e</text><text xml:space="preserve" font-family="Arial-BoldMT,Arial" font-weight="bold" font-size="24.0" fill="#000000" transform="matrix(1.00, 0.00, -0.00, -1.00, 612.8, 363.9)">t</text><text xml:space="preserve" font-family="Arial-BoldMT,Arial" font-weight="bold" font-size="24.0" fill="#000000" transform="matrix(1.00, 0.00, -0.00, -1.00, 620.8, 363.9)"> </text><text xml:space="preserve" font-family="Arial-BoldMT,Arial" font-weight="bold" font-size="24.0" fill="#000000" transform="matrix(1.00, 0.00, -0.00, -1.00, 627.4, 363.9)">s</text><text xml:space="preserve" font-family="Arial-BoldMT,Arial" font-weight="bold" font-size="24.0" fill="#000000" transform="matrix(1.00, 0.00, -0.00, -1.00, 640.8, 363.9)">e</text><text xml:space="preserve" font-family="Arial-BoldMT,Arial" font-weight="bold" font-size="24.0" fill="#000000" transform="matrix(1.00, 0.00, -0.00, -1.00, 654.1, 363.9)">a</text><text xml:space="preserve" font-family="Arial-BoldMT,Arial" font-weight="bold" font-size="24.0" fill="#000000" transform="matrix(1.00, 0.00, -0.00, -1.00, 667.5, 363.9)">s</text><text xml:space="preserve" font-family="Arial-BoldMT,Arial" font-weight="bold" font-size="24.0" fill="#000000" transform="matrix(1.00, 0.00, -0.00, -1.00, 680.8, 363.9)">o</text><text xml:space="preserve" font-family="Arial-BoldMT,Arial" font-weight="bold" font-size="24.0" fill="#000000" transform="matrix(1.00, 0.00, -0.00, -1.00, 695.5, 363.9)">n</text><text xml:space="preserve" font-family="Arial-BoldMT,Arial" font-weight="bold" font-size="24.0" fill="#000000" transform="matrix(1.00, 0.00, -0.00, -1.00, 523.2, 183.9)">S</text><text xml:space="preserve" font-family="Arial-BoldMT,Arial" font-weight="bold" font-size="24.0" fill="#000000" transform="matrix(1.00, 0.00, -0.00, -1.00, 539.2, 183.9)">e</text><text xml:space="preserve" font-family="Arial-BoldMT,Arial" font-weight="bold" font-size="24.0" fill="#000000" transform="matrix(1.00, 0.00, -0.00, -1.00, 552.6, 183.9)">a</text><text xml:space="preserve" font-family="Arial-BoldMT,Arial" font-weight="bold" font-size="24.0" fill="#000000" transform="matrix(1.00, 0.00, -0.00, -1.00, 565.9, 183.9)">s</text><text xml:space="preserve" font-family="Arial-BoldMT,Arial" font-weight="bold" font-size="24.0" fill="#000000" transform="matrix(1.00, 0.00, -0.00, -1.00, 579.3, 183.9)">o</text><text xml:space="preserve" font-family="Arial-BoldMT,Arial" font-weight="bold" font-size="24.0" fill="#000000" transform="matrix(1.00, 0.00, -0.00, -1.00, 593.9, 183.9)">n</text><text xml:space="preserve" font-family="Arial-BoldMT,Arial" font-weight="bold" font-size="24.0" fill="#000000" transform="matrix(1.00, 0.00, -0.00, -1.00, 608.6, 183.9)">a</text><text xml:space="preserve" font-family="Arial-BoldMT,Arial" font-weight="bold" font-size="24.0" fill="#000000" transform="matrix(1.00, 0.00, -0.00, -1.00, 621.9, 183.9)">l</text><text xml:space="preserve" font-family="Arial-BoldMT,Arial" font-weight="bold" font-size="24.0" fill="#000000" transform="matrix(1.00, 0.00, -0.00, -1.00, 628.6, 183.9)"> </text><text xml:space="preserve" font-family="Arial-BoldMT,Arial" font-weight="bold" font-size="24.0" fill="#000000" transform="matrix(1.00, 0.00, -0.00, -1.00, 523.2, 155.9)">m</text><text xml:space="preserve" font-family="Arial-BoldMT,Arial" font-weight="bold" font-size="24.0" fill="#000000" transform="matrix(1.00, 0.00, -0.00, -1.00, 544.5, 155.9)">o</text><text xml:space="preserve" font-family="Arial-BoldMT,Arial" font-weight="bold" font-size="24.0" fill="#000000" transform="matrix(1.00, 0.00, -0.00, -1.00, 559.2, 155.9)">v</text><text xml:space="preserve" font-family="Arial-BoldMT,Arial" font-weight="bold" font-size="24.0" fill="#000000" transform="matrix(1.00, 0.00, -0.00, -1.00, 572.6, 155.9)">e</text><text xml:space="preserve" font-family="Arial-BoldMT,Arial" font-weight="bold" font-size="24.0" fill="#000000" transform="matrix(1.00, 0.00, -0.00, -1.00, 585.9, 155.9)">m</text><text xml:space="preserve" font-family="Arial-BoldMT,Arial" font-weight="bold" font-size="24.0" fill="#000000" transform="matrix(1.00, 0.00, -0.00, -1.00, 607.2, 155.9)">e</text><text xml:space="preserve" font-family="Arial-BoldMT,Arial" font-weight="bold" font-size="24.0" fill="#000000" transform="matrix(1.00, 0.00, -0.00, -1.00, 620.6, 155.9)">n</text><text xml:space="preserve" font-family="Arial-BoldMT,Arial" font-weight="bold" font-size="24.0" fill="#000000" transform="matrix(1.00, 0.00, -0.00, -1.00, 635.3, 155.9)">t</text><text xml:space="preserve" font-family="Arial-BoldMT,Arial" font-weight="bold" font-size="24.0" fill="#000000" transform="matrix(1.00, 0.00, -0.00, -1.00, 643.2, 155.9)"> </text><text xml:space="preserve" font-family="Arial-BoldMT,Arial" font-weight="bold" font-size="24.0" fill="#000000" transform="matrix(1.00, 0.00, -0.00, -1.00, 649.9, 155.9)">i</text><text xml:space="preserve" font-family="Arial-BoldMT,Arial" font-weight="bold" font-size="24.0" fill="#000000" transform="matrix(1.00, 0.00, -0.00, -1.00, 656.6, 155.9)">n</text><text xml:space="preserve" font-family="Arial-BoldMT,Arial" font-weight="bold" font-size="24.0" fill="#000000" transform="matrix(1.00, 0.00, -0.00, -1.00, 671.2, 155.9)"> </text><text xml:space="preserve" font-family="Arial-BoldMT,Arial" font-weight="bold" font-size="24.0" fill="#000000" transform="matrix(1.00, 0.00, -0.00, -1.00, 677.9, 155.9)"> </text><text xml:space="preserve" font-family="Arial-BoldMT,Arial" font-weight="bold" font-size="24.0" fill="#000000" transform="matrix(1.00, 0.00, -0.00, -1.00, 523.2, 127.9)">A</text><text xml:space="preserve" font-family="Arial-BoldMT,Arial" font-weight="bold" font-size="24.0" fill="#000000" transform="matrix(1.00, 0.00, -0.00, -1.00, 540.5, 127.9)">u</text><text xml:space="preserve" font-family="Arial-BoldMT,Arial" font-weight="bold" font-size="24.0" fill="#000000" transform="matrix(1.00, 0.00, -0.00, -1.00, 555.2, 127.9)">s</text><text xml:space="preserve" font-family="Arial-BoldMT,Arial" font-weight="bold" font-size="24.0" fill="#000000" transform="matrix(1.00, 0.00, -0.00, -1.00, 568.5, 127.9)">t</text><text xml:space="preserve" font-family="Arial-BoldMT,Arial" font-weight="bold" font-size="24.0" fill="#000000" transform="matrix(1.00, 0.00, -0.00, -1.00, 576.5, 127.9)">r</text><text xml:space="preserve" font-family="Arial-BoldMT,Arial" font-weight="bold" font-size="24.0" fill="#000000" transform="matrix(1.00, 0.00, -0.00, -1.00, 585.9, 127.9)">a</text><text xml:space="preserve" font-family="Arial-BoldMT,Arial" font-weight="bold" font-size="24.0" fill="#000000" transform="matrix(1.00, 0.00, -0.00, -1.00, 599.2, 127.9)">l</text><text xml:space="preserve" font-family="Arial-BoldMT,Arial" font-weight="bold" font-size="24.0" fill="#000000" transform="matrix(1.00, 0.00, -0.00, -1.00, 605.9, 127.9)">i</text><text xml:space="preserve" font-family="Arial-BoldMT,Arial" font-weight="bold" font-size="24.0" fill="#000000" transform="matrix(1.00, 0.00, -0.00, -1.00, 612.6, 127.9)">a</text><text xml:space="preserve" font-family="Arial-BoldMT,Arial" font-weight="bold" font-size="24.0" fill="#000000" transform="matrix(1.00, 0.00, -0.00, -1.00, 625.9, 127.9)">n</text><text xml:space="preserve" font-family="Arial-BoldMT,Arial" font-weight="bold" font-size="24.0" fill="#000000" transform="matrix(1.00, 0.00, -0.00, -1.00, 640.6, 127.9)"> </text><text xml:space="preserve" font-family="Arial-BoldMT,Arial" font-weight="bold" font-size="24.0" fill="#000000" transform="matrix(1.00, 0.00, -0.00, -1.00, 647.2, 127.9)">w</text><text xml:space="preserve" font-family="Arial-BoldMT,Arial" font-weight="bold" font-size="24.0" fill="#000000" transform="matrix(1.00, 0.00, -0.00, -1.00, 665.9, 127.9)">a</text><text xml:space="preserve" font-family="Arial-BoldMT,Arial" font-weight="bold" font-size="24.0" fill="#000000" transform="matrix(1.00, 0.00, -0.00, -1.00, 679.2, 127.9)">t</text><text xml:space="preserve" font-family="Arial-BoldMT,Arial" font-weight="bold" font-size="24.0" fill="#000000" transform="matrix(1.00, 0.00, -0.00, -1.00, 687.2, 127.9)">e</text><text xml:space="preserve" font-family="Arial-BoldMT,Arial" font-weight="bold" font-size="24.0" fill="#000000" transform="matrix(1.00, 0.00, -0.00, -1.00, 700.6, 127.9)">r</text><text xml:space="preserve" font-family="Arial-BoldMT,Arial" font-weight="bold" font-size="24.0" fill="#000000" transform="matrix(1.00, 0.00, -0.00, -1.00, 709.9, 127.9)"> </text><text xml:space="preserve" font-family="Arial-BoldMT,Arial" font-weight="bold" font-size="24.0" fill="#000000" transform="matrix(1.00, 0.00, -0.00, -1.00, 523.2, 99.9)">p</text><text xml:space="preserve" font-family="Arial-BoldMT,Arial" font-weight="bold" font-size="24.0" fill="#000000" transform="matrix(1.00, 0.00, -0.00, -1.00, 537.9, 99.9)">y</text><text xml:space="preserve" font-family="Arial-BoldMT,Arial" font-weight="bold" font-size="24.0" fill="#000000" transform="matrix(1.00, 0.00, -0.00, -1.00, 551.2, 99.9)">t</text><text xml:space="preserve" font-family="Arial-BoldMT,Arial" font-weight="bold" font-size="24.0" fill="#000000" transform="matrix(1.00, 0.00, -0.00, -1.00, 559.2, 99.9)">h</text><text xml:space="preserve" font-family="Arial-BoldMT,Arial" font-weight="bold" font-size="24.0" fill="#000000" transform="matrix(1.00, 0.00, -0.00, -1.00, 573.9, 99.9)">o</text><text xml:space="preserve" font-family="Arial-BoldMT,Arial" font-weight="bold" font-size="24.0" fill="#000000" transform="matrix(1.00, 0.00, -0.00, -1.00, 588.5, 99.9)">n</text><text xml:space="preserve" font-family="Arial-BoldMT,Arial" font-weight="bold" font-size="24.0" fill="#000000" transform="matrix(1.00, 0.00, -0.00, -1.00, 603.2, 99.9)">s</text><text xml:space="preserve" font-family="Arial-BoldMT,Arial" font-weight="bold" font-size="24.0" fill="#000000" transform="matrix(1.00, 0.00, -0.00, -1.00, 616.5, 99.9)"> </text><text xml:space="preserve" font-family="Arial-BoldMT,Arial" font-weight="bold" font-size="24.0" fill="#000000" transform="matrix(1.00, 0.00, -0.00, -1.00, 623.2, 99.9)">(</text><text xml:space="preserve" font-family="Arial-BoldItalicMT,Arial" font-style="italic" font-weight="bold" font-size="24.0" fill="#000000" transform="matrix(1.00, 0.00, -0.00, -1.00, 631.2, 99.9)">L</text><text xml:space="preserve" font-family="Arial-BoldItalicMT,Arial" font-style="italic" font-weight="bold" font-size="24.0" fill="#000000" transform="matrix(1.00, 0.00, -0.00, -1.00, 645.8, 99.9)">i</text><text xml:space="preserve" font-family="Arial-BoldItalicMT,Arial" font-style="italic" font-weight="bold" font-size="24.0" fill="#000000" transform="matrix(1.00, 0.00, -0.00, -1.00, 652.5, 99.9)">a</text><text xml:space="preserve" font-family="Arial-BoldItalicMT,Arial" font-style="italic" font-weight="bold" font-size="24.0" fill="#000000" transform="matrix(1.00, 0.00, -0.00, -1.00, 665.8, 99.9)">s</text><text xml:space="preserve" font-family="Arial-BoldItalicMT,Arial" font-style="italic" font-weight="bold" font-size="24.0" fill="#000000" transform="matrix(1.00, 0.00, -0.00, -1.00, 679.2, 99.9)">i</text><text xml:space="preserve" font-family="Arial-BoldItalicMT,Arial" font-style="italic" font-weight="bold" font-size="24.0" fill="#000000" transform="matrix(1.00, 0.00, -0.00, -1.00, 685.9, 99.9)">s</text><text xml:space="preserve" font-family="Arial-BoldItalicMT,Arial" font-style="italic" font-weight="bold" font-size="24.0" fill="#000000" transform="matrix(1.00, 0.00, -0.00, -1.00, 699.2, 99.9)"> </text><text xml:space="preserve" font-family="Arial-BoldItalicMT,Arial" font-style="italic" font-weight="bold" font-size="24.0" fill="#000000" transform="matrix(1.00, 0.00, -0.00, -1.00, 523.2, 71.9)">f</text><text xml:space="preserve" font-family="Arial-BoldItalicMT,Arial" font-style="italic" font-weight="bold" font-size="24.0" fill="#000000" transform="matrix(1.00, 0.00, -0.00, -1.00, 531.2, 71.9)">u</text><text xml:space="preserve" font-family="Arial-BoldItalicMT,Arial" font-style="italic" font-weight="bold" font-size="24.0" fill="#000000" transform="matrix(1.00, 0.00, -0.00, -1.00, 545.8, 71.9)">s</text><text xml:space="preserve" font-family="Arial-BoldItalicMT,Arial" font-style="italic" font-weight="bold" font-size="24.0" fill="#000000" transform="matrix(1.00, 0.00, -0.00, -1.00, 559.2, 71.9)">c</text><text xml:space="preserve" font-family="Arial-BoldItalicMT,Arial" font-style="italic" font-weight="bold" font-size="24.0" fill="#000000" transform="matrix(1.00, 0.00, -0.00, -1.00, 572.6, 71.9)">u</text><text xml:space="preserve" font-family="Arial-BoldItalicMT,Arial" font-style="italic" font-weight="bold" font-size="24.0" fill="#000000" transform="matrix(1.00, 0.00, -0.00, -1.00, 587.2, 71.9)">s</text><text xml:space="preserve" font-family="Arial-BoldMT,Arial" font-weight="bold" font-size="24.0" fill="#000000" transform="matrix(1.00, 0.00, -0.00, -1.00, 600.6, 71.9)">)</text><text xml:space="preserve" font-family="Arial-BoldMT,Arial" font-weight="bold" font-size="14.0" fill="#000000" transform="matrix(1.00, 0.00, -0.00, -1.00, 546.0, 12.3)">M</text><text xml:space="preserve" font-family="Arial-BoldMT,Arial" font-weight="bold" font-size="14.0" fill="#000000" transform="matrix(1.00, 0.00, -0.00, -1.00, 557.6, 12.3)">a</text><text xml:space="preserve" font-family="Arial-BoldMT,Arial" font-weight="bold" font-size="14.0" fill="#000000" transform="matrix(1.00, 0.00, -0.00, -1.00, 565.4, 12.3)">d</text><text xml:space="preserve" font-family="Arial-BoldMT,Arial" font-weight="bold" font-size="14.0" fill="#000000" transform="matrix(1.00, 0.00, -0.00, -1.00, 574.0, 12.3)">s</text><text xml:space="preserve" font-family="Arial-BoldMT,Arial" font-weight="bold" font-size="14.0" fill="#000000" transform="matrix(1.00, 0.00, -0.00, -1.00, 581.7, 12.3)">e</text><text xml:space="preserve" font-family="Arial-BoldMT,Arial" font-weight="bold" font-size="14.0" fill="#000000" transform="matrix(1.00, 0.00, -0.00, -1.00, 589.5, 12.3)">n</text><text xml:space="preserve" font-family="Arial-BoldMT,Arial" font-weight="bold" font-size="14.0" fill="#000000" transform="matrix(1.00, 0.00, -0.00, -1.00, 598.1, 12.3)"> </text><text xml:space="preserve" font-family="Arial-BoldMT,Arial" font-weight="bold" font-size="14.0" fill="#000000" transform="matrix(1.00, 0.00, -0.00, -1.00, 602.0, 12.3)">a</text><text xml:space="preserve" font-family="Arial-BoldMT,Arial" font-weight="bold" font-size="14.0" fill="#000000" transform="matrix(1.00, 0.00, -0.00, -1.00, 609.8, 12.3)">n</text><text xml:space="preserve" font-family="Arial-BoldMT,Arial" font-weight="bold" font-size="14.0" fill="#000000" transform="matrix(1.00, 0.00, -0.00, -1.00, 618.3, 12.3)">d</text><text xml:space="preserve" font-family="Arial-BoldMT,Arial" font-weight="bold" font-size="14.0" fill="#000000" transform="matrix(1.00, 0.00, -0.00, -1.00, 626.9, 12.3)"> </text><text xml:space="preserve" font-family="Arial-BoldMT,Arial" font-weight="bold" font-size="14.0" fill="#000000" transform="matrix(1.00, 0.00, -0.00, -1.00, 630.7, 12.3)">S</text><text xml:space="preserve" font-family="Arial-BoldMT,Arial" font-weight="bold" font-size="14.0" fill="#000000" transform="matrix(1.00, 0.00, -0.00, -1.00, 640.1, 12.3)">h</text><text xml:space="preserve" font-family="Arial-BoldMT,Arial" font-weight="bold" font-size="14.0" fill="#000000" transform="matrix(1.00, 0.00, -0.00, -1.00, 648.6, 12.3)">i</text><text xml:space="preserve" font-family="Arial-BoldMT,Arial" font-weight="bold" font-size="14.0" fill="#000000" transform="matrix(1.00, 0.00, -0.00, -1.00, 652.5, 12.3)">n</text><text xml:space="preserve" font-family="Arial-BoldMT,Arial" font-weight="bold" font-size="14.0" fill="#000000" transform="matrix(1.00, 0.00, -0.00, -1.00, 661.1, 12.3)">e</text><text xml:space="preserve" font-family="Arial-BoldMT,Arial" font-weight="bold" font-size="14.0" fill="#000000" transform="matrix(1.00, 0.00, -0.00, -1.00, 668.8, 12.3)"> </text><text xml:space="preserve" font-family="Arial-BoldMT,Arial" font-weight="bold" font-size="14.0" fill="#000000" transform="matrix(1.00, 0.00, -0.00, -1.00, 672.7, 12.3)">1</text><text xml:space="preserve" font-family="Arial-BoldMT,Arial" font-weight="bold" font-size="14.0" fill="#000000" transform="matrix(1.00, 0.00, -0.00, -1.00, 680.5, 12.3)">9</text><text xml:space="preserve" font-family="Arial-BoldMT,Arial" font-weight="bold" font-size="14.0" fill="#000000" transform="matrix(1.00, 0.00, -0.00, -1.00, 688.3, 12.3)">9</text><text xml:space="preserve" font-family="Arial-BoldMT,Arial" font-weight="bold" font-size="14.0" fill="#000000" transform="matrix(1.00, 0.00, -0.00, -1.00, 696.1, 12.3)">6</text></g></svg>