<?xml version="1.0" encoding="UTF-8" standalone="no"?><svg xmlns="http://www.w3.org/2000/svg" xmlns:xlink="http://www.w3.org/1999/xlink" clip-rule="evenodd" stroke-miterlimit="4.00" viewBox="0 0 720 540"><desc>SVG generated by Keynote</desc><defs></defs><g transform="matrix(1.00, 0.00, -0.00, -1.00, 0.0, 540.0)"><path d="M 0.0 540.0 L 720.0 540.0 L 720.0 0.0 L 0.0 0.0 Z M 0.0 540.0 " fill="#FEFFFF"></path><g><clipPath id="clip-274"><path d="M 318.0 0.0 L 421.0 0.0 L 421.0 114.0 L 318.0 114.0 Z M 318.0 0.0 "></path></clipPath><g clip-path="url(#clip-274)"><path d="M 318.0 114.0 L 421.0 114.0 L 421.0 0.0 L 318.0 0.0 Z M 318.0 114.0 " fill="#FFFFFF"></path><image xlink:href="../../E01F4E45-164F-4446-B199-7D0D4C64D2CC/assets/268FB8461D956D4A3776EB3D721B167F.png" width="126.00" height="140.00" transform="matrix(0.82, 0.00, -0.00, -0.81, 318.0, 114.0)"></image></g></g><g><clipPath id="clip-275"><path d="M 150.0 247.0 L 279.0 247.0 L 279.0 330.0 L 150.0 330.0 Z M 150.0 247.0 "></path></clipPath><g clip-path="url(#clip-275)"><path d="M 150.0 330.0 L 279.0 330.0 L 279.0 247.0 L 150.0 247.0 Z M 150.0 330.0 " fill="#FFFFFF"></path><image xlink:href="../../E01F4E45-164F-4446-B199-7D0D4C64D2CC/assets/A731DE4581FBA5179AFA886B2E5E128D.png" width="129.00" height="83.00" transform="matrix(1.00, 0.00, -0.00, -1.00, 150.0, 330.0)"></image></g></g><g><clipPath id="clip-276"><path d="M 444.0 274.0 L 548.0 274.0 L 548.0 378.0 L 444.0 378.0 Z M 444.0 274.0 "></path></clipPath><g clip-path="url(#clip-276)"><path d="M 444.0 378.0 L 548.0 378.0 L 548.0 274.0 L 444.0 274.0 Z M 444.0 378.0 " fill="#FFFFFF"></path><image xlink:href="../../E01F4E45-164F-4446-B199-7D0D4C64D2CC/assets/4AEC26723F3B31B59FED6418ED20D97F.png" width="104.00" height="104.00" transform="matrix(1.00, 0.00, -0.00, -1.00, 444.0, 378.0)"></image></g></g><g><clipPath id="clip-277"><path d="M 312.0 415.0 L 428.0 415.0 L 428.0 504.0 L 312.0 504.0 Z M 312.0 415.0 "></path></clipPath><g clip-path="url(#clip-277)"><path d="M 312.0 504.0 L 428.0 504.0 L 428.0 415.0 L 312.0 415.0 Z M 312.0 504.0 " fill="#FFFFFF"></path><image xlink:href="../../E01F4E45-164F-4446-B199-7D0D4C64D2CC/assets/4DC05507DE445C5615F4A5D94C27FDA2.png" width="116.00" height="89.00" transform="matrix(1.00, 0.00, -0.00, -1.00, 312.0, 504.0)"></image></g></g><path d="M 102.0 120.0 L 17.8 21.0 L 14.6 17.2 " fill="none" stroke="#FF2600" stroke-width="10.00" stroke-linejoin="round" transform="matrix(1.00, 0.00, 0.00, -1.00, 234.0, 240.0)"></path><path d="M 241.3 210.1 L 234.0 240.0 L 262.3 227.9 Z M 241.3 210.1 " fill="#FF2600"></path><path d="M 0.0 66.0 L 78.6 4.3 L 79.4 3.6 " fill="none" stroke="#FF2600" stroke-width="2.00" stroke-linejoin="round" transform="matrix(1.00, 0.00, 0.00, -1.00, 240.0, 402.0)"></path><path d="M 316.5 400.5 L 324.0 402.0 L 320.7 395.0 Z M 316.5 400.5 " fill="#FF2600"></path><path d="M 0.0 24.0 L 128.8 4.2 L 133.7 3.4 " fill="none" stroke="#FF2600" stroke-width="10.00" stroke-linejoin="round" transform="matrix(1.00, 0.00, 0.00, -1.00, 282.0, 306.0)"></path><path d="M 408.7 315.4 L 438.0 306.0 L 412.9 288.2 Z M 408.7 315.4 " fill="#FF2600"></path><path d="M 60.0 36.0 L 23.6 14.2 L 19.3 11.6 " fill="none" stroke="#FF2600" stroke-width="10.00" stroke-linejoin="round" transform="matrix(1.00, 0.00, 0.00, -1.00, 408.0, 414.0)"></path><path d="M 424.5 388.0 L 408.0 414.0 L 438.7 411.6 Z M 424.5 388.0 " fill="#FF2600"></path><path d="M 0.0 270.0 L 0.1 4.3 L 0.1 3.8 " fill="none" stroke="#FF2600" stroke-width="1.00" stroke-linejoin="round" transform="matrix(1.00, 0.00, 0.00, -1.00, 372.0, 402.0)"></path><path d="M 370.0 397.7 L 372.1 402.0 L 374.3 397.7 Z M 370.0 397.7 " fill="#FF2600"></path><path d="M 496.8 194.9 L 616.3 194.9 L 616.3 157.9 L 496.8 157.9 Z M 496.8 194.9 " fill="#D4FDD5"></path><path d="M 0.0 0.0 L 119.6 0.0 L 119.6 37.0 L 0.0 37.0 Z M 0.0 0.0 " fill="none" stroke="#000000" stroke-width="1.00" transform="matrix(1.00, 0.00, 0.00, -1.00, 496.8, 194.9)"></path><g><clipPath id="clip-278"><path d="M 494.5 155.7 L 618.6 155.7 L 618.6 197.1 L 494.5 197.1 Z M 494.5 155.7 "></path></clipPath><g clip-path="url(#clip-278)"><text xml:space="preserve" font-family="ArialMT" font-size="24.0" fill="#000000" transform="matrix(1.00, 0.00, -0.00, -1.00, 504.0, 168.0)">F</text><text xml:space="preserve" font-family="ArialMT" font-size="24.0" fill="#000000" transform="matrix(1.00, 0.00, -0.00, -1.00, 518.7, 168.0)">o</text><text xml:space="preserve" font-family="ArialMT" font-size="24.0" fill="#000000" transform="matrix(1.00, 0.00, -0.00, -1.00, 532.0, 168.0)">o</text><text xml:space="preserve" font-family="ArialMT" font-size="24.0" fill="#000000" transform="matrix(1.00, 0.00, -0.00, -1.00, 545.3, 168.0)">d</text><text xml:space="preserve" font-family="ArialMT" font-size="24.0" fill="#000000" transform="matrix(1.00, 0.00, -0.00, -1.00, 558.7, 168.0)"> </text><text xml:space="preserve" font-family="ArialMT" font-size="24.0" fill="#000000" transform="matrix(1.00, 0.00, -0.00, -1.00, 565.3, 168.0)">w</text><text xml:space="preserve" font-family="ArialMT" font-size="24.0" fill="#000000" transform="matrix(1.00, 0.00, -0.00, -1.00, 582.7, 168.0)">e</text><text xml:space="preserve" font-family="ArialMT" font-size="24.0" fill="#000000" transform="matrix(1.00, 0.00, -0.00, -1.00, 596.0, 168.0)">b</text></g></g><path d="M 0.0 0.0 L 35.1 0.1 L 36.1 0.1 " fill="none" stroke="#FF2600" stroke-width="2.00" stroke-linejoin="round" transform="matrix(1.00, 0.00, 0.00, -1.00, 30.0, 498.0)"></path><path d="M 65.1 501.3 L 72.0 497.9 L 65.1 494.5 Z M 65.1 501.3 " fill="#FF2600"></path><path d="M 0.0 0.1 L 20.5 0.1 L 25.5 0.1 " fill="none" stroke="#FF2600" stroke-width="10.00" stroke-linejoin="round" transform="matrix(1.00, 0.00, 0.00, -1.00, 30.0, 444.0)"></path><path d="M 50.4 457.7 L 78.0 444.0 L 50.5 430.2 Z M 50.4 457.7 " fill="#FF2600"></path><text xml:space="preserve" font-family="ArialMT" font-size="24.0" fill="#000000" transform="matrix(1.00, 0.00, -0.00, -1.00, 103.0, 490.0)">W</text><text xml:space="preserve" font-family="ArialMT" font-size="24.0" fill="#000000" transform="matrix(1.00, 0.00, -0.00, -1.00, 125.2, 490.0)">e</text><text xml:space="preserve" font-family="ArialMT" font-size="24.0" fill="#000000" transform="matrix(1.00, 0.00, -0.00, -1.00, 138.6, 490.0)">a</text><text xml:space="preserve" font-family="ArialMT" font-size="24.0" fill="#000000" transform="matrix(1.00, 0.00, -0.00, -1.00, 151.9, 490.0)">k</text><text xml:space="preserve" font-family="ArialMT" font-size="24.0" fill="#000000" transform="matrix(1.00, 0.00, -0.00, -1.00, 163.9, 490.0)"> </text><text xml:space="preserve" font-family="ArialMT" font-size="24.0" fill="#000000" transform="matrix(1.00, 0.00, -0.00, -1.00, 170.6, 490.0)">l</text><text xml:space="preserve" font-family="ArialMT" font-size="24.0" fill="#000000" transform="matrix(1.00, 0.00, -0.00, -1.00, 175.9, 490.0)">i</text><text xml:space="preserve" font-family="ArialMT" font-size="24.0" fill="#000000" transform="matrix(1.00, 0.00, -0.00, -1.00, 181.3, 490.0)">n</text><text xml:space="preserve" font-family="ArialMT" font-size="24.0" fill="#000000" transform="matrix(1.00, 0.00, -0.00, -1.00, 194.6, 490.0)">k</text><text xml:space="preserve" font-family="ArialMT" font-size="24.0" fill="#000000" transform="matrix(1.00, 0.00, -0.00, -1.00, 103.0, 439.0)">S</text><text xml:space="preserve" font-family="ArialMT" font-size="24.0" fill="#000000" transform="matrix(1.00, 0.00, -0.00, -1.00, 119.0, 439.0)">t</text><text xml:space="preserve" font-family="ArialMT" font-size="24.0" fill="#000000" transform="matrix(1.00, 0.00, -0.00, -1.00, 125.7, 439.0)">r</text><text xml:space="preserve" font-family="ArialMT" font-size="24.0" fill="#000000" transform="matrix(1.00, 0.00, -0.00, -1.00, 133.7, 439.0)">o</text><text xml:space="preserve" font-family="ArialMT" font-size="24.0" fill="#000000" transform="matrix(1.00, 0.00, -0.00, -1.00, 147.0, 439.0)">n</text><text xml:space="preserve" font-family="ArialMT" font-size="24.0" fill="#000000" transform="matrix(1.00, 0.00, -0.00, -1.00, 160.4, 439.0)">g</text><text xml:space="preserve" font-family="ArialMT" font-size="24.0" fill="#000000" transform="matrix(1.00, 0.00, -0.00, -1.00, 173.7, 439.0)"> </text><text xml:space="preserve" font-family="ArialMT" font-size="24.0" fill="#000000" transform="matrix(1.00, 0.00, -0.00, -1.00, 180.4, 439.0)">l</text><text xml:space="preserve" font-family="ArialMT" font-size="24.0" fill="#000000" transform="matrix(1.00, 0.00, -0.00, -1.00, 185.7, 439.0)">i</text><text xml:space="preserve" font-family="ArialMT" font-size="24.0" fill="#000000" transform="matrix(1.00, 0.00, -0.00, -1.00, 191.1, 439.0)">n</text><text xml:space="preserve" font-family="ArialMT" font-size="24.0" fill="#000000" transform="matrix(1.00, 0.00, -0.00, -1.00, 204.4, 439.0)">k</text></g></svg>