<?xml version="1.0" encoding="UTF-8" standalone="no"?><svg xmlns="http://www.w3.org/2000/svg" xmlns:xlink="http://www.w3.org/1999/xlink" clip-rule="evenodd" stroke-miterlimit="10" viewBox="0 0 1024 768"><desc>SVG generated by Keynote</desc><defs></defs><g transform="matrix(1.00, 0.00, -0.00, -1.00, 0.0, 768.0)"><path d="M 0.0 768.0 L 1024.0 768.0 L 1024.0 0.0 L 0.0 0.0 Z M 0.0 768.0 " fill="#FEFFFF"></path><text xml:space="preserve" font-family="ArialMT,Arial" font-size="62.0" fill="#00A7A9" transform="matrix(1.00, 0.00, -0.00, -1.00, 193.6, 613.4)">T</text><text xml:space="preserve" font-family="ArialMT,Arial" font-size="62.0" fill="#00A7A9" transform="matrix(1.00, 0.00, -0.00, -1.00, 231.5, 613.4)">h</text><text xml:space="preserve" font-family="ArialMT,Arial" font-size="62.0" fill="#00A7A9" transform="matrix(1.00, 0.00, -0.00, -1.00, 266.0, 613.4)">e</text><text xml:space="preserve" font-family="ArialMT,Arial" font-size="62.0" fill="#00A7A9" transform="matrix(1.00, 0.00, -0.00, -1.00, 300.4, 613.4)"> </text><text xml:space="preserve" font-family="ArialMT,Arial" font-size="62.0" fill="#00A7A9" transform="matrix(1.00, 0.00, -0.00, -1.00, 317.7, 613.4)">“</text><text xml:space="preserve" font-family="ArialMT,Arial" font-size="62.0" fill="#00A7A9" transform="matrix(1.00, 0.00, -0.00, -1.00, 338.3, 613.4)">L</text><text xml:space="preserve" font-family="ArialMT,Arial" font-size="62.0" fill="#00A7A9" transform="matrix(1.00, 0.00, -0.00, -1.00, 372.8, 613.4)">i</text><text xml:space="preserve" font-family="ArialMT,Arial" font-size="62.0" fill="#00A7A9" transform="matrix(1.00, 0.00, -0.00, -1.00, 386.6, 613.4)">z</text><text xml:space="preserve" font-family="ArialMT,Arial" font-size="62.0" fill="#00A7A9" transform="matrix(1.00, 0.00, -0.00, -1.00, 417.6, 613.4)">a</text><text xml:space="preserve" font-family="ArialMT,Arial" font-size="62.0" fill="#00A7A9" transform="matrix(1.00, 0.00, -0.00, -1.00, 452.1, 613.4)">r</text><text xml:space="preserve" font-family="ArialMT,Arial" font-size="62.0" fill="#00A7A9" transform="matrix(1.00, 0.00, -0.00, -1.00, 472.7, 613.4)">d</text><text xml:space="preserve" font-family="ArialMT,Arial" font-size="62.0" fill="#00A7A9" transform="matrix(1.00, 0.00, -0.00, -1.00, 507.2, 613.4)"> </text><text xml:space="preserve" font-family="ArialMT,Arial" font-size="62.0" fill="#00A7A9" transform="matrix(1.00, 0.00, -0.00, -1.00, 524.4, 613.4)">W</text><text xml:space="preserve" font-family="ArialMT,Arial" font-size="62.0" fill="#00A7A9" transform="matrix(1.00, 0.00, -0.00, -1.00, 582.9, 613.4)">h</text><text xml:space="preserve" font-family="ArialMT,Arial" font-size="62.0" fill="#00A7A9" transform="matrix(1.00, 0.00, -0.00, -1.00, 617.4, 613.4)">i</text><text xml:space="preserve" font-family="ArialMT,Arial" font-size="62.0" fill="#00A7A9" transform="matrix(1.00, 0.00, -0.00, -1.00, 631.2, 613.4)">s</text><text xml:space="preserve" font-family="ArialMT,Arial" font-size="62.0" fill="#00A7A9" transform="matrix(1.00, 0.00, -0.00, -1.00, 662.2, 613.4)">p</text><text xml:space="preserve" font-family="ArialMT,Arial" font-size="62.0" fill="#00A7A9" transform="matrix(1.00, 0.00, -0.00, -1.00, 696.7, 613.4)">e</text><text xml:space="preserve" font-family="ArialMT,Arial" font-size="62.0" fill="#00A7A9" transform="matrix(1.00, 0.00, -0.00, -1.00, 731.2, 613.4)">r</text><text xml:space="preserve" font-family="ArialMT,Arial" font-size="62.0" fill="#00A7A9" transform="matrix(1.00, 0.00, -0.00, -1.00, 751.9, 613.4)">e</text><text xml:space="preserve" font-family="ArialMT,Arial" font-size="62.0" fill="#00A7A9" transform="matrix(1.00, 0.00, -0.00, -1.00, 786.3, 613.4)">r</text><text xml:space="preserve" font-family="ArialMT,Arial" font-size="62.0" fill="#00A7A9" transform="matrix(1.00, 0.00, -0.00, -1.00, 807.0, 613.4)">”</text><g><clipPath id="clip0x6000016b7100"><path d="M 192.6 603.5 L 827.6 603.5 L 827.6 610.1 L 192.6 610.1 Z M 192.6 603.5 "></path></clipPath><g clip-path="url(#clip0x6000016b7100)"><path d="M 118.2 117.1 L 752.2 117.1 " fill="none" stroke="#00A7A9" stroke-width="4.54" transform="matrix(1.00, 0.00, 0.00, -1.00, 75.4, 723.9)"></path></g></g></g></svg>