<?xml version="1.0" encoding="UTF-8" standalone="no"?><svg xmlns="http://www.w3.org/2000/svg" xmlns:xlink="http://www.w3.org/1999/xlink" clip-rule="evenodd" stroke-miterlimit="10" viewBox="0 0 720 540"><desc>SVG generated by Keynote</desc><defs></defs><g transform="matrix(1.00, 0.00, -0.00, -1.00, 0.0, 540.0)"><path d="M 0.0 540.0 L 720.0 540.0 L 720.0 0.0 L 0.0 0.0 Z M 0.0 540.0 " fill="#FEFFFF"></path><text xml:space="preserve" font-family="GillSans,Gill Sans" font-size="28.0" fill="#000000" transform="matrix(1.00, 0.00, -0.00, -1.00, 144.1, 276.5)">c</text><text xml:space="preserve" font-family="GillSans,Gill Sans" font-size="28.0" fill="#000000" transform="matrix(1.00, 0.00, -0.00, -1.00, 156.4, 276.5)">r</text><text xml:space="preserve" font-family="GillSans,Gill Sans" font-size="28.0" fill="#000000" transform="matrix(1.00, 0.00, -0.00, -1.00, 166.9, 276.5)">e</text><text xml:space="preserve" font-family="GillSans,Gill Sans" font-size="28.0" fill="#000000" transform="matrix(1.00, 0.00, -0.00, -1.00, 180.3, 276.5)">a</text><text xml:space="preserve" font-family="GillSans,Gill Sans" font-size="28.0" fill="#000000" transform="matrix(1.00, 0.00, -0.00, -1.00, 192.3, 276.5)">t</text><text xml:space="preserve" font-family="GillSans,Gill Sans" font-size="28.0" fill="#000000" transform="matrix(1.00, 0.00, -0.00, -1.00, 201.6, 276.5)">e</text><text xml:space="preserve" font-family="GillSans,Gill Sans" font-size="28.0" fill="#000000" transform="matrix(1.00, 0.00, -0.00, -1.00, 215.0, 276.5)"> </text><text xml:space="preserve" font-family="GillSans,Gill Sans" font-size="28.0" fill="#000000" transform="matrix(1.00, 0.00, -0.00, -1.00, 222.8, 276.5)">p</text><text xml:space="preserve" font-family="GillSans,Gill Sans" font-size="28.0" fill="#000000" transform="matrix(1.00, 0.00, -0.00, -1.00, 236.8, 276.5)">h</text><text xml:space="preserve" font-family="GillSans,Gill Sans" font-size="28.0" fill="#000000" transform="matrix(1.00, 0.00, -0.00, -1.00, 249.8, 276.5)">y</text><text xml:space="preserve" font-family="GillSans,Gill Sans" font-size="28.0" fill="#000000" transform="matrix(1.00, 0.00, -0.00, -1.00, 262.0, 276.5)">l</text><text xml:space="preserve" font-family="GillSans,Gill Sans" font-size="28.0" fill="#000000" transform="matrix(1.00, 0.00, -0.00, -1.00, 268.2, 276.5)">o</text><text xml:space="preserve" font-family="GillSans,Gill Sans" font-size="28.0" fill="#000000" transform="matrix(1.00, 0.00, -0.00, -1.00, 283.6, 276.5)">g</text><text xml:space="preserve" font-family="GillSans,Gill Sans" font-size="28.0" fill="#000000" transform="matrix(1.00, 0.00, -0.00, -1.00, 295.6, 276.5)">e</text><text xml:space="preserve" font-family="GillSans,Gill Sans" font-size="28.0" fill="#000000" transform="matrix(1.00, 0.00, -0.00, -1.00, 309.0, 276.5)">n</text><text xml:space="preserve" font-family="GillSans,Gill Sans" font-size="28.0" fill="#000000" transform="matrix(1.00, 0.00, -0.00, -1.00, 323.0, 276.5)">e</text><text xml:space="preserve" font-family="GillSans,Gill Sans" font-size="28.0" fill="#000000" transform="matrix(1.00, 0.00, -0.00, -1.00, 336.4, 276.5)">t</text><text xml:space="preserve" font-family="GillSans,Gill Sans" font-size="28.0" fill="#000000" transform="matrix(1.00, 0.00, -0.00, -1.00, 345.7, 276.5)">i</text><text xml:space="preserve" font-family="GillSans,Gill Sans" font-size="28.0" fill="#000000" transform="matrix(1.00, 0.00, -0.00, -1.00, 351.9, 276.5)">c</text><text xml:space="preserve" font-family="GillSans,Gill Sans" font-size="28.0" fill="#000000" transform="matrix(1.00, 0.00, -0.00, -1.00, 364.1, 276.5)"> </text><text xml:space="preserve" font-family="GillSans,Gill Sans" font-size="28.0" fill="#000000" transform="matrix(1.00, 0.00, -0.00, -1.00, 371.9, 276.5)">t</text><text xml:space="preserve" font-family="GillSans,Gill Sans" font-size="28.0" fill="#000000" transform="matrix(1.00, 0.00, -0.00, -1.00, 381.2, 276.5)">r</text><text xml:space="preserve" font-family="GillSans,Gill Sans" font-size="28.0" fill="#000000" transform="matrix(1.00, 0.00, -0.00, -1.00, 391.8, 276.5)">e</text><text xml:space="preserve" font-family="GillSans,Gill Sans" font-size="28.0" fill="#000000" transform="matrix(1.00, 0.00, -0.00, -1.00, 405.2, 276.5)">e</text><text xml:space="preserve" font-family="GillSans,Gill Sans" font-size="28.0" fill="#000000" transform="matrix(1.00, 0.00, -0.00, -1.00, 418.6, 276.5)"> </text><text xml:space="preserve" font-family="GillSans,Gill Sans" font-size="28.0" fill="#000000" transform="matrix(1.00, 0.00, -0.00, -1.00, 426.4, 276.5)">u</text><text xml:space="preserve" font-family="GillSans,Gill Sans" font-size="28.0" fill="#000000" transform="matrix(1.00, 0.00, -0.00, -1.00, 440.4, 276.5)">s</text><text xml:space="preserve" font-family="GillSans,Gill Sans" font-size="28.0" fill="#000000" transform="matrix(1.00, 0.00, -0.00, -1.00, 451.1, 276.5)">i</text><text xml:space="preserve" font-family="GillSans,Gill Sans" font-size="28.0" fill="#000000" transform="matrix(1.00, 0.00, -0.00, -1.00, 457.3, 276.5)">n</text><text xml:space="preserve" font-family="GillSans,Gill Sans" font-size="28.0" fill="#000000" transform="matrix(1.00, 0.00, -0.00, -1.00, 471.3, 276.5)">g</text><text xml:space="preserve" font-family="GillSans,Gill Sans" font-size="28.0" fill="#000000" transform="matrix(1.00, 0.00, -0.00, -1.00, 483.2, 276.5)"> </text><text xml:space="preserve" font-family="GillSans,Gill Sans" font-size="28.0" fill="#000000" transform="matrix(1.00, 0.00, -0.00, -1.00, 491.0, 276.5)">5</text><text xml:space="preserve" font-family="GillSans,Gill Sans" font-size="28.0" fill="#000000" transform="matrix(1.00, 0.00, -0.00, -1.00, 505.0, 276.5)"> </text><text xml:space="preserve" font-family="GillSans,Gill Sans" font-size="28.0" fill="#000000" transform="matrix(1.00, 0.00, -0.00, -1.00, 512.8, 276.5)">g</text><text xml:space="preserve" font-family="GillSans,Gill Sans" font-size="28.0" fill="#000000" transform="matrix(1.00, 0.00, -0.00, -1.00, 524.7, 276.5)">e</text><text xml:space="preserve" font-family="GillSans,Gill Sans" font-size="28.0" fill="#000000" transform="matrix(1.00, 0.00, -0.00, -1.00, 538.1, 276.5)">n</text><text xml:space="preserve" font-family="GillSans,Gill Sans" font-size="28.0" fill="#000000" transform="matrix(1.00, 0.00, -0.00, -1.00, 552.1, 276.5)">e</text><text xml:space="preserve" font-family="GillSans,Gill Sans" font-size="28.0" fill="#000000" transform="matrix(1.00, 0.00, -0.00, -1.00, 565.5, 276.5)">s</text><text xml:space="preserve" font-family="GillSans,Gill Sans" font-size="28.0" fill="#000000" transform="matrix(1.00, 0.00, -0.00, -1.00, 576.3, 276.5)"> </text><text xml:space="preserve" font-family="GillSans,Gill Sans" font-size="28.0" fill="#000000" transform="matrix(1.00, 0.00, -0.00, -1.00, 225.4, 244.5)">(</text><text xml:space="preserve" font-family="GillSans,Gill Sans" font-size="28.0" fill="#000000" transform="matrix(1.00, 0.00, -0.00, -1.00, 234.5, 244.5)">o</text><text xml:space="preserve" font-family="GillSans,Gill Sans" font-size="28.0" fill="#000000" transform="matrix(1.00, 0.00, -0.00, -1.00, 249.9, 244.5)">n</text><text xml:space="preserve" font-family="GillSans,Gill Sans" font-size="28.0" fill="#000000" transform="matrix(1.00, 0.00, -0.00, -1.00, 263.9, 244.5)">e</text><text xml:space="preserve" font-family="GillSans,Gill Sans" font-size="28.0" fill="#000000" transform="matrix(1.00, 0.00, -0.00, -1.00, 277.3, 244.5)"> </text><text xml:space="preserve" font-family="GillSans,Gill Sans" font-size="28.0" fill="#000000" transform="matrix(1.00, 0.00, -0.00, -1.00, 285.1, 244.5)">m</text><text xml:space="preserve" font-family="GillSans,Gill Sans" font-size="28.0" fill="#000000" transform="matrix(1.00, 0.00, -0.00, -1.00, 306.7, 244.5)">t</text><text xml:space="preserve" font-family="GillSans,Gill Sans" font-size="28.0" fill="#000000" transform="matrix(1.00, 0.00, -0.00, -1.00, 316.0, 244.5)">D</text><text xml:space="preserve" font-family="GillSans,Gill Sans" font-size="28.0" fill="#000000" transform="matrix(1.00, 0.00, -0.00, -1.00, 337.0, 244.5)">N</text><text xml:space="preserve" font-family="GillSans,Gill Sans" font-size="28.0" fill="#000000" transform="matrix(1.00, 0.00, -0.00, -1.00, 358.9, 244.5)">A</text><text xml:space="preserve" font-family="GillSans,Gill Sans" font-size="28.0" fill="#000000" transform="matrix(1.00, 0.00, -0.00, -1.00, 377.5, 244.5)">,</text><text xml:space="preserve" font-family="GillSans,Gill Sans" font-size="28.0" fill="#000000" transform="matrix(1.00, 0.00, -0.00, -1.00, 380.9, 244.5)"> </text><text xml:space="preserve" font-family="GillSans,Gill Sans" font-size="28.0" fill="#000000" transform="matrix(1.00, 0.00, -0.00, -1.00, 388.7, 244.5)">4</text><text xml:space="preserve" font-family="GillSans,Gill Sans" font-size="28.0" fill="#000000" transform="matrix(1.00, 0.00, -0.00, -1.00, 402.7, 244.5)"> </text><text xml:space="preserve" font-family="GillSans,Gill Sans" font-size="28.0" fill="#000000" transform="matrix(1.00, 0.00, -0.00, -1.00, 410.4, 244.5)">n</text><text xml:space="preserve" font-family="GillSans,Gill Sans" font-size="28.0" fill="#000000" transform="matrix(1.00, 0.00, -0.00, -1.00, 424.4, 244.5)">D</text><text xml:space="preserve" font-family="GillSans,Gill Sans" font-size="28.0" fill="#000000" transform="matrix(1.00, 0.00, -0.00, -1.00, 445.4, 244.5)">N</text><text xml:space="preserve" font-family="GillSans,Gill Sans" font-size="28.0" fill="#000000" transform="matrix(1.00, 0.00, -0.00, -1.00, 467.3, 244.5)">A</text><text xml:space="preserve" font-family="GillSans,Gill Sans" font-size="28.0" fill="#000000" transform="matrix(1.00, 0.00, -0.00, -1.00, 486.0, 244.5)">)</text></g></svg>