<?xml version="1.0" encoding="UTF-8" standalone="no"?><svg xmlns="http://www.w3.org/2000/svg" xmlns:xlink="http://www.w3.org/1999/xlink" clip-rule="evenodd" stroke-miterlimit="4.00" viewBox="0 0 720 540"><desc>SVG generated by Keynote</desc><defs></defs><g transform="matrix(1.00, 0.00, -0.00, -1.00, 0.0, 540.0)"><path d="M 0.0 540.0 L 720.0 540.0 L 720.0 0.0 L 0.0 0.0 Z M 0.0 540.0 " fill="#FEFFFF"></path><text xml:space="preserve" font-family="ArialMT" font-size="44.0" fill="#000000" transform="matrix(1.00, 0.00, -0.00, -1.00, 86.0, 432.0)">I</text><text xml:space="preserve" font-family="ArialMT" font-size="44.0" fill="#000000" transform="matrix(1.00, 0.00, -0.00, -1.00, 98.2, 432.0)">n</text><text xml:space="preserve" font-family="ArialMT" font-size="44.0" fill="#000000" transform="matrix(1.00, 0.00, -0.00, -1.00, 122.7, 432.0)">t</text><text xml:space="preserve" font-family="ArialMT" font-size="44.0" fill="#000000" transform="matrix(1.00, 0.00, -0.00, -1.00, 134.9, 432.0)">e</text><text xml:space="preserve" font-family="ArialMT" font-size="44.0" fill="#000000" transform="matrix(1.00, 0.00, -0.00, -1.00, 159.4, 432.0)">r</text><text xml:space="preserve" font-family="ArialMT" font-size="44.0" fill="#000000" transform="matrix(1.00, 0.00, -0.00, -1.00, 174.0, 432.0)">n</text><text xml:space="preserve" font-family="ArialMT" font-size="44.0" fill="#000000" transform="matrix(1.00, 0.00, -0.00, -1.00, 198.5, 432.0)">a</text><text xml:space="preserve" font-family="ArialMT" font-size="44.0" fill="#000000" transform="matrix(1.00, 0.00, -0.00, -1.00, 223.0, 432.0)">l</text><text xml:space="preserve" font-family="ArialMT" font-size="44.0" fill="#000000" transform="matrix(1.00, 0.00, -0.00, -1.00, 232.8, 432.0)"> </text><text xml:space="preserve" font-family="ArialMT" font-size="44.0" fill="#000000" transform="matrix(1.00, 0.00, -0.00, -1.00, 245.0, 432.0)">M</text><text xml:space="preserve" font-family="ArialMT" font-size="44.0" fill="#000000" transform="matrix(1.00, 0.00, -0.00, -1.00, 281.7, 432.0)">e</text><text xml:space="preserve" font-family="ArialMT" font-size="44.0" fill="#000000" transform="matrix(1.00, 0.00, -0.00, -1.00, 306.1, 432.0)">t</text><text xml:space="preserve" font-family="ArialMT" font-size="44.0" fill="#000000" transform="matrix(1.00, 0.00, -0.00, -1.00, 318.3, 432.0)">a</text><text xml:space="preserve" font-family="ArialMT" font-size="44.0" fill="#000000" transform="matrix(1.00, 0.00, -0.00, -1.00, 342.8, 432.0)">z</text><text xml:space="preserve" font-family="ArialMT" font-size="44.0" fill="#000000" transform="matrix(1.00, 0.00, -0.00, -1.00, 364.8, 432.0)">o</text><text xml:space="preserve" font-family="ArialMT" font-size="44.0" fill="#000000" transform="matrix(1.00, 0.00, -0.00, -1.00, 389.3, 432.0)">a</text><text xml:space="preserve" font-family="ArialMT" font-size="44.0" fill="#000000" transform="matrix(1.00, 0.00, -0.00, -1.00, 413.8, 432.0)">n</text><text xml:space="preserve" font-family="ArialMT" font-size="44.0" fill="#000000" transform="matrix(1.00, 0.00, -0.00, -1.00, 438.3, 432.0)"> </text><text xml:space="preserve" font-family="ArialMT" font-size="44.0" fill="#000000" transform="matrix(1.00, 0.00, -0.00, -1.00, 450.5, 432.0)">P</text><text xml:space="preserve" font-family="ArialMT" font-size="44.0" fill="#000000" transform="matrix(1.00, 0.00, -0.00, -1.00, 479.8, 432.0)">a</text><text xml:space="preserve" font-family="ArialMT" font-size="44.0" fill="#000000" transform="matrix(1.00, 0.00, -0.00, -1.00, 504.3, 432.0)">r</text><text xml:space="preserve" font-family="ArialMT" font-size="44.0" fill="#000000" transform="matrix(1.00, 0.00, -0.00, -1.00, 519.0, 432.0)">a</text><text xml:space="preserve" font-family="ArialMT" font-size="44.0" fill="#000000" transform="matrix(1.00, 0.00, -0.00, -1.00, 543.4, 432.0)">s</text><text xml:space="preserve" font-family="ArialMT" font-size="44.0" fill="#000000" transform="matrix(1.00, 0.00, -0.00, -1.00, 565.4, 432.0)">i</text><text xml:space="preserve" font-family="ArialMT" font-size="44.0" fill="#000000" transform="matrix(1.00, 0.00, -0.00, -1.00, 575.2, 432.0)">t</text><text xml:space="preserve" font-family="ArialMT" font-size="44.0" fill="#000000" transform="matrix(1.00, 0.00, -0.00, -1.00, 587.4, 432.0)">e</text><text xml:space="preserve" font-family="ArialMT" font-size="44.0" fill="#000000" transform="matrix(1.00, 0.00, -0.00, -1.00, 611.9, 432.0)">s</text><text xml:space="preserve" font-family="ArialMT" font-size="24.0" fill="#000000" transform="matrix(1.00, 0.00, -0.00, -1.00, 43.2, 369.9)">•</text><text xml:space="preserve" font-family="ArialMT" font-size="24.0" fill="#000000" transform="matrix(1.00, 0.00, -0.00, -1.00, 70.0, 370.0)">M</text><text xml:space="preserve" font-family="ArialMT" font-size="24.0" fill="#000000" transform="matrix(1.00, 0.00, -0.00, -1.00, 90.0, 370.0)">o</text><text xml:space="preserve" font-family="ArialMT" font-size="24.0" fill="#000000" transform="matrix(1.00, 0.00, -0.00, -1.00, 103.3, 370.0)">n</text><text xml:space="preserve" font-family="ArialMT" font-size="24.0" fill="#000000" transform="matrix(1.00, 0.00, -0.00, -1.00, 116.7, 370.0)">o</text><text xml:space="preserve" font-family="ArialMT" font-size="24.0" fill="#000000" transform="matrix(1.00, 0.00, -0.00, -1.00, 130.0, 370.0)">g</text><text xml:space="preserve" font-family="ArialMT" font-size="24.0" fill="#000000" transform="matrix(1.00, 0.00, -0.00, -1.00, 143.4, 370.0)">e</text><text xml:space="preserve" font-family="ArialMT" font-size="24.0" fill="#000000" transform="matrix(1.00, 0.00, -0.00, -1.00, 156.8, 370.0)">a</text><text xml:space="preserve" font-family="ArialMT" font-size="24.0" fill="#000000" transform="matrix(1.00, 0.00, -0.00, -1.00, 170.1, 370.0)">e</text><text xml:space="preserve" font-family="ArialMT" font-size="24.0" fill="#000000" transform="matrix(1.00, 0.00, -0.00, -1.00, 183.5, 370.0)">n</text><text xml:space="preserve" font-family="ArialMT" font-size="24.0" fill="#000000" transform="matrix(1.00, 0.00, -0.00, -1.00, 196.8, 370.0)"> </text><text xml:space="preserve" font-family="ArialMT" font-size="24.0" fill="#000000" transform="matrix(1.00, 0.00, -0.00, -1.00, 203.5, 370.0)">f</text><text xml:space="preserve" font-family="ArialMT" font-size="24.0" fill="#000000" transform="matrix(1.00, 0.00, -0.00, -1.00, 210.1, 370.0)">l</text><text xml:space="preserve" font-family="ArialMT" font-size="24.0" fill="#000000" transform="matrix(1.00, 0.00, -0.00, -1.00, 215.5, 370.0)">u</text><text xml:space="preserve" font-family="ArialMT" font-size="24.0" fill="#000000" transform="matrix(1.00, 0.00, -0.00, -1.00, 228.8, 370.0)">k</text><text xml:space="preserve" font-family="ArialMT" font-size="24.0" fill="#000000" transform="matrix(1.00, 0.00, -0.00, -1.00, 240.8, 370.0)">e</text><text xml:space="preserve" font-family="ArialMT" font-size="24.0" fill="#000000" transform="matrix(1.00, 0.00, -0.00, -1.00, 254.2, 370.0)">s</text><text xml:space="preserve" font-family="ArialMT" font-size="24.0" fill="#000000" transform="matrix(1.00, 0.00, -0.00, -1.00, 266.2, 370.0)"> </text><text xml:space="preserve" font-family="ArialMT" font-size="24.0" fill="#000000" transform="matrix(1.00, 0.00, -0.00, -1.00, 272.8, 370.0)">i</text><text xml:space="preserve" font-family="ArialMT" font-size="24.0" fill="#000000" transform="matrix(1.00, 0.00, -0.00, -1.00, 278.2, 370.0)">n</text><text xml:space="preserve" font-family="ArialMT" font-size="24.0" fill="#000000" transform="matrix(1.00, 0.00, -0.00, -1.00, 291.5, 370.0)"> </text><text xml:space="preserve" font-family="ArialMT" font-size="24.0" fill="#000000" transform="matrix(1.00, 0.00, -0.00, -1.00, 70.0, 342.0)">s</text><text xml:space="preserve" font-family="ArialMT" font-size="24.0" fill="#000000" transform="matrix(1.00, 0.00, -0.00, -1.00, 82.0, 342.0)">p</text><text xml:space="preserve" font-family="ArialMT" font-size="24.0" fill="#000000" transform="matrix(1.00, 0.00, -0.00, -1.00, 95.4, 342.0)">a</text><text xml:space="preserve" font-family="ArialMT" font-size="24.0" fill="#000000" transform="matrix(1.00, 0.00, -0.00, -1.00, 108.7, 342.0)">d</text><text xml:space="preserve" font-family="ArialMT" font-size="24.0" fill="#000000" transform="matrix(1.00, 0.00, -0.00, -1.00, 122.1, 342.0)">e</text><text xml:space="preserve" font-family="ArialMT" font-size="24.0" fill="#000000" transform="matrix(1.00, 0.00, -0.00, -1.00, 135.4, 342.0)">f</text><text xml:space="preserve" font-family="ArialMT" font-size="24.0" fill="#000000" transform="matrix(1.00, 0.00, -0.00, -1.00, 142.1, 342.0)">o</text><text xml:space="preserve" font-family="ArialMT" font-size="24.0" fill="#000000" transform="matrix(1.00, 0.00, -0.00, -1.00, 155.4, 342.0)">o</text><text xml:space="preserve" font-family="ArialMT" font-size="24.0" fill="#000000" transform="matrix(1.00, 0.00, -0.00, -1.00, 168.8, 342.0)">t</text><text xml:space="preserve" font-family="ArialMT" font-size="24.0" fill="#000000" transform="matrix(1.00, 0.00, -0.00, -1.00, 175.4, 342.0)"> </text><text xml:space="preserve" font-family="ArialMT" font-size="24.0" fill="#000000" transform="matrix(1.00, 0.00, -0.00, -1.00, 182.1, 342.0)">t</text><text xml:space="preserve" font-family="ArialMT" font-size="24.0" fill="#000000" transform="matrix(1.00, 0.00, -0.00, -1.00, 188.8, 342.0)">o</text><text xml:space="preserve" font-family="ArialMT" font-size="24.0" fill="#000000" transform="matrix(1.00, 0.00, -0.00, -1.00, 202.1, 342.0)">a</text><text xml:space="preserve" font-family="ArialMT" font-size="24.0" fill="#000000" transform="matrix(1.00, 0.00, -0.00, -1.00, 215.5, 342.0)">d</text><text xml:space="preserve" font-family="ArialMT" font-size="24.0" fill="#000000" transform="matrix(1.00, 0.00, -0.00, -1.00, 228.8, 342.0)">s</text><text xml:space="preserve" font-family="ArialMT" font-size="24.0" fill="#000000" transform="matrix(1.00, 0.00, -0.00, -1.00, 240.8, 342.0)"> </text><text xml:space="preserve" font-family="ArialMT" font-size="24.0" fill="#000000" transform="matrix(1.00, 0.00, -0.00, -1.00, 43.2, 306.5)">•</text><text xml:space="preserve" font-family="ArialMT" font-size="24.0" fill="#000000" transform="matrix(1.00, 0.00, -0.00, -1.00, 70.0, 306.0)">F</text><text xml:space="preserve" font-family="ArialMT" font-size="24.0" fill="#000000" transform="matrix(1.00, 0.00, -0.00, -1.00, 84.7, 306.0)">l</text><text xml:space="preserve" font-family="ArialMT" font-size="24.0" fill="#000000" transform="matrix(1.00, 0.00, -0.00, -1.00, 90.0, 306.0)">a</text><text xml:space="preserve" font-family="ArialMT" font-size="24.0" fill="#000000" transform="matrix(1.00, 0.00, -0.00, -1.00, 103.3, 306.0)">t</text><text xml:space="preserve" font-family="ArialMT" font-size="24.0" fill="#000000" transform="matrix(1.00, 0.00, -0.00, -1.00, 110.0, 306.0)">w</text><text xml:space="preserve" font-family="ArialMT" font-size="24.0" fill="#000000" transform="matrix(1.00, 0.00, -0.00, -1.00, 127.3, 306.0)">o</text><text xml:space="preserve" font-family="ArialMT" font-size="24.0" fill="#000000" transform="matrix(1.00, 0.00, -0.00, -1.00, 140.7, 306.0)">r</text><text xml:space="preserve" font-family="ArialMT" font-size="24.0" fill="#000000" transform="matrix(1.00, 0.00, -0.00, -1.00, 148.7, 306.0)">m</text><text xml:space="preserve" font-family="ArialMT" font-size="24.0" fill="#000000" transform="matrix(1.00, 0.00, -0.00, -1.00, 168.7, 306.0)">s</text><text xml:space="preserve" font-family="ArialMT" font-size="24.0" fill="#000000" transform="matrix(1.00, 0.00, -0.00, -1.00, 180.7, 306.0)"> </text><text xml:space="preserve" font-family="ArialMT" font-size="24.0" fill="#000000" transform="matrix(1.00, 0.00, -0.00, -1.00, 187.3, 306.0)">t</text><text xml:space="preserve" font-family="ArialMT" font-size="24.0" fill="#000000" transform="matrix(1.00, 0.00, -0.00, -1.00, 194.0, 306.0)">h</text><text xml:space="preserve" font-family="ArialMT" font-size="24.0" fill="#000000" transform="matrix(1.00, 0.00, -0.00, -1.00, 207.4, 306.0)">a</text><text xml:space="preserve" font-family="ArialMT" font-size="24.0" fill="#000000" transform="matrix(1.00, 0.00, -0.00, -1.00, 220.7, 306.0)">t</text><text xml:space="preserve" font-family="ArialMT" font-size="24.0" fill="#000000" transform="matrix(1.00, 0.00, -0.00, -1.00, 227.4, 306.0)"> </text><text xml:space="preserve" font-family="ArialMT" font-size="24.0" fill="#000000" transform="matrix(1.00, 0.00, -0.00, -1.00, 234.0, 306.0)">l</text><text xml:space="preserve" font-family="ArialMT" font-size="24.0" fill="#000000" transform="matrix(1.00, 0.00, -0.00, -1.00, 239.4, 306.0)">i</text><text xml:space="preserve" font-family="ArialMT" font-size="24.0" fill="#000000" transform="matrix(1.00, 0.00, -0.00, -1.00, 244.7, 306.0)">v</text><text xml:space="preserve" font-family="ArialMT" font-size="24.0" fill="#000000" transform="matrix(1.00, 0.00, -0.00, -1.00, 256.7, 306.0)">e</text><text xml:space="preserve" font-family="ArialMT" font-size="24.0" fill="#000000" transform="matrix(1.00, 0.00, -0.00, -1.00, 270.1, 306.0)"> </text><text xml:space="preserve" font-family="ArialMT" font-size="24.0" fill="#000000" transform="matrix(1.00, 0.00, -0.00, -1.00, 276.7, 306.0)">i</text><text xml:space="preserve" font-family="ArialMT" font-size="24.0" fill="#000000" transform="matrix(1.00, 0.00, -0.00, -1.00, 282.1, 306.0)">n</text><text xml:space="preserve" font-family="ArialMT" font-size="24.0" fill="#000000" transform="matrix(1.00, 0.00, -0.00, -1.00, 295.4, 306.0)"> </text><text xml:space="preserve" font-family="ArialMT" font-size="24.0" fill="#000000" transform="matrix(1.00, 0.00, -0.00, -1.00, 70.0, 278.0)">t</text><text xml:space="preserve" font-family="ArialMT" font-size="24.0" fill="#000000" transform="matrix(1.00, 0.00, -0.00, -1.00, 76.7, 278.0)">h</text><text xml:space="preserve" font-family="ArialMT" font-size="24.0" fill="#000000" transform="matrix(1.00, 0.00, -0.00, -1.00, 90.0, 278.0)">e</text><text xml:space="preserve" font-family="ArialMT" font-size="24.0" fill="#000000" transform="matrix(1.00, 0.00, -0.00, -1.00, 103.3, 278.0)"> </text><text xml:space="preserve" font-family="ArialMT" font-size="24.0" fill="#000000" transform="matrix(1.00, 0.00, -0.00, -1.00, 110.0, 278.0)">b</text><text xml:space="preserve" font-family="ArialMT" font-size="24.0" fill="#000000" transform="matrix(1.00, 0.00, -0.00, -1.00, 123.4, 278.0)">l</text><text xml:space="preserve" font-family="ArialMT" font-size="24.0" fill="#000000" transform="matrix(1.00, 0.00, -0.00, -1.00, 128.7, 278.0)">a</text><text xml:space="preserve" font-family="ArialMT" font-size="24.0" fill="#000000" transform="matrix(1.00, 0.00, -0.00, -1.00, 142.0, 278.0)">d</text><text xml:space="preserve" font-family="ArialMT" font-size="24.0" fill="#000000" transform="matrix(1.00, 0.00, -0.00, -1.00, 155.4, 278.0)">d</text><text xml:space="preserve" font-family="ArialMT" font-size="24.0" fill="#000000" transform="matrix(1.00, 0.00, -0.00, -1.00, 168.7, 278.0)">e</text><text xml:space="preserve" font-family="ArialMT" font-size="24.0" fill="#000000" transform="matrix(1.00, 0.00, -0.00, -1.00, 182.1, 278.0)">r</text><g><clipPath id="clip-525"><path d="M 578.0 137.0 L 708.0 137.0 L 708.0 336.0 L 578.0 336.0 Z M 578.0 137.0 "></path></clipPath><g clip-path="url(#clip-525)"><path d="M 578.0 336.0 L 708.0 336.0 L 708.0 137.0 L 578.0 137.0 Z M 578.0 336.0 " fill="#FFFFFF"></path><image xlink:href="../../01204E45-164F-4446-B199-7D0D4C64D2CC/assets/C426140BEAF9922D32965A79286F0EA1.png" width="200.00" height="307.00" transform="matrix(0.65, 0.00, -0.00, -0.65, 578.0, 336.0)"></image></g></g><g><clipPath id="clip-526"><path d="M 336.0 164.0 L 576.0 164.0 L 576.0 324.0 L 336.0 324.0 Z M 336.0 164.0 "></path></clipPath><g clip-path="url(#clip-526)"><path d="M 336.0 324.0 L 576.0 324.0 L 576.0 164.0 L 336.0 164.0 Z M 336.0 324.0 " fill="#FFFFFF"></path><image xlink:href="../../09204E45-164F-4446-B199-7D0D4C64D2CC/assets/8A7712BA5E019DF7100DB9E4FEEAD1A8.png" width="600.00" height="400.00" transform="matrix(0.40, 0.00, -0.00, -0.40, 336.0, 324.0)"></image></g></g><text xml:space="preserve" font-family="Times-Italic" font-style="italic" font-size="16.0" fill="#000000" transform="matrix(1.00, 0.00, -0.00, -1.00, 391.0, 137.0)">S</text><text xml:space="preserve" font-family="Times-Italic" font-style="italic" font-size="16.0" fill="#000000" transform="matrix(1.00, 0.00, -0.00, -1.00, 399.0, 137.0)">c</text><text xml:space="preserve" font-family="Times-Italic" font-style="italic" font-size="16.0" fill="#000000" transform="matrix(1.00, 0.00, -0.00, -1.00, 406.1, 137.0)">a</text><text xml:space="preserve" font-family="Times-Italic" font-style="italic" font-size="16.0" fill="#000000" transform="matrix(1.00, 0.00, -0.00, -1.00, 414.1, 137.0)">p</text><text xml:space="preserve" font-family="Times-Italic" font-style="italic" font-size="16.0" fill="#000000" transform="matrix(1.00, 0.00, -0.00, -1.00, 422.1, 137.0)">h</text><text xml:space="preserve" font-family="Times-Italic" font-style="italic" font-size="16.0" fill="#000000" transform="matrix(1.00, 0.00, -0.00, -1.00, 430.1, 137.0)">i</text><text xml:space="preserve" font-family="Times-Italic" font-style="italic" font-size="16.0" fill="#000000" transform="matrix(1.00, 0.00, -0.00, -1.00, 434.5, 137.0)">o</text><text xml:space="preserve" font-family="Times-Italic" font-style="italic" font-size="16.0" fill="#000000" transform="matrix(1.00, 0.00, -0.00, -1.00, 442.5, 137.0)">p</text><text xml:space="preserve" font-family="Times-Italic" font-style="italic" font-size="16.0" fill="#000000" transform="matrix(1.00, 0.00, -0.00, -1.00, 450.5, 137.0)">u</text><text xml:space="preserve" font-family="Times-Italic" font-style="italic" font-size="16.0" fill="#000000" transform="matrix(1.00, 0.00, -0.00, -1.00, 458.5, 137.0)">s</text><text xml:space="preserve" font-family="Times-Italic" font-style="italic" font-size="16.0" fill="#000000" transform="matrix(1.00, 0.00, -0.00, -1.00, 464.8, 137.0)"> </text><text xml:space="preserve" font-family="Times-Italic" font-style="italic" font-size="16.0" fill="#000000" transform="matrix(1.00, 0.00, -0.00, -1.00, 468.8, 137.0)">c</text><text xml:space="preserve" font-family="Times-Italic" font-style="italic" font-size="16.0" fill="#000000" transform="matrix(1.00, 0.00, -0.00, -1.00, 475.9, 137.0)">o</text><text xml:space="preserve" font-family="Times-Italic" font-style="italic" font-size="16.0" fill="#000000" transform="matrix(1.00, 0.00, -0.00, -1.00, 483.9, 137.0)">u</text><text xml:space="preserve" font-family="Times-Italic" font-style="italic" font-size="16.0" fill="#000000" transform="matrix(1.00, 0.00, -0.00, -1.00, 491.9, 137.0)">c</text><text xml:space="preserve" font-family="Times-Italic" font-style="italic" font-size="16.0" fill="#000000" transform="matrix(1.00, 0.00, -0.00, -1.00, 499.0, 137.0)">h</text><text xml:space="preserve" font-family="Times-Italic" font-style="italic" font-size="16.0" fill="#000000" transform="matrix(1.00, 0.00, -0.00, -1.00, 507.0, 137.0)">i</text><text xml:space="preserve" font-family="Times-Italic" font-style="italic" font-size="16.0" fill="#000000" transform="matrix(1.00, 0.00, -0.00, -1.00, 511.4, 137.0)">i</text></g></svg>