<?xml version="1.0" encoding="UTF-8" standalone="no"?><svg xmlns="http://www.w3.org/2000/svg" xmlns:xlink="http://www.w3.org/1999/xlink" clip-rule="evenodd" stroke-miterlimit="10" viewBox="0 0 720 540"><desc>SVG generated by Keynote</desc><defs></defs><g transform="matrix(1.00, 0.00, -0.00, -1.00, 0.0, 540.0)"><path d="M 0.0 540.0 L 720.0 540.0 L 720.0 0.0 L 0.0 0.0 Z M 0.0 540.0 " fill="#FEFFFF"></path><image xlink:href="888F93206C7A7B952CCF6A07DF706493.png" width="640.00" height="274.00" transform="matrix(0.27, 0.00, -0.00, -0.27, 327.0, 544.0)"></image><image xlink:href="6176CDE92E47764317FBC3AC34ACE6F4.png" width="400.00" height="118.00" transform="matrix(0.43, 0.00, -0.00, -0.43, 326.0, 482.0)"></image><image xlink:href="8FF142E62A64E9C7212EB9D841AF4029.png" width="1000.00" height="294.00" transform="matrix(0.15, 0.00, -0.00, -0.15, 338.0, 347.0)"></image><image xlink:href="BA8FC8D9C3FC16D3E8666C6ABDA50587.png" width="600.00" height="285.00" transform="matrix(0.24, 0.00, -0.00, -0.24, 340.0, 295.0)"></image><image xlink:href="2E7A33EF51406C2FB9E975FA9225F812.png" width="618.00" height="226.00" transform="matrix(0.23, 0.00, -0.00, -0.23, 340.0, 218.0)"></image><image xlink:href="B1A440D051BCCE56AB18FC6C0265C5A2.png" width="1128.00" height="508.00" transform="matrix(-0.14, 0.00, 0.00, -0.14, 493.0, 151.0)"></image><image xlink:href="7731B3254F4FFA3CDDE4662BDDF4FC77.png" width="501.00" height="279.00" transform="matrix(0.24, 0.00, -0.00, -0.24, 353.0, 64.0)"></image><g><clipPath id="clip0x6000016bf740"><path d="M 338.0 361.0 L 486.2 361.0 L 486.2 430.0 L 338.0 430.0 Z M 338.0 361.0 "></path></clipPath><g clip-path="url(#clip0x6000016bf740)"><image xlink:href="C87C08E3C0199561070A13CB3B6EF4FE.png" width="550.00" height="256.00" transform="matrix(0.27, 0.00, -0.00, -0.27, 338.0, 430.0)"></image></g></g><g><clipPath id="clip0x6000016bfc80"><path d="M 335.0 359.0 L 488.0 359.0 L 488.0 432.0 L 335.0 432.0 Z M 335.0 359.0 "></path></clipPath><g clip-path="url(#clip0x6000016bfc80)"><path d="M 0.0 0.0 L 147.0 0.0 L 147.0 67.0 L 0.0 67.0 Z M 0.0 0.0 " fill="none" stroke="#FFFFFF" stroke-width="4.00" transform="matrix(1.00, 0.00, 0.00, -1.00, 338.0, 429.0)"></path></g></g><text xml:space="preserve" font-family="GillSans,Gill Sans" font-size="24.0" fill="#000000" transform="matrix(1.00, 0.00, -0.00, -1.00, 535.2, 498.5)">B</text><text xml:space="preserve" font-family="GillSans,Gill Sans" font-size="24.0" fill="#000000" transform="matrix(1.00, 0.00, -0.00, -1.00, 548.7, 498.5)">i</text><text xml:space="preserve" font-family="GillSans,Gill Sans" font-size="24.0" fill="#000000" transform="matrix(1.00, 0.00, -0.00, -1.00, 554.0, 498.5)">c</text><text xml:space="preserve" font-family="GillSans,Gill Sans" font-size="24.0" fill="#000000" transform="matrix(1.00, 0.00, -0.00, -1.00, 564.5, 498.5)">h</text><text xml:space="preserve" font-family="GillSans,Gill Sans" font-size="24.0" fill="#000000" transform="matrix(1.00, 0.00, -0.00, -1.00, 576.5, 498.5)">i</text><text xml:space="preserve" font-family="GillSans,Gill Sans" font-size="24.0" fill="#000000" transform="matrix(1.00, 0.00, -0.00, -1.00, 581.8, 498.5)">r</text><text xml:space="preserve" font-family="GillSans,Gill Sans" font-size="24.0" fill="#000000" transform="matrix(1.00, 0.00, -0.00, -1.00, 519.8, 447.5)">S</text><text xml:space="preserve" font-family="GillSans,Gill Sans" font-size="24.0" fill="#000000" transform="matrix(1.00, 0.00, -0.00, -1.00, 530.8, 447.5)">t</text><text xml:space="preserve" font-family="GillSans,Gill Sans" font-size="24.0" fill="#000000" transform="matrix(1.00, 0.00, -0.00, -1.00, 538.8, 447.5)">u</text><text xml:space="preserve" font-family="GillSans,Gill Sans" font-size="24.0" fill="#000000" transform="matrix(1.00, 0.00, -0.00, -1.00, 550.8, 447.5)">r</text><text xml:space="preserve" font-family="GillSans,Gill Sans" font-size="24.0" fill="#000000" transform="matrix(1.00, 0.00, -0.00, -1.00, 560.3, 447.5)">g</text><text xml:space="preserve" font-family="GillSans,Gill Sans" font-size="24.0" fill="#000000" transform="matrix(1.00, 0.00, -0.00, -1.00, 570.5, 447.5)">e</text><text xml:space="preserve" font-family="GillSans,Gill Sans" font-size="24.0" fill="#000000" transform="matrix(1.00, 0.00, -0.00, -1.00, 582.0, 447.5)">o</text><text xml:space="preserve" font-family="GillSans,Gill Sans" font-size="24.0" fill="#000000" transform="matrix(1.00, 0.00, -0.00, -1.00, 595.3, 447.5)">n</text><text xml:space="preserve" font-family="GillSans,Gill Sans" font-size="24.0" fill="#000000" transform="matrix(1.00, 0.00, -0.00, -1.00, 544.8, 386.5)">G</text><text xml:space="preserve" font-family="GillSans,Gill Sans" font-size="24.0" fill="#000000" transform="matrix(1.00, 0.00, -0.00, -1.00, 562.5, 386.5)">a</text><text xml:space="preserve" font-family="GillSans,Gill Sans" font-size="24.0" fill="#000000" transform="matrix(1.00, 0.00, -0.00, -1.00, 572.8, 386.5)">r</text><text xml:space="preserve" font-family="GillSans,Gill Sans" font-size="24.0" fill="#000000" transform="matrix(1.00, 0.00, -0.00, -1.00, 529.6, 316.5)">B</text><text xml:space="preserve" font-family="GillSans,Gill Sans" font-size="24.0" fill="#000000" transform="matrix(1.00, 0.00, -0.00, -1.00, 543.1, 316.5)">o</text><text xml:space="preserve" font-family="GillSans,Gill Sans" font-size="24.0" fill="#000000" transform="matrix(1.00, 0.00, -0.00, -1.00, 556.1, 316.5)">w</text><text xml:space="preserve" font-family="GillSans,Gill Sans" font-size="24.0" fill="#000000" transform="matrix(1.00, 0.00, -0.00, -1.00, 573.4, 316.5)">ﬁ</text><text xml:space="preserve" font-family="GillSans,Gill Sans" font-size="24.0" fill="#000000" transform="matrix(1.00, 0.00, -0.00, -1.00, 585.4, 316.5)">n</text><text xml:space="preserve" font-family="GillSans,Gill Sans" font-size="24.0" fill="#000000" transform="matrix(1.00, 0.00, -0.00, -1.00, 528.7, 251.5)">T</text><text xml:space="preserve" font-family="GillSans,Gill Sans" font-size="24.0" fill="#000000" transform="matrix(1.00, 0.00, -0.00, -1.00, 539.6, 251.5)">e</text><text xml:space="preserve" font-family="GillSans,Gill Sans" font-size="24.0" fill="#000000" transform="matrix(1.00, 0.00, -0.00, -1.00, 551.1, 251.5)">l</text><text xml:space="preserve" font-family="GillSans,Gill Sans" font-size="24.0" fill="#000000" transform="matrix(1.00, 0.00, -0.00, -1.00, 556.4, 251.5)">e</text><text xml:space="preserve" font-family="GillSans,Gill Sans" font-size="24.0" fill="#000000" transform="matrix(1.00, 0.00, -0.00, -1.00, 567.9, 251.5)">o</text><text xml:space="preserve" font-family="GillSans,Gill Sans" font-size="24.0" fill="#000000" transform="matrix(1.00, 0.00, -0.00, -1.00, 581.1, 251.5)">s</text><text xml:space="preserve" font-family="GillSans,Gill Sans" font-size="24.0" fill="#000000" transform="matrix(1.00, 0.00, -0.00, -1.00, 590.3, 251.5)">t</text><text xml:space="preserve" font-family="GillSans,Gill Sans" font-size="24.0" fill="#000000" transform="matrix(1.00, 0.00, -0.00, -1.00, 507.0, 182.5)">C</text><text xml:space="preserve" font-family="GillSans,Gill Sans" font-size="24.0" fill="#000000" transform="matrix(1.00, 0.00, -0.00, -1.00, 524.0, 182.5)">o</text><text xml:space="preserve" font-family="GillSans,Gill Sans" font-size="24.0" fill="#000000" transform="matrix(1.00, 0.00, -0.00, -1.00, 537.3, 182.5)">e</text><text xml:space="preserve" font-family="GillSans,Gill Sans" font-size="24.0" fill="#000000" transform="matrix(1.00, 0.00, -0.00, -1.00, 548.8, 182.5)">l</text><text xml:space="preserve" font-family="GillSans,Gill Sans" font-size="24.0" fill="#000000" transform="matrix(1.00, 0.00, -0.00, -1.00, 554.0, 182.5)">o</text><text xml:space="preserve" font-family="GillSans,Gill Sans" font-size="24.0" fill="#000000" transform="matrix(1.00, 0.00, -0.00, -1.00, 567.3, 182.5)">c</text><text xml:space="preserve" font-family="GillSans,Gill Sans" font-size="24.0" fill="#000000" transform="matrix(1.00, 0.00, -0.00, -1.00, 577.8, 182.5)">a</text><text xml:space="preserve" font-family="GillSans,Gill Sans" font-size="24.0" fill="#000000" transform="matrix(1.00, 0.00, -0.00, -1.00, 588.0, 182.5)">n</text><text xml:space="preserve" font-family="GillSans,Gill Sans" font-size="24.0" fill="#000000" transform="matrix(1.00, 0.00, -0.00, -1.00, 600.0, 182.5)">t</text><text xml:space="preserve" font-family="GillSans,Gill Sans" font-size="24.0" fill="#000000" transform="matrix(1.00, 0.00, -0.00, -1.00, 608.0, 182.5)">h</text><text xml:space="preserve" font-family="GillSans,Gill Sans" font-size="24.0" fill="#000000" transform="matrix(1.00, 0.00, -0.00, -1.00, 523.9, 105.5)">L</text><text xml:space="preserve" font-family="GillSans,Gill Sans" font-size="24.0" fill="#000000" transform="matrix(1.00, 0.00, -0.00, -1.00, 535.7, 105.5)">u</text><text xml:space="preserve" font-family="GillSans,Gill Sans" font-size="24.0" fill="#000000" transform="matrix(1.00, 0.00, -0.00, -1.00, 547.7, 105.5)">n</text><text xml:space="preserve" font-family="GillSans,Gill Sans" font-size="24.0" fill="#000000" transform="matrix(1.00, 0.00, -0.00, -1.00, 559.7, 105.5)">g</text><text xml:space="preserve" font-family="GillSans,Gill Sans" font-size="24.0" fill="#000000" transform="matrix(1.00, 0.00, -0.00, -1.00, 569.9, 105.5)">ﬁ</text><text xml:space="preserve" font-family="GillSans,Gill Sans" font-size="24.0" fill="#000000" transform="matrix(1.00, 0.00, -0.00, -1.00, 581.9, 105.5)">s</text><text xml:space="preserve" font-family="GillSans,Gill Sans" font-size="24.0" fill="#000000" transform="matrix(1.00, 0.00, -0.00, -1.00, 591.1, 105.5)">h</text><text xml:space="preserve" font-family="GillSans,Gill Sans" font-size="24.0" fill="#000000" transform="matrix(1.00, 0.00, -0.00, -1.00, 519.8, 40.5)">T</text><text xml:space="preserve" font-family="GillSans,Gill Sans" font-size="24.0" fill="#000000" transform="matrix(1.00, 0.00, -0.00, -1.00, 530.7, 40.5)">e</text><text xml:space="preserve" font-family="GillSans,Gill Sans" font-size="24.0" fill="#000000" transform="matrix(1.00, 0.00, -0.00, -1.00, 542.2, 40.5)">t</text><text xml:space="preserve" font-family="GillSans,Gill Sans" font-size="24.0" fill="#000000" transform="matrix(1.00, 0.00, -0.00, -1.00, 550.2, 40.5)">r</text><text xml:space="preserve" font-family="GillSans,Gill Sans" font-size="24.0" fill="#000000" transform="matrix(1.00, 0.00, -0.00, -1.00, 559.7, 40.5)">a</text><text xml:space="preserve" font-family="GillSans,Gill Sans" font-size="24.0" fill="#000000" transform="matrix(1.00, 0.00, -0.00, -1.00, 569.7, 40.5)">p</text><text xml:space="preserve" font-family="GillSans,Gill Sans" font-size="24.0" fill="#000000" transform="matrix(1.00, 0.00, -0.00, -1.00, 581.7, 40.5)">o</text><text xml:space="preserve" font-family="GillSans,Gill Sans" font-size="24.0" fill="#000000" transform="matrix(1.00, 0.00, -0.00, -1.00, 595.0, 40.5)">d</text><path d="M 0.0 0.5 L 56.0 0.5 " fill="none" stroke="#000000" stroke-width="3.00" transform="matrix(1.00, 0.00, 0.00, -1.00, 264.0, 259.0)"></path><path d="M 0.0 0.5 L 56.0 0.5 " fill="none" stroke="#000000" stroke-width="3.00" transform="matrix(1.00, 0.00, 0.00, -1.00, 264.0, 326.0)"></path><path d="M 0.0 -0.5 L 70.0 -0.5 " fill="none" stroke="#000000" stroke-width="3.00" transform="matrix(0.00, -1.00, -1.00, 0.00, 264.0, 327.0)"></path><path d="M 0.0 0.5 L 109.0 0.5 " fill="none" stroke="#000000" stroke-width="3.00" transform="matrix(1.00, 0.00, 0.00, -1.00, 211.0, 393.0)"></path><path d="M -0.0 -0.5 L 99.0 -0.5 " fill="none" stroke="#000000" stroke-width="3.00" transform="matrix(0.00, -1.00, -1.00, 0.00, 212.0, 393.0)"></path><path d="M 0.0 0.5 L 55.0 0.5 " fill="none" stroke="#000000" stroke-width="3.00" transform="matrix(1.00, 0.00, 0.00, -1.00, 211.0, 293.0)"></path><path d="M 0.0 0.5 L 161.0 0.5 " fill="none" stroke="#000000" stroke-width="3.00" transform="matrix(1.00, 0.00, 0.00, -1.00, 157.0, 455.0)"></path><path d="M 0.0 -0.5 L 112.0 -0.5 " fill="none" stroke="#000000" stroke-width="3.00" transform="matrix(0.00, -1.00, -1.00, 0.00, 158.0, 456.0)"></path><path d="M 0.0 0.5 L 55.0 0.5 " fill="none" stroke="#000000" stroke-width="3.00" transform="matrix(1.00, 0.00, 0.00, -1.00, 157.0, 343.0)"></path><path d="M 0.0 0.5 L 214.0 0.5 " fill="none" stroke="#000000" stroke-width="3.00" transform="matrix(1.00, 0.00, 0.00, -1.00, 103.0, 505.0)"></path><path d="M 0.0 -0.5 L 99.0 -0.5 " fill="none" stroke="#000000" stroke-width="3.00" transform="matrix(0.00, -1.00, -1.00, 0.00, 104.0, 505.0)"></path><path d="M 0.0 0.5 L 55.0 0.5 " fill="none" stroke="#000000" stroke-width="3.00" transform="matrix(1.00, 0.00, 0.00, -1.00, 103.0, 405.0)"></path><path d="M 0.0 0.5 L 56.0 0.5 " fill="none" stroke="#000000" stroke-width="3.00" transform="matrix(1.00, 0.00, 0.00, -1.00, 270.0, 47.0)"></path><path d="M 0.0 0.5 L 56.0 0.5 " fill="none" stroke="#000000" stroke-width="3.00" transform="matrix(1.00, 0.00, 0.00, -1.00, 270.0, 102.0)"></path><path d="M 0.0 -0.5 L 57.0 -0.5 " fill="none" stroke="#000000" stroke-width="3.00" transform="matrix(0.00, -1.00, -1.00, 0.00, 270.0, 102.0)"></path><path d="M 0.0 0.5 L 109.0 0.5 " fill="none" stroke="#000000" stroke-width="3.00" transform="matrix(1.00, 0.00, 0.00, -1.00, 216.0, 193.0)"></path><path d="M 0.0 -0.5 L 116.0 -0.5 " fill="none" stroke="#000000" stroke-width="3.00" transform="matrix(0.00, -1.00, -1.00, 0.00, 217.0, 193.0)"></path><path d="M 0.0 0.5 L 55.0 0.5 " fill="none" stroke="#000000" stroke-width="3.00" transform="matrix(1.00, 0.00, 0.00, -1.00, 216.0, 76.0)"></path><path d="M 0.0 0.5 L 58.0 0.5 " fill="none" stroke="#000000" stroke-width="3.00" transform="matrix(1.00, 0.00, 0.00, -1.00, 47.0, 457.0)"></path><path d="M 0.0 -0.5 L 329.0 -0.5 " fill="none" stroke="#000000" stroke-width="3.00" transform="matrix(0.00, -1.00, -1.00, 0.00, 47.0, 457.0)"></path><path d="M 0.0 0.5 L 170.0 0.5 " fill="none" stroke="#000000" stroke-width="3.00" transform="matrix(1.00, 0.00, 0.00, -1.00, 47.0, 130.0)"></path><path d="M 0.0 0.5 L 43.0 0.5 " fill="none" stroke="#000000" stroke-width="3.00" transform="matrix(1.00, 0.00, 0.00, -1.00, 3.0, 293.0)"></path></g></svg>