<?xml version="1.0" encoding="UTF-8" standalone="no"?><svg xmlns="http://www.w3.org/2000/svg" xmlns:xlink="http://www.w3.org/1999/xlink" clip-rule="evenodd" stroke-miterlimit="4.00" viewBox="0 0 1024 768"><desc>SVG generated by Keynote</desc><defs></defs><g transform="matrix(1.00, 0.00, -0.00, -1.00, 0.0, 768.0)"><g><clipPath id="clip-634"><path d="M 0.0 768.0 L 1024.0 768.0 L 1024.0 0.0 L 0.0 0.0 Z M 0.0 768.0 "></path></clipPath><g clip-path="url(#clip-634)"><image xlink:href="../../C9BB2F21-7097-4279-8A02-40FCEE817F8A/assets/A7CD394FAC08D6D1529A4490C94CFB40.jpeg" width="1365.00" height="767.00" transform="matrix(2.81, 0.00, -0.00, -2.82, -1408.0, 1464.0)"></image></g></g><path d="M 0.0 0.0 L 980.0 0.0 L 980.0 726.0 L 0.0 726.0 Z M 0.0 0.0 " fill="none" stroke="#A2A0A6" stroke-width="2.00" transform="matrix(1.00, 0.00, 0.00, -1.00, 22.3, 746.0)"></path><g><clipPath id="clip-635"><path d="M 0.0 768.0 L 1024.0 768.0 L 1024.0 0.0 L 0.0 0.0 Z M 0.0 768.0 "></path></clipPath><g clip-path="url(#clip-635)"><image xlink:href="../../C9BB2F21-7097-4279-8A02-40FCEE817F8A/assets/A7CD394FAC08D6D1529A4490C94CFB40.jpeg" width="1365.00" height="767.00" transform="matrix(2.81, 0.00, -0.00, -2.82, -1408.0, 1464.0)"></image></g></g><path d="M 0.0 0.0 L 1024.0 0.0 L 1024.0 768.0 L 0.0 768.0 Z M 0.0 0.0 " fill="none" stroke="#000000" stroke-width="1.00" transform="matrix(1.00, 0.00, 0.00, -1.00, 0.0, 768.0)"></path><path d="M 0.0 0.0 L 980.0 0.0 L 980.0 726.0 L 0.0 726.0 Z M 0.0 0.0 " fill="none" stroke="#A2A0A6" stroke-width="2.00" transform="matrix(1.00, 0.00, 0.00, -1.00, 22.3, 746.0)"></path><image xlink:href="../../7CC82F21-7097-4279-8A02-40FCEE817F8A/assets/4860E8E03D824DDE60EA64465F54F5FD.png" width="648.00" height="309.00" transform="matrix(1.00, 0.00, -0.00, -1.00, 23.0, 749.0)"></image><image xlink:href="../../7CC82F21-7097-4279-8A02-40FCEE817F8A/assets/1F22E6BE20C2973D7D4B381660F65CA3.png" width="630.00" height="410.00" transform="matrix(1.00, 0.00, -0.00, -1.00, 374.0, 437.0)"></image><image xlink:href="../../7CC82F21-7097-4279-8A02-40FCEE817F8A/assets/18E438EE71E129D52D4AB6AFF48231C9.png" width="611.00" height="202.00" transform="matrix(1.00, 0.00, -0.00, -1.00, 380.0, 225.0)"></image></g></svg>