<?xml version="1.0" encoding="UTF-8" standalone="no"?><svg xmlns="http://www.w3.org/2000/svg" xmlns:xlink="http://www.w3.org/1999/xlink" clip-rule="evenodd" stroke-miterlimit="10" viewBox="0 0 720 540"><desc>SVG generated by Keynote</desc><defs></defs><g transform="matrix(1.00, 0.00, -0.00, -1.00, 0.0, 540.0)"><path d="M 0.0 540.0 L 720.0 540.0 L 720.0 0.0 L 0.0 0.0 Z M 0.0 540.0 " fill="#FEFFFF"></path><text xml:space="preserve" font-family="ArialMT,Arial" font-size="44.0" fill="#000000" transform="matrix(1.00, 0.00, -0.00, -1.00, 198.6, 431.8)">U</text><text xml:space="preserve" font-family="ArialMT,Arial" font-size="44.0" fill="#000000" transform="matrix(1.00, 0.00, -0.00, -1.00, 230.4, 431.8)">r</text><text xml:space="preserve" font-family="ArialMT,Arial" font-size="44.0" fill="#000000" transform="matrix(1.00, 0.00, -0.00, -1.00, 245.0, 431.8)">i</text><text xml:space="preserve" font-family="ArialMT,Arial" font-size="44.0" fill="#000000" transform="matrix(1.00, 0.00, -0.00, -1.00, 254.8, 431.8)">n</text><text xml:space="preserve" font-family="ArialMT,Arial" font-size="44.0" fill="#000000" transform="matrix(1.00, 0.00, -0.00, -1.00, 279.3, 431.8)">e</text><text xml:space="preserve" font-family="ArialMT,Arial" font-size="44.0" fill="#000000" transform="matrix(1.00, 0.00, -0.00, -1.00, 303.8, 431.8)"> </text><text xml:space="preserve" font-family="ArialMT,Arial" font-size="44.0" fill="#000000" transform="matrix(1.00, 0.00, -0.00, -1.00, 316.0, 431.8)">a</text><text xml:space="preserve" font-family="ArialMT,Arial" font-size="44.0" fill="#000000" transform="matrix(1.00, 0.00, -0.00, -1.00, 340.5, 431.8)">n</text><text xml:space="preserve" font-family="ArialMT,Arial" font-size="44.0" fill="#000000" transform="matrix(1.00, 0.00, -0.00, -1.00, 364.9, 431.8)">d</text><text xml:space="preserve" font-family="ArialMT,Arial" font-size="44.0" fill="#000000" transform="matrix(1.00, 0.00, -0.00, -1.00, 389.4, 431.8)"> </text><text xml:space="preserve" font-family="ArialMT,Arial" font-size="44.0" fill="#000000" transform="matrix(1.00, 0.00, -0.00, -1.00, 401.6, 431.8)">F</text><text xml:space="preserve" font-family="ArialMT,Arial" font-size="44.0" fill="#000000" transform="matrix(1.00, 0.00, -0.00, -1.00, 428.5, 431.8)">e</text><text xml:space="preserve" font-family="ArialMT,Arial" font-size="44.0" fill="#000000" transform="matrix(1.00, 0.00, -0.00, -1.00, 453.0, 431.8)">c</text><text xml:space="preserve" font-family="ArialMT,Arial" font-size="44.0" fill="#000000" transform="matrix(1.00, 0.00, -0.00, -1.00, 475.0, 431.8)">e</text><text xml:space="preserve" font-family="ArialMT,Arial" font-size="44.0" fill="#000000" transform="matrix(1.00, 0.00, -0.00, -1.00, 499.5, 431.8)">s</text><text xml:space="preserve" font-family="ArialMT,Arial" font-size="32.0" fill="#000000" transform="matrix(1.00, 0.00, -0.00, -1.00, 61.2, 350.8)">•</text><text xml:space="preserve" font-family="ArialMT,Arial" font-size="32.0" fill="#000000" transform="matrix(1.00, 0.00, -0.00, -1.00, 88.2, 350.8)">W</text><text xml:space="preserve" font-family="ArialMT,Arial" font-size="32.0" fill="#000000" transform="matrix(1.00, 0.00, -0.00, -1.00, 117.2, 350.8)">a</text><text xml:space="preserve" font-family="ArialMT,Arial" font-size="32.0" fill="#000000" transform="matrix(1.00, 0.00, -0.00, -1.00, 135.0, 350.8)">t</text><text xml:space="preserve" font-family="ArialMT,Arial" font-size="32.0" fill="#000000" transform="matrix(1.00, 0.00, -0.00, -1.00, 143.9, 350.8)">e</text><text xml:space="preserve" font-family="ArialMT,Arial" font-size="32.0" fill="#000000" transform="matrix(1.00, 0.00, -0.00, -1.00, 161.7, 350.8)">r</text><text xml:space="preserve" font-family="ArialMT,Arial" font-size="32.0" fill="#000000" transform="matrix(1.00, 0.00, -0.00, -1.00, 172.4, 350.8)"> </text><text xml:space="preserve" font-family="ArialMT,Arial" font-size="32.0" fill="#000000" transform="matrix(1.00, 0.00, -0.00, -1.00, 181.2, 350.8)">i</text><text xml:space="preserve" font-family="ArialMT,Arial" font-size="32.0" fill="#000000" transform="matrix(1.00, 0.00, -0.00, -1.00, 188.4, 350.8)">s</text><text xml:space="preserve" font-family="ArialMT,Arial" font-size="32.0" fill="#000000" transform="matrix(1.00, 0.00, -0.00, -1.00, 204.4, 350.8)"> </text><text xml:space="preserve" font-family="ArialMT,Arial" font-size="32.0" fill="#000000" transform="matrix(1.00, 0.00, -0.00, -1.00, 213.2, 350.8)">l</text><text xml:space="preserve" font-family="ArialMT,Arial" font-size="32.0" fill="#000000" transform="matrix(1.00, 0.00, -0.00, -1.00, 220.4, 350.8)">o</text><text xml:space="preserve" font-family="ArialMT,Arial" font-size="32.0" fill="#000000" transform="matrix(1.00, 0.00, -0.00, -1.00, 238.2, 350.8)">s</text><text xml:space="preserve" font-family="ArialMT,Arial" font-size="32.0" fill="#000000" transform="matrix(1.00, 0.00, -0.00, -1.00, 254.2, 350.8)">t</text><text xml:space="preserve" font-family="ArialMT,Arial" font-size="32.0" fill="#000000" transform="matrix(1.00, 0.00, -0.00, -1.00, 263.0, 350.8)"> </text><text xml:space="preserve" font-family="ArialMT,Arial" font-size="32.0" fill="#000000" transform="matrix(1.00, 0.00, -0.00, -1.00, 271.9, 350.8)">i</text><text xml:space="preserve" font-family="ArialMT,Arial" font-size="32.0" fill="#000000" transform="matrix(1.00, 0.00, -0.00, -1.00, 279.0, 350.8)">n</text><text xml:space="preserve" font-family="ArialMT,Arial" font-size="32.0" fill="#000000" transform="matrix(1.00, 0.00, -0.00, -1.00, 296.8, 350.8)"> </text><text xml:space="preserve" font-family="ArialMT,Arial" font-size="32.0" fill="#000000" transform="matrix(1.00, 0.00, -0.00, -1.00, 305.7, 350.8)">u</text><text xml:space="preserve" font-family="ArialMT,Arial" font-size="32.0" fill="#000000" transform="matrix(1.00, 0.00, -0.00, -1.00, 323.5, 350.8)">r</text><text xml:space="preserve" font-family="ArialMT,Arial" font-size="32.0" fill="#000000" transform="matrix(1.00, 0.00, -0.00, -1.00, 334.2, 350.8)">i</text><text xml:space="preserve" font-family="ArialMT,Arial" font-size="32.0" fill="#000000" transform="matrix(1.00, 0.00, -0.00, -1.00, 341.3, 350.8)">n</text><text xml:space="preserve" font-family="ArialMT,Arial" font-size="32.0" fill="#000000" transform="matrix(1.00, 0.00, -0.00, -1.00, 359.1, 350.8)">e</text><text xml:space="preserve" font-family="ArialMT,Arial" font-size="32.0" fill="#000000" transform="matrix(1.00, 0.00, -0.00, -1.00, 376.9, 350.8)"> </text><text xml:space="preserve" font-family="ArialMT,Arial" font-size="32.0" fill="#000000" transform="matrix(1.00, 0.00, -0.00, -1.00, 385.8, 350.8)">a</text><text xml:space="preserve" font-family="ArialMT,Arial" font-size="32.0" fill="#000000" transform="matrix(1.00, 0.00, -0.00, -1.00, 403.6, 350.8)">n</text><text xml:space="preserve" font-family="ArialMT,Arial" font-size="32.0" fill="#000000" transform="matrix(1.00, 0.00, -0.00, -1.00, 421.4, 350.8)">d</text><text xml:space="preserve" font-family="ArialMT,Arial" font-size="32.0" fill="#000000" transform="matrix(1.00, 0.00, -0.00, -1.00, 439.2, 350.8)"> </text><text xml:space="preserve" font-family="ArialMT,Arial" font-size="32.0" fill="#000000" transform="matrix(1.00, 0.00, -0.00, -1.00, 448.1, 350.8)">f</text><text xml:space="preserve" font-family="ArialMT,Arial" font-size="32.0" fill="#000000" transform="matrix(1.00, 0.00, -0.00, -1.00, 457.0, 350.8)">e</text><text xml:space="preserve" font-family="ArialMT,Arial" font-size="32.0" fill="#000000" transform="matrix(1.00, 0.00, -0.00, -1.00, 474.8, 350.8)">c</text><text xml:space="preserve" font-family="ArialMT,Arial" font-size="32.0" fill="#000000" transform="matrix(1.00, 0.00, -0.00, -1.00, 490.8, 350.8)">e</text><text xml:space="preserve" font-family="ArialMT,Arial" font-size="32.0" fill="#000000" transform="matrix(1.00, 0.00, -0.00, -1.00, 508.6, 350.8)">s</text><text xml:space="preserve" font-family="ArialMT,Arial" font-size="32.0" fill="#000000" transform="matrix(1.00, 0.00, -0.00, -1.00, 524.6, 350.8)"> </text><text xml:space="preserve" font-family="ArialMT,Arial" font-size="32.0" fill="#000000" transform="matrix(1.00, 0.00, -0.00, -1.00, 61.2, 306.4)">•</text><text xml:space="preserve" font-family="ArialMT,Arial" font-size="32.0" fill="#000000" transform="matrix(1.00, 0.00, -0.00, -1.00, 88.2, 306.4)">K</text><text xml:space="preserve" font-family="ArialMT,Arial" font-size="32.0" fill="#000000" transform="matrix(1.00, 0.00, -0.00, -1.00, 109.5, 306.4)">e</text><text xml:space="preserve" font-family="ArialMT,Arial" font-size="32.0" fill="#000000" transform="matrix(1.00, 0.00, -0.00, -1.00, 127.3, 306.4)">y</text><text xml:space="preserve" font-family="ArialMT,Arial" font-size="32.0" fill="#000000" transform="matrix(1.00, 0.00, -0.00, -1.00, 143.3, 306.4)"> </text><text xml:space="preserve" font-family="ArialMT,Arial" font-size="32.0" fill="#000000" transform="matrix(1.00, 0.00, -0.00, -1.00, 152.2, 306.4)">p</text><text xml:space="preserve" font-family="ArialMT,Arial" font-size="32.0" fill="#000000" transform="matrix(1.00, 0.00, -0.00, -1.00, 170.0, 306.4)">r</text><text xml:space="preserve" font-family="ArialMT,Arial" font-size="32.0" fill="#000000" transform="matrix(1.00, 0.00, -0.00, -1.00, 180.7, 306.4)">o</text><text xml:space="preserve" font-family="ArialMT,Arial" font-size="32.0" fill="#000000" transform="matrix(1.00, 0.00, -0.00, -1.00, 198.5, 306.4)">b</text><text xml:space="preserve" font-family="ArialMT,Arial" font-size="32.0" fill="#000000" transform="matrix(1.00, 0.00, -0.00, -1.00, 216.3, 306.4)">l</text><text xml:space="preserve" font-family="ArialMT,Arial" font-size="32.0" fill="#000000" transform="matrix(1.00, 0.00, -0.00, -1.00, 223.4, 306.4)">e</text><text xml:space="preserve" font-family="ArialMT,Arial" font-size="32.0" fill="#000000" transform="matrix(1.00, 0.00, -0.00, -1.00, 241.2, 306.4)">m</text><text xml:space="preserve" font-family="ArialMT,Arial" font-size="32.0" fill="#000000" transform="matrix(1.00, 0.00, -0.00, -1.00, 267.9, 306.4)">:</text><text xml:space="preserve" font-family="ArialMT,Arial" font-size="32.0" fill="#000000" transform="matrix(1.00, 0.00, -0.00, -1.00, 276.8, 306.4)"> </text><text xml:space="preserve" font-family="ArialMT,Arial" font-size="32.0" fill="#000000" transform="matrix(1.00, 0.00, -0.00, -1.00, 285.6, 306.4)">g</text><text xml:space="preserve" font-family="ArialMT,Arial" font-size="32.0" fill="#000000" transform="matrix(1.00, 0.00, -0.00, -1.00, 303.4, 306.4)">e</text><text xml:space="preserve" font-family="ArialMT,Arial" font-size="32.0" fill="#000000" transform="matrix(1.00, 0.00, -0.00, -1.00, 321.2, 306.4)">t</text><text xml:space="preserve" font-family="ArialMT,Arial" font-size="32.0" fill="#000000" transform="matrix(1.00, 0.00, -0.00, -1.00, 330.1, 306.4)">t</text><text xml:space="preserve" font-family="ArialMT,Arial" font-size="32.0" fill="#000000" transform="matrix(1.00, 0.00, -0.00, -1.00, 339.0, 306.4)">i</text><text xml:space="preserve" font-family="ArialMT,Arial" font-size="32.0" fill="#000000" transform="matrix(1.00, 0.00, -0.00, -1.00, 346.1, 306.4)">n</text><text xml:space="preserve" font-family="ArialMT,Arial" font-size="32.0" fill="#000000" transform="matrix(1.00, 0.00, -0.00, -1.00, 363.9, 306.4)">g</text><text xml:space="preserve" font-family="ArialMT,Arial" font-size="32.0" fill="#000000" transform="matrix(1.00, 0.00, -0.00, -1.00, 381.7, 306.4)"> </text><text xml:space="preserve" font-family="ArialMT,Arial" font-size="32.0" fill="#000000" transform="matrix(1.00, 0.00, -0.00, -1.00, 390.6, 306.4)">r</text><text xml:space="preserve" font-family="ArialMT,Arial" font-size="32.0" fill="#000000" transform="matrix(1.00, 0.00, -0.00, -1.00, 401.3, 306.4)">i</text><text xml:space="preserve" font-family="ArialMT,Arial" font-size="32.0" fill="#000000" transform="matrix(1.00, 0.00, -0.00, -1.00, 408.4, 306.4)">d</text><text xml:space="preserve" font-family="ArialMT,Arial" font-size="32.0" fill="#000000" transform="matrix(1.00, 0.00, -0.00, -1.00, 426.2, 306.4)"> </text><text xml:space="preserve" font-family="ArialMT,Arial" font-size="32.0" fill="#000000" transform="matrix(1.00, 0.00, -0.00, -1.00, 435.1, 306.4)">o</text><text xml:space="preserve" font-family="ArialMT,Arial" font-size="32.0" fill="#000000" transform="matrix(1.00, 0.00, -0.00, -1.00, 452.9, 306.4)">f</text><text xml:space="preserve" font-family="ArialMT,Arial" font-size="32.0" fill="#000000" transform="matrix(1.00, 0.00, -0.00, -1.00, 461.8, 306.4)"> </text><text xml:space="preserve" font-family="ArialMT,Arial" font-size="32.0" fill="#000000" transform="matrix(1.00, 0.00, -0.00, -1.00, 470.7, 306.4)">n</text><text xml:space="preserve" font-family="ArialMT,Arial" font-size="32.0" fill="#000000" transform="matrix(1.00, 0.00, -0.00, -1.00, 488.5, 306.4)">i</text><text xml:space="preserve" font-family="ArialMT,Arial" font-size="32.0" fill="#000000" transform="matrix(1.00, 0.00, -0.00, -1.00, 495.6, 306.4)">t</text><text xml:space="preserve" font-family="ArialMT,Arial" font-size="32.0" fill="#000000" transform="matrix(1.00, 0.00, -0.00, -1.00, 504.5, 306.4)">r</text><text xml:space="preserve" font-family="ArialMT,Arial" font-size="32.0" fill="#000000" transform="matrix(1.00, 0.00, -0.00, -1.00, 515.1, 306.4)">o</text><text xml:space="preserve" font-family="ArialMT,Arial" font-size="32.0" fill="#000000" transform="matrix(1.00, 0.00, -0.00, -1.00, 532.9, 306.4)">g</text><text xml:space="preserve" font-family="ArialMT,Arial" font-size="32.0" fill="#000000" transform="matrix(1.00, 0.00, -0.00, -1.00, 550.7, 306.4)">e</text><text xml:space="preserve" font-family="ArialMT,Arial" font-size="32.0" fill="#000000" transform="matrix(1.00, 0.00, -0.00, -1.00, 568.5, 306.4)">n</text><text xml:space="preserve" font-family="ArialMT,Arial" font-size="32.0" fill="#000000" transform="matrix(1.00, 0.00, -0.00, -1.00, 586.3, 306.4)">o</text><text xml:space="preserve" font-family="ArialMT,Arial" font-size="32.0" fill="#000000" transform="matrix(1.00, 0.00, -0.00, -1.00, 604.1, 306.4)">u</text><text xml:space="preserve" font-family="ArialMT,Arial" font-size="32.0" fill="#000000" transform="matrix(1.00, 0.00, -0.00, -1.00, 621.9, 306.4)">s</text><text xml:space="preserve" font-family="ArialMT,Arial" font-size="32.0" fill="#000000" transform="matrix(1.00, 0.00, -0.00, -1.00, 637.9, 306.4)"> </text><text xml:space="preserve" font-family="ArialMT,Arial" font-size="32.0" fill="#000000" transform="matrix(1.00, 0.00, -0.00, -1.00, 88.2, 269.4)">w</text><text xml:space="preserve" font-family="ArialMT,Arial" font-size="32.0" fill="#000000" transform="matrix(1.00, 0.00, -0.00, -1.00, 111.3, 269.4)">a</text><text xml:space="preserve" font-family="ArialMT,Arial" font-size="32.0" fill="#000000" transform="matrix(1.00, 0.00, -0.00, -1.00, 129.1, 269.4)">s</text><text xml:space="preserve" font-family="ArialMT,Arial" font-size="32.0" fill="#000000" transform="matrix(1.00, 0.00, -0.00, -1.00, 145.1, 269.4)">t</text><text xml:space="preserve" font-family="ArialMT,Arial" font-size="32.0" fill="#000000" transform="matrix(1.00, 0.00, -0.00, -1.00, 154.0, 269.4)">e</text><text xml:space="preserve" font-family="ArialMT,Arial" font-size="32.0" fill="#000000" transform="matrix(1.00, 0.00, -0.00, -1.00, 171.8, 269.4)">s</text><g><clipPath id="clip0x7fce0310efc0"><path d="M 216.0 29.0 L 588.0 29.0 L 588.0 276.0 L 216.0 276.0 Z M 216.0 29.0 "></path></clipPath><g clip-path="url(#clip0x7fce0310efc0)"><path d="M 216.0 276.0 L 588.0 276.0 L 588.0 29.0 L 216.0 29.0 Z M 216.0 276.0 " fill="#FFFFFF"></path><image xlink:href="../../4D06BF7F-7F51-43BD-9763-24494D9F8989/assets/C6EF0A45BD76E350C4B1AB9E38437C75.png" width="833.00" height="554.00" transform="matrix(0.45, 0.00, -0.00, -0.45, 216.0, 276.0)"></image></g></g></g></svg>