<?xml version="1.0" encoding="UTF-8" standalone="no"?><svg xmlns="http://www.w3.org/2000/svg" xmlns:xlink="http://www.w3.org/1999/xlink" clip-rule="evenodd" stroke-miterlimit="4.00" viewBox="0 0 720 540"><desc>SVG generated by Keynote</desc><defs></defs><g transform="matrix(1.00, 0.00, -0.00, -1.00, 0.0, 540.0)"><path d="M 0.0 540.0 L 720.0 540.0 L 720.0 0.0 L 0.0 0.0 Z M 0.0 540.0 " fill="#FEFFFF"></path><text xml:space="preserve" font-family="ArialMT" font-size="44.0" fill="#000000" transform="matrix(1.00, 0.00, -0.00, -1.00, 288.0, 432.0)">T</text><text xml:space="preserve" font-family="ArialMT" font-size="44.0" fill="#000000" transform="matrix(1.00, 0.00, -0.00, -1.00, 310.0, 432.0)">o</text><text xml:space="preserve" font-family="ArialMT" font-size="44.0" fill="#000000" transform="matrix(1.00, 0.00, -0.00, -1.00, 334.5, 432.0)">x</text><text xml:space="preserve" font-family="ArialMT" font-size="44.0" fill="#000000" transform="matrix(1.00, 0.00, -0.00, -1.00, 356.5, 432.0)">i</text><text xml:space="preserve" font-family="ArialMT" font-size="44.0" fill="#000000" transform="matrix(1.00, 0.00, -0.00, -1.00, 366.3, 432.0)">c</text><text xml:space="preserve" font-family="ArialMT" font-size="44.0" fill="#000000" transform="matrix(1.00, 0.00, -0.00, -1.00, 388.3, 432.0)">i</text><text xml:space="preserve" font-family="ArialMT" font-size="44.0" fill="#000000" transform="matrix(1.00, 0.00, -0.00, -1.00, 398.0, 432.0)">t</text><text xml:space="preserve" font-family="ArialMT" font-size="44.0" fill="#000000" transform="matrix(1.00, 0.00, -0.00, -1.00, 410.3, 432.0)">y</text><text xml:space="preserve" font-family="ArialMT" font-size="32.0" fill="#000000" transform="matrix(1.00, 0.00, -0.00, -1.00, 61.2, 350.8)">•</text><text xml:space="preserve" font-family="ArialMT" font-size="32.0" fill="#000000" transform="matrix(1.00, 0.00, -0.00, -1.00, 88.0, 351.0)">M</text><text xml:space="preserve" font-family="ArialMT" font-size="32.0" fill="#000000" transform="matrix(1.00, 0.00, -0.00, -1.00, 114.7, 351.0)">a</text><text xml:space="preserve" font-family="ArialMT" font-size="32.0" fill="#000000" transform="matrix(1.00, 0.00, -0.00, -1.00, 132.5, 351.0)">n</text><text xml:space="preserve" font-family="ArialMT" font-size="32.0" fill="#000000" transform="matrix(1.00, 0.00, -0.00, -1.00, 150.3, 351.0)">y</text><text xml:space="preserve" font-family="ArialMT" font-size="32.0" fill="#000000" transform="matrix(1.00, 0.00, -0.00, -1.00, 166.3, 351.0)"> </text><text xml:space="preserve" font-family="ArialMT" font-size="32.0" fill="#000000" transform="matrix(1.00, 0.00, -0.00, -1.00, 175.1, 351.0)">a</text><text xml:space="preserve" font-family="ArialMT" font-size="32.0" fill="#000000" transform="matrix(1.00, 0.00, -0.00, -1.00, 193.0, 351.0)">m</text><text xml:space="preserve" font-family="ArialMT" font-size="32.0" fill="#000000" transform="matrix(1.00, 0.00, -0.00, -1.00, 219.6, 351.0)">p</text><text xml:space="preserve" font-family="ArialMT" font-size="32.0" fill="#000000" transform="matrix(1.00, 0.00, -0.00, -1.00, 237.4, 351.0)">h</text><text xml:space="preserve" font-family="ArialMT" font-size="32.0" fill="#000000" transform="matrix(1.00, 0.00, -0.00, -1.00, 255.2, 351.0)">i</text><text xml:space="preserve" font-family="ArialMT" font-size="32.0" fill="#000000" transform="matrix(1.00, 0.00, -0.00, -1.00, 262.3, 351.0)">b</text><text xml:space="preserve" font-family="ArialMT" font-size="32.0" fill="#000000" transform="matrix(1.00, 0.00, -0.00, -1.00, 280.1, 351.0)">i</text><text xml:space="preserve" font-family="ArialMT" font-size="32.0" fill="#000000" transform="matrix(1.00, 0.00, -0.00, -1.00, 287.2, 351.0)">a</text><text xml:space="preserve" font-family="ArialMT" font-size="32.0" fill="#000000" transform="matrix(1.00, 0.00, -0.00, -1.00, 305.1, 351.0)">n</text><text xml:space="preserve" font-family="ArialMT" font-size="32.0" fill="#000000" transform="matrix(1.00, 0.00, -0.00, -1.00, 322.9, 351.0)">s</text><text xml:space="preserve" font-family="ArialMT" font-size="32.0" fill="#000000" transform="matrix(1.00, 0.00, -0.00, -1.00, 338.9, 351.0)"> </text><text xml:space="preserve" font-family="ArialMT" font-size="32.0" fill="#000000" transform="matrix(1.00, 0.00, -0.00, -1.00, 347.7, 351.0)">u</text><text xml:space="preserve" font-family="ArialMT" font-size="32.0" fill="#000000" transform="matrix(1.00, 0.00, -0.00, -1.00, 365.5, 351.0)">s</text><text xml:space="preserve" font-family="ArialMT" font-size="32.0" fill="#000000" transform="matrix(1.00, 0.00, -0.00, -1.00, 381.5, 351.0)">e</text><text xml:space="preserve" font-family="ArialMT" font-size="32.0" fill="#000000" transform="matrix(1.00, 0.00, -0.00, -1.00, 399.3, 351.0)"> </text><text xml:space="preserve" font-family="ArialMT" font-size="32.0" fill="#000000" transform="matrix(1.00, 0.00, -0.00, -1.00, 408.2, 351.0)">t</text><text xml:space="preserve" font-family="ArialMT" font-size="32.0" fill="#000000" transform="matrix(1.00, 0.00, -0.00, -1.00, 417.1, 351.0)">o</text><text xml:space="preserve" font-family="ArialMT" font-size="32.0" fill="#000000" transform="matrix(1.00, 0.00, -0.00, -1.00, 434.9, 351.0)">x</text><text xml:space="preserve" font-family="ArialMT" font-size="32.0" fill="#000000" transform="matrix(1.00, 0.00, -0.00, -1.00, 450.9, 351.0)">i</text><text xml:space="preserve" font-family="ArialMT" font-size="32.0" fill="#000000" transform="matrix(1.00, 0.00, -0.00, -1.00, 458.0, 351.0)">c</text><text xml:space="preserve" font-family="ArialMT" font-size="32.0" fill="#000000" transform="matrix(1.00, 0.00, -0.00, -1.00, 474.0, 351.0)">i</text><text xml:space="preserve" font-family="ArialMT" font-size="32.0" fill="#000000" transform="matrix(1.00, 0.00, -0.00, -1.00, 481.1, 351.0)">t</text><text xml:space="preserve" font-family="ArialMT" font-size="32.0" fill="#000000" transform="matrix(1.00, 0.00, -0.00, -1.00, 490.0, 351.0)">y</text><text xml:space="preserve" font-family="ArialMT" font-size="32.0" fill="#000000" transform="matrix(1.00, 0.00, -0.00, -1.00, 506.0, 351.0)"> </text><text xml:space="preserve" font-family="ArialMT" font-size="32.0" fill="#000000" transform="matrix(1.00, 0.00, -0.00, -1.00, 514.9, 351.0)">a</text><text xml:space="preserve" font-family="ArialMT" font-size="32.0" fill="#000000" transform="matrix(1.00, 0.00, -0.00, -1.00, 532.7, 351.0)">s</text><text xml:space="preserve" font-family="ArialMT" font-size="32.0" fill="#000000" transform="matrix(1.00, 0.00, -0.00, -1.00, 548.7, 351.0)"> </text><text xml:space="preserve" font-family="ArialMT" font-size="32.0" fill="#000000" transform="matrix(1.00, 0.00, -0.00, -1.00, 557.6, 351.0)">a</text><text xml:space="preserve" font-family="ArialMT" font-size="32.0" fill="#000000" transform="matrix(1.00, 0.00, -0.00, -1.00, 575.4, 351.0)"> </text><text xml:space="preserve" font-family="ArialMT" font-size="32.0" fill="#000000" transform="matrix(1.00, 0.00, -0.00, -1.00, 88.0, 314.0)">d</text><text xml:space="preserve" font-family="ArialMT" font-size="32.0" fill="#000000" transform="matrix(1.00, 0.00, -0.00, -1.00, 105.8, 314.0)">e</text><text xml:space="preserve" font-family="ArialMT" font-size="32.0" fill="#000000" transform="matrix(1.00, 0.00, -0.00, -1.00, 123.6, 314.0)">f</text><text xml:space="preserve" font-family="ArialMT" font-size="32.0" fill="#000000" transform="matrix(1.00, 0.00, -0.00, -1.00, 132.5, 314.0)">e</text><text xml:space="preserve" font-family="ArialMT" font-size="32.0" fill="#000000" transform="matrix(1.00, 0.00, -0.00, -1.00, 150.3, 314.0)">n</text><text xml:space="preserve" font-family="ArialMT" font-size="32.0" fill="#000000" transform="matrix(1.00, 0.00, -0.00, -1.00, 168.1, 314.0)">s</text><text xml:space="preserve" font-family="ArialMT" font-size="32.0" fill="#000000" transform="matrix(1.00, 0.00, -0.00, -1.00, 184.1, 314.0)">e</text><text xml:space="preserve" font-family="ArialMT" font-size="32.0" fill="#000000" transform="matrix(1.00, 0.00, -0.00, -1.00, 201.9, 314.0)"> </text><text xml:space="preserve" font-family="ArialMT" font-size="32.0" fill="#000000" transform="matrix(1.00, 0.00, -0.00, -1.00, 61.2, 269.4)">•</text><text xml:space="preserve" font-family="ArialMT" font-size="32.0" fill="#000000" transform="matrix(1.00, 0.00, -0.00, -1.00, 88.0, 269.0)">D</text><text xml:space="preserve" font-family="ArialMT" font-size="32.0" fill="#000000" transform="matrix(1.00, 0.00, -0.00, -1.00, 111.1, 269.0)">a</text><text xml:space="preserve" font-family="ArialMT" font-size="32.0" fill="#000000" transform="matrix(1.00, 0.00, -0.00, -1.00, 128.9, 269.0)">r</text><text xml:space="preserve" font-family="ArialMT" font-size="32.0" fill="#000000" transform="matrix(1.00, 0.00, -0.00, -1.00, 139.6, 269.0)">t</text><text xml:space="preserve" font-family="ArialMT" font-size="32.0" fill="#000000" transform="matrix(1.00, 0.00, -0.00, -1.00, 148.5, 269.0)"> </text><text xml:space="preserve" font-family="ArialMT" font-size="32.0" fill="#000000" transform="matrix(1.00, 0.00, -0.00, -1.00, 157.3, 269.0)">p</text><text xml:space="preserve" font-family="ArialMT" font-size="32.0" fill="#000000" transform="matrix(1.00, 0.00, -0.00, -1.00, 175.1, 269.0)">o</text><text xml:space="preserve" font-family="ArialMT" font-size="32.0" fill="#000000" transform="matrix(1.00, 0.00, -0.00, -1.00, 193.0, 269.0)">i</text><text xml:space="preserve" font-family="ArialMT" font-size="32.0" fill="#000000" transform="matrix(1.00, 0.00, -0.00, -1.00, 200.1, 269.0)">s</text><text xml:space="preserve" font-family="ArialMT" font-size="32.0" fill="#000000" transform="matrix(1.00, 0.00, -0.00, -1.00, 216.1, 269.0)">o</text><text xml:space="preserve" font-family="ArialMT" font-size="32.0" fill="#000000" transform="matrix(1.00, 0.00, -0.00, -1.00, 233.9, 269.0)">n</text><text xml:space="preserve" font-family="ArialMT" font-size="32.0" fill="#000000" transform="matrix(1.00, 0.00, -0.00, -1.00, 251.7, 269.0)"> </text><text xml:space="preserve" font-family="ArialMT" font-size="32.0" fill="#000000" transform="matrix(1.00, 0.00, -0.00, -1.00, 260.6, 269.0)">f</text><text xml:space="preserve" font-family="ArialMT" font-size="32.0" fill="#000000" transform="matrix(1.00, 0.00, -0.00, -1.00, 269.4, 269.0)">r</text><text xml:space="preserve" font-family="ArialMT" font-size="32.0" fill="#000000" transform="matrix(1.00, 0.00, -0.00, -1.00, 280.1, 269.0)">o</text><text xml:space="preserve" font-family="ArialMT" font-size="32.0" fill="#000000" transform="matrix(1.00, 0.00, -0.00, -1.00, 297.9, 269.0)">g</text><text xml:space="preserve" font-family="ArialMT" font-size="32.0" fill="#000000" transform="matrix(1.00, 0.00, -0.00, -1.00, 315.7, 269.0)">s</text><text xml:space="preserve" font-family="ArialMT" font-size="32.0" fill="#000000" transform="matrix(1.00, 0.00, -0.00, -1.00, 331.7, 269.0)"> </text><text xml:space="preserve" font-family="ArialMT" font-size="32.0" fill="#000000" transform="matrix(1.00, 0.00, -0.00, -1.00, 340.6, 269.0)">(</text><text xml:space="preserve" font-family="Arial-ItalicMT" font-style="italic" font-size="32.0" fill="#000000" transform="matrix(1.00, 0.00, -0.00, -1.00, 351.2, 269.0)">P</text><text xml:space="preserve" font-family="Arial-ItalicMT" font-style="italic" font-size="32.0" fill="#000000" transform="matrix(1.00, 0.00, -0.00, -1.00, 372.6, 269.0)">h</text><text xml:space="preserve" font-family="Arial-ItalicMT" font-style="italic" font-size="32.0" fill="#000000" transform="matrix(1.00, 0.00, -0.00, -1.00, 390.4, 269.0)">y</text><text xml:space="preserve" font-family="Arial-ItalicMT" font-style="italic" font-size="32.0" fill="#000000" transform="matrix(1.00, 0.00, -0.00, -1.00, 406.4, 269.0)">l</text><text xml:space="preserve" font-family="Arial-ItalicMT" font-style="italic" font-size="32.0" fill="#000000" transform="matrix(1.00, 0.00, -0.00, -1.00, 413.5, 269.0)">l</text><text xml:space="preserve" font-family="Arial-ItalicMT" font-style="italic" font-size="32.0" fill="#000000" transform="matrix(1.00, 0.00, -0.00, -1.00, 420.6, 269.0)">o</text><text xml:space="preserve" font-family="Arial-ItalicMT" font-style="italic" font-size="32.0" fill="#000000" transform="matrix(1.00, 0.00, -0.00, -1.00, 438.4, 269.0)">b</text><text xml:space="preserve" font-family="Arial-ItalicMT" font-style="italic" font-size="32.0" fill="#000000" transform="matrix(1.00, 0.00, -0.00, -1.00, 456.2, 269.0)">a</text><text xml:space="preserve" font-family="Arial-ItalicMT" font-style="italic" font-size="32.0" fill="#000000" transform="matrix(1.00, 0.00, -0.00, -1.00, 474.0, 269.0)">t</text><text xml:space="preserve" font-family="Arial-ItalicMT" font-style="italic" font-size="32.0" fill="#000000" transform="matrix(1.00, 0.00, -0.00, -1.00, 482.9, 269.0)">e</text><text xml:space="preserve" font-family="Arial-ItalicMT" font-style="italic" font-size="32.0" fill="#000000" transform="matrix(1.00, 0.00, -0.00, -1.00, 500.7, 269.0)">s</text><text xml:space="preserve" font-family="ArialMT" font-size="32.0" fill="#000000" transform="matrix(1.00, 0.00, -0.00, -1.00, 516.7, 269.0)">)</text><text xml:space="preserve" font-family="ArialMT" font-size="32.0" fill="#000000" transform="matrix(1.00, 0.00, -0.00, -1.00, 527.3, 269.0)">,</text><text xml:space="preserve" font-family="ArialMT" font-size="32.0" fill="#000000" transform="matrix(1.00, 0.00, -0.00, -1.00, 536.2, 269.0)"> </text><text xml:space="preserve" font-family="ArialMT" font-size="32.0" fill="#000000" transform="matrix(1.00, 0.00, -0.00, -1.00, 88.0, 232.0)">b</text><text xml:space="preserve" font-family="ArialMT" font-size="32.0" fill="#000000" transform="matrix(1.00, 0.00, -0.00, -1.00, 105.8, 232.0)">u</text><text xml:space="preserve" font-family="ArialMT" font-size="32.0" fill="#000000" transform="matrix(1.00, 0.00, -0.00, -1.00, 123.6, 232.0)">f</text><text xml:space="preserve" font-family="ArialMT" font-size="32.0" fill="#000000" transform="matrix(1.00, 0.00, -0.00, -1.00, 132.5, 232.0)">o</text><text xml:space="preserve" font-family="ArialMT" font-size="32.0" fill="#000000" transform="matrix(1.00, 0.00, -0.00, -1.00, 150.3, 232.0)">n</text><text xml:space="preserve" font-family="ArialMT" font-size="32.0" fill="#000000" transform="matrix(1.00, 0.00, -0.00, -1.00, 168.1, 232.0)">i</text><text xml:space="preserve" font-family="ArialMT" font-size="32.0" fill="#000000" transform="matrix(1.00, 0.00, -0.00, -1.00, 175.2, 232.0)">d</text><text xml:space="preserve" font-family="ArialMT" font-size="32.0" fill="#000000" transform="matrix(1.00, 0.00, -0.00, -1.00, 193.0, 232.0)">s</text><text xml:space="preserve" font-family="ArialMT" font-size="32.0" fill="#000000" transform="matrix(1.00, 0.00, -0.00, -1.00, 209.0, 232.0)"> </text><text xml:space="preserve" font-family="ArialMT" font-size="32.0" fill="#000000" transform="matrix(1.00, 0.00, -0.00, -1.00, 217.9, 232.0)">(</text><text xml:space="preserve" font-family="ArialMT" font-size="32.0" fill="#000000" transform="matrix(1.00, 0.00, -0.00, -1.00, 228.6, 232.0)">A</text><text xml:space="preserve" font-family="Arial-ItalicMT" font-style="italic" font-size="32.0" fill="#000000" transform="matrix(1.00, 0.00, -0.00, -1.00, 249.9, 232.0)">t</text><text xml:space="preserve" font-family="Arial-ItalicMT" font-style="italic" font-size="32.0" fill="#000000" transform="matrix(1.00, 0.00, -0.00, -1.00, 258.8, 232.0)">e</text><text xml:space="preserve" font-family="Arial-ItalicMT" font-style="italic" font-size="32.0" fill="#000000" transform="matrix(1.00, 0.00, -0.00, -1.00, 276.5, 232.0)">l</text><text xml:space="preserve" font-family="Arial-ItalicMT" font-style="italic" font-size="32.0" fill="#000000" transform="matrix(1.00, 0.00, -0.00, -1.00, 283.7, 232.0)">o</text><text xml:space="preserve" font-family="Arial-ItalicMT" font-style="italic" font-size="32.0" fill="#000000" transform="matrix(1.00, 0.00, -0.00, -1.00, 301.4, 232.0)">p</text><text xml:space="preserve" font-family="Arial-ItalicMT" font-style="italic" font-size="32.0" fill="#000000" transform="matrix(1.00, 0.00, -0.00, -1.00, 319.2, 232.0)">u</text><text xml:space="preserve" font-family="Arial-ItalicMT" font-style="italic" font-size="32.0" fill="#000000" transform="matrix(1.00, 0.00, -0.00, -1.00, 337.0, 232.0)">s</text><text xml:space="preserve" font-family="ArialMT" font-size="32.0" fill="#000000" transform="matrix(1.00, 0.00, -0.00, -1.00, 353.1, 232.0)">)</text><text xml:space="preserve" font-family="ArialMT" font-size="32.0" fill="#000000" transform="matrix(1.00, 0.00, -0.00, -1.00, 363.7, 232.0)">,</text><text xml:space="preserve" font-family="ArialMT" font-size="32.0" fill="#000000" transform="matrix(1.00, 0.00, -0.00, -1.00, 372.6, 232.0)"> </text><text xml:space="preserve" font-family="ArialMT" font-size="32.0" fill="#000000" transform="matrix(1.00, 0.00, -0.00, -1.00, 381.5, 232.0)">n</text><text xml:space="preserve" font-family="ArialMT" font-size="32.0" fill="#000000" transform="matrix(1.00, 0.00, -0.00, -1.00, 399.3, 232.0)">e</text><text xml:space="preserve" font-family="ArialMT" font-size="32.0" fill="#000000" transform="matrix(1.00, 0.00, -0.00, -1.00, 417.1, 232.0)">w</text><text xml:space="preserve" font-family="ArialMT" font-size="32.0" fill="#000000" transform="matrix(1.00, 0.00, -0.00, -1.00, 440.2, 232.0)">t</text><text xml:space="preserve" font-family="ArialMT" font-size="32.0" fill="#000000" transform="matrix(1.00, 0.00, -0.00, -1.00, 449.1, 232.0)">s</text><text xml:space="preserve" font-family="ArialMT" font-size="32.0" fill="#000000" transform="matrix(1.00, 0.00, -0.00, -1.00, 465.1, 232.0)"> </text><text xml:space="preserve" font-family="ArialMT" font-size="32.0" fill="#000000" transform="matrix(1.00, 0.00, -0.00, -1.00, 88.0, 195.0)">(</text><text xml:space="preserve" font-family="Arial-ItalicMT" font-style="italic" font-size="32.0" fill="#000000" transform="matrix(1.00, 0.00, -0.00, -1.00, 98.7, 195.0)">S</text><text xml:space="preserve" font-family="Arial-ItalicMT" font-style="italic" font-size="32.0" fill="#000000" transform="matrix(1.00, 0.00, -0.00, -1.00, 120.0, 195.0)">a</text><text xml:space="preserve" font-family="Arial-ItalicMT" font-style="italic" font-size="32.0" fill="#000000" transform="matrix(1.00, 0.00, -0.00, -1.00, 137.8, 195.0)">l</text><text xml:space="preserve" font-family="Arial-ItalicMT" font-style="italic" font-size="32.0" fill="#000000" transform="matrix(1.00, 0.00, -0.00, -1.00, 144.9, 195.0)">a</text><text xml:space="preserve" font-family="Arial-ItalicMT" font-style="italic" font-size="32.0" fill="#000000" transform="matrix(1.00, 0.00, -0.00, -1.00, 162.7, 195.0)">m</text><text xml:space="preserve" font-family="Arial-ItalicMT" font-style="italic" font-size="32.0" fill="#000000" transform="matrix(1.00, 0.00, -0.00, -1.00, 189.4, 195.0)">a</text><text xml:space="preserve" font-family="Arial-ItalicMT" font-style="italic" font-size="32.0" fill="#000000" transform="matrix(1.00, 0.00, -0.00, -1.00, 207.2, 195.0)">n</text><text xml:space="preserve" font-family="Arial-ItalicMT" font-style="italic" font-size="32.0" fill="#000000" transform="matrix(1.00, 0.00, -0.00, -1.00, 225.0, 195.0)">d</text><text xml:space="preserve" font-family="Arial-ItalicMT" font-style="italic" font-size="32.0" fill="#000000" transform="matrix(1.00, 0.00, -0.00, -1.00, 242.8, 195.0)">r</text><text xml:space="preserve" font-family="Arial-ItalicMT" font-style="italic" font-size="32.0" fill="#000000" transform="matrix(1.00, 0.00, -0.00, -1.00, 253.4, 195.0)">a</text><text xml:space="preserve" font-family="Arial-ItalicMT" font-style="italic" font-size="32.0" fill="#000000" transform="matrix(1.00, 0.00, -0.00, -1.00, 271.2, 195.0)">,</text><text xml:space="preserve" font-family="Arial-ItalicMT" font-style="italic" font-size="32.0" fill="#000000" transform="matrix(1.00, 0.00, -0.00, -1.00, 280.1, 195.0)"> </text><text xml:space="preserve" font-family="Arial-ItalicMT" font-style="italic" font-size="32.0" fill="#000000" transform="matrix(1.00, 0.00, -0.00, -1.00, 289.0, 195.0)">N</text><text xml:space="preserve" font-family="Arial-ItalicMT" font-style="italic" font-size="32.0" fill="#000000" transform="matrix(1.00, 0.00, -0.00, -1.00, 312.1, 195.0)">o</text><text xml:space="preserve" font-family="Arial-ItalicMT" font-style="italic" font-size="32.0" fill="#000000" transform="matrix(1.00, 0.00, -0.00, -1.00, 329.9, 195.0)">t</text><text xml:space="preserve" font-family="Arial-ItalicMT" font-style="italic" font-size="32.0" fill="#000000" transform="matrix(1.00, 0.00, -0.00, -1.00, 338.8, 195.0)">o</text><text xml:space="preserve" font-family="Arial-ItalicMT" font-style="italic" font-size="32.0" fill="#000000" transform="matrix(1.00, 0.00, -0.00, -1.00, 356.6, 195.0)">p</text><text xml:space="preserve" font-family="Arial-ItalicMT" font-style="italic" font-size="32.0" fill="#000000" transform="matrix(1.00, 0.00, -0.00, -1.00, 374.4, 195.0)">h</text><text xml:space="preserve" font-family="Arial-ItalicMT" font-style="italic" font-size="32.0" fill="#000000" transform="matrix(1.00, 0.00, -0.00, -1.00, 392.2, 195.0)">t</text><text xml:space="preserve" font-family="Arial-ItalicMT" font-style="italic" font-size="32.0" fill="#000000" transform="matrix(1.00, 0.00, -0.00, -1.00, 401.1, 195.0)">h</text><text xml:space="preserve" font-family="Arial-ItalicMT" font-style="italic" font-size="32.0" fill="#000000" transform="matrix(1.00, 0.00, -0.00, -1.00, 418.9, 195.0)">a</text><text xml:space="preserve" font-family="Arial-ItalicMT" font-style="italic" font-size="32.0" fill="#000000" transform="matrix(1.00, 0.00, -0.00, -1.00, 436.7, 195.0)">l</text><text xml:space="preserve" font-family="Arial-ItalicMT" font-style="italic" font-size="32.0" fill="#000000" transform="matrix(1.00, 0.00, -0.00, -1.00, 443.8, 195.0)">m</text><text xml:space="preserve" font-family="Arial-ItalicMT" font-style="italic" font-size="32.0" fill="#000000" transform="matrix(1.00, 0.00, -0.00, -1.00, 470.5, 195.0)">u</text><text xml:space="preserve" font-family="Arial-ItalicMT" font-style="italic" font-size="32.0" fill="#000000" transform="matrix(1.00, 0.00, -0.00, -1.00, 488.3, 195.0)">s</text><text xml:space="preserve" font-family="Arial-ItalicMT" font-style="italic" font-size="32.0" fill="#000000" transform="matrix(1.00, 0.00, -0.00, -1.00, 504.3, 195.0)">,</text><text xml:space="preserve" font-family="Arial-ItalicMT" font-style="italic" font-size="32.0" fill="#000000" transform="matrix(1.00, 0.00, -0.00, -1.00, 513.2, 195.0)"> </text><text xml:space="preserve" font-family="Arial-ItalicMT" font-style="italic" font-size="32.0" fill="#000000" transform="matrix(1.00, 0.00, -0.00, -1.00, 522.1, 195.0)">T</text><text xml:space="preserve" font-family="Arial-ItalicMT" font-style="italic" font-size="32.0" fill="#000000" transform="matrix(1.00, 0.00, -0.00, -1.00, 538.7, 195.0)">a</text><text xml:space="preserve" font-family="Arial-ItalicMT" font-style="italic" font-size="32.0" fill="#000000" transform="matrix(1.00, 0.00, -0.00, -1.00, 556.5, 195.0)">r</text><text xml:space="preserve" font-family="Arial-ItalicMT" font-style="italic" font-size="32.0" fill="#000000" transform="matrix(1.00, 0.00, -0.00, -1.00, 567.1, 195.0)">i</text><text xml:space="preserve" font-family="Arial-ItalicMT" font-style="italic" font-size="32.0" fill="#000000" transform="matrix(1.00, 0.00, -0.00, -1.00, 574.2, 195.0)">c</text><text xml:space="preserve" font-family="Arial-ItalicMT" font-style="italic" font-size="32.0" fill="#000000" transform="matrix(1.00, 0.00, -0.00, -1.00, 590.2, 195.0)">h</text><text xml:space="preserve" font-family="Arial-ItalicMT" font-style="italic" font-size="32.0" fill="#000000" transform="matrix(1.00, 0.00, -0.00, -1.00, 608.0, 195.0)">a</text><text xml:space="preserve" font-family="ArialMT" font-size="32.0" fill="#000000" transform="matrix(1.00, 0.00, -0.00, -1.00, 625.8, 195.0)">)</text><g><clipPath id="clip-130"><path d="M 144.0 18.0 L 375.0 18.0 L 375.0 168.0 L 144.0 168.0 Z M 144.0 18.0 "></path></clipPath><g clip-path="url(#clip-130)"><path d="M 144.0 168.0 L 375.0 168.0 L 375.0 18.0 L 144.0 18.0 Z M 144.0 168.0 " fill="#FFFFFF"></path><image xlink:href="../../D31F4E45-164F-4446-B199-7D0D4C64D2CC/assets/4914A372AC71AE31D6F09EFAB2901EDB.png" width="525.00" height="340.00" transform="matrix(0.44, 0.00, -0.00, -0.44, 144.0, 168.0)"></image></g></g><text xml:space="preserve" font-family="Verdana" font-size="20.0" fill="#000000" transform="matrix(1.00, 0.00, -0.00, -1.00, 397.0, 96.0)">T</text><text xml:space="preserve" font-family="Verdana" font-size="20.0" fill="#000000" transform="matrix(1.00, 0.00, -0.00, -1.00, 407.2, 96.0)">o</text><text xml:space="preserve" font-family="Verdana" font-size="20.0" fill="#000000" transform="matrix(1.00, 0.00, -0.00, -1.00, 419.3, 96.0)">a</text><text xml:space="preserve" font-family="Verdana" font-size="20.0" fill="#000000" transform="matrix(1.00, 0.00, -0.00, -1.00, 431.3, 96.0)">d</text><text xml:space="preserve" font-family="Verdana" font-size="20.0" fill="#000000" transform="matrix(1.00, 0.00, -0.00, -1.00, 443.8, 96.0)"> </text><text xml:space="preserve" font-family="Verdana" font-size="20.0" fill="#000000" transform="matrix(1.00, 0.00, -0.00, -1.00, 450.8, 96.0)">(</text><text xml:space="preserve" font-family="Verdana-Italic" font-style="italic" font-size="20.0" fill="#000000" transform="matrix(1.00, 0.00, -0.00, -1.00, 459.9, 96.0)">A</text><text xml:space="preserve" font-family="Verdana-Italic" font-style="italic" font-size="20.0" fill="#000000" transform="matrix(1.00, 0.00, -0.00, -1.00, 473.5, 96.0)">t</text><text xml:space="preserve" font-family="Verdana-Italic" font-style="italic" font-size="20.0" fill="#000000" transform="matrix(1.00, 0.00, -0.00, -1.00, 481.4, 96.0)">e</text><text xml:space="preserve" font-family="Verdana-Italic" font-style="italic" font-size="20.0" fill="#000000" transform="matrix(1.00, 0.00, -0.00, -1.00, 493.3, 96.0)">l</text><text xml:space="preserve" font-family="Verdana-Italic" font-style="italic" font-size="20.0" fill="#000000" transform="matrix(1.00, 0.00, -0.00, -1.00, 498.8, 96.0)">o</text><text xml:space="preserve" font-family="Verdana-Italic" font-style="italic" font-size="20.0" fill="#000000" transform="matrix(1.00, 0.00, -0.00, -1.00, 511.0, 96.0)">p</text><text xml:space="preserve" font-family="Verdana-Italic" font-style="italic" font-size="20.0" fill="#000000" transform="matrix(1.00, 0.00, -0.00, -1.00, 523.4, 96.0)">u</text><text xml:space="preserve" font-family="Verdana-Italic" font-style="italic" font-size="20.0" fill="#000000" transform="matrix(1.00, 0.00, -0.00, -1.00, 536.1, 96.0)">s</text><text xml:space="preserve" font-family="Verdana-Italic" font-style="italic" font-size="20.0" fill="#000000" transform="matrix(1.00, 0.00, -0.00, -1.00, 546.5, 96.0)"> </text><text xml:space="preserve" font-family="Verdana-Italic" font-style="italic" font-size="20.0" fill="#000000" transform="matrix(1.00, 0.00, -0.00, -1.00, 553.5, 96.0)">s</text><text xml:space="preserve" font-family="Verdana-Italic" font-style="italic" font-size="20.0" fill="#000000" transform="matrix(1.00, 0.00, -0.00, -1.00, 563.9, 96.0)">p</text><text xml:space="preserve" font-family="Verdana-Italic" font-style="italic" font-size="20.0" fill="#000000" transform="matrix(1.00, 0.00, -0.00, -1.00, 576.4, 96.0)">u</text><text xml:space="preserve" font-family="Verdana-Italic" font-style="italic" font-size="20.0" fill="#000000" transform="matrix(1.00, 0.00, -0.00, -1.00, 589.1, 96.0)">m</text><text xml:space="preserve" font-family="Verdana-Italic" font-style="italic" font-size="20.0" fill="#000000" transform="matrix(1.00, 0.00, -0.00, -1.00, 608.5, 96.0)">a</text><text xml:space="preserve" font-family="Verdana-Italic" font-style="italic" font-size="20.0" fill="#000000" transform="matrix(1.00, 0.00, -0.00, -1.00, 620.5, 96.0)">r</text><text xml:space="preserve" font-family="Verdana-Italic" font-style="italic" font-size="20.0" fill="#000000" transform="matrix(1.00, 0.00, -0.00, -1.00, 629.1, 96.0)">i</text><text xml:space="preserve" font-family="Verdana-Italic" font-style="italic" font-size="20.0" fill="#000000" transform="matrix(1.00, 0.00, -0.00, -1.00, 634.6, 96.0)">u</text><text xml:space="preserve" font-family="Verdana-Italic" font-style="italic" font-size="20.0" fill="#000000" transform="matrix(1.00, 0.00, -0.00, -1.00, 647.2, 96.0)">s</text><text xml:space="preserve" font-family="Verdana" font-size="20.0" fill="#000000" transform="matrix(1.00, 0.00, -0.00, -1.00, 657.7, 96.0)">)</text></g></svg>