<?xml version="1.0" encoding="UTF-8" standalone="no"?><svg xmlns="http://www.w3.org/2000/svg" xmlns:xlink="http://www.w3.org/1999/xlink" clip-rule="evenodd" stroke-miterlimit="4.00" viewBox="0 0 720 540"><desc>SVG generated by Keynote</desc><defs></defs><g transform="matrix(1.00, 0.00, -0.00, -1.00, 0.0, 540.0)"><path d="M 0.0 540.0 L 720.0 540.0 L 720.0 0.0 L 0.0 0.0 Z M 0.0 540.0 " fill="#FEFFFF"></path><g><clipPath id="clip-33"><path d="M 0.0 60.0 L 720.0 60.0 L 720.0 540.0 L 0.0 540.0 Z M 0.0 60.0 "></path></clipPath><g clip-path="url(#clip-33)"><path d="M 0.0 540.0 L 720.0 540.0 L 720.0 60.0 L 0.0 60.0 Z M 0.0 540.0 " fill="#FFFFFF"></path><image xlink:href="362CD47512BE7F7056F67C9EB01A14EA.png" width="768.00" height="512.00" transform="matrix(0.94, 0.00, -0.00, -0.94, 0.0, 540.0)"></image></g></g><text xml:space="preserve" font-family="ArialMT" font-size="24.0" fill="#656565" transform="matrix(1.00, 0.00, -0.00, -1.00, 25.0, 10.0)">M</text><text xml:space="preserve" font-family="ArialMT" font-size="24.0" fill="#656565" transform="matrix(1.00, 0.00, -0.00, -1.00, 45.0, 10.0)">a</text><text xml:space="preserve" font-family="ArialMT" font-size="24.0" fill="#656565" transform="matrix(1.00, 0.00, -0.00, -1.00, 58.3, 10.0)">n</text><text xml:space="preserve" font-family="ArialMT" font-size="24.0" fill="#656565" transform="matrix(1.00, 0.00, -0.00, -1.00, 71.7, 10.0)">d</text><text xml:space="preserve" font-family="ArialMT" font-size="24.0" fill="#656565" transform="matrix(1.00, 0.00, -0.00, -1.00, 85.0, 10.0)">a</text><text xml:space="preserve" font-family="ArialMT" font-size="24.0" fill="#656565" transform="matrix(1.00, 0.00, -0.00, -1.00, 98.4, 10.0)">r</text><text xml:space="preserve" font-family="ArialMT" font-size="24.0" fill="#656565" transform="matrix(1.00, 0.00, -0.00, -1.00, 106.4, 10.0)">i</text><text xml:space="preserve" font-family="ArialMT" font-size="24.0" fill="#656565" transform="matrix(1.00, 0.00, -0.00, -1.00, 111.7, 10.0)">n</text><text xml:space="preserve" font-family="ArialMT" font-size="24.0" fill="#656565" transform="matrix(1.00, 0.00, -0.00, -1.00, 125.1, 10.0)"> </text><text xml:space="preserve" font-family="ArialMT" font-size="24.0" fill="#656565" transform="matrix(1.00, 0.00, -0.00, -1.00, 131.7, 10.0)">S</text><text xml:space="preserve" font-family="ArialMT" font-size="24.0" fill="#656565" transform="matrix(1.00, 0.00, -0.00, -1.00, 147.8, 10.0)">a</text><text xml:space="preserve" font-family="ArialMT" font-size="24.0" fill="#656565" transform="matrix(1.00, 0.00, -0.00, -1.00, 161.1, 10.0)">l</text><text xml:space="preserve" font-family="ArialMT" font-size="24.0" fill="#656565" transform="matrix(1.00, 0.00, -0.00, -1.00, 166.4, 10.0)">a</text><text xml:space="preserve" font-family="ArialMT" font-size="24.0" fill="#656565" transform="matrix(1.00, 0.00, -0.00, -1.00, 179.8, 10.0)">m</text><text xml:space="preserve" font-family="ArialMT" font-size="24.0" fill="#656565" transform="matrix(1.00, 0.00, -0.00, -1.00, 199.8, 10.0)">a</text><text xml:space="preserve" font-family="ArialMT" font-size="24.0" fill="#656565" transform="matrix(1.00, 0.00, -0.00, -1.00, 213.1, 10.0)">n</text><text xml:space="preserve" font-family="ArialMT" font-size="24.0" fill="#656565" transform="matrix(1.00, 0.00, -0.00, -1.00, 226.5, 10.0)">d</text><text xml:space="preserve" font-family="ArialMT" font-size="24.0" fill="#656565" transform="matrix(1.00, 0.00, -0.00, -1.00, 239.8, 10.0)">e</text><text xml:space="preserve" font-family="ArialMT" font-size="24.0" fill="#656565" transform="matrix(1.00, 0.00, -0.00, -1.00, 253.2, 10.0)">r</text><text xml:space="preserve" font-family="ArialMT" font-size="24.0" fill="#656565" transform="matrix(1.00, 0.00, -0.00, -1.00, 259.9, 10.0)">,</text><text xml:space="preserve" font-family="ArialMT" font-size="24.0" fill="#656565" transform="matrix(1.00, 0.00, -0.00, -1.00, 266.5, 10.0)"> </text><text xml:space="preserve" font-family="ArialMT" font-size="24.0" fill="#656565" transform="matrix(1.00, 0.00, -0.00, -1.00, 272.8, 10.0)">T</text><text xml:space="preserve" font-family="ArialMT" font-size="24.0" fill="#656565" transform="matrix(1.00, 0.00, -0.00, -1.00, 286.1, 10.0)">y</text><text xml:space="preserve" font-family="ArialMT" font-size="24.0" fill="#656565" transform="matrix(1.00, 0.00, -0.00, -1.00, 298.1, 10.0)">l</text><text xml:space="preserve" font-family="ArialMT" font-size="24.0" fill="#656565" transform="matrix(1.00, 0.00, -0.00, -1.00, 303.4, 10.0)">o</text><text xml:space="preserve" font-family="ArialMT" font-size="24.0" fill="#656565" transform="matrix(1.00, 0.00, -0.00, -1.00, 316.8, 10.0)">t</text><text xml:space="preserve" font-family="ArialMT" font-size="24.0" fill="#656565" transform="matrix(1.00, 0.00, -0.00, -1.00, 323.4, 10.0)">o</text><text xml:space="preserve" font-family="ArialMT" font-size="24.0" fill="#656565" transform="matrix(1.00, 0.00, -0.00, -1.00, 336.8, 10.0)">t</text><text xml:space="preserve" font-family="ArialMT" font-size="24.0" fill="#656565" transform="matrix(1.00, 0.00, -0.00, -1.00, 343.5, 10.0)">r</text><text xml:space="preserve" font-family="ArialMT" font-size="24.0" fill="#656565" transform="matrix(1.00, 0.00, -0.00, -1.00, 351.5, 10.0)">i</text><text xml:space="preserve" font-family="ArialMT" font-size="24.0" fill="#656565" transform="matrix(1.00, 0.00, -0.00, -1.00, 356.8, 10.0)">t</text><text xml:space="preserve" font-family="ArialMT" font-size="24.0" fill="#656565" transform="matrix(1.00, 0.00, -0.00, -1.00, 363.5, 10.0)">o</text><text xml:space="preserve" font-family="ArialMT" font-size="24.0" fill="#656565" transform="matrix(1.00, 0.00, -0.00, -1.00, 376.8, 10.0)">n</text><text xml:space="preserve" font-family="ArialMT" font-size="24.0" fill="#656565" transform="matrix(1.00, 0.00, -0.00, -1.00, 390.2, 10.0)"> </text><text xml:space="preserve" font-family="ArialMT" font-size="24.0" fill="#656565" transform="matrix(1.00, 0.00, -0.00, -1.00, 396.8, 10.0)">v</text><text xml:space="preserve" font-family="ArialMT" font-size="24.0" fill="#656565" transform="matrix(1.00, 0.00, -0.00, -1.00, 408.8, 10.0)">e</text><text xml:space="preserve" font-family="ArialMT" font-size="24.0" fill="#656565" transform="matrix(1.00, 0.00, -0.00, -1.00, 422.2, 10.0)">r</text><text xml:space="preserve" font-family="ArialMT" font-size="24.0" fill="#656565" transform="matrix(1.00, 0.00, -0.00, -1.00, 430.2, 10.0)">r</text><text xml:space="preserve" font-family="ArialMT" font-size="24.0" fill="#656565" transform="matrix(1.00, 0.00, -0.00, -1.00, 438.2, 10.0)">u</text><text xml:space="preserve" font-family="ArialMT" font-size="24.0" fill="#656565" transform="matrix(1.00, 0.00, -0.00, -1.00, 451.5, 10.0)">c</text><text xml:space="preserve" font-family="ArialMT" font-size="24.0" fill="#656565" transform="matrix(1.00, 0.00, -0.00, -1.00, 463.5, 10.0)">o</text><text xml:space="preserve" font-family="ArialMT" font-size="24.0" fill="#656565" transform="matrix(1.00, 0.00, -0.00, -1.00, 476.9, 10.0)">s</text><text xml:space="preserve" font-family="ArialMT" font-size="24.0" fill="#656565" transform="matrix(1.00, 0.00, -0.00, -1.00, 488.9, 10.0)">u</text><text xml:space="preserve" font-family="ArialMT" font-size="24.0" fill="#656565" transform="matrix(1.00, 0.00, -0.00, -1.00, 502.2, 10.0)">s</text><text xml:space="preserve" font-family="ArialMT" font-size="24.0" fill="#656565" transform="matrix(1.00, 0.00, -0.00, -1.00, 514.2, 10.0)">,</text><text xml:space="preserve" font-family="ArialMT" font-size="24.0" fill="#656565" transform="matrix(1.00, 0.00, -0.00, -1.00, 520.9, 10.0)"> </text><text xml:space="preserve" font-family="ArialMT" font-size="24.0" fill="#656565" transform="matrix(1.00, 0.00, -0.00, -1.00, 527.5, 10.0)">e</text><text xml:space="preserve" font-family="ArialMT" font-size="24.0" fill="#656565" transform="matrix(1.00, 0.00, -0.00, -1.00, 540.9, 10.0)">a</text><text xml:space="preserve" font-family="ArialMT" font-size="24.0" fill="#656565" transform="matrix(1.00, 0.00, -0.00, -1.00, 554.2, 10.0)">t</text><text xml:space="preserve" font-family="ArialMT" font-size="24.0" fill="#656565" transform="matrix(1.00, 0.00, -0.00, -1.00, 560.9, 10.0)">i</text><text xml:space="preserve" font-family="ArialMT" font-size="24.0" fill="#656565" transform="matrix(1.00, 0.00, -0.00, -1.00, 566.2, 10.0)">n</text><text xml:space="preserve" font-family="ArialMT" font-size="24.0" fill="#656565" transform="matrix(1.00, 0.00, -0.00, -1.00, 579.6, 10.0)">g</text><text xml:space="preserve" font-family="ArialMT" font-size="24.0" fill="#656565" transform="matrix(1.00, 0.00, -0.00, -1.00, 593.0, 10.0)"> </text><text xml:space="preserve" font-family="ArialMT" font-size="24.0" fill="#656565" transform="matrix(1.00, 0.00, -0.00, -1.00, 599.6, 10.0)">a</text><text xml:space="preserve" font-family="ArialMT" font-size="24.0" fill="#656565" transform="matrix(1.00, 0.00, -0.00, -1.00, 613.0, 10.0)"> </text><text xml:space="preserve" font-family="ArialMT" font-size="24.0" fill="#656565" transform="matrix(1.00, 0.00, -0.00, -1.00, 619.6, 10.0)">w</text><text xml:space="preserve" font-family="ArialMT" font-size="24.0" fill="#656565" transform="matrix(1.00, 0.00, -0.00, -1.00, 637.0, 10.0)">o</text><text xml:space="preserve" font-family="ArialMT" font-size="24.0" fill="#656565" transform="matrix(1.00, 0.00, -0.00, -1.00, 650.3, 10.0)">r</text><text xml:space="preserve" font-family="ArialMT" font-size="24.0" fill="#656565" transform="matrix(1.00, 0.00, -0.00, -1.00, 658.3, 10.0)">m</text></g></svg>