<?xml version="1.0" encoding="UTF-8" standalone="no"?><svg xmlns="http://www.w3.org/2000/svg" xmlns:xlink="http://www.w3.org/1999/xlink" clip-rule="evenodd" stroke-miterlimit="10" viewBox="0 0 720 540"><desc>SVG generated by Keynote</desc><defs></defs><g transform="matrix(1.00, 0.00, -0.00, -1.00, 0.0, 540.0)"><path d="M 0.0 540.0 L 720.0 540.0 L 720.0 0.0 L 0.0 0.0 Z M 0.0 540.0 " fill="#FEFFFF"></path><image xlink:href="../../1A5E6334-F5D4-45AC-97E4-95DF3EA805F7/assets/2C438689CCD6B843BFBE358063AB2F89.png" width="811.00" height="602.00" transform="matrix(0.89, 0.00, -0.00, -0.89, 0.0, 540.0)"></image><path d="M 9.0 389.0 L 245.0 389.0 L 245.0 354.0 L 9.0 354.0 Z M 9.0 389.0 " fill="#A7C5FE"></path><text xml:space="preserve" font-family="ArialMT,Arial" font-size="24.0" fill="#000000" transform="matrix(1.00, 0.00, -0.00, -1.00, 16.2, 362.9)">F</text><text xml:space="preserve" font-family="ArialMT,Arial" font-size="24.0" fill="#000000" transform="matrix(1.00, 0.00, -0.00, -1.00, 30.9, 362.9)">r</text><text xml:space="preserve" font-family="ArialMT,Arial" font-size="24.0" fill="#000000" transform="matrix(1.00, 0.00, -0.00, -1.00, 38.9, 362.9)">o</text><text xml:space="preserve" font-family="ArialMT,Arial" font-size="24.0" fill="#000000" transform="matrix(1.00, 0.00, -0.00, -1.00, 52.2, 362.9)">m</text><text xml:space="preserve" font-family="ArialMT,Arial" font-size="24.0" fill="#000000" transform="matrix(1.00, 0.00, -0.00, -1.00, 78.9, 362.9)">t</text><text xml:space="preserve" font-family="ArialMT,Arial" font-size="24.0" fill="#000000" transform="matrix(1.00, 0.00, -0.00, -1.00, 85.5, 362.9)">e</text><text xml:space="preserve" font-family="ArialMT,Arial" font-size="24.0" fill="#000000" transform="matrix(1.00, 0.00, -0.00, -1.00, 98.9, 362.9)">m</text><text xml:space="preserve" font-family="ArialMT,Arial" font-size="24.0" fill="#000000" transform="matrix(1.00, 0.00, -0.00, -1.00, 118.9, 362.9)">n</text><text xml:space="preserve" font-family="ArialMT,Arial" font-size="24.0" fill="#000000" transform="matrix(1.00, 0.00, -0.00, -1.00, 132.2, 362.9)">o</text><text xml:space="preserve" font-family="ArialMT,Arial" font-size="24.0" fill="#000000" transform="matrix(1.00, 0.00, -0.00, -1.00, 145.6, 362.9)">s</text><text xml:space="preserve" font-family="ArialMT,Arial" font-size="24.0" fill="#000000" transform="matrix(1.00, 0.00, -0.00, -1.00, 157.6, 362.9)">p</text><text xml:space="preserve" font-family="ArialMT,Arial" font-size="24.0" fill="#000000" transform="matrix(1.00, 0.00, -0.00, -1.00, 170.9, 362.9)">o</text><text xml:space="preserve" font-family="ArialMT,Arial" font-size="24.0" fill="#000000" transform="matrix(1.00, 0.00, -0.00, -1.00, 184.3, 362.9)">n</text><text xml:space="preserve" font-family="ArialMT,Arial" font-size="24.0" fill="#000000" transform="matrix(1.00, 0.00, -0.00, -1.00, 197.6, 362.9)">d</text><text xml:space="preserve" font-family="ArialMT,Arial" font-size="24.0" fill="#000000" transform="matrix(1.00, 0.00, -0.00, -1.00, 211.0, 362.9)">y</text><text xml:space="preserve" font-family="ArialMT,Arial" font-size="24.0" fill="#000000" transform="matrix(1.00, 0.00, -0.00, -1.00, 223.0, 362.9)">l</text><text xml:space="preserve" font-family="ArialMT,Arial" font-size="24.0" fill="#000000" transform="matrix(1.00, 0.00, -0.00, -1.00, 228.3, 362.9)">s</text><path d="M 351.0 389.0 L 587.0 389.0 L 587.0 354.0 L 351.0 354.0 Z M 351.0 389.0 " fill="#A7C5FE"></path><text xml:space="preserve" font-family="ArialMT,Arial" font-size="24.0" fill="#000000" transform="matrix(1.00, 0.00, -0.00, -1.00, 358.2, 362.9)">F</text><text xml:space="preserve" font-family="ArialMT,Arial" font-size="24.0" fill="#000000" transform="matrix(1.00, 0.00, -0.00, -1.00, 372.9, 362.9)">r</text><text xml:space="preserve" font-family="ArialMT,Arial" font-size="24.0" fill="#000000" transform="matrix(1.00, 0.00, -0.00, -1.00, 380.9, 362.9)">o</text><text xml:space="preserve" font-family="ArialMT,Arial" font-size="24.0" fill="#000000" transform="matrix(1.00, 0.00, -0.00, -1.00, 394.2, 362.9)">m</text><text xml:space="preserve" font-family="ArialMT,Arial" font-size="24.0" fill="#000000" transform="matrix(1.00, 0.00, -0.00, -1.00, 420.9, 362.9)">t</text><text xml:space="preserve" font-family="ArialMT,Arial" font-size="24.0" fill="#000000" transform="matrix(1.00, 0.00, -0.00, -1.00, 427.5, 362.9)">e</text><text xml:space="preserve" font-family="ArialMT,Arial" font-size="24.0" fill="#000000" transform="matrix(1.00, 0.00, -0.00, -1.00, 440.9, 362.9)">m</text><text xml:space="preserve" font-family="ArialMT,Arial" font-size="24.0" fill="#000000" transform="matrix(1.00, 0.00, -0.00, -1.00, 460.9, 362.9)">n</text><text xml:space="preserve" font-family="ArialMT,Arial" font-size="24.0" fill="#000000" transform="matrix(1.00, 0.00, -0.00, -1.00, 474.2, 362.9)">o</text><text xml:space="preserve" font-family="ArialMT,Arial" font-size="24.0" fill="#000000" transform="matrix(1.00, 0.00, -0.00, -1.00, 487.6, 362.9)">s</text><text xml:space="preserve" font-family="ArialMT,Arial" font-size="24.0" fill="#000000" transform="matrix(1.00, 0.00, -0.00, -1.00, 499.6, 362.9)">p</text><text xml:space="preserve" font-family="ArialMT,Arial" font-size="24.0" fill="#000000" transform="matrix(1.00, 0.00, -0.00, -1.00, 512.9, 362.9)">o</text><text xml:space="preserve" font-family="ArialMT,Arial" font-size="24.0" fill="#000000" transform="matrix(1.00, 0.00, -0.00, -1.00, 526.3, 362.9)">n</text><text xml:space="preserve" font-family="ArialMT,Arial" font-size="24.0" fill="#000000" transform="matrix(1.00, 0.00, -0.00, -1.00, 539.6, 362.9)">d</text><text xml:space="preserve" font-family="ArialMT,Arial" font-size="24.0" fill="#000000" transform="matrix(1.00, 0.00, -0.00, -1.00, 553.0, 362.9)">y</text><text xml:space="preserve" font-family="ArialMT,Arial" font-size="24.0" fill="#000000" transform="matrix(1.00, 0.00, -0.00, -1.00, 565.0, 362.9)">l</text><text xml:space="preserve" font-family="ArialMT,Arial" font-size="24.0" fill="#000000" transform="matrix(1.00, 0.00, -0.00, -1.00, 570.3, 362.9)">s</text><path d="M 41.0 134.0 L 256.0 134.0 L 256.0 99.0 L 41.0 99.0 Z M 41.0 134.0 " fill="#FFB4AE"></path><text xml:space="preserve" font-family="ArialMT,Arial" font-size="24.0" fill="#000000" transform="matrix(1.00, 0.00, -0.00, -1.00, 48.2, 107.9)">F</text><text xml:space="preserve" font-family="ArialMT,Arial" font-size="24.0" fill="#000000" transform="matrix(1.00, 0.00, -0.00, -1.00, 62.9, 107.9)">r</text><text xml:space="preserve" font-family="ArialMT,Arial" font-size="24.0" fill="#000000" transform="matrix(1.00, 0.00, -0.00, -1.00, 70.9, 107.9)">o</text><text xml:space="preserve" font-family="ArialMT,Arial" font-size="24.0" fill="#000000" transform="matrix(1.00, 0.00, -0.00, -1.00, 84.2, 107.9)">m</text><text xml:space="preserve" font-family="ArialMT,Arial" font-size="24.0" fill="#000000" transform="matrix(1.00, 0.00, -0.00, -1.00, 110.9, 107.9)">l</text><text xml:space="preserve" font-family="ArialMT,Arial" font-size="24.0" fill="#000000" transform="matrix(1.00, 0.00, -0.00, -1.00, 116.2, 107.9)">e</text><text xml:space="preserve" font-family="ArialMT,Arial" font-size="24.0" fill="#000000" transform="matrix(1.00, 0.00, -0.00, -1.00, 129.5, 107.9)">p</text><text xml:space="preserve" font-family="ArialMT,Arial" font-size="24.0" fill="#000000" transform="matrix(1.00, 0.00, -0.00, -1.00, 142.9, 107.9)">o</text><text xml:space="preserve" font-family="ArialMT,Arial" font-size="24.0" fill="#000000" transform="matrix(1.00, 0.00, -0.00, -1.00, 156.2, 107.9)">s</text><text xml:space="preserve" font-family="ArialMT,Arial" font-size="24.0" fill="#000000" transform="matrix(1.00, 0.00, -0.00, -1.00, 168.2, 107.9)">p</text><text xml:space="preserve" font-family="ArialMT,Arial" font-size="24.0" fill="#000000" transform="matrix(1.00, 0.00, -0.00, -1.00, 181.6, 107.9)">o</text><text xml:space="preserve" font-family="ArialMT,Arial" font-size="24.0" fill="#000000" transform="matrix(1.00, 0.00, -0.00, -1.00, 194.9, 107.9)">n</text><text xml:space="preserve" font-family="ArialMT,Arial" font-size="24.0" fill="#000000" transform="matrix(1.00, 0.00, -0.00, -1.00, 208.3, 107.9)">d</text><text xml:space="preserve" font-family="ArialMT,Arial" font-size="24.0" fill="#000000" transform="matrix(1.00, 0.00, -0.00, -1.00, 221.6, 107.9)">y</text><text xml:space="preserve" font-family="ArialMT,Arial" font-size="24.0" fill="#000000" transform="matrix(1.00, 0.00, -0.00, -1.00, 233.6, 107.9)">l</text><text xml:space="preserve" font-family="ArialMT,Arial" font-size="24.0" fill="#000000" transform="matrix(1.00, 0.00, -0.00, -1.00, 239.0, 107.9)">s</text><path d="M 418.0 134.0 L 624.0 134.0 L 624.0 99.0 L 418.0 99.0 Z M 418.0 134.0 " fill="#FEFAB9"></path><text xml:space="preserve" font-family="ArialMT,Arial" font-size="24.0" fill="#000000" transform="matrix(1.00, 0.00, -0.00, -1.00, 425.2, 107.9)">N</text><text xml:space="preserve" font-family="ArialMT,Arial" font-size="24.0" fill="#000000" transform="matrix(1.00, 0.00, -0.00, -1.00, 442.5, 107.9)">o</text><text xml:space="preserve" font-family="ArialMT,Arial" font-size="24.0" fill="#000000" transform="matrix(1.00, 0.00, -0.00, -1.00, 455.9, 107.9)">n</text><text xml:space="preserve" font-family="ArialMT,Arial" font-size="24.0" fill="#000000" transform="matrix(1.00, 0.00, -0.00, -1.00, 469.2, 107.9)">-</text><text xml:space="preserve" font-family="ArialMT,Arial" font-size="24.0" fill="#000000" transform="matrix(1.00, 0.00, -0.00, -1.00, 477.2, 107.9)">m</text><text xml:space="preserve" font-family="ArialMT,Arial" font-size="24.0" fill="#000000" transform="matrix(1.00, 0.00, -0.00, -1.00, 497.2, 107.9)">o</text><text xml:space="preserve" font-family="ArialMT,Arial" font-size="24.0" fill="#000000" transform="matrix(1.00, 0.00, -0.00, -1.00, 510.6, 107.9)">n</text><text xml:space="preserve" font-family="ArialMT,Arial" font-size="24.0" fill="#000000" transform="matrix(1.00, 0.00, -0.00, -1.00, 523.9, 107.9)">o</text><text xml:space="preserve" font-family="ArialMT,Arial" font-size="24.0" fill="#000000" transform="matrix(1.00, 0.00, -0.00, -1.00, 537.3, 107.9)">p</text><text xml:space="preserve" font-family="ArialMT,Arial" font-size="24.0" fill="#000000" transform="matrix(1.00, 0.00, -0.00, -1.00, 550.6, 107.9)">h</text><text xml:space="preserve" font-family="ArialMT,Arial" font-size="24.0" fill="#000000" transform="matrix(1.00, 0.00, -0.00, -1.00, 564.0, 107.9)">y</text><text xml:space="preserve" font-family="ArialMT,Arial" font-size="24.0" fill="#000000" transform="matrix(1.00, 0.00, -0.00, -1.00, 576.0, 107.9)">l</text><text xml:space="preserve" font-family="ArialMT,Arial" font-size="24.0" fill="#000000" transform="matrix(1.00, 0.00, -0.00, -1.00, 581.3, 107.9)">e</text><text xml:space="preserve" font-family="ArialMT,Arial" font-size="24.0" fill="#000000" transform="matrix(1.00, 0.00, -0.00, -1.00, 594.6, 107.9)">t</text><text xml:space="preserve" font-family="ArialMT,Arial" font-size="24.0" fill="#000000" transform="matrix(1.00, 0.00, -0.00, -1.00, 601.3, 107.9)">i</text><text xml:space="preserve" font-family="ArialMT,Arial" font-size="24.0" fill="#000000" transform="matrix(1.00, 0.00, -0.00, -1.00, 606.6, 107.9)">c</text></g></svg>