<?xml version="1.0" encoding="UTF-8" standalone="no"?><svg xmlns="http://www.w3.org/2000/svg" xmlns:xlink="http://www.w3.org/1999/xlink" clip-rule="evenodd" stroke-miterlimit="10" viewBox="0 0 720 540"><desc>SVG generated by Keynote</desc><defs></defs><g transform="matrix(1.00, 0.00, -0.00, -1.00, 0.0, 540.0)"><path d="M 0.0 540.0 L 720.0 540.0 L 720.0 0.0 L 0.0 0.0 Z M 0.0 540.0 " fill="#FEFFFF"></path><text xml:space="preserve" font-family="TimesNewRomanPSMT,Times New Roman" font-size="36.0" fill="#000000" transform="matrix(1.00, 0.00, -0.00, -1.00, 141.2, 348.9)">C</text><text xml:space="preserve" font-family="TimesNewRomanPSMT,Times New Roman" font-size="36.0" fill="#000000" transform="matrix(1.00, 0.00, -0.00, -1.00, 165.2, 348.9)">a</text><text xml:space="preserve" font-family="TimesNewRomanPSMT,Times New Roman" font-size="36.0" fill="#000000" transform="matrix(1.00, 0.00, -0.00, -1.00, 181.2, 348.9)">n</text><text xml:space="preserve" font-family="TimesNewRomanPSMT,Times New Roman" font-size="36.0" fill="#000000" transform="matrix(1.00, 0.00, -0.00, -1.00, 199.2, 348.9)"> </text><text xml:space="preserve" font-family="TimesNewRomanPSMT,Times New Roman" font-size="36.0" fill="#000000" transform="matrix(1.00, 0.00, -0.00, -1.00, 208.2, 348.9)">t</text><text xml:space="preserve" font-family="TimesNewRomanPSMT,Times New Roman" font-size="36.0" fill="#000000" transform="matrix(1.00, 0.00, -0.00, -1.00, 218.2, 348.9)">h</text><text xml:space="preserve" font-family="TimesNewRomanPSMT,Times New Roman" font-size="36.0" fill="#000000" transform="matrix(1.00, 0.00, -0.00, -1.00, 236.2, 348.9)">i</text><text xml:space="preserve" font-family="TimesNewRomanPSMT,Times New Roman" font-size="36.0" fill="#000000" transform="matrix(1.00, 0.00, -0.00, -1.00, 246.2, 348.9)">s</text><text xml:space="preserve" font-family="TimesNewRomanPSMT,Times New Roman" font-size="36.0" fill="#000000" transform="matrix(1.00, 0.00, -0.00, -1.00, 260.2, 348.9)"> </text><text xml:space="preserve" font-family="TimesNewRomanPSMT,Times New Roman" font-size="36.0" fill="#000000" transform="matrix(1.00, 0.00, -0.00, -1.00, 269.2, 348.9)">e</text><text xml:space="preserve" font-family="TimesNewRomanPSMT,Times New Roman" font-size="36.0" fill="#000000" transform="matrix(1.00, 0.00, -0.00, -1.00, 285.2, 348.9)">x</text><text xml:space="preserve" font-family="TimesNewRomanPSMT,Times New Roman" font-size="36.0" fill="#000000" transform="matrix(1.00, 0.00, -0.00, -1.00, 303.2, 348.9)">p</text><text xml:space="preserve" font-family="TimesNewRomanPSMT,Times New Roman" font-size="36.0" fill="#000000" transform="matrix(1.00, 0.00, -0.00, -1.00, 321.2, 348.9)">l</text><text xml:space="preserve" font-family="TimesNewRomanPSMT,Times New Roman" font-size="36.0" fill="#000000" transform="matrix(1.00, 0.00, -0.00, -1.00, 331.2, 348.9)">a</text><text xml:space="preserve" font-family="TimesNewRomanPSMT,Times New Roman" font-size="36.0" fill="#000000" transform="matrix(1.00, 0.00, -0.00, -1.00, 347.1, 348.9)">i</text><text xml:space="preserve" font-family="TimesNewRomanPSMT,Times New Roman" font-size="36.0" fill="#000000" transform="matrix(1.00, 0.00, -0.00, -1.00, 357.1, 348.9)">n</text><text xml:space="preserve" font-family="TimesNewRomanPSMT,Times New Roman" font-size="36.0" fill="#000000" transform="matrix(1.00, 0.00, -0.00, -1.00, 375.1, 348.9)"> </text><text xml:space="preserve" font-family="TimesNewRomanPSMT,Times New Roman" font-size="36.0" fill="#000000" transform="matrix(1.00, 0.00, -0.00, -1.00, 384.1, 348.9)">t</text><text xml:space="preserve" font-family="TimesNewRomanPSMT,Times New Roman" font-size="36.0" fill="#000000" transform="matrix(1.00, 0.00, -0.00, -1.00, 394.1, 348.9)">h</text><text xml:space="preserve" font-family="TimesNewRomanPSMT,Times New Roman" font-size="36.0" fill="#000000" transform="matrix(1.00, 0.00, -0.00, -1.00, 412.1, 348.9)">e</text><text xml:space="preserve" font-family="TimesNewRomanPSMT,Times New Roman" font-size="36.0" fill="#000000" transform="matrix(1.00, 0.00, -0.00, -1.00, 428.1, 348.9)"> </text><text xml:space="preserve" font-family="TimesNewRomanPSMT,Times New Roman" font-size="36.0" fill="#000000" transform="matrix(1.00, 0.00, -0.00, -1.00, 437.1, 348.9)">d</text><text xml:space="preserve" font-family="TimesNewRomanPSMT,Times New Roman" font-size="36.0" fill="#000000" transform="matrix(1.00, 0.00, -0.00, -1.00, 455.1, 348.9)">i</text><text xml:space="preserve" font-family="TimesNewRomanPSMT,Times New Roman" font-size="36.0" fill="#000000" transform="matrix(1.00, 0.00, -0.00, -1.00, 465.1, 348.9)">f</text><text xml:space="preserve" font-family="TimesNewRomanPSMT,Times New Roman" font-size="36.0" fill="#000000" transform="matrix(1.00, 0.00, -0.00, -1.00, 476.4, 348.9)">f</text><text xml:space="preserve" font-family="TimesNewRomanPSMT,Times New Roman" font-size="36.0" fill="#000000" transform="matrix(1.00, 0.00, -0.00, -1.00, 488.4, 348.9)">e</text><text xml:space="preserve" font-family="TimesNewRomanPSMT,Times New Roman" font-size="36.0" fill="#000000" transform="matrix(1.00, 0.00, -0.00, -1.00, 504.4, 348.9)">r</text><text xml:space="preserve" font-family="TimesNewRomanPSMT,Times New Roman" font-size="36.0" fill="#000000" transform="matrix(1.00, 0.00, -0.00, -1.00, 516.4, 348.9)">e</text><text xml:space="preserve" font-family="TimesNewRomanPSMT,Times New Roman" font-size="36.0" fill="#000000" transform="matrix(1.00, 0.00, -0.00, -1.00, 532.4, 348.9)">n</text><text xml:space="preserve" font-family="TimesNewRomanPSMT,Times New Roman" font-size="36.0" fill="#000000" transform="matrix(1.00, 0.00, -0.00, -1.00, 550.4, 348.9)">c</text><text xml:space="preserve" font-family="TimesNewRomanPSMT,Times New Roman" font-size="36.0" fill="#000000" transform="matrix(1.00, 0.00, -0.00, -1.00, 566.3, 348.9)">e</text><text xml:space="preserve" font-family="TimesNewRomanPSMT,Times New Roman" font-size="36.0" fill="#000000" transform="matrix(1.00, 0.00, -0.00, -1.00, 582.3, 348.9)">s</text><text xml:space="preserve" font-family="TimesNewRomanPSMT,Times New Roman" font-size="36.0" fill="#000000" transform="matrix(1.00, 0.00, -0.00, -1.00, 596.3, 348.9)"> </text><text xml:space="preserve" font-family="TimesNewRomanPSMT,Times New Roman" font-size="36.0" fill="#000000" transform="matrix(1.00, 0.00, -0.00, -1.00, 223.3, 309.0)"> </text><text xml:space="preserve" font-family="TimesNewRomanPSMT,Times New Roman" font-size="36.0" fill="#000000" transform="matrix(1.00, 0.00, -0.00, -1.00, 232.3, 309.0)">i</text><text xml:space="preserve" font-family="TimesNewRomanPSMT,Times New Roman" font-size="36.0" fill="#000000" transform="matrix(1.00, 0.00, -0.00, -1.00, 242.3, 309.0)">n</text><text xml:space="preserve" font-family="TimesNewRomanPSMT,Times New Roman" font-size="36.0" fill="#000000" transform="matrix(1.00, 0.00, -0.00, -1.00, 260.3, 309.0)"> </text><text xml:space="preserve" font-family="TimesNewRomanPSMT,Times New Roman" font-size="36.0" fill="#000000" transform="matrix(1.00, 0.00, -0.00, -1.00, 269.3, 309.0)">s</text><text xml:space="preserve" font-family="TimesNewRomanPSMT,Times New Roman" font-size="36.0" fill="#000000" transform="matrix(1.00, 0.00, -0.00, -1.00, 283.3, 309.0)">i</text><text xml:space="preserve" font-family="TimesNewRomanPSMT,Times New Roman" font-size="36.0" fill="#000000" transform="matrix(1.00, 0.00, -0.00, -1.00, 293.3, 309.0)">z</text><text xml:space="preserve" font-family="TimesNewRomanPSMT,Times New Roman" font-size="36.0" fill="#000000" transform="matrix(1.00, 0.00, -0.00, -1.00, 309.3, 309.0)">e</text><text xml:space="preserve" font-family="TimesNewRomanPSMT,Times New Roman" font-size="36.0" fill="#000000" transform="matrix(1.00, 0.00, -0.00, -1.00, 325.3, 309.0)"> </text><text xml:space="preserve" font-family="TimesNewRomanPSMT,Times New Roman" font-size="36.0" fill="#000000" transform="matrix(1.00, 0.00, -0.00, -1.00, 334.3, 309.0)">d</text><text xml:space="preserve" font-family="TimesNewRomanPSMT,Times New Roman" font-size="36.0" fill="#000000" transform="matrix(1.00, 0.00, -0.00, -1.00, 352.3, 309.0)">i</text><text xml:space="preserve" font-family="TimesNewRomanPSMT,Times New Roman" font-size="36.0" fill="#000000" transform="matrix(1.00, 0.00, -0.00, -1.00, 362.3, 309.0)">s</text><text xml:space="preserve" font-family="TimesNewRomanPSMT,Times New Roman" font-size="36.0" fill="#000000" transform="matrix(1.00, 0.00, -0.00, -1.00, 376.3, 309.0)">t</text><text xml:space="preserve" font-family="TimesNewRomanPSMT,Times New Roman" font-size="36.0" fill="#000000" transform="matrix(1.00, 0.00, -0.00, -1.00, 386.3, 309.0)">r</text><text xml:space="preserve" font-family="TimesNewRomanPSMT,Times New Roman" font-size="36.0" fill="#000000" transform="matrix(1.00, 0.00, -0.00, -1.00, 398.3, 309.0)">i</text><text xml:space="preserve" font-family="TimesNewRomanPSMT,Times New Roman" font-size="36.0" fill="#000000" transform="matrix(1.00, 0.00, -0.00, -1.00, 408.3, 309.0)">b</text><text xml:space="preserve" font-family="TimesNewRomanPSMT,Times New Roman" font-size="36.0" fill="#000000" transform="matrix(1.00, 0.00, -0.00, -1.00, 426.3, 309.0)">u</text><text xml:space="preserve" font-family="TimesNewRomanPSMT,Times New Roman" font-size="36.0" fill="#000000" transform="matrix(1.00, 0.00, -0.00, -1.00, 444.3, 309.0)">t</text><text xml:space="preserve" font-family="TimesNewRomanPSMT,Times New Roman" font-size="36.0" fill="#000000" transform="matrix(1.00, 0.00, -0.00, -1.00, 454.3, 309.0)">i</text><text xml:space="preserve" font-family="TimesNewRomanPSMT,Times New Roman" font-size="36.0" fill="#000000" transform="matrix(1.00, 0.00, -0.00, -1.00, 464.2, 309.0)">o</text><text xml:space="preserve" font-family="TimesNewRomanPSMT,Times New Roman" font-size="36.0" fill="#000000" transform="matrix(1.00, 0.00, -0.00, -1.00, 482.2, 309.0)">n</text><text xml:space="preserve" font-family="TimesNewRomanPSMT,Times New Roman" font-size="36.0" fill="#000000" transform="matrix(1.00, 0.00, -0.00, -1.00, 500.2, 309.0)">s</text><text xml:space="preserve" font-family="TimesNewRomanPSMT,Times New Roman" font-size="36.0" fill="#000000" transform="matrix(1.00, 0.00, -0.00, -1.00, 514.3, 309.0)"> </text><text xml:space="preserve" font-family="TimesNewRomanPSMT,Times New Roman" font-size="36.0" fill="#000000" transform="matrix(1.00, 0.00, -0.00, -1.00, 187.9, 269.0)">a</text><text xml:space="preserve" font-family="TimesNewRomanPSMT,Times New Roman" font-size="36.0" fill="#000000" transform="matrix(1.00, 0.00, -0.00, -1.00, 203.8, 269.0)">m</text><text xml:space="preserve" font-family="TimesNewRomanPSMT,Times New Roman" font-size="36.0" fill="#000000" transform="matrix(1.00, 0.00, -0.00, -1.00, 231.8, 269.0)">o</text><text xml:space="preserve" font-family="TimesNewRomanPSMT,Times New Roman" font-size="36.0" fill="#000000" transform="matrix(1.00, 0.00, -0.00, -1.00, 249.8, 269.0)">n</text><text xml:space="preserve" font-family="TimesNewRomanPSMT,Times New Roman" font-size="36.0" fill="#000000" transform="matrix(1.00, 0.00, -0.00, -1.00, 267.8, 269.0)">g</text><text xml:space="preserve" font-family="TimesNewRomanPSMT,Times New Roman" font-size="36.0" fill="#000000" transform="matrix(1.00, 0.00, -0.00, -1.00, 285.8, 269.0)"> </text><text xml:space="preserve" font-family="TimesNewRomanPSMT,Times New Roman" font-size="36.0" fill="#000000" transform="matrix(1.00, 0.00, -0.00, -1.00, 294.8, 269.0)">t</text><text xml:space="preserve" font-family="TimesNewRomanPSMT,Times New Roman" font-size="36.0" fill="#000000" transform="matrix(1.00, 0.00, -0.00, -1.00, 304.8, 269.0)">h</text><text xml:space="preserve" font-family="TimesNewRomanPSMT,Times New Roman" font-size="36.0" fill="#000000" transform="matrix(1.00, 0.00, -0.00, -1.00, 322.8, 269.0)">e</text><text xml:space="preserve" font-family="TimesNewRomanPSMT,Times New Roman" font-size="36.0" fill="#000000" transform="matrix(1.00, 0.00, -0.00, -1.00, 338.8, 269.0)"> </text><text xml:space="preserve" font-family="TimesNewRomanPSMT,Times New Roman" font-size="36.0" fill="#000000" transform="matrix(1.00, 0.00, -0.00, -1.00, 347.8, 269.0)">c</text><text xml:space="preserve" font-family="TimesNewRomanPSMT,Times New Roman" font-size="36.0" fill="#000000" transform="matrix(1.00, 0.00, -0.00, -1.00, 363.8, 269.0)">o</text><text xml:space="preserve" font-family="TimesNewRomanPSMT,Times New Roman" font-size="36.0" fill="#000000" transform="matrix(1.00, 0.00, -0.00, -1.00, 381.8, 269.0)">m</text><text xml:space="preserve" font-family="TimesNewRomanPSMT,Times New Roman" font-size="36.0" fill="#000000" transform="matrix(1.00, 0.00, -0.00, -1.00, 409.8, 269.0)">m</text><text xml:space="preserve" font-family="TimesNewRomanPSMT,Times New Roman" font-size="36.0" fill="#000000" transform="matrix(1.00, 0.00, -0.00, -1.00, 437.7, 269.0)">u</text><text xml:space="preserve" font-family="TimesNewRomanPSMT,Times New Roman" font-size="36.0" fill="#000000" transform="matrix(1.00, 0.00, -0.00, -1.00, 455.7, 269.0)">n</text><text xml:space="preserve" font-family="TimesNewRomanPSMT,Times New Roman" font-size="36.0" fill="#000000" transform="matrix(1.00, 0.00, -0.00, -1.00, 473.7, 269.0)">i</text><text xml:space="preserve" font-family="TimesNewRomanPSMT,Times New Roman" font-size="36.0" fill="#000000" transform="matrix(1.00, 0.00, -0.00, -1.00, 483.7, 269.0)">t</text><text xml:space="preserve" font-family="TimesNewRomanPSMT,Times New Roman" font-size="36.0" fill="#000000" transform="matrix(1.00, 0.00, -0.00, -1.00, 493.7, 269.0)">i</text><text xml:space="preserve" font-family="TimesNewRomanPSMT,Times New Roman" font-size="36.0" fill="#000000" transform="matrix(1.00, 0.00, -0.00, -1.00, 503.7, 269.0)">e</text><text xml:space="preserve" font-family="TimesNewRomanPSMT,Times New Roman" font-size="36.0" fill="#000000" transform="matrix(1.00, 0.00, -0.00, -1.00, 519.7, 269.0)">s</text><text xml:space="preserve" font-family="TimesNewRomanPSMT,Times New Roman" font-size="36.0" fill="#000000" transform="matrix(1.00, 0.00, -0.00, -1.00, 533.7, 269.0)">?</text></g></svg>