<?xml version="1.0" encoding="UTF-8" standalone="no"?><svg xmlns="http://www.w3.org/2000/svg" xmlns:xlink="http://www.w3.org/1999/xlink" clip-rule="evenodd" stroke-miterlimit="10" viewBox="0 0 1024 768"><desc>SVG generated by Keynote</desc><defs></defs><g transform="matrix(1.00, 0.00, -0.00, -1.00, 0.0, 768.0)"><path d="M 0.0 768.0 L 1024.0 768.0 L 1024.0 0.0 L 0.0 0.0 Z M 0.0 768.0 " fill="#FEFFFF"></path><text xml:space="preserve" font-family="GillSans,Gill Sans" font-size="84.0" fill="#000000" transform="matrix(1.00, 0.00, -0.00, -1.00, 325.7, 623.4)">S</text><text xml:space="preserve" font-family="GillSans,Gill Sans" font-size="84.0" fill="#000000" transform="matrix(1.00, 0.00, -0.00, -1.00, 364.1, 623.4)">e</text><text xml:space="preserve" font-family="GillSans,Gill Sans" font-size="84.0" fill="#000000" transform="matrix(1.00, 0.00, -0.00, -1.00, 404.4, 623.4)">a</text><text xml:space="preserve" font-family="GillSans,Gill Sans" font-size="84.0" fill="#000000" transform="matrix(1.00, 0.00, -0.00, -1.00, 440.2, 623.4)">s</text><text xml:space="preserve" font-family="GillSans,Gill Sans" font-size="84.0" fill="#000000" transform="matrix(1.00, 0.00, -0.00, -1.00, 472.5, 623.4)">o</text><text xml:space="preserve" font-family="GillSans,Gill Sans" font-size="84.0" fill="#000000" transform="matrix(1.00, 0.00, -0.00, -1.00, 518.8, 623.4)">n</text><text xml:space="preserve" font-family="GillSans,Gill Sans" font-size="84.0" fill="#000000" transform="matrix(1.00, 0.00, -0.00, -1.00, 560.8, 623.4)">a</text><text xml:space="preserve" font-family="GillSans,Gill Sans" font-size="84.0" fill="#000000" transform="matrix(1.00, 0.00, -0.00, -1.00, 596.7, 623.4)">l</text><text xml:space="preserve" font-family="GillSans,Gill Sans" font-size="84.0" fill="#000000" transform="matrix(1.00, 0.00, -0.00, -1.00, 615.1, 623.4)">i</text><text xml:space="preserve" font-family="GillSans,Gill Sans" font-size="84.0" fill="#000000" transform="matrix(1.00, 0.00, -0.00, -1.00, 633.5, 623.4)">t</text><text xml:space="preserve" font-family="GillSans,Gill Sans" font-size="84.0" fill="#000000" transform="matrix(1.00, 0.00, -0.00, -1.00, 661.5, 623.4)">y</text><text xml:space="preserve" font-family="GillSans,Gill Sans" font-size="71.8" fill="#000000" transform="matrix(1.00, 0.00, -0.00, -1.00, 129.0, 427.6)">•</text><text xml:space="preserve" font-family="GillSans,Gill Sans" font-size="42.0" fill="#000000" transform="matrix(1.00, 0.00, -0.00, -1.00, 174.0, 437.7)">T</text><text xml:space="preserve" font-family="GillSans,Gill Sans" font-size="42.0" fill="#000000" transform="matrix(1.00, 0.00, -0.00, -1.00, 193.1, 437.7)">e</text><text xml:space="preserve" font-family="GillSans,Gill Sans" font-size="42.0" fill="#000000" transform="matrix(1.00, 0.00, -0.00, -1.00, 213.2, 437.7)">m</text><text xml:space="preserve" font-family="GillSans,Gill Sans" font-size="42.0" fill="#000000" transform="matrix(1.00, 0.00, -0.00, -1.00, 245.6, 437.7)">p</text><text xml:space="preserve" font-family="GillSans,Gill Sans" font-size="42.0" fill="#000000" transform="matrix(1.00, 0.00, -0.00, -1.00, 266.6, 437.7)">e</text><text xml:space="preserve" font-family="GillSans,Gill Sans" font-size="42.0" fill="#000000" transform="matrix(1.00, 0.00, -0.00, -1.00, 286.7, 437.7)">r</text><text xml:space="preserve" font-family="GillSans,Gill Sans" font-size="42.0" fill="#000000" transform="matrix(1.00, 0.00, -0.00, -1.00, 303.3, 437.7)">a</text><text xml:space="preserve" font-family="GillSans,Gill Sans" font-size="42.0" fill="#000000" transform="matrix(1.00, 0.00, -0.00, -1.00, 321.2, 437.7)">t</text><text xml:space="preserve" font-family="GillSans,Gill Sans" font-size="42.0" fill="#000000" transform="matrix(1.00, 0.00, -0.00, -1.00, 335.2, 437.7)">e</text><text xml:space="preserve" font-family="GillSans,Gill Sans" font-size="42.0" fill="#000000" transform="matrix(1.00, 0.00, -0.00, -1.00, 355.3, 437.7)"> </text><text xml:space="preserve" font-family="GillSans,Gill Sans" font-size="42.0" fill="#000000" transform="matrix(1.00, 0.00, -0.00, -1.00, 367.0, 437.7)">s</text><text xml:space="preserve" font-family="GillSans,Gill Sans" font-size="42.0" fill="#000000" transform="matrix(1.00, 0.00, -0.00, -1.00, 383.2, 437.7)">p</text><text xml:space="preserve" font-family="GillSans,Gill Sans" font-size="42.0" fill="#000000" transform="matrix(1.00, 0.00, -0.00, -1.00, 404.2, 437.7)">e</text><text xml:space="preserve" font-family="GillSans,Gill Sans" font-size="42.0" fill="#000000" transform="matrix(1.00, 0.00, -0.00, -1.00, 424.3, 437.7)">c</text><text xml:space="preserve" font-family="GillSans,Gill Sans" font-size="42.0" fill="#000000" transform="matrix(1.00, 0.00, -0.00, -1.00, 442.7, 437.7)">i</text><text xml:space="preserve" font-family="GillSans,Gill Sans" font-size="42.0" fill="#000000" transform="matrix(1.00, 0.00, -0.00, -1.00, 451.9, 437.7)">e</text><text xml:space="preserve" font-family="GillSans,Gill Sans" font-size="42.0" fill="#000000" transform="matrix(1.00, 0.00, -0.00, -1.00, 472.0, 437.7)">s</text><text xml:space="preserve" font-family="GillSans,Gill Sans" font-size="42.0" fill="#000000" transform="matrix(1.00, 0.00, -0.00, -1.00, 488.2, 437.7)"> </text><text xml:space="preserve" font-family="GillSans,Gill Sans" font-size="42.0" fill="#000000" transform="matrix(1.00, 0.00, -0.00, -1.00, 499.8, 437.7)">a</text><text xml:space="preserve" font-family="GillSans,Gill Sans" font-size="42.0" fill="#000000" transform="matrix(1.00, 0.00, -0.00, -1.00, 517.7, 437.7)">r</text><text xml:space="preserve" font-family="GillSans,Gill Sans" font-size="42.0" fill="#000000" transform="matrix(1.00, 0.00, -0.00, -1.00, 533.5, 437.7)">e</text><text xml:space="preserve" font-family="GillSans,Gill Sans" font-size="42.0" fill="#000000" transform="matrix(1.00, 0.00, -0.00, -1.00, 553.6, 437.7)"> </text><text xml:space="preserve" font-family="GillSans,Gill Sans" font-size="42.0" fill="#000000" transform="matrix(1.00, 0.00, -0.00, -1.00, 565.3, 437.7)">b</text><text xml:space="preserve" font-family="GillSans,Gill Sans" font-size="42.0" fill="#000000" transform="matrix(1.00, 0.00, -0.00, -1.00, 586.3, 437.7)">a</text><text xml:space="preserve" font-family="GillSans,Gill Sans" font-size="42.0" fill="#000000" transform="matrix(1.00, 0.00, -0.00, -1.00, 604.2, 437.7)">s</text><text xml:space="preserve" font-family="GillSans,Gill Sans" font-size="42.0" fill="#000000" transform="matrix(1.00, 0.00, -0.00, -1.00, 620.4, 437.7)">i</text><text xml:space="preserve" font-family="GillSans,Gill Sans" font-size="42.0" fill="#000000" transform="matrix(1.00, 0.00, -0.00, -1.00, 629.6, 437.7)">c</text><text xml:space="preserve" font-family="GillSans,Gill Sans" font-size="42.0" fill="#000000" transform="matrix(1.00, 0.00, -0.00, -1.00, 648.0, 437.7)">a</text><text xml:space="preserve" font-family="GillSans,Gill Sans" font-size="42.0" fill="#000000" transform="matrix(1.00, 0.00, -0.00, -1.00, 665.9, 437.7)">l</text><text xml:space="preserve" font-family="GillSans,Gill Sans" font-size="42.0" fill="#000000" transform="matrix(1.00, 0.00, -0.00, -1.00, 675.1, 437.7)">l</text><text xml:space="preserve" font-family="GillSans,Gill Sans" font-size="42.0" fill="#000000" transform="matrix(1.00, 0.00, -0.00, -1.00, 683.9, 437.7)">y</text><text xml:space="preserve" font-family="GillSans,Gill Sans" font-size="42.0" fill="#000000" transform="matrix(1.00, 0.00, -0.00, -1.00, 702.3, 437.7)"> </text><text xml:space="preserve" font-family="GillSans,Gill Sans" font-size="42.0" fill="#000000" transform="matrix(1.00, 0.00, -0.00, -1.00, 714.0, 437.7)">a</text><text xml:space="preserve" font-family="GillSans,Gill Sans" font-size="42.0" fill="#000000" transform="matrix(1.00, 0.00, -0.00, -1.00, 731.9, 437.7)">l</text><text xml:space="preserve" font-family="GillSans,Gill Sans" font-size="42.0" fill="#000000" transform="matrix(1.00, 0.00, -0.00, -1.00, 741.1, 437.7)">l</text><text xml:space="preserve" font-family="GillSans,Gill Sans" font-size="42.0" fill="#000000" transform="matrix(1.00, 0.00, -0.00, -1.00, 750.3, 437.7)"> </text><text xml:space="preserve" font-family="GillSans,Gill Sans" font-size="42.0" fill="#000000" transform="matrix(1.00, 0.00, -0.00, -1.00, 762.0, 437.7)">s</text><text xml:space="preserve" font-family="GillSans,Gill Sans" font-size="42.0" fill="#000000" transform="matrix(1.00, 0.00, -0.00, -1.00, 778.1, 437.7)">e</text><text xml:space="preserve" font-family="GillSans,Gill Sans" font-size="42.0" fill="#000000" transform="matrix(1.00, 0.00, -0.00, -1.00, 798.3, 437.7)">a</text><text xml:space="preserve" font-family="GillSans,Gill Sans" font-size="42.0" fill="#000000" transform="matrix(1.00, 0.00, -0.00, -1.00, 816.2, 437.7)">s</text><text xml:space="preserve" font-family="GillSans,Gill Sans" font-size="42.0" fill="#000000" transform="matrix(1.00, 0.00, -0.00, -1.00, 832.3, 437.7)">o</text><text xml:space="preserve" font-family="GillSans,Gill Sans" font-size="42.0" fill="#000000" transform="matrix(1.00, 0.00, -0.00, -1.00, 855.5, 437.7)">n</text><text xml:space="preserve" font-family="GillSans,Gill Sans" font-size="42.0" fill="#000000" transform="matrix(1.00, 0.00, -0.00, -1.00, 876.5, 437.7)">a</text><text xml:space="preserve" font-family="GillSans,Gill Sans" font-size="42.0" fill="#000000" transform="matrix(1.00, 0.00, -0.00, -1.00, 894.4, 437.7)">l</text><text xml:space="preserve" font-family="GillSans,Gill Sans" font-size="42.0" fill="#000000" transform="matrix(1.00, 0.00, -0.00, -1.00, 903.6, 437.7)">,</text><text xml:space="preserve" font-family="GillSans,Gill Sans" font-size="42.0" fill="#000000" transform="matrix(1.00, 0.00, -0.00, -1.00, 908.6, 437.7)"> </text><text xml:space="preserve" font-family="GillSans,Gill Sans" font-size="42.0" fill="#000000" transform="matrix(1.00, 0.00, -0.00, -1.00, 174.0, 388.7)">b</text><text xml:space="preserve" font-family="GillSans,Gill Sans" font-size="42.0" fill="#000000" transform="matrix(1.00, 0.00, -0.00, -1.00, 195.0, 388.7)">u</text><text xml:space="preserve" font-family="GillSans,Gill Sans" font-size="42.0" fill="#000000" transform="matrix(1.00, 0.00, -0.00, -1.00, 216.0, 388.7)">t</text><text xml:space="preserve" font-family="GillSans,Gill Sans" font-size="42.0" fill="#000000" transform="matrix(1.00, 0.00, -0.00, -1.00, 230.0, 388.7)"> </text><text xml:space="preserve" font-family="GillSans,Gill Sans" font-size="42.0" fill="#000000" transform="matrix(1.00, 0.00, -0.00, -1.00, 241.6, 388.7)">s</text><text xml:space="preserve" font-family="GillSans,Gill Sans" font-size="42.0" fill="#000000" transform="matrix(1.00, 0.00, -0.00, -1.00, 257.8, 388.7)">o</text><text xml:space="preserve" font-family="GillSans,Gill Sans" font-size="42.0" fill="#000000" transform="matrix(1.00, 0.00, -0.00, -1.00, 281.0, 388.7)">m</text><text xml:space="preserve" font-family="GillSans,Gill Sans" font-size="42.0" fill="#000000" transform="matrix(1.00, 0.00, -0.00, -1.00, 313.3, 388.7)">e</text><text xml:space="preserve" font-family="GillSans,Gill Sans" font-size="42.0" fill="#000000" transform="matrix(1.00, 0.00, -0.00, -1.00, 333.5, 388.7)"> </text><text xml:space="preserve" font-family="GillSans,Gill Sans" font-size="42.0" fill="#000000" transform="matrix(1.00, 0.00, -0.00, -1.00, 345.1, 388.7)">b</text><text xml:space="preserve" font-family="GillSans,Gill Sans" font-size="42.0" fill="#000000" transform="matrix(1.00, 0.00, -0.00, -1.00, 366.1, 388.7)">r</text><text xml:space="preserve" font-family="GillSans,Gill Sans" font-size="42.0" fill="#000000" transform="matrix(1.00, 0.00, -0.00, -1.00, 381.9, 388.7)">e</text><text xml:space="preserve" font-family="GillSans,Gill Sans" font-size="42.0" fill="#000000" transform="matrix(1.00, 0.00, -0.00, -1.00, 402.0, 388.7)">e</text><text xml:space="preserve" font-family="GillSans,Gill Sans" font-size="42.0" fill="#000000" transform="matrix(1.00, 0.00, -0.00, -1.00, 422.2, 388.7)">d</text><text xml:space="preserve" font-family="GillSans,Gill Sans" font-size="42.0" fill="#000000" transform="matrix(1.00, 0.00, -0.00, -1.00, 443.6, 388.7)"> </text><text xml:space="preserve" font-family="GillSans,Gill Sans" font-size="42.0" fill="#000000" transform="matrix(1.00, 0.00, -0.00, -1.00, 455.2, 388.7)">i</text><text xml:space="preserve" font-family="GillSans,Gill Sans" font-size="42.0" fill="#000000" transform="matrix(1.00, 0.00, -0.00, -1.00, 464.4, 388.7)">n</text><text xml:space="preserve" font-family="GillSans,Gill Sans" font-size="42.0" fill="#000000" transform="matrix(1.00, 0.00, -0.00, -1.00, 485.4, 388.7)"> </text><text xml:space="preserve" font-family="GillSans,Gill Sans" font-size="42.0" fill="#000000" transform="matrix(1.00, 0.00, -0.00, -1.00, 497.1, 388.7)">s</text><text xml:space="preserve" font-family="GillSans,Gill Sans" font-size="42.0" fill="#000000" transform="matrix(1.00, 0.00, -0.00, -1.00, 513.2, 388.7)">p</text><text xml:space="preserve" font-family="GillSans,Gill Sans" font-size="42.0" fill="#000000" transform="matrix(1.00, 0.00, -0.00, -1.00, 534.2, 388.7)">r</text><text xml:space="preserve" font-family="GillSans,Gill Sans" font-size="42.0" fill="#000000" transform="matrix(1.00, 0.00, -0.00, -1.00, 550.9, 388.7)">i</text><text xml:space="preserve" font-family="GillSans,Gill Sans" font-size="42.0" fill="#000000" transform="matrix(1.00, 0.00, -0.00, -1.00, 560.1, 388.7)">n</text><text xml:space="preserve" font-family="GillSans,Gill Sans" font-size="42.0" fill="#000000" transform="matrix(1.00, 0.00, -0.00, -1.00, 581.1, 388.7)">g</text><text xml:space="preserve" font-family="GillSans,Gill Sans" font-size="42.0" fill="#000000" transform="matrix(1.00, 0.00, -0.00, -1.00, 599.0, 388.7)">,</text><text xml:space="preserve" font-family="GillSans,Gill Sans" font-size="42.0" fill="#000000" transform="matrix(1.00, 0.00, -0.00, -1.00, 604.0, 388.7)"> </text><text xml:space="preserve" font-family="GillSans,Gill Sans" font-size="42.0" fill="#000000" transform="matrix(1.00, 0.00, -0.00, -1.00, 615.7, 388.7)">o</text><text xml:space="preserve" font-family="GillSans,Gill Sans" font-size="42.0" fill="#000000" transform="matrix(1.00, 0.00, -0.00, -1.00, 638.8, 388.7)">t</text><text xml:space="preserve" font-family="GillSans,Gill Sans" font-size="42.0" fill="#000000" transform="matrix(1.00, 0.00, -0.00, -1.00, 652.8, 388.7)">h</text><text xml:space="preserve" font-family="GillSans,Gill Sans" font-size="42.0" fill="#000000" transform="matrix(1.00, 0.00, -0.00, -1.00, 673.8, 388.7)">e</text><text xml:space="preserve" font-family="GillSans,Gill Sans" font-size="42.0" fill="#000000" transform="matrix(1.00, 0.00, -0.00, -1.00, 694.0, 388.7)">r</text><text xml:space="preserve" font-family="GillSans,Gill Sans" font-size="42.0" fill="#000000" transform="matrix(1.00, 0.00, -0.00, -1.00, 710.6, 388.7)">s</text><text xml:space="preserve" font-family="GillSans,Gill Sans" font-size="42.0" fill="#000000" transform="matrix(1.00, 0.00, -0.00, -1.00, 726.7, 388.7)"> </text><text xml:space="preserve" font-family="GillSans,Gill Sans" font-size="42.0" fill="#000000" transform="matrix(1.00, 0.00, -0.00, -1.00, 738.4, 388.7)">i</text><text xml:space="preserve" font-family="GillSans,Gill Sans" font-size="42.0" fill="#000000" transform="matrix(1.00, 0.00, -0.00, -1.00, 747.6, 388.7)">n</text><text xml:space="preserve" font-family="GillSans,Gill Sans" font-size="42.0" fill="#000000" transform="matrix(1.00, 0.00, -0.00, -1.00, 768.6, 388.7)"> </text><text xml:space="preserve" font-family="GillSans,Gill Sans" font-size="42.0" fill="#000000" transform="matrix(1.00, 0.00, -0.00, -1.00, 780.3, 388.7)">t</text><text xml:space="preserve" font-family="GillSans,Gill Sans" font-size="42.0" fill="#000000" transform="matrix(1.00, 0.00, -0.00, -1.00, 794.3, 388.7)">h</text><text xml:space="preserve" font-family="GillSans,Gill Sans" font-size="42.0" fill="#000000" transform="matrix(1.00, 0.00, -0.00, -1.00, 815.3, 388.7)">e</text><text xml:space="preserve" font-family="GillSans,Gill Sans" font-size="42.0" fill="#000000" transform="matrix(1.00, 0.00, -0.00, -1.00, 835.4, 388.7)"> </text><text xml:space="preserve" font-family="GillSans,Gill Sans" font-size="42.0" fill="#000000" transform="matrix(1.00, 0.00, -0.00, -1.00, 847.0, 388.7)">f</text><text xml:space="preserve" font-family="GillSans,Gill Sans" font-size="42.0" fill="#000000" transform="matrix(1.00, 0.00, -0.00, -1.00, 857.5, 388.7)">a</text><text xml:space="preserve" font-family="GillSans,Gill Sans" font-size="42.0" fill="#000000" transform="matrix(1.00, 0.00, -0.00, -1.00, 875.5, 388.7)">l</text><text xml:space="preserve" font-family="GillSans,Gill Sans" font-size="42.0" fill="#000000" transform="matrix(1.00, 0.00, -0.00, -1.00, 884.7, 388.7)">l</text><image xlink:href="../../8C4DBC67-066F-466A-80AB-F2A63145693E/assets/C7CB9838826631D8795B19EB12A4B771.png" width="480.00" height="420.00" transform="matrix(0.40, 0.00, -0.00, -0.40, 213.0, 267.0)"></image><text xml:space="preserve" font-family="GillSans-Italic,Gill Sans" font-style="italic" font-size="24.0" fill="#000000" transform="matrix(1.00, 0.00, -0.00, -1.00, 209.6, 73.0)">C</text><text xml:space="preserve" font-family="GillSans-Italic,Gill Sans" font-style="italic" font-size="24.0" fill="#000000" transform="matrix(1.00, 0.00, -0.00, -1.00, 222.8, 73.0)">o</text><text xml:space="preserve" font-family="GillSans-Italic,Gill Sans" font-style="italic" font-size="24.0" fill="#000000" transform="matrix(1.00, 0.00, -0.00, -1.00, 233.6, 73.0)">p</text><text xml:space="preserve" font-family="GillSans-Italic,Gill Sans" font-style="italic" font-size="24.0" fill="#000000" transform="matrix(1.00, 0.00, -0.00, -1.00, 245.4, 73.0)">h</text><text xml:space="preserve" font-family="GillSans-Italic,Gill Sans" font-style="italic" font-size="24.0" fill="#000000" transform="matrix(1.00, 0.00, -0.00, -1.00, 256.6, 73.0)">o</text><text xml:space="preserve" font-family="GillSans-Italic,Gill Sans" font-style="italic" font-size="24.0" fill="#000000" transform="matrix(1.00, 0.00, -0.00, -1.00, 267.4, 73.0)">s</text><text xml:space="preserve" font-family="GillSans-Italic,Gill Sans" font-style="italic" font-size="24.0" fill="#000000" transform="matrix(1.00, 0.00, -0.00, -1.00, 275.9, 73.0)">a</text><text xml:space="preserve" font-family="GillSans-Italic,Gill Sans" font-style="italic" font-size="24.0" fill="#000000" transform="matrix(1.00, 0.00, -0.00, -1.00, 287.2, 73.0)">u</text><text xml:space="preserve" font-family="GillSans-Italic,Gill Sans" font-style="italic" font-size="24.0" fill="#000000" transform="matrix(1.00, 0.00, -0.00, -1.00, 298.4, 73.0)">r</text><text xml:space="preserve" font-family="GillSans-Italic,Gill Sans" font-style="italic" font-size="24.0" fill="#000000" transform="matrix(1.00, 0.00, -0.00, -1.00, 305.9, 73.0)">u</text><text xml:space="preserve" font-family="GillSans-Italic,Gill Sans" font-style="italic" font-size="24.0" fill="#000000" transform="matrix(1.00, 0.00, -0.00, -1.00, 317.2, 73.0)">s</text><text xml:space="preserve" font-family="GillSans-Italic,Gill Sans" font-style="italic" font-size="24.0" fill="#000000" transform="matrix(1.00, 0.00, -0.00, -1.00, 325.7, 73.0)"> </text><text xml:space="preserve" font-family="GillSans-Italic,Gill Sans" font-style="italic" font-size="24.0" fill="#000000" transform="matrix(1.00, 0.00, -0.00, -1.00, 332.4, 73.0)">t</text><text xml:space="preserve" font-family="GillSans-Italic,Gill Sans" font-style="italic" font-size="24.0" fill="#000000" transform="matrix(1.00, 0.00, -0.00, -1.00, 339.1, 73.0)">e</text><text xml:space="preserve" font-family="GillSans-Italic,Gill Sans" font-style="italic" font-size="24.0" fill="#000000" transform="matrix(1.00, 0.00, -0.00, -1.00, 349.6, 73.0)">x</text><text xml:space="preserve" font-family="GillSans-Italic,Gill Sans" font-style="italic" font-size="24.0" fill="#000000" transform="matrix(1.00, 0.00, -0.00, -1.00, 359.8, 73.0)">a</text><text xml:space="preserve" font-family="GillSans-Italic,Gill Sans" font-style="italic" font-size="24.0" fill="#000000" transform="matrix(1.00, 0.00, -0.00, -1.00, 371.1, 73.0)">n</text><text xml:space="preserve" font-family="GillSans-Italic,Gill Sans" font-style="italic" font-size="24.0" fill="#000000" transform="matrix(1.00, 0.00, -0.00, -1.00, 382.4, 73.0)">u</text><text xml:space="preserve" font-family="GillSans-Italic,Gill Sans" font-style="italic" font-size="24.0" fill="#000000" transform="matrix(1.00, 0.00, -0.00, -1.00, 393.6, 73.0)">s</text><text xml:space="preserve" font-family="GillSans-Italic,Gill Sans" font-style="italic" font-size="24.0" fill="#000000" transform="matrix(1.00, 0.00, -0.00, -1.00, 402.9, 73.0)">,</text><text xml:space="preserve" font-family="GillSans,Gill Sans" font-size="24.0" fill="#000000" transform="matrix(1.00, 0.00, -0.00, -1.00, 229.1, 45.0)">a</text><text xml:space="preserve" font-family="GillSans,Gill Sans" font-size="24.0" fill="#000000" transform="matrix(1.00, 0.00, -0.00, -1.00, 239.3, 45.0)"> </text><text xml:space="preserve" font-family="GillSans,Gill Sans" font-size="24.0" fill="#000000" transform="matrix(1.00, 0.00, -0.00, -1.00, 246.0, 45.0)">s</text><text xml:space="preserve" font-family="GillSans,Gill Sans" font-size="24.0" fill="#000000" transform="matrix(1.00, 0.00, -0.00, -1.00, 255.2, 45.0)">p</text><text xml:space="preserve" font-family="GillSans,Gill Sans" font-size="24.0" fill="#000000" transform="matrix(1.00, 0.00, -0.00, -1.00, 267.2, 45.0)">r</text><text xml:space="preserve" font-family="GillSans,Gill Sans" font-size="24.0" fill="#000000" transform="matrix(1.00, 0.00, -0.00, -1.00, 276.7, 45.0)">i</text><text xml:space="preserve" font-family="GillSans,Gill Sans" font-size="24.0" fill="#000000" transform="matrix(1.00, 0.00, -0.00, -1.00, 282.0, 45.0)">n</text><text xml:space="preserve" font-family="GillSans,Gill Sans" font-size="24.0" fill="#000000" transform="matrix(1.00, 0.00, -0.00, -1.00, 294.0, 45.0)">g</text><text xml:space="preserve" font-family="GillSans,Gill Sans" font-size="24.0" fill="#000000" transform="matrix(1.00, 0.00, -0.00, -1.00, 304.2, 45.0)"> </text><text xml:space="preserve" font-family="GillSans,Gill Sans" font-size="24.0" fill="#000000" transform="matrix(1.00, 0.00, -0.00, -1.00, 310.9, 45.0)">b</text><text xml:space="preserve" font-family="GillSans,Gill Sans" font-size="24.0" fill="#000000" transform="matrix(1.00, 0.00, -0.00, -1.00, 322.9, 45.0)">r</text><text xml:space="preserve" font-family="GillSans,Gill Sans" font-size="24.0" fill="#000000" transform="matrix(1.00, 0.00, -0.00, -1.00, 331.9, 45.0)">e</text><text xml:space="preserve" font-family="GillSans,Gill Sans" font-size="24.0" fill="#000000" transform="matrix(1.00, 0.00, -0.00, -1.00, 343.4, 45.0)">e</text><text xml:space="preserve" font-family="GillSans,Gill Sans" font-size="24.0" fill="#000000" transform="matrix(1.00, 0.00, -0.00, -1.00, 354.9, 45.0)">d</text><text xml:space="preserve" font-family="GillSans,Gill Sans" font-size="24.0" fill="#000000" transform="matrix(1.00, 0.00, -0.00, -1.00, 367.1, 45.0)">e</text><text xml:space="preserve" font-family="GillSans,Gill Sans" font-size="24.0" fill="#000000" transform="matrix(1.00, 0.00, -0.00, -1.00, 378.6, 45.0)">r</text><image xlink:href="../../8C4DBC67-066F-466A-80AB-F2A63145693E/assets/DE33B1962B79C2951E34B32F44B050A1.png" width="500.00" height="363.00" transform="matrix(0.50, 0.00, -0.00, -0.50, 588.0, 266.0)"></image><text xml:space="preserve" font-family="GillSans-Italic,Gill Sans" font-style="italic" font-size="24.0" fill="#000000" transform="matrix(1.00, 0.00, -0.00, -1.00, 630.8, 65.5)">S</text><text xml:space="preserve" font-family="GillSans-Italic,Gill Sans" font-style="italic" font-size="24.0" fill="#000000" transform="matrix(1.00, 0.00, -0.00, -1.00, 641.8, 65.5)">c</text><text xml:space="preserve" font-family="GillSans-Italic,Gill Sans" font-style="italic" font-size="24.0" fill="#000000" transform="matrix(1.00, 0.00, -0.00, -1.00, 651.0, 65.5)">e</text><text xml:space="preserve" font-family="GillSans-Italic,Gill Sans" font-style="italic" font-size="24.0" fill="#000000" transform="matrix(1.00, 0.00, -0.00, -1.00, 661.6, 65.5)">l</text><text xml:space="preserve" font-family="GillSans-Italic,Gill Sans" font-style="italic" font-size="24.0" fill="#000000" transform="matrix(1.00, 0.00, -0.00, -1.00, 666.1, 65.5)">o</text><text xml:space="preserve" font-family="GillSans-Italic,Gill Sans" font-style="italic" font-size="24.0" fill="#000000" transform="matrix(1.00, 0.00, -0.00, -1.00, 676.8, 65.5)">p</text><text xml:space="preserve" font-family="GillSans-Italic,Gill Sans" font-style="italic" font-size="24.0" fill="#000000" transform="matrix(1.00, 0.00, -0.00, -1.00, 688.6, 65.5)">o</text><text xml:space="preserve" font-family="GillSans-Italic,Gill Sans" font-style="italic" font-size="24.0" fill="#000000" transform="matrix(1.00, 0.00, -0.00, -1.00, 699.4, 65.5)">r</text><text xml:space="preserve" font-family="GillSans-Italic,Gill Sans" font-style="italic" font-size="24.0" fill="#000000" transform="matrix(1.00, 0.00, -0.00, -1.00, 706.9, 65.5)">u</text><text xml:space="preserve" font-family="GillSans-Italic,Gill Sans" font-style="italic" font-size="24.0" fill="#000000" transform="matrix(1.00, 0.00, -0.00, -1.00, 718.1, 65.5)">s</text><text xml:space="preserve" font-family="GillSans-Italic,Gill Sans" font-style="italic" font-size="24.0" fill="#000000" transform="matrix(1.00, 0.00, -0.00, -1.00, 726.6, 65.5)"> </text><text xml:space="preserve" font-family="GillSans-Italic,Gill Sans" font-style="italic" font-size="24.0" fill="#000000" transform="matrix(1.00, 0.00, -0.00, -1.00, 733.3, 65.5)">j</text><text xml:space="preserve" font-family="GillSans-Italic,Gill Sans" font-style="italic" font-size="24.0" fill="#000000" transform="matrix(1.00, 0.00, -0.00, -1.00, 737.8, 65.5)">a</text><text xml:space="preserve" font-family="GillSans-Italic,Gill Sans" font-style="italic" font-size="24.0" fill="#000000" transform="matrix(1.00, 0.00, -0.00, -1.00, 749.1, 65.5)">r</text><text xml:space="preserve" font-family="GillSans-Italic,Gill Sans" font-style="italic" font-size="24.0" fill="#000000" transform="matrix(1.00, 0.00, -0.00, -1.00, 756.6, 65.5)">r</text><text xml:space="preserve" font-family="GillSans-Italic,Gill Sans" font-style="italic" font-size="24.0" fill="#000000" transform="matrix(1.00, 0.00, -0.00, -1.00, 763.6, 65.5)">o</text><text xml:space="preserve" font-family="GillSans-Italic,Gill Sans" font-style="italic" font-size="24.0" fill="#000000" transform="matrix(1.00, 0.00, -0.00, -1.00, 773.9, 65.5)">v</text><text xml:space="preserve" font-family="GillSans-Italic,Gill Sans" font-style="italic" font-size="24.0" fill="#000000" transform="matrix(1.00, 0.00, -0.00, -1.00, 782.9, 65.5)">i</text><text xml:space="preserve" font-family="GillSans-Italic,Gill Sans" font-style="italic" font-size="24.0" fill="#000000" transform="matrix(1.00, 0.00, -0.00, -1.00, 787.4, 65.5)">,</text><text xml:space="preserve" font-family="GillSans,Gill Sans" font-size="24.0" fill="#000000" transform="matrix(1.00, 0.00, -0.00, -1.00, 647.7, 37.5)">a</text><text xml:space="preserve" font-family="GillSans,Gill Sans" font-size="24.0" fill="#000000" transform="matrix(1.00, 0.00, -0.00, -1.00, 657.9, 37.5)"> </text><text xml:space="preserve" font-family="GillSans,Gill Sans" font-size="24.0" fill="#000000" transform="matrix(1.00, 0.00, -0.00, -1.00, 664.6, 37.5)">f</text><text xml:space="preserve" font-family="GillSans,Gill Sans" font-size="24.0" fill="#000000" transform="matrix(1.00, 0.00, -0.00, -1.00, 670.6, 37.5)">a</text><text xml:space="preserve" font-family="GillSans,Gill Sans" font-size="24.0" fill="#000000" transform="matrix(1.00, 0.00, -0.00, -1.00, 680.8, 37.5)">l</text><text xml:space="preserve" font-family="GillSans,Gill Sans" font-size="24.0" fill="#000000" transform="matrix(1.00, 0.00, -0.00, -1.00, 686.1, 37.5)">l</text><text xml:space="preserve" font-family="GillSans,Gill Sans" font-size="24.0" fill="#000000" transform="matrix(1.00, 0.00, -0.00, -1.00, 691.4, 37.5)"> </text><text xml:space="preserve" font-family="GillSans,Gill Sans" font-size="24.0" fill="#000000" transform="matrix(1.00, 0.00, -0.00, -1.00, 698.0, 37.5)">b</text><text xml:space="preserve" font-family="GillSans,Gill Sans" font-size="24.0" fill="#000000" transform="matrix(1.00, 0.00, -0.00, -1.00, 710.0, 37.5)">r</text><text xml:space="preserve" font-family="GillSans,Gill Sans" font-size="24.0" fill="#000000" transform="matrix(1.00, 0.00, -0.00, -1.00, 719.1, 37.5)">e</text><text xml:space="preserve" font-family="GillSans,Gill Sans" font-size="24.0" fill="#000000" transform="matrix(1.00, 0.00, -0.00, -1.00, 730.6, 37.5)">e</text><text xml:space="preserve" font-family="GillSans,Gill Sans" font-size="24.0" fill="#000000" transform="matrix(1.00, 0.00, -0.00, -1.00, 742.0, 37.5)">d</text><text xml:space="preserve" font-family="GillSans,Gill Sans" font-size="24.0" fill="#000000" transform="matrix(1.00, 0.00, -0.00, -1.00, 754.3, 37.5)">e</text><text xml:space="preserve" font-family="GillSans,Gill Sans" font-size="24.0" fill="#000000" transform="matrix(1.00, 0.00, -0.00, -1.00, 765.8, 37.5)">r</text></g></svg>