<?xml version="1.0" encoding="UTF-8" standalone="no"?><svg xmlns="http://www.w3.org/2000/svg" xmlns:xlink="http://www.w3.org/1999/xlink" clip-rule="evenodd" stroke-miterlimit="10" viewBox="0 0 720 540"><desc>SVG generated by Keynote</desc><defs></defs><g transform="matrix(1.00, 0.00, -0.00, -1.00, 0.0, 540.0)"><path d="M 0.0 540.0 L 720.0 540.0 L 720.0 0.0 L 0.0 0.0 Z M 0.0 540.0 " fill="#FEFFFF"></path><text xml:space="preserve" font-family="ArialMT,Arial" font-size="44.0" fill="#000000" transform="matrix(1.00, 0.00, -0.00, -1.00, 84.9, 484.8)">S</text><text xml:space="preserve" font-family="ArialMT,Arial" font-size="44.0" fill="#000000" transform="matrix(1.00, 0.00, -0.00, -1.00, 114.3, 484.8)">y</text><text xml:space="preserve" font-family="ArialMT,Arial" font-size="44.0" fill="#000000" transform="matrix(1.00, 0.00, -0.00, -1.00, 136.3, 484.8)">s</text><text xml:space="preserve" font-family="ArialMT,Arial" font-size="44.0" fill="#000000" transform="matrix(1.00, 0.00, -0.00, -1.00, 158.3, 484.8)">t</text><text xml:space="preserve" font-family="ArialMT,Arial" font-size="44.0" fill="#000000" transform="matrix(1.00, 0.00, -0.00, -1.00, 170.5, 484.8)">e</text><text xml:space="preserve" font-family="ArialMT,Arial" font-size="44.0" fill="#000000" transform="matrix(1.00, 0.00, -0.00, -1.00, 195.0, 484.8)">m</text><text xml:space="preserve" font-family="ArialMT,Arial" font-size="44.0" fill="#000000" transform="matrix(1.00, 0.00, -0.00, -1.00, 231.6, 484.8)">a</text><text xml:space="preserve" font-family="ArialMT,Arial" font-size="44.0" fill="#000000" transform="matrix(1.00, 0.00, -0.00, -1.00, 256.1, 484.8)">t</text><text xml:space="preserve" font-family="ArialMT,Arial" font-size="44.0" fill="#000000" transform="matrix(1.00, 0.00, -0.00, -1.00, 268.3, 484.8)">i</text><text xml:space="preserve" font-family="ArialMT,Arial" font-size="44.0" fill="#000000" transform="matrix(1.00, 0.00, -0.00, -1.00, 278.1, 484.8)">c</text><text xml:space="preserve" font-family="ArialMT,Arial" font-size="44.0" fill="#000000" transform="matrix(1.00, 0.00, -0.00, -1.00, 300.1, 484.8)">s</text><text xml:space="preserve" font-family="ArialMT,Arial" font-size="44.0" fill="#000000" transform="matrix(1.00, 0.00, -0.00, -1.00, 322.1, 484.8)"> </text><text xml:space="preserve" font-family="ArialMT,Arial" font-size="44.0" fill="#000000" transform="matrix(1.00, 0.00, -0.00, -1.00, 334.3, 484.8)">o</text><text xml:space="preserve" font-family="ArialMT,Arial" font-size="44.0" fill="#000000" transform="matrix(1.00, 0.00, -0.00, -1.00, 358.8, 484.8)">f</text><text xml:space="preserve" font-family="ArialMT,Arial" font-size="44.0" fill="#000000" transform="matrix(1.00, 0.00, -0.00, -1.00, 371.0, 484.8)"> </text><text xml:space="preserve" font-family="ArialMT,Arial" font-size="44.0" fill="#000000" transform="matrix(1.00, 0.00, -0.00, -1.00, 383.2, 484.8)">l</text><text xml:space="preserve" font-family="ArialMT,Arial" font-size="44.0" fill="#000000" transform="matrix(1.00, 0.00, -0.00, -1.00, 393.0, 484.8)">i</text><text xml:space="preserve" font-family="ArialMT,Arial" font-size="44.0" fill="#000000" transform="matrix(1.00, 0.00, -0.00, -1.00, 402.8, 484.8)">v</text><text xml:space="preserve" font-family="ArialMT,Arial" font-size="44.0" fill="#000000" transform="matrix(1.00, 0.00, -0.00, -1.00, 424.8, 484.8)">i</text><text xml:space="preserve" font-family="ArialMT,Arial" font-size="44.0" fill="#000000" transform="matrix(1.00, 0.00, -0.00, -1.00, 434.6, 484.8)">n</text><text xml:space="preserve" font-family="ArialMT,Arial" font-size="44.0" fill="#000000" transform="matrix(1.00, 0.00, -0.00, -1.00, 459.0, 484.8)">g</text><text xml:space="preserve" font-family="ArialMT,Arial" font-size="44.0" fill="#000000" transform="matrix(1.00, 0.00, -0.00, -1.00, 483.5, 484.8)"> </text><text xml:space="preserve" font-family="ArialMT,Arial" font-size="44.0" fill="#000000" transform="matrix(1.00, 0.00, -0.00, -1.00, 495.7, 484.8)">“</text><text xml:space="preserve" font-family="ArialMT,Arial" font-size="44.0" fill="#000000" transform="matrix(1.00, 0.00, -0.00, -1.00, 510.4, 484.8)">h</text><text xml:space="preserve" font-family="ArialMT,Arial" font-size="44.0" fill="#000000" transform="matrix(1.00, 0.00, -0.00, -1.00, 534.9, 484.8)">e</text><text xml:space="preserve" font-family="ArialMT,Arial" font-size="44.0" fill="#000000" transform="matrix(1.00, 0.00, -0.00, -1.00, 559.4, 484.8)">r</text><text xml:space="preserve" font-family="ArialMT,Arial" font-size="44.0" fill="#000000" transform="matrix(1.00, 0.00, -0.00, -1.00, 574.0, 484.8)">p</text><text xml:space="preserve" font-family="ArialMT,Arial" font-size="44.0" fill="#000000" transform="matrix(1.00, 0.00, -0.00, -1.00, 598.5, 484.8)">s</text><text xml:space="preserve" font-family="ArialMT,Arial" font-size="44.0" fill="#000000" transform="matrix(1.00, 0.00, -0.00, -1.00, 620.5, 484.8)">”</text><path d="M -0.0 0.0 L 272.0 0.0 " fill="none" stroke="#000000" stroke-width="6.00" stroke-linejoin="round" transform="matrix(0.00, -1.00, -1.00, 0.00, 75.0, 303.0)"></path><path d="M -0.2 -0.0 L 40.8 -0.0 " fill="none" stroke="#000000" stroke-width="6.00" stroke-linejoin="round" transform="matrix(0.00, 1.00, 1.00, 0.00, 660.0, 262.2)"></path><path d="M -0.1 0.0 L 85.9 0.0 " fill="none" stroke="#000000" stroke-width="6.00" stroke-linejoin="round" transform="matrix(0.00, 1.00, 1.00, 0.00, 140.0, 217.1)"></path><path d="M 0.4 0.0 L 37.4 0.0 " fill="none" stroke="#000000" stroke-width="6.00" stroke-linejoin="round" transform="matrix(0.00, 1.00, 1.00, 0.00, 270.0, 265.6)"></path><path d="M 0.4 0.0 L 30.4 0.0 " fill="none" stroke="#000000" stroke-width="6.00" stroke-linejoin="round" transform="matrix(0.00, 1.00, 1.00, 0.00, 205.0, 268.6)"></path><path d="M 0.3 0.0 L 190.3 0.0 " fill="none" stroke="#000000" stroke-width="6.00" stroke-linejoin="round" transform="matrix(0.00, 1.00, 1.00, 0.00, 335.0, 112.7)"></path><path d="M 0.4 -0.0 L 42.4 -0.0 " fill="none" stroke="#000000" stroke-width="6.00" stroke-linejoin="round" transform="matrix(0.00, 1.00, 1.00, 0.00, 400.0, 260.6)"></path><path d="M -0.3 0.0 L 76.7 0.0 " fill="none" stroke="#000000" stroke-width="6.00" stroke-linejoin="round" transform="matrix(0.00, 1.00, 1.00, 0.00, 530.0, 226.3)"></path><path d="M -0.1 0.0 L 41.9 0.0 " fill="none" stroke="#000000" stroke-width="6.00" stroke-linejoin="round" transform="matrix(0.00, 1.00, 1.00, 0.00, 465.0, 261.1)"></path><path d="M 0.4 0.0 L 33.4 0.0 " fill="none" stroke="#000000" stroke-width="6.00" stroke-linejoin="round" transform="matrix(0.00, 1.00, 1.00, 0.00, 595.0, 267.6)"></path><text xml:space="preserve" font-family="ArialMT,Arial" font-size="24.0" fill="#000000" transform="matrix(0.00, 1.00, 1.00, -0.00, 83.1, 312.2)">L</text><text xml:space="preserve" font-family="ArialMT,Arial" font-size="24.0" fill="#000000" transform="matrix(0.00, 1.00, 1.00, -0.00, 83.1, 325.6)">u</text><text xml:space="preserve" font-family="ArialMT,Arial" font-size="24.0" fill="#000000" transform="matrix(0.00, 1.00, 1.00, -0.00, 83.1, 338.9)">n</text><text xml:space="preserve" font-family="ArialMT,Arial" font-size="24.0" fill="#000000" transform="matrix(0.00, 1.00, 1.00, -0.00, 83.1, 352.3)">g</text><text xml:space="preserve" font-family="ArialMT,Arial" font-size="24.0" fill="#000000" transform="matrix(0.00, 1.00, 1.00, -0.00, 83.1, 365.6)">f</text><text xml:space="preserve" font-family="ArialMT,Arial" font-size="24.0" fill="#000000" transform="matrix(0.00, 1.00, 1.00, -0.00, 83.1, 372.3)">i</text><text xml:space="preserve" font-family="ArialMT,Arial" font-size="24.0" fill="#000000" transform="matrix(0.00, 1.00, 1.00, -0.00, 83.1, 377.6)">s</text><text xml:space="preserve" font-family="ArialMT,Arial" font-size="24.0" fill="#000000" transform="matrix(0.00, 1.00, 1.00, -0.00, 83.1, 389.6)">h</text><text xml:space="preserve" font-family="ArialMT,Arial" font-size="24.0" fill="#000000" transform="matrix(0.00, 1.00, 1.00, -0.00, 148.1, 311.3)">G</text><text xml:space="preserve" font-family="ArialMT,Arial" font-size="24.0" fill="#000000" transform="matrix(0.00, 1.00, 1.00, -0.00, 148.1, 329.9)">y</text><text xml:space="preserve" font-family="ArialMT,Arial" font-size="24.0" fill="#000000" transform="matrix(0.00, 1.00, 1.00, -0.00, 148.1, 341.9)">m</text><text xml:space="preserve" font-family="ArialMT,Arial" font-size="24.0" fill="#000000" transform="matrix(0.00, 1.00, 1.00, -0.00, 148.1, 361.9)">n</text><text xml:space="preserve" font-family="ArialMT,Arial" font-size="24.0" fill="#000000" transform="matrix(0.00, 1.00, 1.00, -0.00, 148.1, 375.3)">o</text><text xml:space="preserve" font-family="ArialMT,Arial" font-size="24.0" fill="#000000" transform="matrix(0.00, 1.00, 1.00, -0.00, 148.1, 388.6)">p</text><text xml:space="preserve" font-family="ArialMT,Arial" font-size="24.0" fill="#000000" transform="matrix(0.00, 1.00, 1.00, -0.00, 148.1, 402.0)">h</text><text xml:space="preserve" font-family="ArialMT,Arial" font-size="24.0" fill="#000000" transform="matrix(0.00, 1.00, 1.00, -0.00, 148.1, 415.3)">i</text><text xml:space="preserve" font-family="ArialMT,Arial" font-size="24.0" fill="#000000" transform="matrix(0.00, 1.00, 1.00, -0.00, 148.1, 420.7)">o</text><text xml:space="preserve" font-family="ArialMT,Arial" font-size="24.0" fill="#000000" transform="matrix(0.00, 1.00, 1.00, -0.00, 148.1, 434.0)">n</text><text xml:space="preserve" font-family="ArialMT,Arial" font-size="24.0" fill="#000000" transform="matrix(0.00, 1.00, 1.00, -0.00, 148.1, 447.4)">a</text><text xml:space="preserve" font-family="ArialMT,Arial" font-size="24.0" fill="#000000" transform="matrix(0.00, 1.00, 1.00, -0.00, 213.1, 311.3)">A</text><text xml:space="preserve" font-family="ArialMT,Arial" font-size="24.0" fill="#000000" transform="matrix(0.00, 1.00, 1.00, -0.00, 213.1, 327.3)">n</text><text xml:space="preserve" font-family="ArialMT,Arial" font-size="24.0" fill="#000000" transform="matrix(0.00, 1.00, 1.00, -0.00, 213.1, 340.6)">u</text><text xml:space="preserve" font-family="ArialMT,Arial" font-size="24.0" fill="#000000" transform="matrix(0.00, 1.00, 1.00, -0.00, 213.1, 354.0)">r</text><text xml:space="preserve" font-family="ArialMT,Arial" font-size="24.0" fill="#000000" transform="matrix(0.00, 1.00, 1.00, -0.00, 213.1, 362.0)">a</text><text xml:space="preserve" font-family="ArialMT,Arial" font-size="24.0" fill="#000000" transform="matrix(0.00, 1.00, 1.00, -0.00, 278.1, 311.3)">C</text><text xml:space="preserve" font-family="ArialMT,Arial" font-size="24.0" fill="#000000" transform="matrix(0.00, 1.00, 1.00, -0.00, 278.1, 328.6)">a</text><text xml:space="preserve" font-family="ArialMT,Arial" font-size="24.0" fill="#000000" transform="matrix(0.00, 1.00, 1.00, -0.00, 278.1, 342.0)">u</text><text xml:space="preserve" font-family="ArialMT,Arial" font-size="24.0" fill="#000000" transform="matrix(0.00, 1.00, 1.00, -0.00, 278.1, 355.3)">d</text><text xml:space="preserve" font-family="ArialMT,Arial" font-size="24.0" fill="#000000" transform="matrix(0.00, 1.00, 1.00, -0.00, 278.1, 368.7)">a</text><text xml:space="preserve" font-family="ArialMT,Arial" font-size="24.0" fill="#000000" transform="matrix(0.00, 1.00, 1.00, -0.00, 278.1, 382.0)">t</text><text xml:space="preserve" font-family="ArialMT,Arial" font-size="24.0" fill="#000000" transform="matrix(0.00, 1.00, 1.00, -0.00, 278.1, 388.7)">a</text><text xml:space="preserve" font-family="ArialMT,Arial" font-size="24.0" fill="#000000" transform="matrix(0.00, 1.00, 1.00, -0.00, 343.1, 311.3)">M</text><text xml:space="preserve" font-family="ArialMT,Arial" font-size="24.0" fill="#000000" transform="matrix(0.00, 1.00, 1.00, -0.00, 343.1, 331.3)">a</text><text xml:space="preserve" font-family="ArialMT,Arial" font-size="24.0" fill="#000000" transform="matrix(0.00, 1.00, 1.00, -0.00, 343.1, 344.6)">m</text><text xml:space="preserve" font-family="ArialMT,Arial" font-size="24.0" fill="#000000" transform="matrix(0.00, 1.00, 1.00, -0.00, 343.1, 364.6)">m</text><text xml:space="preserve" font-family="ArialMT,Arial" font-size="24.0" fill="#000000" transform="matrix(0.00, 1.00, 1.00, -0.00, 343.1, 384.6)">a</text><text xml:space="preserve" font-family="ArialMT,Arial" font-size="24.0" fill="#000000" transform="matrix(0.00, 1.00, 1.00, -0.00, 343.1, 397.9)">l</text><text xml:space="preserve" font-family="ArialMT,Arial" font-size="24.0" fill="#000000" transform="matrix(0.00, 1.00, 1.00, -0.00, 343.1, 403.3)">i</text><text xml:space="preserve" font-family="ArialMT,Arial" font-size="24.0" fill="#000000" transform="matrix(0.00, 1.00, 1.00, -0.00, 343.1, 408.6)">a</text><text xml:space="preserve" font-family="ArialMT,Arial" font-size="24.0" fill="#000000" transform="matrix(0.00, 1.00, 1.00, -0.00, 408.1, 311.3)">S</text><text xml:space="preserve" font-family="ArialMT,Arial" font-size="24.0" fill="#000000" transform="matrix(0.00, 1.00, 1.00, -0.00, 408.1, 327.3)">p</text><text xml:space="preserve" font-family="ArialMT,Arial" font-size="24.0" fill="#000000" transform="matrix(0.00, 1.00, 1.00, -0.00, 408.1, 340.6)">h</text><text xml:space="preserve" font-family="ArialMT,Arial" font-size="24.0" fill="#000000" transform="matrix(0.00, 1.00, 1.00, -0.00, 408.1, 354.0)">e</text><text xml:space="preserve" font-family="ArialMT,Arial" font-size="24.0" fill="#000000" transform="matrix(0.00, 1.00, 1.00, -0.00, 408.1, 367.3)">n</text><text xml:space="preserve" font-family="ArialMT,Arial" font-size="24.0" fill="#000000" transform="matrix(0.00, 1.00, 1.00, -0.00, 408.1, 380.7)">o</text><text xml:space="preserve" font-family="ArialMT,Arial" font-size="24.0" fill="#000000" transform="matrix(0.00, 1.00, 1.00, -0.00, 408.1, 394.0)">d</text><text xml:space="preserve" font-family="ArialMT,Arial" font-size="24.0" fill="#000000" transform="matrix(0.00, 1.00, 1.00, -0.00, 408.1, 407.4)">o</text><text xml:space="preserve" font-family="ArialMT,Arial" font-size="24.0" fill="#000000" transform="matrix(0.00, 1.00, 1.00, -0.00, 408.1, 420.7)">n</text><text xml:space="preserve" font-family="ArialMT,Arial" font-size="24.0" fill="#000000" transform="matrix(0.00, 1.00, 1.00, -0.00, 408.1, 434.1)">t</text><text xml:space="preserve" font-family="ArialMT,Arial" font-size="24.0" fill="#000000" transform="matrix(0.00, 1.00, 1.00, -0.00, 408.1, 440.8)">i</text><text xml:space="preserve" font-family="ArialMT,Arial" font-size="24.0" fill="#000000" transform="matrix(0.00, 1.00, 1.00, -0.00, 408.1, 446.1)">d</text><text xml:space="preserve" font-family="ArialMT,Arial" font-size="24.0" fill="#000000" transform="matrix(0.00, 1.00, 1.00, -0.00, 408.1, 459.4)">a</text><text xml:space="preserve" font-family="ArialMT,Arial" font-size="24.0" fill="#000000" transform="matrix(0.00, 1.00, 1.00, -0.00, 473.1, 311.3)">S</text><text xml:space="preserve" font-family="ArialMT,Arial" font-size="24.0" fill="#000000" transform="matrix(0.00, 1.00, 1.00, -0.00, 473.1, 327.3)">q</text><text xml:space="preserve" font-family="ArialMT,Arial" font-size="24.0" fill="#000000" transform="matrix(0.00, 1.00, 1.00, -0.00, 473.1, 340.6)">u</text><text xml:space="preserve" font-family="ArialMT,Arial" font-size="24.0" fill="#000000" transform="matrix(0.00, 1.00, 1.00, -0.00, 473.1, 354.0)">a</text><text xml:space="preserve" font-family="ArialMT,Arial" font-size="24.0" fill="#000000" transform="matrix(0.00, 1.00, 1.00, -0.00, 473.1, 367.3)">m</text><text xml:space="preserve" font-family="ArialMT,Arial" font-size="24.0" fill="#000000" transform="matrix(0.00, 1.00, 1.00, -0.00, 473.1, 387.3)">a</text><text xml:space="preserve" font-family="ArialMT,Arial" font-size="24.0" fill="#000000" transform="matrix(0.00, 1.00, 1.00, -0.00, 473.1, 400.7)">t</text><text xml:space="preserve" font-family="ArialMT,Arial" font-size="24.0" fill="#000000" transform="matrix(0.00, 1.00, 1.00, -0.00, 473.1, 407.3)">a</text><text xml:space="preserve" font-family="ArialMT,Arial" font-size="24.0" fill="#000000" transform="matrix(0.00, 1.00, 1.00, -0.00, 538.1, 311.3)">T</text><text xml:space="preserve" font-family="ArialMT,Arial" font-size="24.0" fill="#000000" transform="matrix(0.00, 1.00, 1.00, -0.00, 538.1, 323.3)">e</text><text xml:space="preserve" font-family="ArialMT,Arial" font-size="24.0" fill="#000000" transform="matrix(0.00, 1.00, 1.00, -0.00, 538.1, 336.6)">s</text><text xml:space="preserve" font-family="ArialMT,Arial" font-size="24.0" fill="#000000" transform="matrix(0.00, 1.00, 1.00, -0.00, 538.1, 348.6)">t</text><text xml:space="preserve" font-family="ArialMT,Arial" font-size="24.0" fill="#000000" transform="matrix(0.00, 1.00, 1.00, -0.00, 538.1, 355.3)">u</text><text xml:space="preserve" font-family="ArialMT,Arial" font-size="24.0" fill="#000000" transform="matrix(0.00, 1.00, 1.00, -0.00, 538.1, 368.6)">d</text><text xml:space="preserve" font-family="ArialMT,Arial" font-size="24.0" fill="#000000" transform="matrix(0.00, 1.00, 1.00, -0.00, 538.1, 382.0)">i</text><text xml:space="preserve" font-family="ArialMT,Arial" font-size="24.0" fill="#000000" transform="matrix(0.00, 1.00, 1.00, -0.00, 538.1, 387.3)">n</text><text xml:space="preserve" font-family="ArialMT,Arial" font-size="24.0" fill="#000000" transform="matrix(0.00, 1.00, 1.00, -0.00, 538.1, 400.7)">e</text><text xml:space="preserve" font-family="ArialMT,Arial" font-size="24.0" fill="#000000" transform="matrix(0.00, 1.00, 1.00, -0.00, 538.1, 414.0)">s</text><text xml:space="preserve" font-family="ArialMT,Arial" font-size="24.0" fill="#000000" transform="matrix(0.00, 1.00, 1.00, -0.00, 603.1, 311.3)">C</text><text xml:space="preserve" font-family="ArialMT,Arial" font-size="24.0" fill="#000000" transform="matrix(0.00, 1.00, 1.00, -0.00, 603.1, 328.6)">r</text><text xml:space="preserve" font-family="ArialMT,Arial" font-size="24.0" fill="#000000" transform="matrix(0.00, 1.00, 1.00, -0.00, 603.1, 336.6)">o</text><text xml:space="preserve" font-family="ArialMT,Arial" font-size="24.0" fill="#000000" transform="matrix(0.00, 1.00, 1.00, -0.00, 603.1, 349.9)">c</text><text xml:space="preserve" font-family="ArialMT,Arial" font-size="24.0" fill="#000000" transform="matrix(0.00, 1.00, 1.00, -0.00, 603.1, 361.9)">o</text><text xml:space="preserve" font-family="ArialMT,Arial" font-size="24.0" fill="#000000" transform="matrix(0.00, 1.00, 1.00, -0.00, 603.1, 375.3)">d</text><text xml:space="preserve" font-family="ArialMT,Arial" font-size="24.0" fill="#000000" transform="matrix(0.00, 1.00, 1.00, -0.00, 603.1, 388.6)">i</text><text xml:space="preserve" font-family="ArialMT,Arial" font-size="24.0" fill="#000000" transform="matrix(0.00, 1.00, 1.00, -0.00, 603.1, 394.0)">l</text><text xml:space="preserve" font-family="ArialMT,Arial" font-size="24.0" fill="#000000" transform="matrix(0.00, 1.00, 1.00, -0.00, 603.1, 399.3)">i</text><text xml:space="preserve" font-family="ArialMT,Arial" font-size="24.0" fill="#000000" transform="matrix(0.00, 1.00, 1.00, -0.00, 603.1, 404.7)">a</text><text xml:space="preserve" font-family="ArialMT,Arial" font-size="24.0" fill="#000000" transform="matrix(0.00, 1.00, 1.00, -0.00, 668.1, 311.3)">A</text><text xml:space="preserve" font-family="ArialMT,Arial" font-size="24.0" fill="#000000" transform="matrix(0.00, 1.00, 1.00, -0.00, 668.1, 326.8)">v</text><text xml:space="preserve" font-family="ArialMT,Arial" font-size="24.0" fill="#000000" transform="matrix(0.00, 1.00, 1.00, -0.00, 668.1, 338.8)">e</text><text xml:space="preserve" font-family="ArialMT,Arial" font-size="24.0" fill="#000000" transform="matrix(0.00, 1.00, 1.00, -0.00, 668.1, 352.2)">s</text><path d="M -0.0 0.0 L 71.0 0.0 " fill="none" stroke="#000000" stroke-width="6.00" stroke-linejoin="round" transform="matrix(1.00, 0.00, 0.00, -1.00, 592.0, 265.0)"></path><path d="M -0.4 -0.0 L 41.6 -0.0 " fill="none" stroke="#000000" stroke-width="6.00" stroke-linejoin="round" transform="matrix(0.00, 1.00, 1.00, 0.00, 627.0, 226.4)"></path><path d="M -0.3 0.0 L 102.7 0.0 " fill="none" stroke="#000000" stroke-width="6.00" stroke-linejoin="round" transform="matrix(1.00, 0.00, 0.00, -1.00, 527.3, 229.0)"></path><path d="M -0.0 0.0 L 71.0 0.0 " fill="none" stroke="#000000" stroke-width="6.00" stroke-linejoin="round" transform="matrix(1.00, 0.00, 0.00, -1.00, 397.0, 262.0)"></path><path d="M -0.5 -0.0 L 107.5 -0.0 " fill="none" stroke="#000000" stroke-width="6.00" stroke-linejoin="round" transform="matrix(0.00, 1.00, 1.00, 0.00, 434.0, 157.5)"></path><path d="M 0.0 0.0 L 149.0 0.0 " fill="none" stroke="#000000" stroke-width="6.00" stroke-linejoin="round" transform="matrix(1.00, 0.00, 0.00, -1.00, 431.0, 159.0)"></path><path d="M -0.5 0.0 L 73.5 0.0 " fill="none" stroke="#000000" stroke-width="6.00" stroke-linejoin="round" transform="matrix(0.00, 1.00, 1.00, 0.00, 577.0, 158.5)"></path><path d="M -0.3 -0.0 L 50.7 -0.0 " fill="none" stroke="#000000" stroke-width="6.00" stroke-linejoin="round" transform="matrix(0.00, 1.00, 1.00, 0.00, 508.0, 111.3)"></path><path d="M 0.0 0.0 L 178.0 0.0 " fill="none" stroke="#000000" stroke-width="6.00" stroke-linejoin="round" transform="matrix(1.00, 0.00, 0.00, -1.00, 332.0, 114.0)"></path><path d="M 0.1 0.0 L 71.1 0.0 " fill="none" stroke="#000000" stroke-width="6.00" stroke-linejoin="round" transform="matrix(1.00, 0.00, 0.00, -1.00, 201.9, 268.0)"></path><path d="M 0.4 0.0 L 47.4 0.0 " fill="none" stroke="#000000" stroke-width="6.00" stroke-linejoin="round" transform="matrix(0.00, 1.00, 1.00, 0.00, 239.0, 222.6)"></path><path d="M -0.2 0.0 L 104.8 0.0 " fill="none" stroke="#000000" stroke-width="6.00" stroke-linejoin="round" transform="matrix(1.00, 0.00, 0.00, -1.00, 137.2, 220.0)"></path><path d="M -0.1 0.0 L 149.9 0.0 " fill="none" stroke="#000000" stroke-width="6.00" stroke-linejoin="round" transform="matrix(0.00, 1.00, 1.00, 0.00, 189.0, 73.1)"></path><path d="M 0.0 0.0 L 238.0 0.0 " fill="none" stroke="#000000" stroke-width="6.00" stroke-linejoin="round" transform="matrix(1.00, 0.00, 0.00, -1.00, 186.0, 75.0)"></path><path d="M 0.2 -0.0 L 43.2 -0.0 " fill="none" stroke="#000000" stroke-width="6.00" stroke-linejoin="round" transform="matrix(0.00, 1.00, 1.00, 0.00, 421.0, 73.8)"></path><path d="M 0.1 -0.0 L 236.1 -0.0 " fill="none" stroke="#000000" stroke-width="6.00" stroke-linejoin="round" transform="matrix(1.00, 0.00, 0.00, -1.00, 71.9, 31.0)"></path><path d="M 0.4 0.0 L 48.4 0.0 " fill="none" stroke="#000000" stroke-width="6.00" stroke-linejoin="round" transform="matrix(0.00, 1.00, 1.00, 0.00, 305.0, 29.6)"></path><path d="M 0.2 0.0 L 43.2 0.0 " fill="none" stroke="#000000" stroke-width="6.00" stroke-linejoin="round" transform="matrix(0.00, 1.00, 1.00, 0.00, 181.0, -10.2)"></path><g opacity="0.60"><g><clipPath id="clip0x6080028bb600"><path d="M 287.0 58.0 L 322.0 58.0 L 322.0 93.0 L 287.0 93.0 Z M 287.0 58.0 "></path></clipPath><g clip-path="url(#clip0x6080028bb600)"><path d="M 315.5 86.5 C 321.5 80.4 321.5 70.6 315.5 64.5 C 309.4 58.5 299.6 58.5 293.5 64.5 C 287.5 70.6 287.5 80.4 293.5 86.5 C 299.6 92.5 309.4 92.5 315.5 86.5 " fill="#4C22B3"></path><path d="M 26.5 4.5 C 32.5 10.6 32.5 20.4 26.5 26.5 C 20.4 32.5 10.6 32.5 4.5 26.5 C -1.5 20.4 -1.5 10.6 4.5 4.5 C 10.6 -1.5 20.4 -1.5 26.5 4.5 " fill="none" stroke="#000000" stroke-width="1.00" stroke-linejoin="round" transform="matrix(1.00, 0.00, 0.00, -1.00, 289.0, 91.0)"></path></g></g></g><text xml:space="preserve" font-family="ArialMT,Arial" font-size="24.0" fill="#9829BD" transform="matrix(1.00, 0.00, -0.00, -1.00, 322.2, 42.9)">T</text><text xml:space="preserve" font-family="ArialMT,Arial" font-size="24.0" fill="#9829BD" transform="matrix(1.00, 0.00, -0.00, -1.00, 334.2, 42.9)">e</text><text xml:space="preserve" font-family="ArialMT,Arial" font-size="24.0" fill="#9829BD" transform="matrix(1.00, 0.00, -0.00, -1.00, 347.5, 42.9)">t</text><text xml:space="preserve" font-family="ArialMT,Arial" font-size="24.0" fill="#9829BD" transform="matrix(1.00, 0.00, -0.00, -1.00, 354.2, 42.9)">r</text><text xml:space="preserve" font-family="ArialMT,Arial" font-size="24.0" fill="#9829BD" transform="matrix(1.00, 0.00, -0.00, -1.00, 362.2, 42.9)">a</text><text xml:space="preserve" font-family="ArialMT,Arial" font-size="24.0" fill="#9829BD" transform="matrix(1.00, 0.00, -0.00, -1.00, 375.6, 42.9)">p</text><text xml:space="preserve" font-family="ArialMT,Arial" font-size="24.0" fill="#9829BD" transform="matrix(1.00, 0.00, -0.00, -1.00, 388.9, 42.9)">o</text><text xml:space="preserve" font-family="ArialMT,Arial" font-size="24.0" fill="#9829BD" transform="matrix(1.00, 0.00, -0.00, -1.00, 402.3, 42.9)">d</text><text xml:space="preserve" font-family="ArialMT,Arial" font-size="24.0" fill="#9829BD" transform="matrix(1.00, 0.00, -0.00, -1.00, 415.6, 42.9)">a</text><g opacity="0.60"><g><clipPath id="clip0x6080028baf40"><path d="M 170.0 203.0 L 206.0 203.0 L 206.0 238.0 L 170.0 238.0 Z M 170.0 203.0 "></path></clipPath><g clip-path="url(#clip0x6080028baf40)"><path d="M 199.5 231.5 C 205.5 225.4 205.5 215.6 199.5 209.5 C 193.4 203.5 183.6 203.5 177.5 209.5 C 171.5 215.6 171.5 225.4 177.5 231.5 C 183.6 237.5 193.4 237.5 199.5 231.5 " fill="#78193D"></path><path d="M 26.5 4.5 C 32.5 10.6 32.5 20.4 26.5 26.5 C 20.4 32.5 10.6 32.5 4.5 26.5 C -1.5 20.4 -1.5 10.6 4.5 4.5 C 10.6 -1.5 20.4 -1.5 26.5 4.5 " fill="none" stroke="#000000" stroke-width="1.00" stroke-linejoin="round" transform="matrix(1.00, 0.00, 0.00, -1.00, 173.0, 236.0)"></path></g></g></g><text xml:space="preserve" font-family="ArialMT,Arial" font-size="24.0" fill="#B82C5D" transform="matrix(1.00, 0.00, -0.00, -1.00, 193.2, 186.9)">L</text><text xml:space="preserve" font-family="ArialMT,Arial" font-size="24.0" fill="#B82C5D" transform="matrix(1.00, 0.00, -0.00, -1.00, 206.6, 186.9)">i</text><text xml:space="preserve" font-family="ArialMT,Arial" font-size="24.0" fill="#B82C5D" transform="matrix(1.00, 0.00, -0.00, -1.00, 211.9, 186.9)">s</text><text xml:space="preserve" font-family="ArialMT,Arial" font-size="24.0" fill="#B82C5D" transform="matrix(1.00, 0.00, -0.00, -1.00, 223.9, 186.9)">s</text><text xml:space="preserve" font-family="ArialMT,Arial" font-size="24.0" fill="#B82C5D" transform="matrix(1.00, 0.00, -0.00, -1.00, 235.9, 186.9)">a</text><text xml:space="preserve" font-family="ArialMT,Arial" font-size="24.0" fill="#B82C5D" transform="matrix(1.00, 0.00, -0.00, -1.00, 249.2, 186.9)">m</text><text xml:space="preserve" font-family="ArialMT,Arial" font-size="24.0" fill="#B82C5D" transform="matrix(1.00, 0.00, -0.00, -1.00, 269.2, 186.9)">p</text><text xml:space="preserve" font-family="ArialMT,Arial" font-size="24.0" fill="#B82C5D" transform="matrix(1.00, 0.00, -0.00, -1.00, 282.6, 186.9)">h</text><text xml:space="preserve" font-family="ArialMT,Arial" font-size="24.0" fill="#B82C5D" transform="matrix(1.00, 0.00, -0.00, -1.00, 295.9, 186.9)">i</text><text xml:space="preserve" font-family="ArialMT,Arial" font-size="24.0" fill="#B82C5D" transform="matrix(1.00, 0.00, -0.00, -1.00, 301.3, 186.9)">b</text><text xml:space="preserve" font-family="ArialMT,Arial" font-size="24.0" fill="#B82C5D" transform="matrix(1.00, 0.00, -0.00, -1.00, 314.6, 186.9)">i</text><text xml:space="preserve" font-family="ArialMT,Arial" font-size="24.0" fill="#B82C5D" transform="matrix(1.00, 0.00, -0.00, -1.00, 320.0, 186.9)">a</text></g></svg>