<?xml version="1.0" encoding="UTF-8" standalone="no"?><svg xmlns="http://www.w3.org/2000/svg" xmlns:xlink="http://www.w3.org/1999/xlink" clip-rule="evenodd" stroke-miterlimit="4.00" viewBox="0 0 1024 768"><desc>SVG generated by Keynote</desc><defs></defs><g transform="matrix(1.00, 0.00, -0.00, -1.00, 0.0, 768.0)"><g><clipPath id="clip-324"><path d="M 0.0 768.0 L 1024.0 768.0 L 1024.0 0.0 L 0.0 0.0 Z M 0.0 768.0 "></path></clipPath><g clip-path="url(#clip-324)"><image xlink:href="../../C9BB2F21-7097-4279-8A02-40FCEE817F8A/assets/A7CD394FAC08D6D1529A4490C94CFB40.jpeg" width="1365.00" height="767.00" transform="matrix(2.81, 0.00, -0.00, -2.82, -1408.0, 1464.0)"></image></g></g><path d="M 0.0 0.0 L 980.0 0.0 L 980.0 726.0 L 0.0 726.0 Z M 0.0 0.0 " fill="none" stroke="#A2A0A6" stroke-width="2.00" transform="matrix(1.00, 0.00, 0.00, -1.00, 22.3, 746.0)"></path><text xml:space="preserve" font-family="HelveticaNeue-Light" font-size="78.0" fill="#5B88A5" transform="matrix(1.00, 0.00, -0.00, -1.00, 118.0, 623.0)">L</text><text xml:space="preserve" font-family="HelveticaNeue-Light" font-size="78.0" fill="#5B88A5" transform="matrix(1.00, 0.00, -0.00, -1.00, 159.9, 623.0)">o</text><text xml:space="preserve" font-family="HelveticaNeue-Light" font-size="78.0" fill="#5B88A5" transform="matrix(1.00, 0.00, -0.00, -1.00, 203.3, 623.0)">c</text><text xml:space="preserve" font-family="HelveticaNeue-Light" font-size="78.0" fill="#5B88A5" transform="matrix(1.00, 0.00, -0.00, -1.00, 243.7, 623.0)">a</text><text xml:space="preserve" font-family="HelveticaNeue-Light" font-size="78.0" fill="#5B88A5" transform="matrix(1.00, 0.00, -0.00, -1.00, 284.2, 623.0)">l</text><text xml:space="preserve" font-family="HelveticaNeue-Light" font-size="78.0" fill="#5B88A5" transform="matrix(1.00, 0.00, -0.00, -1.00, 298.6, 623.0)"> </text><text xml:space="preserve" font-family="HelveticaNeue-Light" font-size="78.0" fill="#5B88A5" transform="matrix(1.00, 0.00, -0.00, -1.00, 320.3, 623.0)">p</text><text xml:space="preserve" font-family="HelveticaNeue-Light" font-size="78.0" fill="#5B88A5" transform="matrix(1.00, 0.00, -0.00, -1.00, 365.1, 623.0)">e</text><text xml:space="preserve" font-family="HelveticaNeue-Light" font-size="78.0" fill="#5B88A5" transform="matrix(1.00, 0.00, -0.00, -1.00, 405.6, 623.0)">o</text><text xml:space="preserve" font-family="HelveticaNeue-Light" font-size="78.0" fill="#5B88A5" transform="matrix(1.00, 0.00, -0.00, -1.00, 449.0, 623.0)">p</text><text xml:space="preserve" font-family="HelveticaNeue-Light" font-size="78.0" fill="#5B88A5" transform="matrix(1.00, 0.00, -0.00, -1.00, 493.7, 623.0)">l</text><text xml:space="preserve" font-family="HelveticaNeue-Light" font-size="78.0" fill="#5B88A5" transform="matrix(1.00, 0.00, -0.00, -1.00, 508.2, 623.0)">e</text><image xlink:href="2AFB23B350D2345C3619D1F7825EC173.jpeg" width="341.00" height="518.00" transform="matrix(1.00, 0.00, -0.00, -1.00, 608.0, 584.0)"></image></g></svg>