<?xml version="1.0" encoding="UTF-8" standalone="no"?><svg xmlns="http://www.w3.org/2000/svg" xmlns:xlink="http://www.w3.org/1999/xlink" clip-rule="evenodd" stroke-miterlimit="4.00" viewBox="0 0 720 540"><desc>SVG generated by Keynote</desc><defs></defs><g transform="matrix(1.00, 0.00, -0.00, -1.00, 0.0, 540.0)"><path d="M 0.0 540.0 L 720.0 540.0 L 720.0 0.0 L 0.0 0.0 Z M 0.0 540.0 " fill="#FEFFFF"></path><text xml:space="preserve" font-family="Verdana" font-size="20.0" fill="#000000" transform="matrix(1.00, 0.00, -0.00, -1.00, 121.0, 8.0)">E</text><text xml:space="preserve" font-family="Verdana" font-size="20.0" fill="#000000" transform="matrix(1.00, 0.00, -0.00, -1.00, 133.7, 8.0)">y</text><text xml:space="preserve" font-family="Verdana" font-size="20.0" fill="#000000" transform="matrix(1.00, 0.00, -0.00, -1.00, 145.3, 8.0)">e</text><text xml:space="preserve" font-family="Verdana" font-size="20.0" fill="#000000" transform="matrix(1.00, 0.00, -0.00, -1.00, 157.2, 8.0)">l</text><text xml:space="preserve" font-family="Verdana" font-size="20.0" fill="#000000" transform="matrix(1.00, 0.00, -0.00, -1.00, 162.7, 8.0)">a</text><text xml:space="preserve" font-family="Verdana" font-size="20.0" fill="#000000" transform="matrix(1.00, 0.00, -0.00, -1.00, 174.7, 8.0)">s</text><text xml:space="preserve" font-family="Verdana" font-size="20.0" fill="#000000" transform="matrix(1.00, 0.00, -0.00, -1.00, 185.1, 8.0)">h</text><text xml:space="preserve" font-family="Verdana" font-size="20.0" fill="#000000" transform="matrix(1.00, 0.00, -0.00, -1.00, 197.8, 8.0)"> </text><text xml:space="preserve" font-family="Verdana" font-size="20.0" fill="#000000" transform="matrix(1.00, 0.00, -0.00, -1.00, 204.8, 8.0)">L</text><text xml:space="preserve" font-family="Verdana" font-size="20.0" fill="#000000" transform="matrix(1.00, 0.00, -0.00, -1.00, 215.9, 8.0)">e</text><text xml:space="preserve" font-family="Verdana" font-size="20.0" fill="#000000" transform="matrix(1.00, 0.00, -0.00, -1.00, 227.8, 8.0)">a</text><text xml:space="preserve" font-family="Verdana" font-size="20.0" fill="#000000" transform="matrix(1.00, 0.00, -0.00, -1.00, 239.8, 8.0)">f</text><text xml:space="preserve" font-family="Verdana" font-size="20.0" fill="#000000" transform="matrix(1.00, 0.00, -0.00, -1.00, 246.9, 8.0)"> </text><text xml:space="preserve" font-family="Verdana" font-size="20.0" fill="#000000" transform="matrix(1.00, 0.00, -0.00, -1.00, 253.9, 8.0)">F</text><text xml:space="preserve" font-family="Verdana" font-size="20.0" fill="#000000" transform="matrix(1.00, 0.00, -0.00, -1.00, 265.4, 8.0)">r</text><text xml:space="preserve" font-family="Verdana" font-size="20.0" fill="#000000" transform="matrix(1.00, 0.00, -0.00, -1.00, 273.9, 8.0)">o</text><text xml:space="preserve" font-family="Verdana" font-size="20.0" fill="#000000" transform="matrix(1.00, 0.00, -0.00, -1.00, 286.1, 8.0)">g</text><text xml:space="preserve" font-family="Verdana" font-size="20.0" fill="#000000" transform="matrix(1.00, 0.00, -0.00, -1.00, 298.5, 8.0)"> </text><text xml:space="preserve" font-family="Verdana-Italic" font-style="italic" font-size="20.0" fill="#000000" transform="matrix(1.00, 0.00, -0.00, -1.00, 305.6, 8.0)">C</text><text xml:space="preserve" font-family="Verdana-Italic" font-style="italic" font-size="20.0" fill="#000000" transform="matrix(1.00, 0.00, -0.00, -1.00, 319.6, 8.0)">e</text><text xml:space="preserve" font-family="Verdana-Italic" font-style="italic" font-size="20.0" fill="#000000" transform="matrix(1.00, 0.00, -0.00, -1.00, 331.5, 8.0)">r</text><text xml:space="preserve" font-family="Verdana-Italic" font-style="italic" font-size="20.0" fill="#000000" transform="matrix(1.00, 0.00, -0.00, -1.00, 340.0, 8.0)">a</text><text xml:space="preserve" font-family="Verdana-Italic" font-style="italic" font-size="20.0" fill="#000000" transform="matrix(1.00, 0.00, -0.00, -1.00, 352.0, 8.0)">t</text><text xml:space="preserve" font-family="Verdana-Italic" font-style="italic" font-size="20.0" fill="#000000" transform="matrix(1.00, 0.00, -0.00, -1.00, 359.9, 8.0)">o</text><text xml:space="preserve" font-family="Verdana-Italic" font-style="italic" font-size="20.0" fill="#000000" transform="matrix(1.00, 0.00, -0.00, -1.00, 372.0, 8.0)">b</text><text xml:space="preserve" font-family="Verdana-Italic" font-style="italic" font-size="20.0" fill="#000000" transform="matrix(1.00, 0.00, -0.00, -1.00, 384.5, 8.0)">a</text><text xml:space="preserve" font-family="Verdana-Italic" font-style="italic" font-size="20.0" fill="#000000" transform="matrix(1.00, 0.00, -0.00, -1.00, 396.5, 8.0)">t</text><text xml:space="preserve" font-family="Verdana-Italic" font-style="italic" font-size="20.0" fill="#000000" transform="matrix(1.00, 0.00, -0.00, -1.00, 404.4, 8.0)">r</text><text xml:space="preserve" font-family="Verdana-Italic" font-style="italic" font-size="20.0" fill="#000000" transform="matrix(1.00, 0.00, -0.00, -1.00, 412.9, 8.0)">a</text><text xml:space="preserve" font-family="Verdana-Italic" font-style="italic" font-size="20.0" fill="#000000" transform="matrix(1.00, 0.00, -0.00, -1.00, 424.9, 8.0)">c</text><text xml:space="preserve" font-family="Verdana-Italic" font-style="italic" font-size="20.0" fill="#000000" transform="matrix(1.00, 0.00, -0.00, -1.00, 435.3, 8.0)">h</text><text xml:space="preserve" font-family="Verdana-Italic" font-style="italic" font-size="20.0" fill="#000000" transform="matrix(1.00, 0.00, -0.00, -1.00, 448.0, 8.0)">u</text><text xml:space="preserve" font-family="Verdana-Italic" font-style="italic" font-size="20.0" fill="#000000" transform="matrix(1.00, 0.00, -0.00, -1.00, 460.6, 8.0)">s</text><text xml:space="preserve" font-family="Verdana-Italic" font-style="italic" font-size="20.0" fill="#000000" transform="matrix(1.00, 0.00, -0.00, -1.00, 471.1, 8.0)"> </text><text xml:space="preserve" font-family="Verdana-Italic" font-style="italic" font-size="20.0" fill="#000000" transform="matrix(1.00, 0.00, -0.00, -1.00, 478.1, 8.0)">g</text><text xml:space="preserve" font-family="Verdana-Italic" font-style="italic" font-size="20.0" fill="#000000" transform="matrix(1.00, 0.00, -0.00, -1.00, 490.5, 8.0)">u</text><text xml:space="preserve" font-family="Verdana-Italic" font-style="italic" font-size="20.0" fill="#000000" transform="matrix(1.00, 0.00, -0.00, -1.00, 503.2, 8.0)">e</text><text xml:space="preserve" font-family="Verdana-Italic" font-style="italic" font-size="20.0" fill="#000000" transform="matrix(1.00, 0.00, -0.00, -1.00, 515.1, 8.0)">n</text><text xml:space="preserve" font-family="Verdana-Italic" font-style="italic" font-size="20.0" fill="#000000" transform="matrix(1.00, 0.00, -0.00, -1.00, 527.7, 8.0)">t</text><text xml:space="preserve" font-family="Verdana-Italic" font-style="italic" font-size="20.0" fill="#000000" transform="matrix(1.00, 0.00, -0.00, -1.00, 535.6, 8.0)">h</text><text xml:space="preserve" font-family="Verdana-Italic" font-style="italic" font-size="20.0" fill="#000000" transform="matrix(1.00, 0.00, -0.00, -1.00, 548.3, 8.0)">e</text><text xml:space="preserve" font-family="Verdana-Italic" font-style="italic" font-size="20.0" fill="#000000" transform="matrix(1.00, 0.00, -0.00, -1.00, 560.2, 8.0)">r</text><text xml:space="preserve" font-family="Verdana-Italic" font-style="italic" font-size="20.0" fill="#000000" transform="matrix(1.00, 0.00, -0.00, -1.00, 568.7, 8.0)">i</text><g><clipPath id="clip-106"><path d="M 0.0 30.0 L 720.0 30.0 L 720.0 540.0 L 0.0 540.0 Z M 0.0 30.0 "></path></clipPath><g clip-path="url(#clip-106)"><path d="M 0.0 540.0 L 720.0 540.0 L 720.0 30.0 L 0.0 30.0 Z M 0.0 540.0 " fill="#FFFFFF"></path><image xlink:href="../../C31F4E45-164F-4446-B199-7D0D4C64D2CC/assets/709B347758BF44E5ECD3DDCA9259E261.png" width="768.00" height="544.00" transform="matrix(0.94, 0.00, -0.00, -0.94, 0.0, 540.0)"></image></g></g></g></svg>