<?xml version="1.0" encoding="UTF-8" standalone="no"?><svg xmlns="http://www.w3.org/2000/svg" xmlns:xlink="http://www.w3.org/1999/xlink" clip-rule="evenodd" stroke-miterlimit="10" viewBox="0 0 720 540"><desc>SVG generated by Keynote</desc><defs></defs><g transform="matrix(1.00, 0.00, -0.00, -1.00, 0.0, 540.0)"><path d="M 0.0 540.0 L 720.0 540.0 L 720.0 0.0 L 0.0 0.0 Z M 0.0 540.0 " fill="#FEFFFF"></path><text xml:space="preserve" font-family="ArialMT,Arial" font-size="44.0" fill="#000000" transform="matrix(1.00, 0.00, -0.00, -1.00, 176.6, 431.8)">D</text><text xml:space="preserve" font-family="ArialMT,Arial" font-size="44.0" fill="#000000" transform="matrix(1.00, 0.00, -0.00, -1.00, 208.4, 431.8)">i</text><text xml:space="preserve" font-family="ArialMT,Arial" font-size="44.0" fill="#000000" transform="matrix(1.00, 0.00, -0.00, -1.00, 218.2, 431.8)">s</text><text xml:space="preserve" font-family="ArialMT,Arial" font-size="44.0" fill="#000000" transform="matrix(1.00, 0.00, -0.00, -1.00, 240.2, 431.8)">p</text><text xml:space="preserve" font-family="ArialMT,Arial" font-size="44.0" fill="#000000" transform="matrix(1.00, 0.00, -0.00, -1.00, 264.6, 431.8)">e</text><text xml:space="preserve" font-family="ArialMT,Arial" font-size="44.0" fill="#000000" transform="matrix(1.00, 0.00, -0.00, -1.00, 289.1, 431.8)">r</text><text xml:space="preserve" font-family="ArialMT,Arial" font-size="44.0" fill="#000000" transform="matrix(1.00, 0.00, -0.00, -1.00, 303.8, 431.8)">s</text><text xml:space="preserve" font-family="ArialMT,Arial" font-size="44.0" fill="#000000" transform="matrix(1.00, 0.00, -0.00, -1.00, 325.8, 431.8)">a</text><text xml:space="preserve" font-family="ArialMT,Arial" font-size="44.0" fill="#000000" transform="matrix(1.00, 0.00, -0.00, -1.00, 350.3, 431.8)">l</text><text xml:space="preserve" font-family="ArialMT,Arial" font-size="44.0" fill="#000000" transform="matrix(1.00, 0.00, -0.00, -1.00, 360.0, 431.8)"> </text><text xml:space="preserve" font-family="ArialMT,Arial" font-size="44.0" fill="#000000" transform="matrix(1.00, 0.00, -0.00, -1.00, 372.3, 431.8)">E</text><text xml:space="preserve" font-family="ArialMT,Arial" font-size="44.0" fill="#000000" transform="matrix(1.00, 0.00, -0.00, -1.00, 401.6, 431.8)">x</text><text xml:space="preserve" font-family="ArialMT,Arial" font-size="44.0" fill="#000000" transform="matrix(1.00, 0.00, -0.00, -1.00, 423.6, 431.8)">a</text><text xml:space="preserve" font-family="ArialMT,Arial" font-size="44.0" fill="#000000" transform="matrix(1.00, 0.00, -0.00, -1.00, 448.1, 431.8)">m</text><text xml:space="preserve" font-family="ArialMT,Arial" font-size="44.0" fill="#000000" transform="matrix(1.00, 0.00, -0.00, -1.00, 484.7, 431.8)">p</text><text xml:space="preserve" font-family="ArialMT,Arial" font-size="44.0" fill="#000000" transform="matrix(1.00, 0.00, -0.00, -1.00, 509.2, 431.8)">l</text><text xml:space="preserve" font-family="ArialMT,Arial" font-size="44.0" fill="#000000" transform="matrix(1.00, 0.00, -0.00, -1.00, 519.0, 431.8)">e</text><text xml:space="preserve" font-family="ArialMT,Arial" font-size="12.0" fill="#000000" transform="matrix(1.00, 0.00, -0.00, -1.00, 7.2, 6.6)">R</text><text xml:space="preserve" font-family="ArialMT,Arial" font-size="12.0" fill="#000000" transform="matrix(1.00, 0.00, -0.00, -1.00, 15.9, 6.6)">a</text><text xml:space="preserve" font-family="ArialMT,Arial" font-size="12.0" fill="#000000" transform="matrix(1.00, 0.00, -0.00, -1.00, 22.5, 6.6)">x</text><text xml:space="preserve" font-family="ArialMT,Arial" font-size="12.0" fill="#000000" transform="matrix(1.00, 0.00, -0.00, -1.00, 28.5, 6.6)">w</text><text xml:space="preserve" font-family="ArialMT,Arial" font-size="12.0" fill="#000000" transform="matrix(1.00, 0.00, -0.00, -1.00, 37.2, 6.6)">o</text><text xml:space="preserve" font-family="ArialMT,Arial" font-size="12.0" fill="#000000" transform="matrix(1.00, 0.00, -0.00, -1.00, 43.9, 6.6)">r</text><text xml:space="preserve" font-family="ArialMT,Arial" font-size="12.0" fill="#000000" transform="matrix(1.00, 0.00, -0.00, -1.00, 47.9, 6.6)">t</text><text xml:space="preserve" font-family="ArialMT,Arial" font-size="12.0" fill="#000000" transform="matrix(1.00, 0.00, -0.00, -1.00, 51.2, 6.6)">h</text><text xml:space="preserve" font-family="ArialMT,Arial" font-size="12.0" fill="#000000" transform="matrix(1.00, 0.00, -0.00, -1.00, 57.9, 6.6)">y</text><text xml:space="preserve" font-family="ArialMT,Arial" font-size="12.0" fill="#000000" transform="matrix(1.00, 0.00, -0.00, -1.00, 63.9, 6.6)"> </text><text xml:space="preserve" font-family="ArialMT,Arial" font-size="12.0" fill="#000000" transform="matrix(1.00, 0.00, -0.00, -1.00, 67.2, 6.6)">e</text><text xml:space="preserve" font-family="ArialMT,Arial" font-size="12.0" fill="#000000" transform="matrix(1.00, 0.00, -0.00, -1.00, 73.9, 6.6)">t</text><text xml:space="preserve" font-family="ArialMT,Arial" font-size="12.0" fill="#000000" transform="matrix(1.00, 0.00, -0.00, -1.00, 77.2, 6.6)"> </text><text xml:space="preserve" font-family="ArialMT,Arial" font-size="12.0" fill="#000000" transform="matrix(1.00, 0.00, -0.00, -1.00, 80.6, 6.6)">a</text><text xml:space="preserve" font-family="ArialMT,Arial" font-size="12.0" fill="#000000" transform="matrix(1.00, 0.00, -0.00, -1.00, 87.2, 6.6)">l</text><text xml:space="preserve" font-family="ArialMT,Arial" font-size="12.0" fill="#000000" transform="matrix(1.00, 0.00, -0.00, -1.00, 89.9, 6.6)">.</text><text xml:space="preserve" font-family="ArialMT,Arial" font-size="12.0" fill="#000000" transform="matrix(1.00, 0.00, -0.00, -1.00, 93.2, 6.6)"> </text><text xml:space="preserve" font-family="ArialMT,Arial" font-size="12.0" fill="#000000" transform="matrix(1.00, 0.00, -0.00, -1.00, 96.6, 6.6)">2</text><text xml:space="preserve" font-family="ArialMT,Arial" font-size="12.0" fill="#000000" transform="matrix(1.00, 0.00, -0.00, -1.00, 103.2, 6.6)">0</text><text xml:space="preserve" font-family="ArialMT,Arial" font-size="12.0" fill="#000000" transform="matrix(1.00, 0.00, -0.00, -1.00, 109.9, 6.6)">0</text><text xml:space="preserve" font-family="ArialMT,Arial" font-size="12.0" fill="#000000" transform="matrix(1.00, 0.00, -0.00, -1.00, 116.6, 6.6)">2</text><image xlink:href="../../CD829A9A-3282-4E2B-B606-2C097A61D81A/assets/7F02FB1A5C5DC2808CF4F8B364756C96.png" width="342.00" height="683.00" transform="matrix(0.55, 0.00, -0.00, -0.55, 90.0, 420.0)"></image><g><clipPath id="clip0x6000010bdbe0"><path d="M 348.0 217.0 L 642.0 217.0 L 642.0 414.0 L 348.0 414.0 Z M 348.0 217.0 "></path></clipPath><g clip-path="url(#clip0x6000010bdbe0)"><image xlink:href="../../CD829A9A-3282-4E2B-B606-2C097A61D81A/assets/32D9C0C9672A3D2D2DC90B1D70F49371.png" width="600.00" height="402.00" transform="matrix(0.49, 0.00, -0.00, -0.49, 348.0, 414.0)"></image></g></g><text xml:space="preserve" font-family="Arial-ItalicMT,Arial" font-style="italic" font-size="12.0" fill="#000000" transform="matrix(1.00, 0.00, -0.00, -1.00, 421.2, 188.9)">C</text><text xml:space="preserve" font-family="Arial-ItalicMT,Arial" font-style="italic" font-size="12.0" fill="#000000" transform="matrix(1.00, 0.00, -0.00, -1.00, 429.9, 188.9)">h</text><text xml:space="preserve" font-family="Arial-ItalicMT,Arial" font-style="italic" font-size="12.0" fill="#000000" transform="matrix(1.00, 0.00, -0.00, -1.00, 436.5, 188.9)">a</text><text xml:space="preserve" font-family="Arial-ItalicMT,Arial" font-style="italic" font-size="12.0" fill="#000000" transform="matrix(1.00, 0.00, -0.00, -1.00, 443.2, 188.9)">m</text><text xml:space="preserve" font-family="Arial-ItalicMT,Arial" font-style="italic" font-size="12.0" fill="#000000" transform="matrix(1.00, 0.00, -0.00, -1.00, 453.2, 188.9)">a</text><text xml:space="preserve" font-family="Arial-ItalicMT,Arial" font-style="italic" font-size="12.0" fill="#000000" transform="matrix(1.00, 0.00, -0.00, -1.00, 459.9, 188.9)">e</text><text xml:space="preserve" font-family="Arial-ItalicMT,Arial" font-style="italic" font-size="12.0" fill="#000000" transform="matrix(1.00, 0.00, -0.00, -1.00, 466.6, 188.9)">l</text><text xml:space="preserve" font-family="Arial-ItalicMT,Arial" font-style="italic" font-size="12.0" fill="#000000" transform="matrix(1.00, 0.00, -0.00, -1.00, 469.2, 188.9)">e</text><text xml:space="preserve" font-family="Arial-ItalicMT,Arial" font-style="italic" font-size="12.0" fill="#000000" transform="matrix(1.00, 0.00, -0.00, -1.00, 475.9, 188.9)">o</text><text xml:space="preserve" font-family="Arial-ItalicMT,Arial" font-style="italic" font-size="12.0" fill="#000000" transform="matrix(1.00, 0.00, -0.00, -1.00, 482.6, 188.9)"> </text><text xml:space="preserve" font-family="Arial-ItalicMT,Arial" font-style="italic" font-size="12.0" fill="#000000" transform="matrix(1.00, 0.00, -0.00, -1.00, 485.9, 188.9)">p</text><text xml:space="preserve" font-family="Arial-ItalicMT,Arial" font-style="italic" font-size="12.0" fill="#000000" transform="matrix(1.00, 0.00, -0.00, -1.00, 492.6, 188.9)">a</text><text xml:space="preserve" font-family="Arial-ItalicMT,Arial" font-style="italic" font-size="12.0" fill="#000000" transform="matrix(1.00, 0.00, -0.00, -1.00, 499.3, 188.9)">r</text><text xml:space="preserve" font-family="Arial-ItalicMT,Arial" font-style="italic" font-size="12.0" fill="#000000" transform="matrix(1.00, 0.00, -0.00, -1.00, 503.3, 188.9)">s</text><text xml:space="preserve" font-family="Arial-ItalicMT,Arial" font-style="italic" font-size="12.0" fill="#000000" transform="matrix(1.00, 0.00, -0.00, -1.00, 509.3, 188.9)">o</text><text xml:space="preserve" font-family="Arial-ItalicMT,Arial" font-style="italic" font-size="12.0" fill="#000000" transform="matrix(1.00, 0.00, -0.00, -1.00, 515.9, 188.9)">n</text><text xml:space="preserve" font-family="Arial-ItalicMT,Arial" font-style="italic" font-size="12.0" fill="#000000" transform="matrix(1.00, 0.00, -0.00, -1.00, 522.6, 188.9)">i</text><text xml:space="preserve" font-family="Arial-ItalicMT,Arial" font-style="italic" font-size="12.0" fill="#000000" transform="matrix(1.00, 0.00, -0.00, -1.00, 525.3, 188.9)">i</text><g><clipPath id="clip0x608000aaa140"><path d="M 558.0 70.0 L 668.0 70.0 L 668.0 216.0 L 558.0 216.0 Z M 558.0 70.0 "></path></clipPath><g clip-path="url(#clip0x608000aaa140)"><image xlink:href="../../CD829A9A-3282-4E2B-B606-2C097A61D81A/assets/737BEE6F9DE7F3B090974BE2F42AB351.png" width="375.00" height="500.00" transform="matrix(0.29, 0.00, -0.00, -0.29, 558.0, 216.0)"></image></g></g></g></svg>