<?xml version="1.0" encoding="UTF-8" standalone="no"?><svg xmlns="http://www.w3.org/2000/svg" xmlns:xlink="http://www.w3.org/1999/xlink" clip-rule="evenodd" stroke-miterlimit="4.00" viewBox="0 0 1024 768"><desc>SVG generated by Keynote</desc><defs></defs><g transform="matrix(1.00, 0.00, -0.00, -1.00, 0.0, 768.0)"><g><clipPath id="clip-267"><path d="M 0.0 768.0 L 1024.0 768.0 L 1024.0 0.0 L 0.0 0.0 Z M 0.0 768.0 "></path></clipPath><g clip-path="url(#clip-267)"><image xlink:href="../../C9BB2F21-7097-4279-8A02-40FCEE817F8A/assets/A7CD394FAC08D6D1529A4490C94CFB40.jpeg" width="1365.00" height="767.00" transform="matrix(2.81, 0.00, -0.00, -2.82, -1408.0, 1464.0)"></image></g></g><path d="M 0.0 0.0 L 980.0 0.0 L 980.0 726.0 L 0.0 726.0 Z M 0.0 0.0 " fill="none" stroke="#A2A0A6" stroke-width="2.00" transform="matrix(1.00, 0.00, 0.00, -1.00, 22.3, 746.0)"></path><text xml:space="preserve" font-family="HelveticaNeue-Light" font-size="78.0" fill="#5B88A5" transform="matrix(1.00, 0.00, -0.00, -1.00, 118.0, 624.0)">C</text><text xml:space="preserve" font-family="HelveticaNeue-Light" font-size="78.0" fill="#5B88A5" transform="matrix(1.00, 0.00, -0.00, -1.00, 172.9, 624.0)">h</text><text xml:space="preserve" font-family="HelveticaNeue-Light" font-size="78.0" fill="#5B88A5" transform="matrix(1.00, 0.00, -0.00, -1.00, 214.8, 624.0)">e</text><text xml:space="preserve" font-family="HelveticaNeue-Light" font-size="78.0" fill="#5B88A5" transform="matrix(1.00, 0.00, -0.00, -1.00, 255.3, 624.0)">m</text><text xml:space="preserve" font-family="HelveticaNeue-Light" font-size="78.0" fill="#5B88A5" transform="matrix(1.00, 0.00, -0.00, -1.00, 320.3, 624.0)">i</text><text xml:space="preserve" font-family="HelveticaNeue-Light" font-size="78.0" fill="#5B88A5" transform="matrix(1.00, 0.00, -0.00, -1.00, 334.7, 624.0)">c</text><text xml:space="preserve" font-family="HelveticaNeue-Light" font-size="78.0" fill="#5B88A5" transform="matrix(1.00, 0.00, -0.00, -1.00, 375.2, 624.0)">a</text><text xml:space="preserve" font-family="HelveticaNeue-Light" font-size="78.0" fill="#5B88A5" transform="matrix(1.00, 0.00, -0.00, -1.00, 415.6, 624.0)">l</text><text xml:space="preserve" font-family="HelveticaNeue-Light" font-size="78.0" fill="#5B88A5" transform="matrix(1.00, 0.00, -0.00, -1.00, 430.1, 624.0)"> </text><text xml:space="preserve" font-family="HelveticaNeue-Light" font-size="78.0" fill="#5B88A5" transform="matrix(1.00, 0.00, -0.00, -1.00, 451.8, 624.0)">c</text><text xml:space="preserve" font-family="HelveticaNeue-Light" font-size="78.0" fill="#5B88A5" transform="matrix(1.00, 0.00, -0.00, -1.00, 492.2, 624.0)">o</text><text xml:space="preserve" font-family="HelveticaNeue-Light" font-size="78.0" fill="#5B88A5" transform="matrix(1.00, 0.00, -0.00, -1.00, 535.6, 624.0)">n</text><text xml:space="preserve" font-family="HelveticaNeue-Light" font-size="78.0" fill="#5B88A5" transform="matrix(1.00, 0.00, -0.00, -1.00, 577.5, 624.0)">t</text><text xml:space="preserve" font-family="HelveticaNeue-Light" font-size="78.0" fill="#5B88A5" transform="matrix(1.00, 0.00, -0.00, -1.00, 600.6, 624.0)">a</text><text xml:space="preserve" font-family="HelveticaNeue-Light" font-size="78.0" fill="#5B88A5" transform="matrix(1.00, 0.00, -0.00, -1.00, 641.1, 624.0)">m</text><text xml:space="preserve" font-family="HelveticaNeue-Light" font-size="78.0" fill="#5B88A5" transform="matrix(1.00, 0.00, -0.00, -1.00, 706.0, 624.0)">i</text><text xml:space="preserve" font-family="HelveticaNeue-Light" font-size="78.0" fill="#5B88A5" transform="matrix(1.00, 0.00, -0.00, -1.00, 720.5, 624.0)">n</text><text xml:space="preserve" font-family="HelveticaNeue-Light" font-size="78.0" fill="#5B88A5" transform="matrix(1.00, 0.00, -0.00, -1.00, 762.4, 624.0)">a</text><text xml:space="preserve" font-family="HelveticaNeue-Light" font-size="78.0" fill="#5B88A5" transform="matrix(1.00, 0.00, -0.00, -1.00, 802.8, 624.0)">t</text><text xml:space="preserve" font-family="HelveticaNeue-Light" font-size="78.0" fill="#5B88A5" transform="matrix(1.00, 0.00, -0.00, -1.00, 825.9, 624.0)">i</text><text xml:space="preserve" font-family="HelveticaNeue-Light" font-size="78.0" fill="#5B88A5" transform="matrix(1.00, 0.00, -0.00, -1.00, 840.4, 624.0)">o</text><text xml:space="preserve" font-family="HelveticaNeue-Light" font-size="78.0" fill="#5B88A5" transform="matrix(1.00, 0.00, -0.00, -1.00, 883.7, 624.0)">n</text><image xlink:href="../../E9BB2F21-7097-4279-8A02-40FCEE817F8A/assets/849C9207E393FC4E875D5F471C845596.png" width="770.00" height="490.00" transform="matrix(1.00, 0.00, -0.00, -1.00, 127.0, 599.0)"></image><text xml:space="preserve" font-family="HelveticaNeue-CondensedBold" font-weight="bold" font-size="32.0" fill="#5B88A5" transform="matrix(1.00, 0.00, -0.00, -1.00, 249.0, 74.0)">E</text><text xml:space="preserve" font-family="HelveticaNeue-CondensedBold" font-weight="bold" font-size="32.0" fill="#5B88A5" transform="matrix(1.00, 0.00, -0.00, -1.00, 264.4, 74.0)">F</text><text xml:space="preserve" font-family="HelveticaNeue-CondensedBold" font-weight="bold" font-size="32.0" fill="#5B88A5" transform="matrix(1.00, 0.00, -0.00, -1.00, 279.2, 74.0)">F</text><text xml:space="preserve" font-family="HelveticaNeue-CondensedBold" font-weight="bold" font-size="32.0" fill="#5B88A5" transform="matrix(1.00, 0.00, -0.00, -1.00, 294.0, 74.0)">E</text><text xml:space="preserve" font-family="HelveticaNeue-CondensedBold" font-weight="bold" font-size="32.0" fill="#5B88A5" transform="matrix(1.00, 0.00, -0.00, -1.00, 309.4, 74.0)">C</text><text xml:space="preserve" font-family="HelveticaNeue-CondensedBold" font-weight="bold" font-size="32.0" fill="#5B88A5" transform="matrix(1.00, 0.00, -0.00, -1.00, 326.6, 74.0)">T</text><text xml:space="preserve" font-family="HelveticaNeue-CondensedBold" font-weight="bold" font-size="32.0" fill="#5B88A5" transform="matrix(1.00, 0.00, -0.00, -1.00, 342.0, 74.0)">S</text><text xml:space="preserve" font-family="HelveticaNeue-CondensedBold" font-weight="bold" font-size="32.0" fill="#5B88A5" transform="matrix(1.00, 0.00, -0.00, -1.00, 358.6, 74.0)"> </text><text xml:space="preserve" font-family="HelveticaNeue-CondensedBold" font-weight="bold" font-size="32.0" fill="#5B88A5" transform="matrix(1.00, 0.00, -0.00, -1.00, 366.2, 74.0)">O</text><text xml:space="preserve" font-family="HelveticaNeue-CondensedBold" font-weight="bold" font-size="32.0" fill="#5B88A5" transform="matrix(1.00, 0.00, -0.00, -1.00, 384.0, 74.0)">F</text><text xml:space="preserve" font-family="HelveticaNeue-CondensedBold" font-weight="bold" font-size="32.0" fill="#5B88A5" transform="matrix(1.00, 0.00, -0.00, -1.00, 398.9, 74.0)"> </text><text xml:space="preserve" font-family="HelveticaNeue-CondensedBold" font-weight="bold" font-size="32.0" fill="#5B88A5" transform="matrix(1.00, 0.00, -0.00, -1.00, 406.5, 74.0)">P</text><text xml:space="preserve" font-family="HelveticaNeue-CondensedBold" font-weight="bold" font-size="32.0" fill="#5B88A5" transform="matrix(1.00, 0.00, -0.00, -1.00, 423.1, 74.0)">C</text><text xml:space="preserve" font-family="HelveticaNeue-CondensedBold" font-weight="bold" font-size="32.0" fill="#5B88A5" transform="matrix(1.00, 0.00, -0.00, -1.00, 440.3, 74.0)">B</text><text xml:space="preserve" font-family="HelveticaNeue-CondensedBold" font-weight="bold" font-size="32.0" fill="#5B88A5" transform="matrix(1.00, 0.00, -0.00, -1.00, 458.1, 74.0)"> </text><text xml:space="preserve" font-family="HelveticaNeue-CondensedBold" font-weight="bold" font-size="32.0" fill="#5B88A5" transform="matrix(1.00, 0.00, -0.00, -1.00, 465.8, 74.0)">O</text><text xml:space="preserve" font-family="HelveticaNeue-CondensedBold" font-weight="bold" font-size="32.0" fill="#5B88A5" transform="matrix(1.00, 0.00, -0.00, -1.00, 483.6, 74.0)">N</text><text xml:space="preserve" font-family="HelveticaNeue-CondensedBold" font-weight="bold" font-size="32.0" fill="#5B88A5" transform="matrix(1.00, 0.00, -0.00, -1.00, 502.0, 74.0)"> </text><text xml:space="preserve" font-family="HelveticaNeue-CondensedBold" font-weight="bold" font-size="32.0" fill="#5B88A5" transform="matrix(1.00, 0.00, -0.00, -1.00, 509.6, 74.0)">S</text><text xml:space="preserve" font-family="HelveticaNeue-CondensedBold" font-weight="bold" font-size="32.0" fill="#5B88A5" transform="matrix(1.00, 0.00, -0.00, -1.00, 526.2, 74.0)">E</text><text xml:space="preserve" font-family="HelveticaNeue-CondensedBold" font-weight="bold" font-size="32.0" fill="#5B88A5" transform="matrix(1.00, 0.00, -0.00, -1.00, 541.6, 74.0)">X</text><text xml:space="preserve" font-family="HelveticaNeue-CondensedBold" font-weight="bold" font-size="32.0" fill="#5B88A5" transform="matrix(1.00, 0.00, -0.00, -1.00, 558.8, 74.0)"> </text><text xml:space="preserve" font-family="HelveticaNeue-CondensedBold" font-weight="bold" font-size="32.0" fill="#5B88A5" transform="matrix(1.00, 0.00, -0.00, -1.00, 566.5, 74.0)">D</text><text xml:space="preserve" font-family="HelveticaNeue-CondensedBold" font-weight="bold" font-size="32.0" fill="#5B88A5" transform="matrix(1.00, 0.00, -0.00, -1.00, 584.9, 74.0)">E</text><text xml:space="preserve" font-family="HelveticaNeue-CondensedBold" font-weight="bold" font-size="32.0" fill="#5B88A5" transform="matrix(1.00, 0.00, -0.00, -1.00, 600.3, 74.0)">T</text><text xml:space="preserve" font-family="HelveticaNeue-CondensedBold" font-weight="bold" font-size="32.0" fill="#5B88A5" transform="matrix(1.00, 0.00, -0.00, -1.00, 615.6, 74.0)">E</text><text xml:space="preserve" font-family="HelveticaNeue-CondensedBold" font-weight="bold" font-size="32.0" fill="#5B88A5" transform="matrix(1.00, 0.00, -0.00, -1.00, 631.0, 74.0)">R</text><text xml:space="preserve" font-family="HelveticaNeue-CondensedBold" font-weight="bold" font-size="32.0" fill="#5B88A5" transform="matrix(1.00, 0.00, -0.00, -1.00, 648.8, 74.0)">M</text><text xml:space="preserve" font-family="HelveticaNeue-CondensedBold" font-weight="bold" font-size="32.0" fill="#5B88A5" transform="matrix(1.00, 0.00, -0.00, -1.00, 672.5, 74.0)">I</text><text xml:space="preserve" font-family="HelveticaNeue-CondensedBold" font-weight="bold" font-size="32.0" fill="#5B88A5" transform="matrix(1.00, 0.00, -0.00, -1.00, 680.7, 74.0)">N</text><text xml:space="preserve" font-family="HelveticaNeue-CondensedBold" font-weight="bold" font-size="32.0" fill="#5B88A5" transform="matrix(1.00, 0.00, -0.00, -1.00, 699.1, 74.0)">A</text><text xml:space="preserve" font-family="HelveticaNeue-CondensedBold" font-weight="bold" font-size="32.0" fill="#5B88A5" transform="matrix(1.00, 0.00, -0.00, -1.00, 715.1, 74.0)">T</text><text xml:space="preserve" font-family="HelveticaNeue-CondensedBold" font-weight="bold" font-size="32.0" fill="#5B88A5" transform="matrix(1.00, 0.00, -0.00, -1.00, 730.5, 74.0)">I</text><text xml:space="preserve" font-family="HelveticaNeue-CondensedBold" font-weight="bold" font-size="32.0" fill="#5B88A5" transform="matrix(1.00, 0.00, -0.00, -1.00, 738.8, 74.0)">O</text><text xml:space="preserve" font-family="HelveticaNeue-CondensedBold" font-weight="bold" font-size="32.0" fill="#5B88A5" transform="matrix(1.00, 0.00, -0.00, -1.00, 756.6, 74.0)">N</text><text xml:space="preserve" font-family="HelveticaNeue-CondensedBold" font-weight="bold" font-size="32.0" fill="#5B88A5" transform="matrix(1.00, 0.00, -0.00, -1.00, 774.9, 74.0)"> </text><text xml:space="preserve" font-family="HelveticaNeue-CondensedBold" font-weight="bold" font-size="32.0" fill="#5B88A5" transform="matrix(1.00, 0.00, -0.00, -1.00, 782.6, 74.0)"> </text><text xml:space="preserve" font-family="HelveticaNeue-CondensedBold" font-weight="bold" font-size="32.0" fill="#5B88A5" transform="matrix(1.00, 0.00, -0.00, -1.00, 363.0, 35.0)">I</text><text xml:space="preserve" font-family="HelveticaNeue-CondensedBold" font-weight="bold" font-size="32.0" fill="#5B88A5" transform="matrix(1.00, 0.00, -0.00, -1.00, 371.3, 35.0)">N</text><text xml:space="preserve" font-family="HelveticaNeue-CondensedBold" font-weight="bold" font-size="32.0" fill="#5B88A5" transform="matrix(1.00, 0.00, -0.00, -1.00, 389.6, 35.0)"> </text><text xml:space="preserve" font-family="HelveticaNeue-CondensedBold" font-weight="bold" font-size="32.0" fill="#5B88A5" transform="matrix(1.00, 0.00, -0.00, -1.00, 397.3, 35.0)">R</text><text xml:space="preserve" font-family="HelveticaNeue-CondensedBold" font-weight="bold" font-size="32.0" fill="#5B88A5" transform="matrix(1.00, 0.00, -0.00, -1.00, 415.1, 35.0)">E</text><text xml:space="preserve" font-family="HelveticaNeue-CondensedBold" font-weight="bold" font-size="32.0" fill="#5B88A5" transform="matrix(1.00, 0.00, -0.00, -1.00, 430.5, 35.0)">D</text><text xml:space="preserve" font-family="HelveticaNeue-CondensedBold" font-weight="bold" font-size="32.0" fill="#5B88A5" transform="matrix(1.00, 0.00, -0.00, -1.00, 448.9, 35.0)">-</text><text xml:space="preserve" font-family="HelveticaNeue-CondensedBold" font-weight="bold" font-size="32.0" fill="#5B88A5" transform="matrix(1.00, 0.00, -0.00, -1.00, 460.7, 35.0)">E</text><text xml:space="preserve" font-family="HelveticaNeue-CondensedBold" font-weight="bold" font-size="32.0" fill="#5B88A5" transform="matrix(1.00, 0.00, -0.00, -1.00, 476.1, 35.0)">A</text><text xml:space="preserve" font-family="HelveticaNeue-CondensedBold" font-weight="bold" font-size="32.0" fill="#5B88A5" transform="matrix(1.00, 0.00, -0.00, -1.00, 493.9, 35.0)">R</text><text xml:space="preserve" font-family="HelveticaNeue-CondensedBold" font-weight="bold" font-size="32.0" fill="#5B88A5" transform="matrix(1.00, 0.00, -0.00, -1.00, 511.7, 35.0)">E</text><text xml:space="preserve" font-family="HelveticaNeue-CondensedBold" font-weight="bold" font-size="32.0" fill="#5B88A5" transform="matrix(1.00, 0.00, -0.00, -1.00, 527.1, 35.0)">D</text><text xml:space="preserve" font-family="HelveticaNeue-CondensedBold" font-weight="bold" font-size="32.0" fill="#5B88A5" transform="matrix(1.00, 0.00, -0.00, -1.00, 545.4, 35.0)"> </text><text xml:space="preserve" font-family="HelveticaNeue-CondensedBold" font-weight="bold" font-size="32.0" fill="#5B88A5" transform="matrix(1.00, 0.00, -0.00, -1.00, 553.1, 35.0)">S</text><text xml:space="preserve" font-family="HelveticaNeue-CondensedBold" font-weight="bold" font-size="32.0" fill="#5B88A5" transform="matrix(1.00, 0.00, -0.00, -1.00, 569.7, 35.0)">L</text><text xml:space="preserve" font-family="HelveticaNeue-CondensedBold" font-weight="bold" font-size="32.0" fill="#5B88A5" transform="matrix(1.00, 0.00, -0.00, -1.00, 584.5, 35.0)">I</text><text xml:space="preserve" font-family="HelveticaNeue-CondensedBold" font-weight="bold" font-size="32.0" fill="#5B88A5" transform="matrix(1.00, 0.00, -0.00, -1.00, 592.8, 35.0)">D</text><text xml:space="preserve" font-family="HelveticaNeue-CondensedBold" font-weight="bold" font-size="32.0" fill="#5B88A5" transform="matrix(1.00, 0.00, -0.00, -1.00, 611.2, 35.0)">E</text><text xml:space="preserve" font-family="HelveticaNeue-CondensedBold" font-weight="bold" font-size="32.0" fill="#5B88A5" transform="matrix(1.00, 0.00, -0.00, -1.00, 626.6, 35.0)">R</text><text xml:space="preserve" font-family="HelveticaNeue-CondensedBold" font-weight="bold" font-size="32.0" fill="#5B88A5" transform="matrix(1.00, 0.00, -0.00, -1.00, 644.3, 35.0)">S</text><text xml:space="preserve" font-family="HelveticaNeue-CondensedBold" font-weight="bold" font-size="18.0" fill="#5B88A5" transform="matrix(1.00, 0.00, -0.00, -1.00, 824.0, 42.0)">B</text><text xml:space="preserve" font-family="HelveticaNeue-CondensedBold" font-weight="bold" font-size="18.0" fill="#5B88A5" transform="matrix(1.00, 0.00, -0.00, -1.00, 834.0, 42.0)">E</text><text xml:space="preserve" font-family="HelveticaNeue-CondensedBold" font-weight="bold" font-size="18.0" fill="#5B88A5" transform="matrix(1.00, 0.00, -0.00, -1.00, 842.7, 42.0)">R</text><text xml:space="preserve" font-family="HelveticaNeue-CondensedBold" font-weight="bold" font-size="18.0" fill="#5B88A5" transform="matrix(1.00, 0.00, -0.00, -1.00, 852.7, 42.0)">G</text><text xml:space="preserve" font-family="HelveticaNeue-CondensedBold" font-weight="bold" font-size="18.0" fill="#5B88A5" transform="matrix(1.00, 0.00, -0.00, -1.00, 862.7, 42.0)">E</text><text xml:space="preserve" font-family="HelveticaNeue-CondensedBold" font-weight="bold" font-size="18.0" fill="#5B88A5" transform="matrix(1.00, 0.00, -0.00, -1.00, 871.3, 42.0)">R</text><text xml:space="preserve" font-family="HelveticaNeue-CondensedBold" font-weight="bold" font-size="18.0" fill="#5B88A5" transform="matrix(1.00, 0.00, -0.00, -1.00, 881.3, 42.0)">O</text><text xml:space="preserve" font-family="HelveticaNeue-CondensedBold" font-weight="bold" font-size="18.0" fill="#5B88A5" transform="matrix(1.00, 0.00, -0.00, -1.00, 891.4, 42.0)">N</text><text xml:space="preserve" font-family="HelveticaNeue-CondensedBold" font-weight="bold" font-size="18.0" fill="#5B88A5" transform="matrix(1.00, 0.00, -0.00, -1.00, 901.7, 42.0)"> </text><text xml:space="preserve" font-family="HelveticaNeue-CondensedBold" font-weight="bold" font-size="18.0" fill="#5B88A5" transform="matrix(1.00, 0.00, -0.00, -1.00, 906.0, 42.0)">E</text><text xml:space="preserve" font-family="HelveticaNeue-CondensedBold" font-weight="bold" font-size="18.0" fill="#5B88A5" transform="matrix(1.00, 0.00, -0.00, -1.00, 914.7, 42.0)">T</text><text xml:space="preserve" font-family="HelveticaNeue-CondensedBold" font-weight="bold" font-size="18.0" fill="#5B88A5" transform="matrix(1.00, 0.00, -0.00, -1.00, 923.3, 42.0)"> </text><text xml:space="preserve" font-family="HelveticaNeue-CondensedBold" font-weight="bold" font-size="18.0" fill="#5B88A5" transform="matrix(1.00, 0.00, -0.00, -1.00, 927.0, 42.0)">A</text><text xml:space="preserve" font-family="HelveticaNeue-CondensedBold" font-weight="bold" font-size="18.0" fill="#5B88A5" transform="matrix(1.00, 0.00, -0.00, -1.00, 937.0, 42.0)">L</text><text xml:space="preserve" font-family="HelveticaNeue-CondensedBold" font-weight="bold" font-size="18.0" fill="#5B88A5" transform="matrix(1.00, 0.00, -0.00, -1.00, 945.3, 42.0)">.</text><text xml:space="preserve" font-family="HelveticaNeue-CondensedBold" font-weight="bold" font-size="18.0" fill="#5B88A5" transform="matrix(1.00, 0.00, -0.00, -1.00, 949.0, 42.0)"> </text><text xml:space="preserve" font-family="HelveticaNeue-CondensedBold" font-weight="bold" font-size="18.0" fill="#5B88A5" transform="matrix(1.00, 0.00, -0.00, -1.00, 953.3, 42.0)">1</text><text xml:space="preserve" font-family="HelveticaNeue-CondensedBold" font-weight="bold" font-size="18.0" fill="#5B88A5" transform="matrix(1.00, 0.00, -0.00, -1.00, 961.9, 42.0)">9</text><text xml:space="preserve" font-family="HelveticaNeue-CondensedBold" font-weight="bold" font-size="18.0" fill="#5B88A5" transform="matrix(1.00, 0.00, -0.00, -1.00, 970.6, 42.0)">9</text><text xml:space="preserve" font-family="HelveticaNeue-CondensedBold" font-weight="bold" font-size="18.0" fill="#5B88A5" transform="matrix(1.00, 0.00, -0.00, -1.00, 979.2, 42.0)">4</text></g></svg>