<?xml version="1.0" encoding="UTF-8" standalone="no"?><svg xmlns="http://www.w3.org/2000/svg" xmlns:xlink="http://www.w3.org/1999/xlink" clip-rule="evenodd" stroke-miterlimit="4.00" viewBox="0 0 720 540"><desc>SVG generated by Keynote</desc><defs></defs><g transform="matrix(1.00, 0.00, -0.00, -1.00, 0.0, 540.0)"><path d="M 0.0 540.0 L 720.0 540.0 L 720.0 0.0 L 0.0 0.0 Z M 0.0 540.0 " fill="#FEFFFF"></path><text xml:space="preserve" font-family="ArialMT" font-size="44.0" fill="#000000" transform="matrix(1.00, 0.00, -0.00, -1.00, 101.0, 432.0)">C</text><text xml:space="preserve" font-family="ArialMT" font-size="44.0" fill="#000000" transform="matrix(1.00, 0.00, -0.00, -1.00, 132.8, 432.0)">o</text><text xml:space="preserve" font-family="ArialMT" font-size="44.0" fill="#000000" transform="matrix(1.00, 0.00, -0.00, -1.00, 157.3, 432.0)">n</text><text xml:space="preserve" font-family="ArialMT" font-size="44.0" fill="#000000" transform="matrix(1.00, 0.00, -0.00, -1.00, 181.7, 432.0)">s</text><text xml:space="preserve" font-family="ArialMT" font-size="44.0" fill="#000000" transform="matrix(1.00, 0.00, -0.00, -1.00, 203.7, 432.0)">e</text><text xml:space="preserve" font-family="ArialMT" font-size="44.0" fill="#000000" transform="matrix(1.00, 0.00, -0.00, -1.00, 228.2, 432.0)">q</text><text xml:space="preserve" font-family="ArialMT" font-size="44.0" fill="#000000" transform="matrix(1.00, 0.00, -0.00, -1.00, 252.7, 432.0)">u</text><text xml:space="preserve" font-family="ArialMT" font-size="44.0" fill="#000000" transform="matrix(1.00, 0.00, -0.00, -1.00, 277.2, 432.0)">e</text><text xml:space="preserve" font-family="ArialMT" font-size="44.0" fill="#000000" transform="matrix(1.00, 0.00, -0.00, -1.00, 301.7, 432.0)">n</text><text xml:space="preserve" font-family="ArialMT" font-size="44.0" fill="#000000" transform="matrix(1.00, 0.00, -0.00, -1.00, 326.1, 432.0)">c</text><text xml:space="preserve" font-family="ArialMT" font-size="44.0" fill="#000000" transform="matrix(1.00, 0.00, -0.00, -1.00, 348.1, 432.0)">e</text><text xml:space="preserve" font-family="ArialMT" font-size="44.0" fill="#000000" transform="matrix(1.00, 0.00, -0.00, -1.00, 372.6, 432.0)">s</text><text xml:space="preserve" font-family="ArialMT" font-size="44.0" fill="#000000" transform="matrix(1.00, 0.00, -0.00, -1.00, 394.6, 432.0)"> </text><text xml:space="preserve" font-family="ArialMT" font-size="44.0" fill="#000000" transform="matrix(1.00, 0.00, -0.00, -1.00, 406.8, 432.0)">o</text><text xml:space="preserve" font-family="ArialMT" font-size="44.0" fill="#000000" transform="matrix(1.00, 0.00, -0.00, -1.00, 431.3, 432.0)">f</text><text xml:space="preserve" font-family="ArialMT" font-size="44.0" fill="#000000" transform="matrix(1.00, 0.00, -0.00, -1.00, 443.5, 432.0)"> </text><text xml:space="preserve" font-family="ArialMT" font-size="44.0" fill="#000000" transform="matrix(1.00, 0.00, -0.00, -1.00, 455.7, 432.0)">i</text><text xml:space="preserve" font-family="ArialMT" font-size="44.0" fill="#000000" transform="matrix(1.00, 0.00, -0.00, -1.00, 465.5, 432.0)">n</text><text xml:space="preserve" font-family="ArialMT" font-size="44.0" fill="#000000" transform="matrix(1.00, 0.00, -0.00, -1.00, 490.0, 432.0)">f</text><text xml:space="preserve" font-family="ArialMT" font-size="44.0" fill="#000000" transform="matrix(1.00, 0.00, -0.00, -1.00, 502.2, 432.0)">e</text><text xml:space="preserve" font-family="ArialMT" font-size="44.0" fill="#000000" transform="matrix(1.00, 0.00, -0.00, -1.00, 526.7, 432.0)">c</text><text xml:space="preserve" font-family="ArialMT" font-size="44.0" fill="#000000" transform="matrix(1.00, 0.00, -0.00, -1.00, 548.7, 432.0)">t</text><text xml:space="preserve" font-family="ArialMT" font-size="44.0" fill="#000000" transform="matrix(1.00, 0.00, -0.00, -1.00, 560.9, 432.0)">i</text><text xml:space="preserve" font-family="ArialMT" font-size="44.0" fill="#000000" transform="matrix(1.00, 0.00, -0.00, -1.00, 570.7, 432.0)">o</text><text xml:space="preserve" font-family="ArialMT" font-size="44.0" fill="#000000" transform="matrix(1.00, 0.00, -0.00, -1.00, 595.2, 432.0)">n</text><text xml:space="preserve" font-family="ArialMT" font-size="28.0" fill="#000000" transform="matrix(1.00, 0.00, -0.00, -1.00, 61.2, 354.8)">•</text><text xml:space="preserve" font-family="ArialMT" font-size="28.0" fill="#000000" transform="matrix(1.00, 0.00, -0.00, -1.00, 88.0, 355.0)">C</text><text xml:space="preserve" font-family="ArialMT" font-size="28.0" fill="#000000" transform="matrix(1.00, 0.00, -0.00, -1.00, 108.2, 355.0)">a</text><text xml:space="preserve" font-family="ArialMT" font-size="28.0" fill="#000000" transform="matrix(1.00, 0.00, -0.00, -1.00, 123.8, 355.0)">n</text><text xml:space="preserve" font-family="ArialMT" font-size="28.0" fill="#000000" transform="matrix(1.00, 0.00, -0.00, -1.00, 139.4, 355.0)"> </text><text xml:space="preserve" font-family="ArialMT" font-size="28.0" fill="#000000" transform="matrix(1.00, 0.00, -0.00, -1.00, 147.2, 355.0)">r</text><text xml:space="preserve" font-family="ArialMT" font-size="28.0" fill="#000000" transform="matrix(1.00, 0.00, -0.00, -1.00, 156.5, 355.0)">a</text><text xml:space="preserve" font-family="ArialMT" font-size="28.0" fill="#000000" transform="matrix(1.00, 0.00, -0.00, -1.00, 172.1, 355.0)">n</text><text xml:space="preserve" font-family="ArialMT" font-size="28.0" fill="#000000" transform="matrix(1.00, 0.00, -0.00, -1.00, 187.6, 355.0)">g</text><text xml:space="preserve" font-family="ArialMT" font-size="28.0" fill="#000000" transform="matrix(1.00, 0.00, -0.00, -1.00, 203.2, 355.0)">e</text><text xml:space="preserve" font-family="ArialMT" font-size="28.0" fill="#000000" transform="matrix(1.00, 0.00, -0.00, -1.00, 218.8, 355.0)"> </text><text xml:space="preserve" font-family="ArialMT" font-size="28.0" fill="#000000" transform="matrix(1.00, 0.00, -0.00, -1.00, 226.6, 355.0)">f</text><text xml:space="preserve" font-family="ArialMT" font-size="28.0" fill="#000000" transform="matrix(1.00, 0.00, -0.00, -1.00, 234.3, 355.0)">r</text><text xml:space="preserve" font-family="ArialMT" font-size="28.0" fill="#000000" transform="matrix(1.00, 0.00, -0.00, -1.00, 243.7, 355.0)">o</text><text xml:space="preserve" font-family="ArialMT" font-size="28.0" fill="#000000" transform="matrix(1.00, 0.00, -0.00, -1.00, 259.2, 355.0)">m</text><text xml:space="preserve" font-family="ArialMT" font-size="28.0" fill="#000000" transform="matrix(1.00, 0.00, -0.00, -1.00, 282.6, 355.0)"> </text><text xml:space="preserve" font-family="ArialMT" font-size="28.0" fill="#000000" transform="matrix(1.00, 0.00, -0.00, -1.00, 290.3, 355.0)">n</text><text xml:space="preserve" font-family="ArialMT" font-size="28.0" fill="#000000" transform="matrix(1.00, 0.00, -0.00, -1.00, 305.9, 355.0)">o</text><text xml:space="preserve" font-family="ArialMT" font-size="28.0" fill="#000000" transform="matrix(1.00, 0.00, -0.00, -1.00, 321.5, 355.0)"> </text><text xml:space="preserve" font-family="ArialMT" font-size="28.0" fill="#000000" transform="matrix(1.00, 0.00, -0.00, -1.00, 329.3, 355.0)">e</text><text xml:space="preserve" font-family="ArialMT" font-size="28.0" fill="#000000" transform="matrix(1.00, 0.00, -0.00, -1.00, 344.8, 355.0)">f</text><text xml:space="preserve" font-family="ArialMT" font-size="28.0" fill="#000000" transform="matrix(1.00, 0.00, -0.00, -1.00, 352.1, 355.0)">f</text><text xml:space="preserve" font-family="ArialMT" font-size="28.0" fill="#000000" transform="matrix(1.00, 0.00, -0.00, -1.00, 359.9, 355.0)">e</text><text xml:space="preserve" font-family="ArialMT" font-size="28.0" fill="#000000" transform="matrix(1.00, 0.00, -0.00, -1.00, 375.5, 355.0)">c</text><text xml:space="preserve" font-family="ArialMT" font-size="28.0" fill="#000000" transform="matrix(1.00, 0.00, -0.00, -1.00, 389.5, 355.0)">t</text><text xml:space="preserve" font-family="ArialMT" font-size="28.0" fill="#000000" transform="matrix(1.00, 0.00, -0.00, -1.00, 397.2, 355.0)"> </text><text xml:space="preserve" font-family="ArialMT" font-size="28.0" fill="#000000" transform="matrix(1.00, 0.00, -0.00, -1.00, 405.0, 355.0)">t</text><text xml:space="preserve" font-family="ArialMT" font-size="28.0" fill="#000000" transform="matrix(1.00, 0.00, -0.00, -1.00, 412.8, 355.0)">o</text><text xml:space="preserve" font-family="ArialMT" font-size="28.0" fill="#000000" transform="matrix(1.00, 0.00, -0.00, -1.00, 428.4, 355.0)"> </text><text xml:space="preserve" font-family="ArialMT" font-size="28.0" fill="#000000" transform="matrix(1.00, 0.00, -0.00, -1.00, 436.1, 355.0)">d</text><text xml:space="preserve" font-family="ArialMT" font-size="28.0" fill="#000000" transform="matrix(1.00, 0.00, -0.00, -1.00, 451.7, 355.0)">e</text><text xml:space="preserve" font-family="ArialMT" font-size="28.0" fill="#000000" transform="matrix(1.00, 0.00, -0.00, -1.00, 467.3, 355.0)">a</text><text xml:space="preserve" font-family="ArialMT" font-size="28.0" fill="#000000" transform="matrix(1.00, 0.00, -0.00, -1.00, 482.9, 355.0)">t</text><text xml:space="preserve" font-family="ArialMT" font-size="28.0" fill="#000000" transform="matrix(1.00, 0.00, -0.00, -1.00, 490.6, 355.0)">h</text><text xml:space="preserve" font-family="ArialMT" font-size="28.0" fill="#000000" transform="matrix(1.00, 0.00, -0.00, -1.00, 506.2, 355.0)"> </text><text xml:space="preserve" font-family="ArialMT" font-size="28.0" fill="#000000" transform="matrix(1.00, 0.00, -0.00, -1.00, 61.2, 318.6)">•</text><text xml:space="preserve" font-family="ArialMT" font-size="28.0" fill="#000000" transform="matrix(1.00, 0.00, -0.00, -1.00, 88.0, 319.0)">S</text><text xml:space="preserve" font-family="ArialMT" font-size="28.0" fill="#000000" transform="matrix(1.00, 0.00, -0.00, -1.00, 106.7, 319.0)">t</text><text xml:space="preserve" font-family="ArialMT" font-size="28.0" fill="#000000" transform="matrix(1.00, 0.00, -0.00, -1.00, 114.4, 319.0)">r</text><text xml:space="preserve" font-family="ArialMT" font-size="28.0" fill="#000000" transform="matrix(1.00, 0.00, -0.00, -1.00, 123.8, 319.0)">o</text><text xml:space="preserve" font-family="ArialMT" font-size="28.0" fill="#000000" transform="matrix(1.00, 0.00, -0.00, -1.00, 139.4, 319.0)">n</text><text xml:space="preserve" font-family="ArialMT" font-size="28.0" fill="#000000" transform="matrix(1.00, 0.00, -0.00, -1.00, 154.9, 319.0)">g</text><text xml:space="preserve" font-family="ArialMT" font-size="28.0" fill="#000000" transform="matrix(1.00, 0.00, -0.00, -1.00, 170.5, 319.0)"> </text><text xml:space="preserve" font-family="ArialMT" font-size="28.0" fill="#000000" transform="matrix(1.00, 0.00, -0.00, -1.00, 178.3, 319.0)">e</text><text xml:space="preserve" font-family="ArialMT" font-size="28.0" fill="#000000" transform="matrix(1.00, 0.00, -0.00, -1.00, 193.9, 319.0)">f</text><text xml:space="preserve" font-family="ArialMT" font-size="28.0" fill="#000000" transform="matrix(1.00, 0.00, -0.00, -1.00, 201.1, 319.0)">f</text><text xml:space="preserve" font-family="ArialMT" font-size="28.0" fill="#000000" transform="matrix(1.00, 0.00, -0.00, -1.00, 208.9, 319.0)">e</text><text xml:space="preserve" font-family="ArialMT" font-size="28.0" fill="#000000" transform="matrix(1.00, 0.00, -0.00, -1.00, 224.5, 319.0)">c</text><text xml:space="preserve" font-family="ArialMT" font-size="28.0" fill="#000000" transform="matrix(1.00, 0.00, -0.00, -1.00, 238.5, 319.0)">t</text><text xml:space="preserve" font-family="ArialMT" font-size="28.0" fill="#000000" transform="matrix(1.00, 0.00, -0.00, -1.00, 246.3, 319.0)">s</text><text xml:space="preserve" font-family="ArialMT" font-size="28.0" fill="#000000" transform="matrix(1.00, 0.00, -0.00, -1.00, 260.3, 319.0)"> </text><text xml:space="preserve" font-family="ArialMT" font-size="28.0" fill="#000000" transform="matrix(1.00, 0.00, -0.00, -1.00, 268.0, 319.0)">h</text><text xml:space="preserve" font-family="ArialMT" font-size="28.0" fill="#000000" transform="matrix(1.00, 0.00, -0.00, -1.00, 283.6, 319.0)">a</text><text xml:space="preserve" font-family="ArialMT" font-size="28.0" fill="#000000" transform="matrix(1.00, 0.00, -0.00, -1.00, 299.2, 319.0)">v</text><text xml:space="preserve" font-family="ArialMT" font-size="28.0" fill="#000000" transform="matrix(1.00, 0.00, -0.00, -1.00, 313.2, 319.0)">e</text><text xml:space="preserve" font-family="ArialMT" font-size="28.0" fill="#000000" transform="matrix(1.00, 0.00, -0.00, -1.00, 328.8, 319.0)"> </text><text xml:space="preserve" font-family="ArialMT" font-size="28.0" fill="#000000" transform="matrix(1.00, 0.00, -0.00, -1.00, 336.5, 319.0)">b</text><text xml:space="preserve" font-family="ArialMT" font-size="28.0" fill="#000000" transform="matrix(1.00, 0.00, -0.00, -1.00, 352.1, 319.0)">e</text><text xml:space="preserve" font-family="ArialMT" font-size="28.0" fill="#000000" transform="matrix(1.00, 0.00, -0.00, -1.00, 367.7, 319.0)">e</text><text xml:space="preserve" font-family="ArialMT" font-size="28.0" fill="#000000" transform="matrix(1.00, 0.00, -0.00, -1.00, 383.3, 319.0)">n</text><text xml:space="preserve" font-family="ArialMT" font-size="28.0" fill="#000000" transform="matrix(1.00, 0.00, -0.00, -1.00, 398.8, 319.0)"> </text><text xml:space="preserve" font-family="ArialMT" font-size="28.0" fill="#000000" transform="matrix(1.00, 0.00, -0.00, -1.00, 406.6, 319.0)">s</text><text xml:space="preserve" font-family="ArialMT" font-size="28.0" fill="#000000" transform="matrix(1.00, 0.00, -0.00, -1.00, 420.6, 319.0)">h</text><text xml:space="preserve" font-family="ArialMT" font-size="28.0" fill="#000000" transform="matrix(1.00, 0.00, -0.00, -1.00, 436.2, 319.0)">o</text><text xml:space="preserve" font-family="ArialMT" font-size="28.0" fill="#000000" transform="matrix(1.00, 0.00, -0.00, -1.00, 451.8, 319.0)">w</text><text xml:space="preserve" font-family="ArialMT" font-size="28.0" fill="#000000" transform="matrix(1.00, 0.00, -0.00, -1.00, 472.0, 319.0)">n</text><text xml:space="preserve" font-family="ArialMT" font-size="28.0" fill="#000000" transform="matrix(1.00, 0.00, -0.00, -1.00, 487.6, 319.0)"> </text><text xml:space="preserve" font-family="ArialMT" font-size="24.0" fill="#000000" transform="matrix(1.00, 0.00, -0.00, -1.00, 97.2, 286.3)">–</text><text xml:space="preserve" font-family="ArialMT" font-size="24.0" fill="#000000" transform="matrix(1.00, 0.00, -0.00, -1.00, 120.0, 286.0)">A</text><text xml:space="preserve" font-family="ArialMT" font-size="24.0" fill="#000000" transform="matrix(1.00, 0.00, -0.00, -1.00, 136.0, 286.0)">n</text><text xml:space="preserve" font-family="ArialMT" font-size="24.0" fill="#000000" transform="matrix(1.00, 0.00, -0.00, -1.00, 149.4, 286.0)">e</text><text xml:space="preserve" font-family="ArialMT" font-size="24.0" fill="#000000" transform="matrix(1.00, 0.00, -0.00, -1.00, 162.7, 286.0)">m</text><text xml:space="preserve" font-family="ArialMT" font-size="24.0" fill="#000000" transform="matrix(1.00, 0.00, -0.00, -1.00, 182.7, 286.0)">i</text><text xml:space="preserve" font-family="ArialMT" font-size="24.0" fill="#000000" transform="matrix(1.00, 0.00, -0.00, -1.00, 188.0, 286.0)">a</text><text xml:space="preserve" font-family="ArialMT" font-size="24.0" fill="#000000" transform="matrix(1.00, 0.00, -0.00, -1.00, 201.4, 286.0)"> </text><text xml:space="preserve" font-family="ArialMT" font-size="24.0" fill="#000000" transform="matrix(1.00, 0.00, -0.00, -1.00, 97.2, 254.6)">–</text><text xml:space="preserve" font-family="ArialMT" font-size="24.0" fill="#000000" transform="matrix(1.00, 0.00, -0.00, -1.00, 120.0, 255.0)">S</text><text xml:space="preserve" font-family="ArialMT" font-size="24.0" fill="#000000" transform="matrix(1.00, 0.00, -0.00, -1.00, 136.0, 255.0)">l</text><text xml:space="preserve" font-family="ArialMT" font-size="24.0" fill="#000000" transform="matrix(1.00, 0.00, -0.00, -1.00, 141.3, 255.0)">o</text><text xml:space="preserve" font-family="ArialMT" font-size="24.0" fill="#000000" transform="matrix(1.00, 0.00, -0.00, -1.00, 154.7, 255.0)">w</text><text xml:space="preserve" font-family="ArialMT" font-size="24.0" fill="#000000" transform="matrix(1.00, 0.00, -0.00, -1.00, 172.0, 255.0)">e</text><text xml:space="preserve" font-family="ArialMT" font-size="24.0" fill="#000000" transform="matrix(1.00, 0.00, -0.00, -1.00, 185.4, 255.0)">r</text><text xml:space="preserve" font-family="ArialMT" font-size="24.0" fill="#000000" transform="matrix(1.00, 0.00, -0.00, -1.00, 193.4, 255.0)"> </text><text xml:space="preserve" font-family="ArialMT" font-size="24.0" fill="#000000" transform="matrix(1.00, 0.00, -0.00, -1.00, 200.0, 255.0)">m</text><text xml:space="preserve" font-family="ArialMT" font-size="24.0" fill="#000000" transform="matrix(1.00, 0.00, -0.00, -1.00, 220.0, 255.0)">o</text><text xml:space="preserve" font-family="ArialMT" font-size="24.0" fill="#000000" transform="matrix(1.00, 0.00, -0.00, -1.00, 233.4, 255.0)">v</text><text xml:space="preserve" font-family="ArialMT" font-size="24.0" fill="#000000" transform="matrix(1.00, 0.00, -0.00, -1.00, 245.4, 255.0)">e</text><text xml:space="preserve" font-family="ArialMT" font-size="24.0" fill="#000000" transform="matrix(1.00, 0.00, -0.00, -1.00, 258.7, 255.0)">m</text><text xml:space="preserve" font-family="ArialMT" font-size="24.0" fill="#000000" transform="matrix(1.00, 0.00, -0.00, -1.00, 278.7, 255.0)">e</text><text xml:space="preserve" font-family="ArialMT" font-size="24.0" fill="#000000" transform="matrix(1.00, 0.00, -0.00, -1.00, 292.1, 255.0)">n</text><text xml:space="preserve" font-family="ArialMT" font-size="24.0" fill="#000000" transform="matrix(1.00, 0.00, -0.00, -1.00, 305.4, 255.0)">t</text><text xml:space="preserve" font-family="ArialMT" font-size="24.0" fill="#000000" transform="matrix(1.00, 0.00, -0.00, -1.00, 312.1, 255.0)"> </text><text xml:space="preserve" font-family="ArialMT" font-size="24.0" fill="#000000" transform="matrix(1.00, 0.00, -0.00, -1.00, 97.2, 222.9)">–</text><text xml:space="preserve" font-family="ArialMT" font-size="24.0" fill="#000000" transform="matrix(1.00, 0.00, -0.00, -1.00, 120.0, 223.0)">R</text><text xml:space="preserve" font-family="ArialMT" font-size="24.0" fill="#000000" transform="matrix(1.00, 0.00, -0.00, -1.00, 137.3, 223.0)">e</text><text xml:space="preserve" font-family="ArialMT" font-size="24.0" fill="#000000" transform="matrix(1.00, 0.00, -0.00, -1.00, 150.7, 223.0)">d</text><text xml:space="preserve" font-family="ArialMT" font-size="24.0" fill="#000000" transform="matrix(1.00, 0.00, -0.00, -1.00, 164.0, 223.0)">u</text><text xml:space="preserve" font-family="ArialMT" font-size="24.0" fill="#000000" transform="matrix(1.00, 0.00, -0.00, -1.00, 177.4, 223.0)">c</text><text xml:space="preserve" font-family="ArialMT" font-size="24.0" fill="#000000" transform="matrix(1.00, 0.00, -0.00, -1.00, 189.4, 223.0)">e</text><text xml:space="preserve" font-family="ArialMT" font-size="24.0" fill="#000000" transform="matrix(1.00, 0.00, -0.00, -1.00, 202.7, 223.0)">d</text><text xml:space="preserve" font-family="ArialMT" font-size="24.0" fill="#000000" transform="matrix(1.00, 0.00, -0.00, -1.00, 216.1, 223.0)"> </text><text xml:space="preserve" font-family="ArialMT" font-size="24.0" fill="#000000" transform="matrix(1.00, 0.00, -0.00, -1.00, 222.8, 223.0)">p</text><text xml:space="preserve" font-family="ArialMT" font-size="24.0" fill="#000000" transform="matrix(1.00, 0.00, -0.00, -1.00, 236.1, 223.0)">e</text><text xml:space="preserve" font-family="ArialMT" font-size="24.0" fill="#000000" transform="matrix(1.00, 0.00, -0.00, -1.00, 249.5, 223.0)">r</text><text xml:space="preserve" font-family="ArialMT" font-size="24.0" fill="#000000" transform="matrix(1.00, 0.00, -0.00, -1.00, 257.5, 223.0)">f</text><text xml:space="preserve" font-family="ArialMT" font-size="24.0" fill="#000000" transform="matrix(1.00, 0.00, -0.00, -1.00, 264.1, 223.0)">o</text><text xml:space="preserve" font-family="ArialMT" font-size="24.0" fill="#000000" transform="matrix(1.00, 0.00, -0.00, -1.00, 277.5, 223.0)">r</text><text xml:space="preserve" font-family="ArialMT" font-size="24.0" fill="#000000" transform="matrix(1.00, 0.00, -0.00, -1.00, 285.5, 223.0)">m</text><text xml:space="preserve" font-family="ArialMT" font-size="24.0" fill="#000000" transform="matrix(1.00, 0.00, -0.00, -1.00, 305.5, 223.0)">a</text><text xml:space="preserve" font-family="ArialMT" font-size="24.0" fill="#000000" transform="matrix(1.00, 0.00, -0.00, -1.00, 318.8, 223.0)">n</text><text xml:space="preserve" font-family="ArialMT" font-size="24.0" fill="#000000" transform="matrix(1.00, 0.00, -0.00, -1.00, 332.2, 223.0)">c</text><text xml:space="preserve" font-family="ArialMT" font-size="24.0" fill="#000000" transform="matrix(1.00, 0.00, -0.00, -1.00, 344.2, 223.0)">e</text><text xml:space="preserve" font-family="ArialMT" font-size="24.0" fill="#000000" transform="matrix(1.00, 0.00, -0.00, -1.00, 357.5, 223.0)"> </text><text xml:space="preserve" font-family="ArialMT" font-size="24.0" fill="#000000" transform="matrix(1.00, 0.00, -0.00, -1.00, 97.2, 191.3)">–</text><text xml:space="preserve" font-family="ArialMT" font-size="24.0" fill="#000000" transform="matrix(1.00, 0.00, -0.00, -1.00, 120.0, 191.0)">L</text><text xml:space="preserve" font-family="ArialMT" font-size="24.0" fill="#000000" transform="matrix(1.00, 0.00, -0.00, -1.00, 133.4, 191.0)">o</text><text xml:space="preserve" font-family="ArialMT" font-size="24.0" fill="#000000" transform="matrix(1.00, 0.00, -0.00, -1.00, 146.7, 191.0)">w</text><text xml:space="preserve" font-family="ArialMT" font-size="24.0" fill="#000000" transform="matrix(1.00, 0.00, -0.00, -1.00, 164.0, 191.0)">e</text><text xml:space="preserve" font-family="ArialMT" font-size="24.0" fill="#000000" transform="matrix(1.00, 0.00, -0.00, -1.00, 177.4, 191.0)">r</text><text xml:space="preserve" font-family="ArialMT" font-size="24.0" fill="#000000" transform="matrix(1.00, 0.00, -0.00, -1.00, 185.4, 191.0)"> </text><text xml:space="preserve" font-family="ArialMT" font-size="24.0" fill="#000000" transform="matrix(1.00, 0.00, -0.00, -1.00, 192.0, 191.0)">f</text><text xml:space="preserve" font-family="ArialMT" font-size="24.0" fill="#000000" transform="matrix(1.00, 0.00, -0.00, -1.00, 198.7, 191.0)">i</text><text xml:space="preserve" font-family="ArialMT" font-size="24.0" fill="#000000" transform="matrix(1.00, 0.00, -0.00, -1.00, 204.0, 191.0)">t</text><text xml:space="preserve" font-family="ArialMT" font-size="24.0" fill="#000000" transform="matrix(1.00, 0.00, -0.00, -1.00, 210.7, 191.0)">n</text><text xml:space="preserve" font-family="ArialMT" font-size="24.0" fill="#000000" transform="matrix(1.00, 0.00, -0.00, -1.00, 224.1, 191.0)">e</text><text xml:space="preserve" font-family="ArialMT" font-size="24.0" fill="#000000" transform="matrix(1.00, 0.00, -0.00, -1.00, 237.4, 191.0)">s</text><text xml:space="preserve" font-family="ArialMT" font-size="24.0" fill="#000000" transform="matrix(1.00, 0.00, -0.00, -1.00, 249.4, 191.0)">s</text><text xml:space="preserve" font-family="ArialMT" font-size="24.0" fill="#000000" transform="matrix(1.00, 0.00, -0.00, -1.00, 261.4, 191.0)"> </text><text xml:space="preserve" font-family="ArialMT" font-size="28.0" fill="#000000" transform="matrix(1.00, 0.00, -0.00, -1.00, 61.2, 155.6)">•</text><text xml:space="preserve" font-family="ArialMT" font-size="28.0" fill="#000000" transform="matrix(1.00, 0.00, -0.00, -1.00, 88.0, 156.0)">E</text><text xml:space="preserve" font-family="ArialMT" font-size="28.0" fill="#000000" transform="matrix(1.00, 0.00, -0.00, -1.00, 106.7, 156.0)">c</text><text xml:space="preserve" font-family="ArialMT" font-size="28.0" fill="#000000" transform="matrix(1.00, 0.00, -0.00, -1.00, 120.7, 156.0)">t</text><text xml:space="preserve" font-family="ArialMT" font-size="28.0" fill="#000000" transform="matrix(1.00, 0.00, -0.00, -1.00, 128.4, 156.0)">o</text><text xml:space="preserve" font-family="ArialMT" font-size="28.0" fill="#000000" transform="matrix(1.00, 0.00, -0.00, -1.00, 144.0, 156.0)">p</text><text xml:space="preserve" font-family="ArialMT" font-size="28.0" fill="#000000" transform="matrix(1.00, 0.00, -0.00, -1.00, 159.6, 156.0)">a</text><text xml:space="preserve" font-family="ArialMT" font-size="28.0" fill="#000000" transform="matrix(1.00, 0.00, -0.00, -1.00, 175.2, 156.0)">r</text><text xml:space="preserve" font-family="ArialMT" font-size="28.0" fill="#000000" transform="matrix(1.00, 0.00, -0.00, -1.00, 184.5, 156.0)">a</text><text xml:space="preserve" font-family="ArialMT" font-size="28.0" fill="#000000" transform="matrix(1.00, 0.00, -0.00, -1.00, 200.1, 156.0)">s</text><text xml:space="preserve" font-family="ArialMT" font-size="28.0" fill="#000000" transform="matrix(1.00, 0.00, -0.00, -1.00, 214.1, 156.0)">i</text><text xml:space="preserve" font-family="ArialMT" font-size="28.0" fill="#000000" transform="matrix(1.00, 0.00, -0.00, -1.00, 220.3, 156.0)">t</text><text xml:space="preserve" font-family="ArialMT" font-size="28.0" fill="#000000" transform="matrix(1.00, 0.00, -0.00, -1.00, 228.1, 156.0)">e</text><text xml:space="preserve" font-family="ArialMT" font-size="28.0" fill="#000000" transform="matrix(1.00, 0.00, -0.00, -1.00, 243.7, 156.0)">s</text><text xml:space="preserve" font-family="ArialMT" font-size="28.0" fill="#000000" transform="matrix(1.00, 0.00, -0.00, -1.00, 257.7, 156.0)"> </text><text xml:space="preserve" font-family="ArialMT" font-size="28.0" fill="#000000" transform="matrix(1.00, 0.00, -0.00, -1.00, 265.4, 156.0)">c</text><text xml:space="preserve" font-family="ArialMT" font-size="28.0" fill="#000000" transform="matrix(1.00, 0.00, -0.00, -1.00, 279.4, 156.0)">a</text><text xml:space="preserve" font-family="ArialMT" font-size="28.0" fill="#000000" transform="matrix(1.00, 0.00, -0.00, -1.00, 295.0, 156.0)">n</text><text xml:space="preserve" font-family="ArialMT" font-size="28.0" fill="#000000" transform="matrix(1.00, 0.00, -0.00, -1.00, 310.6, 156.0)"> </text><text xml:space="preserve" font-family="ArialMT" font-size="28.0" fill="#000000" transform="matrix(1.00, 0.00, -0.00, -1.00, 318.4, 156.0)">l</text><text xml:space="preserve" font-family="ArialMT" font-size="28.0" fill="#000000" transform="matrix(1.00, 0.00, -0.00, -1.00, 324.6, 156.0)">e</text><text xml:space="preserve" font-family="ArialMT" font-size="28.0" fill="#000000" transform="matrix(1.00, 0.00, -0.00, -1.00, 340.2, 156.0)">a</text><text xml:space="preserve" font-family="ArialMT" font-size="28.0" fill="#000000" transform="matrix(1.00, 0.00, -0.00, -1.00, 355.7, 156.0)">d</text><text xml:space="preserve" font-family="ArialMT" font-size="28.0" fill="#000000" transform="matrix(1.00, 0.00, -0.00, -1.00, 371.3, 156.0)"> </text><text xml:space="preserve" font-family="ArialMT" font-size="28.0" fill="#000000" transform="matrix(1.00, 0.00, -0.00, -1.00, 379.1, 156.0)">t</text><text xml:space="preserve" font-family="ArialMT" font-size="28.0" fill="#000000" transform="matrix(1.00, 0.00, -0.00, -1.00, 386.9, 156.0)">o</text><text xml:space="preserve" font-family="ArialMT" font-size="28.0" fill="#000000" transform="matrix(1.00, 0.00, -0.00, -1.00, 402.5, 156.0)"> </text><text xml:space="preserve" font-family="ArialMT" font-size="28.0" fill="#000000" transform="matrix(1.00, 0.00, -0.00, -1.00, 410.2, 156.0)">e</text><text xml:space="preserve" font-family="ArialMT" font-size="28.0" fill="#000000" transform="matrix(1.00, 0.00, -0.00, -1.00, 425.8, 156.0)">n</text><text xml:space="preserve" font-family="ArialMT" font-size="28.0" fill="#000000" transform="matrix(1.00, 0.00, -0.00, -1.00, 441.4, 156.0)">d</text><text xml:space="preserve" font-family="ArialMT" font-size="28.0" fill="#000000" transform="matrix(1.00, 0.00, -0.00, -1.00, 457.0, 156.0)">o</text><text xml:space="preserve" font-family="ArialMT" font-size="28.0" fill="#000000" transform="matrix(1.00, 0.00, -0.00, -1.00, 472.5, 156.0)">p</text><text xml:space="preserve" font-family="ArialMT" font-size="28.0" fill="#000000" transform="matrix(1.00, 0.00, -0.00, -1.00, 488.1, 156.0)">a</text><text xml:space="preserve" font-family="ArialMT" font-size="28.0" fill="#000000" transform="matrix(1.00, 0.00, -0.00, -1.00, 503.7, 156.0)">r</text><text xml:space="preserve" font-family="ArialMT" font-size="28.0" fill="#000000" transform="matrix(1.00, 0.00, -0.00, -1.00, 513.0, 156.0)">a</text><text xml:space="preserve" font-family="ArialMT" font-size="28.0" fill="#000000" transform="matrix(1.00, 0.00, -0.00, -1.00, 528.6, 156.0)">s</text><text xml:space="preserve" font-family="ArialMT" font-size="28.0" fill="#000000" transform="matrix(1.00, 0.00, -0.00, -1.00, 542.6, 156.0)">i</text><text xml:space="preserve" font-family="ArialMT" font-size="28.0" fill="#000000" transform="matrix(1.00, 0.00, -0.00, -1.00, 548.8, 156.0)">t</text><text xml:space="preserve" font-family="ArialMT" font-size="28.0" fill="#000000" transform="matrix(1.00, 0.00, -0.00, -1.00, 556.6, 156.0)">e</text><text xml:space="preserve" font-family="ArialMT" font-size="28.0" fill="#000000" transform="matrix(1.00, 0.00, -0.00, -1.00, 572.2, 156.0)">s</text></g></svg>