<?xml version="1.0" encoding="UTF-8" standalone="no"?><svg xmlns="http://www.w3.org/2000/svg" xmlns:xlink="http://www.w3.org/1999/xlink" clip-rule="evenodd" stroke-miterlimit="4.00" viewBox="0 0 720 540"><desc>SVG generated by Keynote</desc><defs></defs><g transform="matrix(1.00, 0.00, -0.00, -1.00, 0.0, 540.0)"><path d="M 0.0 540.0 L 720.0 540.0 L 720.0 0.0 L 0.0 0.0 Z M 0.0 540.0 " fill="#FEFFFF"></path><text xml:space="preserve" font-family="ArialMT" font-size="44.0" fill="#000000" transform="matrix(1.00, 0.00, -0.00, -1.00, 216.0, 432.0)">V</text><text xml:space="preserve" font-family="ArialMT" font-size="44.0" fill="#000000" transform="matrix(1.00, 0.00, -0.00, -1.00, 244.6, 432.0)">i</text><text xml:space="preserve" font-family="ArialMT" font-size="44.0" fill="#000000" transform="matrix(1.00, 0.00, -0.00, -1.00, 254.3, 432.0)">r</text><text xml:space="preserve" font-family="ArialMT" font-size="44.0" fill="#000000" transform="matrix(1.00, 0.00, -0.00, -1.00, 269.0, 432.0)">a</text><text xml:space="preserve" font-family="ArialMT" font-size="44.0" fill="#000000" transform="matrix(1.00, 0.00, -0.00, -1.00, 293.5, 432.0)">l</text><text xml:space="preserve" font-family="ArialMT" font-size="44.0" fill="#000000" transform="matrix(1.00, 0.00, -0.00, -1.00, 303.3, 432.0)"> </text><text xml:space="preserve" font-family="ArialMT" font-size="44.0" fill="#000000" transform="matrix(1.00, 0.00, -0.00, -1.00, 315.5, 432.0)">I</text><text xml:space="preserve" font-family="ArialMT" font-size="44.0" fill="#000000" transform="matrix(1.00, 0.00, -0.00, -1.00, 327.7, 432.0)">n</text><text xml:space="preserve" font-family="ArialMT" font-size="44.0" fill="#000000" transform="matrix(1.00, 0.00, -0.00, -1.00, 352.2, 432.0)">f</text><text xml:space="preserve" font-family="ArialMT" font-size="44.0" fill="#000000" transform="matrix(1.00, 0.00, -0.00, -1.00, 364.4, 432.0)">e</text><text xml:space="preserve" font-family="ArialMT" font-size="44.0" fill="#000000" transform="matrix(1.00, 0.00, -0.00, -1.00, 388.9, 432.0)">c</text><text xml:space="preserve" font-family="ArialMT" font-size="44.0" fill="#000000" transform="matrix(1.00, 0.00, -0.00, -1.00, 410.9, 432.0)">t</text><text xml:space="preserve" font-family="ArialMT" font-size="44.0" fill="#000000" transform="matrix(1.00, 0.00, -0.00, -1.00, 423.1, 432.0)">i</text><text xml:space="preserve" font-family="ArialMT" font-size="44.0" fill="#000000" transform="matrix(1.00, 0.00, -0.00, -1.00, 432.9, 432.0)">o</text><text xml:space="preserve" font-family="ArialMT" font-size="44.0" fill="#000000" transform="matrix(1.00, 0.00, -0.00, -1.00, 457.3, 432.0)">n</text><text xml:space="preserve" font-family="ArialMT" font-size="44.0" fill="#000000" transform="matrix(1.00, 0.00, -0.00, -1.00, 481.8, 432.0)">s</text><text xml:space="preserve" font-family="ArialMT" font-size="28.0" fill="#000000" transform="matrix(1.00, 0.00, -0.00, -1.00, 61.2, 354.8)">•</text><text xml:space="preserve" font-family="ArialMT" font-size="28.0" fill="#000000" transform="matrix(1.00, 0.00, -0.00, -1.00, 88.0, 355.0)">F</text><text xml:space="preserve" font-family="ArialMT" font-size="28.0" fill="#000000" transform="matrix(1.00, 0.00, -0.00, -1.00, 105.1, 355.0)">i</text><text xml:space="preserve" font-family="ArialMT" font-size="28.0" fill="#000000" transform="matrix(1.00, 0.00, -0.00, -1.00, 111.3, 355.0)">b</text><text xml:space="preserve" font-family="ArialMT" font-size="28.0" fill="#000000" transform="matrix(1.00, 0.00, -0.00, -1.00, 126.9, 355.0)">r</text><text xml:space="preserve" font-family="ArialMT" font-size="28.0" fill="#000000" transform="matrix(1.00, 0.00, -0.00, -1.00, 136.2, 355.0)">o</text><text xml:space="preserve" font-family="ArialMT" font-size="28.0" fill="#000000" transform="matrix(1.00, 0.00, -0.00, -1.00, 151.8, 355.0)">p</text><text xml:space="preserve" font-family="ArialMT" font-size="28.0" fill="#000000" transform="matrix(1.00, 0.00, -0.00, -1.00, 167.4, 355.0)">a</text><text xml:space="preserve" font-family="ArialMT" font-size="28.0" fill="#000000" transform="matrix(1.00, 0.00, -0.00, -1.00, 183.0, 355.0)">p</text><text xml:space="preserve" font-family="ArialMT" font-size="28.0" fill="#000000" transform="matrix(1.00, 0.00, -0.00, -1.00, 198.5, 355.0)">i</text><text xml:space="preserve" font-family="ArialMT" font-size="28.0" fill="#000000" transform="matrix(1.00, 0.00, -0.00, -1.00, 204.8, 355.0)">l</text><text xml:space="preserve" font-family="ArialMT" font-size="28.0" fill="#000000" transform="matrix(1.00, 0.00, -0.00, -1.00, 211.0, 355.0)">l</text><text xml:space="preserve" font-family="ArialMT" font-size="28.0" fill="#000000" transform="matrix(1.00, 0.00, -0.00, -1.00, 217.2, 355.0)">o</text><text xml:space="preserve" font-family="ArialMT" font-size="28.0" fill="#000000" transform="matrix(1.00, 0.00, -0.00, -1.00, 232.8, 355.0)">m</text><text xml:space="preserve" font-family="ArialMT" font-size="28.0" fill="#000000" transform="matrix(1.00, 0.00, -0.00, -1.00, 256.1, 355.0)">a</text><text xml:space="preserve" font-family="ArialMT" font-size="28.0" fill="#000000" transform="matrix(1.00, 0.00, -0.00, -1.00, 271.7, 355.0)">t</text><text xml:space="preserve" font-family="ArialMT" font-size="28.0" fill="#000000" transform="matrix(1.00, 0.00, -0.00, -1.00, 279.5, 355.0)">o</text><text xml:space="preserve" font-family="ArialMT" font-size="28.0" fill="#000000" transform="matrix(1.00, 0.00, -0.00, -1.00, 295.0, 355.0)">s</text><text xml:space="preserve" font-family="ArialMT" font-size="28.0" fill="#000000" transform="matrix(1.00, 0.00, -0.00, -1.00, 309.0, 355.0)">i</text><text xml:space="preserve" font-family="ArialMT" font-size="28.0" fill="#000000" transform="matrix(1.00, 0.00, -0.00, -1.00, 315.3, 355.0)">s</text><text xml:space="preserve" font-family="ArialMT" font-size="28.0" fill="#000000" transform="matrix(1.00, 0.00, -0.00, -1.00, 329.3, 355.0)"> </text><text xml:space="preserve" font-family="ArialMT" font-size="28.0" fill="#000000" transform="matrix(1.00, 0.00, -0.00, -1.00, 88.0, 323.0)">i</text><text xml:space="preserve" font-family="ArialMT" font-size="28.0" fill="#000000" transform="matrix(1.00, 0.00, -0.00, -1.00, 94.2, 323.0)">n</text><text xml:space="preserve" font-family="ArialMT" font-size="28.0" fill="#000000" transform="matrix(1.00, 0.00, -0.00, -1.00, 109.8, 323.0)"> </text><text xml:space="preserve" font-family="ArialMT" font-size="28.0" fill="#000000" transform="matrix(1.00, 0.00, -0.00, -1.00, 117.6, 323.0)">s</text><text xml:space="preserve" font-family="ArialMT" font-size="28.0" fill="#000000" transform="matrix(1.00, 0.00, -0.00, -1.00, 131.6, 323.0)">e</text><text xml:space="preserve" font-family="ArialMT" font-size="28.0" fill="#000000" transform="matrix(1.00, 0.00, -0.00, -1.00, 147.2, 323.0)">a</text><text xml:space="preserve" font-family="ArialMT" font-size="28.0" fill="#000000" transform="matrix(1.00, 0.00, -0.00, -1.00, 162.7, 323.0)"> </text><text xml:space="preserve" font-family="ArialMT" font-size="28.0" fill="#000000" transform="matrix(1.00, 0.00, -0.00, -1.00, 170.5, 323.0)">t</text><text xml:space="preserve" font-family="ArialMT" font-size="28.0" fill="#000000" transform="matrix(1.00, 0.00, -0.00, -1.00, 178.3, 323.0)">u</text><text xml:space="preserve" font-family="ArialMT" font-size="28.0" fill="#000000" transform="matrix(1.00, 0.00, -0.00, -1.00, 193.9, 323.0)">r</text><text xml:space="preserve" font-family="ArialMT" font-size="28.0" fill="#000000" transform="matrix(1.00, 0.00, -0.00, -1.00, 203.2, 323.0)">t</text><text xml:space="preserve" font-family="ArialMT" font-size="28.0" fill="#000000" transform="matrix(1.00, 0.00, -0.00, -1.00, 211.0, 323.0)">l</text><text xml:space="preserve" font-family="ArialMT" font-size="28.0" fill="#000000" transform="matrix(1.00, 0.00, -0.00, -1.00, 217.2, 323.0)">e</text><text xml:space="preserve" font-family="ArialMT" font-size="28.0" fill="#000000" transform="matrix(1.00, 0.00, -0.00, -1.00, 232.8, 323.0)">s</text><text xml:space="preserve" font-family="ArialMT" font-size="28.0" fill="#000000" transform="matrix(1.00, 0.00, -0.00, -1.00, 246.8, 323.0)"> </text><text xml:space="preserve" font-family="ArialMT" font-size="28.0" fill="#000000" transform="matrix(1.00, 0.00, -0.00, -1.00, 61.2, 283.4)">•</text><text xml:space="preserve" font-family="ArialMT" font-size="28.0" fill="#000000" transform="matrix(1.00, 0.00, -0.00, -1.00, 88.0, 283.0)">C</text><text xml:space="preserve" font-family="ArialMT" font-size="28.0" fill="#000000" transform="matrix(1.00, 0.00, -0.00, -1.00, 108.2, 283.0)">a</text><text xml:space="preserve" font-family="ArialMT" font-size="28.0" fill="#000000" transform="matrix(1.00, 0.00, -0.00, -1.00, 123.8, 283.0)">u</text><text xml:space="preserve" font-family="ArialMT" font-size="28.0" fill="#000000" transform="matrix(1.00, 0.00, -0.00, -1.00, 139.4, 283.0)">s</text><text xml:space="preserve" font-family="ArialMT" font-size="28.0" fill="#000000" transform="matrix(1.00, 0.00, -0.00, -1.00, 153.4, 283.0)">e</text><text xml:space="preserve" font-family="ArialMT" font-size="28.0" fill="#000000" transform="matrix(1.00, 0.00, -0.00, -1.00, 169.0, 283.0)">s</text><text xml:space="preserve" font-family="ArialMT" font-size="28.0" fill="#000000" transform="matrix(1.00, 0.00, -0.00, -1.00, 183.0, 283.0)"> </text><text xml:space="preserve" font-family="ArialMT" font-size="28.0" fill="#000000" transform="matrix(1.00, 0.00, -0.00, -1.00, 190.7, 283.0)">n</text><text xml:space="preserve" font-family="ArialMT" font-size="28.0" fill="#000000" transform="matrix(1.00, 0.00, -0.00, -1.00, 206.3, 283.0)">e</text><text xml:space="preserve" font-family="ArialMT" font-size="28.0" fill="#000000" transform="matrix(1.00, 0.00, -0.00, -1.00, 221.9, 283.0)">o</text><text xml:space="preserve" font-family="ArialMT" font-size="28.0" fill="#000000" transform="matrix(1.00, 0.00, -0.00, -1.00, 237.5, 283.0)">p</text><text xml:space="preserve" font-family="ArialMT" font-size="28.0" fill="#000000" transform="matrix(1.00, 0.00, -0.00, -1.00, 253.0, 283.0)">l</text><text xml:space="preserve" font-family="ArialMT" font-size="28.0" fill="#000000" transform="matrix(1.00, 0.00, -0.00, -1.00, 259.3, 283.0)">a</text><text xml:space="preserve" font-family="ArialMT" font-size="28.0" fill="#000000" transform="matrix(1.00, 0.00, -0.00, -1.00, 274.8, 283.0)">s</text><text xml:space="preserve" font-family="ArialMT" font-size="28.0" fill="#000000" transform="matrix(1.00, 0.00, -0.00, -1.00, 288.8, 283.0)">i</text><text xml:space="preserve" font-family="ArialMT" font-size="28.0" fill="#000000" transform="matrix(1.00, 0.00, -0.00, -1.00, 295.1, 283.0)">a</text><text xml:space="preserve" font-family="ArialMT" font-size="28.0" fill="#000000" transform="matrix(1.00, 0.00, -0.00, -1.00, 310.7, 283.0)">s</text><text xml:space="preserve" font-family="ArialMT" font-size="28.0" fill="#000000" transform="matrix(1.00, 0.00, -0.00, -1.00, 324.7, 283.0)"> </text><text xml:space="preserve" font-family="ArialMT" font-size="28.0" fill="#000000" transform="matrix(1.00, 0.00, -0.00, -1.00, 88.0, 251.0)">(</text><text xml:space="preserve" font-family="ArialMT" font-size="28.0" fill="#000000" transform="matrix(1.00, 0.00, -0.00, -1.00, 97.3, 251.0)">t</text><text xml:space="preserve" font-family="ArialMT" font-size="28.0" fill="#000000" transform="matrix(1.00, 0.00, -0.00, -1.00, 105.1, 251.0)">u</text><text xml:space="preserve" font-family="ArialMT" font-size="28.0" fill="#000000" transform="matrix(1.00, 0.00, -0.00, -1.00, 120.7, 251.0)">m</text><text xml:space="preserve" font-family="ArialMT" font-size="28.0" fill="#000000" transform="matrix(1.00, 0.00, -0.00, -1.00, 144.0, 251.0)">o</text><text xml:space="preserve" font-family="ArialMT" font-size="28.0" fill="#000000" transform="matrix(1.00, 0.00, -0.00, -1.00, 159.6, 251.0)">r</text><text xml:space="preserve" font-family="ArialMT" font-size="28.0" fill="#000000" transform="matrix(1.00, 0.00, -0.00, -1.00, 168.9, 251.0)">s</text><text xml:space="preserve" font-family="ArialMT" font-size="28.0" fill="#000000" transform="matrix(1.00, 0.00, -0.00, -1.00, 182.9, 251.0)">)</text><text xml:space="preserve" font-family="ArialMT" font-size="28.0" fill="#000000" transform="matrix(1.00, 0.00, -0.00, -1.00, 192.2, 251.0)"> </text><text xml:space="preserve" font-family="ArialMT" font-size="28.0" fill="#000000" transform="matrix(1.00, 0.00, -0.00, -1.00, 200.0, 251.0)">t</text><text xml:space="preserve" font-family="ArialMT" font-size="28.0" fill="#000000" transform="matrix(1.00, 0.00, -0.00, -1.00, 207.8, 251.0)">o</text><text xml:space="preserve" font-family="ArialMT" font-size="28.0" fill="#000000" transform="matrix(1.00, 0.00, -0.00, -1.00, 223.4, 251.0)"> </text><text xml:space="preserve" font-family="ArialMT" font-size="28.0" fill="#000000" transform="matrix(1.00, 0.00, -0.00, -1.00, 231.1, 251.0)">g</text><text xml:space="preserve" font-family="ArialMT" font-size="28.0" fill="#000000" transform="matrix(1.00, 0.00, -0.00, -1.00, 246.7, 251.0)">r</text><text xml:space="preserve" font-family="ArialMT" font-size="28.0" fill="#000000" transform="matrix(1.00, 0.00, -0.00, -1.00, 256.0, 251.0)">o</text><text xml:space="preserve" font-family="ArialMT" font-size="28.0" fill="#000000" transform="matrix(1.00, 0.00, -0.00, -1.00, 271.6, 251.0)">w</text><text xml:space="preserve" font-family="ArialMT" font-size="28.0" fill="#000000" transform="matrix(1.00, 0.00, -0.00, -1.00, 291.8, 251.0)"> </text><text xml:space="preserve" font-family="ArialMT" font-size="28.0" fill="#000000" transform="matrix(1.00, 0.00, -0.00, -1.00, 299.6, 251.0)">o</text><text xml:space="preserve" font-family="ArialMT" font-size="28.0" fill="#000000" transform="matrix(1.00, 0.00, -0.00, -1.00, 315.2, 251.0)">n</text><text xml:space="preserve" font-family="ArialMT" font-size="28.0" fill="#000000" transform="matrix(1.00, 0.00, -0.00, -1.00, 330.8, 251.0)"> </text><text xml:space="preserve" font-family="ArialMT" font-size="28.0" fill="#000000" transform="matrix(1.00, 0.00, -0.00, -1.00, 88.0, 219.0)">s</text><text xml:space="preserve" font-family="ArialMT" font-size="28.0" fill="#000000" transform="matrix(1.00, 0.00, -0.00, -1.00, 102.0, 219.0)">k</text><text xml:space="preserve" font-family="ArialMT" font-size="28.0" fill="#000000" transform="matrix(1.00, 0.00, -0.00, -1.00, 116.0, 219.0)">i</text><text xml:space="preserve" font-family="ArialMT" font-size="28.0" fill="#000000" transform="matrix(1.00, 0.00, -0.00, -1.00, 122.2, 219.0)">n</text><text xml:space="preserve" font-family="ArialMT" font-size="28.0" fill="#000000" transform="matrix(1.00, 0.00, -0.00, -1.00, 137.8, 219.0)"> </text><text xml:space="preserve" font-family="ArialMT" font-size="28.0" fill="#000000" transform="matrix(1.00, 0.00, -0.00, -1.00, 61.2, 180.0)">•</text><text xml:space="preserve" font-family="ArialMT" font-size="28.0" fill="#000000" transform="matrix(1.00, 0.00, -0.00, -1.00, 88.0, 180.0)">C</text><text xml:space="preserve" font-family="ArialMT" font-size="28.0" fill="#000000" transform="matrix(1.00, 0.00, -0.00, -1.00, 108.2, 180.0)">a</text><text xml:space="preserve" font-family="ArialMT" font-size="28.0" fill="#000000" transform="matrix(1.00, 0.00, -0.00, -1.00, 123.8, 180.0)">u</text><text xml:space="preserve" font-family="ArialMT" font-size="28.0" fill="#000000" transform="matrix(1.00, 0.00, -0.00, -1.00, 139.4, 180.0)">s</text><text xml:space="preserve" font-family="ArialMT" font-size="28.0" fill="#000000" transform="matrix(1.00, 0.00, -0.00, -1.00, 153.4, 180.0)">e</text><text xml:space="preserve" font-family="ArialMT" font-size="28.0" fill="#000000" transform="matrix(1.00, 0.00, -0.00, -1.00, 169.0, 180.0)">d</text><text xml:space="preserve" font-family="ArialMT" font-size="28.0" fill="#000000" transform="matrix(1.00, 0.00, -0.00, -1.00, 184.5, 180.0)"> </text><text xml:space="preserve" font-family="ArialMT" font-size="28.0" fill="#000000" transform="matrix(1.00, 0.00, -0.00, -1.00, 192.3, 180.0)">b</text><text xml:space="preserve" font-family="ArialMT" font-size="28.0" fill="#000000" transform="matrix(1.00, 0.00, -0.00, -1.00, 207.9, 180.0)">y</text><text xml:space="preserve" font-family="ArialMT" font-size="28.0" fill="#000000" transform="matrix(1.00, 0.00, -0.00, -1.00, 221.9, 180.0)"> </text><text xml:space="preserve" font-family="ArialMT" font-size="28.0" fill="#000000" transform="matrix(1.00, 0.00, -0.00, -1.00, 229.7, 180.0)">h</text><text xml:space="preserve" font-family="ArialMT" font-size="28.0" fill="#000000" transform="matrix(1.00, 0.00, -0.00, -1.00, 245.2, 180.0)">e</text><text xml:space="preserve" font-family="ArialMT" font-size="28.0" fill="#000000" transform="matrix(1.00, 0.00, -0.00, -1.00, 260.8, 180.0)">r</text><text xml:space="preserve" font-family="ArialMT" font-size="28.0" fill="#000000" transform="matrix(1.00, 0.00, -0.00, -1.00, 270.1, 180.0)">p</text><text xml:space="preserve" font-family="ArialMT" font-size="28.0" fill="#000000" transform="matrix(1.00, 0.00, -0.00, -1.00, 285.7, 180.0)">e</text><text xml:space="preserve" font-family="ArialMT" font-size="28.0" fill="#000000" transform="matrix(1.00, 0.00, -0.00, -1.00, 301.3, 180.0)">s</text><text xml:space="preserve" font-family="ArialMT" font-size="28.0" fill="#000000" transform="matrix(1.00, 0.00, -0.00, -1.00, 315.3, 180.0)">-</text><text xml:space="preserve" font-family="ArialMT" font-size="28.0" fill="#000000" transform="matrix(1.00, 0.00, -0.00, -1.00, 88.0, 148.0)">l</text><text xml:space="preserve" font-family="ArialMT" font-size="28.0" fill="#000000" transform="matrix(1.00, 0.00, -0.00, -1.00, 94.2, 148.0)">i</text><text xml:space="preserve" font-family="ArialMT" font-size="28.0" fill="#000000" transform="matrix(1.00, 0.00, -0.00, -1.00, 100.5, 148.0)">k</text><text xml:space="preserve" font-family="ArialMT" font-size="28.0" fill="#000000" transform="matrix(1.00, 0.00, -0.00, -1.00, 114.5, 148.0)">e</text><text xml:space="preserve" font-family="ArialMT" font-size="28.0" fill="#000000" transform="matrix(1.00, 0.00, -0.00, -1.00, 130.0, 148.0)"> </text><text xml:space="preserve" font-family="ArialMT" font-size="28.0" fill="#000000" transform="matrix(1.00, 0.00, -0.00, -1.00, 137.8, 148.0)">v</text><text xml:space="preserve" font-family="ArialMT" font-size="28.0" fill="#000000" transform="matrix(1.00, 0.00, -0.00, -1.00, 151.8, 148.0)">i</text><text xml:space="preserve" font-family="ArialMT" font-size="28.0" fill="#000000" transform="matrix(1.00, 0.00, -0.00, -1.00, 158.0, 148.0)">r</text><text xml:space="preserve" font-family="ArialMT" font-size="28.0" fill="#000000" transform="matrix(1.00, 0.00, -0.00, -1.00, 167.4, 148.0)">u</text><text xml:space="preserve" font-family="ArialMT" font-size="28.0" fill="#000000" transform="matrix(1.00, 0.00, -0.00, -1.00, 182.9, 148.0)">s</text><g><clipPath id="clip-506"><path d="M 360.0 136.0 L 706.0 136.0 L 706.0 396.0 L 360.0 396.0 Z M 360.0 136.0 "></path></clipPath><g clip-path="url(#clip-506)"><path d="M 360.0 396.0 L 706.0 396.0 L 706.0 136.0 L 360.0 136.0 Z M 360.0 396.0 " fill="#FFFFFF"></path><image xlink:href="../../FF1F4E45-164F-4446-B199-7D0D4C64D2CC/assets/522A5EF2A078BB95077B8FEC639D39E5.png" width="640.00" height="480.00" transform="matrix(0.54, 0.00, -0.00, -0.54, 360.0, 396.0)"></image></g></g><text xml:space="preserve" font-family="Verdana" font-size="18.0" fill="#424242" transform="matrix(1.00, 0.00, -0.00, -1.00, 361.0, 98.0)">G</text><text xml:space="preserve" font-family="Verdana" font-size="18.0" fill="#424242" transform="matrix(1.00, 0.00, -0.00, -1.00, 375.0, 98.0)">r</text><text xml:space="preserve" font-family="Verdana" font-size="18.0" fill="#424242" transform="matrix(1.00, 0.00, -0.00, -1.00, 382.6, 98.0)">e</text><text xml:space="preserve" font-family="Verdana" font-size="18.0" fill="#424242" transform="matrix(1.00, 0.00, -0.00, -1.00, 393.4, 98.0)">e</text><text xml:space="preserve" font-family="Verdana" font-size="18.0" fill="#424242" transform="matrix(1.00, 0.00, -0.00, -1.00, 404.1, 98.0)">n</text><text xml:space="preserve" font-family="Verdana" font-size="18.0" fill="#424242" transform="matrix(1.00, 0.00, -0.00, -1.00, 415.5, 98.0)"> </text><text xml:space="preserve" font-family="Verdana" font-size="18.0" fill="#424242" transform="matrix(1.00, 0.00, -0.00, -1.00, 421.8, 98.0)">T</text><text xml:space="preserve" font-family="Verdana" font-size="18.0" fill="#424242" transform="matrix(1.00, 0.00, -0.00, -1.00, 431.1, 98.0)">u</text><text xml:space="preserve" font-family="Verdana" font-size="18.0" fill="#424242" transform="matrix(1.00, 0.00, -0.00, -1.00, 442.5, 98.0)">r</text><text xml:space="preserve" font-family="Verdana" font-size="18.0" fill="#424242" transform="matrix(1.00, 0.00, -0.00, -1.00, 450.2, 98.0)">t</text><text xml:space="preserve" font-family="Verdana" font-size="18.0" fill="#424242" transform="matrix(1.00, 0.00, -0.00, -1.00, 457.3, 98.0)">l</text><text xml:space="preserve" font-family="Verdana" font-size="18.0" fill="#424242" transform="matrix(1.00, 0.00, -0.00, -1.00, 462.2, 98.0)">e</text><text xml:space="preserve" font-family="Verdana" font-size="18.0" fill="#424242" transform="matrix(1.00, 0.00, -0.00, -1.00, 472.9, 98.0)"> </text><text xml:space="preserve" font-family="Verdana" font-size="18.0" fill="#424242" transform="matrix(1.00, 0.00, -0.00, -1.00, 479.3, 98.0)">w</text><text xml:space="preserve" font-family="Verdana" font-size="18.0" fill="#424242" transform="matrix(1.00, 0.00, -0.00, -1.00, 494.0, 98.0)">i</text><text xml:space="preserve" font-family="Verdana" font-size="18.0" fill="#424242" transform="matrix(1.00, 0.00, -0.00, -1.00, 499.0, 98.0)">t</text><text xml:space="preserve" font-family="Verdana" font-size="18.0" fill="#424242" transform="matrix(1.00, 0.00, -0.00, -1.00, 506.0, 98.0)">h</text><text xml:space="preserve" font-family="Verdana" font-size="18.0" fill="#424242" transform="matrix(1.00, 0.00, -0.00, -1.00, 517.4, 98.0)"> </text><text xml:space="preserve" font-family="Verdana" font-size="18.0" fill="#424242" transform="matrix(1.00, 0.00, -0.00, -1.00, 523.8, 98.0)">f</text><text xml:space="preserve" font-family="Verdana" font-size="18.0" fill="#424242" transform="matrix(1.00, 0.00, -0.00, -1.00, 530.1, 98.0)">i</text><text xml:space="preserve" font-family="Verdana" font-size="18.0" fill="#424242" transform="matrix(1.00, 0.00, -0.00, -1.00, 535.0, 98.0)">b</text><text xml:space="preserve" font-family="Verdana" font-size="18.0" fill="#424242" transform="matrix(1.00, 0.00, -0.00, -1.00, 546.2, 98.0)">r</text><text xml:space="preserve" font-family="Verdana" font-size="18.0" fill="#424242" transform="matrix(1.00, 0.00, -0.00, -1.00, 553.9, 98.0)">o</text><text xml:space="preserve" font-family="Verdana" font-size="18.0" fill="#424242" transform="matrix(1.00, 0.00, -0.00, -1.00, 564.8, 98.0)">p</text><text xml:space="preserve" font-family="Verdana" font-size="18.0" fill="#424242" transform="matrix(1.00, 0.00, -0.00, -1.00, 576.0, 98.0)">a</text><text xml:space="preserve" font-family="Verdana" font-size="18.0" fill="#424242" transform="matrix(1.00, 0.00, -0.00, -1.00, 586.9, 98.0)">p</text><text xml:space="preserve" font-family="Verdana" font-size="18.0" fill="#424242" transform="matrix(1.00, 0.00, -0.00, -1.00, 598.1, 98.0)">i</text><text xml:space="preserve" font-family="Verdana" font-size="18.0" fill="#424242" transform="matrix(1.00, 0.00, -0.00, -1.00, 603.0, 98.0)">l</text><text xml:space="preserve" font-family="Verdana" font-size="18.0" fill="#424242" transform="matrix(1.00, 0.00, -0.00, -1.00, 608.0, 98.0)">l</text><text xml:space="preserve" font-family="Verdana" font-size="18.0" fill="#424242" transform="matrix(1.00, 0.00, -0.00, -1.00, 612.9, 98.0)">o</text><text xml:space="preserve" font-family="Verdana" font-size="18.0" fill="#424242" transform="matrix(1.00, 0.00, -0.00, -1.00, 623.8, 98.0)">m</text><text xml:space="preserve" font-family="Verdana" font-size="18.0" fill="#424242" transform="matrix(1.00, 0.00, -0.00, -1.00, 641.3, 98.0)">a</text><text xml:space="preserve" font-family="Verdana" font-size="18.0" fill="#424242" transform="matrix(1.00, 0.00, -0.00, -1.00, 652.1, 98.0)">t</text><text xml:space="preserve" font-family="Verdana" font-size="18.0" fill="#424242" transform="matrix(1.00, 0.00, -0.00, -1.00, 659.2, 98.0)">o</text><text xml:space="preserve" font-family="Verdana" font-size="18.0" fill="#424242" transform="matrix(1.00, 0.00, -0.00, -1.00, 670.2, 98.0)">s</text><text xml:space="preserve" font-family="Verdana" font-size="18.0" fill="#424242" transform="matrix(1.00, 0.00, -0.00, -1.00, 679.5, 98.0)">i</text><text xml:space="preserve" font-family="Verdana" font-size="18.0" fill="#424242" transform="matrix(1.00, 0.00, -0.00, -1.00, 684.5, 98.0)">s</text><text xml:space="preserve" font-family="Verdana" font-size="18.0" fill="#424242" transform="matrix(1.00, 0.00, -0.00, -1.00, 693.9, 98.0)"> </text><text xml:space="preserve" font-family="Verdana" font-size="18.0" fill="#424242" transform="matrix(1.00, 0.00, -0.00, -1.00, 361.0, 76.0)">(</text><text xml:space="preserve" font-family="Verdana-Italic" font-style="italic" font-size="18.0" fill="#424242" transform="matrix(1.00, 0.00, -0.00, -1.00, 369.2, 76.0)">C</text><text xml:space="preserve" font-family="Verdana-Italic" font-style="italic" font-size="18.0" fill="#424242" transform="matrix(1.00, 0.00, -0.00, -1.00, 381.7, 76.0)">h</text><text xml:space="preserve" font-family="Verdana-Italic" font-style="italic" font-size="18.0" fill="#424242" transform="matrix(1.00, 0.00, -0.00, -1.00, 393.1, 76.0)">e</text><text xml:space="preserve" font-family="Verdana-Italic" font-style="italic" font-size="18.0" fill="#424242" transform="matrix(1.00, 0.00, -0.00, -1.00, 403.9, 76.0)">l</text><text xml:space="preserve" font-family="Verdana-Italic" font-style="italic" font-size="18.0" fill="#424242" transform="matrix(1.00, 0.00, -0.00, -1.00, 408.8, 76.0)">o</text><text xml:space="preserve" font-family="Verdana-Italic" font-style="italic" font-size="18.0" fill="#424242" transform="matrix(1.00, 0.00, -0.00, -1.00, 419.7, 76.0)">n</text><text xml:space="preserve" font-family="Verdana-Italic" font-style="italic" font-size="18.0" fill="#424242" transform="matrix(1.00, 0.00, -0.00, -1.00, 431.1, 76.0)">i</text><text xml:space="preserve" font-family="Verdana-Italic" font-style="italic" font-size="18.0" fill="#424242" transform="matrix(1.00, 0.00, -0.00, -1.00, 436.1, 76.0)">a</text><text xml:space="preserve" font-family="Verdana-Italic" font-style="italic" font-size="18.0" fill="#424242" transform="matrix(1.00, 0.00, -0.00, -1.00, 446.9, 76.0)"> </text><text xml:space="preserve" font-family="Verdana-Italic" font-style="italic" font-size="18.0" fill="#424242" transform="matrix(1.00, 0.00, -0.00, -1.00, 453.2, 76.0)">m</text><text xml:space="preserve" font-family="Verdana-Italic" font-style="italic" font-size="18.0" fill="#424242" transform="matrix(1.00, 0.00, -0.00, -1.00, 470.7, 76.0)">y</text><text xml:space="preserve" font-family="Verdana-Italic" font-style="italic" font-size="18.0" fill="#424242" transform="matrix(1.00, 0.00, -0.00, -1.00, 481.3, 76.0)">d</text><text xml:space="preserve" font-family="Verdana-Italic" font-style="italic" font-size="18.0" fill="#424242" transform="matrix(1.00, 0.00, -0.00, -1.00, 492.5, 76.0)">a</text><text xml:space="preserve" font-family="Verdana-Italic" font-style="italic" font-size="18.0" fill="#424242" transform="matrix(1.00, 0.00, -0.00, -1.00, 503.3, 76.0)">s</text><text xml:space="preserve" font-family="Verdana" font-size="18.0" fill="#424242" transform="matrix(1.00, 0.00, -0.00, -1.00, 512.7, 76.0)">)</text></g></svg>