<?xml version="1.0" encoding="UTF-8" standalone="no"?><svg xmlns="http://www.w3.org/2000/svg" xmlns:xlink="http://www.w3.org/1999/xlink" clip-rule="evenodd" stroke-miterlimit="10" viewBox="0 0 515 102"><desc>SVG generated by Keynote</desc><defs></defs><g transform="matrix(1.00, 0.00, -0.00, -1.00, 0.0, 102.0)"><g><clipPath id="clip0x600001aaa560"><path d="M -0.5 0.0 L 515.5 0.0 L 515.5 55.0 L -0.5 55.0 Z M -0.5 0.0 "></path></clipPath><g clip-path="url(#clip0x600001aaa560)"><text xml:space="preserve" font-family="Times-Roman,Times" font-size="18.0" fill="#000000" transform="matrix(1.00, 0.00, -0.00, -1.00, 9.3, 32.0)">a</text><text xml:space="preserve" font-family="Times-Roman,Times" font-size="18.0" fill="#000000" transform="matrix(1.00, 0.00, -0.00, -1.00, 17.2, 32.0)">d</text><text xml:space="preserve" font-family="Times-Roman,Times" font-size="18.0" fill="#000000" transform="matrix(1.00, 0.00, -0.00, -1.00, 26.2, 32.0)">a</text><text xml:space="preserve" font-family="Times-Roman,Times" font-size="18.0" fill="#000000" transform="matrix(1.00, 0.00, -0.00, -1.00, 34.2, 32.0)">p</text><text xml:space="preserve" font-family="Times-Roman,Times" font-size="18.0" fill="#000000" transform="matrix(1.00, 0.00, -0.00, -1.00, 43.2, 32.0)">t</text><text xml:space="preserve" font-family="Times-Roman,Times" font-size="18.0" fill="#000000" transform="matrix(1.00, 0.00, -0.00, -1.00, 48.2, 32.0)">i</text><text xml:space="preserve" font-family="Times-Roman,Times" font-size="18.0" fill="#000000" transform="matrix(1.00, 0.00, -0.00, -1.00, 53.2, 32.0)">v</text><text xml:space="preserve" font-family="Times-Roman,Times" font-size="18.0" fill="#000000" transform="matrix(1.00, 0.00, -0.00, -1.00, 62.2, 32.0)">e</text><text xml:space="preserve" font-family="Times-Roman,Times" font-size="18.0" fill="#000000" transform="matrix(1.00, 0.00, -0.00, -1.00, 70.2, 32.0)"> </text><text xml:space="preserve" font-family="Times-Roman,Times" font-size="18.0" fill="#000000" transform="matrix(1.00, 0.00, -0.00, -1.00, 74.7, 32.0)">d</text><text xml:space="preserve" font-family="Times-Roman,Times" font-size="18.0" fill="#000000" transform="matrix(1.00, 0.00, -0.00, -1.00, 83.7, 32.0)">i</text><text xml:space="preserve" font-family="Times-Roman,Times" font-size="18.0" fill="#000000" transform="matrix(1.00, 0.00, -0.00, -1.00, 88.7, 32.0)">f</text><text xml:space="preserve" font-family="Times-Roman,Times" font-size="18.0" fill="#000000" transform="matrix(1.00, 0.00, -0.00, -1.00, 94.4, 32.0)">f</text><text xml:space="preserve" font-family="Times-Roman,Times" font-size="18.0" fill="#000000" transform="matrix(1.00, 0.00, -0.00, -1.00, 100.4, 32.0)">e</text><text xml:space="preserve" font-family="Times-Roman,Times" font-size="18.0" fill="#000000" transform="matrix(1.00, 0.00, -0.00, -1.00, 108.4, 32.0)">r</text><text xml:space="preserve" font-family="Times-Roman,Times" font-size="18.0" fill="#000000" transform="matrix(1.00, 0.00, -0.00, -1.00, 114.4, 32.0)">e</text><text xml:space="preserve" font-family="Times-Roman,Times" font-size="18.0" fill="#000000" transform="matrix(1.00, 0.00, -0.00, -1.00, 122.3, 32.0)">n</text><text xml:space="preserve" font-family="Times-Roman,Times" font-size="18.0" fill="#000000" transform="matrix(1.00, 0.00, -0.00, -1.00, 131.3, 32.0)">c</text><text xml:space="preserve" font-family="Times-Roman,Times" font-size="18.0" fill="#000000" transform="matrix(1.00, 0.00, -0.00, -1.00, 139.3, 32.0)">e</text><text xml:space="preserve" font-family="Times-Roman,Times" font-size="18.0" fill="#000000" transform="matrix(1.00, 0.00, -0.00, -1.00, 147.3, 32.0)">s</text><text xml:space="preserve" font-family="Times-Roman,Times" font-size="18.0" fill="#000000" transform="matrix(1.00, 0.00, -0.00, -1.00, 154.3, 32.0)"> </text><text xml:space="preserve" font-family="Times-Roman,Times" font-size="18.0" fill="#000000" transform="matrix(1.00, 0.00, -0.00, -1.00, 158.8, 32.0)">o</text><text xml:space="preserve" font-family="Times-Roman,Times" font-size="18.0" fill="#000000" transform="matrix(1.00, 0.00, -0.00, -1.00, 167.8, 32.0)">r</text><text xml:space="preserve" font-family="Times-Roman,Times" font-size="18.0" fill="#000000" transform="matrix(1.00, 0.00, -0.00, -1.00, 173.8, 32.0)"> </text><text xml:space="preserve" font-family="Times-Roman,Times" font-size="18.0" fill="#000000" transform="matrix(1.00, 0.00, -0.00, -1.00, 178.3, 32.0)">n</text><text xml:space="preserve" font-family="Times-Roman,Times" font-size="18.0" fill="#000000" transform="matrix(1.00, 0.00, -0.00, -1.00, 187.3, 32.0)">a</text><text xml:space="preserve" font-family="Times-Roman,Times" font-size="18.0" fill="#000000" transform="matrix(1.00, 0.00, -0.00, -1.00, 195.3, 32.0)">t</text><text xml:space="preserve" font-family="Times-Roman,Times" font-size="18.0" fill="#000000" transform="matrix(1.00, 0.00, -0.00, -1.00, 200.3, 32.0)">u</text><text xml:space="preserve" font-family="Times-Roman,Times" font-size="18.0" fill="#000000" transform="matrix(1.00, 0.00, -0.00, -1.00, 209.3, 32.0)">r</text><text xml:space="preserve" font-family="Times-Roman,Times" font-size="18.0" fill="#000000" transform="matrix(1.00, 0.00, -0.00, -1.00, 215.3, 32.0)">a</text><text xml:space="preserve" font-family="Times-Roman,Times" font-size="18.0" fill="#000000" transform="matrix(1.00, 0.00, -0.00, -1.00, 223.3, 32.0)">l</text><text xml:space="preserve" font-family="Times-Roman,Times" font-size="18.0" fill="#000000" transform="matrix(1.00, 0.00, -0.00, -1.00, 228.3, 32.0)"> </text><text xml:space="preserve" font-family="Times-Roman,Times" font-size="18.0" fill="#000000" transform="matrix(1.00, 0.00, -0.00, -1.00, 232.8, 32.0)">s</text><text xml:space="preserve" font-family="Times-Roman,Times" font-size="18.0" fill="#000000" transform="matrix(1.00, 0.00, -0.00, -1.00, 239.8, 32.0)">e</text><text xml:space="preserve" font-family="Times-Roman,Times" font-size="18.0" fill="#000000" transform="matrix(1.00, 0.00, -0.00, -1.00, 247.8, 32.0)">l</text><text xml:space="preserve" font-family="Times-Roman,Times" font-size="18.0" fill="#000000" transform="matrix(1.00, 0.00, -0.00, -1.00, 252.8, 32.0)">e</text><text xml:space="preserve" font-family="Times-Roman,Times" font-size="18.0" fill="#000000" transform="matrix(1.00, 0.00, -0.00, -1.00, 260.8, 32.0)">c</text><text xml:space="preserve" font-family="Times-Roman,Times" font-size="18.0" fill="#000000" transform="matrix(1.00, 0.00, -0.00, -1.00, 268.7, 32.0)">t</text><text xml:space="preserve" font-family="Times-Roman,Times" font-size="18.0" fill="#000000" transform="matrix(1.00, 0.00, -0.00, -1.00, 273.7, 32.0)">i</text><text xml:space="preserve" font-family="Times-Roman,Times" font-size="18.0" fill="#000000" transform="matrix(1.00, 0.00, -0.00, -1.00, 278.7, 32.0)">o</text><text xml:space="preserve" font-family="Times-Roman,Times" font-size="18.0" fill="#000000" transform="matrix(1.00, 0.00, -0.00, -1.00, 287.7, 32.0)">n</text><text xml:space="preserve" font-family="Times-Roman,Times" font-size="18.0" fill="#000000" transform="matrix(1.00, 0.00, -0.00, -1.00, 296.7, 32.0)"> </text><text xml:space="preserve" font-family="Times-Roman,Times" font-size="18.0" fill="#000000" transform="matrix(1.00, 0.00, -0.00, -1.00, 301.2, 32.0)">a</text><text xml:space="preserve" font-family="Times-Roman,Times" font-size="18.0" fill="#000000" transform="matrix(1.00, 0.00, -0.00, -1.00, 309.2, 32.0)">g</text><text xml:space="preserve" font-family="Times-Roman,Times" font-size="18.0" fill="#000000" transform="matrix(1.00, 0.00, -0.00, -1.00, 318.2, 32.0)">a</text><text xml:space="preserve" font-family="Times-Roman,Times" font-size="18.0" fill="#000000" transform="matrix(1.00, 0.00, -0.00, -1.00, 326.2, 32.0)">i</text><text xml:space="preserve" font-family="Times-Roman,Times" font-size="18.0" fill="#000000" transform="matrix(1.00, 0.00, -0.00, -1.00, 331.2, 32.0)">n</text><text xml:space="preserve" font-family="Times-Roman,Times" font-size="18.0" fill="#000000" transform="matrix(1.00, 0.00, -0.00, -1.00, 340.2, 32.0)">s</text><text xml:space="preserve" font-family="Times-Roman,Times" font-size="18.0" fill="#000000" transform="matrix(1.00, 0.00, -0.00, -1.00, 347.2, 32.0)">t</text><text xml:space="preserve" font-family="Times-Roman,Times" font-size="18.0" fill="#000000" transform="matrix(1.00, 0.00, -0.00, -1.00, 352.2, 32.0)"> </text><text xml:space="preserve" font-family="Times-Roman,Times" font-size="18.0" fill="#000000" transform="matrix(1.00, 0.00, -0.00, -1.00, 356.7, 32.0)">d</text><text xml:space="preserve" font-family="Times-Roman,Times" font-size="18.0" fill="#000000" transform="matrix(1.00, 0.00, -0.00, -1.00, 365.7, 32.0)">i</text><text xml:space="preserve" font-family="Times-Roman,Times" font-size="18.0" fill="#000000" transform="matrix(1.00, 0.00, -0.00, -1.00, 370.7, 32.0)">s</text><text xml:space="preserve" font-family="Times-Roman,Times" font-size="18.0" fill="#000000" transform="matrix(1.00, 0.00, -0.00, -1.00, 377.7, 32.0)">p</text><text xml:space="preserve" font-family="Times-Roman,Times" font-size="18.0" fill="#000000" transform="matrix(1.00, 0.00, -0.00, -1.00, 386.7, 32.0)">e</text><text xml:space="preserve" font-family="Times-Roman,Times" font-size="18.0" fill="#000000" transform="matrix(1.00, 0.00, -0.00, -1.00, 394.7, 32.0)">r</text><text xml:space="preserve" font-family="Times-Roman,Times" font-size="18.0" fill="#000000" transform="matrix(1.00, 0.00, -0.00, -1.00, 400.7, 32.0)">s</text><text xml:space="preserve" font-family="Times-Roman,Times" font-size="18.0" fill="#000000" transform="matrix(1.00, 0.00, -0.00, -1.00, 407.7, 32.0)">e</text><text xml:space="preserve" font-family="Times-Roman,Times" font-size="18.0" fill="#000000" transform="matrix(1.00, 0.00, -0.00, -1.00, 415.7, 32.0)">r</text><text xml:space="preserve" font-family="Times-Roman,Times" font-size="18.0" fill="#000000" transform="matrix(1.00, 0.00, -0.00, -1.00, 421.7, 32.0)">s</text><text xml:space="preserve" font-family="Times-Roman,Times" font-size="18.0" fill="#000000" transform="matrix(1.00, 0.00, -0.00, -1.00, 428.7, 32.0)"> </text><text xml:space="preserve" font-family="Times-Roman,Times" font-size="18.0" fill="#000000" transform="matrix(1.00, 0.00, -0.00, -1.00, 433.2, 32.0)">l</text><text xml:space="preserve" font-family="Times-Roman,Times" font-size="18.0" fill="#000000" transform="matrix(1.00, 0.00, -0.00, -1.00, 438.2, 32.0)">i</text><text xml:space="preserve" font-family="Times-Roman,Times" font-size="18.0" fill="#000000" transform="matrix(1.00, 0.00, -0.00, -1.00, 443.2, 32.0)">m</text><text xml:space="preserve" font-family="Times-Roman,Times" font-size="18.0" fill="#000000" transform="matrix(1.00, 0.00, -0.00, -1.00, 457.2, 32.0)">i</text><text xml:space="preserve" font-family="Times-Roman,Times" font-size="18.0" fill="#000000" transform="matrix(1.00, 0.00, -0.00, -1.00, 462.2, 32.0)">t</text><text xml:space="preserve" font-family="Times-Roman,Times" font-size="18.0" fill="#000000" transform="matrix(1.00, 0.00, -0.00, -1.00, 467.2, 32.0)"> </text><text xml:space="preserve" font-family="Times-Roman,Times" font-size="18.0" fill="#000000" transform="matrix(1.00, 0.00, -0.00, -1.00, 471.7, 32.0)">g</text><text xml:space="preserve" font-family="Times-Roman,Times" font-size="18.0" fill="#000000" transform="matrix(1.00, 0.00, -0.00, -1.00, 480.7, 32.0)">e</text><text xml:space="preserve" font-family="Times-Roman,Times" font-size="18.0" fill="#000000" transform="matrix(1.00, 0.00, -0.00, -1.00, 488.7, 32.0)">n</text><text xml:space="preserve" font-family="Times-Roman,Times" font-size="18.0" fill="#000000" transform="matrix(1.00, 0.00, -0.00, -1.00, 497.7, 32.0)">e</text><text xml:space="preserve" font-family="Times-Roman,Times" font-size="18.0" fill="#000000" transform="matrix(1.00, 0.00, -0.00, -1.00, 505.6, 32.0)"> </text><text xml:space="preserve" font-family="Times-Roman,Times" font-size="18.0" fill="#000000" transform="matrix(1.00, 0.00, -0.00, -1.00, 142.9, 9.0)">ﬂ</text><text xml:space="preserve" font-family="Times-Roman,Times" font-size="18.0" fill="#000000" transform="matrix(1.00, 0.00, -0.00, -1.00, 153.0, 9.0)">o</text><text xml:space="preserve" font-family="Times-Roman,Times" font-size="18.0" fill="#000000" transform="matrix(1.00, 0.00, -0.00, -1.00, 162.0, 9.0)">w</text><text xml:space="preserve" font-family="Times-Roman,Times" font-size="18.0" fill="#000000" transform="matrix(1.00, 0.00, -0.00, -1.00, 175.0, 9.0)"> </text><text xml:space="preserve" font-family="Times-Roman,Times" font-size="18.0" fill="#000000" transform="matrix(1.00, 0.00, -0.00, -1.00, 179.5, 9.0)">b</text><text xml:space="preserve" font-family="Times-Roman,Times" font-size="18.0" fill="#000000" transform="matrix(1.00, 0.00, -0.00, -1.00, 188.5, 9.0)">e</text><text xml:space="preserve" font-family="Times-Roman,Times" font-size="18.0" fill="#000000" transform="matrix(1.00, 0.00, -0.00, -1.00, 196.4, 9.0)">t</text><text xml:space="preserve" font-family="Times-Roman,Times" font-size="18.0" fill="#000000" transform="matrix(1.00, 0.00, -0.00, -1.00, 201.4, 9.0)">w</text><text xml:space="preserve" font-family="Times-Roman,Times" font-size="18.0" fill="#000000" transform="matrix(1.00, 0.00, -0.00, -1.00, 214.4, 9.0)">e</text><text xml:space="preserve" font-family="Times-Roman,Times" font-size="18.0" fill="#000000" transform="matrix(1.00, 0.00, -0.00, -1.00, 222.4, 9.0)">e</text><text xml:space="preserve" font-family="Times-Roman,Times" font-size="18.0" fill="#000000" transform="matrix(1.00, 0.00, -0.00, -1.00, 230.4, 9.0)">n</text><text xml:space="preserve" font-family="Times-Roman,Times" font-size="18.0" fill="#000000" transform="matrix(1.00, 0.00, -0.00, -1.00, 239.4, 9.0)"> </text><text xml:space="preserve" font-family="Times-Roman,Times" font-size="18.0" fill="#000000" transform="matrix(1.00, 0.00, -0.00, -1.00, 243.9, 9.0)">d</text><text xml:space="preserve" font-family="Times-Roman,Times" font-size="18.0" fill="#000000" transform="matrix(1.00, 0.00, -0.00, -1.00, 252.9, 9.0)">i</text><text xml:space="preserve" font-family="Times-Roman,Times" font-size="18.0" fill="#000000" transform="matrix(1.00, 0.00, -0.00, -1.00, 257.9, 9.0)">v</text><text xml:space="preserve" font-family="Times-Roman,Times" font-size="18.0" fill="#000000" transform="matrix(1.00, 0.00, -0.00, -1.00, 266.9, 9.0)">e</text><text xml:space="preserve" font-family="Times-Roman,Times" font-size="18.0" fill="#000000" transform="matrix(1.00, 0.00, -0.00, -1.00, 274.9, 9.0)">r</text><text xml:space="preserve" font-family="Times-Roman,Times" font-size="18.0" fill="#000000" transform="matrix(1.00, 0.00, -0.00, -1.00, 280.6, 9.0)">g</text><text xml:space="preserve" font-family="Times-Roman,Times" font-size="18.0" fill="#000000" transform="matrix(1.00, 0.00, -0.00, -1.00, 289.6, 9.0)">e</text><text xml:space="preserve" font-family="Times-Roman,Times" font-size="18.0" fill="#000000" transform="matrix(1.00, 0.00, -0.00, -1.00, 297.6, 9.0)">n</text><text xml:space="preserve" font-family="Times-Roman,Times" font-size="18.0" fill="#000000" transform="matrix(1.00, 0.00, -0.00, -1.00, 306.6, 9.0)">t</text><text xml:space="preserve" font-family="Times-Roman,Times" font-size="18.0" fill="#000000" transform="matrix(1.00, 0.00, -0.00, -1.00, 311.6, 9.0)"> </text><text xml:space="preserve" font-family="Times-Roman,Times" font-size="18.0" fill="#000000" transform="matrix(1.00, 0.00, -0.00, -1.00, 316.1, 9.0)">h</text><text xml:space="preserve" font-family="Times-Roman,Times" font-size="18.0" fill="#000000" transform="matrix(1.00, 0.00, -0.00, -1.00, 325.1, 9.0)">a</text><text xml:space="preserve" font-family="Times-Roman,Times" font-size="18.0" fill="#000000" transform="matrix(1.00, 0.00, -0.00, -1.00, 333.0, 9.0)">b</text><text xml:space="preserve" font-family="Times-Roman,Times" font-size="18.0" fill="#000000" transform="matrix(1.00, 0.00, -0.00, -1.00, 342.0, 9.0)">i</text><text xml:space="preserve" font-family="Times-Roman,Times" font-size="18.0" fill="#000000" transform="matrix(1.00, 0.00, -0.00, -1.00, 347.0, 9.0)">t</text><text xml:space="preserve" font-family="Times-Roman,Times" font-size="18.0" fill="#000000" transform="matrix(1.00, 0.00, -0.00, -1.00, 352.0, 9.0)">a</text><text xml:space="preserve" font-family="Times-Roman,Times" font-size="18.0" fill="#000000" transform="matrix(1.00, 0.00, -0.00, -1.00, 360.0, 9.0)">t</text><text xml:space="preserve" font-family="Times-Roman,Times" font-size="18.0" fill="#000000" transform="matrix(1.00, 0.00, -0.00, -1.00, 365.0, 9.0)">s</text></g></g><g><clipPath id="clip0x600001aacfc0"><path d="M 74.9 58.0 L 441.1 58.0 L 441.1 106.0 L 74.9 106.0 Z M 74.9 58.0 "></path></clipPath><g clip-path="url(#clip0x600001aacfc0)"><text xml:space="preserve" font-family="GillSans,Gill Sans" font-size="28.0" fill="#000000" transform="matrix(1.00, 0.00, -0.00, -1.00, 83.4, 72.5)">I</text><text xml:space="preserve" font-family="GillSans,Gill Sans" font-size="28.0" fill="#000000" transform="matrix(1.00, 0.00, -0.00, -1.00, 90.4, 72.5)">B</text><text xml:space="preserve" font-family="GillSans,Gill Sans" font-size="28.0" fill="#000000" transform="matrix(1.00, 0.00, -0.00, -1.00, 106.2, 72.5)">E</text><text xml:space="preserve" font-family="GillSans,Gill Sans" font-size="28.0" fill="#000000" transform="matrix(1.00, 0.00, -0.00, -1.00, 120.2, 72.5)"> </text><text xml:space="preserve" font-family="GillSans,Gill Sans" font-size="28.0" fill="#000000" transform="matrix(1.00, 0.00, -0.00, -1.00, 128.0, 72.5)">=</text><text xml:space="preserve" font-family="GillSans,Gill Sans" font-size="28.0" fill="#000000" transform="matrix(1.00, 0.00, -0.00, -1.00, 144.3, 72.5)"> </text><text xml:space="preserve" font-family="GillSans,Gill Sans" font-size="28.0" fill="#000000" transform="matrix(1.00, 0.00, -0.00, -1.00, 152.1, 72.5)">i</text><text xml:space="preserve" font-family="GillSans,Gill Sans" font-size="28.0" fill="#000000" transform="matrix(1.00, 0.00, -0.00, -1.00, 158.2, 72.5)">s</text><text xml:space="preserve" font-family="GillSans,Gill Sans" font-size="28.0" fill="#000000" transform="matrix(1.00, 0.00, -0.00, -1.00, 169.0, 72.5)">o</text><text xml:space="preserve" font-family="GillSans,Gill Sans" font-size="28.0" fill="#000000" transform="matrix(1.00, 0.00, -0.00, -1.00, 184.4, 72.5)">l</text><text xml:space="preserve" font-family="GillSans,Gill Sans" font-size="28.0" fill="#000000" transform="matrix(1.00, 0.00, -0.00, -1.00, 190.6, 72.5)">a</text><text xml:space="preserve" font-family="GillSans,Gill Sans" font-size="28.0" fill="#000000" transform="matrix(1.00, 0.00, -0.00, -1.00, 202.5, 72.5)">t</text><text xml:space="preserve" font-family="GillSans,Gill Sans" font-size="28.0" fill="#000000" transform="matrix(1.00, 0.00, -0.00, -1.00, 211.9, 72.5)">i</text><text xml:space="preserve" font-family="GillSans,Gill Sans" font-size="28.0" fill="#000000" transform="matrix(1.00, 0.00, -0.00, -1.00, 218.0, 72.5)">o</text><text xml:space="preserve" font-family="GillSans,Gill Sans" font-size="28.0" fill="#000000" transform="matrix(1.00, 0.00, -0.00, -1.00, 233.4, 72.5)">n</text><text xml:space="preserve" font-family="GillSans,Gill Sans" font-size="28.0" fill="#000000" transform="matrix(1.00, 0.00, -0.00, -1.00, 247.4, 72.5)"> </text><text xml:space="preserve" font-family="GillSans,Gill Sans" font-size="28.0" fill="#000000" transform="matrix(1.00, 0.00, -0.00, -1.00, 255.2, 72.5)">b</text><text xml:space="preserve" font-family="GillSans,Gill Sans" font-size="28.0" fill="#000000" transform="matrix(1.00, 0.00, -0.00, -1.00, 268.9, 72.5)">y</text><text xml:space="preserve" font-family="GillSans,Gill Sans" font-size="28.0" fill="#000000" transform="matrix(1.00, 0.00, -0.00, -1.00, 281.2, 72.5)"> </text><text xml:space="preserve" font-family="GillSans,Gill Sans" font-size="28.0" fill="#000000" transform="matrix(1.00, 0.00, -0.00, -1.00, 289.0, 72.5)">e</text><text xml:space="preserve" font-family="GillSans,Gill Sans" font-size="28.0" fill="#000000" transform="matrix(1.00, 0.00, -0.00, -1.00, 302.4, 72.5)">n</text><text xml:space="preserve" font-family="GillSans,Gill Sans" font-size="28.0" fill="#000000" transform="matrix(1.00, 0.00, -0.00, -1.00, 316.0, 72.5)">v</text><text xml:space="preserve" font-family="GillSans,Gill Sans" font-size="28.0" fill="#000000" transform="matrix(1.00, 0.00, -0.00, -1.00, 328.2, 72.5)">i</text><text xml:space="preserve" font-family="GillSans,Gill Sans" font-size="28.0" fill="#000000" transform="matrix(1.00, 0.00, -0.00, -1.00, 334.4, 72.5)">r</text><text xml:space="preserve" font-family="GillSans,Gill Sans" font-size="28.0" fill="#000000" transform="matrix(1.00, 0.00, -0.00, -1.00, 344.8, 72.5)">o</text><text xml:space="preserve" font-family="GillSans,Gill Sans" font-size="28.0" fill="#000000" transform="matrix(1.00, 0.00, -0.00, -1.00, 360.2, 72.5)">n</text><text xml:space="preserve" font-family="GillSans,Gill Sans" font-size="28.0" fill="#000000" transform="matrix(1.00, 0.00, -0.00, -1.00, 374.2, 72.5)">m</text><text xml:space="preserve" font-family="GillSans,Gill Sans" font-size="28.0" fill="#000000" transform="matrix(1.00, 0.00, -0.00, -1.00, 395.8, 72.5)">e</text><text xml:space="preserve" font-family="GillSans,Gill Sans" font-size="28.0" fill="#000000" transform="matrix(1.00, 0.00, -0.00, -1.00, 409.2, 72.5)">n</text><text xml:space="preserve" font-family="GillSans,Gill Sans" font-size="28.0" fill="#000000" transform="matrix(1.00, 0.00, -0.00, -1.00, 423.2, 72.5)">t</text></g></g></g></svg>