<?xml version="1.0" encoding="UTF-8" standalone="no"?><svg xmlns="http://www.w3.org/2000/svg" xmlns:xlink="http://www.w3.org/1999/xlink" clip-rule="evenodd" stroke-miterlimit="10" viewBox="0 0 720 540"><desc>SVG generated by Keynote</desc><defs></defs><g transform="matrix(1.00, 0.00, -0.00, -1.00, 0.0, 540.0)"><path d="M 0.0 540.0 L 720.0 540.0 L 720.0 0.0 L 0.0 0.0 Z M 0.0 540.0 " fill="#FEFFFF"></path><text xml:space="preserve" font-family="GillSans,Gill Sans" font-size="28.0" fill="#000000" transform="matrix(1.00, 0.00, -0.00, -1.00, 207.9, 351.5)">I</text><text xml:space="preserve" font-family="GillSans,Gill Sans" font-size="28.0" fill="#000000" transform="matrix(1.00, 0.00, -0.00, -1.00, 214.9, 351.5)">B</text><text xml:space="preserve" font-family="GillSans,Gill Sans" font-size="28.0" fill="#000000" transform="matrix(1.00, 0.00, -0.00, -1.00, 230.6, 351.5)">D</text><text xml:space="preserve" font-family="GillSans,Gill Sans" font-size="28.0" fill="#000000" transform="matrix(1.00, 0.00, -0.00, -1.00, 251.6, 351.5)"> </text><text xml:space="preserve" font-family="GillSans,Gill Sans" font-size="28.0" fill="#000000" transform="matrix(1.00, 0.00, -0.00, -1.00, 259.4, 351.5)">=</text><text xml:space="preserve" font-family="GillSans,Gill Sans" font-size="28.0" fill="#000000" transform="matrix(1.00, 0.00, -0.00, -1.00, 275.8, 351.5)"> </text><text xml:space="preserve" font-family="GillSans,Gill Sans" font-size="28.0" fill="#000000" transform="matrix(1.00, 0.00, -0.00, -1.00, 283.5, 351.5)">i</text><text xml:space="preserve" font-family="GillSans,Gill Sans" font-size="28.0" fill="#000000" transform="matrix(1.00, 0.00, -0.00, -1.00, 289.7, 351.5)">s</text><text xml:space="preserve" font-family="GillSans,Gill Sans" font-size="28.0" fill="#000000" transform="matrix(1.00, 0.00, -0.00, -1.00, 300.4, 351.5)">o</text><text xml:space="preserve" font-family="GillSans,Gill Sans" font-size="28.0" fill="#000000" transform="matrix(1.00, 0.00, -0.00, -1.00, 315.9, 351.5)">l</text><text xml:space="preserve" font-family="GillSans,Gill Sans" font-size="28.0" fill="#000000" transform="matrix(1.00, 0.00, -0.00, -1.00, 322.0, 351.5)">a</text><text xml:space="preserve" font-family="GillSans,Gill Sans" font-size="28.0" fill="#000000" transform="matrix(1.00, 0.00, -0.00, -1.00, 334.0, 351.5)">t</text><text xml:space="preserve" font-family="GillSans,Gill Sans" font-size="28.0" fill="#000000" transform="matrix(1.00, 0.00, -0.00, -1.00, 343.3, 351.5)">i</text><text xml:space="preserve" font-family="GillSans,Gill Sans" font-size="28.0" fill="#000000" transform="matrix(1.00, 0.00, -0.00, -1.00, 349.4, 351.5)">o</text><text xml:space="preserve" font-family="GillSans,Gill Sans" font-size="28.0" fill="#000000" transform="matrix(1.00, 0.00, -0.00, -1.00, 364.9, 351.5)">n</text><text xml:space="preserve" font-family="GillSans,Gill Sans" font-size="28.0" fill="#000000" transform="matrix(1.00, 0.00, -0.00, -1.00, 378.9, 351.5)"> </text><text xml:space="preserve" font-family="GillSans,Gill Sans" font-size="28.0" fill="#000000" transform="matrix(1.00, 0.00, -0.00, -1.00, 386.7, 351.5)">b</text><text xml:space="preserve" font-family="GillSans,Gill Sans" font-size="28.0" fill="#000000" transform="matrix(1.00, 0.00, -0.00, -1.00, 400.4, 351.5)">y</text><text xml:space="preserve" font-family="GillSans,Gill Sans" font-size="28.0" fill="#000000" transform="matrix(1.00, 0.00, -0.00, -1.00, 412.6, 351.5)"> </text><text xml:space="preserve" font-family="GillSans,Gill Sans" font-size="28.0" fill="#000000" transform="matrix(1.00, 0.00, -0.00, -1.00, 420.4, 351.5)">d</text><text xml:space="preserve" font-family="GillSans,Gill Sans" font-size="28.0" fill="#000000" transform="matrix(1.00, 0.00, -0.00, -1.00, 434.7, 351.5)">i</text><text xml:space="preserve" font-family="GillSans,Gill Sans" font-size="28.0" fill="#000000" transform="matrix(1.00, 0.00, -0.00, -1.00, 440.8, 351.5)">s</text><text xml:space="preserve" font-family="GillSans,Gill Sans" font-size="28.0" fill="#000000" transform="matrix(1.00, 0.00, -0.00, -1.00, 451.6, 351.5)">t</text><text xml:space="preserve" font-family="GillSans,Gill Sans" font-size="28.0" fill="#000000" transform="matrix(1.00, 0.00, -0.00, -1.00, 460.9, 351.5)">a</text><text xml:space="preserve" font-family="GillSans,Gill Sans" font-size="28.0" fill="#000000" transform="matrix(1.00, 0.00, -0.00, -1.00, 472.9, 351.5)">n</text><text xml:space="preserve" font-family="GillSans,Gill Sans" font-size="28.0" fill="#000000" transform="matrix(1.00, 0.00, -0.00, -1.00, 486.9, 351.5)">c</text><text xml:space="preserve" font-family="GillSans,Gill Sans" font-size="28.0" fill="#000000" transform="matrix(1.00, 0.00, -0.00, -1.00, 499.1, 351.5)">e</text><text xml:space="preserve" font-family="Times-Roman,Times" font-size="18.0" fill="#000000" transform="matrix(1.00, 0.00, -0.00, -1.00, 112.6, 309.5)">p</text><text xml:space="preserve" font-family="Times-Roman,Times" font-size="18.0" fill="#000000" transform="matrix(1.00, 0.00, -0.00, -1.00, 121.6, 309.5)">h</text><text xml:space="preserve" font-family="Times-Roman,Times" font-size="18.0" fill="#000000" transform="matrix(1.00, 0.00, -0.00, -1.00, 130.6, 309.5)">y</text><text xml:space="preserve" font-family="Times-Roman,Times" font-size="18.0" fill="#000000" transform="matrix(1.00, 0.00, -0.00, -1.00, 139.6, 309.5)">s</text><text xml:space="preserve" font-family="Times-Roman,Times" font-size="18.0" fill="#000000" transform="matrix(1.00, 0.00, -0.00, -1.00, 146.6, 309.5)">i</text><text xml:space="preserve" font-family="Times-Roman,Times" font-size="18.0" fill="#000000" transform="matrix(1.00, 0.00, -0.00, -1.00, 151.6, 309.5)">c</text><text xml:space="preserve" font-family="Times-Roman,Times" font-size="18.0" fill="#000000" transform="matrix(1.00, 0.00, -0.00, -1.00, 159.6, 309.5)">a</text><text xml:space="preserve" font-family="Times-Roman,Times" font-size="18.0" fill="#000000" transform="matrix(1.00, 0.00, -0.00, -1.00, 167.6, 309.5)">l</text><text xml:space="preserve" font-family="Times-Roman,Times" font-size="18.0" fill="#000000" transform="matrix(1.00, 0.00, -0.00, -1.00, 172.6, 309.5)"> </text><text xml:space="preserve" font-family="Times-Roman,Times" font-size="18.0" fill="#000000" transform="matrix(1.00, 0.00, -0.00, -1.00, 177.1, 309.5)">d</text><text xml:space="preserve" font-family="Times-Roman,Times" font-size="18.0" fill="#000000" transform="matrix(1.00, 0.00, -0.00, -1.00, 186.1, 309.5)">i</text><text xml:space="preserve" font-family="Times-Roman,Times" font-size="18.0" fill="#000000" transform="matrix(1.00, 0.00, -0.00, -1.00, 191.1, 309.5)">s</text><text xml:space="preserve" font-family="Times-Roman,Times" font-size="18.0" fill="#000000" transform="matrix(1.00, 0.00, -0.00, -1.00, 198.1, 309.5)">t</text><text xml:space="preserve" font-family="Times-Roman,Times" font-size="18.0" fill="#000000" transform="matrix(1.00, 0.00, -0.00, -1.00, 203.1, 309.5)">a</text><text xml:space="preserve" font-family="Times-Roman,Times" font-size="18.0" fill="#000000" transform="matrix(1.00, 0.00, -0.00, -1.00, 211.0, 309.5)">n</text><text xml:space="preserve" font-family="Times-Roman,Times" font-size="18.0" fill="#000000" transform="matrix(1.00, 0.00, -0.00, -1.00, 220.0, 309.5)">c</text><text xml:space="preserve" font-family="Times-Roman,Times" font-size="18.0" fill="#000000" transform="matrix(1.00, 0.00, -0.00, -1.00, 228.0, 309.5)">e</text><text xml:space="preserve" font-family="Times-Roman,Times" font-size="18.0" fill="#000000" transform="matrix(1.00, 0.00, -0.00, -1.00, 236.0, 309.5)"> </text><text xml:space="preserve" font-family="Times-Roman,Times" font-size="18.0" fill="#000000" transform="matrix(1.00, 0.00, -0.00, -1.00, 240.5, 309.5)">a</text><text xml:space="preserve" font-family="Times-Roman,Times" font-size="18.0" fill="#000000" transform="matrix(1.00, 0.00, -0.00, -1.00, 248.5, 309.5)">n</text><text xml:space="preserve" font-family="Times-Roman,Times" font-size="18.0" fill="#000000" transform="matrix(1.00, 0.00, -0.00, -1.00, 257.5, 309.5)">d</text><text xml:space="preserve" font-family="Times-Roman,Times" font-size="18.0" fill="#000000" transform="matrix(1.00, 0.00, -0.00, -1.00, 266.5, 309.5)"> </text><text xml:space="preserve" font-family="Times-Roman,Times" font-size="18.0" fill="#000000" transform="matrix(1.00, 0.00, -0.00, -1.00, 271.0, 309.5)">b</text><text xml:space="preserve" font-family="Times-Roman,Times" font-size="18.0" fill="#000000" transform="matrix(1.00, 0.00, -0.00, -1.00, 280.0, 309.5)">a</text><text xml:space="preserve" font-family="Times-Roman,Times" font-size="18.0" fill="#000000" transform="matrix(1.00, 0.00, -0.00, -1.00, 288.0, 309.5)">r</text><text xml:space="preserve" font-family="Times-Roman,Times" font-size="18.0" fill="#000000" transform="matrix(1.00, 0.00, -0.00, -1.00, 294.0, 309.5)">r</text><text xml:space="preserve" font-family="Times-Roman,Times" font-size="18.0" fill="#000000" transform="matrix(1.00, 0.00, -0.00, -1.00, 300.0, 309.5)">i</text><text xml:space="preserve" font-family="Times-Roman,Times" font-size="18.0" fill="#000000" transform="matrix(1.00, 0.00, -0.00, -1.00, 305.0, 309.5)">e</text><text xml:space="preserve" font-family="Times-Roman,Times" font-size="18.0" fill="#000000" transform="matrix(1.00, 0.00, -0.00, -1.00, 313.0, 309.5)">r</text><text xml:space="preserve" font-family="Times-Roman,Times" font-size="18.0" fill="#000000" transform="matrix(1.00, 0.00, -0.00, -1.00, 319.0, 309.5)">s</text><text xml:space="preserve" font-family="Times-Roman,Times" font-size="18.0" fill="#000000" transform="matrix(1.00, 0.00, -0.00, -1.00, 326.0, 309.5)"> </text><text xml:space="preserve" font-family="Times-Roman,Times" font-size="18.0" fill="#000000" transform="matrix(1.00, 0.00, -0.00, -1.00, 330.5, 309.5)">r</text><text xml:space="preserve" font-family="Times-Roman,Times" font-size="18.0" fill="#000000" transform="matrix(1.00, 0.00, -0.00, -1.00, 336.5, 309.5)">e</text><text xml:space="preserve" font-family="Times-Roman,Times" font-size="18.0" fill="#000000" transform="matrix(1.00, 0.00, -0.00, -1.00, 344.4, 309.5)">d</text><text xml:space="preserve" font-family="Times-Roman,Times" font-size="18.0" fill="#000000" transform="matrix(1.00, 0.00, -0.00, -1.00, 353.4, 309.5)">u</text><text xml:space="preserve" font-family="Times-Roman,Times" font-size="18.0" fill="#000000" transform="matrix(1.00, 0.00, -0.00, -1.00, 362.4, 309.5)">c</text><text xml:space="preserve" font-family="Times-Roman,Times" font-size="18.0" fill="#000000" transform="matrix(1.00, 0.00, -0.00, -1.00, 370.4, 309.5)">e</text><text xml:space="preserve" font-family="Times-Roman,Times" font-size="18.0" fill="#000000" transform="matrix(1.00, 0.00, -0.00, -1.00, 378.4, 309.5)"> </text><text xml:space="preserve" font-family="Times-Roman,Times" font-size="18.0" fill="#000000" transform="matrix(1.00, 0.00, -0.00, -1.00, 382.9, 309.5)">g</text><text xml:space="preserve" font-family="Times-Roman,Times" font-size="18.0" fill="#000000" transform="matrix(1.00, 0.00, -0.00, -1.00, 391.9, 309.5)">e</text><text xml:space="preserve" font-family="Times-Roman,Times" font-size="18.0" fill="#000000" transform="matrix(1.00, 0.00, -0.00, -1.00, 399.9, 309.5)">n</text><text xml:space="preserve" font-family="Times-Roman,Times" font-size="18.0" fill="#000000" transform="matrix(1.00, 0.00, -0.00, -1.00, 408.9, 309.5)">e</text><text xml:space="preserve" font-family="Times-Roman,Times" font-size="18.0" fill="#000000" transform="matrix(1.00, 0.00, -0.00, -1.00, 416.9, 309.5)"> </text><text xml:space="preserve" font-family="Times-Roman,Times" font-size="18.0" fill="#000000" transform="matrix(1.00, 0.00, -0.00, -1.00, 421.4, 309.5)">ﬂ</text><text xml:space="preserve" font-family="Times-Roman,Times" font-size="18.0" fill="#000000" transform="matrix(1.00, 0.00, -0.00, -1.00, 431.4, 309.5)">o</text><text xml:space="preserve" font-family="Times-Roman,Times" font-size="18.0" fill="#000000" transform="matrix(1.00, 0.00, -0.00, -1.00, 440.4, 309.5)">w</text><text xml:space="preserve" font-family="Times-Roman,Times" font-size="18.0" fill="#000000" transform="matrix(1.00, 0.00, -0.00, -1.00, 453.4, 309.5)"> </text><text xml:space="preserve" font-family="Times-Roman,Times" font-size="18.0" fill="#000000" transform="matrix(1.00, 0.00, -0.00, -1.00, 457.9, 309.5)">b</text><text xml:space="preserve" font-family="Times-Roman,Times" font-size="18.0" fill="#000000" transform="matrix(1.00, 0.00, -0.00, -1.00, 466.9, 309.5)">e</text><text xml:space="preserve" font-family="Times-Roman,Times" font-size="18.0" fill="#000000" transform="matrix(1.00, 0.00, -0.00, -1.00, 474.9, 309.5)">t</text><text xml:space="preserve" font-family="Times-Roman,Times" font-size="18.0" fill="#000000" transform="matrix(1.00, 0.00, -0.00, -1.00, 479.9, 309.5)">w</text><text xml:space="preserve" font-family="Times-Roman,Times" font-size="18.0" fill="#000000" transform="matrix(1.00, 0.00, -0.00, -1.00, 492.9, 309.5)">e</text><text xml:space="preserve" font-family="Times-Roman,Times" font-size="18.0" fill="#000000" transform="matrix(1.00, 0.00, -0.00, -1.00, 500.9, 309.5)">e</text><text xml:space="preserve" font-family="Times-Roman,Times" font-size="18.0" fill="#000000" transform="matrix(1.00, 0.00, -0.00, -1.00, 508.9, 309.5)">n</text><text xml:space="preserve" font-family="Times-Roman,Times" font-size="18.0" fill="#000000" transform="matrix(1.00, 0.00, -0.00, -1.00, 517.9, 309.5)"> </text><text xml:space="preserve" font-family="Times-Roman,Times" font-size="18.0" fill="#000000" transform="matrix(1.00, 0.00, -0.00, -1.00, 522.4, 309.5)">p</text><text xml:space="preserve" font-family="Times-Roman,Times" font-size="18.0" fill="#000000" transform="matrix(1.00, 0.00, -0.00, -1.00, 531.4, 309.5)">o</text><text xml:space="preserve" font-family="Times-Roman,Times" font-size="18.0" fill="#000000" transform="matrix(1.00, 0.00, -0.00, -1.00, 540.4, 309.5)">p</text><text xml:space="preserve" font-family="Times-Roman,Times" font-size="18.0" fill="#000000" transform="matrix(1.00, 0.00, -0.00, -1.00, 549.4, 309.5)">u</text><text xml:space="preserve" font-family="Times-Roman,Times" font-size="18.0" fill="#000000" transform="matrix(1.00, 0.00, -0.00, -1.00, 558.4, 309.5)">l</text><text xml:space="preserve" font-family="Times-Roman,Times" font-size="18.0" fill="#000000" transform="matrix(1.00, 0.00, -0.00, -1.00, 563.4, 309.5)">a</text><text xml:space="preserve" font-family="Times-Roman,Times" font-size="18.0" fill="#000000" transform="matrix(1.00, 0.00, -0.00, -1.00, 571.3, 309.5)">t</text><text xml:space="preserve" font-family="Times-Roman,Times" font-size="18.0" fill="#000000" transform="matrix(1.00, 0.00, -0.00, -1.00, 576.3, 309.5)">i</text><text xml:space="preserve" font-family="Times-Roman,Times" font-size="18.0" fill="#000000" transform="matrix(1.00, 0.00, -0.00, -1.00, 581.3, 309.5)">o</text><text xml:space="preserve" font-family="Times-Roman,Times" font-size="18.0" fill="#000000" transform="matrix(1.00, 0.00, -0.00, -1.00, 590.3, 309.5)">n</text><text xml:space="preserve" font-family="Times-Roman,Times" font-size="18.0" fill="#000000" transform="matrix(1.00, 0.00, -0.00, -1.00, 599.3, 309.5)">s</text><g><clipPath id="clip0x6080012ad6e0"><path d="M 101.5 87.0 L 617.5 87.0 L 617.5 142.0 L 101.5 142.0 Z M 101.5 87.0 "></path></clipPath><g clip-path="url(#clip0x6080012ad6e0)"><text xml:space="preserve" font-family="Times-Roman,Times" font-size="18.0" fill="#000000" transform="matrix(1.00, 0.00, -0.00, -1.00, 111.3, 119.0)">a</text><text xml:space="preserve" font-family="Times-Roman,Times" font-size="18.0" fill="#000000" transform="matrix(1.00, 0.00, -0.00, -1.00, 119.2, 119.0)">d</text><text xml:space="preserve" font-family="Times-Roman,Times" font-size="18.0" fill="#000000" transform="matrix(1.00, 0.00, -0.00, -1.00, 128.2, 119.0)">a</text><text xml:space="preserve" font-family="Times-Roman,Times" font-size="18.0" fill="#000000" transform="matrix(1.00, 0.00, -0.00, -1.00, 136.2, 119.0)">p</text><text xml:space="preserve" font-family="Times-Roman,Times" font-size="18.0" fill="#000000" transform="matrix(1.00, 0.00, -0.00, -1.00, 145.2, 119.0)">t</text><text xml:space="preserve" font-family="Times-Roman,Times" font-size="18.0" fill="#000000" transform="matrix(1.00, 0.00, -0.00, -1.00, 150.2, 119.0)">i</text><text xml:space="preserve" font-family="Times-Roman,Times" font-size="18.0" fill="#000000" transform="matrix(1.00, 0.00, -0.00, -1.00, 155.2, 119.0)">v</text><text xml:space="preserve" font-family="Times-Roman,Times" font-size="18.0" fill="#000000" transform="matrix(1.00, 0.00, -0.00, -1.00, 164.2, 119.0)">e</text><text xml:space="preserve" font-family="Times-Roman,Times" font-size="18.0" fill="#000000" transform="matrix(1.00, 0.00, -0.00, -1.00, 172.2, 119.0)"> </text><text xml:space="preserve" font-family="Times-Roman,Times" font-size="18.0" fill="#000000" transform="matrix(1.00, 0.00, -0.00, -1.00, 176.7, 119.0)">d</text><text xml:space="preserve" font-family="Times-Roman,Times" font-size="18.0" fill="#000000" transform="matrix(1.00, 0.00, -0.00, -1.00, 185.7, 119.0)">i</text><text xml:space="preserve" font-family="Times-Roman,Times" font-size="18.0" fill="#000000" transform="matrix(1.00, 0.00, -0.00, -1.00, 190.7, 119.0)">f</text><text xml:space="preserve" font-family="Times-Roman,Times" font-size="18.0" fill="#000000" transform="matrix(1.00, 0.00, -0.00, -1.00, 196.4, 119.0)">f</text><text xml:space="preserve" font-family="Times-Roman,Times" font-size="18.0" fill="#000000" transform="matrix(1.00, 0.00, -0.00, -1.00, 202.4, 119.0)">e</text><text xml:space="preserve" font-family="Times-Roman,Times" font-size="18.0" fill="#000000" transform="matrix(1.00, 0.00, -0.00, -1.00, 210.4, 119.0)">r</text><text xml:space="preserve" font-family="Times-Roman,Times" font-size="18.0" fill="#000000" transform="matrix(1.00, 0.00, -0.00, -1.00, 216.4, 119.0)">e</text><text xml:space="preserve" font-family="Times-Roman,Times" font-size="18.0" fill="#000000" transform="matrix(1.00, 0.00, -0.00, -1.00, 224.3, 119.0)">n</text><text xml:space="preserve" font-family="Times-Roman,Times" font-size="18.0" fill="#000000" transform="matrix(1.00, 0.00, -0.00, -1.00, 233.3, 119.0)">c</text><text xml:space="preserve" font-family="Times-Roman,Times" font-size="18.0" fill="#000000" transform="matrix(1.00, 0.00, -0.00, -1.00, 241.3, 119.0)">e</text><text xml:space="preserve" font-family="Times-Roman,Times" font-size="18.0" fill="#000000" transform="matrix(1.00, 0.00, -0.00, -1.00, 249.3, 119.0)">s</text><text xml:space="preserve" font-family="Times-Roman,Times" font-size="18.0" fill="#000000" transform="matrix(1.00, 0.00, -0.00, -1.00, 256.3, 119.0)"> </text><text xml:space="preserve" font-family="Times-Roman,Times" font-size="18.0" fill="#000000" transform="matrix(1.00, 0.00, -0.00, -1.00, 260.8, 119.0)">o</text><text xml:space="preserve" font-family="Times-Roman,Times" font-size="18.0" fill="#000000" transform="matrix(1.00, 0.00, -0.00, -1.00, 269.8, 119.0)">r</text><text xml:space="preserve" font-family="Times-Roman,Times" font-size="18.0" fill="#000000" transform="matrix(1.00, 0.00, -0.00, -1.00, 275.8, 119.0)"> </text><text xml:space="preserve" font-family="Times-Roman,Times" font-size="18.0" fill="#000000" transform="matrix(1.00, 0.00, -0.00, -1.00, 280.3, 119.0)">n</text><text xml:space="preserve" font-family="Times-Roman,Times" font-size="18.0" fill="#000000" transform="matrix(1.00, 0.00, -0.00, -1.00, 289.3, 119.0)">a</text><text xml:space="preserve" font-family="Times-Roman,Times" font-size="18.0" fill="#000000" transform="matrix(1.00, 0.00, -0.00, -1.00, 297.3, 119.0)">t</text><text xml:space="preserve" font-family="Times-Roman,Times" font-size="18.0" fill="#000000" transform="matrix(1.00, 0.00, -0.00, -1.00, 302.3, 119.0)">u</text><text xml:space="preserve" font-family="Times-Roman,Times" font-size="18.0" fill="#000000" transform="matrix(1.00, 0.00, -0.00, -1.00, 311.3, 119.0)">r</text><text xml:space="preserve" font-family="Times-Roman,Times" font-size="18.0" fill="#000000" transform="matrix(1.00, 0.00, -0.00, -1.00, 317.3, 119.0)">a</text><text xml:space="preserve" font-family="Times-Roman,Times" font-size="18.0" fill="#000000" transform="matrix(1.00, 0.00, -0.00, -1.00, 325.3, 119.0)">l</text><text xml:space="preserve" font-family="Times-Roman,Times" font-size="18.0" fill="#000000" transform="matrix(1.00, 0.00, -0.00, -1.00, 330.3, 119.0)"> </text><text xml:space="preserve" font-family="Times-Roman,Times" font-size="18.0" fill="#000000" transform="matrix(1.00, 0.00, -0.00, -1.00, 334.8, 119.0)">s</text><text xml:space="preserve" font-family="Times-Roman,Times" font-size="18.0" fill="#000000" transform="matrix(1.00, 0.00, -0.00, -1.00, 341.8, 119.0)">e</text><text xml:space="preserve" font-family="Times-Roman,Times" font-size="18.0" fill="#000000" transform="matrix(1.00, 0.00, -0.00, -1.00, 349.8, 119.0)">l</text><text xml:space="preserve" font-family="Times-Roman,Times" font-size="18.0" fill="#000000" transform="matrix(1.00, 0.00, -0.00, -1.00, 354.8, 119.0)">e</text><text xml:space="preserve" font-family="Times-Roman,Times" font-size="18.0" fill="#000000" transform="matrix(1.00, 0.00, -0.00, -1.00, 362.8, 119.0)">c</text><text xml:space="preserve" font-family="Times-Roman,Times" font-size="18.0" fill="#000000" transform="matrix(1.00, 0.00, -0.00, -1.00, 370.7, 119.0)">t</text><text xml:space="preserve" font-family="Times-Roman,Times" font-size="18.0" fill="#000000" transform="matrix(1.00, 0.00, -0.00, -1.00, 375.7, 119.0)">i</text><text xml:space="preserve" font-family="Times-Roman,Times" font-size="18.0" fill="#000000" transform="matrix(1.00, 0.00, -0.00, -1.00, 380.7, 119.0)">o</text><text xml:space="preserve" font-family="Times-Roman,Times" font-size="18.0" fill="#000000" transform="matrix(1.00, 0.00, -0.00, -1.00, 389.7, 119.0)">n</text><text xml:space="preserve" font-family="Times-Roman,Times" font-size="18.0" fill="#000000" transform="matrix(1.00, 0.00, -0.00, -1.00, 398.7, 119.0)"> </text><text xml:space="preserve" font-family="Times-Roman,Times" font-size="18.0" fill="#000000" transform="matrix(1.00, 0.00, -0.00, -1.00, 403.2, 119.0)">a</text><text xml:space="preserve" font-family="Times-Roman,Times" font-size="18.0" fill="#000000" transform="matrix(1.00, 0.00, -0.00, -1.00, 411.2, 119.0)">g</text><text xml:space="preserve" font-family="Times-Roman,Times" font-size="18.0" fill="#000000" transform="matrix(1.00, 0.00, -0.00, -1.00, 420.2, 119.0)">a</text><text xml:space="preserve" font-family="Times-Roman,Times" font-size="18.0" fill="#000000" transform="matrix(1.00, 0.00, -0.00, -1.00, 428.2, 119.0)">i</text><text xml:space="preserve" font-family="Times-Roman,Times" font-size="18.0" fill="#000000" transform="matrix(1.00, 0.00, -0.00, -1.00, 433.2, 119.0)">n</text><text xml:space="preserve" font-family="Times-Roman,Times" font-size="18.0" fill="#000000" transform="matrix(1.00, 0.00, -0.00, -1.00, 442.2, 119.0)">s</text><text xml:space="preserve" font-family="Times-Roman,Times" font-size="18.0" fill="#000000" transform="matrix(1.00, 0.00, -0.00, -1.00, 449.2, 119.0)">t</text><text xml:space="preserve" font-family="Times-Roman,Times" font-size="18.0" fill="#000000" transform="matrix(1.00, 0.00, -0.00, -1.00, 454.2, 119.0)"> </text><text xml:space="preserve" font-family="Times-Roman,Times" font-size="18.0" fill="#000000" transform="matrix(1.00, 0.00, -0.00, -1.00, 458.7, 119.0)">d</text><text xml:space="preserve" font-family="Times-Roman,Times" font-size="18.0" fill="#000000" transform="matrix(1.00, 0.00, -0.00, -1.00, 467.7, 119.0)">i</text><text xml:space="preserve" font-family="Times-Roman,Times" font-size="18.0" fill="#000000" transform="matrix(1.00, 0.00, -0.00, -1.00, 472.7, 119.0)">s</text><text xml:space="preserve" font-family="Times-Roman,Times" font-size="18.0" fill="#000000" transform="matrix(1.00, 0.00, -0.00, -1.00, 479.7, 119.0)">p</text><text xml:space="preserve" font-family="Times-Roman,Times" font-size="18.0" fill="#000000" transform="matrix(1.00, 0.00, -0.00, -1.00, 488.7, 119.0)">e</text><text xml:space="preserve" font-family="Times-Roman,Times" font-size="18.0" fill="#000000" transform="matrix(1.00, 0.00, -0.00, -1.00, 496.7, 119.0)">r</text><text xml:space="preserve" font-family="Times-Roman,Times" font-size="18.0" fill="#000000" transform="matrix(1.00, 0.00, -0.00, -1.00, 502.7, 119.0)">s</text><text xml:space="preserve" font-family="Times-Roman,Times" font-size="18.0" fill="#000000" transform="matrix(1.00, 0.00, -0.00, -1.00, 509.7, 119.0)">e</text><text xml:space="preserve" font-family="Times-Roman,Times" font-size="18.0" fill="#000000" transform="matrix(1.00, 0.00, -0.00, -1.00, 517.7, 119.0)">r</text><text xml:space="preserve" font-family="Times-Roman,Times" font-size="18.0" fill="#000000" transform="matrix(1.00, 0.00, -0.00, -1.00, 523.7, 119.0)">s</text><text xml:space="preserve" font-family="Times-Roman,Times" font-size="18.0" fill="#000000" transform="matrix(1.00, 0.00, -0.00, -1.00, 530.7, 119.0)"> </text><text xml:space="preserve" font-family="Times-Roman,Times" font-size="18.0" fill="#000000" transform="matrix(1.00, 0.00, -0.00, -1.00, 535.2, 119.0)">l</text><text xml:space="preserve" font-family="Times-Roman,Times" font-size="18.0" fill="#000000" transform="matrix(1.00, 0.00, -0.00, -1.00, 540.2, 119.0)">i</text><text xml:space="preserve" font-family="Times-Roman,Times" font-size="18.0" fill="#000000" transform="matrix(1.00, 0.00, -0.00, -1.00, 545.2, 119.0)">m</text><text xml:space="preserve" font-family="Times-Roman,Times" font-size="18.0" fill="#000000" transform="matrix(1.00, 0.00, -0.00, -1.00, 559.2, 119.0)">i</text><text xml:space="preserve" font-family="Times-Roman,Times" font-size="18.0" fill="#000000" transform="matrix(1.00, 0.00, -0.00, -1.00, 564.2, 119.0)">t</text><text xml:space="preserve" font-family="Times-Roman,Times" font-size="18.0" fill="#000000" transform="matrix(1.00, 0.00, -0.00, -1.00, 569.2, 119.0)"> </text><text xml:space="preserve" font-family="Times-Roman,Times" font-size="18.0" fill="#000000" transform="matrix(1.00, 0.00, -0.00, -1.00, 573.7, 119.0)">g</text><text xml:space="preserve" font-family="Times-Roman,Times" font-size="18.0" fill="#000000" transform="matrix(1.00, 0.00, -0.00, -1.00, 582.7, 119.0)">e</text><text xml:space="preserve" font-family="Times-Roman,Times" font-size="18.0" fill="#000000" transform="matrix(1.00, 0.00, -0.00, -1.00, 590.7, 119.0)">n</text><text xml:space="preserve" font-family="Times-Roman,Times" font-size="18.0" fill="#000000" transform="matrix(1.00, 0.00, -0.00, -1.00, 599.7, 119.0)">e</text><text xml:space="preserve" font-family="Times-Roman,Times" font-size="18.0" fill="#000000" transform="matrix(1.00, 0.00, -0.00, -1.00, 607.6, 119.0)"> </text><text xml:space="preserve" font-family="Times-Roman,Times" font-size="18.0" fill="#000000" transform="matrix(1.00, 0.00, -0.00, -1.00, 244.9, 96.0)">ﬂ</text><text xml:space="preserve" font-family="Times-Roman,Times" font-size="18.0" fill="#000000" transform="matrix(1.00, 0.00, -0.00, -1.00, 255.0, 96.0)">o</text><text xml:space="preserve" font-family="Times-Roman,Times" font-size="18.0" fill="#000000" transform="matrix(1.00, 0.00, -0.00, -1.00, 264.0, 96.0)">w</text><text xml:space="preserve" font-family="Times-Roman,Times" font-size="18.0" fill="#000000" transform="matrix(1.00, 0.00, -0.00, -1.00, 277.0, 96.0)"> </text><text xml:space="preserve" font-family="Times-Roman,Times" font-size="18.0" fill="#000000" transform="matrix(1.00, 0.00, -0.00, -1.00, 281.5, 96.0)">b</text><text xml:space="preserve" font-family="Times-Roman,Times" font-size="18.0" fill="#000000" transform="matrix(1.00, 0.00, -0.00, -1.00, 290.5, 96.0)">e</text><text xml:space="preserve" font-family="Times-Roman,Times" font-size="18.0" fill="#000000" transform="matrix(1.00, 0.00, -0.00, -1.00, 298.4, 96.0)">t</text><text xml:space="preserve" font-family="Times-Roman,Times" font-size="18.0" fill="#000000" transform="matrix(1.00, 0.00, -0.00, -1.00, 303.4, 96.0)">w</text><text xml:space="preserve" font-family="Times-Roman,Times" font-size="18.0" fill="#000000" transform="matrix(1.00, 0.00, -0.00, -1.00, 316.4, 96.0)">e</text><text xml:space="preserve" font-family="Times-Roman,Times" font-size="18.0" fill="#000000" transform="matrix(1.00, 0.00, -0.00, -1.00, 324.4, 96.0)">e</text><text xml:space="preserve" font-family="Times-Roman,Times" font-size="18.0" fill="#000000" transform="matrix(1.00, 0.00, -0.00, -1.00, 332.4, 96.0)">n</text><text xml:space="preserve" font-family="Times-Roman,Times" font-size="18.0" fill="#000000" transform="matrix(1.00, 0.00, -0.00, -1.00, 341.4, 96.0)"> </text><text xml:space="preserve" font-family="Times-Roman,Times" font-size="18.0" fill="#000000" transform="matrix(1.00, 0.00, -0.00, -1.00, 345.9, 96.0)">d</text><text xml:space="preserve" font-family="Times-Roman,Times" font-size="18.0" fill="#000000" transform="matrix(1.00, 0.00, -0.00, -1.00, 354.9, 96.0)">i</text><text xml:space="preserve" font-family="Times-Roman,Times" font-size="18.0" fill="#000000" transform="matrix(1.00, 0.00, -0.00, -1.00, 359.9, 96.0)">v</text><text xml:space="preserve" font-family="Times-Roman,Times" font-size="18.0" fill="#000000" transform="matrix(1.00, 0.00, -0.00, -1.00, 368.9, 96.0)">e</text><text xml:space="preserve" font-family="Times-Roman,Times" font-size="18.0" fill="#000000" transform="matrix(1.00, 0.00, -0.00, -1.00, 376.9, 96.0)">r</text><text xml:space="preserve" font-family="Times-Roman,Times" font-size="18.0" fill="#000000" transform="matrix(1.00, 0.00, -0.00, -1.00, 382.6, 96.0)">g</text><text xml:space="preserve" font-family="Times-Roman,Times" font-size="18.0" fill="#000000" transform="matrix(1.00, 0.00, -0.00, -1.00, 391.6, 96.0)">e</text><text xml:space="preserve" font-family="Times-Roman,Times" font-size="18.0" fill="#000000" transform="matrix(1.00, 0.00, -0.00, -1.00, 399.6, 96.0)">n</text><text xml:space="preserve" font-family="Times-Roman,Times" font-size="18.0" fill="#000000" transform="matrix(1.00, 0.00, -0.00, -1.00, 408.6, 96.0)">t</text><text xml:space="preserve" font-family="Times-Roman,Times" font-size="18.0" fill="#000000" transform="matrix(1.00, 0.00, -0.00, -1.00, 413.6, 96.0)"> </text><text xml:space="preserve" font-family="Times-Roman,Times" font-size="18.0" fill="#000000" transform="matrix(1.00, 0.00, -0.00, -1.00, 418.1, 96.0)">h</text><text xml:space="preserve" font-family="Times-Roman,Times" font-size="18.0" fill="#000000" transform="matrix(1.00, 0.00, -0.00, -1.00, 427.1, 96.0)">a</text><text xml:space="preserve" font-family="Times-Roman,Times" font-size="18.0" fill="#000000" transform="matrix(1.00, 0.00, -0.00, -1.00, 435.0, 96.0)">b</text><text xml:space="preserve" font-family="Times-Roman,Times" font-size="18.0" fill="#000000" transform="matrix(1.00, 0.00, -0.00, -1.00, 444.0, 96.0)">i</text><text xml:space="preserve" font-family="Times-Roman,Times" font-size="18.0" fill="#000000" transform="matrix(1.00, 0.00, -0.00, -1.00, 449.0, 96.0)">t</text><text xml:space="preserve" font-family="Times-Roman,Times" font-size="18.0" fill="#000000" transform="matrix(1.00, 0.00, -0.00, -1.00, 454.0, 96.0)">a</text><text xml:space="preserve" font-family="Times-Roman,Times" font-size="18.0" fill="#000000" transform="matrix(1.00, 0.00, -0.00, -1.00, 462.0, 96.0)">t</text><text xml:space="preserve" font-family="Times-Roman,Times" font-size="18.0" fill="#000000" transform="matrix(1.00, 0.00, -0.00, -1.00, 467.0, 96.0)">s</text></g></g><g><clipPath id="clip0x6080012aff00"><path d="M 176.9 145.0 L 543.1 145.0 L 543.1 193.0 L 176.9 193.0 Z M 176.9 145.0 "></path></clipPath><g clip-path="url(#clip0x6080012aff00)"><text xml:space="preserve" font-family="GillSans,Gill Sans" font-size="28.0" fill="#000000" transform="matrix(1.00, 0.00, -0.00, -1.00, 185.4, 159.5)">I</text><text xml:space="preserve" font-family="GillSans,Gill Sans" font-size="28.0" fill="#000000" transform="matrix(1.00, 0.00, -0.00, -1.00, 192.4, 159.5)">B</text><text xml:space="preserve" font-family="GillSans,Gill Sans" font-size="28.0" fill="#000000" transform="matrix(1.00, 0.00, -0.00, -1.00, 208.2, 159.5)">E</text><text xml:space="preserve" font-family="GillSans,Gill Sans" font-size="28.0" fill="#000000" transform="matrix(1.00, 0.00, -0.00, -1.00, 222.2, 159.5)"> </text><text xml:space="preserve" font-family="GillSans,Gill Sans" font-size="28.0" fill="#000000" transform="matrix(1.00, 0.00, -0.00, -1.00, 230.0, 159.5)">=</text><text xml:space="preserve" font-family="GillSans,Gill Sans" font-size="28.0" fill="#000000" transform="matrix(1.00, 0.00, -0.00, -1.00, 246.3, 159.5)"> </text><text xml:space="preserve" font-family="GillSans,Gill Sans" font-size="28.0" fill="#000000" transform="matrix(1.00, 0.00, -0.00, -1.00, 254.1, 159.5)">i</text><text xml:space="preserve" font-family="GillSans,Gill Sans" font-size="28.0" fill="#000000" transform="matrix(1.00, 0.00, -0.00, -1.00, 260.2, 159.5)">s</text><text xml:space="preserve" font-family="GillSans,Gill Sans" font-size="28.0" fill="#000000" transform="matrix(1.00, 0.00, -0.00, -1.00, 271.0, 159.5)">o</text><text xml:space="preserve" font-family="GillSans,Gill Sans" font-size="28.0" fill="#000000" transform="matrix(1.00, 0.00, -0.00, -1.00, 286.4, 159.5)">l</text><text xml:space="preserve" font-family="GillSans,Gill Sans" font-size="28.0" fill="#000000" transform="matrix(1.00, 0.00, -0.00, -1.00, 292.6, 159.5)">a</text><text xml:space="preserve" font-family="GillSans,Gill Sans" font-size="28.0" fill="#000000" transform="matrix(1.00, 0.00, -0.00, -1.00, 304.5, 159.5)">t</text><text xml:space="preserve" font-family="GillSans,Gill Sans" font-size="28.0" fill="#000000" transform="matrix(1.00, 0.00, -0.00, -1.00, 313.9, 159.5)">i</text><text xml:space="preserve" font-family="GillSans,Gill Sans" font-size="28.0" fill="#000000" transform="matrix(1.00, 0.00, -0.00, -1.00, 320.0, 159.5)">o</text><text xml:space="preserve" font-family="GillSans,Gill Sans" font-size="28.0" fill="#000000" transform="matrix(1.00, 0.00, -0.00, -1.00, 335.4, 159.5)">n</text><text xml:space="preserve" font-family="GillSans,Gill Sans" font-size="28.0" fill="#000000" transform="matrix(1.00, 0.00, -0.00, -1.00, 349.4, 159.5)"> </text><text xml:space="preserve" font-family="GillSans,Gill Sans" font-size="28.0" fill="#000000" transform="matrix(1.00, 0.00, -0.00, -1.00, 357.2, 159.5)">b</text><text xml:space="preserve" font-family="GillSans,Gill Sans" font-size="28.0" fill="#000000" transform="matrix(1.00, 0.00, -0.00, -1.00, 370.9, 159.5)">y</text><text xml:space="preserve" font-family="GillSans,Gill Sans" font-size="28.0" fill="#000000" transform="matrix(1.00, 0.00, -0.00, -1.00, 383.2, 159.5)"> </text><text xml:space="preserve" font-family="GillSans,Gill Sans" font-size="28.0" fill="#000000" transform="matrix(1.00, 0.00, -0.00, -1.00, 391.0, 159.5)">e</text><text xml:space="preserve" font-family="GillSans,Gill Sans" font-size="28.0" fill="#000000" transform="matrix(1.00, 0.00, -0.00, -1.00, 404.4, 159.5)">n</text><text xml:space="preserve" font-family="GillSans,Gill Sans" font-size="28.0" fill="#000000" transform="matrix(1.00, 0.00, -0.00, -1.00, 418.0, 159.5)">v</text><text xml:space="preserve" font-family="GillSans,Gill Sans" font-size="28.0" fill="#000000" transform="matrix(1.00, 0.00, -0.00, -1.00, 430.2, 159.5)">i</text><text xml:space="preserve" font-family="GillSans,Gill Sans" font-size="28.0" fill="#000000" transform="matrix(1.00, 0.00, -0.00, -1.00, 436.4, 159.5)">r</text><text xml:space="preserve" font-family="GillSans,Gill Sans" font-size="28.0" fill="#000000" transform="matrix(1.00, 0.00, -0.00, -1.00, 446.8, 159.5)">o</text><text xml:space="preserve" font-family="GillSans,Gill Sans" font-size="28.0" fill="#000000" transform="matrix(1.00, 0.00, -0.00, -1.00, 462.2, 159.5)">n</text><text xml:space="preserve" font-family="GillSans,Gill Sans" font-size="28.0" fill="#000000" transform="matrix(1.00, 0.00, -0.00, -1.00, 476.2, 159.5)">m</text><text xml:space="preserve" font-family="GillSans,Gill Sans" font-size="28.0" fill="#000000" transform="matrix(1.00, 0.00, -0.00, -1.00, 497.8, 159.5)">e</text><text xml:space="preserve" font-family="GillSans,Gill Sans" font-size="28.0" fill="#000000" transform="matrix(1.00, 0.00, -0.00, -1.00, 511.2, 159.5)">n</text><text xml:space="preserve" font-family="GillSans,Gill Sans" font-size="28.0" fill="#000000" transform="matrix(1.00, 0.00, -0.00, -1.00, 525.2, 159.5)">t</text></g></g></g></svg>