<?xml version="1.0" encoding="UTF-8" standalone="no"?><svg xmlns="http://www.w3.org/2000/svg" xmlns:xlink="http://www.w3.org/1999/xlink" clip-rule="evenodd" stroke-miterlimit="10" viewBox="0 0 1024 768"><desc>SVG generated by Keynote</desc><defs></defs><g transform="matrix(1.00, 0.00, -0.00, -1.00, 0.0, 768.0)"><path d="M 0.0 768.0 L 1024.0 768.0 L 1024.0 0.0 L 0.0 0.0 Z M 0.0 768.0 " fill="#FEFFFF"></path><text xml:space="preserve" font-family="ArialMT,Arial" font-size="30.0" fill="#000000" transform="matrix(1.00, 0.00, -0.00, -1.00, 247.6, 421.3)">M</text><text xml:space="preserve" font-family="ArialMT,Arial" font-size="30.0" fill="#000000" transform="matrix(1.00, 0.00, -0.00, -1.00, 272.5, 421.3)">a</text><text xml:space="preserve" font-family="ArialMT,Arial" font-size="30.0" fill="#000000" transform="matrix(1.00, 0.00, -0.00, -1.00, 289.2, 421.3)">l</text><text xml:space="preserve" font-family="ArialMT,Arial" font-size="30.0" fill="#000000" transform="matrix(1.00, 0.00, -0.00, -1.00, 295.9, 421.3)">e</text><text xml:space="preserve" font-family="ArialMT,Arial" font-size="30.0" fill="#000000" transform="matrix(1.00, 0.00, -0.00, -1.00, 622.6, 413.3)">F</text><text xml:space="preserve" font-family="ArialMT,Arial" font-size="30.0" fill="#000000" transform="matrix(1.00, 0.00, -0.00, -1.00, 640.9, 413.3)">e</text><text xml:space="preserve" font-family="ArialMT,Arial" font-size="30.0" fill="#000000" transform="matrix(1.00, 0.00, -0.00, -1.00, 657.6, 413.3)">m</text><text xml:space="preserve" font-family="ArialMT,Arial" font-size="30.0" fill="#000000" transform="matrix(1.00, 0.00, -0.00, -1.00, 682.6, 413.3)">a</text><text xml:space="preserve" font-family="ArialMT,Arial" font-size="30.0" fill="#000000" transform="matrix(1.00, 0.00, -0.00, -1.00, 699.2, 413.3)">l</text><text xml:space="preserve" font-family="ArialMT,Arial" font-size="30.0" fill="#000000" transform="matrix(1.00, 0.00, -0.00, -1.00, 705.9, 413.3)">e</text><g><clipPath id="clip0x7fbd93242400"><path d="M 152.5 467.5 L 411.5 467.5 L 411.5 726.5 L 152.5 726.5 Z M 152.5 467.5 "></path></clipPath><g clip-path="url(#clip0x7fbd93242400)"><path d="M 154.5 499.0 L 154.5 695.0 C 154.5 711.6 167.4 724.5 184.0 724.5 L 380.0 724.5 C 396.6 724.5 410.5 711.6 410.5 695.0 L 410.5 499.0 C 410.5 482.4 396.6 468.5 380.0 468.5 L 184.0 468.5 C 167.4 468.5 154.5 482.4 154.5 499.0 Z M 154.0 499.0 " fill="#C6E5E8"></path><path d="M 0.5 226.0 L 0.5 30.0 C 0.5 13.4 13.4 0.5 30.0 0.5 L 226.0 0.5 C 242.6 0.5 256.5 13.4 256.5 30.0 L 256.5 226.0 C 256.5 242.6 242.6 256.5 226.0 256.5 L 30.0 256.5 C 13.4 256.5 0.5 242.6 0.5 226.0 Z M 0.0 226.0 " fill="none" stroke="#000000" stroke-width="1.00" stroke-linejoin="round" transform="matrix(1.00, 0.00, 0.00, -1.00, 154.0, 725.0)"></path></g></g><g><clipPath id="clip0x7fbd93244290"><path d="M 251.7 571.4 L 311.5 571.4 L 311.5 622.2 L 251.7 622.2 Z M 251.7 571.4 "></path></clipPath><g clip-path="url(#clip0x7fbd93244290)"><text xml:space="preserve" font-family="ArialMT,Arial" font-size="30.0" fill="#000000" transform="matrix(1.00, 0.00, -0.00, -1.00, 266.0, 587.1)">Z</text><text xml:space="preserve" font-family="ArialMT,Arial" font-size="30.0" fill="#000000" transform="matrix(1.00, 0.00, -0.00, -1.00, 284.3, 587.1)">Z</text></g></g><g><clipPath id="clip0x7fbd93245bf0"><path d="M 544.5 467.5 L 803.5 467.5 L 803.5 726.5 L 544.5 726.5 Z M 544.5 467.5 "></path></clipPath><g clip-path="url(#clip0x7fbd93245bf0)"><path d="M 546.5 499.0 L 546.5 695.0 C 546.5 711.6 559.4 724.5 576.0 724.5 L 772.0 724.5 C 788.6 724.5 802.5 711.6 802.5 695.0 L 802.5 499.0 C 802.5 482.4 788.6 468.5 772.0 468.5 L 576.0 468.5 C 559.4 468.5 546.5 482.4 546.5 499.0 Z M 546.0 499.0 " fill="#FFADD5"></path><path d="M 0.5 226.0 L 0.5 30.0 C 0.5 13.4 13.4 0.5 30.0 0.5 L 226.0 0.5 C 242.6 0.5 256.5 13.4 256.5 30.0 L 256.5 226.0 C 256.5 242.6 242.6 256.5 226.0 256.5 L 30.0 256.5 C 13.4 256.5 0.5 242.6 0.5 226.0 Z M 0.0 226.0 " fill="none" stroke="#000000" stroke-width="1.00" stroke-linejoin="round" transform="matrix(1.00, 0.00, 0.00, -1.00, 546.0, 725.0)"></path></g></g><g><clipPath id="clip0x7fbd93247a30"><path d="M 639.2 571.4 L 709.1 571.4 L 709.1 622.2 L 639.2 622.2 Z M 639.2 571.4 "></path></clipPath><g clip-path="url(#clip0x7fbd93247a30)"><text xml:space="preserve" font-family="ArialMT,Arial" font-size="30.0" fill="#000000" transform="matrix(1.00, 0.00, -0.00, -1.00, 653.5, 587.1)">Z</text><text xml:space="preserve" font-family="ArialMT,Arial" font-size="30.0" fill="#000000" transform="matrix(1.00, 0.00, -0.00, -1.00, 671.9, 587.1)">W</text></g></g><g><clipPath id="clip0x7fbd93249370"><path d="M 521.0 109.0 L 896.0 109.0 L 896.0 341.0 L 521.0 341.0 Z M 521.0 109.0 "></path></clipPath><g clip-path="url(#clip0x7fbd93249370)"><path d="M 521.0 341.0 L 896.0 341.0 L 896.0 109.0 L 521.0 109.0 Z M 521.0 341.0 " fill="#FFFFFF"></path><image xlink:href="330982B594A55F4A415964AFDB4F8AA3.png" width="485.00" height="300.00" transform="matrix(0.77, 0.00, -0.00, -0.77, 521.0, 341.0)"></image></g></g><text xml:space="preserve" font-family="ArialMT,Arial" font-size="14.0" fill="#000000" transform="matrix(1.00, 0.00, -0.00, -1.00, 554.6, 94.4)">K</text><text xml:space="preserve" font-family="ArialMT,Arial" font-size="14.0" fill="#000000" transform="matrix(1.00, 0.00, -0.00, -1.00, 563.9, 94.4)">o</text><text xml:space="preserve" font-family="ArialMT,Arial" font-size="14.0" fill="#000000" transform="matrix(1.00, 0.00, -0.00, -1.00, 571.7, 94.4)">m</text><text xml:space="preserve" font-family="ArialMT,Arial" font-size="14.0" fill="#000000" transform="matrix(1.00, 0.00, -0.00, -1.00, 583.3, 94.4)">o</text><text xml:space="preserve" font-family="ArialMT,Arial" font-size="14.0" fill="#000000" transform="matrix(1.00, 0.00, -0.00, -1.00, 591.1, 94.4)">d</text><text xml:space="preserve" font-family="ArialMT,Arial" font-size="14.0" fill="#000000" transform="matrix(1.00, 0.00, -0.00, -1.00, 598.9, 94.4)">o</text><text xml:space="preserve" font-family="ArialMT,Arial" font-size="14.0" fill="#000000" transform="matrix(1.00, 0.00, -0.00, -1.00, 606.7, 94.4)"> </text><text xml:space="preserve" font-family="ArialMT,Arial" font-size="14.0" fill="#000000" transform="matrix(1.00, 0.00, -0.00, -1.00, 610.6, 94.4)">d</text><text xml:space="preserve" font-family="ArialMT,Arial" font-size="14.0" fill="#000000" transform="matrix(1.00, 0.00, -0.00, -1.00, 618.4, 94.4)">r</text><text xml:space="preserve" font-family="ArialMT,Arial" font-size="14.0" fill="#000000" transform="matrix(1.00, 0.00, -0.00, -1.00, 623.0, 94.4)">a</text><text xml:space="preserve" font-family="ArialMT,Arial" font-size="14.0" fill="#000000" transform="matrix(1.00, 0.00, -0.00, -1.00, 630.8, 94.4)">g</text><text xml:space="preserve" font-family="ArialMT,Arial" font-size="14.0" fill="#000000" transform="matrix(1.00, 0.00, -0.00, -1.00, 638.6, 94.4)">o</text><text xml:space="preserve" font-family="ArialMT,Arial" font-size="14.0" fill="#000000" transform="matrix(1.00, 0.00, -0.00, -1.00, 646.4, 94.4)">n</text><text xml:space="preserve" font-family="ArialMT,Arial" font-size="14.0" fill="#000000" transform="matrix(1.00, 0.00, -0.00, -1.00, 654.2, 94.4)">,</text><text xml:space="preserve" font-family="ArialMT,Arial" font-size="14.0" fill="#000000" transform="matrix(1.00, 0.00, -0.00, -1.00, 658.1, 94.4)"> </text><text xml:space="preserve" font-family="Arial-ItalicMT,Arial" font-style="italic" font-size="14.0" fill="#000000" transform="matrix(1.00, 0.00, -0.00, -1.00, 662.0, 94.4)">V</text><text xml:space="preserve" font-family="Arial-ItalicMT,Arial" font-style="italic" font-size="14.0" fill="#000000" transform="matrix(1.00, 0.00, -0.00, -1.00, 670.8, 94.4)">a</text><text xml:space="preserve" font-family="Arial-ItalicMT,Arial" font-style="italic" font-size="14.0" fill="#000000" transform="matrix(1.00, 0.00, -0.00, -1.00, 678.6, 94.4)">r</text><text xml:space="preserve" font-family="Arial-ItalicMT,Arial" font-style="italic" font-size="14.0" fill="#000000" transform="matrix(1.00, 0.00, -0.00, -1.00, 683.2, 94.4)">a</text><text xml:space="preserve" font-family="Arial-ItalicMT,Arial" font-style="italic" font-size="14.0" fill="#000000" transform="matrix(1.00, 0.00, -0.00, -1.00, 691.0, 94.4)">n</text><text xml:space="preserve" font-family="Arial-ItalicMT,Arial" font-style="italic" font-size="14.0" fill="#000000" transform="matrix(1.00, 0.00, -0.00, -1.00, 698.8, 94.4)">u</text><text xml:space="preserve" font-family="Arial-ItalicMT,Arial" font-style="italic" font-size="14.0" fill="#000000" transform="matrix(1.00, 0.00, -0.00, -1.00, 706.6, 94.4)">s</text><text xml:space="preserve" font-family="Arial-ItalicMT,Arial" font-style="italic" font-size="14.0" fill="#000000" transform="matrix(1.00, 0.00, -0.00, -1.00, 713.6, 94.4)"> </text><text xml:space="preserve" font-family="Arial-ItalicMT,Arial" font-style="italic" font-size="14.0" fill="#000000" transform="matrix(1.00, 0.00, -0.00, -1.00, 717.5, 94.4)">k</text><text xml:space="preserve" font-family="Arial-ItalicMT,Arial" font-style="italic" font-size="14.0" fill="#000000" transform="matrix(1.00, 0.00, -0.00, -1.00, 724.5, 94.4)">o</text><text xml:space="preserve" font-family="Arial-ItalicMT,Arial" font-style="italic" font-size="14.0" fill="#000000" transform="matrix(1.00, 0.00, -0.00, -1.00, 732.3, 94.4)">m</text><text xml:space="preserve" font-family="Arial-ItalicMT,Arial" font-style="italic" font-size="14.0" fill="#000000" transform="matrix(1.00, 0.00, -0.00, -1.00, 743.9, 94.4)">o</text><text xml:space="preserve" font-family="Arial-ItalicMT,Arial" font-style="italic" font-size="14.0" fill="#000000" transform="matrix(1.00, 0.00, -0.00, -1.00, 751.7, 94.4)">d</text><text xml:space="preserve" font-family="Arial-ItalicMT,Arial" font-style="italic" font-size="14.0" fill="#000000" transform="matrix(1.00, 0.00, -0.00, -1.00, 759.5, 94.4)">o</text><text xml:space="preserve" font-family="Arial-ItalicMT,Arial" font-style="italic" font-size="14.0" fill="#000000" transform="matrix(1.00, 0.00, -0.00, -1.00, 767.3, 94.4)">e</text><text xml:space="preserve" font-family="Arial-ItalicMT,Arial" font-style="italic" font-size="14.0" fill="#000000" transform="matrix(1.00, 0.00, -0.00, -1.00, 775.1, 94.4)">n</text><text xml:space="preserve" font-family="Arial-ItalicMT,Arial" font-style="italic" font-size="14.0" fill="#000000" transform="matrix(1.00, 0.00, -0.00, -1.00, 782.9, 94.4)">s</text><text xml:space="preserve" font-family="Arial-ItalicMT,Arial" font-style="italic" font-size="14.0" fill="#000000" transform="matrix(1.00, 0.00, -0.00, -1.00, 789.9, 94.4)">i</text><text xml:space="preserve" font-family="Arial-ItalicMT,Arial" font-style="italic" font-size="14.0" fill="#000000" transform="matrix(1.00, 0.00, -0.00, -1.00, 793.0, 94.4)">s</text><text xml:space="preserve" font-family="ArialMT,Arial" font-size="14.0" fill="#000000" transform="matrix(1.00, 0.00, -0.00, -1.00, 800.0, 94.4)"> </text><g><clipPath id="clip0x7fbd934e43f0"><path d="M 181.0 70.0 L 397.0 70.0 L 397.0 400.0 L 181.0 400.0 Z M 181.0 70.0 "></path></clipPath><g clip-path="url(#clip0x7fbd934e43f0)"><path d="M 181.0 400.0 L 397.0 400.0 L 397.0 70.0 L 181.0 70.0 Z M 181.0 400.0 " fill="#FFFFFF"></path><image xlink:href="F94859E9C183B87AFC34F64FCE02A4DA.png" width="490.00" height="750.00" transform="matrix(0.44, 0.00, -0.00, -0.44, 181.0, 400.0)"></image></g></g><text xml:space="preserve" font-family="Arial-ItalicMT,Arial" font-style="italic" font-size="22.0" fill="#000000" transform="matrix(1.00, 0.00, -0.00, -1.00, 189.6, 47.6)">A</text><text xml:space="preserve" font-family="Arial-ItalicMT,Arial" font-style="italic" font-size="22.0" fill="#000000" transform="matrix(1.00, 0.00, -0.00, -1.00, 204.2, 47.6)">m</text><text xml:space="preserve" font-family="Arial-ItalicMT,Arial" font-style="italic" font-size="22.0" fill="#000000" transform="matrix(1.00, 0.00, -0.00, -1.00, 222.6, 47.6)">b</text><text xml:space="preserve" font-family="Arial-ItalicMT,Arial" font-style="italic" font-size="22.0" fill="#000000" transform="matrix(1.00, 0.00, -0.00, -1.00, 234.8, 47.6)">y</text><text xml:space="preserve" font-family="Arial-ItalicMT,Arial" font-style="italic" font-size="22.0" fill="#000000" transform="matrix(1.00, 0.00, -0.00, -1.00, 245.8, 47.6)">s</text><text xml:space="preserve" font-family="Arial-ItalicMT,Arial" font-style="italic" font-size="22.0" fill="#000000" transform="matrix(1.00, 0.00, -0.00, -1.00, 256.8, 47.6)">t</text><text xml:space="preserve" font-family="Arial-ItalicMT,Arial" font-style="italic" font-size="22.0" fill="#000000" transform="matrix(1.00, 0.00, -0.00, -1.00, 262.9, 47.6)">o</text><text xml:space="preserve" font-family="Arial-ItalicMT,Arial" font-style="italic" font-size="22.0" fill="#000000" transform="matrix(1.00, 0.00, -0.00, -1.00, 275.1, 47.6)">m</text><text xml:space="preserve" font-family="Arial-ItalicMT,Arial" font-style="italic" font-size="22.0" fill="#000000" transform="matrix(1.00, 0.00, -0.00, -1.00, 293.5, 47.6)">a</text><text xml:space="preserve" font-family="Arial-ItalicMT,Arial" font-style="italic" font-size="22.0" fill="#000000" transform="matrix(1.00, 0.00, -0.00, -1.00, 305.7, 47.6)"> </text><text xml:space="preserve" font-family="Arial-ItalicMT,Arial" font-style="italic" font-size="22.0" fill="#000000" transform="matrix(1.00, 0.00, -0.00, -1.00, 311.8, 47.6)">t</text><text xml:space="preserve" font-family="Arial-ItalicMT,Arial" font-style="italic" font-size="22.0" fill="#000000" transform="matrix(1.00, 0.00, -0.00, -1.00, 317.9, 47.6)">i</text><text xml:space="preserve" font-family="Arial-ItalicMT,Arial" font-style="italic" font-size="22.0" fill="#000000" transform="matrix(1.00, 0.00, -0.00, -1.00, 322.8, 47.6)">g</text><text xml:space="preserve" font-family="Arial-ItalicMT,Arial" font-style="italic" font-size="22.0" fill="#000000" transform="matrix(1.00, 0.00, -0.00, -1.00, 335.1, 47.6)">r</text><text xml:space="preserve" font-family="Arial-ItalicMT,Arial" font-style="italic" font-size="22.0" fill="#000000" transform="matrix(1.00, 0.00, -0.00, -1.00, 342.4, 47.6)">i</text><text xml:space="preserve" font-family="Arial-ItalicMT,Arial" font-style="italic" font-size="22.0" fill="#000000" transform="matrix(1.00, 0.00, -0.00, -1.00, 347.3, 47.6)">n</text><text xml:space="preserve" font-family="Arial-ItalicMT,Arial" font-style="italic" font-size="22.0" fill="#000000" transform="matrix(1.00, 0.00, -0.00, -1.00, 359.5, 47.6)">u</text><text xml:space="preserve" font-family="Arial-ItalicMT,Arial" font-style="italic" font-size="22.0" fill="#000000" transform="matrix(1.00, 0.00, -0.00, -1.00, 371.7, 47.6)">m</text><text xml:space="preserve" font-family="Arial-ItalicMT,Arial" font-style="italic" font-size="22.0" fill="#000000" transform="matrix(1.00, 0.00, -0.00, -1.00, 390.1, 47.6)"> </text><text xml:space="preserve" font-family="ArialMT,Arial" font-size="22.0" fill="#000000" transform="matrix(1.00, 0.00, -0.00, -1.00, 189.6, 21.6)">T</text><text xml:space="preserve" font-family="ArialMT,Arial" font-size="22.0" fill="#000000" transform="matrix(1.00, 0.00, -0.00, -1.00, 202.2, 21.6)">i</text><text xml:space="preserve" font-family="ArialMT,Arial" font-size="22.0" fill="#000000" transform="matrix(1.00, 0.00, -0.00, -1.00, 207.1, 21.6)">g</text><text xml:space="preserve" font-family="ArialMT,Arial" font-size="22.0" fill="#000000" transform="matrix(1.00, 0.00, -0.00, -1.00, 219.3, 21.6)">e</text><text xml:space="preserve" font-family="ArialMT,Arial" font-size="22.0" fill="#000000" transform="matrix(1.00, 0.00, -0.00, -1.00, 231.5, 21.6)">r</text><text xml:space="preserve" font-family="ArialMT,Arial" font-size="22.0" fill="#000000" transform="matrix(1.00, 0.00, -0.00, -1.00, 238.9, 21.6)"> </text><text xml:space="preserve" font-family="ArialMT,Arial" font-size="22.0" fill="#000000" transform="matrix(1.00, 0.00, -0.00, -1.00, 245.0, 21.6)">s</text><text xml:space="preserve" font-family="ArialMT,Arial" font-size="22.0" fill="#000000" transform="matrix(1.00, 0.00, -0.00, -1.00, 256.0, 21.6)">a</text><text xml:space="preserve" font-family="ArialMT,Arial" font-size="22.0" fill="#000000" transform="matrix(1.00, 0.00, -0.00, -1.00, 268.2, 21.6)">l</text><text xml:space="preserve" font-family="ArialMT,Arial" font-size="22.0" fill="#000000" transform="matrix(1.00, 0.00, -0.00, -1.00, 273.1, 21.6)">a</text><text xml:space="preserve" font-family="ArialMT,Arial" font-size="22.0" fill="#000000" transform="matrix(1.00, 0.00, -0.00, -1.00, 285.3, 21.6)">m</text><text xml:space="preserve" font-family="ArialMT,Arial" font-size="22.0" fill="#000000" transform="matrix(1.00, 0.00, -0.00, -1.00, 303.7, 21.6)">a</text><text xml:space="preserve" font-family="ArialMT,Arial" font-size="22.0" fill="#000000" transform="matrix(1.00, 0.00, -0.00, -1.00, 315.9, 21.6)">n</text><text xml:space="preserve" font-family="ArialMT,Arial" font-size="22.0" fill="#000000" transform="matrix(1.00, 0.00, -0.00, -1.00, 328.2, 21.6)">d</text><text xml:space="preserve" font-family="ArialMT,Arial" font-size="22.0" fill="#000000" transform="matrix(1.00, 0.00, -0.00, -1.00, 340.4, 21.6)">e</text><text xml:space="preserve" font-family="ArialMT,Arial" font-size="22.0" fill="#000000" transform="matrix(1.00, 0.00, -0.00, -1.00, 352.6, 21.6)">r</text></g></svg>