<?xml version="1.0" encoding="UTF-8" standalone="no"?><svg xmlns="http://www.w3.org/2000/svg" xmlns:xlink="http://www.w3.org/1999/xlink" clip-rule="evenodd" stroke-miterlimit="10" viewBox="0 0 1024 768"><desc>SVG generated by Keynote</desc><defs></defs><g transform="matrix(1.00, 0.00, -0.00, -1.00, 0.0, 768.0)"><path d="M 0.0 768.0 L 1024.0 768.0 L 1024.0 0.0 L 0.0 0.0 Z M 0.0 768.0 " fill="#FEFFFF"></path><text xml:space="preserve" font-family="ArialMT,Arial" font-size="30.0" fill="#000000" transform="matrix(1.00, 0.00, -0.00, -1.00, 247.6, 421.3)">M</text><text xml:space="preserve" font-family="ArialMT,Arial" font-size="30.0" fill="#000000" transform="matrix(1.00, 0.00, -0.00, -1.00, 272.5, 421.3)">a</text><text xml:space="preserve" font-family="ArialMT,Arial" font-size="30.0" fill="#000000" transform="matrix(1.00, 0.00, -0.00, -1.00, 289.2, 421.3)">l</text><text xml:space="preserve" font-family="ArialMT,Arial" font-size="30.0" fill="#000000" transform="matrix(1.00, 0.00, -0.00, -1.00, 295.9, 421.3)">e</text><text xml:space="preserve" font-family="ArialMT,Arial" font-size="30.0" fill="#000000" transform="matrix(1.00, 0.00, -0.00, -1.00, 622.6, 413.3)">F</text><text xml:space="preserve" font-family="ArialMT,Arial" font-size="30.0" fill="#000000" transform="matrix(1.00, 0.00, -0.00, -1.00, 640.9, 413.3)">e</text><text xml:space="preserve" font-family="ArialMT,Arial" font-size="30.0" fill="#000000" transform="matrix(1.00, 0.00, -0.00, -1.00, 657.6, 413.3)">m</text><text xml:space="preserve" font-family="ArialMT,Arial" font-size="30.0" fill="#000000" transform="matrix(1.00, 0.00, -0.00, -1.00, 682.6, 413.3)">a</text><text xml:space="preserve" font-family="ArialMT,Arial" font-size="30.0" fill="#000000" transform="matrix(1.00, 0.00, -0.00, -1.00, 699.2, 413.3)">l</text><text xml:space="preserve" font-family="ArialMT,Arial" font-size="30.0" fill="#000000" transform="matrix(1.00, 0.00, -0.00, -1.00, 705.9, 413.3)">e</text><g><clipPath id="clip0x7fbd934c5c70"><path d="M 177.5 485.5 L 393.5 485.5 L 393.5 701.5 L 177.5 701.5 Z M 177.5 485.5 "></path></clipPath><g clip-path="url(#clip0x7fbd934c5c70)"><path d="M 360.8 668.8 C 402.4 627.2 402.4 559.8 360.8 518.2 C 319.2 476.6 251.8 476.6 210.2 518.2 C 168.6 559.8 168.6 627.2 210.2 668.8 C 251.8 710.4 319.2 710.4 360.8 668.8 " fill="#C6E5E8"></path><path d="M 181.8 31.2 C 223.4 72.8 223.4 140.2 181.8 181.8 C 140.2 223.4 72.8 223.4 31.2 181.8 C -10.4 140.2 -10.4 72.8 31.2 31.2 C 72.8 -10.4 140.2 -10.4 181.8 31.2 " fill="none" stroke="#000000" stroke-width="1.00" stroke-linejoin="round" transform="matrix(1.00, 0.00, 0.00, -1.00, 179.0, 700.0)"></path></g></g><g><clipPath id="clip0x7fbd934b7a90"><path d="M 249.1 561.2 L 322.7 561.2 L 322.7 623.3 L 249.1 623.3 Z M 249.1 561.2 "></path></clipPath><g clip-path="url(#clip0x7fbd934b7a90)"><text xml:space="preserve" font-family="ArialMT,Arial" font-size="36.0" fill="#000000" transform="matrix(1.00, 0.00, -0.00, -1.00, 264.1, 580.0)">X</text><text xml:space="preserve" font-family="ArialMT,Arial" font-size="36.0" fill="#000000" transform="matrix(1.00, 0.00, -0.00, -1.00, 288.1, 580.0)">Y</text></g></g><g><clipPath id="clip0x7fbd934c8d60"><path d="M 570.5 485.5 L 786.5 485.5 L 786.5 701.5 L 570.5 701.5 Z M 570.5 485.5 "></path></clipPath><g clip-path="url(#clip0x7fbd934c8d60)"><path d="M 753.8 668.8 C 795.4 627.2 795.4 559.8 753.8 518.2 C 712.2 476.6 644.8 476.6 603.2 518.2 C 561.6 559.8 561.6 627.2 603.2 668.8 C 644.8 710.4 712.2 710.4 753.8 668.8 " fill="#FFADD5"></path><path d="M 181.8 31.2 C 223.4 72.8 223.4 140.2 181.8 181.8 C 140.2 223.4 72.8 223.4 31.2 181.8 C -10.4 140.2 -10.4 72.8 31.2 31.2 C 72.8 -10.4 140.2 -10.4 181.8 31.2 " fill="none" stroke="#000000" stroke-width="1.00" stroke-linejoin="round" transform="matrix(1.00, 0.00, 0.00, -1.00, 572.0, 700.0)"></path></g></g><g><clipPath id="clip0x7fbd934ca710"><path d="M 641.6 561.2 L 715.2 561.2 L 715.2 623.3 L 641.6 623.3 Z M 641.6 561.2 "></path></clipPath><g clip-path="url(#clip0x7fbd934ca710)"><text xml:space="preserve" font-family="ArialMT,Arial" font-size="36.0" fill="#000000" transform="matrix(1.00, 0.00, -0.00, -1.00, 656.6, 580.0)">X</text><text xml:space="preserve" font-family="ArialMT,Arial" font-size="36.0" fill="#000000" transform="matrix(1.00, 0.00, -0.00, -1.00, 680.6, 580.0)">X</text></g></g><g><clipPath id="clip0x7fbd934cbfe0"><path d="M 60.0 82.0 L 453.0 82.0 L 453.0 282.0 L 60.0 282.0 Z M 60.0 82.0 "></path></clipPath><g clip-path="url(#clip0x7fbd934cbfe0)"><path d="M 60.0 282.0 L 453.0 282.0 L 453.0 82.0 L 60.0 82.0 Z M 60.0 282.0 " fill="#FFFFFF"></path><image xlink:href="../../84BDDCD0-A9F2-4AE9-A4A4-D15604B85871/assets/1E05BFF0E7137B6B19CD32E558739753.png" width="800.00" height="407.00" transform="matrix(0.49, 0.00, -0.00, -0.49, 60.0, 282.0)"></image></g></g><text xml:space="preserve" font-family="Helvetica,Helvetica" font-size="16.0" fill="#000000" transform="matrix(1.00, 0.00, -0.00, -1.00, 119.6, 57.7)">M</text><text xml:space="preserve" font-family="Helvetica,Helvetica" font-size="16.0" fill="#000000" transform="matrix(1.00, 0.00, -0.00, -1.00, 132.9, 57.7)">a</text><text xml:space="preserve" font-family="Helvetica,Helvetica" font-size="16.0" fill="#000000" transform="matrix(1.00, 0.00, -0.00, -1.00, 141.8, 57.7)">t</text><text xml:space="preserve" font-family="Helvetica,Helvetica" font-size="16.0" fill="#000000" transform="matrix(1.00, 0.00, -0.00, -1.00, 146.2, 57.7)">a</text><text xml:space="preserve" font-family="Helvetica,Helvetica" font-size="16.0" fill="#000000" transform="matrix(1.00, 0.00, -0.00, -1.00, 155.1, 57.7)">m</text><text xml:space="preserve" font-family="Helvetica,Helvetica" font-size="16.0" fill="#000000" transform="matrix(1.00, 0.00, -0.00, -1.00, 168.5, 57.7)">a</text><text xml:space="preserve" font-family="Helvetica,Helvetica" font-size="16.0" fill="#000000" transform="matrix(1.00, 0.00, -0.00, -1.00, 177.4, 57.7)">t</text><text xml:space="preserve" font-family="Helvetica,Helvetica" font-size="16.0" fill="#000000" transform="matrix(1.00, 0.00, -0.00, -1.00, 181.8, 57.7)">a</text><text xml:space="preserve" font-family="Helvetica,Helvetica" font-size="16.0" fill="#000000" transform="matrix(1.00, 0.00, -0.00, -1.00, 190.7, 57.7)"> </text><text xml:space="preserve" font-family="Helvetica,Helvetica" font-size="16.0" fill="#000000" transform="matrix(1.00, 0.00, -0.00, -1.00, 195.1, 57.7)">t</text><text xml:space="preserve" font-family="Helvetica,Helvetica" font-size="16.0" fill="#000000" transform="matrix(1.00, 0.00, -0.00, -1.00, 199.6, 57.7)">u</text><text xml:space="preserve" font-family="Helvetica,Helvetica" font-size="16.0" fill="#000000" transform="matrix(1.00, 0.00, -0.00, -1.00, 208.5, 57.7)">r</text><text xml:space="preserve" font-family="Helvetica,Helvetica" font-size="16.0" fill="#000000" transform="matrix(1.00, 0.00, -0.00, -1.00, 213.8, 57.7)">t</text><text xml:space="preserve" font-family="Helvetica,Helvetica" font-size="16.0" fill="#000000" transform="matrix(1.00, 0.00, -0.00, -1.00, 218.3, 57.7)">l</text><text xml:space="preserve" font-family="Helvetica,Helvetica" font-size="16.0" fill="#000000" transform="matrix(1.00, 0.00, -0.00, -1.00, 221.8, 57.7)">e</text><text xml:space="preserve" font-family="Helvetica,Helvetica" font-size="16.0" fill="#000000" transform="matrix(1.00, 0.00, -0.00, -1.00, 230.7, 57.7)"> </text><text xml:space="preserve" font-family="Helvetica,Helvetica" font-size="16.0" fill="#000000" transform="matrix(1.00, 0.00, -0.00, -1.00, 235.2, 57.7)">(</text><text xml:space="preserve" font-family="Helvetica-Oblique,Helvetica" font-style="italic" font-size="16.0" fill="#000000" transform="matrix(1.00, 0.00, -0.00, -1.00, 240.5, 57.7)">C</text><text xml:space="preserve" font-family="Helvetica-Oblique,Helvetica" font-style="italic" font-size="16.0" fill="#000000" transform="matrix(1.00, 0.00, -0.00, -1.00, 252.0, 57.7)">h</text><text xml:space="preserve" font-family="Helvetica-Oblique,Helvetica" font-style="italic" font-size="16.0" fill="#000000" transform="matrix(1.00, 0.00, -0.00, -1.00, 260.9, 57.7)">e</text><text xml:space="preserve" font-family="Helvetica-Oblique,Helvetica" font-style="italic" font-size="16.0" fill="#000000" transform="matrix(1.00, 0.00, -0.00, -1.00, 269.8, 57.7)">l</text><text xml:space="preserve" font-family="Helvetica-Oblique,Helvetica" font-style="italic" font-size="16.0" fill="#000000" transform="matrix(1.00, 0.00, -0.00, -1.00, 273.4, 57.7)">u</text><text xml:space="preserve" font-family="Helvetica-Oblique,Helvetica" font-style="italic" font-size="16.0" fill="#000000" transform="matrix(1.00, 0.00, -0.00, -1.00, 282.3, 57.7)">s</text><text xml:space="preserve" font-family="Helvetica-Oblique,Helvetica" font-style="italic" font-size="16.0" fill="#000000" transform="matrix(1.00, 0.00, -0.00, -1.00, 290.3, 57.7)"> </text><text xml:space="preserve" font-family="Helvetica-Oblique,Helvetica" font-style="italic" font-size="16.0" fill="#000000" transform="matrix(1.00, 0.00, -0.00, -1.00, 294.7, 57.7)">ﬁ</text><text xml:space="preserve" font-family="Helvetica-Oblique,Helvetica" font-style="italic" font-size="16.0" fill="#000000" transform="matrix(1.00, 0.00, -0.00, -1.00, 302.7, 57.7)">m</text><text xml:space="preserve" font-family="Helvetica-Oblique,Helvetica" font-style="italic" font-size="16.0" fill="#000000" transform="matrix(1.00, 0.00, -0.00, -1.00, 316.1, 57.7)">b</text><text xml:space="preserve" font-family="Helvetica-Oblique,Helvetica" font-style="italic" font-size="16.0" fill="#000000" transform="matrix(1.00, 0.00, -0.00, -1.00, 325.0, 57.7)">r</text><text xml:space="preserve" font-family="Helvetica-Oblique,Helvetica" font-style="italic" font-size="16.0" fill="#000000" transform="matrix(1.00, 0.00, -0.00, -1.00, 330.3, 57.7)">i</text><text xml:space="preserve" font-family="Helvetica-Oblique,Helvetica" font-style="italic" font-size="16.0" fill="#000000" transform="matrix(1.00, 0.00, -0.00, -1.00, 333.9, 57.7)">a</text><text xml:space="preserve" font-family="Helvetica-Oblique,Helvetica" font-style="italic" font-size="16.0" fill="#000000" transform="matrix(1.00, 0.00, -0.00, -1.00, 342.8, 57.7)">t</text><text xml:space="preserve" font-family="Helvetica-Oblique,Helvetica" font-style="italic" font-size="16.0" fill="#000000" transform="matrix(1.00, 0.00, -0.00, -1.00, 347.2, 57.7)">u</text><text xml:space="preserve" font-family="Helvetica-Oblique,Helvetica" font-style="italic" font-size="16.0" fill="#000000" transform="matrix(1.00, 0.00, -0.00, -1.00, 356.1, 57.7)">s</text><text xml:space="preserve" font-family="Helvetica,Helvetica" font-size="16.0" fill="#000000" transform="matrix(1.00, 0.00, -0.00, -1.00, 364.1, 57.7)">)</text><g><clipPath id="clip0x7fbd93569680"><path d="M 555.0 43.0 L 982.0 43.0 L 982.0 319.0 L 555.0 319.0 Z M 555.0 43.0 "></path></clipPath><g clip-path="url(#clip0x7fbd93569680)"><path d="M 555.0 319.0 L 982.0 319.0 L 982.0 43.0 L 555.0 43.0 Z M 555.0 319.0 " fill="#FFFFFF"></path><image xlink:href="../../84BDDCD0-A9F2-4AE9-A4A4-D15604B85871/assets/D8BB07285640A6EFD33ACE2292A7E03B.png" width="300.00" height="194.00" transform="matrix(1.42, 0.00, -0.00, -1.42, 555.0, 319.0)"></image></g></g><text xml:space="preserve" font-family="Times-Italic,Times" font-style="italic" font-size="18.0" fill="#000000" transform="matrix(1.00, 0.00, -0.00, -1.00, 682.6, 15.2)">D</text><text xml:space="preserve" font-family="Times-Italic,Times" font-style="italic" font-size="18.0" fill="#000000" transform="matrix(1.00, 0.00, -0.00, -1.00, 695.6, 15.2)">r</text><text xml:space="preserve" font-family="Times-Italic,Times" font-style="italic" font-size="18.0" fill="#000000" transform="matrix(1.00, 0.00, -0.00, -1.00, 702.6, 15.2)">a</text><text xml:space="preserve" font-family="Times-Italic,Times" font-style="italic" font-size="18.0" fill="#000000" transform="matrix(1.00, 0.00, -0.00, -1.00, 711.6, 15.2)">c</text><text xml:space="preserve" font-family="Times-Italic,Times" font-style="italic" font-size="18.0" fill="#000000" transform="matrix(1.00, 0.00, -0.00, -1.00, 719.5, 15.2)">a</text><text xml:space="preserve" font-family="Times-Italic,Times" font-style="italic" font-size="18.0" fill="#000000" transform="matrix(1.00, 0.00, -0.00, -1.00, 728.5, 15.2)">e</text><text xml:space="preserve" font-family="Times-Italic,Times" font-style="italic" font-size="18.0" fill="#000000" transform="matrix(1.00, 0.00, -0.00, -1.00, 736.5, 15.2)">n</text><text xml:space="preserve" font-family="Times-Italic,Times" font-style="italic" font-size="18.0" fill="#000000" transform="matrix(1.00, 0.00, -0.00, -1.00, 745.5, 15.2)">a</text><text xml:space="preserve" font-family="Times-Italic,Times" font-style="italic" font-size="18.0" fill="#000000" transform="matrix(1.00, 0.00, -0.00, -1.00, 754.5, 15.2)"> </text><text xml:space="preserve" font-family="Times-Italic,Times" font-style="italic" font-size="18.0" fill="#000000" transform="matrix(1.00, 0.00, -0.00, -1.00, 759.0, 15.2)">g</text><text xml:space="preserve" font-family="Times-Italic,Times" font-style="italic" font-size="18.0" fill="#000000" transform="matrix(1.00, 0.00, -0.00, -1.00, 768.0, 15.2)">u</text><text xml:space="preserve" font-family="Times-Italic,Times" font-style="italic" font-size="18.0" fill="#000000" transform="matrix(1.00, 0.00, -0.00, -1.00, 777.0, 15.2)">i</text><text xml:space="preserve" font-family="Times-Italic,Times" font-style="italic" font-size="18.0" fill="#000000" transform="matrix(1.00, 0.00, -0.00, -1.00, 782.0, 15.2)">a</text><text xml:space="preserve" font-family="Times-Italic,Times" font-style="italic" font-size="18.0" fill="#000000" transform="matrix(1.00, 0.00, -0.00, -1.00, 791.0, 15.2)">n</text><text xml:space="preserve" font-family="Times-Italic,Times" font-style="italic" font-size="18.0" fill="#000000" transform="matrix(1.00, 0.00, -0.00, -1.00, 800.0, 15.2)">e</text><text xml:space="preserve" font-family="Times-Italic,Times" font-style="italic" font-size="18.0" fill="#000000" transform="matrix(1.00, 0.00, -0.00, -1.00, 808.0, 15.2)">n</text><text xml:space="preserve" font-family="Times-Italic,Times" font-style="italic" font-size="18.0" fill="#000000" transform="matrix(1.00, 0.00, -0.00, -1.00, 817.0, 15.2)">s</text><text xml:space="preserve" font-family="Times-Italic,Times" font-style="italic" font-size="18.0" fill="#000000" transform="matrix(1.00, 0.00, -0.00, -1.00, 824.0, 15.2)">i</text><text xml:space="preserve" font-family="Times-Italic,Times" font-style="italic" font-size="18.0" fill="#000000" transform="matrix(1.00, 0.00, -0.00, -1.00, 829.0, 15.2)">s</text></g></svg>