<?xml version="1.0" encoding="UTF-8" standalone="no"?><svg xmlns="http://www.w3.org/2000/svg" xmlns:xlink="http://www.w3.org/1999/xlink" clip-rule="evenodd" stroke-miterlimit="4.00" viewBox="0 0 720 540"><desc>SVG generated by Keynote</desc><defs></defs><g transform="matrix(1.00, 0.00, -0.00, -1.00, 0.0, 540.0)"><path d="M 0.0 540.0 L 720.0 540.0 L 720.0 0.0 L 0.0 0.0 Z M 0.0 540.0 " fill="#FEFFFF"></path><g><clipPath id="clip-304"><path d="M 78.0 378.0 L 264.0 378.0 L 264.0 504.0 L 78.0 504.0 Z M 78.0 378.0 "></path></clipPath><g clip-path="url(#clip-304)"><path d="M 78.0 504.0 L 264.0 504.0 L 264.0 378.0 L 78.0 378.0 Z M 78.0 504.0 " fill="#FFFFFF"></path><image xlink:href="../../EB1F4E45-164F-4446-B199-7D0D4C64D2CC/assets/EEF1C64F92679F92E2285590D3F13D5A.png" width="142.00" height="96.00" transform="matrix(1.31, 0.00, -0.00, -1.31, 78.0, 504.0)"></image></g></g><g><clipPath id="clip-305"><path d="M 114.0 197.0 L 223.0 197.0 L 223.0 342.0 L 114.0 342.0 Z M 114.0 197.0 "></path></clipPath><g clip-path="url(#clip-305)"><path d="M 114.0 342.0 L 223.0 342.0 L 223.0 197.0 L 114.0 197.0 Z M 114.0 342.0 " fill="#FFFFFF"></path><image xlink:href="../../EB1F4E45-164F-4446-B199-7D0D4C64D2CC/assets/513E895E046B5C946F26FB35A4441FE2.png" width="230.00" height="307.00" transform="matrix(0.47, 0.00, -0.00, -0.47, 114.0, 342.0)"></image></g></g><g><clipPath id="clip-306"><path d="M 95.0 48.0 L 245.0 48.0 L 245.0 141.0 L 95.0 141.0 Z M 95.0 48.0 "></path></clipPath><g clip-path="url(#clip-306)"><path d="M 95.0 141.0 L 245.0 141.0 L 245.0 48.0 L 95.0 48.0 Z M 95.0 141.0 " fill="#FFFFFF"></path><image xlink:href="../../EB1F4E45-164F-4446-B199-7D0D4C64D2CC/assets/A60DCE977C0251AE4C0C689CF305FEA7.png" width="150.00" height="93.00" transform="matrix(1.00, 0.00, -0.00, -1.00, 95.0, 141.0)"></image></g></g><text xml:space="preserve" font-family="Arial-ItalicMT" font-style="italic" font-size="24.0" fill="#000000" transform="matrix(1.00, 0.00, -0.00, -1.00, 55.0, 514.0)">S</text><text xml:space="preserve" font-family="Arial-ItalicMT" font-style="italic" font-size="24.0" fill="#000000" transform="matrix(1.00, 0.00, -0.00, -1.00, 71.0, 514.0)">a</text><text xml:space="preserve" font-family="Arial-ItalicMT" font-style="italic" font-size="24.0" fill="#000000" transform="matrix(1.00, 0.00, -0.00, -1.00, 84.4, 514.0)">l</text><text xml:space="preserve" font-family="Arial-ItalicMT" font-style="italic" font-size="24.0" fill="#000000" transform="matrix(1.00, 0.00, -0.00, -1.00, 89.7, 514.0)">a</text><text xml:space="preserve" font-family="Arial-ItalicMT" font-style="italic" font-size="24.0" fill="#000000" transform="matrix(1.00, 0.00, -0.00, -1.00, 103.0, 514.0)">m</text><text xml:space="preserve" font-family="Arial-ItalicMT" font-style="italic" font-size="24.0" fill="#000000" transform="matrix(1.00, 0.00, -0.00, -1.00, 123.0, 514.0)">a</text><text xml:space="preserve" font-family="Arial-ItalicMT" font-style="italic" font-size="24.0" fill="#000000" transform="matrix(1.00, 0.00, -0.00, -1.00, 136.4, 514.0)">n</text><text xml:space="preserve" font-family="Arial-ItalicMT" font-style="italic" font-size="24.0" fill="#000000" transform="matrix(1.00, 0.00, -0.00, -1.00, 149.7, 514.0)">d</text><text xml:space="preserve" font-family="Arial-ItalicMT" font-style="italic" font-size="24.0" fill="#000000" transform="matrix(1.00, 0.00, -0.00, -1.00, 163.1, 514.0)">r</text><text xml:space="preserve" font-family="Arial-ItalicMT" font-style="italic" font-size="24.0" fill="#000000" transform="matrix(1.00, 0.00, -0.00, -1.00, 171.1, 514.0)">a</text><text xml:space="preserve" font-family="Arial-ItalicMT" font-style="italic" font-size="24.0" fill="#000000" transform="matrix(1.00, 0.00, -0.00, -1.00, 184.4, 514.0)"> </text><text xml:space="preserve" font-family="Arial-ItalicMT" font-style="italic" font-size="24.0" fill="#000000" transform="matrix(1.00, 0.00, -0.00, -1.00, 191.1, 514.0)">s</text><text xml:space="preserve" font-family="Arial-ItalicMT" font-style="italic" font-size="24.0" fill="#000000" transform="matrix(1.00, 0.00, -0.00, -1.00, 203.1, 514.0)">a</text><text xml:space="preserve" font-family="Arial-ItalicMT" font-style="italic" font-size="24.0" fill="#000000" transform="matrix(1.00, 0.00, -0.00, -1.00, 216.5, 514.0)">l</text><text xml:space="preserve" font-family="Arial-ItalicMT" font-style="italic" font-size="24.0" fill="#000000" transform="matrix(1.00, 0.00, -0.00, -1.00, 221.8, 514.0)">a</text><text xml:space="preserve" font-family="Arial-ItalicMT" font-style="italic" font-size="24.0" fill="#000000" transform="matrix(1.00, 0.00, -0.00, -1.00, 235.1, 514.0)">m</text><text xml:space="preserve" font-family="Arial-ItalicMT" font-style="italic" font-size="24.0" fill="#000000" transform="matrix(1.00, 0.00, -0.00, -1.00, 255.1, 514.0)">a</text><text xml:space="preserve" font-family="Arial-ItalicMT" font-style="italic" font-size="24.0" fill="#000000" transform="matrix(1.00, 0.00, -0.00, -1.00, 268.5, 514.0)">n</text><text xml:space="preserve" font-family="Arial-ItalicMT" font-style="italic" font-size="24.0" fill="#000000" transform="matrix(1.00, 0.00, -0.00, -1.00, 281.8, 514.0)">d</text><text xml:space="preserve" font-family="Arial-ItalicMT" font-style="italic" font-size="24.0" fill="#000000" transform="matrix(1.00, 0.00, -0.00, -1.00, 295.2, 514.0)">r</text><text xml:space="preserve" font-family="Arial-ItalicMT" font-style="italic" font-size="24.0" fill="#000000" transform="matrix(1.00, 0.00, -0.00, -1.00, 303.2, 514.0)">a</text><text xml:space="preserve" font-family="ArialMT" font-size="24.0" fill="#000000" transform="matrix(1.00, 0.00, -0.00, -1.00, 121.0, 178.0)">D</text><text xml:space="preserve" font-family="ArialMT" font-size="24.0" fill="#000000" transform="matrix(1.00, 0.00, -0.00, -1.00, 138.3, 178.0)">a</text><text xml:space="preserve" font-family="ArialMT" font-size="24.0" fill="#000000" transform="matrix(1.00, 0.00, -0.00, -1.00, 151.7, 178.0)">p</text><text xml:space="preserve" font-family="ArialMT" font-size="24.0" fill="#000000" transform="matrix(1.00, 0.00, -0.00, -1.00, 165.0, 178.0)">h</text><text xml:space="preserve" font-family="ArialMT" font-size="24.0" fill="#000000" transform="matrix(1.00, 0.00, -0.00, -1.00, 178.4, 178.0)">n</text><text xml:space="preserve" font-family="ArialMT" font-size="24.0" fill="#000000" transform="matrix(1.00, 0.00, -0.00, -1.00, 191.7, 178.0)">i</text><text xml:space="preserve" font-family="ArialMT" font-size="24.0" fill="#000000" transform="matrix(1.00, 0.00, -0.00, -1.00, 197.1, 178.0)">a</text><text xml:space="preserve" font-family="ArialMT" font-size="24.0" fill="#000000" transform="matrix(1.00, 0.00, -0.00, -1.00, 97.0, 28.0)">G</text><text xml:space="preserve" font-family="ArialMT" font-size="24.0" fill="#000000" transform="matrix(1.00, 0.00, -0.00, -1.00, 115.7, 28.0)">r</text><text xml:space="preserve" font-family="ArialMT" font-size="24.0" fill="#000000" transform="matrix(1.00, 0.00, -0.00, -1.00, 123.7, 28.0)">e</text><text xml:space="preserve" font-family="ArialMT" font-size="24.0" fill="#000000" transform="matrix(1.00, 0.00, -0.00, -1.00, 137.0, 28.0)">e</text><text xml:space="preserve" font-family="ArialMT" font-size="24.0" fill="#000000" transform="matrix(1.00, 0.00, -0.00, -1.00, 150.4, 28.0)">n</text><text xml:space="preserve" font-family="ArialMT" font-size="24.0" fill="#000000" transform="matrix(1.00, 0.00, -0.00, -1.00, 163.7, 28.0)"> </text><text xml:space="preserve" font-family="ArialMT" font-size="24.0" fill="#000000" transform="matrix(1.00, 0.00, -0.00, -1.00, 170.4, 28.0)">a</text><text xml:space="preserve" font-family="ArialMT" font-size="24.0" fill="#000000" transform="matrix(1.00, 0.00, -0.00, -1.00, 183.7, 28.0)">l</text><text xml:space="preserve" font-family="ArialMT" font-size="24.0" fill="#000000" transform="matrix(1.00, 0.00, -0.00, -1.00, 189.1, 28.0)">g</text><text xml:space="preserve" font-family="ArialMT" font-size="24.0" fill="#000000" transform="matrix(1.00, 0.00, -0.00, -1.00, 202.4, 28.0)">a</text><text xml:space="preserve" font-family="ArialMT" font-size="24.0" fill="#000000" transform="matrix(1.00, 0.00, -0.00, -1.00, 215.8, 28.0)">e</text><path d="M 0.1 36.0 L 0.0 9.5 L 0.0 8.0 " fill="none" stroke="#FF2600" stroke-width="3.00" stroke-linejoin="round" transform="matrix(1.00, 0.00, 0.00, -1.00, 162.0, 378.0)"></path><path d="M 157.3 368.5 L 162.0 378.0 L 166.8 368.6 Z M 157.3 368.5 " fill="#FF2600"></path><path d="M 0.0 24.0 L 0.1 9.5 L 0.1 8.0 " fill="none" stroke="#FF2600" stroke-width="3.00" stroke-linejoin="round" transform="matrix(1.00, 0.00, 0.00, -1.00, 162.0, 168.0)"></path><path d="M 157.3 158.6 L 162.1 168.0 L 166.8 158.5 Z M 157.3 158.6 " fill="#FF2600"></path><path d="M 0.0 0.0 L 0.1 540.0 " fill="none" stroke="#000000" stroke-width="1.00" stroke-linejoin="round" transform="matrix(1.00, 0.00, 0.00, -1.00, 336.0, 540.0)"></path><g><clipPath id="clip-307"><path d="M 462.0 82.0 L 504.0 82.0 L 504.0 108.0 L 462.0 108.0 Z M 462.0 82.0 "></path></clipPath><g clip-path="url(#clip-307)"><path d="M 462.0 108.0 L 504.0 108.0 L 504.0 82.0 L 462.0 82.0 Z M 462.0 108.0 " fill="#FFFFFF"></path><image xlink:href="../../EB1F4E45-164F-4446-B199-7D0D4C64D2CC/assets/A60DCE977C0251AE4C0C689CF305FEA7.png" width="150.00" height="93.00" transform="matrix(0.28, 0.00, -0.00, -0.28, 462.0, 108.0)"></image></g></g><g><clipPath id="clip-308"><path d="M 474.0 430.0 L 516.0 430.0 L 516.0 456.0 L 474.0 456.0 Z M 474.0 430.0 "></path></clipPath><g clip-path="url(#clip-308)"><path d="M 474.0 456.0 L 516.0 456.0 L 516.0 430.0 L 474.0 430.0 Z M 474.0 456.0 " fill="#FFFFFF"></path><image xlink:href="../../EB1F4E45-164F-4446-B199-7D0D4C64D2CC/assets/A60DCE977C0251AE4C0C689CF305FEA7.png" width="150.00" height="93.00" transform="matrix(0.28, 0.00, -0.00, -0.28, 474.0, 456.0)"></image></g></g><g><clipPath id="clip-309"><path d="M 384.0 214.0 L 426.0 214.0 L 426.0 240.0 L 384.0 240.0 Z M 384.0 214.0 "></path></clipPath><g clip-path="url(#clip-309)"><path d="M 384.0 240.0 L 426.0 240.0 L 426.0 214.0 L 384.0 214.0 Z M 384.0 240.0 " fill="#FFFFFF"></path><image xlink:href="../../EB1F4E45-164F-4446-B199-7D0D4C64D2CC/assets/A60DCE977C0251AE4C0C689CF305FEA7.png" width="150.00" height="93.00" transform="matrix(0.28, 0.00, -0.00, -0.28, 384.0, 240.0)"></image></g></g><g><clipPath id="clip-310"><path d="M 426.0 484.0 L 468.0 484.0 L 468.0 510.0 L 426.0 510.0 Z M 426.0 484.0 "></path></clipPath><g clip-path="url(#clip-310)"><path d="M 426.0 510.0 L 468.0 510.0 L 468.0 484.0 L 426.0 484.0 Z M 426.0 510.0 " fill="#FFFFFF"></path><image xlink:href="../../EB1F4E45-164F-4446-B199-7D0D4C64D2CC/assets/A60DCE977C0251AE4C0C689CF305FEA7.png" width="150.00" height="93.00" transform="matrix(0.28, 0.00, -0.00, -0.28, 426.0, 510.0)"></image></g></g><g><clipPath id="clip-311"><path d="M 600.0 298.0 L 642.0 298.0 L 642.0 324.0 L 600.0 324.0 Z M 600.0 298.0 "></path></clipPath><g clip-path="url(#clip-311)"><path d="M 600.0 324.0 L 642.0 324.0 L 642.0 298.0 L 600.0 298.0 Z M 600.0 324.0 " fill="#FFFFFF"></path><image xlink:href="../../EB1F4E45-164F-4446-B199-7D0D4C64D2CC/assets/A60DCE977C0251AE4C0C689CF305FEA7.png" width="150.00" height="93.00" transform="matrix(0.28, 0.00, -0.00, -0.28, 600.0, 324.0)"></image></g></g><g><clipPath id="clip-312"><path d="M 576.0 28.0 L 618.0 28.0 L 618.0 54.0 L 576.0 54.0 Z M 576.0 28.0 "></path></clipPath><g clip-path="url(#clip-312)"><path d="M 576.0 54.0 L 618.0 54.0 L 618.0 28.0 L 576.0 28.0 Z M 576.0 54.0 " fill="#FFFFFF"></path><image xlink:href="../../EB1F4E45-164F-4446-B199-7D0D4C64D2CC/assets/A60DCE977C0251AE4C0C689CF305FEA7.png" width="150.00" height="93.00" transform="matrix(0.28, 0.00, -0.00, -0.28, 576.0, 54.0)"></image></g></g><g><clipPath id="clip-313"><path d="M 588.0 100.0 L 630.0 100.0 L 630.0 126.0 L 588.0 126.0 Z M 588.0 100.0 "></path></clipPath><g clip-path="url(#clip-313)"><path d="M 588.0 126.0 L 630.0 126.0 L 630.0 100.0 L 588.0 100.0 Z M 588.0 126.0 " fill="#FFFFFF"></path><image xlink:href="../../EB1F4E45-164F-4446-B199-7D0D4C64D2CC/assets/A60DCE977C0251AE4C0C689CF305FEA7.png" width="150.00" height="93.00" transform="matrix(0.28, 0.00, -0.00, -0.28, 588.0, 126.0)"></image></g></g><g><clipPath id="clip-314"><path d="M 426.0 288.0 L 458.0 288.0 L 458.0 330.0 L 426.0 330.0 Z M 426.0 288.0 "></path></clipPath><g clip-path="url(#clip-314)"><path d="M 426.0 330.0 L 458.0 330.0 L 458.0 288.0 L 426.0 288.0 Z M 426.0 330.0 " fill="#FFFFFF"></path><image xlink:href="../../EB1F4E45-164F-4446-B199-7D0D4C64D2CC/assets/513E895E046B5C946F26FB35A4441FE2.png" width="230.00" height="307.00" transform="matrix(0.14, 0.00, -0.00, -0.14, 426.0, 330.0)"></image></g></g><g><clipPath id="clip-315"><path d="M 378.0 408.0 L 410.0 408.0 L 410.0 450.0 L 378.0 450.0 Z M 378.0 408.0 "></path></clipPath><g clip-path="url(#clip-315)"><path d="M 378.0 450.0 L 410.0 450.0 L 410.0 408.0 L 378.0 408.0 Z M 378.0 450.0 " fill="#FFFFFF"></path><image xlink:href="../../EB1F4E45-164F-4446-B199-7D0D4C64D2CC/assets/513E895E046B5C946F26FB35A4441FE2.png" width="230.00" height="307.00" transform="matrix(0.14, 0.00, -0.00, -0.14, 378.0, 450.0)"></image></g></g><g><clipPath id="clip-316"><path d="M 510.0 186.0 L 542.0 186.0 L 542.0 228.0 L 510.0 228.0 Z M 510.0 186.0 "></path></clipPath><g clip-path="url(#clip-316)"><path d="M 510.0 228.0 L 542.0 228.0 L 542.0 186.0 L 510.0 186.0 Z M 510.0 228.0 " fill="#FFFFFF"></path><image xlink:href="../../EB1F4E45-164F-4446-B199-7D0D4C64D2CC/assets/513E895E046B5C946F26FB35A4441FE2.png" width="230.00" height="307.00" transform="matrix(0.14, 0.00, -0.00, -0.14, 510.0, 228.0)"></image></g></g><g><clipPath id="clip-317"><path d="M 372.0 30.0 L 404.0 30.0 L 404.0 72.0 L 372.0 72.0 Z M 372.0 30.0 "></path></clipPath><g clip-path="url(#clip-317)"><path d="M 372.0 72.0 L 404.0 72.0 L 404.0 30.0 L 372.0 30.0 Z M 372.0 72.0 " fill="#FFFFFF"></path><image xlink:href="../../EB1F4E45-164F-4446-B199-7D0D4C64D2CC/assets/513E895E046B5C946F26FB35A4441FE2.png" width="230.00" height="307.00" transform="matrix(0.14, 0.00, -0.00, -0.14, 372.0, 72.0)"></image></g></g><g><clipPath id="clip-318"><path d="M 588.0 180.0 L 620.0 180.0 L 620.0 222.0 L 588.0 222.0 Z M 588.0 180.0 "></path></clipPath><g clip-path="url(#clip-318)"><path d="M 588.0 222.0 L 620.0 222.0 L 620.0 180.0 L 588.0 180.0 Z M 588.0 222.0 " fill="#FFFFFF"></path><image xlink:href="../../EB1F4E45-164F-4446-B199-7D0D4C64D2CC/assets/513E895E046B5C946F26FB35A4441FE2.png" width="230.00" height="307.00" transform="matrix(0.14, 0.00, -0.00, -0.14, 588.0, 222.0)"></image></g></g><g><clipPath id="clip-319"><path d="M 612.0 432.0 L 644.0 432.0 L 644.0 474.0 L 612.0 474.0 Z M 612.0 432.0 "></path></clipPath><g clip-path="url(#clip-319)"><path d="M 612.0 474.0 L 644.0 474.0 L 644.0 432.0 L 612.0 432.0 Z M 612.0 474.0 " fill="#FFFFFF"></path><image xlink:href="../../EB1F4E45-164F-4446-B199-7D0D4C64D2CC/assets/513E895E046B5C946F26FB35A4441FE2.png" width="230.00" height="307.00" transform="matrix(0.14, 0.00, -0.00, -0.14, 612.0, 474.0)"></image></g></g><g><clipPath id="clip-320"><path d="M 486.0 327.0 L 570.0 327.0 L 570.0 384.0 L 486.0 384.0 Z M 486.0 327.0 "></path></clipPath><g clip-path="url(#clip-320)"><path d="M 486.0 384.0 L 570.0 384.0 L 570.0 327.0 L 486.0 327.0 Z M 486.0 384.0 " fill="#FFFFFF"></path><image xlink:href="../../EB1F4E45-164F-4446-B199-7D0D4C64D2CC/assets/EEF1C64F92679F92E2285590D3F13D5A.png" width="142.00" height="96.00" transform="matrix(0.59, 0.00, -0.00, -0.59, 486.0, 384.0)"></image></g></g></g></svg>