<?xml version="1.0" encoding="UTF-8" standalone="no"?><svg xmlns="http://www.w3.org/2000/svg" xmlns:xlink="http://www.w3.org/1999/xlink" clip-rule="evenodd" stroke-miterlimit="10" viewBox="0 0 720 540"><desc>SVG generated by Keynote</desc><defs></defs><g transform="matrix(1.00, 0.00, -0.00, -1.00, 0.0, 540.0)"><path d="M 0.0 540.0 L 720.0 540.0 L 720.0 0.0 L 0.0 0.0 Z M 0.0 540.0 " fill="#FEFFFF"></path><text xml:space="preserve" font-family="GillSans,Gill Sans" font-size="28.0" fill="#000000" transform="matrix(1.00, 0.00, -0.00, -1.00, 287.1, 489.5)">L</text><text xml:space="preserve" font-family="GillSans,Gill Sans" font-size="28.0" fill="#000000" transform="matrix(1.00, 0.00, -0.00, -1.00, 300.9, 489.5)">o</text><text xml:space="preserve" font-family="GillSans,Gill Sans" font-size="28.0" fill="#000000" transform="matrix(1.00, 0.00, -0.00, -1.00, 316.3, 489.5)">s</text><text xml:space="preserve" font-family="GillSans,Gill Sans" font-size="28.0" fill="#000000" transform="matrix(1.00, 0.00, -0.00, -1.00, 327.1, 489.5)">i</text><text xml:space="preserve" font-family="GillSans,Gill Sans" font-size="28.0" fill="#000000" transform="matrix(1.00, 0.00, -0.00, -1.00, 333.2, 489.5)">n</text><text xml:space="preserve" font-family="GillSans,Gill Sans" font-size="28.0" fill="#000000" transform="matrix(1.00, 0.00, -0.00, -1.00, 347.2, 489.5)">g</text><text xml:space="preserve" font-family="GillSans,Gill Sans" font-size="28.0" fill="#000000" transform="matrix(1.00, 0.00, -0.00, -1.00, 359.2, 489.5)"> </text><text xml:space="preserve" font-family="GillSans,Gill Sans" font-size="28.0" fill="#000000" transform="matrix(1.00, 0.00, -0.00, -1.00, 366.9, 489.5)">w</text><text xml:space="preserve" font-family="GillSans,Gill Sans" font-size="28.0" fill="#000000" transform="matrix(1.00, 0.00, -0.00, -1.00, 387.1, 489.5)">a</text><text xml:space="preserve" font-family="GillSans,Gill Sans" font-size="28.0" fill="#000000" transform="matrix(1.00, 0.00, -0.00, -1.00, 399.0, 489.5)">t</text><text xml:space="preserve" font-family="GillSans,Gill Sans" font-size="28.0" fill="#000000" transform="matrix(1.00, 0.00, -0.00, -1.00, 408.4, 489.5)">e</text><text xml:space="preserve" font-family="GillSans,Gill Sans" font-size="28.0" fill="#000000" transform="matrix(1.00, 0.00, -0.00, -1.00, 421.8, 489.5)">r</text><image xlink:href="../../24CF4C31-A0D6-4611-8E26-A2943A47E9C2/assets/218178B17965D483F8ECF37E571F9F0E.png" width="187.00" height="187.00" transform="matrix(1.00, 0.00, -0.00, -1.00, 35.0, 361.7)" opacity="0.50"></image><g><clipPath id="clip0x6080018a1c80"><path d="M 38.0 206.5 L 38.0 333.5 C 38.0 348.5 50.2 361.0 65.2 361.0 L 192.3 361.0 C 207.3 361.0 219.0 348.5 219.0 333.5 L 219.0 206.5 C 219.0 191.5 207.3 179.0 192.3 179.0 L 65.2 179.0 C 50.2 179.0 38.0 191.5 38.0 206.5 Z M 38.0 206.5 "></path></clipPath><g clip-path="url(#clip0x6080018a1c80)"><image xlink:href="../../7C4211EB-EAFA-4CA5-B9A8-325955ACE94F/assets/2B50EB9F81B90550E0A203E92362E74E.png" width="600.00" height="600.00" transform="matrix(0.50, 0.00, -0.00, -0.50, 38.0, 361.0)"></image></g></g><image xlink:href="../../7C4211EB-EAFA-4CA5-B9A8-325955ACE94F/assets/E419B71F9DA6DCB4ABD175C8C35DC16D.png" width="129.00" height="29.00" transform="matrix(1.00, 0.00, -0.00, -1.00, 64.0, 280.0)"></image><g><clipPath id="clip0x6000016b8960"><path d="M 31.5 179.3 L 225.9 179.3 L 225.9 360.7 L 31.5 360.7 Z M 31.5 179.3 "></path></clipPath><g clip-path="url(#clip0x6000016b8960)"><text xml:space="preserve" font-family="GillSans,Gill Sans" font-size="26.0" fill="#FEFFFF" transform="matrix(1.00, 0.00, -0.00, -1.00, 66.4, 261.1)">e</text><text xml:space="preserve" font-family="GillSans,Gill Sans" font-size="26.0" fill="#FEFFFF" transform="matrix(1.00, 0.00, -0.00, -1.00, 78.4, 261.1)">v</text><text xml:space="preserve" font-family="GillSans,Gill Sans" font-size="26.0" fill="#FEFFFF" transform="matrix(1.00, 0.00, -0.00, -1.00, 89.8, 261.1)">a</text><text xml:space="preserve" font-family="GillSans,Gill Sans" font-size="26.0" fill="#FEFFFF" transform="matrix(1.00, 0.00, -0.00, -1.00, 100.7, 261.1)">p</text><text xml:space="preserve" font-family="GillSans,Gill Sans" font-size="26.0" fill="#FEFFFF" transform="matrix(1.00, 0.00, -0.00, -1.00, 113.7, 261.1)">o</text><text xml:space="preserve" font-family="GillSans,Gill Sans" font-size="26.0" fill="#FEFFFF" transform="matrix(1.00, 0.00, -0.00, -1.00, 128.0, 261.1)">r</text><text xml:space="preserve" font-family="GillSans,Gill Sans" font-size="26.0" fill="#FEFFFF" transform="matrix(1.00, 0.00, -0.00, -1.00, 138.3, 261.1)">a</text><text xml:space="preserve" font-family="GillSans,Gill Sans" font-size="26.0" fill="#FEFFFF" transform="matrix(1.00, 0.00, -0.00, -1.00, 149.4, 261.1)">t</text><text xml:space="preserve" font-family="GillSans,Gill Sans" font-size="26.0" fill="#FEFFFF" transform="matrix(1.00, 0.00, -0.00, -1.00, 158.0, 261.1)">i</text><text xml:space="preserve" font-family="GillSans,Gill Sans" font-size="26.0" fill="#FEFFFF" transform="matrix(1.00, 0.00, -0.00, -1.00, 163.7, 261.1)">o</text><text xml:space="preserve" font-family="GillSans,Gill Sans" font-size="26.0" fill="#FEFFFF" transform="matrix(1.00, 0.00, -0.00, -1.00, 178.1, 261.1)">n</text></g></g><image xlink:href="../../24CF4C31-A0D6-4611-8E26-A2943A47E9C2/assets/DA5689D4FE9BEAA31B4885A973A0B1DF.png" width="187.00" height="187.00" transform="matrix(1.00, 0.00, -0.00, -1.00, 266.3, 361.7)" opacity="0.50"></image><path d="M 269.3 206.5 L 269.0 333.5 C 269.0 348.5 281.5 361.0 296.5 361.0 L 423.5 361.0 C 438.5 361.0 451.0 348.5 451.0 333.5 L 451.0 206.5 C 451.0 191.5 438.5 179.0 423.5 179.0 L 296.5 179.0 C 281.5 179.0 269.3 191.5 269.3 206.5 Z M 269.3 206.5 " fill="#000000"></path><image xlink:href="../../7C4211EB-EAFA-4CA5-B9A8-325955ACE94F/assets/03C5118C6F9B2ABDD55AA96B47FA65FE.png" width="103.00" height="25.00" transform="matrix(1.00, 0.00, -0.00, -1.00, 309.0, 296.0)"></image><g><clipPath id="clip0x6000016b8240"><path d="M 262.8 179.3 L 457.2 179.3 L 457.2 360.7 L 262.8 360.7 Z M 262.8 179.3 "></path></clipPath><g clip-path="url(#clip0x6000016b8240)"><text xml:space="preserve" font-family="GillSans,Gill Sans" font-size="26.0" fill="#FEFFFF" transform="matrix(1.00, 0.00, -0.00, -1.00, 310.5, 276.0)">u</text><text xml:space="preserve" font-family="GillSans,Gill Sans" font-size="26.0" fill="#FEFFFF" transform="matrix(1.00, 0.00, -0.00, -1.00, 323.5, 276.0)">r</text><text xml:space="preserve" font-family="GillSans,Gill Sans" font-size="26.0" fill="#FEFFFF" transform="matrix(1.00, 0.00, -0.00, -1.00, 333.8, 276.0)">i</text><text xml:space="preserve" font-family="GillSans,Gill Sans" font-size="26.0" fill="#FEFFFF" transform="matrix(1.00, 0.00, -0.00, -1.00, 339.5, 276.0)">n</text><text xml:space="preserve" font-family="GillSans,Gill Sans" font-size="26.0" fill="#FEFFFF" transform="matrix(1.00, 0.00, -0.00, -1.00, 352.5, 276.0)">e</text><text xml:space="preserve" font-family="GillSans,Gill Sans" font-size="26.0" fill="#FEFFFF" transform="matrix(1.00, 0.00, -0.00, -1.00, 364.9, 276.0)"> </text><text xml:space="preserve" font-family="GillSans,Gill Sans" font-size="26.0" fill="#FEFFFF" transform="matrix(1.00, 0.00, -0.00, -1.00, 372.2, 276.0)">a</text><text xml:space="preserve" font-family="GillSans,Gill Sans" font-size="26.0" fill="#FEFFFF" transform="matrix(1.00, 0.00, -0.00, -1.00, 383.3, 276.0)">n</text><text xml:space="preserve" font-family="GillSans,Gill Sans" font-size="26.0" fill="#FEFFFF" transform="matrix(1.00, 0.00, -0.00, -1.00, 396.3, 276.0)">d</text><text xml:space="preserve" font-family="GillSans,Gill Sans" font-size="26.0" fill="#FEFFFF" transform="matrix(1.00, 0.00, -0.00, -1.00, 409.5, 276.0)"> </text></g></g><image xlink:href="../../7C4211EB-EAFA-4CA5-B9A8-325955ACE94F/assets/EAA1035574938F970EEA34230BF528AC.png" width="59.00" height="25.00" transform="matrix(1.00, 0.00, -0.00, -1.00, 330.0, 266.0)"></image><g><clipPath id="clip0x6080018a2a60"><path d="M 262.8 179.3 L 457.2 179.3 L 457.2 360.7 L 262.8 360.7 Z M 262.8 179.3 "></path></clipPath><g clip-path="url(#clip0x6080018a2a60)"><text xml:space="preserve" font-family="GillSans,Gill Sans" font-size="26.0" fill="#FEFFFF" transform="matrix(1.00, 0.00, -0.00, -1.00, 333.7, 246.0)">f</text><text xml:space="preserve" font-family="GillSans,Gill Sans" font-size="26.0" fill="#FEFFFF" transform="matrix(1.00, 0.00, -0.00, -1.00, 340.0, 246.0)">e</text><text xml:space="preserve" font-family="GillSans,Gill Sans" font-size="26.0" fill="#FEFFFF" transform="matrix(1.00, 0.00, -0.00, -1.00, 352.4, 246.0)">c</text><text xml:space="preserve" font-family="GillSans,Gill Sans" font-size="26.0" fill="#FEFFFF" transform="matrix(1.00, 0.00, -0.00, -1.00, 363.8, 246.0)">e</text><text xml:space="preserve" font-family="GillSans,Gill Sans" font-size="26.0" fill="#FEFFFF" transform="matrix(1.00, 0.00, -0.00, -1.00, 376.3, 246.0)">s</text></g></g><image xlink:href="../../685AA76A-8906-4E85-BF67-FD39349C060F/assets/1673A288454D59846C7805A232C4E0C5.png" width="192.00" height="192.00" transform="matrix(1.00, 0.00, -0.00, -1.00, 495.0, 364.2)" opacity="0.50"></image><path d="M 500.5 206.0 L 500.5 333.5 C 500.5 348.5 512.7 360.5 527.7 360.5 L 654.8 360.5 C 669.8 360.5 682.5 348.5 682.5 333.5 L 682.5 206.5 C 682.5 191.5 669.8 179.5 654.8 179.5 L 527.7 179.5 C 512.7 179.5 500.5 191.0 500.5 206.0 Z M 500.5 206.5 " fill="#DCBD22"></path><path d="M -0.0 154.7 L -0.0 27.2 C -0.0 12.2 12.2 0.2 27.2 0.2 L 154.3 0.2 C 169.3 0.2 182.0 12.2 182.0 27.2 L 182.0 154.3 C 182.0 169.3 169.3 181.2 154.3 181.2 L 27.2 181.2 C 12.2 181.2 -0.0 169.8 -0.0 154.7 Z M 0.0 154.3 " fill="none" stroke="#000000" stroke-width="5.00" transform="matrix(1.00, 0.00, 0.00, -1.00, 500.5, 360.7)"></path><image xlink:href="../../4B03C30D-EBAB-45BB-B880-62D3FE398762/assets/57801A28216C19B46FF9067491BA5587.png" width="41.00" height="25.00" transform="matrix(1.00, 0.00, -0.00, -1.00, 571.0, 297.0)"></image><g><clipPath id="clip0x6080018a2f40"><path d="M 496.6 179.3 L 686.0 179.3 L 686.0 360.7 L 496.6 360.7 Z M 496.6 179.3 "></path></clipPath><g clip-path="url(#clip0x6080018a2f40)"><text xml:space="preserve" font-family="GillSans,Gill Sans" font-size="26.0" fill="#FEFFFF" transform="matrix(1.00, 0.00, -0.00, -1.00, 573.5, 276.6)">s</text><text xml:space="preserve" font-family="GillSans,Gill Sans" font-size="26.0" fill="#FEFFFF" transform="matrix(1.00, 0.00, -0.00, -1.00, 583.5, 276.6)">a</text><text xml:space="preserve" font-family="GillSans,Gill Sans" font-size="26.0" fill="#FEFFFF" transform="matrix(1.00, 0.00, -0.00, -1.00, 594.6, 276.6)">l</text><text xml:space="preserve" font-family="GillSans,Gill Sans" font-size="26.0" fill="#FEFFFF" transform="matrix(1.00, 0.00, -0.00, -1.00, 600.3, 276.6)">t</text><text xml:space="preserve" font-family="GillSans,Gill Sans" font-size="26.0" fill="#FEFFFF" transform="matrix(1.00, 0.00, -0.00, -1.00, 609.0, 276.6)"> </text></g></g><image xlink:href="../../4B03C30D-EBAB-45BB-B880-62D3FE398762/assets/AB03BE4C847E779AE655DF9042ADBE4D.png" width="70.00" height="31.00" transform="matrix(1.00, 0.00, -0.00, -1.00, 556.0, 267.0)"></image><g><clipPath id="clip0x6000016b94a0"><path d="M 496.6 179.3 L 686.0 179.3 L 686.0 360.7 L 496.6 360.7 Z M 496.6 179.3 "></path></clipPath><g clip-path="url(#clip0x6000016b94a0)"><text xml:space="preserve" font-family="GillSans,Gill Sans" font-size="26.0" fill="#FEFFFF" transform="matrix(1.00, 0.00, -0.00, -1.00, 559.2, 246.6)">g</text><text xml:space="preserve" font-family="GillSans,Gill Sans" font-size="26.0" fill="#FEFFFF" transform="matrix(1.00, 0.00, -0.00, -1.00, 570.3, 246.6)">l</text><text xml:space="preserve" font-family="GillSans,Gill Sans" font-size="26.0" fill="#FEFFFF" transform="matrix(1.00, 0.00, -0.00, -1.00, 576.0, 246.6)">a</text><text xml:space="preserve" font-family="GillSans,Gill Sans" font-size="26.0" fill="#FEFFFF" transform="matrix(1.00, 0.00, -0.00, -1.00, 587.1, 246.6)">n</text><text xml:space="preserve" font-family="GillSans,Gill Sans" font-size="26.0" fill="#FEFFFF" transform="matrix(1.00, 0.00, -0.00, -1.00, 600.1, 246.6)">d</text><text xml:space="preserve" font-family="GillSans,Gill Sans" font-size="26.0" fill="#FEFFFF" transform="matrix(1.00, 0.00, -0.00, -1.00, 613.3, 246.6)">s</text></g></g></g></svg>