<?xml version="1.0" encoding="UTF-8" standalone="no"?><svg xmlns="http://www.w3.org/2000/svg" xmlns:xlink="http://www.w3.org/1999/xlink" clip-rule="evenodd" stroke-miterlimit="10" viewBox="0 0 1024 768"><desc>SVG generated by Keynote</desc><defs></defs><g transform="matrix(1.00, 0.00, -0.00, -1.00, 0.0, 768.0)"><path d="M 0.0 768.0 L 1024.0 768.0 L 1024.0 0.0 L 0.0 0.0 Z M 0.0 768.0 " fill="#FEFFFF"></path><text xml:space="preserve" font-family="ArialMT,Arial" font-size="62.0" fill="#000000" transform="matrix(1.00, 0.00, -0.00, -1.00, 189.8, 614.5)">B</text><text xml:space="preserve" font-family="ArialMT,Arial" font-size="62.0" fill="#000000" transform="matrix(1.00, 0.00, -0.00, -1.00, 231.1, 614.5)">l</text><text xml:space="preserve" font-family="ArialMT,Arial" font-size="62.0" fill="#000000" transform="matrix(1.00, 0.00, -0.00, -1.00, 244.9, 614.5)">o</text><text xml:space="preserve" font-family="ArialMT,Arial" font-size="62.0" fill="#000000" transform="matrix(1.00, 0.00, -0.00, -1.00, 279.4, 614.5)">o</text><text xml:space="preserve" font-family="ArialMT,Arial" font-size="62.0" fill="#000000" transform="matrix(1.00, 0.00, -0.00, -1.00, 313.9, 614.5)">d</text><text xml:space="preserve" font-family="ArialMT,Arial" font-size="62.0" fill="#000000" transform="matrix(1.00, 0.00, -0.00, -1.00, 348.4, 614.5)"> </text><text xml:space="preserve" font-family="ArialMT,Arial" font-size="62.0" fill="#000000" transform="matrix(1.00, 0.00, -0.00, -1.00, 365.6, 614.5)">F</text><text xml:space="preserve" font-family="ArialMT,Arial" font-size="62.0" fill="#000000" transform="matrix(1.00, 0.00, -0.00, -1.00, 403.5, 614.5)">l</text><text xml:space="preserve" font-family="ArialMT,Arial" font-size="62.0" fill="#000000" transform="matrix(1.00, 0.00, -0.00, -1.00, 417.3, 614.5)">o</text><text xml:space="preserve" font-family="ArialMT,Arial" font-size="62.0" fill="#000000" transform="matrix(1.00, 0.00, -0.00, -1.00, 451.8, 614.5)">w</text><text xml:space="preserve" font-family="ArialMT,Arial" font-size="62.0" fill="#000000" transform="matrix(1.00, 0.00, -0.00, -1.00, 496.5, 614.5)"> </text><text xml:space="preserve" font-family="ArialMT,Arial" font-size="62.0" fill="#000000" transform="matrix(1.00, 0.00, -0.00, -1.00, 513.8, 614.5)">i</text><text xml:space="preserve" font-family="ArialMT,Arial" font-size="62.0" fill="#000000" transform="matrix(1.00, 0.00, -0.00, -1.00, 527.5, 614.5)">n</text><text xml:space="preserve" font-family="ArialMT,Arial" font-size="62.0" fill="#000000" transform="matrix(1.00, 0.00, -0.00, -1.00, 562.0, 614.5)"> </text><text xml:space="preserve" font-family="ArialMT,Arial" font-size="62.0" fill="#000000" transform="matrix(1.00, 0.00, -0.00, -1.00, 579.3, 614.5)">t</text><text xml:space="preserve" font-family="ArialMT,Arial" font-size="62.0" fill="#000000" transform="matrix(1.00, 0.00, -0.00, -1.00, 596.5, 614.5)">h</text><text xml:space="preserve" font-family="ArialMT,Arial" font-size="62.0" fill="#000000" transform="matrix(1.00, 0.00, -0.00, -1.00, 631.0, 614.5)">e</text><text xml:space="preserve" font-family="ArialMT,Arial" font-size="62.0" fill="#000000" transform="matrix(1.00, 0.00, -0.00, -1.00, 665.5, 614.5)"> </text><text xml:space="preserve" font-family="ArialMT,Arial" font-size="62.0" fill="#000000" transform="matrix(1.00, 0.00, -0.00, -1.00, 682.7, 614.5)">H</text><text xml:space="preserve" font-family="ArialMT,Arial" font-size="62.0" fill="#000000" transform="matrix(1.00, 0.00, -0.00, -1.00, 727.5, 614.5)">e</text><text xml:space="preserve" font-family="ArialMT,Arial" font-size="62.0" fill="#000000" transform="matrix(1.00, 0.00, -0.00, -1.00, 761.9, 614.5)">a</text><text xml:space="preserve" font-family="ArialMT,Arial" font-size="62.0" fill="#000000" transform="matrix(1.00, 0.00, -0.00, -1.00, 796.4, 614.5)">r</text><text xml:space="preserve" font-family="ArialMT,Arial" font-size="62.0" fill="#000000" transform="matrix(1.00, 0.00, -0.00, -1.00, 817.1, 614.5)">t</text><text xml:space="preserve" font-family="ArialMT,Arial" font-size="38.0" fill="#000000" transform="matrix(1.00, 0.00, -0.00, -1.00, 256.4, 54.5)">•</text><text xml:space="preserve" font-family="ArialMT,Arial" font-size="38.0" fill="#000000" transform="matrix(1.00, 0.00, -0.00, -1.00, 288.4, 54.5)">T</text><text xml:space="preserve" font-family="ArialMT,Arial" font-size="38.0" fill="#000000" transform="matrix(1.00, 0.00, -0.00, -1.00, 310.2, 54.5)">u</text><text xml:space="preserve" font-family="ArialMT,Arial" font-size="38.0" fill="#000000" transform="matrix(1.00, 0.00, -0.00, -1.00, 331.4, 54.5)">r</text><text xml:space="preserve" font-family="ArialMT,Arial" font-size="38.0" fill="#000000" transform="matrix(1.00, 0.00, -0.00, -1.00, 344.0, 54.5)">t</text><text xml:space="preserve" font-family="ArialMT,Arial" font-size="38.0" fill="#000000" transform="matrix(1.00, 0.00, -0.00, -1.00, 354.6, 54.5)">l</text><text xml:space="preserve" font-family="ArialMT,Arial" font-size="38.0" fill="#000000" transform="matrix(1.00, 0.00, -0.00, -1.00, 363.0, 54.5)">e</text><text xml:space="preserve" font-family="ArialMT,Arial" font-size="38.0" fill="#000000" transform="matrix(1.00, 0.00, -0.00, -1.00, 384.1, 54.5)">s</text><text xml:space="preserve" font-family="ArialMT,Arial" font-size="38.0" fill="#000000" transform="matrix(1.00, 0.00, -0.00, -1.00, 403.1, 54.5)"> </text><text xml:space="preserve" font-family="ArialMT,Arial" font-size="38.0" fill="#000000" transform="matrix(1.00, 0.00, -0.00, -1.00, 413.7, 54.5)">a</text><text xml:space="preserve" font-family="ArialMT,Arial" font-size="38.0" fill="#000000" transform="matrix(1.00, 0.00, -0.00, -1.00, 434.8, 54.5)">n</text><text xml:space="preserve" font-family="ArialMT,Arial" font-size="38.0" fill="#000000" transform="matrix(1.00, 0.00, -0.00, -1.00, 456.0, 54.5)">d</text><text xml:space="preserve" font-family="ArialMT,Arial" font-size="38.0" fill="#000000" transform="matrix(1.00, 0.00, -0.00, -1.00, 477.1, 54.5)"> </text><text xml:space="preserve" font-family="ArialMT,Arial" font-size="38.0" fill="#000000" transform="matrix(1.00, 0.00, -0.00, -1.00, 487.7, 54.5)">s</text><text xml:space="preserve" font-family="ArialMT,Arial" font-size="38.0" fill="#000000" transform="matrix(1.00, 0.00, -0.00, -1.00, 506.7, 54.5)">q</text><text xml:space="preserve" font-family="ArialMT,Arial" font-size="38.0" fill="#000000" transform="matrix(1.00, 0.00, -0.00, -1.00, 527.8, 54.5)">u</text><text xml:space="preserve" font-family="ArialMT,Arial" font-size="38.0" fill="#000000" transform="matrix(1.00, 0.00, -0.00, -1.00, 549.0, 54.5)">a</text><text xml:space="preserve" font-family="ArialMT,Arial" font-size="38.0" fill="#000000" transform="matrix(1.00, 0.00, -0.00, -1.00, 570.1, 54.5)">m</text><text xml:space="preserve" font-family="ArialMT,Arial" font-size="38.0" fill="#000000" transform="matrix(1.00, 0.00, -0.00, -1.00, 601.8, 54.5)">a</text><text xml:space="preserve" font-family="ArialMT,Arial" font-size="38.0" fill="#000000" transform="matrix(1.00, 0.00, -0.00, -1.00, 622.9, 54.5)">t</text><text xml:space="preserve" font-family="ArialMT,Arial" font-size="38.0" fill="#000000" transform="matrix(1.00, 0.00, -0.00, -1.00, 633.4, 54.5)">e</text><text xml:space="preserve" font-family="ArialMT,Arial" font-size="38.0" fill="#000000" transform="matrix(1.00, 0.00, -0.00, -1.00, 654.6, 54.5)">s</text><image xlink:href="../../CEC38CC6-03F9-4185-B9E4-007D2BB30585/assets/FC219FC67BC63236E8BA1EF6AF809856.jpeg" width="1346.00" height="1329.00" transform="matrix(0.34, 0.00, -0.00, -0.34, 290.0, 572.0)"></image></g></svg>