<?xml version="1.0" encoding="UTF-8" standalone="no"?><svg xmlns="http://www.w3.org/2000/svg" xmlns:xlink="http://www.w3.org/1999/xlink" clip-rule="evenodd" stroke-miterlimit="10" viewBox="0 0 1024 768"><desc>SVG generated by Keynote</desc><defs></defs><g transform="matrix(1.00, 0.00, -0.00, -1.00, 0.0, 768.0)"><path d="M 0.0 768.0 L 1024.0 768.0 L 1024.0 0.0 L 0.0 0.0 Z M 0.0 768.0 " fill="#FEFFFF"></path><image xlink:href="../../2CBCEACB-8A43-45C7-BB57-767D712456F9/assets/18984E5B01A98CDD54560178D847FBAB.jpeg" width="927.00" height="754.00" transform="matrix(0.57, 0.00, -0.00, -0.57, 0.0, 768.0)"></image><image xlink:href="../../165DD2AF-4F58-4F15-A3A6-A643EE0BE761/assets/70D8D2FDE1EA170ECE068F5AA225581E.jpeg" width="990.00" height="468.00" transform="matrix(0.51, 0.00, -0.00, -0.51, 521.0, 768.0)"></image><image xlink:href="../../165DD2AF-4F58-4F15-A3A6-A643EE0BE761/assets/73F1D289DD0270AB0D26ACFAD1B94FA2.jpeg" width="977.00" height="754.00" transform="matrix(0.52, 0.00, -0.00, -0.52, 512.0, 489.0)"></image><image xlink:href="../../165DD2AF-4F58-4F15-A3A6-A643EE0BE761/assets/A3D5A4CDAF56DBC2CB4F5DBF7F4E6B79.jpeg" width="995.00" height="750.00" transform="matrix(0.46, 0.00, -0.00, -0.46, 51.0, 339.0)"></image><path d="M 196.5 597.5 L 366.5 597.5 L 366.5 544.5 L 196.5 544.5 Z M 196.3 597.3 " fill="#FEFCA9"></path><path d="M 0.2 -0.2 L 170.2 -0.2 L 170.2 52.8 L 0.2 52.8 Z M 0.0 0.0 " fill="none" stroke="#000000" stroke-width="1.00" transform="matrix(1.00, 0.00, 0.00, -1.00, 196.3, 597.3)"></path><g><clipPath id="clip0x7fd2d7eb12a0"><path d="M 193.0 542.6 L 369.7 542.6 L 369.7 600.6 L 193.0 600.6 Z M 193.0 542.6 "></path></clipPath><g clip-path="url(#clip0x7fd2d7eb12a0)"><text xml:space="preserve" font-family="ArialMT,Arial" font-size="34.0" fill="#000000" transform="matrix(1.00, 0.00, -0.00, -1.00, 205.7, 560.5)">E</text><text xml:space="preserve" font-family="ArialMT,Arial" font-size="34.0" fill="#000000" transform="matrix(1.00, 0.00, -0.00, -1.00, 228.3, 560.5)">p</text><text xml:space="preserve" font-family="ArialMT,Arial" font-size="34.0" fill="#000000" transform="matrix(1.00, 0.00, -0.00, -1.00, 247.2, 560.5)">i</text><text xml:space="preserve" font-family="ArialMT,Arial" font-size="34.0" fill="#000000" transform="matrix(1.00, 0.00, -0.00, -1.00, 254.8, 560.5)">p</text><text xml:space="preserve" font-family="ArialMT,Arial" font-size="34.0" fill="#000000" transform="matrix(1.00, 0.00, -0.00, -1.00, 273.7, 560.5)">h</text><text xml:space="preserve" font-family="ArialMT,Arial" font-size="34.0" fill="#000000" transform="matrix(1.00, 0.00, -0.00, -1.00, 292.6, 560.5)">y</text><text xml:space="preserve" font-family="ArialMT,Arial" font-size="34.0" fill="#000000" transform="matrix(1.00, 0.00, -0.00, -1.00, 309.6, 560.5)">t</text><text xml:space="preserve" font-family="ArialMT,Arial" font-size="34.0" fill="#000000" transform="matrix(1.00, 0.00, -0.00, -1.00, 319.1, 560.5)">e</text><text xml:space="preserve" font-family="ArialMT,Arial" font-size="34.0" fill="#000000" transform="matrix(1.00, 0.00, -0.00, -1.00, 338.0, 560.5)">s</text></g></g><path d="M 682.5 332.5 L 850.5 332.5 L 850.5 279.5 L 682.5 279.5 Z M 682.7 332.8 " fill="#FEFCA9"></path><path d="M -0.2 0.3 L 167.8 0.3 L 167.8 53.3 L -0.2 53.3 Z M 0.0 0.0 " fill="none" stroke="#000000" stroke-width="1.00" transform="matrix(1.00, 0.00, 0.00, -1.00, 682.7, 332.8)"></path><g><clipPath id="clip0x7fd2d7eb3960"><path d="M 679.4 278.1 L 854.1 278.1 L 854.1 336.1 L 679.4 336.1 Z M 679.4 278.1 "></path></clipPath><g clip-path="url(#clip0x7fd2d7eb3960)"><text xml:space="preserve" font-family="ArialMT,Arial" font-size="34.0" fill="#000000" transform="matrix(1.00, 0.00, -0.00, -1.00, 692.1, 295.9)">C</text><text xml:space="preserve" font-family="ArialMT,Arial" font-size="34.0" fill="#000000" transform="matrix(1.00, 0.00, -0.00, -1.00, 716.6, 295.9)">a</text><text xml:space="preserve" font-family="ArialMT,Arial" font-size="34.0" fill="#000000" transform="matrix(1.00, 0.00, -0.00, -1.00, 735.5, 295.9)">r</text><text xml:space="preserve" font-family="ArialMT,Arial" font-size="34.0" fill="#000000" transform="matrix(1.00, 0.00, -0.00, -1.00, 746.9, 295.9)">n</text><text xml:space="preserve" font-family="ArialMT,Arial" font-size="34.0" fill="#000000" transform="matrix(1.00, 0.00, -0.00, -1.00, 765.8, 295.9)">i</text><text xml:space="preserve" font-family="ArialMT,Arial" font-size="34.0" fill="#000000" transform="matrix(1.00, 0.00, -0.00, -1.00, 773.3, 295.9)">v</text><text xml:space="preserve" font-family="ArialMT,Arial" font-size="34.0" fill="#000000" transform="matrix(1.00, 0.00, -0.00, -1.00, 790.3, 295.9)">o</text><text xml:space="preserve" font-family="ArialMT,Arial" font-size="34.0" fill="#000000" transform="matrix(1.00, 0.00, -0.00, -1.00, 809.2, 295.9)">r</text><text xml:space="preserve" font-family="ArialMT,Arial" font-size="34.0" fill="#000000" transform="matrix(1.00, 0.00, -0.00, -1.00, 820.6, 295.9)">e</text></g></g><path d="M 153.5 204.5 L 418.5 204.5 L 418.5 151.5 L 153.5 151.5 Z M 153.6 204.8 " fill="#FEFCA9"></path><path d="M -0.1 0.3 L 264.9 0.3 L 264.9 53.3 L -0.1 53.3 Z M 0.0 0.0 " fill="none" stroke="#000000" stroke-width="1.00" transform="matrix(1.00, 0.00, 0.00, -1.00, 153.6, 204.8)"></path><g><clipPath id="clip0x7fd2d7eb8c60"><path d="M 150.3 150.1 L 421.8 150.1 L 421.8 208.1 L 150.3 208.1 Z M 150.3 150.1 "></path></clipPath><g clip-path="url(#clip0x7fd2d7eb8c60)"><text xml:space="preserve" font-family="ArialMT,Arial" font-size="34.0" fill="#000000" transform="matrix(1.00, 0.00, -0.00, -1.00, 163.0, 167.9)">S</text><text xml:space="preserve" font-family="ArialMT,Arial" font-size="34.0" fill="#000000" transform="matrix(1.00, 0.00, -0.00, -1.00, 185.7, 167.9)">t</text><text xml:space="preserve" font-family="ArialMT,Arial" font-size="34.0" fill="#000000" transform="matrix(1.00, 0.00, -0.00, -1.00, 195.1, 167.9)">r</text><text xml:space="preserve" font-family="ArialMT,Arial" font-size="34.0" fill="#000000" transform="matrix(1.00, 0.00, -0.00, -1.00, 206.4, 167.9)">e</text><text xml:space="preserve" font-family="ArialMT,Arial" font-size="34.0" fill="#000000" transform="matrix(1.00, 0.00, -0.00, -1.00, 225.3, 167.9)">a</text><text xml:space="preserve" font-family="ArialMT,Arial" font-size="34.0" fill="#000000" transform="matrix(1.00, 0.00, -0.00, -1.00, 244.3, 167.9)">m</text><text xml:space="preserve" font-family="ArialMT,Arial" font-size="34.0" fill="#000000" transform="matrix(1.00, 0.00, -0.00, -1.00, 272.6, 167.9)">-</text><text xml:space="preserve" font-family="ArialMT,Arial" font-size="34.0" fill="#000000" transform="matrix(1.00, 0.00, -0.00, -1.00, 283.9, 167.9)">d</text><text xml:space="preserve" font-family="ArialMT,Arial" font-size="34.0" fill="#000000" transform="matrix(1.00, 0.00, -0.00, -1.00, 302.8, 167.9)">w</text><text xml:space="preserve" font-family="ArialMT,Arial" font-size="34.0" fill="#000000" transform="matrix(1.00, 0.00, -0.00, -1.00, 327.4, 167.9)">e</text><text xml:space="preserve" font-family="ArialMT,Arial" font-size="34.0" fill="#000000" transform="matrix(1.00, 0.00, -0.00, -1.00, 346.3, 167.9)">l</text><text xml:space="preserve" font-family="ArialMT,Arial" font-size="34.0" fill="#000000" transform="matrix(1.00, 0.00, -0.00, -1.00, 353.9, 167.9)">l</text><text xml:space="preserve" font-family="ArialMT,Arial" font-size="34.0" fill="#000000" transform="matrix(1.00, 0.00, -0.00, -1.00, 361.4, 167.9)">i</text><text xml:space="preserve" font-family="ArialMT,Arial" font-size="34.0" fill="#000000" transform="matrix(1.00, 0.00, -0.00, -1.00, 369.0, 167.9)">n</text><text xml:space="preserve" font-family="ArialMT,Arial" font-size="34.0" fill="#000000" transform="matrix(1.00, 0.00, -0.00, -1.00, 387.9, 167.9)">g</text></g></g><path d="M 725.5 639.5 L 863.5 639.5 L 863.5 586.5 L 725.5 586.5 Z M 725.3 640.0 " fill="#FEFCA9"></path><path d="M 0.2 0.5 L 138.2 0.5 L 138.2 53.5 L 0.2 53.5 Z M 0.0 0.0 " fill="none" stroke="#000000" stroke-width="1.00" transform="matrix(1.00, 0.00, 0.00, -1.00, 725.3, 640.0)"></path><g><clipPath id="clip0x7fd2d7ec04a0"><path d="M 722.0 585.3 L 866.5 585.3 L 866.5 643.3 L 722.0 643.3 Z M 722.0 585.3 "></path></clipPath><g clip-path="url(#clip0x7fd2d7ec04a0)"><text xml:space="preserve" font-family="ArialMT,Arial" font-size="34.0" fill="#000000" transform="matrix(1.00, 0.00, -0.00, -1.00, 734.7, 603.1)">S</text><text xml:space="preserve" font-family="ArialMT,Arial" font-size="34.0" fill="#000000" transform="matrix(1.00, 0.00, -0.00, -1.00, 757.4, 603.1)">u</text><text xml:space="preserve" font-family="ArialMT,Arial" font-size="34.0" fill="#000000" transform="matrix(1.00, 0.00, -0.00, -1.00, 776.3, 603.1)">r</text><text xml:space="preserve" font-family="ArialMT,Arial" font-size="34.0" fill="#000000" transform="matrix(1.00, 0.00, -0.00, -1.00, 787.6, 603.1)">f</text><text xml:space="preserve" font-family="ArialMT,Arial" font-size="34.0" fill="#000000" transform="matrix(1.00, 0.00, -0.00, -1.00, 797.1, 603.1)">a</text><text xml:space="preserve" font-family="ArialMT,Arial" font-size="34.0" fill="#000000" transform="matrix(1.00, 0.00, -0.00, -1.00, 816.0, 603.1)">c</text><text xml:space="preserve" font-family="ArialMT,Arial" font-size="34.0" fill="#000000" transform="matrix(1.00, 0.00, -0.00, -1.00, 833.0, 603.1)">e</text></g></g></g></svg>