<?xml version="1.0" encoding="UTF-8" standalone="no"?><svg xmlns="http://www.w3.org/2000/svg" xmlns:xlink="http://www.w3.org/1999/xlink" clip-rule="evenodd" stroke-miterlimit="10" viewBox="0 0 386 414"><desc>SVG generated by Keynote</desc><defs></defs><g transform="matrix(1.00, 0.00, -0.00, -1.00, 0.0, 414.0)"><image xlink:href="B3968658EB24CE92911EA2C4EE44203C.png" width="116.00" height="34.00" transform="matrix(1.00, 0.00, -0.00, -1.00, 126.0, 402.0)"></image><g><clipPath id="clip0x7fd2d93f5470"><path d="M 113.4 358.3 L 253.1 358.3 L 253.1 416.1 L 113.4 416.1 Z M 113.4 358.3 "></path></clipPath><g clip-path="url(#clip0x7fd2d93f5470)"><text xml:space="preserve" font-family="TimesNewRomanPSMT,Times New Roman" font-size="34.0" fill="#000000" transform="matrix(1.00, 0.00, -0.00, -1.00, 125.9, 377.4)">A</text><text xml:space="preserve" font-family="TimesNewRomanPSMT,Times New Roman" font-size="34.0" fill="#000000" transform="matrix(1.00, 0.00, -0.00, -1.00, 150.5, 377.4)">n</text><text xml:space="preserve" font-family="TimesNewRomanPSMT,Times New Roman" font-size="34.0" fill="#000000" transform="matrix(1.00, 0.00, -0.00, -1.00, 167.5, 377.4)">a</text><text xml:space="preserve" font-family="TimesNewRomanPSMT,Times New Roman" font-size="34.0" fill="#000000" transform="matrix(1.00, 0.00, -0.00, -1.00, 182.6, 377.4)">p</text><text xml:space="preserve" font-family="TimesNewRomanPSMT,Times New Roman" font-size="34.0" fill="#000000" transform="matrix(1.00, 0.00, -0.00, -1.00, 199.6, 377.4)">s</text><text xml:space="preserve" font-family="TimesNewRomanPSMT,Times New Roman" font-size="34.0" fill="#000000" transform="matrix(1.00, 0.00, -0.00, -1.00, 212.8, 377.4)">i</text><text xml:space="preserve" font-family="TimesNewRomanPSMT,Times New Roman" font-size="34.0" fill="#000000" transform="matrix(1.00, 0.00, -0.00, -1.00, 222.3, 377.4)">d</text></g></g><g><clipPath id="clip0x7fd2d93fa7d0"><path d="M 0.9 34.4 L 385.4 34.4 L 385.4 342.3 L 0.9 342.3 Z M 0.9 34.4 "></path></clipPath><g clip-path="url(#clip0x7fd2d93fa7d0)"><image xlink:href="CA2D807D070B2EE3DE1BB97DFFF8DF98.png" width="400.00" height="320.00" transform="matrix(0.96, 0.00, -0.00, -0.96, 1.0, 342.0)"></image><path d="M -0.4 -0.2 L 383.6 -0.2 L 383.6 306.8 L -0.4 306.8 Z M -0.4 -0.2 " fill="none" stroke="#000000" stroke-width="1.00" transform="matrix(1.00, 0.00, 0.00, -1.00, 1.4, 341.8)"></path></g></g><image xlink:href="EA772C0FE1B551815E27441628C1DA76.png" width="128.00" height="19.00" transform="matrix(1.00, 0.00, -0.00, -1.00, 100.0, 24.0)"></image><g><clipPath id="clip0x7fd2d9602060"><path d="M 91.2 -0.2 L 235.5 -0.2 L 235.5 33.1 L 91.2 33.1 Z M 91.2 -0.2 "></path></clipPath><g clip-path="url(#clip0x7fd2d9602060)"><text xml:space="preserve" font-family="TimesNewRomanPSMT,Times New Roman" font-size="18.0" fill="#000000" transform="matrix(1.00, 0.00, -0.00, -1.00, 100.1, 11.1)">P</text><text xml:space="preserve" font-family="TimesNewRomanPSMT,Times New Roman" font-size="18.0" fill="#000000" transform="matrix(1.00, 0.00, -0.00, -1.00, 110.1, 11.1)">o</text><text xml:space="preserve" font-family="TimesNewRomanPSMT,Times New Roman" font-size="18.0" fill="#000000" transform="matrix(1.00, 0.00, -0.00, -1.00, 119.1, 11.1)">u</text><text xml:space="preserve" font-family="TimesNewRomanPSMT,Times New Roman" font-size="18.0" fill="#000000" transform="matrix(1.00, 0.00, -0.00, -1.00, 128.1, 11.1)">g</text><text xml:space="preserve" font-family="TimesNewRomanPSMT,Times New Roman" font-size="18.0" fill="#000000" transform="matrix(1.00, 0.00, -0.00, -1.00, 137.1, 11.1)">h</text><text xml:space="preserve" font-family="TimesNewRomanPSMT,Times New Roman" font-size="18.0" fill="#000000" transform="matrix(1.00, 0.00, -0.00, -1.00, 146.1, 11.1)"> </text><text xml:space="preserve" font-family="TimesNewRomanPSMT,Times New Roman" font-size="18.0" fill="#000000" transform="matrix(1.00, 0.00, -0.00, -1.00, 150.6, 11.1)">e</text><text xml:space="preserve" font-family="TimesNewRomanPSMT,Times New Roman" font-size="18.0" fill="#000000" transform="matrix(1.00, 0.00, -0.00, -1.00, 158.6, 11.1)">t</text><text xml:space="preserve" font-family="TimesNewRomanPSMT,Times New Roman" font-size="18.0" fill="#000000" transform="matrix(1.00, 0.00, -0.00, -1.00, 163.6, 11.1)"> </text><text xml:space="preserve" font-family="TimesNewRomanPSMT,Times New Roman" font-size="18.0" fill="#000000" transform="matrix(1.00, 0.00, -0.00, -1.00, 168.1, 11.1)">a</text><text xml:space="preserve" font-family="TimesNewRomanPSMT,Times New Roman" font-size="18.0" fill="#000000" transform="matrix(1.00, 0.00, -0.00, -1.00, 176.1, 11.1)">l</text><text xml:space="preserve" font-family="TimesNewRomanPSMT,Times New Roman" font-size="18.0" fill="#000000" transform="matrix(1.00, 0.00, -0.00, -1.00, 181.1, 11.1)">.</text><text xml:space="preserve" font-family="TimesNewRomanPSMT,Times New Roman" font-size="18.0" fill="#000000" transform="matrix(1.00, 0.00, -0.00, -1.00, 185.6, 11.1)"> </text><text xml:space="preserve" font-family="TimesNewRomanPSMT,Times New Roman" font-size="18.0" fill="#000000" transform="matrix(1.00, 0.00, -0.00, -1.00, 190.1, 11.1)">1</text><text xml:space="preserve" font-family="TimesNewRomanPSMT,Times New Roman" font-size="18.0" fill="#000000" transform="matrix(1.00, 0.00, -0.00, -1.00, 199.1, 11.1)">9</text><text xml:space="preserve" font-family="TimesNewRomanPSMT,Times New Roman" font-size="18.0" fill="#000000" transform="matrix(1.00, 0.00, -0.00, -1.00, 208.1, 11.1)">9</text><text xml:space="preserve" font-family="TimesNewRomanPSMT,Times New Roman" font-size="18.0" fill="#000000" transform="matrix(1.00, 0.00, -0.00, -1.00, 217.1, 11.1)">8</text></g></g></g></svg>