<?xml version="1.0" encoding="UTF-8" standalone="no"?><svg xmlns="http://www.w3.org/2000/svg" xmlns:xlink="http://www.w3.org/1999/xlink" clip-rule="evenodd" stroke-miterlimit="10" viewBox="0 0 256 404"><desc>SVG generated by Keynote</desc><defs></defs><g transform="matrix(1.00, 0.00, -0.00, -1.00, 0.0, 404.0)"><image xlink:href="69E7BAC8DB03823923C7169C9F6A2154.png" width="109.00" height="34.00" transform="matrix(1.00, 0.00, -0.00, -1.00, 87.0, 392.0)"></image><g><clipPath id="clip0x7fd2d93e5e60"><path d="M 74.9 348.8 L 207.0 348.8 L 207.0 406.6 L 74.9 406.6 Z M 74.9 348.8 "></path></clipPath><g clip-path="url(#clip0x7fd2d93e5e60)"><text xml:space="preserve" font-family="TimesNewRomanPSMT,Times New Roman" font-size="34.0" fill="#000000" transform="matrix(1.00, 0.00, -0.00, -1.00, 87.4, 368.0)">D</text><text xml:space="preserve" font-family="TimesNewRomanPSMT,Times New Roman" font-size="34.0" fill="#000000" transform="matrix(1.00, 0.00, -0.00, -1.00, 112.0, 368.0)">i</text><text xml:space="preserve" font-family="TimesNewRomanPSMT,Times New Roman" font-size="34.0" fill="#000000" transform="matrix(1.00, 0.00, -0.00, -1.00, 121.4, 368.0)">a</text><text xml:space="preserve" font-family="TimesNewRomanPSMT,Times New Roman" font-size="34.0" fill="#000000" transform="matrix(1.00, 0.00, -0.00, -1.00, 136.5, 368.0)">p</text><text xml:space="preserve" font-family="TimesNewRomanPSMT,Times New Roman" font-size="34.0" fill="#000000" transform="matrix(1.00, 0.00, -0.00, -1.00, 153.5, 368.0)">s</text><text xml:space="preserve" font-family="TimesNewRomanPSMT,Times New Roman" font-size="34.0" fill="#000000" transform="matrix(1.00, 0.00, -0.00, -1.00, 166.7, 368.0)">i</text><text xml:space="preserve" font-family="TimesNewRomanPSMT,Times New Roman" font-size="34.0" fill="#000000" transform="matrix(1.00, 0.00, -0.00, -1.00, 176.2, 368.0)">d</text></g></g><g><clipPath id="clip0x7fd2d93eac90"><path d="M 0.4 34.1 L 256.0 34.1 L 256.0 344.0 L 0.4 344.0 Z M 0.4 34.1 "></path></clipPath><g clip-path="url(#clip0x7fd2d93eac90)"><image xlink:href="ED4C9DB40A71BDCB0195C9910FCA4DBC.png" width="238.00" height="289.00" transform="matrix(1.07, 0.00, -0.00, -1.07, 1.0, 344.0)"></image><path d="M 0.1 -0.5 L 254.1 -0.5 L 254.1 308.5 L 0.1 308.5 Z M 0.1 -0.5 " fill="none" stroke="#000000" stroke-width="1.00" transform="matrix(1.00, 0.00, 0.00, -1.00, 0.9, 343.5)"></path></g></g><image xlink:href="0F38E414EF67B5BFE3FB0FD448D024AD.png" width="128.00" height="19.00" transform="matrix(1.00, 0.00, -0.00, -1.00, 72.0, 24.0)"></image><g><clipPath id="clip0x7fd2d93ebaf0"><path d="M 63.3 -0.2 L 207.6 -0.2 L 207.6 33.1 L 63.3 33.1 Z M 63.3 -0.2 "></path></clipPath><g clip-path="url(#clip0x7fd2d93ebaf0)"><text xml:space="preserve" font-family="TimesNewRomanPSMT,Times New Roman" font-size="18.0" fill="#000000" transform="matrix(1.00, 0.00, -0.00, -1.00, 72.3, 11.1)">P</text><text xml:space="preserve" font-family="TimesNewRomanPSMT,Times New Roman" font-size="18.0" fill="#000000" transform="matrix(1.00, 0.00, -0.00, -1.00, 82.3, 11.1)">o</text><text xml:space="preserve" font-family="TimesNewRomanPSMT,Times New Roman" font-size="18.0" fill="#000000" transform="matrix(1.00, 0.00, -0.00, -1.00, 91.3, 11.1)">u</text><text xml:space="preserve" font-family="TimesNewRomanPSMT,Times New Roman" font-size="18.0" fill="#000000" transform="matrix(1.00, 0.00, -0.00, -1.00, 100.3, 11.1)">g</text><text xml:space="preserve" font-family="TimesNewRomanPSMT,Times New Roman" font-size="18.0" fill="#000000" transform="matrix(1.00, 0.00, -0.00, -1.00, 109.3, 11.1)">h</text><text xml:space="preserve" font-family="TimesNewRomanPSMT,Times New Roman" font-size="18.0" fill="#000000" transform="matrix(1.00, 0.00, -0.00, -1.00, 118.3, 11.1)"> </text><text xml:space="preserve" font-family="TimesNewRomanPSMT,Times New Roman" font-size="18.0" fill="#000000" transform="matrix(1.00, 0.00, -0.00, -1.00, 122.8, 11.1)">e</text><text xml:space="preserve" font-family="TimesNewRomanPSMT,Times New Roman" font-size="18.0" fill="#000000" transform="matrix(1.00, 0.00, -0.00, -1.00, 130.8, 11.1)">t</text><text xml:space="preserve" font-family="TimesNewRomanPSMT,Times New Roman" font-size="18.0" fill="#000000" transform="matrix(1.00, 0.00, -0.00, -1.00, 135.7, 11.1)"> </text><text xml:space="preserve" font-family="TimesNewRomanPSMT,Times New Roman" font-size="18.0" fill="#000000" transform="matrix(1.00, 0.00, -0.00, -1.00, 140.2, 11.1)">a</text><text xml:space="preserve" font-family="TimesNewRomanPSMT,Times New Roman" font-size="18.0" fill="#000000" transform="matrix(1.00, 0.00, -0.00, -1.00, 148.2, 11.1)">l</text><text xml:space="preserve" font-family="TimesNewRomanPSMT,Times New Roman" font-size="18.0" fill="#000000" transform="matrix(1.00, 0.00, -0.00, -1.00, 153.2, 11.1)">.</text><text xml:space="preserve" font-family="TimesNewRomanPSMT,Times New Roman" font-size="18.0" fill="#000000" transform="matrix(1.00, 0.00, -0.00, -1.00, 157.7, 11.1)"> </text><text xml:space="preserve" font-family="TimesNewRomanPSMT,Times New Roman" font-size="18.0" fill="#000000" transform="matrix(1.00, 0.00, -0.00, -1.00, 162.2, 11.1)">1</text><text xml:space="preserve" font-family="TimesNewRomanPSMT,Times New Roman" font-size="18.0" fill="#000000" transform="matrix(1.00, 0.00, -0.00, -1.00, 171.2, 11.1)">9</text><text xml:space="preserve" font-family="TimesNewRomanPSMT,Times New Roman" font-size="18.0" fill="#000000" transform="matrix(1.00, 0.00, -0.00, -1.00, 180.2, 11.1)">9</text><text xml:space="preserve" font-family="TimesNewRomanPSMT,Times New Roman" font-size="18.0" fill="#000000" transform="matrix(1.00, 0.00, -0.00, -1.00, 189.2, 11.1)">6</text></g></g></g></svg>