<?xml version="1.0" encoding="UTF-8" standalone="no"?><svg xmlns="http://www.w3.org/2000/svg" xmlns:xlink="http://www.w3.org/1999/xlink" clip-rule="evenodd" stroke-miterlimit="10" viewBox="0 0 795 166"><desc>SVG generated by Keynote</desc><defs></defs><g transform="matrix(1.00, 0.00, -0.00, -1.00, 0.0, 166.0)"><text xml:space="preserve" font-family="ArialMT,Arial" font-size="44.0" fill="#000000" transform="matrix(1.00, 0.00, -0.00, -1.00, 0.7, 125.9)">•</text><text xml:space="preserve" font-family="ArialMT,Arial" font-size="44.0" fill="#000000" transform="matrix(1.00, 0.00, -0.00, -1.00, 37.8, 125.9)">D</text><text xml:space="preserve" font-family="ArialMT,Arial" font-size="44.0" fill="#000000" transform="matrix(1.00, 0.00, -0.00, -1.00, 69.6, 125.9)">e</text><text xml:space="preserve" font-family="ArialMT,Arial" font-size="44.0" fill="#000000" transform="matrix(1.00, 0.00, -0.00, -1.00, 94.1, 125.9)">p</text><text xml:space="preserve" font-family="ArialMT,Arial" font-size="44.0" fill="#000000" transform="matrix(1.00, 0.00, -0.00, -1.00, 118.6, 125.9)">e</text><text xml:space="preserve" font-family="ArialMT,Arial" font-size="44.0" fill="#000000" transform="matrix(1.00, 0.00, -0.00, -1.00, 143.0, 125.9)">n</text><text xml:space="preserve" font-family="ArialMT,Arial" font-size="44.0" fill="#000000" transform="matrix(1.00, 0.00, -0.00, -1.00, 167.5, 125.9)">d</text><text xml:space="preserve" font-family="ArialMT,Arial" font-size="44.0" fill="#000000" transform="matrix(1.00, 0.00, -0.00, -1.00, 192.0, 125.9)">s</text><text xml:space="preserve" font-family="ArialMT,Arial" font-size="44.0" fill="#000000" transform="matrix(1.00, 0.00, -0.00, -1.00, 214.0, 125.9)"> </text><text xml:space="preserve" font-family="ArialMT,Arial" font-size="44.0" fill="#000000" transform="matrix(1.00, 0.00, -0.00, -1.00, 226.2, 125.9)">o</text><text xml:space="preserve" font-family="ArialMT,Arial" font-size="44.0" fill="#000000" transform="matrix(1.00, 0.00, -0.00, -1.00, 250.7, 125.9)">n</text><text xml:space="preserve" font-family="ArialMT,Arial" font-size="44.0" fill="#000000" transform="matrix(1.00, 0.00, -0.00, -1.00, 275.2, 125.9)"> </text><text xml:space="preserve" font-family="ArialMT,Arial" font-size="44.0" fill="#000000" transform="matrix(1.00, 0.00, -0.00, -1.00, 287.4, 125.9)">s</text><text xml:space="preserve" font-family="ArialMT,Arial" font-size="44.0" fill="#000000" transform="matrix(1.00, 0.00, -0.00, -1.00, 309.4, 125.9)">k</text><text xml:space="preserve" font-family="ArialMT,Arial" font-size="44.0" fill="#000000" transform="matrix(1.00, 0.00, -0.00, -1.00, 331.4, 125.9)">u</text><text xml:space="preserve" font-family="ArialMT,Arial" font-size="44.0" fill="#000000" transform="matrix(1.00, 0.00, -0.00, -1.00, 355.9, 125.9)">l</text><text xml:space="preserve" font-family="ArialMT,Arial" font-size="44.0" fill="#000000" transform="matrix(1.00, 0.00, -0.00, -1.00, 365.6, 125.9)">l</text><text xml:space="preserve" font-family="ArialMT,Arial" font-size="44.0" fill="#000000" transform="matrix(1.00, 0.00, -0.00, -1.00, 375.4, 125.9)"> </text><text xml:space="preserve" font-family="ArialMT,Arial" font-size="44.0" fill="#000000" transform="matrix(1.00, 0.00, -0.00, -1.00, 387.6, 125.9)">k</text><text xml:space="preserve" font-family="ArialMT,Arial" font-size="44.0" fill="#000000" transform="matrix(1.00, 0.00, -0.00, -1.00, 409.6, 125.9)">i</text><text xml:space="preserve" font-family="ArialMT,Arial" font-size="44.0" fill="#000000" transform="matrix(1.00, 0.00, -0.00, -1.00, 419.4, 125.9)">n</text><text xml:space="preserve" font-family="ArialMT,Arial" font-size="44.0" fill="#000000" transform="matrix(1.00, 0.00, -0.00, -1.00, 443.9, 125.9)">e</text><text xml:space="preserve" font-family="ArialMT,Arial" font-size="44.0" fill="#000000" transform="matrix(1.00, 0.00, -0.00, -1.00, 468.4, 125.9)">t</text><text xml:space="preserve" font-family="ArialMT,Arial" font-size="44.0" fill="#000000" transform="matrix(1.00, 0.00, -0.00, -1.00, 480.6, 125.9)">i</text><text xml:space="preserve" font-family="ArialMT,Arial" font-size="44.0" fill="#000000" transform="matrix(1.00, 0.00, -0.00, -1.00, 490.4, 125.9)">c</text><text xml:space="preserve" font-family="ArialMT,Arial" font-size="44.0" fill="#000000" transform="matrix(1.00, 0.00, -0.00, -1.00, 512.4, 125.9)">s</text><text xml:space="preserve" font-family="ArialMT,Arial" font-size="44.0" fill="#000000" transform="matrix(1.00, 0.00, -0.00, -1.00, 534.4, 125.9)"> </text><text xml:space="preserve" font-family="ArialMT,Arial" font-size="44.0" fill="#000000" transform="matrix(1.00, 0.00, -0.00, -1.00, 0.7, 68.5)">•</text><text xml:space="preserve" font-family="ArialMT,Arial" font-size="44.0" fill="#000000" transform="matrix(1.00, 0.00, -0.00, -1.00, 37.8, 68.5)">A</text><text xml:space="preserve" font-family="ArialMT,Arial" font-size="44.0" fill="#000000" transform="matrix(1.00, 0.00, -0.00, -1.00, 67.2, 68.5)">n</text><text xml:space="preserve" font-family="ArialMT,Arial" font-size="44.0" fill="#000000" transform="matrix(1.00, 0.00, -0.00, -1.00, 91.6, 68.5)">a</text><text xml:space="preserve" font-family="ArialMT,Arial" font-size="44.0" fill="#000000" transform="matrix(1.00, 0.00, -0.00, -1.00, 116.1, 68.5)">p</text><text xml:space="preserve" font-family="ArialMT,Arial" font-size="44.0" fill="#000000" transform="matrix(1.00, 0.00, -0.00, -1.00, 140.6, 68.5)">s</text><text xml:space="preserve" font-family="ArialMT,Arial" font-size="44.0" fill="#000000" transform="matrix(1.00, 0.00, -0.00, -1.00, 162.6, 68.5)">i</text><text xml:space="preserve" font-family="ArialMT,Arial" font-size="44.0" fill="#000000" transform="matrix(1.00, 0.00, -0.00, -1.00, 172.4, 68.5)">d</text><text xml:space="preserve" font-family="ArialMT,Arial" font-size="44.0" fill="#000000" transform="matrix(1.00, 0.00, -0.00, -1.00, 196.9, 68.5)">s</text><text xml:space="preserve" font-family="ArialMT,Arial" font-size="44.0" fill="#000000" transform="matrix(1.00, 0.00, -0.00, -1.00, 218.9, 68.5)"> </text><text xml:space="preserve" font-family="ArialMT,Arial" font-size="44.0" fill="#000000" transform="matrix(1.00, 0.00, -0.00, -1.00, 231.1, 68.5)">&amp;</text><text xml:space="preserve" font-family="ArialMT,Arial" font-size="44.0" fill="#000000" transform="matrix(1.00, 0.00, -0.00, -1.00, 260.4, 68.5)"> </text><text xml:space="preserve" font-family="ArialMT,Arial" font-size="44.0" fill="#000000" transform="matrix(1.00, 0.00, -0.00, -1.00, 272.6, 68.5)">b</text><text xml:space="preserve" font-family="ArialMT,Arial" font-size="44.0" fill="#000000" transform="matrix(1.00, 0.00, -0.00, -1.00, 297.1, 68.5)">u</text><text xml:space="preserve" font-family="ArialMT,Arial" font-size="44.0" fill="#000000" transform="matrix(1.00, 0.00, -0.00, -1.00, 321.6, 68.5)">r</text><text xml:space="preserve" font-family="ArialMT,Arial" font-size="44.0" fill="#000000" transform="matrix(1.00, 0.00, -0.00, -1.00, 336.3, 68.5)">r</text><text xml:space="preserve" font-family="ArialMT,Arial" font-size="44.0" fill="#000000" transform="matrix(1.00, 0.00, -0.00, -1.00, 350.9, 68.5)">o</text><text xml:space="preserve" font-family="ArialMT,Arial" font-size="44.0" fill="#000000" transform="matrix(1.00, 0.00, -0.00, -1.00, 375.4, 68.5)">w</text><text xml:space="preserve" font-family="ArialMT,Arial" font-size="44.0" fill="#000000" transform="matrix(1.00, 0.00, -0.00, -1.00, 407.2, 68.5)">e</text><text xml:space="preserve" font-family="ArialMT,Arial" font-size="44.0" fill="#000000" transform="matrix(1.00, 0.00, -0.00, -1.00, 431.6, 68.5)">r</text><text xml:space="preserve" font-family="ArialMT,Arial" font-size="44.0" fill="#000000" transform="matrix(1.00, 0.00, -0.00, -1.00, 446.3, 68.5)">s</text><text xml:space="preserve" font-family="ArialMT,Arial" font-size="44.0" fill="#000000" transform="matrix(1.00, 0.00, -0.00, -1.00, 468.3, 68.5)"> </text><text xml:space="preserve" font-family="ArialMT,Arial" font-size="44.0" fill="#000000" transform="matrix(1.00, 0.00, -0.00, -1.00, 480.5, 68.5)">h</text><text xml:space="preserve" font-family="ArialMT,Arial" font-size="44.0" fill="#000000" transform="matrix(1.00, 0.00, -0.00, -1.00, 505.0, 68.5)">a</text><text xml:space="preserve" font-family="ArialMT,Arial" font-size="44.0" fill="#000000" transform="matrix(1.00, 0.00, -0.00, -1.00, 529.5, 68.5)">v</text><text xml:space="preserve" font-family="ArialMT,Arial" font-size="44.0" fill="#000000" transform="matrix(1.00, 0.00, -0.00, -1.00, 551.5, 68.5)">e</text><text xml:space="preserve" font-family="ArialMT,Arial" font-size="44.0" fill="#000000" transform="matrix(1.00, 0.00, -0.00, -1.00, 576.0, 68.5)"> </text><text xml:space="preserve" font-family="ArialMT,Arial" font-size="44.0" fill="#000000" transform="matrix(1.00, 0.00, -0.00, -1.00, 588.2, 68.5)">r</text><text xml:space="preserve" font-family="ArialMT,Arial" font-size="44.0" fill="#000000" transform="matrix(1.00, 0.00, -0.00, -1.00, 602.8, 68.5)">i</text><text xml:space="preserve" font-family="ArialMT,Arial" font-size="44.0" fill="#000000" transform="matrix(1.00, 0.00, -0.00, -1.00, 612.6, 68.5)">g</text><text xml:space="preserve" font-family="ArialMT,Arial" font-size="44.0" fill="#000000" transform="matrix(1.00, 0.00, -0.00, -1.00, 637.1, 68.5)">i</text><text xml:space="preserve" font-family="ArialMT,Arial" font-size="44.0" fill="#000000" transform="matrix(1.00, 0.00, -0.00, -1.00, 646.9, 68.5)">d</text><text xml:space="preserve" font-family="ArialMT,Arial" font-size="44.0" fill="#000000" transform="matrix(1.00, 0.00, -0.00, -1.00, 671.4, 68.5)"> </text><text xml:space="preserve" font-family="ArialMT,Arial" font-size="44.0" fill="#000000" transform="matrix(1.00, 0.00, -0.00, -1.00, 683.6, 68.5)">s</text><text xml:space="preserve" font-family="ArialMT,Arial" font-size="44.0" fill="#000000" transform="matrix(1.00, 0.00, -0.00, -1.00, 705.6, 68.5)">k</text><text xml:space="preserve" font-family="ArialMT,Arial" font-size="44.0" fill="#000000" transform="matrix(1.00, 0.00, -0.00, -1.00, 727.6, 68.5)">u</text><text xml:space="preserve" font-family="ArialMT,Arial" font-size="44.0" fill="#000000" transform="matrix(1.00, 0.00, -0.00, -1.00, 752.0, 68.5)">l</text><text xml:space="preserve" font-family="ArialMT,Arial" font-size="44.0" fill="#000000" transform="matrix(1.00, 0.00, -0.00, -1.00, 761.8, 68.5)">l</text><text xml:space="preserve" font-family="ArialMT,Arial" font-size="44.0" fill="#000000" transform="matrix(1.00, 0.00, -0.00, -1.00, 771.6, 68.5)">s</text><text xml:space="preserve" font-family="ArialMT,Arial" font-size="44.0" fill="#000000" transform="matrix(1.00, 0.00, -0.00, -1.00, 793.6, 68.5)"> </text><text xml:space="preserve" font-family="ArialMT,Arial" font-size="44.0" fill="#000000" transform="matrix(1.00, 0.00, -0.00, -1.00, 0.7, 11.1)">•</text><text xml:space="preserve" font-family="ArialMT,Arial" font-size="44.0" fill="#000000" transform="matrix(1.00, 0.00, -0.00, -1.00, 37.8, 11.1)">A</text><text xml:space="preserve" font-family="ArialMT,Arial" font-size="44.0" fill="#000000" transform="matrix(1.00, 0.00, -0.00, -1.00, 67.2, 11.1)">k</text><text xml:space="preserve" font-family="ArialMT,Arial" font-size="44.0" fill="#000000" transform="matrix(1.00, 0.00, -0.00, -1.00, 89.2, 11.1)">i</text><text xml:space="preserve" font-family="ArialMT,Arial" font-size="44.0" fill="#000000" transform="matrix(1.00, 0.00, -0.00, -1.00, 98.9, 11.1)">n</text><text xml:space="preserve" font-family="ArialMT,Arial" font-size="44.0" fill="#000000" transform="matrix(1.00, 0.00, -0.00, -1.00, 123.4, 11.1)">e</text><text xml:space="preserve" font-family="ArialMT,Arial" font-size="44.0" fill="#000000" transform="matrix(1.00, 0.00, -0.00, -1.00, 147.9, 11.1)">t</text><text xml:space="preserve" font-family="ArialMT,Arial" font-size="44.0" fill="#000000" transform="matrix(1.00, 0.00, -0.00, -1.00, 160.1, 11.1)">i</text><text xml:space="preserve" font-family="ArialMT,Arial" font-size="44.0" fill="#000000" transform="matrix(1.00, 0.00, -0.00, -1.00, 169.9, 11.1)">c</text><text xml:space="preserve" font-family="ArialMT,Arial" font-size="44.0" fill="#000000" transform="matrix(1.00, 0.00, -0.00, -1.00, 191.9, 11.1)"> </text><text xml:space="preserve" font-family="ArialMT,Arial" font-size="44.0" fill="#000000" transform="matrix(1.00, 0.00, -0.00, -1.00, 204.1, 11.1)">f</text><text xml:space="preserve" font-family="ArialMT,Arial" font-size="44.0" fill="#000000" transform="matrix(1.00, 0.00, -0.00, -1.00, 216.3, 11.1)">e</text><text xml:space="preserve" font-family="ArialMT,Arial" font-size="44.0" fill="#000000" transform="matrix(1.00, 0.00, -0.00, -1.00, 240.8, 11.1)">e</text><text xml:space="preserve" font-family="ArialMT,Arial" font-size="44.0" fill="#000000" transform="matrix(1.00, 0.00, -0.00, -1.00, 265.3, 11.1)">d</text><text xml:space="preserve" font-family="ArialMT,Arial" font-size="44.0" fill="#000000" transform="matrix(1.00, 0.00, -0.00, -1.00, 289.8, 11.1)">i</text><text xml:space="preserve" font-family="ArialMT,Arial" font-size="44.0" fill="#000000" transform="matrix(1.00, 0.00, -0.00, -1.00, 299.6, 11.1)">n</text><text xml:space="preserve" font-family="ArialMT,Arial" font-size="44.0" fill="#000000" transform="matrix(1.00, 0.00, -0.00, -1.00, 324.0, 11.1)">g</text></g></svg>