<?xml version="1.0" encoding="UTF-8" standalone="no"?><svg xmlns="http://www.w3.org/2000/svg" xmlns:xlink="http://www.w3.org/1999/xlink" clip-rule="evenodd" stroke-miterlimit="10" viewBox="0 0 720 540"><desc>SVG generated by Keynote</desc><defs></defs><g transform="matrix(1.00, 0.00, -0.00, -1.00, 0.0, 540.0)"><path d="M 0.0 540.0 L 720.0 540.0 L 720.0 0.0 L 0.0 0.0 Z M 0.0 540.0 " fill="#FEFFFF"></path><text xml:space="preserve" font-family="ArialMT,Arial" font-size="44.0" fill="#000000" transform="matrix(1.00, 0.00, -0.00, -1.00, 113.0, 431.8)">F</text><text xml:space="preserve" font-family="ArialMT,Arial" font-size="44.0" fill="#000000" transform="matrix(1.00, 0.00, -0.00, -1.00, 139.9, 431.8)">o</text><text xml:space="preserve" font-family="ArialMT,Arial" font-size="44.0" fill="#000000" transform="matrix(1.00, 0.00, -0.00, -1.00, 164.3, 431.8)">r</text><text xml:space="preserve" font-family="ArialMT,Arial" font-size="44.0" fill="#000000" transform="matrix(1.00, 0.00, -0.00, -1.00, 179.0, 431.8)">a</text><text xml:space="preserve" font-family="ArialMT,Arial" font-size="44.0" fill="#000000" transform="matrix(1.00, 0.00, -0.00, -1.00, 203.5, 431.8)">g</text><text xml:space="preserve" font-family="ArialMT,Arial" font-size="44.0" fill="#000000" transform="matrix(1.00, 0.00, -0.00, -1.00, 228.0, 431.8)">i</text><text xml:space="preserve" font-family="ArialMT,Arial" font-size="44.0" fill="#000000" transform="matrix(1.00, 0.00, -0.00, -1.00, 237.7, 431.8)">n</text><text xml:space="preserve" font-family="ArialMT,Arial" font-size="44.0" fill="#000000" transform="matrix(1.00, 0.00, -0.00, -1.00, 262.2, 431.8)">g</text><text xml:space="preserve" font-family="ArialMT,Arial" font-size="44.0" fill="#000000" transform="matrix(1.00, 0.00, -0.00, -1.00, 286.7, 431.8)"> </text><text xml:space="preserve" font-family="ArialMT,Arial" font-size="44.0" fill="#000000" transform="matrix(1.00, 0.00, -0.00, -1.00, 298.9, 431.8)">M</text><text xml:space="preserve" font-family="ArialMT,Arial" font-size="44.0" fill="#000000" transform="matrix(1.00, 0.00, -0.00, -1.00, 335.6, 431.8)">o</text><text xml:space="preserve" font-family="ArialMT,Arial" font-size="44.0" fill="#000000" transform="matrix(1.00, 0.00, -0.00, -1.00, 360.0, 431.8)">d</text><text xml:space="preserve" font-family="ArialMT,Arial" font-size="44.0" fill="#000000" transform="matrix(1.00, 0.00, -0.00, -1.00, 384.5, 431.8)">e</text><text xml:space="preserve" font-family="ArialMT,Arial" font-size="44.0" fill="#000000" transform="matrix(1.00, 0.00, -0.00, -1.00, 409.0, 431.8)">s</text><text xml:space="preserve" font-family="ArialMT,Arial" font-size="44.0" fill="#000000" transform="matrix(1.00, 0.00, -0.00, -1.00, 431.0, 431.8)"> </text><text xml:space="preserve" font-family="ArialMT,Arial" font-size="44.0" fill="#000000" transform="matrix(1.00, 0.00, -0.00, -1.00, 443.2, 431.8)">i</text><text xml:space="preserve" font-family="ArialMT,Arial" font-size="44.0" fill="#000000" transform="matrix(1.00, 0.00, -0.00, -1.00, 453.0, 431.8)">n</text><text xml:space="preserve" font-family="ArialMT,Arial" font-size="44.0" fill="#000000" transform="matrix(1.00, 0.00, -0.00, -1.00, 477.5, 431.8)"> </text><text xml:space="preserve" font-family="ArialMT,Arial" font-size="44.0" fill="#000000" transform="matrix(1.00, 0.00, -0.00, -1.00, 489.7, 431.8)">H</text><text xml:space="preserve" font-family="ArialMT,Arial" font-size="44.0" fill="#000000" transform="matrix(1.00, 0.00, -0.00, -1.00, 521.5, 431.8)">e</text><text xml:space="preserve" font-family="ArialMT,Arial" font-size="44.0" fill="#000000" transform="matrix(1.00, 0.00, -0.00, -1.00, 546.0, 431.8)">r</text><text xml:space="preserve" font-family="ArialMT,Arial" font-size="44.0" fill="#000000" transform="matrix(1.00, 0.00, -0.00, -1.00, 560.6, 431.8)">p</text><text xml:space="preserve" font-family="ArialMT,Arial" font-size="44.0" fill="#000000" transform="matrix(1.00, 0.00, -0.00, -1.00, 585.1, 431.8)">s</text><text xml:space="preserve" font-family="ArialMT,Arial" font-size="28.0" fill="#000000" transform="matrix(1.00, 0.00, -0.00, -1.00, 97.2, 354.8)">–</text><text xml:space="preserve" font-family="ArialMT,Arial" font-size="28.0" fill="#000000" transform="matrix(1.00, 0.00, -0.00, -1.00, 119.7, 354.8)">A</text><text xml:space="preserve" font-family="ArialMT,Arial" font-size="28.0" fill="#000000" transform="matrix(1.00, 0.00, -0.00, -1.00, 138.4, 354.8)">c</text><text xml:space="preserve" font-family="ArialMT,Arial" font-size="28.0" fill="#000000" transform="matrix(1.00, 0.00, -0.00, -1.00, 152.4, 354.8)">t</text><text xml:space="preserve" font-family="ArialMT,Arial" font-size="28.0" fill="#000000" transform="matrix(1.00, 0.00, -0.00, -1.00, 160.1, 354.8)">i</text><text xml:space="preserve" font-family="ArialMT,Arial" font-size="28.0" fill="#000000" transform="matrix(1.00, 0.00, -0.00, -1.00, 166.4, 354.8)">v</text><text xml:space="preserve" font-family="ArialMT,Arial" font-size="28.0" fill="#000000" transform="matrix(1.00, 0.00, -0.00, -1.00, 180.4, 354.8)">e</text><text xml:space="preserve" font-family="ArialMT,Arial" font-size="28.0" fill="#000000" transform="matrix(1.00, 0.00, -0.00, -1.00, 196.0, 354.8)"> </text><text xml:space="preserve" font-family="ArialMT,Arial" font-size="28.0" fill="#000000" transform="matrix(1.00, 0.00, -0.00, -1.00, 203.7, 354.8)">f</text><text xml:space="preserve" font-family="ArialMT,Arial" font-size="28.0" fill="#000000" transform="matrix(1.00, 0.00, -0.00, -1.00, 211.5, 354.8)">o</text><text xml:space="preserve" font-family="ArialMT,Arial" font-size="28.0" fill="#000000" transform="matrix(1.00, 0.00, -0.00, -1.00, 227.1, 354.8)">r</text><text xml:space="preserve" font-family="ArialMT,Arial" font-size="28.0" fill="#000000" transform="matrix(1.00, 0.00, -0.00, -1.00, 236.4, 354.8)">a</text><text xml:space="preserve" font-family="ArialMT,Arial" font-size="28.0" fill="#000000" transform="matrix(1.00, 0.00, -0.00, -1.00, 252.0, 354.8)">g</text><text xml:space="preserve" font-family="ArialMT,Arial" font-size="28.0" fill="#000000" transform="matrix(1.00, 0.00, -0.00, -1.00, 267.6, 354.8)">e</text><text xml:space="preserve" font-family="ArialMT,Arial" font-size="28.0" fill="#000000" transform="matrix(1.00, 0.00, -0.00, -1.00, 283.1, 354.8)">r</text><text xml:space="preserve" font-family="ArialMT,Arial" font-size="28.0" fill="#000000" transform="matrix(1.00, 0.00, -0.00, -1.00, 292.5, 354.8)">s</text><text xml:space="preserve" font-family="ArialMT,Arial" font-size="28.0" fill="#000000" transform="matrix(1.00, 0.00, -0.00, -1.00, 306.5, 354.8)"> </text><text xml:space="preserve" font-family="ArialMT,Arial" font-size="32.0" fill="#000000" transform="matrix(1.00, 0.00, -0.00, -1.00, 61.2, 244.0)">•</text><text xml:space="preserve" font-family="ArialMT,Arial" font-size="32.0" fill="#000000" transform="matrix(1.00, 0.00, -0.00, -1.00, 88.2, 244.0)">S</text><text xml:space="preserve" font-family="ArialMT,Arial" font-size="32.0" fill="#000000" transform="matrix(1.00, 0.00, -0.00, -1.00, 109.5, 244.0)">i</text><text xml:space="preserve" font-family="ArialMT,Arial" font-size="32.0" fill="#000000" transform="matrix(1.00, 0.00, -0.00, -1.00, 116.7, 244.0)">t</text><text xml:space="preserve" font-family="ArialMT,Arial" font-size="32.0" fill="#000000" transform="matrix(1.00, 0.00, -0.00, -1.00, 125.5, 244.0)">-</text><text xml:space="preserve" font-family="ArialMT,Arial" font-size="32.0" fill="#000000" transform="matrix(1.00, 0.00, -0.00, -1.00, 136.2, 244.0)">a</text><text xml:space="preserve" font-family="ArialMT,Arial" font-size="32.0" fill="#000000" transform="matrix(1.00, 0.00, -0.00, -1.00, 154.0, 244.0)">n</text><text xml:space="preserve" font-family="ArialMT,Arial" font-size="32.0" fill="#000000" transform="matrix(1.00, 0.00, -0.00, -1.00, 171.8, 244.0)">d</text><text xml:space="preserve" font-family="ArialMT,Arial" font-size="32.0" fill="#000000" transform="matrix(1.00, 0.00, -0.00, -1.00, 189.6, 244.0)">-</text><text xml:space="preserve" font-family="ArialMT,Arial" font-size="32.0" fill="#000000" transform="matrix(1.00, 0.00, -0.00, -1.00, 200.3, 244.0)">w</text><text xml:space="preserve" font-family="ArialMT,Arial" font-size="32.0" fill="#000000" transform="matrix(1.00, 0.00, -0.00, -1.00, 223.4, 244.0)">a</text><text xml:space="preserve" font-family="ArialMT,Arial" font-size="32.0" fill="#000000" transform="matrix(1.00, 0.00, -0.00, -1.00, 241.2, 244.0)">i</text><text xml:space="preserve" font-family="ArialMT,Arial" font-size="32.0" fill="#000000" transform="matrix(1.00, 0.00, -0.00, -1.00, 248.3, 244.0)">t</text><text xml:space="preserve" font-family="ArialMT,Arial" font-size="32.0" fill="#000000" transform="matrix(1.00, 0.00, -0.00, -1.00, 257.2, 244.0)"> </text><text xml:space="preserve" font-family="ArialMT,Arial" font-size="32.0" fill="#000000" transform="matrix(1.00, 0.00, -0.00, -1.00, 266.1, 244.0)">f</text><text xml:space="preserve" font-family="ArialMT,Arial" font-size="32.0" fill="#000000" transform="matrix(1.00, 0.00, -0.00, -1.00, 275.0, 244.0)">o</text><text xml:space="preserve" font-family="ArialMT,Arial" font-size="32.0" fill="#000000" transform="matrix(1.00, 0.00, -0.00, -1.00, 292.8, 244.0)">r</text><text xml:space="preserve" font-family="ArialMT,Arial" font-size="32.0" fill="#000000" transform="matrix(1.00, 0.00, -0.00, -1.00, 303.4, 244.0)">a</text><text xml:space="preserve" font-family="ArialMT,Arial" font-size="32.0" fill="#000000" transform="matrix(1.00, 0.00, -0.00, -1.00, 321.2, 244.0)">g</text><text xml:space="preserve" font-family="ArialMT,Arial" font-size="32.0" fill="#000000" transform="matrix(1.00, 0.00, -0.00, -1.00, 339.0, 244.0)">i</text><text xml:space="preserve" font-family="ArialMT,Arial" font-size="32.0" fill="#000000" transform="matrix(1.00, 0.00, -0.00, -1.00, 346.1, 244.0)">n</text><text xml:space="preserve" font-family="ArialMT,Arial" font-size="32.0" fill="#000000" transform="matrix(1.00, 0.00, -0.00, -1.00, 363.9, 244.0)">g</text><g><clipPath id="clip0x7fd2d91ef080"><path d="M 456.0 215.0 L 648.0 215.0 L 648.0 360.0 L 456.0 360.0 Z M 456.0 215.0 "></path></clipPath><g clip-path="url(#clip0x7fd2d91ef080)"><path d="M 456.0 360.0 L 648.0 360.0 L 648.0 215.0 L 456.0 215.0 Z M 456.0 360.0 " fill="#FFFFFF"></path><image xlink:href="A659226FDCA3326A6A7E617440E3BF55.png" width="238.00" height="180.00" transform="matrix(0.81, 0.00, -0.00, -0.81, 456.0, 360.0)"></image></g></g><path d="M 0.0 0.0 L 192.0 0.0 L 192.0 145.0 L 0.0 145.0 Z M 0.0 0.0 " fill="none" stroke="#FF2600" stroke-width="5.00" transform="matrix(1.00, 0.00, 0.00, -1.00, 456.0, 360.0)"></path><text xml:space="preserve" font-family="Times-Italic,Times" font-style="italic" font-size="16.0" fill="#000000" transform="matrix(1.00, 0.00, -0.00, -1.00, 481.2, 197.0)">C</text><text xml:space="preserve" font-family="Times-Italic,Times" font-style="italic" font-size="16.0" fill="#000000" transform="matrix(1.00, 0.00, -0.00, -1.00, 491.9, 197.0)">n</text><text xml:space="preserve" font-family="Times-Italic,Times" font-style="italic" font-size="16.0" fill="#000000" transform="matrix(1.00, 0.00, -0.00, -1.00, 499.9, 197.0)">e</text><text xml:space="preserve" font-family="Times-Italic,Times" font-style="italic" font-size="16.0" fill="#000000" transform="matrix(1.00, 0.00, -0.00, -1.00, 507.0, 197.0)">m</text><text xml:space="preserve" font-family="Times-Italic,Times" font-style="italic" font-size="16.0" fill="#000000" transform="matrix(1.00, 0.00, -0.00, -1.00, 518.5, 197.0)">i</text><text xml:space="preserve" font-family="Times-Italic,Times" font-style="italic" font-size="16.0" fill="#000000" transform="matrix(1.00, 0.00, -0.00, -1.00, 523.0, 197.0)">d</text><text xml:space="preserve" font-family="Times-Italic,Times" font-style="italic" font-size="16.0" fill="#000000" transform="matrix(1.00, 0.00, -0.00, -1.00, 531.0, 197.0)">o</text><text xml:space="preserve" font-family="Times-Italic,Times" font-style="italic" font-size="16.0" fill="#000000" transform="matrix(1.00, 0.00, -0.00, -1.00, 539.0, 197.0)">p</text><text xml:space="preserve" font-family="Times-Italic,Times" font-style="italic" font-size="16.0" fill="#000000" transform="matrix(1.00, 0.00, -0.00, -1.00, 547.0, 197.0)">h</text><text xml:space="preserve" font-family="Times-Italic,Times" font-style="italic" font-size="16.0" fill="#000000" transform="matrix(1.00, 0.00, -0.00, -1.00, 555.0, 197.0)">o</text><text xml:space="preserve" font-family="Times-Italic,Times" font-style="italic" font-size="16.0" fill="#000000" transform="matrix(1.00, 0.00, -0.00, -1.00, 563.0, 197.0)">r</text><text xml:space="preserve" font-family="Times-Italic,Times" font-style="italic" font-size="16.0" fill="#000000" transform="matrix(1.00, 0.00, -0.00, -1.00, 569.2, 197.0)">u</text><text xml:space="preserve" font-family="Times-Italic,Times" font-style="italic" font-size="16.0" fill="#000000" transform="matrix(1.00, 0.00, -0.00, -1.00, 577.2, 197.0)">s</text><text xml:space="preserve" font-family="Times-Italic,Times" font-style="italic" font-size="16.0" fill="#000000" transform="matrix(1.00, 0.00, -0.00, -1.00, 583.4, 197.0)"> </text><text xml:space="preserve" font-family="Times-Italic,Times" font-style="italic" font-size="16.0" fill="#000000" transform="matrix(1.00, 0.00, -0.00, -1.00, 587.4, 197.0)">g</text><text xml:space="preserve" font-family="Times-Italic,Times" font-style="italic" font-size="16.0" fill="#000000" transform="matrix(1.00, 0.00, -0.00, -1.00, 595.4, 197.0)">u</text><text xml:space="preserve" font-family="Times-Italic,Times" font-style="italic" font-size="16.0" fill="#000000" transform="matrix(1.00, 0.00, -0.00, -1.00, 603.4, 197.0)">l</text><text xml:space="preserve" font-family="Times-Italic,Times" font-style="italic" font-size="16.0" fill="#000000" transform="matrix(1.00, 0.00, -0.00, -1.00, 607.9, 197.0)">a</text><text xml:space="preserve" font-family="Times-Italic,Times" font-style="italic" font-size="16.0" fill="#000000" transform="matrix(1.00, 0.00, -0.00, -1.00, 615.9, 197.0)">r</text><text xml:space="preserve" font-family="Times-Italic,Times" font-style="italic" font-size="16.0" fill="#000000" transform="matrix(1.00, 0.00, -0.00, -1.00, 622.1, 197.0)">i</text><text xml:space="preserve" font-family="Times-Italic,Times" font-style="italic" font-size="16.0" fill="#000000" transform="matrix(1.00, 0.00, -0.00, -1.00, 626.5, 197.0)">s</text><g><clipPath id="clip0x7fd2d97a9be0"><path d="M 456.0 46.0 L 648.0 46.0 L 648.0 174.0 L 456.0 174.0 Z M 456.0 46.0 "></path></clipPath><g clip-path="url(#clip0x7fd2d97a9be0)"><path d="M 456.0 174.0 L 648.0 174.0 L 648.0 46.0 L 456.0 46.0 Z M 456.0 174.0 " fill="#FFFFFF"></path><image xlink:href="2AB9B46B63FEEBEF412CB301671B7CFD.png" width="600.00" height="399.00" transform="matrix(0.32, 0.00, -0.00, -0.32, 456.0, 174.0)"></image></g></g><path d="M 0.0 0.0 L 192.0 0.0 L 192.0 128.0 L 0.0 128.0 Z M 0.0 0.0 " fill="none" stroke="#0432FF" stroke-width="5.00" transform="matrix(1.00, 0.00, 0.00, -1.00, 456.0, 174.0)"></path><text xml:space="preserve" font-family="Times-Italic,Times" font-style="italic" font-size="16.0" fill="#000000" transform="matrix(1.00, 0.00, -0.00, -1.00, 499.2, 23.0)">A</text><text xml:space="preserve" font-family="Times-Italic,Times" font-style="italic" font-size="16.0" fill="#000000" transform="matrix(1.00, 0.00, -0.00, -1.00, 509.0, 23.0)">n</text><text xml:space="preserve" font-family="Times-Italic,Times" font-style="italic" font-size="16.0" fill="#000000" transform="matrix(1.00, 0.00, -0.00, -1.00, 517.0, 23.0)">o</text><text xml:space="preserve" font-family="Times-Italic,Times" font-style="italic" font-size="16.0" fill="#000000" transform="matrix(1.00, 0.00, -0.00, -1.00, 525.0, 23.0)">l</text><text xml:space="preserve" font-family="Times-Italic,Times" font-style="italic" font-size="16.0" fill="#000000" transform="matrix(1.00, 0.00, -0.00, -1.00, 529.4, 23.0)">i</text><text xml:space="preserve" font-family="Times-Italic,Times" font-style="italic" font-size="16.0" fill="#000000" transform="matrix(1.00, 0.00, -0.00, -1.00, 533.9, 23.0)">s</text><text xml:space="preserve" font-family="Times-Italic,Times" font-style="italic" font-size="16.0" fill="#000000" transform="matrix(1.00, 0.00, -0.00, -1.00, 540.1, 23.0)"> </text><text xml:space="preserve" font-family="Times-Italic,Times" font-style="italic" font-size="16.0" fill="#000000" transform="matrix(1.00, 0.00, -0.00, -1.00, 544.1, 23.0)">l</text><text xml:space="preserve" font-family="Times-Italic,Times" font-style="italic" font-size="16.0" fill="#000000" transform="matrix(1.00, 0.00, -0.00, -1.00, 548.5, 23.0)">e</text><text xml:space="preserve" font-family="Times-Italic,Times" font-style="italic" font-size="16.0" fill="#000000" transform="matrix(1.00, 0.00, -0.00, -1.00, 555.6, 23.0)">m</text><text xml:space="preserve" font-family="Times-Italic,Times" font-style="italic" font-size="16.0" fill="#000000" transform="matrix(1.00, 0.00, -0.00, -1.00, 567.2, 23.0)">u</text><text xml:space="preserve" font-family="Times-Italic,Times" font-style="italic" font-size="16.0" fill="#000000" transform="matrix(1.00, 0.00, -0.00, -1.00, 575.2, 23.0)">r</text><text xml:space="preserve" font-family="Times-Italic,Times" font-style="italic" font-size="16.0" fill="#000000" transform="matrix(1.00, 0.00, -0.00, -1.00, 581.4, 23.0)">i</text><text xml:space="preserve" font-family="Times-Italic,Times" font-style="italic" font-size="16.0" fill="#000000" transform="matrix(1.00, 0.00, -0.00, -1.00, 585.9, 23.0)">n</text><text xml:space="preserve" font-family="Times-Italic,Times" font-style="italic" font-size="16.0" fill="#000000" transform="matrix(1.00, 0.00, -0.00, -1.00, 593.9, 23.0)">u</text><text xml:space="preserve" font-family="Times-Italic,Times" font-style="italic" font-size="16.0" fill="#000000" transform="matrix(1.00, 0.00, -0.00, -1.00, 601.9, 23.0)">s</text><text xml:space="preserve" font-family="ArialMT,Arial" font-size="36.0" fill="#FF2600" transform="matrix(1.00, 0.00, -0.00, -1.00, 133.2, 280.8)">“</text><text xml:space="preserve" font-family="ArialMT,Arial" font-size="36.0" fill="#FF2600" transform="matrix(1.00, 0.00, -0.00, -1.00, 145.2, 280.8)">S</text><text xml:space="preserve" font-family="ArialMT,Arial" font-size="36.0" fill="#FF2600" transform="matrix(1.00, 0.00, -0.00, -1.00, 169.2, 280.8)">c</text><text xml:space="preserve" font-family="ArialMT,Arial" font-size="36.0" fill="#FF2600" transform="matrix(1.00, 0.00, -0.00, -1.00, 187.2, 280.8)">l</text><text xml:space="preserve" font-family="ArialMT,Arial" font-size="36.0" fill="#FF2600" transform="matrix(1.00, 0.00, -0.00, -1.00, 195.2, 280.8)">e</text><text xml:space="preserve" font-family="ArialMT,Arial" font-size="36.0" fill="#FF2600" transform="matrix(1.00, 0.00, -0.00, -1.00, 215.2, 280.8)">r</text><text xml:space="preserve" font-family="ArialMT,Arial" font-size="36.0" fill="#FF2600" transform="matrix(1.00, 0.00, -0.00, -1.00, 227.2, 280.8)">o</text><text xml:space="preserve" font-family="ArialMT,Arial" font-size="36.0" fill="#FF2600" transform="matrix(1.00, 0.00, -0.00, -1.00, 247.3, 280.8)">g</text><text xml:space="preserve" font-family="ArialMT,Arial" font-size="36.0" fill="#FF2600" transform="matrix(1.00, 0.00, -0.00, -1.00, 267.3, 280.8)">l</text><text xml:space="preserve" font-family="ArialMT,Arial" font-size="36.0" fill="#FF2600" transform="matrix(1.00, 0.00, -0.00, -1.00, 275.3, 280.8)">o</text><text xml:space="preserve" font-family="ArialMT,Arial" font-size="36.0" fill="#FF2600" transform="matrix(1.00, 0.00, -0.00, -1.00, 295.3, 280.8)">s</text><text xml:space="preserve" font-family="ArialMT,Arial" font-size="36.0" fill="#FF2600" transform="matrix(1.00, 0.00, -0.00, -1.00, 313.3, 280.8)">s</text><text xml:space="preserve" font-family="ArialMT,Arial" font-size="36.0" fill="#FF2600" transform="matrix(1.00, 0.00, -0.00, -1.00, 331.3, 280.8)">a</text><text xml:space="preserve" font-family="ArialMT,Arial" font-size="36.0" fill="#FF2600" transform="matrix(1.00, 0.00, -0.00, -1.00, 351.3, 280.8)">n</text><text xml:space="preserve" font-family="ArialMT,Arial" font-size="36.0" fill="#FF2600" transform="matrix(1.00, 0.00, -0.00, -1.00, 371.4, 280.8)">s</text><text xml:space="preserve" font-family="ArialMT,Arial" font-size="36.0" fill="#FF2600" transform="matrix(1.00, 0.00, -0.00, -1.00, 389.4, 280.8)">”</text><text xml:space="preserve" font-family="ArialMT,Arial" font-size="36.0" fill="#4248A9" transform="matrix(1.00, 0.00, -0.00, -1.00, 169.2, 94.8)">I</text><text xml:space="preserve" font-family="ArialMT,Arial" font-size="36.0" fill="#4248A9" transform="matrix(1.00, 0.00, -0.00, -1.00, 179.2, 94.8)">g</text><text xml:space="preserve" font-family="ArialMT,Arial" font-size="36.0" fill="#4248A9" transform="matrix(1.00, 0.00, -0.00, -1.00, 199.2, 94.8)">u</text><text xml:space="preserve" font-family="ArialMT,Arial" font-size="36.0" fill="#4248A9" transform="matrix(1.00, 0.00, -0.00, -1.00, 219.2, 94.8)">a</text><text xml:space="preserve" font-family="ArialMT,Arial" font-size="36.0" fill="#4248A9" transform="matrix(1.00, 0.00, -0.00, -1.00, 239.2, 94.8)">n</text><text xml:space="preserve" font-family="ArialMT,Arial" font-size="36.0" fill="#4248A9" transform="matrix(1.00, 0.00, -0.00, -1.00, 259.3, 94.8)">i</text><text xml:space="preserve" font-family="ArialMT,Arial" font-size="36.0" fill="#4248A9" transform="matrix(1.00, 0.00, -0.00, -1.00, 267.2, 94.8)">a</text><text xml:space="preserve" font-family="ArialMT,Arial" font-size="36.0" fill="#4248A9" transform="matrix(1.00, 0.00, -0.00, -1.00, 287.3, 94.8)">n</text><text xml:space="preserve" font-family="ArialMT,Arial" font-size="36.0" fill="#4248A9" transform="matrix(1.00, 0.00, -0.00, -1.00, 307.3, 94.8)">s</text><text xml:space="preserve" font-family="ArialMT,Arial" font-size="10.0" fill="#FEFFFF" transform="matrix(1.00, 0.00, -0.00, -1.00, 595.2, 161.4)">R</text><text xml:space="preserve" font-family="ArialMT,Arial" font-size="10.0" fill="#FEFFFF" transform="matrix(1.00, 0.00, -0.00, -1.00, 602.4, 161.4)">i</text><text xml:space="preserve" font-family="ArialMT,Arial" font-size="10.0" fill="#FEFFFF" transform="matrix(1.00, 0.00, -0.00, -1.00, 604.6, 161.4)">c</text><text xml:space="preserve" font-family="ArialMT,Arial" font-size="10.0" fill="#FEFFFF" transform="matrix(1.00, 0.00, -0.00, -1.00, 609.6, 161.4)">h</text><text xml:space="preserve" font-family="ArialMT,Arial" font-size="10.0" fill="#FEFFFF" transform="matrix(1.00, 0.00, -0.00, -1.00, 615.2, 161.4)"> </text><text xml:space="preserve" font-family="ArialMT,Arial" font-size="10.0" fill="#FEFFFF" transform="matrix(1.00, 0.00, -0.00, -1.00, 618.0, 161.4)">G</text><text xml:space="preserve" font-family="ArialMT,Arial" font-size="10.0" fill="#FEFFFF" transform="matrix(1.00, 0.00, -0.00, -1.00, 625.8, 161.4)">l</text><text xml:space="preserve" font-family="ArialMT,Arial" font-size="10.0" fill="#FEFFFF" transform="matrix(1.00, 0.00, -0.00, -1.00, 628.0, 161.4)">o</text><text xml:space="preserve" font-family="ArialMT,Arial" font-size="10.0" fill="#FEFFFF" transform="matrix(1.00, 0.00, -0.00, -1.00, 633.6, 161.4)">r</text></g></svg>