<?xml version="1.0" encoding="UTF-8" standalone="no"?><svg xmlns="http://www.w3.org/2000/svg" xmlns:xlink="http://www.w3.org/1999/xlink" clip-rule="evenodd" stroke-miterlimit="10" viewBox="0 0 720 540"><desc>SVG generated by Keynote</desc><defs></defs><g transform="matrix(1.00, 0.00, -0.00, -1.00, 0.0, 540.0)"><path d="M 0.0 540.0 L 720.0 540.0 L 720.0 0.0 L 0.0 0.0 Z M 0.0 540.0 " fill="#FEFFFF"></path><g><clipPath id="clip0x7fd2d93035b0"><path d="M 132.0 114.0 L 373.0 114.0 L 373.0 420.0 L 132.0 420.0 Z M 132.0 114.0 "></path></clipPath><g clip-path="url(#clip0x7fd2d93035b0)"><path d="M 132.0 420.0 L 373.0 420.0 L 373.0 114.0 L 132.0 114.0 Z M 132.0 420.0 " fill="#FFFFFF"></path><image xlink:href="09446D782AE7D16C227B0B41D5276672.png" width="350.00" height="444.00" transform="matrix(0.69, 0.00, -0.00, -0.69, 132.0, 420.0)"></image></g></g><g><clipPath id="clip0x7fd2d949d4a0"><path d="M 378.0 114.0 L 619.0 114.0 L 619.0 420.0 L 378.0 420.0 Z M 378.0 114.0 "></path></clipPath><g clip-path="url(#clip0x7fd2d949d4a0)"><path d="M 378.0 420.0 L 619.0 420.0 L 619.0 114.0 L 378.0 114.0 Z M 378.0 420.0 " fill="#FFFFFF"></path><image xlink:href="../../DAFC45EC-03BF-4748-9B73-0C656A86D312/assets/09446D782AE7D16C227B0B41D5276672.png" width="350.00" height="444.00" transform="matrix(0.69, 0.00, -0.00, -0.69, 378.0, 420.0)"></image></g></g><text xml:space="preserve" font-family="ArialMT,Arial" font-size="24.0" fill="#000000" transform="matrix(1.00, 0.00, -0.00, -1.00, 289.2, 21.9)">A</text><text xml:space="preserve" font-family="ArialMT,Arial" font-size="24.0" fill="#000000" transform="matrix(1.00, 0.00, -0.00, -1.00, 305.2, 21.9)">r</text><text xml:space="preserve" font-family="ArialMT,Arial" font-size="24.0" fill="#000000" transform="matrix(1.00, 0.00, -0.00, -1.00, 313.2, 21.9)">e</text><text xml:space="preserve" font-family="ArialMT,Arial" font-size="24.0" fill="#000000" transform="matrix(1.00, 0.00, -0.00, -1.00, 326.6, 21.9)">a</text><text xml:space="preserve" font-family="ArialMT,Arial" font-size="24.0" fill="#000000" transform="matrix(1.00, 0.00, -0.00, -1.00, 339.9, 21.9)"> </text><text xml:space="preserve" font-family="ArialMT,Arial" font-size="24.0" fill="#000000" transform="matrix(1.00, 0.00, -0.00, -1.00, 346.6, 21.9)">=</text><text xml:space="preserve" font-family="ArialMT,Arial" font-size="24.0" fill="#000000" transform="matrix(1.00, 0.00, -0.00, -1.00, 360.6, 21.9)"> </text><text xml:space="preserve" font-family="ArialMT,Arial" font-size="24.0" fill="#000000" transform="matrix(1.00, 0.00, -0.00, -1.00, 367.2, 21.9)">0</text><text xml:space="preserve" font-family="ArialMT,Arial" font-size="24.0" fill="#000000" transform="matrix(1.00, 0.00, -0.00, -1.00, 380.6, 21.9)">.</text><text xml:space="preserve" font-family="ArialMT,Arial" font-size="24.0" fill="#000000" transform="matrix(1.00, 0.00, -0.00, -1.00, 387.3, 21.9)">1</text><text xml:space="preserve" font-family="ArialMT,Arial" font-size="24.0" fill="#000000" transform="matrix(1.00, 0.00, -0.00, -1.00, 400.6, 21.9)"> </text><text xml:space="preserve" font-family="ArialMT,Arial" font-size="24.0" fill="#000000" transform="matrix(1.00, 0.00, -0.00, -1.00, 407.3, 21.9)">m</text><text xml:space="preserve" font-family="ArialMT,Arial" font-size="16.0" fill="#000000" transform="matrix(1.00, 0.00, -0.00, -1.00, 427.3, 28.6)">2</text></g></svg>