<?xml version="1.0" encoding="UTF-8" standalone="no"?><svg xmlns="http://www.w3.org/2000/svg" xmlns:xlink="http://www.w3.org/1999/xlink" clip-rule="evenodd" stroke-miterlimit="10" viewBox="0 0 1024 768"><desc>SVG generated by Keynote</desc><defs></defs><g transform="matrix(1.00, 0.00, -0.00, -1.00, 0.0, 768.0)"><path d="M 0.0 768.0 L 1024.0 768.0 L 1024.0 0.0 L 0.0 0.0 Z M 0.0 768.0 " fill="#FEFFFF"></path><text xml:space="preserve" font-family="ArialMT,Arial" font-size="62.0" fill="#000000" transform="matrix(1.00, 0.00, -0.00, -1.00, 227.7, 614.2)">R</text><text xml:space="preserve" font-family="ArialMT,Arial" font-size="62.0" fill="#000000" transform="matrix(1.00, 0.00, -0.00, -1.00, 272.5, 614.2)">e</text><text xml:space="preserve" font-family="ArialMT,Arial" font-size="62.0" fill="#000000" transform="matrix(1.00, 0.00, -0.00, -1.00, 307.0, 614.2)">p</text><text xml:space="preserve" font-family="ArialMT,Arial" font-size="62.0" fill="#000000" transform="matrix(1.00, 0.00, -0.00, -1.00, 341.5, 614.2)">r</text><text xml:space="preserve" font-family="ArialMT,Arial" font-size="62.0" fill="#000000" transform="matrix(1.00, 0.00, -0.00, -1.00, 362.1, 614.2)">o</text><text xml:space="preserve" font-family="ArialMT,Arial" font-size="62.0" fill="#000000" transform="matrix(1.00, 0.00, -0.00, -1.00, 396.6, 614.2)">d</text><text xml:space="preserve" font-family="ArialMT,Arial" font-size="62.0" fill="#000000" transform="matrix(1.00, 0.00, -0.00, -1.00, 431.1, 614.2)">u</text><text xml:space="preserve" font-family="ArialMT,Arial" font-size="62.0" fill="#000000" transform="matrix(1.00, 0.00, -0.00, -1.00, 465.6, 614.2)">c</text><text xml:space="preserve" font-family="ArialMT,Arial" font-size="62.0" fill="#000000" transform="matrix(1.00, 0.00, -0.00, -1.00, 496.6, 614.2)">t</text><text xml:space="preserve" font-family="ArialMT,Arial" font-size="62.0" fill="#000000" transform="matrix(1.00, 0.00, -0.00, -1.00, 513.8, 614.2)">i</text><text xml:space="preserve" font-family="ArialMT,Arial" font-size="62.0" fill="#000000" transform="matrix(1.00, 0.00, -0.00, -1.00, 527.6, 614.2)">v</text><text xml:space="preserve" font-family="ArialMT,Arial" font-size="62.0" fill="#000000" transform="matrix(1.00, 0.00, -0.00, -1.00, 558.6, 614.2)">e</text><text xml:space="preserve" font-family="ArialMT,Arial" font-size="62.0" fill="#000000" transform="matrix(1.00, 0.00, -0.00, -1.00, 593.1, 614.2)"> </text><text xml:space="preserve" font-family="ArialMT,Arial" font-size="62.0" fill="#000000" transform="matrix(1.00, 0.00, -0.00, -1.00, 610.3, 614.2)">C</text><text xml:space="preserve" font-family="ArialMT,Arial" font-size="62.0" fill="#000000" transform="matrix(1.00, 0.00, -0.00, -1.00, 655.1, 614.2)">y</text><text xml:space="preserve" font-family="ArialMT,Arial" font-size="62.0" fill="#000000" transform="matrix(1.00, 0.00, -0.00, -1.00, 686.1, 614.2)">c</text><text xml:space="preserve" font-family="ArialMT,Arial" font-size="62.0" fill="#000000" transform="matrix(1.00, 0.00, -0.00, -1.00, 717.1, 614.2)">l</text><text xml:space="preserve" font-family="ArialMT,Arial" font-size="62.0" fill="#000000" transform="matrix(1.00, 0.00, -0.00, -1.00, 730.9, 614.2)">e</text><text xml:space="preserve" font-family="ArialMT,Arial" font-size="62.0" fill="#000000" transform="matrix(1.00, 0.00, -0.00, -1.00, 765.4, 614.2)">s</text><text xml:space="preserve" font-family="ArialMT,Arial" font-size="44.0" fill="#000000" transform="matrix(1.00, 0.00, -0.00, -1.00, 84.2, 502.8)">•</text><text xml:space="preserve" font-family="ArialMT,Arial" font-size="44.0" fill="#000000" transform="matrix(1.00, 0.00, -0.00, -1.00, 111.2, 502.8)">M</text><text xml:space="preserve" font-family="ArialMT,Arial" font-size="44.0" fill="#000000" transform="matrix(1.00, 0.00, -0.00, -1.00, 147.9, 502.8)">a</text><text xml:space="preserve" font-family="ArialMT,Arial" font-size="44.0" fill="#000000" transform="matrix(1.00, 0.00, -0.00, -1.00, 172.3, 502.8)">t</text><text xml:space="preserve" font-family="ArialMT,Arial" font-size="44.0" fill="#000000" transform="matrix(1.00, 0.00, -0.00, -1.00, 184.5, 502.8)">i</text><text xml:space="preserve" font-family="ArialMT,Arial" font-size="44.0" fill="#000000" transform="matrix(1.00, 0.00, -0.00, -1.00, 194.3, 502.8)">n</text><text xml:space="preserve" font-family="ArialMT,Arial" font-size="44.0" fill="#000000" transform="matrix(1.00, 0.00, -0.00, -1.00, 218.8, 502.8)">g</text><text xml:space="preserve" font-family="ArialMT,Arial" font-size="44.0" fill="#000000" transform="matrix(1.00, 0.00, -0.00, -1.00, 243.3, 502.8)"> </text><text xml:space="preserve" font-family="ArialMT,Arial" font-size="44.0" fill="#000000" transform="matrix(1.00, 0.00, -0.00, -1.00, 255.5, 502.8)">t</text><text xml:space="preserve" font-family="ArialMT,Arial" font-size="44.0" fill="#000000" transform="matrix(1.00, 0.00, -0.00, -1.00, 267.7, 502.8)">i</text><text xml:space="preserve" font-family="ArialMT,Arial" font-size="44.0" fill="#000000" transform="matrix(1.00, 0.00, -0.00, -1.00, 277.5, 502.8)">m</text><text xml:space="preserve" font-family="ArialMT,Arial" font-size="44.0" fill="#000000" transform="matrix(1.00, 0.00, -0.00, -1.00, 314.2, 502.8)">e</text><text xml:space="preserve" font-family="ArialMT,Arial" font-size="44.0" fill="#000000" transform="matrix(1.00, 0.00, -0.00, -1.00, 338.6, 502.8)">s</text><text xml:space="preserve" font-family="ArialMT,Arial" font-size="44.0" fill="#000000" transform="matrix(1.00, 0.00, -0.00, -1.00, 360.6, 502.8)"> </text><text xml:space="preserve" font-family="ArialMT,Arial" font-size="44.0" fill="#000000" transform="matrix(1.00, 0.00, -0.00, -1.00, 372.9, 502.8)">m</text><text xml:space="preserve" font-family="ArialMT,Arial" font-size="44.0" fill="#000000" transform="matrix(1.00, 0.00, -0.00, -1.00, 409.5, 502.8)">a</text><text xml:space="preserve" font-family="ArialMT,Arial" font-size="44.0" fill="#000000" transform="matrix(1.00, 0.00, -0.00, -1.00, 434.0, 502.8)">y</text><text xml:space="preserve" font-family="ArialMT,Arial" font-size="44.0" fill="#000000" transform="matrix(1.00, 0.00, -0.00, -1.00, 456.0, 502.8)"> </text><text xml:space="preserve" font-family="ArialMT,Arial" font-size="44.0" fill="#000000" transform="matrix(1.00, 0.00, -0.00, -1.00, 468.2, 502.8)">o</text><text xml:space="preserve" font-family="ArialMT,Arial" font-size="44.0" fill="#000000" transform="matrix(1.00, 0.00, -0.00, -1.00, 492.7, 502.8)">r</text><text xml:space="preserve" font-family="ArialMT,Arial" font-size="44.0" fill="#000000" transform="matrix(1.00, 0.00, -0.00, -1.00, 507.3, 502.8)"> </text><text xml:space="preserve" font-family="ArialMT,Arial" font-size="44.0" fill="#000000" transform="matrix(1.00, 0.00, -0.00, -1.00, 519.5, 502.8)">m</text><text xml:space="preserve" font-family="ArialMT,Arial" font-size="44.0" fill="#000000" transform="matrix(1.00, 0.00, -0.00, -1.00, 556.2, 502.8)">a</text><text xml:space="preserve" font-family="ArialMT,Arial" font-size="44.0" fill="#000000" transform="matrix(1.00, 0.00, -0.00, -1.00, 580.7, 502.8)">y</text><text xml:space="preserve" font-family="ArialMT,Arial" font-size="44.0" fill="#000000" transform="matrix(1.00, 0.00, -0.00, -1.00, 602.7, 502.8)"> </text><text xml:space="preserve" font-family="ArialMT,Arial" font-size="44.0" fill="#000000" transform="matrix(1.00, 0.00, -0.00, -1.00, 614.9, 502.8)">n</text><text xml:space="preserve" font-family="ArialMT,Arial" font-size="44.0" fill="#000000" transform="matrix(1.00, 0.00, -0.00, -1.00, 639.4, 502.8)">o</text><text xml:space="preserve" font-family="ArialMT,Arial" font-size="44.0" fill="#000000" transform="matrix(1.00, 0.00, -0.00, -1.00, 663.9, 502.8)">t</text><text xml:space="preserve" font-family="ArialMT,Arial" font-size="44.0" fill="#000000" transform="matrix(1.00, 0.00, -0.00, -1.00, 676.1, 502.8)"> </text><text xml:space="preserve" font-family="ArialMT,Arial" font-size="44.0" fill="#000000" transform="matrix(1.00, 0.00, -0.00, -1.00, 688.3, 502.8)">c</text><text xml:space="preserve" font-family="ArialMT,Arial" font-size="44.0" fill="#000000" transform="matrix(1.00, 0.00, -0.00, -1.00, 710.3, 502.8)">o</text><text xml:space="preserve" font-family="ArialMT,Arial" font-size="44.0" fill="#000000" transform="matrix(1.00, 0.00, -0.00, -1.00, 734.8, 502.8)">i</text><text xml:space="preserve" font-family="ArialMT,Arial" font-size="44.0" fill="#000000" transform="matrix(1.00, 0.00, -0.00, -1.00, 744.6, 502.8)">n</text><text xml:space="preserve" font-family="ArialMT,Arial" font-size="44.0" fill="#000000" transform="matrix(1.00, 0.00, -0.00, -1.00, 769.0, 502.8)">c</text><text xml:space="preserve" font-family="ArialMT,Arial" font-size="44.0" fill="#000000" transform="matrix(1.00, 0.00, -0.00, -1.00, 791.0, 502.8)">i</text><text xml:space="preserve" font-family="ArialMT,Arial" font-size="44.0" fill="#000000" transform="matrix(1.00, 0.00, -0.00, -1.00, 800.8, 502.8)">d</text><text xml:space="preserve" font-family="ArialMT,Arial" font-size="44.0" fill="#000000" transform="matrix(1.00, 0.00, -0.00, -1.00, 825.3, 502.8)">e</text><text xml:space="preserve" font-family="ArialMT,Arial" font-size="44.0" fill="#000000" transform="matrix(1.00, 0.00, -0.00, -1.00, 849.8, 502.8)"> </text><text xml:space="preserve" font-family="ArialMT,Arial" font-size="44.0" fill="#000000" transform="matrix(1.00, 0.00, -0.00, -1.00, 111.2, 457.6)">w</text><text xml:space="preserve" font-family="ArialMT,Arial" font-size="44.0" fill="#000000" transform="matrix(1.00, 0.00, -0.00, -1.00, 143.0, 457.6)">i</text><text xml:space="preserve" font-family="ArialMT,Arial" font-size="44.0" fill="#000000" transform="matrix(1.00, 0.00, -0.00, -1.00, 152.8, 457.6)">t</text><text xml:space="preserve" font-family="ArialMT,Arial" font-size="44.0" fill="#000000" transform="matrix(1.00, 0.00, -0.00, -1.00, 165.0, 457.6)">h</text><text xml:space="preserve" font-family="ArialMT,Arial" font-size="44.0" fill="#000000" transform="matrix(1.00, 0.00, -0.00, -1.00, 189.5, 457.6)"> </text><text xml:space="preserve" font-family="ArialMT,Arial" font-size="44.0" fill="#000000" transform="matrix(1.00, 0.00, -0.00, -1.00, 201.7, 457.6)">o</text><text xml:space="preserve" font-family="ArialMT,Arial" font-size="44.0" fill="#000000" transform="matrix(1.00, 0.00, -0.00, -1.00, 226.2, 457.6)">t</text><text xml:space="preserve" font-family="ArialMT,Arial" font-size="44.0" fill="#000000" transform="matrix(1.00, 0.00, -0.00, -1.00, 238.4, 457.6)">h</text><text xml:space="preserve" font-family="ArialMT,Arial" font-size="44.0" fill="#000000" transform="matrix(1.00, 0.00, -0.00, -1.00, 262.9, 457.6)">e</text><text xml:space="preserve" font-family="ArialMT,Arial" font-size="44.0" fill="#000000" transform="matrix(1.00, 0.00, -0.00, -1.00, 287.3, 457.6)">r</text><text xml:space="preserve" font-family="ArialMT,Arial" font-size="44.0" fill="#000000" transform="matrix(1.00, 0.00, -0.00, -1.00, 302.0, 457.6)"> </text><text xml:space="preserve" font-family="ArialMT,Arial" font-size="44.0" fill="#000000" transform="matrix(1.00, 0.00, -0.00, -1.00, 314.2, 457.6)">e</text><text xml:space="preserve" font-family="ArialMT,Arial" font-size="44.0" fill="#000000" transform="matrix(1.00, 0.00, -0.00, -1.00, 338.7, 457.6)">v</text><text xml:space="preserve" font-family="ArialMT,Arial" font-size="44.0" fill="#000000" transform="matrix(1.00, 0.00, -0.00, -1.00, 360.7, 457.6)">e</text><text xml:space="preserve" font-family="ArialMT,Arial" font-size="44.0" fill="#000000" transform="matrix(1.00, 0.00, -0.00, -1.00, 385.2, 457.6)">n</text><text xml:space="preserve" font-family="ArialMT,Arial" font-size="44.0" fill="#000000" transform="matrix(1.00, 0.00, -0.00, -1.00, 409.6, 457.6)">t</text><text xml:space="preserve" font-family="ArialMT,Arial" font-size="44.0" fill="#000000" transform="matrix(1.00, 0.00, -0.00, -1.00, 421.9, 457.6)">s</text><text xml:space="preserve" font-family="ArialMT,Arial" font-size="44.0" fill="#000000" transform="matrix(1.00, 0.00, -0.00, -1.00, 443.9, 457.6)"> </text><text xml:space="preserve" font-family="ArialMT,Arial" font-size="44.0" fill="#000000" transform="matrix(1.00, 0.00, -0.00, -1.00, 456.1, 457.6)">i</text><text xml:space="preserve" font-family="ArialMT,Arial" font-size="44.0" fill="#000000" transform="matrix(1.00, 0.00, -0.00, -1.00, 465.9, 457.6)">n</text><text xml:space="preserve" font-family="ArialMT,Arial" font-size="44.0" fill="#000000" transform="matrix(1.00, 0.00, -0.00, -1.00, 490.3, 457.6)"> </text><text xml:space="preserve" font-family="ArialMT,Arial" font-size="44.0" fill="#000000" transform="matrix(1.00, 0.00, -0.00, -1.00, 502.6, 457.6)">r</text><text xml:space="preserve" font-family="ArialMT,Arial" font-size="44.0" fill="#000000" transform="matrix(1.00, 0.00, -0.00, -1.00, 517.2, 457.6)">e</text><text xml:space="preserve" font-family="ArialMT,Arial" font-size="44.0" fill="#000000" transform="matrix(1.00, 0.00, -0.00, -1.00, 541.7, 457.6)">p</text><text xml:space="preserve" font-family="ArialMT,Arial" font-size="44.0" fill="#000000" transform="matrix(1.00, 0.00, -0.00, -1.00, 566.2, 457.6)">r</text><text xml:space="preserve" font-family="ArialMT,Arial" font-size="44.0" fill="#000000" transform="matrix(1.00, 0.00, -0.00, -1.00, 580.8, 457.6)">o</text><text xml:space="preserve" font-family="ArialMT,Arial" font-size="44.0" fill="#000000" transform="matrix(1.00, 0.00, -0.00, -1.00, 605.3, 457.6)">d</text><text xml:space="preserve" font-family="ArialMT,Arial" font-size="44.0" fill="#000000" transform="matrix(1.00, 0.00, -0.00, -1.00, 629.8, 457.6)">u</text><text xml:space="preserve" font-family="ArialMT,Arial" font-size="44.0" fill="#000000" transform="matrix(1.00, 0.00, -0.00, -1.00, 654.3, 457.6)">c</text><text xml:space="preserve" font-family="ArialMT,Arial" font-size="44.0" fill="#000000" transform="matrix(1.00, 0.00, -0.00, -1.00, 676.3, 457.6)">t</text><text xml:space="preserve" font-family="ArialMT,Arial" font-size="44.0" fill="#000000" transform="matrix(1.00, 0.00, -0.00, -1.00, 688.5, 457.6)">i</text><text xml:space="preserve" font-family="ArialMT,Arial" font-size="44.0" fill="#000000" transform="matrix(1.00, 0.00, -0.00, -1.00, 698.3, 457.6)">v</text><text xml:space="preserve" font-family="ArialMT,Arial" font-size="44.0" fill="#000000" transform="matrix(1.00, 0.00, -0.00, -1.00, 720.3, 457.6)">e</text><text xml:space="preserve" font-family="ArialMT,Arial" font-size="44.0" fill="#000000" transform="matrix(1.00, 0.00, -0.00, -1.00, 744.7, 457.6)"> </text><text xml:space="preserve" font-family="ArialMT,Arial" font-size="44.0" fill="#000000" transform="matrix(1.00, 0.00, -0.00, -1.00, 756.9, 457.6)">c</text><text xml:space="preserve" font-family="ArialMT,Arial" font-size="44.0" fill="#000000" transform="matrix(1.00, 0.00, -0.00, -1.00, 778.9, 457.6)">y</text><text xml:space="preserve" font-family="ArialMT,Arial" font-size="44.0" fill="#000000" transform="matrix(1.00, 0.00, -0.00, -1.00, 800.9, 457.6)">c</text><text xml:space="preserve" font-family="ArialMT,Arial" font-size="44.0" fill="#000000" transform="matrix(1.00, 0.00, -0.00, -1.00, 822.9, 457.6)">l</text><text xml:space="preserve" font-family="ArialMT,Arial" font-size="44.0" fill="#000000" transform="matrix(1.00, 0.00, -0.00, -1.00, 832.7, 457.6)">e</text><text xml:space="preserve" font-family="ArialMT,Arial" font-size="44.0" fill="#000000" transform="matrix(1.00, 0.00, -0.00, -1.00, 857.2, 457.6)"> </text><text xml:space="preserve" font-family="ArialMT,Arial" font-size="44.0" fill="#000000" transform="matrix(1.00, 0.00, -0.00, -1.00, 84.2, 402.0)">•</text><text xml:space="preserve" font-family="ArialMT,Arial" font-size="44.0" fill="#000000" transform="matrix(1.00, 0.00, -0.00, -1.00, 111.2, 402.0)">E</text><text xml:space="preserve" font-family="ArialMT,Arial" font-size="44.0" fill="#000000" transform="matrix(1.00, 0.00, -0.00, -1.00, 140.5, 402.0)">x</text><text xml:space="preserve" font-family="ArialMT,Arial" font-size="44.0" fill="#000000" transform="matrix(1.00, 0.00, -0.00, -1.00, 162.5, 402.0)">a</text><text xml:space="preserve" font-family="ArialMT,Arial" font-size="44.0" fill="#000000" transform="matrix(1.00, 0.00, -0.00, -1.00, 187.0, 402.0)">m</text><text xml:space="preserve" font-family="ArialMT,Arial" font-size="44.0" fill="#000000" transform="matrix(1.00, 0.00, -0.00, -1.00, 223.7, 402.0)">p</text><text xml:space="preserve" font-family="ArialMT,Arial" font-size="44.0" fill="#000000" transform="matrix(1.00, 0.00, -0.00, -1.00, 248.2, 402.0)">l</text><text xml:space="preserve" font-family="ArialMT,Arial" font-size="44.0" fill="#000000" transform="matrix(1.00, 0.00, -0.00, -1.00, 257.9, 402.0)">e</text><text xml:space="preserve" font-family="ArialMT,Arial" font-size="44.0" fill="#000000" transform="matrix(1.00, 0.00, -0.00, -1.00, 282.4, 402.0)">:</text><text xml:space="preserve" font-family="ArialMT,Arial" font-size="44.0" fill="#000000" transform="matrix(1.00, 0.00, -0.00, -1.00, 294.6, 402.0)"> </text><text xml:space="preserve" font-family="ArialMT,Arial" font-size="44.0" fill="#000000" transform="matrix(1.00, 0.00, -0.00, -1.00, 306.9, 402.0)">g</text><text xml:space="preserve" font-family="ArialMT,Arial" font-size="44.0" fill="#000000" transform="matrix(1.00, 0.00, -0.00, -1.00, 331.3, 402.0)">a</text><text xml:space="preserve" font-family="ArialMT,Arial" font-size="44.0" fill="#000000" transform="matrix(1.00, 0.00, -0.00, -1.00, 355.8, 402.0)">r</text><text xml:space="preserve" font-family="ArialMT,Arial" font-size="44.0" fill="#000000" transform="matrix(1.00, 0.00, -0.00, -1.00, 370.5, 402.0)">t</text><text xml:space="preserve" font-family="ArialMT,Arial" font-size="44.0" fill="#000000" transform="matrix(1.00, 0.00, -0.00, -1.00, 382.7, 402.0)">e</text><text xml:space="preserve" font-family="ArialMT,Arial" font-size="44.0" fill="#000000" transform="matrix(1.00, 0.00, -0.00, -1.00, 407.2, 402.0)">r</text><text xml:space="preserve" font-family="ArialMT,Arial" font-size="44.0" fill="#000000" transform="matrix(1.00, 0.00, -0.00, -1.00, 421.8, 402.0)"> </text><text xml:space="preserve" font-family="ArialMT,Arial" font-size="44.0" fill="#000000" transform="matrix(1.00, 0.00, -0.00, -1.00, 434.0, 402.0)">s</text><text xml:space="preserve" font-family="ArialMT,Arial" font-size="44.0" fill="#000000" transform="matrix(1.00, 0.00, -0.00, -1.00, 456.0, 402.0)">n</text><text xml:space="preserve" font-family="ArialMT,Arial" font-size="44.0" fill="#000000" transform="matrix(1.00, 0.00, -0.00, -1.00, 480.5, 402.0)">a</text><text xml:space="preserve" font-family="ArialMT,Arial" font-size="44.0" fill="#000000" transform="matrix(1.00, 0.00, -0.00, -1.00, 505.0, 402.0)">k</text><text xml:space="preserve" font-family="ArialMT,Arial" font-size="44.0" fill="#000000" transform="matrix(1.00, 0.00, -0.00, -1.00, 527.0, 402.0)">e</text><text xml:space="preserve" font-family="ArialMT,Arial" font-size="44.0" fill="#000000" transform="matrix(1.00, 0.00, -0.00, -1.00, 551.5, 402.0)">s</text><text xml:space="preserve" font-family="ArialMT,Arial" font-size="44.0" fill="#000000" transform="matrix(1.00, 0.00, -0.00, -1.00, 573.5, 402.0)"> </text><text xml:space="preserve" font-family="ArialMT,Arial" font-size="44.0" fill="#000000" transform="matrix(1.00, 0.00, -0.00, -1.00, 585.7, 402.0)">i</text><text xml:space="preserve" font-family="ArialMT,Arial" font-size="44.0" fill="#000000" transform="matrix(1.00, 0.00, -0.00, -1.00, 595.5, 402.0)">n</text><text xml:space="preserve" font-family="ArialMT,Arial" font-size="44.0" fill="#000000" transform="matrix(1.00, 0.00, -0.00, -1.00, 619.9, 402.0)"> </text><text xml:space="preserve" font-family="ArialMT,Arial" font-size="44.0" fill="#000000" transform="matrix(1.00, 0.00, -0.00, -1.00, 632.2, 402.0)">C</text><text xml:space="preserve" font-family="ArialMT,Arial" font-size="44.0" fill="#000000" transform="matrix(1.00, 0.00, -0.00, -1.00, 663.9, 402.0)">a</text><text xml:space="preserve" font-family="ArialMT,Arial" font-size="44.0" fill="#000000" transform="matrix(1.00, 0.00, -0.00, -1.00, 688.4, 402.0)">n</text><text xml:space="preserve" font-family="ArialMT,Arial" font-size="44.0" fill="#000000" transform="matrix(1.00, 0.00, -0.00, -1.00, 712.9, 402.0)">a</text><text xml:space="preserve" font-family="ArialMT,Arial" font-size="44.0" fill="#000000" transform="matrix(1.00, 0.00, -0.00, -1.00, 737.4, 402.0)">d</text><text xml:space="preserve" font-family="ArialMT,Arial" font-size="44.0" fill="#000000" transform="matrix(1.00, 0.00, -0.00, -1.00, 761.9, 402.0)">a</text><text xml:space="preserve" font-family="ArialMT,Arial" font-size="44.0" fill="#000000" transform="matrix(1.00, 0.00, -0.00, -1.00, 786.3, 402.0)"> </text><text xml:space="preserve" font-family="ArialMT,Arial" font-size="38.0" fill="#000000" transform="matrix(1.00, 0.00, -0.00, -1.00, 120.2, 353.2)">–</text><text xml:space="preserve" font-family="ArialMT,Arial" font-size="38.0" fill="#000000" transform="matrix(1.00, 0.00, -0.00, -1.00, 142.7, 353.2)">M</text><text xml:space="preserve" font-family="ArialMT,Arial" font-size="38.0" fill="#000000" transform="matrix(1.00, 0.00, -0.00, -1.00, 174.4, 353.2)">a</text><text xml:space="preserve" font-family="ArialMT,Arial" font-size="38.0" fill="#000000" transform="matrix(1.00, 0.00, -0.00, -1.00, 195.5, 353.2)">t</text><text xml:space="preserve" font-family="ArialMT,Arial" font-size="38.0" fill="#000000" transform="matrix(1.00, 0.00, -0.00, -1.00, 206.0, 353.2)">e</text><text xml:space="preserve" font-family="ArialMT,Arial" font-size="38.0" fill="#000000" transform="matrix(1.00, 0.00, -0.00, -1.00, 227.2, 353.2)"> </text><text xml:space="preserve" font-family="ArialMT,Arial" font-size="38.0" fill="#000000" transform="matrix(1.00, 0.00, -0.00, -1.00, 237.7, 353.2)">i</text><text xml:space="preserve" font-family="ArialMT,Arial" font-size="38.0" fill="#000000" transform="matrix(1.00, 0.00, -0.00, -1.00, 246.2, 353.2)">n</text><text xml:space="preserve" font-family="ArialMT,Arial" font-size="38.0" fill="#000000" transform="matrix(1.00, 0.00, -0.00, -1.00, 267.3, 353.2)"> </text><text xml:space="preserve" font-family="ArialMT,Arial" font-size="38.0" fill="#000000" transform="matrix(1.00, 0.00, -0.00, -1.00, 277.9, 353.2)">s</text><text xml:space="preserve" font-family="ArialMT,Arial" font-size="38.0" fill="#000000" transform="matrix(1.00, 0.00, -0.00, -1.00, 296.9, 353.2)">p</text><text xml:space="preserve" font-family="ArialMT,Arial" font-size="38.0" fill="#000000" transform="matrix(1.00, 0.00, -0.00, -1.00, 318.0, 353.2)">r</text><text xml:space="preserve" font-family="ArialMT,Arial" font-size="38.0" fill="#000000" transform="matrix(1.00, 0.00, -0.00, -1.00, 330.7, 353.2)">i</text><text xml:space="preserve" font-family="ArialMT,Arial" font-size="38.0" fill="#000000" transform="matrix(1.00, 0.00, -0.00, -1.00, 339.1, 353.2)">n</text><text xml:space="preserve" font-family="ArialMT,Arial" font-size="38.0" fill="#000000" transform="matrix(1.00, 0.00, -0.00, -1.00, 360.3, 353.2)">g</text><text xml:space="preserve" font-family="ArialMT,Arial" font-size="38.0" fill="#000000" transform="matrix(1.00, 0.00, -0.00, -1.00, 381.4, 353.2)"> </text><text xml:space="preserve" font-family="ArialMT,Arial" font-size="38.0" fill="#000000" transform="matrix(1.00, 0.00, -0.00, -1.00, 392.0, 353.2)">u</text><text xml:space="preserve" font-family="ArialMT,Arial" font-size="38.0" fill="#000000" transform="matrix(1.00, 0.00, -0.00, -1.00, 413.1, 353.2)">p</text><text xml:space="preserve" font-family="ArialMT,Arial" font-size="38.0" fill="#000000" transform="matrix(1.00, 0.00, -0.00, -1.00, 434.2, 353.2)">o</text><text xml:space="preserve" font-family="ArialMT,Arial" font-size="38.0" fill="#000000" transform="matrix(1.00, 0.00, -0.00, -1.00, 455.4, 353.2)">n</text><text xml:space="preserve" font-family="ArialMT,Arial" font-size="38.0" fill="#000000" transform="matrix(1.00, 0.00, -0.00, -1.00, 476.5, 353.2)"> </text><text xml:space="preserve" font-family="ArialMT,Arial" font-size="38.0" fill="#000000" transform="matrix(1.00, 0.00, -0.00, -1.00, 487.1, 353.2)">e</text><text xml:space="preserve" font-family="ArialMT,Arial" font-size="38.0" fill="#000000" transform="matrix(1.00, 0.00, -0.00, -1.00, 508.2, 353.2)">m</text><text xml:space="preserve" font-family="ArialMT,Arial" font-size="38.0" fill="#000000" transform="matrix(1.00, 0.00, -0.00, -1.00, 539.9, 353.2)">e</text><text xml:space="preserve" font-family="ArialMT,Arial" font-size="38.0" fill="#000000" transform="matrix(1.00, 0.00, -0.00, -1.00, 561.0, 353.2)">r</text><text xml:space="preserve" font-family="ArialMT,Arial" font-size="38.0" fill="#000000" transform="matrix(1.00, 0.00, -0.00, -1.00, 573.7, 353.2)">g</text><text xml:space="preserve" font-family="ArialMT,Arial" font-size="38.0" fill="#000000" transform="matrix(1.00, 0.00, -0.00, -1.00, 594.8, 353.2)">e</text><text xml:space="preserve" font-family="ArialMT,Arial" font-size="38.0" fill="#000000" transform="matrix(1.00, 0.00, -0.00, -1.00, 615.9, 353.2)">n</text><text xml:space="preserve" font-family="ArialMT,Arial" font-size="38.0" fill="#000000" transform="matrix(1.00, 0.00, -0.00, -1.00, 637.1, 353.2)">c</text><text xml:space="preserve" font-family="ArialMT,Arial" font-size="38.0" fill="#000000" transform="matrix(1.00, 0.00, -0.00, -1.00, 656.1, 353.2)">e</text><text xml:space="preserve" font-family="ArialMT,Arial" font-size="38.0" fill="#000000" transform="matrix(1.00, 0.00, -0.00, -1.00, 677.2, 353.2)"> </text><text xml:space="preserve" font-family="ArialMT,Arial" font-size="38.0" fill="#000000" transform="matrix(1.00, 0.00, -0.00, -1.00, 687.8, 353.2)">f</text><text xml:space="preserve" font-family="ArialMT,Arial" font-size="38.0" fill="#000000" transform="matrix(1.00, 0.00, -0.00, -1.00, 698.3, 353.2)">r</text><text xml:space="preserve" font-family="ArialMT,Arial" font-size="38.0" fill="#000000" transform="matrix(1.00, 0.00, -0.00, -1.00, 711.0, 353.2)">o</text><text xml:space="preserve" font-family="ArialMT,Arial" font-size="38.0" fill="#000000" transform="matrix(1.00, 0.00, -0.00, -1.00, 732.1, 353.2)">m</text><text xml:space="preserve" font-family="ArialMT,Arial" font-size="38.0" fill="#000000" transform="matrix(1.00, 0.00, -0.00, -1.00, 763.8, 353.2)"> </text><text xml:space="preserve" font-family="ArialMT,Arial" font-size="38.0" fill="#000000" transform="matrix(1.00, 0.00, -0.00, -1.00, 142.7, 314.4)">h</text><text xml:space="preserve" font-family="ArialMT,Arial" font-size="38.0" fill="#000000" transform="matrix(1.00, 0.00, -0.00, -1.00, 163.8, 314.4)">i</text><text xml:space="preserve" font-family="ArialMT,Arial" font-size="38.0" fill="#000000" transform="matrix(1.00, 0.00, -0.00, -1.00, 172.3, 314.4)">b</text><text xml:space="preserve" font-family="ArialMT,Arial" font-size="38.0" fill="#000000" transform="matrix(1.00, 0.00, -0.00, -1.00, 193.4, 314.4)">e</text><text xml:space="preserve" font-family="ArialMT,Arial" font-size="38.0" fill="#000000" transform="matrix(1.00, 0.00, -0.00, -1.00, 214.6, 314.4)">r</text><text xml:space="preserve" font-family="ArialMT,Arial" font-size="38.0" fill="#000000" transform="matrix(1.00, 0.00, -0.00, -1.00, 227.2, 314.4)">n</text><text xml:space="preserve" font-family="ArialMT,Arial" font-size="38.0" fill="#000000" transform="matrix(1.00, 0.00, -0.00, -1.00, 248.4, 314.4)">a</text><text xml:space="preserve" font-family="ArialMT,Arial" font-size="38.0" fill="#000000" transform="matrix(1.00, 0.00, -0.00, -1.00, 269.5, 314.4)">c</text><text xml:space="preserve" font-family="ArialMT,Arial" font-size="38.0" fill="#000000" transform="matrix(1.00, 0.00, -0.00, -1.00, 288.5, 314.4)">u</text><text xml:space="preserve" font-family="ArialMT,Arial" font-size="38.0" fill="#000000" transform="matrix(1.00, 0.00, -0.00, -1.00, 309.7, 314.4)">l</text><text xml:space="preserve" font-family="ArialMT,Arial" font-size="38.0" fill="#000000" transform="matrix(1.00, 0.00, -0.00, -1.00, 318.1, 314.4)">a</text><text xml:space="preserve" font-family="ArialMT,Arial" font-size="38.0" fill="#000000" transform="matrix(1.00, 0.00, -0.00, -1.00, 339.2, 314.4)"> </text><text xml:space="preserve" font-family="ArialMT,Arial" font-size="38.0" fill="#000000" transform="matrix(1.00, 0.00, -0.00, -1.00, 120.2, 266.5)">–</text><text xml:space="preserve" font-family="ArialMT,Arial" font-size="38.0" fill="#000000" transform="matrix(1.00, 0.00, -0.00, -1.00, 142.7, 266.5)">M</text><text xml:space="preserve" font-family="ArialMT,Arial" font-size="38.0" fill="#000000" transform="matrix(1.00, 0.00, -0.00, -1.00, 174.4, 266.5)">a</text><text xml:space="preserve" font-family="ArialMT,Arial" font-size="38.0" fill="#000000" transform="matrix(1.00, 0.00, -0.00, -1.00, 195.5, 266.5)">l</text><text xml:space="preserve" font-family="ArialMT,Arial" font-size="38.0" fill="#000000" transform="matrix(1.00, 0.00, -0.00, -1.00, 203.9, 266.5)">e</text><text xml:space="preserve" font-family="ArialMT,Arial" font-size="38.0" fill="#000000" transform="matrix(1.00, 0.00, -0.00, -1.00, 225.1, 266.5)">s</text><text xml:space="preserve" font-family="ArialMT,Arial" font-size="38.0" fill="#000000" transform="matrix(1.00, 0.00, -0.00, -1.00, 244.1, 266.5)"> </text><text xml:space="preserve" font-family="ArialMT,Arial" font-size="38.0" fill="#000000" transform="matrix(1.00, 0.00, -0.00, -1.00, 254.6, 266.5)">p</text><text xml:space="preserve" font-family="ArialMT,Arial" font-size="38.0" fill="#000000" transform="matrix(1.00, 0.00, -0.00, -1.00, 275.8, 266.5)">r</text><text xml:space="preserve" font-family="ArialMT,Arial" font-size="38.0" fill="#000000" transform="matrix(1.00, 0.00, -0.00, -1.00, 288.4, 266.5)">o</text><text xml:space="preserve" font-family="ArialMT,Arial" font-size="38.0" fill="#000000" transform="matrix(1.00, 0.00, -0.00, -1.00, 309.6, 266.5)">d</text><text xml:space="preserve" font-family="ArialMT,Arial" font-size="38.0" fill="#000000" transform="matrix(1.00, 0.00, -0.00, -1.00, 330.7, 266.5)">u</text><text xml:space="preserve" font-family="ArialMT,Arial" font-size="38.0" fill="#000000" transform="matrix(1.00, 0.00, -0.00, -1.00, 351.9, 266.5)">c</text><text xml:space="preserve" font-family="ArialMT,Arial" font-size="38.0" fill="#000000" transform="matrix(1.00, 0.00, -0.00, -1.00, 370.9, 266.5)">e</text><text xml:space="preserve" font-family="ArialMT,Arial" font-size="38.0" fill="#000000" transform="matrix(1.00, 0.00, -0.00, -1.00, 392.0, 266.5)"> </text><text xml:space="preserve" font-family="ArialMT,Arial" font-size="38.0" fill="#000000" transform="matrix(1.00, 0.00, -0.00, -1.00, 402.5, 266.5)">s</text><text xml:space="preserve" font-family="ArialMT,Arial" font-size="38.0" fill="#000000" transform="matrix(1.00, 0.00, -0.00, -1.00, 421.5, 266.5)">p</text><text xml:space="preserve" font-family="ArialMT,Arial" font-size="38.0" fill="#000000" transform="matrix(1.00, 0.00, -0.00, -1.00, 442.7, 266.5)">e</text><text xml:space="preserve" font-family="ArialMT,Arial" font-size="38.0" fill="#000000" transform="matrix(1.00, 0.00, -0.00, -1.00, 463.8, 266.5)">r</text><text xml:space="preserve" font-family="ArialMT,Arial" font-size="38.0" fill="#000000" transform="matrix(1.00, 0.00, -0.00, -1.00, 476.5, 266.5)">m</text><text xml:space="preserve" font-family="ArialMT,Arial" font-size="38.0" fill="#000000" transform="matrix(1.00, 0.00, -0.00, -1.00, 508.1, 266.5)"> </text><text xml:space="preserve" font-family="ArialMT,Arial" font-size="38.0" fill="#000000" transform="matrix(1.00, 0.00, -0.00, -1.00, 518.7, 266.5)">i</text><text xml:space="preserve" font-family="ArialMT,Arial" font-size="38.0" fill="#000000" transform="matrix(1.00, 0.00, -0.00, -1.00, 527.1, 266.5)">n</text><text xml:space="preserve" font-family="ArialMT,Arial" font-size="38.0" fill="#000000" transform="matrix(1.00, 0.00, -0.00, -1.00, 548.3, 266.5)"> </text><text xml:space="preserve" font-family="ArialMT,Arial" font-size="38.0" fill="#000000" transform="matrix(1.00, 0.00, -0.00, -1.00, 558.8, 266.5)">s</text><text xml:space="preserve" font-family="ArialMT,Arial" font-size="38.0" fill="#000000" transform="matrix(1.00, 0.00, -0.00, -1.00, 577.8, 266.5)">u</text><text xml:space="preserve" font-family="ArialMT,Arial" font-size="38.0" fill="#000000" transform="matrix(1.00, 0.00, -0.00, -1.00, 599.0, 266.5)">m</text><text xml:space="preserve" font-family="ArialMT,Arial" font-size="38.0" fill="#000000" transform="matrix(1.00, 0.00, -0.00, -1.00, 630.6, 266.5)">m</text><text xml:space="preserve" font-family="ArialMT,Arial" font-size="38.0" fill="#000000" transform="matrix(1.00, 0.00, -0.00, -1.00, 662.3, 266.5)">e</text><text xml:space="preserve" font-family="ArialMT,Arial" font-size="38.0" fill="#000000" transform="matrix(1.00, 0.00, -0.00, -1.00, 683.4, 266.5)">r</text><text xml:space="preserve" font-family="ArialMT,Arial" font-size="38.0" fill="#000000" transform="matrix(1.00, 0.00, -0.00, -1.00, 694.0, 266.5)">,</text><text xml:space="preserve" font-family="ArialMT,Arial" font-size="38.0" fill="#000000" transform="matrix(1.00, 0.00, -0.00, -1.00, 704.5, 266.5)"> </text><text xml:space="preserve" font-family="ArialMT,Arial" font-size="38.0" fill="#000000" transform="matrix(1.00, 0.00, -0.00, -1.00, 715.1, 266.5)">s</text><text xml:space="preserve" font-family="ArialMT,Arial" font-size="38.0" fill="#000000" transform="matrix(1.00, 0.00, -0.00, -1.00, 734.1, 266.5)">t</text><text xml:space="preserve" font-family="ArialMT,Arial" font-size="38.0" fill="#000000" transform="matrix(1.00, 0.00, -0.00, -1.00, 744.6, 266.5)">o</text><text xml:space="preserve" font-family="ArialMT,Arial" font-size="38.0" fill="#000000" transform="matrix(1.00, 0.00, -0.00, -1.00, 765.8, 266.5)">r</text><text xml:space="preserve" font-family="ArialMT,Arial" font-size="38.0" fill="#000000" transform="matrix(1.00, 0.00, -0.00, -1.00, 778.4, 266.5)">e</text><text xml:space="preserve" font-family="ArialMT,Arial" font-size="38.0" fill="#000000" transform="matrix(1.00, 0.00, -0.00, -1.00, 799.6, 266.5)"> </text><text xml:space="preserve" font-family="ArialMT,Arial" font-size="38.0" fill="#000000" transform="matrix(1.00, 0.00, -0.00, -1.00, 810.1, 266.5)">f</text><text xml:space="preserve" font-family="ArialMT,Arial" font-size="38.0" fill="#000000" transform="matrix(1.00, 0.00, -0.00, -1.00, 820.7, 266.5)">o</text><text xml:space="preserve" font-family="ArialMT,Arial" font-size="38.0" fill="#000000" transform="matrix(1.00, 0.00, -0.00, -1.00, 841.8, 266.5)">r</text><text xml:space="preserve" font-family="ArialMT,Arial" font-size="38.0" fill="#000000" transform="matrix(1.00, 0.00, -0.00, -1.00, 854.5, 266.5)"> </text><text xml:space="preserve" font-family="ArialMT,Arial" font-size="38.0" fill="#000000" transform="matrix(1.00, 0.00, -0.00, -1.00, 865.0, 266.5)">n</text><text xml:space="preserve" font-family="ArialMT,Arial" font-size="38.0" fill="#000000" transform="matrix(1.00, 0.00, -0.00, -1.00, 886.2, 266.5)">e</text><text xml:space="preserve" font-family="ArialMT,Arial" font-size="38.0" fill="#000000" transform="matrix(1.00, 0.00, -0.00, -1.00, 907.3, 266.5)">x</text><text xml:space="preserve" font-family="ArialMT,Arial" font-size="38.0" fill="#000000" transform="matrix(1.00, 0.00, -0.00, -1.00, 926.3, 266.5)">t</text><text xml:space="preserve" font-family="ArialMT,Arial" font-size="38.0" fill="#000000" transform="matrix(1.00, 0.00, -0.00, -1.00, 936.8, 266.5)"> </text><text xml:space="preserve" font-family="ArialMT,Arial" font-size="38.0" fill="#000000" transform="matrix(1.00, 0.00, -0.00, -1.00, 142.7, 227.7)">y</text><text xml:space="preserve" font-family="ArialMT,Arial" font-size="38.0" fill="#000000" transform="matrix(1.00, 0.00, -0.00, -1.00, 161.7, 227.7)">e</text><text xml:space="preserve" font-family="ArialMT,Arial" font-size="38.0" fill="#000000" transform="matrix(1.00, 0.00, -0.00, -1.00, 182.8, 227.7)">a</text><text xml:space="preserve" font-family="ArialMT,Arial" font-size="38.0" fill="#000000" transform="matrix(1.00, 0.00, -0.00, -1.00, 204.0, 227.7)">r</text><text xml:space="preserve" font-family="ArialMT,Arial" font-size="38.0" fill="#000000" transform="matrix(1.00, 0.00, -0.00, -1.00, 216.6, 227.7)"> </text><text xml:space="preserve" font-family="ArialMT,Arial" font-size="38.0" fill="#000000" transform="matrix(1.00, 0.00, -0.00, -1.00, 120.2, 179.7)">–</text><text xml:space="preserve" font-family="ArialMT,Arial" font-size="38.0" fill="#000000" transform="matrix(1.00, 0.00, -0.00, -1.00, 142.7, 179.7)">F</text><text xml:space="preserve" font-family="ArialMT,Arial" font-size="38.0" fill="#000000" transform="matrix(1.00, 0.00, -0.00, -1.00, 165.9, 179.7)">e</text><text xml:space="preserve" font-family="ArialMT,Arial" font-size="38.0" fill="#000000" transform="matrix(1.00, 0.00, -0.00, -1.00, 187.0, 179.7)">m</text><text xml:space="preserve" font-family="ArialMT,Arial" font-size="38.0" fill="#000000" transform="matrix(1.00, 0.00, -0.00, -1.00, 218.7, 179.7)">a</text><text xml:space="preserve" font-family="ArialMT,Arial" font-size="38.0" fill="#000000" transform="matrix(1.00, 0.00, -0.00, -1.00, 239.8, 179.7)">l</text><text xml:space="preserve" font-family="ArialMT,Arial" font-size="38.0" fill="#000000" transform="matrix(1.00, 0.00, -0.00, -1.00, 248.3, 179.7)">e</text><text xml:space="preserve" font-family="ArialMT,Arial" font-size="38.0" fill="#000000" transform="matrix(1.00, 0.00, -0.00, -1.00, 269.4, 179.7)">s</text><text xml:space="preserve" font-family="ArialMT,Arial" font-size="38.0" fill="#000000" transform="matrix(1.00, 0.00, -0.00, -1.00, 288.4, 179.7)"> </text><text xml:space="preserve" font-family="ArialMT,Arial" font-size="38.0" fill="#000000" transform="matrix(1.00, 0.00, -0.00, -1.00, 299.0, 179.7)">s</text><text xml:space="preserve" font-family="ArialMT,Arial" font-size="38.0" fill="#000000" transform="matrix(1.00, 0.00, -0.00, -1.00, 318.0, 179.7)">t</text><text xml:space="preserve" font-family="ArialMT,Arial" font-size="38.0" fill="#000000" transform="matrix(1.00, 0.00, -0.00, -1.00, 328.5, 179.7)">o</text><text xml:space="preserve" font-family="ArialMT,Arial" font-size="38.0" fill="#000000" transform="matrix(1.00, 0.00, -0.00, -1.00, 349.7, 179.7)">r</text><text xml:space="preserve" font-family="ArialMT,Arial" font-size="38.0" fill="#000000" transform="matrix(1.00, 0.00, -0.00, -1.00, 362.3, 179.7)">e</text><text xml:space="preserve" font-family="ArialMT,Arial" font-size="38.0" fill="#000000" transform="matrix(1.00, 0.00, -0.00, -1.00, 383.5, 179.7)"> </text><text xml:space="preserve" font-family="ArialMT,Arial" font-size="38.0" fill="#000000" transform="matrix(1.00, 0.00, -0.00, -1.00, 394.0, 179.7)">s</text><text xml:space="preserve" font-family="ArialMT,Arial" font-size="38.0" fill="#000000" transform="matrix(1.00, 0.00, -0.00, -1.00, 413.0, 179.7)">p</text><text xml:space="preserve" font-family="ArialMT,Arial" font-size="38.0" fill="#000000" transform="matrix(1.00, 0.00, -0.00, -1.00, 434.2, 179.7)">e</text><text xml:space="preserve" font-family="ArialMT,Arial" font-size="38.0" fill="#000000" transform="matrix(1.00, 0.00, -0.00, -1.00, 455.3, 179.7)">r</text><text xml:space="preserve" font-family="ArialMT,Arial" font-size="38.0" fill="#000000" transform="matrix(1.00, 0.00, -0.00, -1.00, 468.0, 179.7)">m</text><text xml:space="preserve" font-family="ArialMT,Arial" font-size="38.0" fill="#000000" transform="matrix(1.00, 0.00, -0.00, -1.00, 499.6, 179.7)"> </text><text xml:space="preserve" font-family="ArialMT,Arial" font-size="38.0" fill="#000000" transform="matrix(1.00, 0.00, -0.00, -1.00, 510.2, 179.7)">a</text><text xml:space="preserve" font-family="ArialMT,Arial" font-size="38.0" fill="#000000" transform="matrix(1.00, 0.00, -0.00, -1.00, 531.3, 179.7)">l</text><text xml:space="preserve" font-family="ArialMT,Arial" font-size="38.0" fill="#000000" transform="matrix(1.00, 0.00, -0.00, -1.00, 539.8, 179.7)">s</text><text xml:space="preserve" font-family="ArialMT,Arial" font-size="38.0" fill="#000000" transform="matrix(1.00, 0.00, -0.00, -1.00, 558.8, 179.7)">o</text><text xml:space="preserve" font-family="ArialMT,Arial" font-size="38.0" fill="#000000" transform="matrix(1.00, 0.00, -0.00, -1.00, 579.9, 179.7)">,</text><text xml:space="preserve" font-family="ArialMT,Arial" font-size="38.0" fill="#000000" transform="matrix(1.00, 0.00, -0.00, -1.00, 590.4, 179.7)"> </text><text xml:space="preserve" font-family="ArialMT,Arial" font-size="38.0" fill="#000000" transform="matrix(1.00, 0.00, -0.00, -1.00, 601.0, 179.7)">u</text><text xml:space="preserve" font-family="ArialMT,Arial" font-size="38.0" fill="#000000" transform="matrix(1.00, 0.00, -0.00, -1.00, 622.1, 179.7)">s</text><text xml:space="preserve" font-family="ArialMT,Arial" font-size="38.0" fill="#000000" transform="matrix(1.00, 0.00, -0.00, -1.00, 641.1, 179.7)">e</text><text xml:space="preserve" font-family="ArialMT,Arial" font-size="38.0" fill="#000000" transform="matrix(1.00, 0.00, -0.00, -1.00, 662.3, 179.7)"> </text><text xml:space="preserve" font-family="ArialMT,Arial" font-size="38.0" fill="#000000" transform="matrix(1.00, 0.00, -0.00, -1.00, 672.8, 179.7)">t</text><text xml:space="preserve" font-family="ArialMT,Arial" font-size="38.0" fill="#000000" transform="matrix(1.00, 0.00, -0.00, -1.00, 683.4, 179.7)">o</text><text xml:space="preserve" font-family="ArialMT,Arial" font-size="38.0" fill="#000000" transform="matrix(1.00, 0.00, -0.00, -1.00, 704.5, 179.7)"> </text><text xml:space="preserve" font-family="ArialMT,Arial" font-size="38.0" fill="#000000" transform="matrix(1.00, 0.00, -0.00, -1.00, 715.1, 179.7)">f</text><text xml:space="preserve" font-family="ArialMT,Arial" font-size="38.0" fill="#000000" transform="matrix(1.00, 0.00, -0.00, -1.00, 725.6, 179.7)">e</text><text xml:space="preserve" font-family="ArialMT,Arial" font-size="38.0" fill="#000000" transform="matrix(1.00, 0.00, -0.00, -1.00, 746.8, 179.7)">r</text><text xml:space="preserve" font-family="ArialMT,Arial" font-size="38.0" fill="#000000" transform="matrix(1.00, 0.00, -0.00, -1.00, 759.4, 179.7)">t</text><text xml:space="preserve" font-family="ArialMT,Arial" font-size="38.0" fill="#000000" transform="matrix(1.00, 0.00, -0.00, -1.00, 770.0, 179.7)">i</text><text xml:space="preserve" font-family="ArialMT,Arial" font-size="38.0" fill="#000000" transform="matrix(1.00, 0.00, -0.00, -1.00, 778.4, 179.7)">l</text><text xml:space="preserve" font-family="ArialMT,Arial" font-size="38.0" fill="#000000" transform="matrix(1.00, 0.00, -0.00, -1.00, 786.9, 179.7)">i</text><text xml:space="preserve" font-family="ArialMT,Arial" font-size="38.0" fill="#000000" transform="matrix(1.00, 0.00, -0.00, -1.00, 795.3, 179.7)">z</text><text xml:space="preserve" font-family="ArialMT,Arial" font-size="38.0" fill="#000000" transform="matrix(1.00, 0.00, -0.00, -1.00, 814.3, 179.7)">e</text><text xml:space="preserve" font-family="ArialMT,Arial" font-size="38.0" fill="#000000" transform="matrix(1.00, 0.00, -0.00, -1.00, 835.5, 179.7)"> </text><text xml:space="preserve" font-family="ArialMT,Arial" font-size="38.0" fill="#000000" transform="matrix(1.00, 0.00, -0.00, -1.00, 846.0, 179.7)">e</text><text xml:space="preserve" font-family="ArialMT,Arial" font-size="38.0" fill="#000000" transform="matrix(1.00, 0.00, -0.00, -1.00, 867.1, 179.7)">g</text><text xml:space="preserve" font-family="ArialMT,Arial" font-size="38.0" fill="#000000" transform="matrix(1.00, 0.00, -0.00, -1.00, 888.3, 179.7)">g</text><text xml:space="preserve" font-family="ArialMT,Arial" font-size="38.0" fill="#000000" transform="matrix(1.00, 0.00, -0.00, -1.00, 909.4, 179.7)">s</text><text xml:space="preserve" font-family="ArialMT,Arial" font-size="38.0" fill="#000000" transform="matrix(1.00, 0.00, -0.00, -1.00, 928.4, 179.7)"> </text><text xml:space="preserve" font-family="ArialMT,Arial" font-size="38.0" fill="#000000" transform="matrix(1.00, 0.00, -0.00, -1.00, 142.7, 140.9)">i</text><text xml:space="preserve" font-family="ArialMT,Arial" font-size="38.0" fill="#000000" transform="matrix(1.00, 0.00, -0.00, -1.00, 151.1, 140.9)">n</text><text xml:space="preserve" font-family="ArialMT,Arial" font-size="38.0" fill="#000000" transform="matrix(1.00, 0.00, -0.00, -1.00, 172.3, 140.9)"> </text><text xml:space="preserve" font-family="ArialMT,Arial" font-size="38.0" fill="#000000" transform="matrix(1.00, 0.00, -0.00, -1.00, 182.8, 140.9)">s</text><text xml:space="preserve" font-family="ArialMT,Arial" font-size="38.0" fill="#000000" transform="matrix(1.00, 0.00, -0.00, -1.00, 201.8, 140.9)">u</text><text xml:space="preserve" font-family="ArialMT,Arial" font-size="38.0" fill="#000000" transform="matrix(1.00, 0.00, -0.00, -1.00, 223.0, 140.9)">m</text><text xml:space="preserve" font-family="ArialMT,Arial" font-size="38.0" fill="#000000" transform="matrix(1.00, 0.00, -0.00, -1.00, 254.6, 140.9)">m</text><text xml:space="preserve" font-family="ArialMT,Arial" font-size="38.0" fill="#000000" transform="matrix(1.00, 0.00, -0.00, -1.00, 286.3, 140.9)">e</text><text xml:space="preserve" font-family="ArialMT,Arial" font-size="38.0" fill="#000000" transform="matrix(1.00, 0.00, -0.00, -1.00, 307.4, 140.9)">r</text></g></svg>