<?xml version="1.0" encoding="UTF-8" standalone="no"?><svg xmlns="http://www.w3.org/2000/svg" xmlns:xlink="http://www.w3.org/1999/xlink" clip-rule="evenodd" stroke-miterlimit="10" viewBox="0 0 720 540"><desc>SVG generated by Keynote</desc><defs></defs><g transform="matrix(1.00, 0.00, -0.00, -1.00, 0.0, 540.0)"><path d="M 0.0 540.0 L 720.0 540.0 L 720.0 0.0 L 0.0 0.0 Z M 0.0 540.0 " fill="#FEFFFF"></path><path d="M 411.0 460.0 L 511.0 460.0 L 461.0 308.0 Z M 411.0 460.0 " fill="#0061FE"></path><path d="M 0.0 0.0 L 100.0 0.0 L 50.0 152.0 Z M 0.0 0.0 " fill="none" stroke="#000000" stroke-width="2.00" transform="matrix(1.00, 0.00, 0.00, -1.00, 411.0, 460.0)"></path><path d="M 0.0 142.1 L 72.8 0.0 " fill="none" stroke="#000000" stroke-width="3.00" transform="matrix(1.00, 0.00, 0.00, -1.00, 387.9, 307.7)"></path><path d="M 4.5 7.0 L 5.5 8.4 L 206.0 332.0 " fill="none" stroke="#000000" stroke-width="3.00" transform="matrix(1.00, 0.00, 0.00, -1.00, 268.0, 357.0)"></path><path d="M 280.6 349.4 L 268.1 357.1 L 269.4 342.4 L 273.3 348.7 Z M 280.6 349.4 " fill="#000000"></path><text xml:space="preserve" font-family="GillSans,Gill Sans" font-size="26.0" fill="#000000" transform="matrix(1.00, 0.00, -0.00, -1.00, 434.2, 513.0)">l</text><text xml:space="preserve" font-family="GillSans,Gill Sans" font-size="26.0" fill="#000000" transform="matrix(1.00, 0.00, -0.00, -1.00, 439.9, 513.0)">i</text><text xml:space="preserve" font-family="GillSans,Gill Sans" font-size="26.0" fill="#000000" transform="matrix(1.00, 0.00, -0.00, -1.00, 445.6, 513.0)">v</text><text xml:space="preserve" font-family="GillSans,Gill Sans" font-size="26.0" fill="#000000" transform="matrix(1.00, 0.00, -0.00, -1.00, 457.0, 513.0)">i</text><text xml:space="preserve" font-family="GillSans,Gill Sans" font-size="26.0" fill="#000000" transform="matrix(1.00, 0.00, -0.00, -1.00, 462.7, 513.0)">n</text><text xml:space="preserve" font-family="GillSans,Gill Sans" font-size="26.0" fill="#000000" transform="matrix(1.00, 0.00, -0.00, -1.00, 475.7, 513.0)">g</text><text xml:space="preserve" font-family="GillSans,Gill Sans" font-size="26.0" fill="#000000" transform="matrix(1.00, 0.00, -0.00, -1.00, 486.8, 513.0)"> </text><text xml:space="preserve" font-family="GillSans,Gill Sans" font-size="26.0" fill="#000000" transform="matrix(1.00, 0.00, -0.00, -1.00, 402.6, 483.0)">a</text><text xml:space="preserve" font-family="GillSans,Gill Sans" font-size="26.0" fill="#000000" transform="matrix(1.00, 0.00, -0.00, -1.00, 413.7, 483.0)">m</text><text xml:space="preserve" font-family="GillSans,Gill Sans" font-size="26.0" fill="#000000" transform="matrix(1.00, 0.00, -0.00, -1.00, 433.8, 483.0)">p</text><text xml:space="preserve" font-family="GillSans,Gill Sans" font-size="26.0" fill="#000000" transform="matrix(1.00, 0.00, -0.00, -1.00, 446.8, 483.0)">h</text><text xml:space="preserve" font-family="GillSans,Gill Sans" font-size="26.0" fill="#000000" transform="matrix(1.00, 0.00, -0.00, -1.00, 459.8, 483.0)">i</text><text xml:space="preserve" font-family="GillSans,Gill Sans" font-size="26.0" fill="#000000" transform="matrix(1.00, 0.00, -0.00, -1.00, 465.5, 483.0)">b</text><text xml:space="preserve" font-family="GillSans,Gill Sans" font-size="26.0" fill="#000000" transform="matrix(1.00, 0.00, -0.00, -1.00, 478.5, 483.0)">i</text><text xml:space="preserve" font-family="GillSans,Gill Sans" font-size="26.0" fill="#000000" transform="matrix(1.00, 0.00, -0.00, -1.00, 484.2, 483.0)">a</text><text xml:space="preserve" font-family="GillSans,Gill Sans" font-size="26.0" fill="#000000" transform="matrix(1.00, 0.00, -0.00, -1.00, 495.3, 483.0)">n</text><text xml:space="preserve" font-family="GillSans,Gill Sans" font-size="26.0" fill="#000000" transform="matrix(1.00, 0.00, -0.00, -1.00, 508.3, 483.0)">s</text><g opacity="0.50"><g><clipPath id="clip0x6000026b99e0"><path d="M 444.0 290.0 L 478.0 290.0 L 478.0 324.0 L 444.0 324.0 Z M 444.0 290.0 "></path></clipPath><g clip-path="url(#clip0x6000026b99e0)"><path d="M 471.6 317.6 C 477.5 311.7 477.5 302.3 471.6 296.4 C 465.7 290.5 456.3 290.5 450.4 296.4 C 444.5 302.3 444.5 311.7 450.4 317.6 C 456.3 323.5 465.7 323.5 471.6 317.6 " fill="#001D57"></path><path d="M 25.6 4.4 C 31.5 10.3 31.5 19.7 25.6 25.6 C 19.7 31.5 10.3 31.5 4.4 25.6 C -1.5 19.7 -1.5 10.3 4.4 4.4 C 10.3 -1.5 19.7 -1.5 25.6 4.4 " fill="none" stroke="#000000" stroke-width="2.00" transform="matrix(1.00, 0.00, 0.00, -1.00, 446.0, 322.0)"></path></g></g></g><g opacity="0.50"><g><clipPath id="clip0x6000026b9d40"><path d="M 370.0 150.0 L 404.0 150.0 L 404.0 184.0 L 370.0 184.0 Z M 370.0 150.0 "></path></clipPath><g clip-path="url(#clip0x6000026b9d40)"><path d="M 397.6 177.6 C 403.5 171.7 403.5 162.3 397.6 156.4 C 391.7 150.5 382.3 150.5 376.4 156.4 C 370.5 162.3 370.5 171.7 376.4 177.6 C 382.3 183.5 391.7 183.5 397.6 177.6 " fill="#D48400"></path><path d="M 25.6 4.4 C 31.5 10.3 31.5 19.7 25.6 25.6 C 19.7 31.5 10.3 31.5 4.4 25.6 C -1.5 19.7 -1.5 10.3 4.4 4.4 C 10.3 -1.5 19.7 -1.5 25.6 4.4 " fill="none" stroke="#000000" stroke-width="2.00" transform="matrix(1.00, 0.00, 0.00, -1.00, 372.0, 182.0)"></path></g></g></g><g><clipPath id="clip0x6000026ba040"><path d="M 353.0 238.3 L 429.3 238.3 L 429.3 370.7 L 353.0 370.7 Z M 353.0 238.3 "></path></clipPath><g clip-path="url(#clip0x6000026ba040)"><path d="M 71.7 129.0 L 0.0 0.0 " fill="none" stroke="#000000" stroke-width="3.00" transform="matrix(1.00, 0.00, 0.00, -1.00, 355.3, 369.0)"></path></g></g><g><clipPath id="clip0x6000026ba280"><path d="M 333.0 372.5 L 387.0 372.5 L 387.0 413.0 L 333.0 413.0 Z M 333.0 372.5 "></path></clipPath><g clip-path="url(#clip0x6000026ba280)"><image xlink:href="../../BAB10D20-BE49-4674-8D05-A0AF274C6747/assets/D3D6822D89C1824A4D825A2FC2228DC4.png" width="200.00" height="150.00" transform="matrix(0.27, 0.00, -0.00, -0.27, 333.0, 413.0)"></image></g></g><g><clipPath id="clip0x6080024a0de0"><path d="M 305.8 401.8 L 414.4 401.8 L 414.4 427.2 L 305.8 427.2 Z M 305.8 401.8 "></path></clipPath><g clip-path="url(#clip0x6080024a0de0)"><text xml:space="preserve" font-family="Helvetica-BoldOblique,Helvetica" font-style="italic" font-weight="bold" font-size="13.0" fill="#000000" transform="matrix(1.00, 0.00, -0.00, -1.00, 309.0, 411.0)">T</text><text xml:space="preserve" font-family="Helvetica-BoldOblique,Helvetica" font-style="italic" font-weight="bold" font-size="13.0" fill="#000000" transform="matrix(1.00, 0.00, -0.00, -1.00, 316.2, 411.0)">r</text><text xml:space="preserve" font-family="Helvetica-BoldOblique,Helvetica" font-style="italic" font-weight="bold" font-size="13.0" fill="#000000" transform="matrix(1.00, 0.00, -0.00, -1.00, 321.3, 411.0)">i</text><text xml:space="preserve" font-family="Helvetica-BoldOblique,Helvetica" font-style="italic" font-weight="bold" font-size="13.0" fill="#000000" transform="matrix(1.00, 0.00, -0.00, -1.00, 324.9, 411.0)">a</text><text xml:space="preserve" font-family="Helvetica-BoldOblique,Helvetica" font-style="italic" font-weight="bold" font-size="13.0" fill="#000000" transform="matrix(1.00, 0.00, -0.00, -1.00, 332.1, 411.0)">d</text><text xml:space="preserve" font-family="Helvetica-BoldOblique,Helvetica" font-style="italic" font-weight="bold" font-size="13.0" fill="#000000" transform="matrix(1.00, 0.00, -0.00, -1.00, 340.1, 411.0)">o</text><text xml:space="preserve" font-family="Helvetica-BoldOblique,Helvetica" font-style="italic" font-weight="bold" font-size="13.0" fill="#000000" transform="matrix(1.00, 0.00, -0.00, -1.00, 348.0, 411.0)">b</text><text xml:space="preserve" font-family="Helvetica-BoldOblique,Helvetica" font-style="italic" font-weight="bold" font-size="13.0" fill="#000000" transform="matrix(1.00, 0.00, -0.00, -1.00, 355.9, 411.0)">a</text><text xml:space="preserve" font-family="Helvetica-BoldOblique,Helvetica" font-style="italic" font-weight="bold" font-size="13.0" fill="#000000" transform="matrix(1.00, 0.00, -0.00, -1.00, 363.2, 411.0)">t</text><text xml:space="preserve" font-family="Helvetica-BoldOblique,Helvetica" font-style="italic" font-weight="bold" font-size="13.0" fill="#000000" transform="matrix(1.00, 0.00, -0.00, -1.00, 367.5, 411.0)">r</text><text xml:space="preserve" font-family="Helvetica-BoldOblique,Helvetica" font-style="italic" font-weight="bold" font-size="13.0" fill="#000000" transform="matrix(1.00, 0.00, -0.00, -1.00, 372.6, 411.0)">a</text><text xml:space="preserve" font-family="Helvetica-BoldOblique,Helvetica" font-style="italic" font-weight="bold" font-size="13.0" fill="#000000" transform="matrix(1.00, 0.00, -0.00, -1.00, 379.8, 411.0)">c</text><text xml:space="preserve" font-family="Helvetica-BoldOblique,Helvetica" font-style="italic" font-weight="bold" font-size="13.0" fill="#000000" transform="matrix(1.00, 0.00, -0.00, -1.00, 387.0, 411.0)">h</text><text xml:space="preserve" font-family="Helvetica-BoldOblique,Helvetica" font-style="italic" font-weight="bold" font-size="13.0" fill="#000000" transform="matrix(1.00, 0.00, -0.00, -1.00, 395.0, 411.0)">u</text><text xml:space="preserve" font-family="Helvetica-BoldOblique,Helvetica" font-style="italic" font-weight="bold" font-size="13.0" fill="#000000" transform="matrix(1.00, 0.00, -0.00, -1.00, 402.9, 411.0)">s</text></g></g><g><clipPath id="clip0x6000026ba2e0"><path d="M -16.0 -12.0 L 103.0 -12.0 L 103.0 77.2 L -16.0 77.2 Z M -16.0 -12.0 "></path></clipPath><g clip-path="url(#clip0x6000026ba2e0)"><image xlink:href="../../BAB10D20-BE49-4674-8D05-A0AF274C6747/assets/D3D6822D89C1824A4D825A2FC2228DC4.png" width="200.00" height="150.00" transform="matrix(0.59, 0.00, -0.00, -0.59, -16.0, 77.0)"></image></g></g><g><clipPath id="clip0x6080024a1860"><path d="M 94.5 6.0 L 362.0 6.0 L 362.0 152.0 L 94.5 152.0 Z M 94.5 6.0 "></path></clipPath><g clip-path="url(#clip0x6080024a1860)"><path d="M 239.5 150.0 C 172.9 150.0 119.0 118.2 119.0 79.0 C 119.0 73.3 120.3 67.7 122.5 62.3 L 99.0 50.0 L 131.6 47.5 C 151.3 24.1 192.2 8.0 239.5 8.0 C 306.1 8.0 360.0 39.8 360.0 79.0 C 360.0 118.2 306.1 150.0 239.5 150.0 Z M 239.5 150.0 " fill="#95D25F"></path><path d="M 120.5 0.0 C 53.9 0.0 0.0 31.8 0.0 71.0 C 0.0 76.7 1.3 82.3 3.5 87.7 L -20.0 100.0 L 12.6 102.5 C 32.3 125.9 73.2 142.0 120.5 142.0 C 187.1 142.0 241.0 110.2 241.0 71.0 C 241.0 31.8 187.1 0.0 120.5 0.0 Z M 120.5 0.0 " fill="none" stroke="#000000" stroke-width="2.00" transform="matrix(1.00, 0.00, 0.00, -1.00, 119.0, 150.0)"></path></g></g><image xlink:href="../../BAB10D20-BE49-4674-8D05-A0AF274C6747/assets/C1B0C3B1BA3F1ECFECE4C13BCA666DC0.png" width="218.00" height="23.00" transform="matrix(1.00, 0.00, -0.00, -1.00, 131.0, 98.0)"></image><g><clipPath id="clip0x6080024a1980"><path d="M 119.0 8.0 L 360.0 8.0 L 360.0 150.0 L 119.0 150.0 Z M 119.0 8.0 "></path></clipPath><g clip-path="url(#clip0x6080024a1980)"><text xml:space="preserve" font-family="GillSans,Gill Sans" font-size="18.0" fill="#FFFFFF" transform="matrix(1.00, 0.00, -0.00, -1.00, 132.8, 83.1)">I</text><text xml:space="preserve" font-family="GillSans,Gill Sans" font-size="18.0" fill="#FFFFFF" transform="matrix(1.00, 0.00, -0.00, -1.00, 137.3, 83.1)"> </text><text xml:space="preserve" font-family="GillSans,Gill Sans" font-size="18.0" fill="#FFFFFF" transform="matrix(1.00, 0.00, -0.00, -1.00, 142.3, 83.1)">a</text><text xml:space="preserve" font-family="GillSans,Gill Sans" font-size="18.0" fill="#FFFFFF" transform="matrix(1.00, 0.00, -0.00, -1.00, 150.0, 83.1)">m</text><text xml:space="preserve" font-family="GillSans,Gill Sans" font-size="18.0" fill="#FFFFFF" transform="matrix(1.00, 0.00, -0.00, -1.00, 163.9, 83.1)"> </text><text xml:space="preserve" font-family="GillSans,Gill Sans" font-size="18.0" fill="#FFFFFF" transform="matrix(1.00, 0.00, -0.00, -1.00, 168.9, 83.1)">a</text><text xml:space="preserve" font-family="GillSans,Gill Sans" font-size="18.0" fill="#FFFFFF" transform="matrix(1.00, 0.00, -0.00, -1.00, 176.6, 83.1)">n</text><text xml:space="preserve" font-family="GillSans,Gill Sans" font-size="18.0" fill="#FFFFFF" transform="matrix(1.00, 0.00, -0.00, -1.00, 185.6, 83.1)"> </text><text xml:space="preserve" font-family="GillSans,Gill Sans" font-size="18.0" fill="#FFFFFF" transform="matrix(1.00, 0.00, -0.00, -1.00, 190.6, 83.1)">a</text><text xml:space="preserve" font-family="GillSans,Gill Sans" font-size="18.0" fill="#FFFFFF" transform="matrix(1.00, 0.00, -0.00, -1.00, 198.3, 83.1)">m</text><text xml:space="preserve" font-family="GillSans,Gill Sans" font-size="18.0" fill="#FFFFFF" transform="matrix(1.00, 0.00, -0.00, -1.00, 212.1, 83.1)">p</text><text xml:space="preserve" font-family="GillSans,Gill Sans" font-size="18.0" fill="#FFFFFF" transform="matrix(1.00, 0.00, -0.00, -1.00, 221.1, 83.1)">h</text><text xml:space="preserve" font-family="GillSans,Gill Sans" font-size="18.0" fill="#FFFFFF" transform="matrix(1.00, 0.00, -0.00, -1.00, 230.1, 83.1)">i</text><text xml:space="preserve" font-family="GillSans,Gill Sans" font-size="18.0" fill="#FFFFFF" transform="matrix(1.00, 0.00, -0.00, -1.00, 234.1, 83.1)">b</text><text xml:space="preserve" font-family="GillSans,Gill Sans" font-size="18.0" fill="#FFFFFF" transform="matrix(1.00, 0.00, -0.00, -1.00, 243.1, 83.1)">i</text><text xml:space="preserve" font-family="GillSans,Gill Sans" font-size="18.0" fill="#FFFFFF" transform="matrix(1.00, 0.00, -0.00, -1.00, 247.0, 83.1)">a</text><text xml:space="preserve" font-family="GillSans,Gill Sans" font-size="18.0" fill="#FFFFFF" transform="matrix(1.00, 0.00, -0.00, -1.00, 254.7, 83.1)">n</text><text xml:space="preserve" font-family="GillSans,Gill Sans" font-size="18.0" fill="#FFFFFF" transform="matrix(1.00, 0.00, -0.00, -1.00, 263.7, 83.1)"> </text><text xml:space="preserve" font-family="GillSans,Gill Sans" font-size="18.0" fill="#FFFFFF" transform="matrix(1.00, 0.00, -0.00, -1.00, 268.7, 83.1)">-</text><text xml:space="preserve" font-family="GillSans,Gill Sans" font-size="18.0" fill="#FFFFFF" transform="matrix(1.00, 0.00, -0.00, -1.00, 274.5, 83.1)"> </text><text xml:space="preserve" font-family="GillSans,Gill Sans" font-size="18.0" fill="#FFFFFF" transform="matrix(1.00, 0.00, -0.00, -1.00, 279.5, 83.1)">b</text><text xml:space="preserve" font-family="GillSans,Gill Sans" font-size="18.0" fill="#FFFFFF" transform="matrix(1.00, 0.00, -0.00, -1.00, 288.5, 83.1)">u</text><text xml:space="preserve" font-family="GillSans,Gill Sans" font-size="18.0" fill="#FFFFFF" transform="matrix(1.00, 0.00, -0.00, -1.00, 297.5, 83.1)">t</text><text xml:space="preserve" font-family="GillSans,Gill Sans" font-size="18.0" fill="#FFFFFF" transform="matrix(1.00, 0.00, -0.00, -1.00, 303.5, 83.1)"> </text><text xml:space="preserve" font-family="GillSans,Gill Sans" font-size="18.0" fill="#FFFFFF" transform="matrix(1.00, 0.00, -0.00, -1.00, 308.5, 83.1)">n</text><text xml:space="preserve" font-family="GillSans,Gill Sans" font-size="18.0" fill="#FFFFFF" transform="matrix(1.00, 0.00, -0.00, -1.00, 317.5, 83.1)">o</text><text xml:space="preserve" font-family="GillSans,Gill Sans" font-size="18.0" fill="#FFFFFF" transform="matrix(1.00, 0.00, -0.00, -1.00, 327.4, 83.1)">t</text><text xml:space="preserve" font-family="GillSans,Gill Sans" font-size="18.0" fill="#FFFFFF" transform="matrix(1.00, 0.00, -0.00, -1.00, 333.4, 83.1)"> </text><text xml:space="preserve" font-family="GillSans,Gill Sans" font-size="18.0" fill="#FFFFFF" transform="matrix(1.00, 0.00, -0.00, -1.00, 338.4, 83.1)">a</text><text xml:space="preserve" font-family="GillSans,Gill Sans" font-size="18.0" fill="#FFFFFF" transform="matrix(1.00, 0.00, -0.00, -1.00, 346.1, 83.1)"> </text></g></g><image xlink:href="../../BAB10D20-BE49-4674-8D05-A0AF274C6747/assets/81BA5DB3E016110EBA444E3E632DE32F.png" width="105.00" height="23.00" transform="matrix(1.00, 0.00, -0.00, -1.00, 187.0, 77.0)"></image><g><clipPath id="clip0x6000026baca0"><path d="M 119.0 8.0 L 360.0 8.0 L 360.0 150.0 L 119.0 150.0 Z M 119.0 8.0 "></path></clipPath><g clip-path="url(#clip0x6000026baca0)"><text xml:space="preserve" font-family="GillSans,Gill Sans" font-size="18.0" fill="#FFFFFF" transform="matrix(1.00, 0.00, -0.00, -1.00, 189.6, 62.1)">l</text><text xml:space="preserve" font-family="GillSans,Gill Sans" font-size="18.0" fill="#FFFFFF" transform="matrix(1.00, 0.00, -0.00, -1.00, 193.6, 62.1)">i</text><text xml:space="preserve" font-family="GillSans,Gill Sans" font-size="18.0" fill="#FFFFFF" transform="matrix(1.00, 0.00, -0.00, -1.00, 197.5, 62.1)">s</text><text xml:space="preserve" font-family="GillSans,Gill Sans" font-size="18.0" fill="#FFFFFF" transform="matrix(1.00, 0.00, -0.00, -1.00, 204.4, 62.1)">s</text><text xml:space="preserve" font-family="GillSans,Gill Sans" font-size="18.0" fill="#FFFFFF" transform="matrix(1.00, 0.00, -0.00, -1.00, 211.4, 62.1)">a</text><text xml:space="preserve" font-family="GillSans,Gill Sans" font-size="18.0" fill="#FFFFFF" transform="matrix(1.00, 0.00, -0.00, -1.00, 219.0, 62.1)">m</text><text xml:space="preserve" font-family="GillSans,Gill Sans" font-size="18.0" fill="#FFFFFF" transform="matrix(1.00, 0.00, -0.00, -1.00, 232.9, 62.1)">p</text><text xml:space="preserve" font-family="GillSans,Gill Sans" font-size="18.0" fill="#FFFFFF" transform="matrix(1.00, 0.00, -0.00, -1.00, 241.9, 62.1)">h</text><text xml:space="preserve" font-family="GillSans,Gill Sans" font-size="18.0" fill="#FFFFFF" transform="matrix(1.00, 0.00, -0.00, -1.00, 250.9, 62.1)">i</text><text xml:space="preserve" font-family="GillSans,Gill Sans" font-size="18.0" fill="#FFFFFF" transform="matrix(1.00, 0.00, -0.00, -1.00, 254.9, 62.1)">b</text><text xml:space="preserve" font-family="GillSans,Gill Sans" font-size="18.0" fill="#FFFFFF" transform="matrix(1.00, 0.00, -0.00, -1.00, 263.9, 62.1)">i</text><text xml:space="preserve" font-family="GillSans,Gill Sans" font-size="18.0" fill="#FFFFFF" transform="matrix(1.00, 0.00, -0.00, -1.00, 267.8, 62.1)">a</text><text xml:space="preserve" font-family="GillSans,Gill Sans" font-size="18.0" fill="#FFFFFF" transform="matrix(1.00, 0.00, -0.00, -1.00, 275.5, 62.1)">n</text><text xml:space="preserve" font-family="GillSans,Gill Sans" font-size="18.0" fill="#FFFFFF" transform="matrix(1.00, 0.00, -0.00, -1.00, 284.5, 62.1)">!</text></g></g></g></svg>