<?xml version="1.0" encoding="UTF-8" standalone="no"?><svg xmlns="http://www.w3.org/2000/svg" xmlns:xlink="http://www.w3.org/1999/xlink" clip-rule="evenodd" stroke-miterlimit="10" viewBox="0 0 1024 768"><desc>SVG generated by Keynote</desc><defs></defs><g transform="matrix(1.00, 0.00, -0.00, -1.00, 0.0, 768.0)"><path d="M 0.0 768.0 L 1024.0 768.0 L 1024.0 0.0 L 0.0 0.0 Z M 0.0 768.0 " fill="#FEFFFF"></path><text xml:space="preserve" font-family="ArialMT,Arial" font-size="62.0" fill="#000000" transform="matrix(1.00, 0.00, -0.00, -1.00, 358.6, 614.2)">T</text><text xml:space="preserve" font-family="ArialMT,Arial" font-size="62.0" fill="#000000" transform="matrix(1.00, 0.00, -0.00, -1.00, 389.6, 614.2)">a</text><text xml:space="preserve" font-family="ArialMT,Arial" font-size="62.0" fill="#000000" transform="matrix(1.00, 0.00, -0.00, -1.00, 424.1, 614.2)">i</text><text xml:space="preserve" font-family="ArialMT,Arial" font-size="62.0" fill="#000000" transform="matrix(1.00, 0.00, -0.00, -1.00, 437.9, 614.2)">l</text><text xml:space="preserve" font-family="ArialMT,Arial" font-size="62.0" fill="#000000" transform="matrix(1.00, 0.00, -0.00, -1.00, 451.7, 614.2)">e</text><text xml:space="preserve" font-family="ArialMT,Arial" font-size="62.0" fill="#000000" transform="matrix(1.00, 0.00, -0.00, -1.00, 486.2, 614.2)">d</text><text xml:space="preserve" font-family="ArialMT,Arial" font-size="62.0" fill="#000000" transform="matrix(1.00, 0.00, -0.00, -1.00, 520.7, 614.2)"> </text><text xml:space="preserve" font-family="ArialMT,Arial" font-size="62.0" fill="#000000" transform="matrix(1.00, 0.00, -0.00, -1.00, 537.9, 614.2)">F</text><text xml:space="preserve" font-family="ArialMT,Arial" font-size="62.0" fill="#000000" transform="matrix(1.00, 0.00, -0.00, -1.00, 575.8, 614.2)">r</text><text xml:space="preserve" font-family="ArialMT,Arial" font-size="62.0" fill="#000000" transform="matrix(1.00, 0.00, -0.00, -1.00, 596.4, 614.2)">o</text><text xml:space="preserve" font-family="ArialMT,Arial" font-size="62.0" fill="#000000" transform="matrix(1.00, 0.00, -0.00, -1.00, 630.9, 614.2)">g</text><g><clipPath id="clip0x7fbd93125010"><path d="M 51.0 162.0 L 495.0 162.0 L 495.0 461.0 L 51.0 461.0 Z M 51.0 162.0 "></path></clipPath><g clip-path="url(#clip0x7fbd93125010)"><path d="M 51.0 461.0 L 495.0 461.0 L 495.0 162.0 L 51.0 162.0 Z M 51.0 461.0 " fill="#FFFFFF"></path><image xlink:href="../../716A5E89-44BC-42BB-99BE-09CAF5C2CA05/assets/F24242E11B6B621C83B0EF8D1B62BAB3.png" width="596.00" height="402.00" transform="matrix(0.74, 0.00, -0.00, -0.74, 51.0, 461.0)"></image></g></g><g><clipPath id="clip0x7fbd9312b1f0"><path d="M 521.0 167.0 L 973.0 167.0 L 973.0 469.0 L 521.0 469.0 Z M 521.0 167.0 "></path></clipPath><g clip-path="url(#clip0x7fbd9312b1f0)"><path d="M 521.0 469.0 L 973.0 469.0 L 973.0 167.0 L 521.0 167.0 Z M 521.0 469.0 " fill="#FFFFFF"></path><image xlink:href="../../716A5E89-44BC-42BB-99BE-09CAF5C2CA05/assets/19E7FDDC729EA277480CD7A3B6297C0A.png" width="600.00" height="401.00" transform="matrix(0.75, 0.00, -0.00, -0.75, 521.0, 469.0)"></image></g></g></g></svg>