<?xml version="1.0" encoding="UTF-8" standalone="no"?><svg xmlns="http://www.w3.org/2000/svg" xmlns:xlink="http://www.w3.org/1999/xlink" clip-rule="evenodd" stroke-miterlimit="4.00" viewBox="0 0 720 540"><desc>SVG generated by Keynote</desc><defs></defs><g transform="matrix(1.00, 0.00, -0.00, -1.00, 0.0, 540.0)"><path d="M 0.0 540.0 L 720.0 540.0 L 720.0 0.0 L 0.0 0.0 Z M 0.0 540.0 " fill="#FEFFFF"></path><text xml:space="preserve" font-family="ArialMT" font-size="44.0" fill="#000000" transform="matrix(1.00, 0.00, -0.00, -1.00, 137.0, 432.0)">E</text><text xml:space="preserve" font-family="ArialMT" font-size="44.0" fill="#000000" transform="matrix(1.00, 0.00, -0.00, -1.00, 166.3, 432.0)">x</text><text xml:space="preserve" font-family="ArialMT" font-size="44.0" fill="#000000" transform="matrix(1.00, 0.00, -0.00, -1.00, 188.3, 432.0)">a</text><text xml:space="preserve" font-family="ArialMT" font-size="44.0" fill="#000000" transform="matrix(1.00, 0.00, -0.00, -1.00, 212.8, 432.0)">m</text><text xml:space="preserve" font-family="ArialMT" font-size="44.0" fill="#000000" transform="matrix(1.00, 0.00, -0.00, -1.00, 249.5, 432.0)">p</text><text xml:space="preserve" font-family="ArialMT" font-size="44.0" fill="#000000" transform="matrix(1.00, 0.00, -0.00, -1.00, 274.0, 432.0)">l</text><text xml:space="preserve" font-family="ArialMT" font-size="44.0" fill="#000000" transform="matrix(1.00, 0.00, -0.00, -1.00, 283.7, 432.0)">e</text><text xml:space="preserve" font-family="ArialMT" font-size="44.0" fill="#000000" transform="matrix(1.00, 0.00, -0.00, -1.00, 308.2, 432.0)">:</text><text xml:space="preserve" font-family="ArialMT" font-size="44.0" fill="#000000" transform="matrix(1.00, 0.00, -0.00, -1.00, 320.4, 432.0)"> </text><text xml:space="preserve" font-family="ArialMT" font-size="44.0" fill="#000000" transform="matrix(1.00, 0.00, -0.00, -1.00, 331.9, 432.0)">T</text><text xml:space="preserve" font-family="ArialMT" font-size="44.0" fill="#000000" transform="matrix(1.00, 0.00, -0.00, -1.00, 358.7, 432.0)">ú</text><text xml:space="preserve" font-family="ArialMT" font-size="44.0" fill="#000000" transform="matrix(1.00, 0.00, -0.00, -1.00, 383.2, 432.0)">n</text><text xml:space="preserve" font-family="ArialMT" font-size="44.0" fill="#000000" transform="matrix(1.00, 0.00, -0.00, -1.00, 407.7, 432.0)">g</text><text xml:space="preserve" font-family="ArialMT" font-size="44.0" fill="#000000" transform="matrix(1.00, 0.00, -0.00, -1.00, 432.2, 432.0)">a</text><text xml:space="preserve" font-family="ArialMT" font-size="44.0" fill="#000000" transform="matrix(1.00, 0.00, -0.00, -1.00, 456.6, 432.0)">r</text><text xml:space="preserve" font-family="ArialMT" font-size="44.0" fill="#000000" transform="matrix(1.00, 0.00, -0.00, -1.00, 471.3, 432.0)">a</text><text xml:space="preserve" font-family="ArialMT" font-size="44.0" fill="#000000" transform="matrix(1.00, 0.00, -0.00, -1.00, 495.8, 432.0)"> </text><text xml:space="preserve" font-family="ArialMT" font-size="44.0" fill="#000000" transform="matrix(1.00, 0.00, -0.00, -1.00, 508.0, 432.0)">f</text><text xml:space="preserve" font-family="ArialMT" font-size="44.0" fill="#000000" transform="matrix(1.00, 0.00, -0.00, -1.00, 520.2, 432.0)">r</text><text xml:space="preserve" font-family="ArialMT" font-size="44.0" fill="#000000" transform="matrix(1.00, 0.00, -0.00, -1.00, 534.9, 432.0)">o</text><text xml:space="preserve" font-family="ArialMT" font-size="44.0" fill="#000000" transform="matrix(1.00, 0.00, -0.00, -1.00, 559.3, 432.0)">g</text><g><clipPath id="clip-109"><path d="M 42.0 109.0 L 390.0 109.0 L 390.0 354.0 L 42.0 354.0 Z M 42.0 109.0 "></path></clipPath><g clip-path="url(#clip-109)"><path d="M 42.0 354.0 L 390.0 354.0 L 390.0 109.0 L 42.0 109.0 Z M 42.0 354.0 " fill="#FFFFFF"></path><image xlink:href="B6329D3ACA0458958640D945854149E5.png" width="427.00" height="300.00" transform="matrix(0.81, 0.00, -0.00, -0.82, 42.0, 354.0)"></image></g></g><g><clipPath id="clip-110"><path d="M 402.0 34.0 L 702.0 34.0 L 702.0 402.0 L 402.0 402.0 Z M 402.0 34.0 "></path></clipPath><g clip-path="url(#clip-110)"><path d="M 402.0 402.0 L 702.0 402.0 L 702.0 34.0 L 402.0 34.0 Z M 402.0 402.0 " fill="#FFFFFF"></path><image xlink:href="../../BD1F4E45-164F-4446-B199-7D0D4C64D2CC/assets/532B8913E30769D3293637108A358D9D.png" width="300.00" height="368.00" transform="matrix(1.00, 0.00, -0.00, -1.00, 402.0, 402.0)"></image></g></g><text xml:space="preserve" font-family="Verdana" font-size="24.0" fill="#000000" transform="matrix(1.00, 0.00, -0.00, -1.00, 109.0, 62.0)">F</text><text xml:space="preserve" font-family="Verdana" font-size="24.0" fill="#000000" transform="matrix(1.00, 0.00, -0.00, -1.00, 122.8, 62.0)">r</text><text xml:space="preserve" font-family="Verdana" font-size="24.0" fill="#000000" transform="matrix(1.00, 0.00, -0.00, -1.00, 133.0, 62.0)">i</text><text xml:space="preserve" font-family="Verdana" font-size="24.0" fill="#000000" transform="matrix(1.00, 0.00, -0.00, -1.00, 139.6, 62.0)">n</text><text xml:space="preserve" font-family="Verdana" font-size="24.0" fill="#000000" transform="matrix(1.00, 0.00, -0.00, -1.00, 154.8, 62.0)">g</text><text xml:space="preserve" font-family="Verdana" font-size="24.0" fill="#000000" transform="matrix(1.00, 0.00, -0.00, -1.00, 169.8, 62.0)">e</text><text xml:space="preserve" font-family="Verdana" font-size="24.0" fill="#000000" transform="matrix(1.00, 0.00, -0.00, -1.00, 184.0, 62.0)">-</text><text xml:space="preserve" font-family="Verdana" font-size="24.0" fill="#000000" transform="matrix(1.00, 0.00, -0.00, -1.00, 194.9, 62.0)">l</text><text xml:space="preserve" font-family="Verdana" font-size="24.0" fill="#000000" transform="matrix(1.00, 0.00, -0.00, -1.00, 201.5, 62.0)">i</text><text xml:space="preserve" font-family="Verdana" font-size="24.0" fill="#000000" transform="matrix(1.00, 0.00, -0.00, -1.00, 208.1, 62.0)">p</text><text xml:space="preserve" font-family="Verdana" font-size="24.0" fill="#000000" transform="matrix(1.00, 0.00, -0.00, -1.00, 223.1, 62.0)">p</text><text xml:space="preserve" font-family="Verdana" font-size="24.0" fill="#000000" transform="matrix(1.00, 0.00, -0.00, -1.00, 238.0, 62.0)">e</text><text xml:space="preserve" font-family="Verdana" font-size="24.0" fill="#000000" transform="matrix(1.00, 0.00, -0.00, -1.00, 252.3, 62.0)">d</text><text xml:space="preserve" font-family="Verdana" font-size="24.0" fill="#000000" transform="matrix(1.00, 0.00, -0.00, -1.00, 267.3, 62.0)"> </text><text xml:space="preserve" font-family="Verdana" font-size="24.0" fill="#000000" transform="matrix(1.00, 0.00, -0.00, -1.00, 275.7, 62.0)">b</text><text xml:space="preserve" font-family="Verdana" font-size="24.0" fill="#000000" transform="matrix(1.00, 0.00, -0.00, -1.00, 290.7, 62.0)">a</text><text xml:space="preserve" font-family="Verdana" font-size="24.0" fill="#000000" transform="matrix(1.00, 0.00, -0.00, -1.00, 305.1, 62.0)">t</text><text xml:space="preserve" font-family="Verdana" font-size="24.0" fill="#000000" transform="matrix(1.00, 0.00, -0.00, -1.00, 314.5, 62.0)"> </text><text xml:space="preserve" font-family="Verdana-Italic" font-style="italic" font-size="24.0" fill="#000000" transform="matrix(1.00, 0.00, -0.00, -1.00, 109.0, 33.0)">T</text><text xml:space="preserve" font-family="Verdana-Italic" font-style="italic" font-size="24.0" fill="#000000" transform="matrix(1.00, 0.00, -0.00, -1.00, 123.8, 33.0)">r</text><text xml:space="preserve" font-family="Verdana-Italic" font-style="italic" font-size="24.0" fill="#000000" transform="matrix(1.00, 0.00, -0.00, -1.00, 134.0, 33.0)">a</text><text xml:space="preserve" font-family="Verdana-Italic" font-style="italic" font-size="24.0" fill="#000000" transform="matrix(1.00, 0.00, -0.00, -1.00, 148.4, 33.0)">c</text><text xml:space="preserve" font-family="Verdana-Italic" font-style="italic" font-size="24.0" fill="#000000" transform="matrix(1.00, 0.00, -0.00, -1.00, 160.9, 33.0)">h</text><text xml:space="preserve" font-family="Verdana-Italic" font-style="italic" font-size="24.0" fill="#000000" transform="matrix(1.00, 0.00, -0.00, -1.00, 176.1, 33.0)">o</text><text xml:space="preserve" font-family="Verdana-Italic" font-style="italic" font-size="24.0" fill="#000000" transform="matrix(1.00, 0.00, -0.00, -1.00, 190.7, 33.0)">p</text><text xml:space="preserve" font-family="Verdana-Italic" font-style="italic" font-size="24.0" fill="#000000" transform="matrix(1.00, 0.00, -0.00, -1.00, 205.6, 33.0)">s</text><text xml:space="preserve" font-family="Verdana-Italic" font-style="italic" font-size="24.0" fill="#000000" transform="matrix(1.00, 0.00, -0.00, -1.00, 218.1, 33.0)"> </text><text xml:space="preserve" font-family="Verdana-Italic" font-style="italic" font-size="24.0" fill="#000000" transform="matrix(1.00, 0.00, -0.00, -1.00, 226.6, 33.0)">c</text><text xml:space="preserve" font-family="Verdana-Italic" font-style="italic" font-size="24.0" fill="#000000" transform="matrix(1.00, 0.00, -0.00, -1.00, 239.1, 33.0)">i</text><text xml:space="preserve" font-family="Verdana-Italic" font-style="italic" font-size="24.0" fill="#000000" transform="matrix(1.00, 0.00, -0.00, -1.00, 245.7, 33.0)">r</text><text xml:space="preserve" font-family="Verdana-Italic" font-style="italic" font-size="24.0" fill="#000000" transform="matrix(1.00, 0.00, -0.00, -1.00, 255.9, 33.0)">r</text><text xml:space="preserve" font-family="Verdana-Italic" font-style="italic" font-size="24.0" fill="#000000" transform="matrix(1.00, 0.00, -0.00, -1.00, 266.1, 33.0)">h</text><text xml:space="preserve" font-family="Verdana-Italic" font-style="italic" font-size="24.0" fill="#000000" transform="matrix(1.00, 0.00, -0.00, -1.00, 281.3, 33.0)">o</text><text xml:space="preserve" font-family="Verdana-Italic" font-style="italic" font-size="24.0" fill="#000000" transform="matrix(1.00, 0.00, -0.00, -1.00, 295.9, 33.0)">s</text><text xml:space="preserve" font-family="Verdana-Italic" font-style="italic" font-size="24.0" fill="#000000" transform="matrix(1.00, 0.00, -0.00, -1.00, 308.4, 33.0)">u</text><text xml:space="preserve" font-family="Verdana-Italic" font-style="italic" font-size="24.0" fill="#000000" transform="matrix(1.00, 0.00, -0.00, -1.00, 323.6, 33.0)">s</text></g></svg>