<?xml version="1.0" encoding="UTF-8" standalone="no"?><svg xmlns="http://www.w3.org/2000/svg" xmlns:xlink="http://www.w3.org/1999/xlink" clip-rule="evenodd" stroke-miterlimit="4.00" viewBox="0 0 720 540"><desc>SVG generated by Keynote</desc><defs></defs><g transform="matrix(1.00, 0.00, -0.00, -1.00, 0.0, 540.0)"><path d="M 0.0 540.0 L 720.0 540.0 L 720.0 0.0 L 0.0 0.0 Z M 0.0 540.0 " fill="#FEFFFF"></path><text xml:space="preserve" font-family="ArialMT" font-size="44.0" fill="#000000" transform="matrix(1.00, 0.00, -0.00, -1.00, 194.0, 432.0)">C</text><text xml:space="preserve" font-family="ArialMT" font-size="44.0" fill="#000000" transform="matrix(1.00, 0.00, -0.00, -1.00, 225.8, 432.0)">a</text><text xml:space="preserve" font-family="ArialMT" font-size="44.0" fill="#000000" transform="matrix(1.00, 0.00, -0.00, -1.00, 250.3, 432.0)">u</text><text xml:space="preserve" font-family="ArialMT" font-size="44.0" fill="#000000" transform="matrix(1.00, 0.00, -0.00, -1.00, 274.7, 432.0)">d</text><text xml:space="preserve" font-family="ArialMT" font-size="44.0" fill="#000000" transform="matrix(1.00, 0.00, -0.00, -1.00, 299.2, 432.0)">a</text><text xml:space="preserve" font-family="ArialMT" font-size="44.0" fill="#000000" transform="matrix(1.00, 0.00, -0.00, -1.00, 323.7, 432.0)">l</text><text xml:space="preserve" font-family="ArialMT" font-size="44.0" fill="#000000" transform="matrix(1.00, 0.00, -0.00, -1.00, 333.5, 432.0)"> </text><text xml:space="preserve" font-family="ArialMT" font-size="44.0" fill="#000000" transform="matrix(1.00, 0.00, -0.00, -1.00, 345.7, 432.0)">a</text><text xml:space="preserve" font-family="ArialMT" font-size="44.0" fill="#000000" transform="matrix(1.00, 0.00, -0.00, -1.00, 370.2, 432.0)">u</text><text xml:space="preserve" font-family="ArialMT" font-size="44.0" fill="#000000" transform="matrix(1.00, 0.00, -0.00, -1.00, 394.7, 432.0)">t</text><text xml:space="preserve" font-family="ArialMT" font-size="44.0" fill="#000000" transform="matrix(1.00, 0.00, -0.00, -1.00, 406.9, 432.0)">o</text><text xml:space="preserve" font-family="ArialMT" font-size="44.0" fill="#000000" transform="matrix(1.00, 0.00, -0.00, -1.00, 431.4, 432.0)">t</text><text xml:space="preserve" font-family="ArialMT" font-size="44.0" fill="#000000" transform="matrix(1.00, 0.00, -0.00, -1.00, 443.6, 432.0)">o</text><text xml:space="preserve" font-family="ArialMT" font-size="44.0" fill="#000000" transform="matrix(1.00, 0.00, -0.00, -1.00, 468.1, 432.0)">m</text><text xml:space="preserve" font-family="ArialMT" font-size="44.0" fill="#000000" transform="matrix(1.00, 0.00, -0.00, -1.00, 504.7, 432.0)">y</text><image xlink:href="../../CE1F4E45-164F-4446-B199-7D0D4C64D2CC/assets/B06005B238CB41AEE6CF3864220BF87B.jpeg" width="396.00" height="292.00" transform="matrix(1.00, 0.00, -0.00, -1.00, 162.0, 360.0)"></image></g></svg>