<?xml version="1.0" encoding="UTF-8" standalone="no"?><svg xmlns="http://www.w3.org/2000/svg" xmlns:xlink="http://www.w3.org/1999/xlink" clip-rule="evenodd" stroke-miterlimit="4.00" viewBox="0 0 1024 768"><desc>SVG generated by Keynote</desc><defs></defs><g transform="matrix(1.00, 0.00, -0.00, -1.00, 0.0, 768.0)"><g><clipPath id="clip-607"><path d="M 0.0 768.0 L 1024.0 768.0 L 1024.0 0.0 L 0.0 0.0 Z M 0.0 768.0 "></path></clipPath><g clip-path="url(#clip-607)"><image xlink:href="../../C9BB2F21-7097-4279-8A02-40FCEE817F8A/assets/A7CD394FAC08D6D1529A4490C94CFB40.jpeg" width="1365.00" height="767.00" transform="matrix(2.81, 0.00, -0.00, -2.82, -1408.0, 1464.0)"></image></g></g><path d="M 0.0 0.0 L 980.0 0.0 L 980.0 726.0 L 0.0 726.0 Z M 0.0 0.0 " fill="none" stroke="#A2A0A6" stroke-width="2.00" transform="matrix(1.00, 0.00, 0.00, -1.00, 22.3, 746.0)"></path><g><clipPath id="clip-608"><path d="M 0.0 768.0 L 1024.0 768.0 L 1024.0 0.0 L 0.0 0.0 Z M 0.0 768.0 "></path></clipPath><g clip-path="url(#clip-608)"><image xlink:href="../../C9BB2F21-7097-4279-8A02-40FCEE817F8A/assets/A7CD394FAC08D6D1529A4490C94CFB40.jpeg" width="1365.00" height="767.00" transform="matrix(2.81, 0.00, -0.00, -2.82, -1408.0, 1464.0)"></image></g></g><path d="M 0.0 0.0 L 1024.0 0.0 L 1024.0 768.0 L 0.0 768.0 Z M 0.0 0.0 " fill="none" stroke="#000000" stroke-width="1.00" transform="matrix(1.00, 0.00, 0.00, -1.00, 0.0, 768.0)"></path><path d="M 0.0 0.0 L 980.0 0.0 L 980.0 726.0 L 0.0 726.0 Z M 0.0 0.0 " fill="none" stroke="#A2A0A6" stroke-width="2.00" transform="matrix(1.00, 0.00, 0.00, -1.00, 22.3, 746.0)"></path><image xlink:href="../../C3C32F21-7097-4279-8A02-40FCEE817F8A/assets/1AF4FF8F45CA2CC7F24F3E965AB49A29.png" width="474.00" height="432.00" transform="matrix(1.00, 0.00, -0.00, -1.00, 25.0, 748.0)"></image><image xlink:href="../../C3C32F21-7097-4279-8A02-40FCEE817F8A/assets/C3FA8067663A7BA03F998439923D093E.png" width="473.00" height="210.00" transform="matrix(1.00, 0.00, -0.00, -1.00, 32.0, 316.0)"></image><image xlink:href="../../C3C32F21-7097-4279-8A02-40FCEE817F8A/assets/0581B30D7FB25E4262C230BB46134264.png" width="501.00" height="395.00" transform="matrix(1.00, 0.00, -0.00, -1.00, 503.0, 745.0)"></image><image xlink:href="../../C3C32F21-7097-4279-8A02-40FCEE817F8A/assets/20B37B8A4F778F1613EA973539A11EF3.png" width="442.00" height="164.00" transform="matrix(1.00, 0.00, -0.00, -1.00, 511.0, 348.0)"></image><text xml:space="preserve" font-family="HelveticaNeue-CondensedBold" font-weight="bold" font-size="32.0" fill="#5B88A5" transform="matrix(1.00, 0.00, -0.00, -1.00, 108.0, 39.0)">H</text><text xml:space="preserve" font-family="HelveticaNeue-CondensedBold" font-weight="bold" font-size="32.0" fill="#5B88A5" transform="matrix(1.00, 0.00, -0.00, -1.00, 125.8, 39.0)">T</text><text xml:space="preserve" font-family="HelveticaNeue-CondensedBold" font-weight="bold" font-size="32.0" fill="#5B88A5" transform="matrix(1.00, 0.00, -0.00, -1.00, 141.2, 39.0)">T</text><text xml:space="preserve" font-family="HelveticaNeue-CondensedBold" font-weight="bold" font-size="32.0" fill="#5B88A5" transform="matrix(1.00, 0.00, -0.00, -1.00, 156.5, 39.0)">P</text><text xml:space="preserve" font-family="HelveticaNeue-CondensedBold" font-weight="bold" font-size="32.0" fill="#5B88A5" transform="matrix(1.00, 0.00, -0.00, -1.00, 173.1, 39.0)">:</text><text xml:space="preserve" font-family="HelveticaNeue-CondensedBold" font-weight="bold" font-size="32.0" fill="#5B88A5" transform="matrix(1.00, 0.00, -0.00, -1.00, 180.8, 39.0)">/</text><text xml:space="preserve" font-family="HelveticaNeue-CondensedBold" font-weight="bold" font-size="32.0" fill="#5B88A5" transform="matrix(1.00, 0.00, -0.00, -1.00, 191.4, 39.0)">/</text><text xml:space="preserve" font-family="HelveticaNeue-CondensedBold" font-weight="bold" font-size="32.0" fill="#5B88A5" transform="matrix(1.00, 0.00, -0.00, -1.00, 202.0, 39.0)">A</text><text xml:space="preserve" font-family="HelveticaNeue-CondensedBold" font-weight="bold" font-size="32.0" fill="#5B88A5" transform="matrix(1.00, 0.00, -0.00, -1.00, 219.8, 39.0)">M</text><text xml:space="preserve" font-family="HelveticaNeue-CondensedBold" font-weight="bold" font-size="32.0" fill="#5B88A5" transform="matrix(1.00, 0.00, -0.00, -1.00, 243.5, 39.0)">P</text><text xml:space="preserve" font-family="HelveticaNeue-CondensedBold" font-weight="bold" font-size="32.0" fill="#5B88A5" transform="matrix(1.00, 0.00, -0.00, -1.00, 260.1, 39.0)">H</text><text xml:space="preserve" font-family="HelveticaNeue-CondensedBold" font-weight="bold" font-size="32.0" fill="#5B88A5" transform="matrix(1.00, 0.00, -0.00, -1.00, 277.9, 39.0)">I</text><text xml:space="preserve" font-family="HelveticaNeue-CondensedBold" font-weight="bold" font-size="32.0" fill="#5B88A5" transform="matrix(1.00, 0.00, -0.00, -1.00, 286.2, 39.0)">B</text><text xml:space="preserve" font-family="HelveticaNeue-CondensedBold" font-weight="bold" font-size="32.0" fill="#5B88A5" transform="matrix(1.00, 0.00, -0.00, -1.00, 304.0, 39.0)">I</text><text xml:space="preserve" font-family="HelveticaNeue-CondensedBold" font-weight="bold" font-size="32.0" fill="#5B88A5" transform="matrix(1.00, 0.00, -0.00, -1.00, 312.2, 39.0)">A</text><text xml:space="preserve" font-family="HelveticaNeue-CondensedBold" font-weight="bold" font-size="32.0" fill="#5B88A5" transform="matrix(1.00, 0.00, -0.00, -1.00, 329.4, 39.0)">W</text><text xml:space="preserve" font-family="HelveticaNeue-CondensedBold" font-weight="bold" font-size="32.0" fill="#5B88A5" transform="matrix(1.00, 0.00, -0.00, -1.00, 353.7, 39.0)">E</text><text xml:space="preserve" font-family="HelveticaNeue-CondensedBold" font-weight="bold" font-size="32.0" fill="#5B88A5" transform="matrix(1.00, 0.00, -0.00, -1.00, 369.1, 39.0)">B</text><text xml:space="preserve" font-family="HelveticaNeue-CondensedBold" font-weight="bold" font-size="32.0" fill="#5B88A5" transform="matrix(1.00, 0.00, -0.00, -1.00, 386.9, 39.0)">.</text><text xml:space="preserve" font-family="HelveticaNeue-CondensedBold" font-weight="bold" font-size="32.0" fill="#5B88A5" transform="matrix(1.00, 0.00, -0.00, -1.00, 394.6, 39.0)">O</text><text xml:space="preserve" font-family="HelveticaNeue-CondensedBold" font-weight="bold" font-size="32.0" fill="#5B88A5" transform="matrix(1.00, 0.00, -0.00, -1.00, 412.4, 39.0)">R</text><text xml:space="preserve" font-family="HelveticaNeue-CondensedBold" font-weight="bold" font-size="32.0" fill="#5B88A5" transform="matrix(1.00, 0.00, -0.00, -1.00, 430.1, 39.0)">G</text><text xml:space="preserve" font-family="HelveticaNeue-CondensedBold" font-weight="bold" font-size="32.0" fill="#5B88A5" transform="matrix(1.00, 0.00, -0.00, -1.00, 447.9, 39.0)">/</text><text xml:space="preserve" font-family="HelveticaNeue-CondensedBold" font-weight="bold" font-size="32.0" fill="#5B88A5" transform="matrix(1.00, 0.00, -0.00, -1.00, 458.6, 39.0)">D</text><text xml:space="preserve" font-family="HelveticaNeue-CondensedBold" font-weight="bold" font-size="32.0" fill="#5B88A5" transform="matrix(1.00, 0.00, -0.00, -1.00, 476.9, 39.0)">E</text><text xml:space="preserve" font-family="HelveticaNeue-CondensedBold" font-weight="bold" font-size="32.0" fill="#5B88A5" transform="matrix(1.00, 0.00, -0.00, -1.00, 492.3, 39.0)">C</text><text xml:space="preserve" font-family="HelveticaNeue-CondensedBold" font-weight="bold" font-size="32.0" fill="#5B88A5" transform="matrix(1.00, 0.00, -0.00, -1.00, 509.5, 39.0)">L</text><text xml:space="preserve" font-family="HelveticaNeue-CondensedBold" font-weight="bold" font-size="32.0" fill="#5B88A5" transform="matrix(1.00, 0.00, -0.00, -1.00, 524.3, 39.0)">I</text><text xml:space="preserve" font-family="HelveticaNeue-CondensedBold" font-weight="bold" font-size="32.0" fill="#5B88A5" transform="matrix(1.00, 0.00, -0.00, -1.00, 532.6, 39.0)">N</text><text xml:space="preserve" font-family="HelveticaNeue-CondensedBold" font-weight="bold" font-size="32.0" fill="#5B88A5" transform="matrix(1.00, 0.00, -0.00, -1.00, 550.9, 39.0)">E</text><text xml:space="preserve" font-family="HelveticaNeue-CondensedBold" font-weight="bold" font-size="32.0" fill="#5B88A5" transform="matrix(1.00, 0.00, -0.00, -1.00, 566.3, 39.0)">S</text><text xml:space="preserve" font-family="HelveticaNeue-CondensedBold" font-weight="bold" font-size="32.0" fill="#5B88A5" transform="matrix(1.00, 0.00, -0.00, -1.00, 582.9, 39.0)">/</text><text xml:space="preserve" font-family="HelveticaNeue-CondensedBold" font-weight="bold" font-size="32.0" fill="#5B88A5" transform="matrix(1.00, 0.00, -0.00, -1.00, 593.6, 39.0)">C</text><text xml:space="preserve" font-family="HelveticaNeue-CondensedBold" font-weight="bold" font-size="32.0" fill="#5B88A5" transform="matrix(1.00, 0.00, -0.00, -1.00, 610.8, 39.0)">L</text><text xml:space="preserve" font-family="HelveticaNeue-CondensedBold" font-weight="bold" font-size="32.0" fill="#5B88A5" transform="matrix(1.00, 0.00, -0.00, -1.00, 625.6, 39.0)">I</text><text xml:space="preserve" font-family="HelveticaNeue-CondensedBold" font-weight="bold" font-size="32.0" fill="#5B88A5" transform="matrix(1.00, 0.00, -0.00, -1.00, 633.8, 39.0)">M</text><text xml:space="preserve" font-family="HelveticaNeue-CondensedBold" font-weight="bold" font-size="32.0" fill="#5B88A5" transform="matrix(1.00, 0.00, -0.00, -1.00, 657.5, 39.0)">A</text><text xml:space="preserve" font-family="HelveticaNeue-CondensedBold" font-weight="bold" font-size="32.0" fill="#5B88A5" transform="matrix(1.00, 0.00, -0.00, -1.00, 673.5, 39.0)">T</text><text xml:space="preserve" font-family="HelveticaNeue-CondensedBold" font-weight="bold" font-size="32.0" fill="#5B88A5" transform="matrix(1.00, 0.00, -0.00, -1.00, 688.9, 39.0)">E</text><text xml:space="preserve" font-family="HelveticaNeue-CondensedBold" font-weight="bold" font-size="32.0" fill="#5B88A5" transform="matrix(1.00, 0.00, -0.00, -1.00, 704.3, 39.0)">C</text><text xml:space="preserve" font-family="HelveticaNeue-CondensedBold" font-weight="bold" font-size="32.0" fill="#5B88A5" transform="matrix(1.00, 0.00, -0.00, -1.00, 721.5, 39.0)">H</text><text xml:space="preserve" font-family="HelveticaNeue-CondensedBold" font-weight="bold" font-size="32.0" fill="#5B88A5" transform="matrix(1.00, 0.00, -0.00, -1.00, 739.3, 39.0)">A</text><text xml:space="preserve" font-family="HelveticaNeue-CondensedBold" font-weight="bold" font-size="32.0" fill="#5B88A5" transform="matrix(1.00, 0.00, -0.00, -1.00, 757.1, 39.0)">N</text><text xml:space="preserve" font-family="HelveticaNeue-CondensedBold" font-weight="bold" font-size="32.0" fill="#5B88A5" transform="matrix(1.00, 0.00, -0.00, -1.00, 775.4, 39.0)">G</text><text xml:space="preserve" font-family="HelveticaNeue-CondensedBold" font-weight="bold" font-size="32.0" fill="#5B88A5" transform="matrix(1.00, 0.00, -0.00, -1.00, 793.2, 39.0)">E</text><text xml:space="preserve" font-family="HelveticaNeue-CondensedBold" font-weight="bold" font-size="32.0" fill="#5B88A5" transform="matrix(1.00, 0.00, -0.00, -1.00, 808.6, 39.0)">.</text><text xml:space="preserve" font-family="HelveticaNeue-CondensedBold" font-weight="bold" font-size="32.0" fill="#5B88A5" transform="matrix(1.00, 0.00, -0.00, -1.00, 816.3, 39.0)">H</text><text xml:space="preserve" font-family="HelveticaNeue-CondensedBold" font-weight="bold" font-size="32.0" fill="#5B88A5" transform="matrix(1.00, 0.00, -0.00, -1.00, 834.1, 39.0)">T</text><text xml:space="preserve" font-family="HelveticaNeue-CondensedBold" font-weight="bold" font-size="32.0" fill="#5B88A5" transform="matrix(1.00, 0.00, -0.00, -1.00, 849.4, 39.0)">M</text><text xml:space="preserve" font-family="HelveticaNeue-CondensedBold" font-weight="bold" font-size="32.0" fill="#5B88A5" transform="matrix(1.00, 0.00, -0.00, -1.00, 873.1, 39.0)">L</text><g><clipPath id="clip-609"><path d="M 106.5 34.0 L 887.4 34.0 L 887.4 37.6 L 106.5 37.6 Z M 106.5 34.0 "></path></clipPath><g clip-path="url(#clip-609)"><path d="M 4.5 38.2 L 784.4 38.2 " fill="none" stroke="#5B88A5" stroke-width="1.60" stroke-miterlimit="0.00" transform="matrix(1.00, 0.00, 0.00, -1.00, 103.0, 74.1)"></path></g></g></g></svg>