<?xml version="1.0" encoding="UTF-8" standalone="no"?><svg xmlns="http://www.w3.org/2000/svg" xmlns:xlink="http://www.w3.org/1999/xlink" clip-rule="evenodd" stroke-miterlimit="4.00" viewBox="0 0 720 540"><desc>SVG generated by Keynote</desc><defs></defs><g transform="matrix(1.00, 0.00, -0.00, -1.00, 0.0, 540.0)"><path d="M 0.0 540.0 L 720.0 540.0 L 720.0 0.0 L 0.0 0.0 Z M 0.0 540.0 " fill="#FEFFFF"></path><text xml:space="preserve" font-family="ArialMT" font-size="32.0" fill="#000000" transform="matrix(1.00, 0.00, -0.00, -1.00, 170.0, 454.0)">N</text><text xml:space="preserve" font-family="ArialMT" font-size="32.0" fill="#000000" transform="matrix(1.00, 0.00, -0.00, -1.00, 193.1, 454.0)">i</text><text xml:space="preserve" font-family="ArialMT" font-size="32.0" fill="#000000" transform="matrix(1.00, 0.00, -0.00, -1.00, 200.2, 454.0)">c</text><text xml:space="preserve" font-family="ArialMT" font-size="32.0" fill="#000000" transform="matrix(1.00, 0.00, -0.00, -1.00, 216.2, 454.0)">h</text><text xml:space="preserve" font-family="ArialMT" font-size="32.0" fill="#000000" transform="matrix(1.00, 0.00, -0.00, -1.00, 234.0, 454.0)">e</text><text xml:space="preserve" font-family="ArialMT" font-size="32.0" fill="#000000" transform="matrix(1.00, 0.00, -0.00, -1.00, 251.8, 454.0)"> </text><text xml:space="preserve" font-family="ArialMT" font-size="32.0" fill="#000000" transform="matrix(1.00, 0.00, -0.00, -1.00, 260.7, 454.0)">P</text><text xml:space="preserve" font-family="ArialMT" font-size="32.0" fill="#000000" transform="matrix(1.00, 0.00, -0.00, -1.00, 282.1, 454.0)">a</text><text xml:space="preserve" font-family="ArialMT" font-size="32.0" fill="#000000" transform="matrix(1.00, 0.00, -0.00, -1.00, 299.9, 454.0)">r</text><text xml:space="preserve" font-family="ArialMT" font-size="32.0" fill="#000000" transform="matrix(1.00, 0.00, -0.00, -1.00, 310.5, 454.0)">t</text><text xml:space="preserve" font-family="ArialMT" font-size="32.0" fill="#000000" transform="matrix(1.00, 0.00, -0.00, -1.00, 319.4, 454.0)">i</text><text xml:space="preserve" font-family="ArialMT" font-size="32.0" fill="#000000" transform="matrix(1.00, 0.00, -0.00, -1.00, 326.5, 454.0)">t</text><text xml:space="preserve" font-family="ArialMT" font-size="32.0" fill="#000000" transform="matrix(1.00, 0.00, -0.00, -1.00, 335.4, 454.0)">i</text><text xml:space="preserve" font-family="ArialMT" font-size="32.0" fill="#000000" transform="matrix(1.00, 0.00, -0.00, -1.00, 342.5, 454.0)">o</text><text xml:space="preserve" font-family="ArialMT" font-size="32.0" fill="#000000" transform="matrix(1.00, 0.00, -0.00, -1.00, 360.3, 454.0)">n</text><text xml:space="preserve" font-family="ArialMT" font-size="32.0" fill="#000000" transform="matrix(1.00, 0.00, -0.00, -1.00, 378.1, 454.0)">i</text><text xml:space="preserve" font-family="ArialMT" font-size="32.0" fill="#000000" transform="matrix(1.00, 0.00, -0.00, -1.00, 385.2, 454.0)">n</text><text xml:space="preserve" font-family="ArialMT" font-size="32.0" fill="#000000" transform="matrix(1.00, 0.00, -0.00, -1.00, 403.1, 454.0)">g</text><text xml:space="preserve" font-family="ArialMT" font-size="32.0" fill="#000000" transform="matrix(1.00, 0.00, -0.00, -1.00, 420.9, 454.0)"> </text><text xml:space="preserve" font-family="ArialMT" font-size="32.0" fill="#000000" transform="matrix(1.00, 0.00, -0.00, -1.00, 429.7, 454.0)">i</text><text xml:space="preserve" font-family="ArialMT" font-size="32.0" fill="#000000" transform="matrix(1.00, 0.00, -0.00, -1.00, 436.9, 454.0)">n</text><text xml:space="preserve" font-family="ArialMT" font-size="32.0" fill="#000000" transform="matrix(1.00, 0.00, -0.00, -1.00, 454.7, 454.0)"> </text><text xml:space="preserve" font-family="Arial-ItalicMT" font-style="italic" font-size="32.0" fill="#000000" transform="matrix(1.00, 0.00, -0.00, -1.00, 463.5, 454.0)">A</text><text xml:space="preserve" font-family="Arial-ItalicMT" font-style="italic" font-size="32.0" fill="#000000" transform="matrix(1.00, 0.00, -0.00, -1.00, 484.8, 454.0)">n</text><text xml:space="preserve" font-family="Arial-ItalicMT" font-style="italic" font-size="32.0" fill="#000000" transform="matrix(1.00, 0.00, -0.00, -1.00, 502.6, 454.0)">o</text><text xml:space="preserve" font-family="Arial-ItalicMT" font-style="italic" font-size="32.0" fill="#000000" transform="matrix(1.00, 0.00, -0.00, -1.00, 520.4, 454.0)">l</text><text xml:space="preserve" font-family="Arial-ItalicMT" font-style="italic" font-size="32.0" fill="#000000" transform="matrix(1.00, 0.00, -0.00, -1.00, 527.6, 454.0)">i</text><text xml:space="preserve" font-family="Arial-ItalicMT" font-style="italic" font-size="32.0" fill="#000000" transform="matrix(1.00, 0.00, -0.00, -1.00, 534.7, 454.0)">s</text><image xlink:href="../../A91F4E45-164F-4446-B199-7D0D4C64D2CC/assets/BCBE019C6AE7C527974E3892A87CA039.png" width="290.00" height="319.00" transform="matrix(1.00, 0.00, -0.00, -1.00, 59.0, 394.0)"></image><text xml:space="preserve" font-family="TimesNewRomanPSMT" font-size="22.0" fill="#000000" transform="matrix(1.00, 0.00, -0.00, -1.00, 141.0, 35.0)">(</text><text xml:space="preserve" font-family="TimesNewRomanPSMT" font-size="22.0" fill="#000000" transform="matrix(1.00, 0.00, -0.00, -1.00, 148.3, 35.0)">R</text><text xml:space="preserve" font-family="TimesNewRomanPSMT" font-size="22.0" fill="#000000" transform="matrix(1.00, 0.00, -0.00, -1.00, 163.0, 35.0)">a</text><text xml:space="preserve" font-family="TimesNewRomanPSMT" font-size="22.0" fill="#000000" transform="matrix(1.00, 0.00, -0.00, -1.00, 172.8, 35.0)">n</text><text xml:space="preserve" font-family="TimesNewRomanPSMT" font-size="22.0" fill="#000000" transform="matrix(1.00, 0.00, -0.00, -1.00, 183.8, 35.0)">d</text><text xml:space="preserve" font-family="TimesNewRomanPSMT" font-size="22.0" fill="#000000" transform="matrix(1.00, 0.00, -0.00, -1.00, 194.8, 35.0)"> </text><text xml:space="preserve" font-family="TimesNewRomanPSMT" font-size="22.0" fill="#000000" transform="matrix(1.00, 0.00, -0.00, -1.00, 200.3, 35.0)">1</text><text xml:space="preserve" font-family="TimesNewRomanPSMT" font-size="22.0" fill="#000000" transform="matrix(1.00, 0.00, -0.00, -1.00, 211.3, 35.0)">9</text><text xml:space="preserve" font-family="TimesNewRomanPSMT" font-size="22.0" fill="#000000" transform="matrix(1.00, 0.00, -0.00, -1.00, 222.3, 35.0)">6</text><text xml:space="preserve" font-family="TimesNewRomanPSMT" font-size="22.0" fill="#000000" transform="matrix(1.00, 0.00, -0.00, -1.00, 233.3, 35.0)">4</text><text xml:space="preserve" font-family="TimesNewRomanPSMT" font-size="22.0" fill="#000000" transform="matrix(1.00, 0.00, -0.00, -1.00, 244.3, 35.0)">)</text><path d="M 143.1 397.9 L 213.4 397.9 L 213.4 382.4 L 143.1 382.4 Z M 143.1 397.9 " fill="#FEFFFF"></path><g><clipPath id="clip-54"><path d="M 139.5 378.3 L 217.0 378.3 L 217.0 401.5 L 139.5 401.5 Z M 139.5 378.3 "></path></clipPath><g clip-path="url(#clip-54)"><text xml:space="preserve" font-family="TimesNewRomanPS-ItalicMT" font-style="italic" font-size="13.0" fill="#000000" transform="matrix(1.00, 0.00, -0.00, -1.00, 143.0, 385.0)">A</text><text xml:space="preserve" font-family="TimesNewRomanPS-ItalicMT" font-style="italic" font-size="13.0" fill="#000000" transform="matrix(1.00, 0.00, -0.00, -1.00, 150.9, 385.0)">.</text><text xml:space="preserve" font-family="TimesNewRomanPS-ItalicMT" font-style="italic" font-size="13.0" fill="#000000" transform="matrix(1.00, 0.00, -0.00, -1.00, 154.2, 385.0)"> </text><text xml:space="preserve" font-family="TimesNewRomanPS-ItalicMT" font-style="italic" font-size="13.0" fill="#000000" transform="matrix(1.00, 0.00, -0.00, -1.00, 157.4, 385.0)">e</text><text xml:space="preserve" font-family="TimesNewRomanPS-ItalicMT" font-style="italic" font-size="13.0" fill="#000000" transform="matrix(1.00, 0.00, -0.00, -1.00, 163.2, 385.0)">v</text><text xml:space="preserve" font-family="TimesNewRomanPS-ItalicMT" font-style="italic" font-size="13.0" fill="#000000" transform="matrix(1.00, 0.00, -0.00, -1.00, 169.0, 385.0)">e</text><text xml:space="preserve" font-family="TimesNewRomanPS-ItalicMT" font-style="italic" font-size="13.0" fill="#000000" transform="matrix(1.00, 0.00, -0.00, -1.00, 174.7, 385.0)">r</text><text xml:space="preserve" font-family="TimesNewRomanPS-ItalicMT" font-style="italic" font-size="13.0" fill="#000000" transform="matrix(1.00, 0.00, -0.00, -1.00, 179.8, 385.0)">m</text><text xml:space="preserve" font-family="TimesNewRomanPS-ItalicMT" font-style="italic" font-size="13.0" fill="#000000" transform="matrix(1.00, 0.00, -0.00, -1.00, 189.2, 385.0)">a</text><text xml:space="preserve" font-family="TimesNewRomanPS-ItalicMT" font-style="italic" font-size="13.0" fill="#000000" transform="matrix(1.00, 0.00, -0.00, -1.00, 195.7, 385.0)">n</text><text xml:space="preserve" font-family="TimesNewRomanPS-ItalicMT" font-style="italic" font-size="13.0" fill="#000000" transform="matrix(1.00, 0.00, -0.00, -1.00, 202.2, 385.0)">n</text><text xml:space="preserve" font-family="TimesNewRomanPS-ItalicMT" font-style="italic" font-size="13.0" fill="#000000" transform="matrix(1.00, 0.00, -0.00, -1.00, 208.7, 385.0)">i</text></g></g><path d="M 232.1 398.9 L 293.1 398.9 L 293.1 383.4 L 232.1 383.4 Z M 232.1 398.9 " fill="#FEFFFF"></path><g><clipPath id="clip-55"><path d="M 228.5 379.3 L 296.7 379.3 L 296.7 402.5 L 228.5 402.5 Z M 228.5 379.3 "></path></clipPath><g clip-path="url(#clip-55)"><text xml:space="preserve" font-family="TimesNewRomanPS-ItalicMT" font-style="italic" font-size="13.0" fill="#000000" transform="matrix(1.00, 0.00, -0.00, -1.00, 232.0, 386.0)">A</text><text xml:space="preserve" font-family="TimesNewRomanPS-ItalicMT" font-style="italic" font-size="13.0" fill="#000000" transform="matrix(1.00, 0.00, -0.00, -1.00, 239.9, 386.0)">.</text><text xml:space="preserve" font-family="TimesNewRomanPS-ItalicMT" font-style="italic" font-size="13.0" fill="#000000" transform="matrix(1.00, 0.00, -0.00, -1.00, 243.2, 386.0)"> </text><text xml:space="preserve" font-family="TimesNewRomanPS-ItalicMT" font-style="italic" font-size="13.0" fill="#000000" transform="matrix(1.00, 0.00, -0.00, -1.00, 246.4, 386.0)">s</text><text xml:space="preserve" font-family="TimesNewRomanPS-ItalicMT" font-style="italic" font-size="13.0" fill="#000000" transform="matrix(1.00, 0.00, -0.00, -1.00, 251.5, 386.0)">t</text><text xml:space="preserve" font-family="TimesNewRomanPS-ItalicMT" font-style="italic" font-size="13.0" fill="#000000" transform="matrix(1.00, 0.00, -0.00, -1.00, 255.1, 386.0)">r</text><text xml:space="preserve" font-family="TimesNewRomanPS-ItalicMT" font-style="italic" font-size="13.0" fill="#000000" transform="matrix(1.00, 0.00, -0.00, -1.00, 260.2, 386.0)">a</text><text xml:space="preserve" font-family="TimesNewRomanPS-ItalicMT" font-style="italic" font-size="13.0" fill="#000000" transform="matrix(1.00, 0.00, -0.00, -1.00, 266.7, 386.0)">t</text><text xml:space="preserve" font-family="TimesNewRomanPS-ItalicMT" font-style="italic" font-size="13.0" fill="#000000" transform="matrix(1.00, 0.00, -0.00, -1.00, 270.3, 386.0)">u</text><text xml:space="preserve" font-family="TimesNewRomanPS-ItalicMT" font-style="italic" font-size="13.0" fill="#000000" transform="matrix(1.00, 0.00, -0.00, -1.00, 276.8, 386.0)">l</text><text xml:space="preserve" font-family="TimesNewRomanPS-ItalicMT" font-style="italic" font-size="13.0" fill="#000000" transform="matrix(1.00, 0.00, -0.00, -1.00, 280.4, 386.0)">u</text><text xml:space="preserve" font-family="TimesNewRomanPS-ItalicMT" font-style="italic" font-size="13.0" fill="#000000" transform="matrix(1.00, 0.00, -0.00, -1.00, 286.9, 386.0)">s</text></g></g><path d="M 230.0 286.8 L 303.2 286.8 L 303.2 271.3 L 230.0 271.3 Z M 230.0 286.8 " fill="#FEFFFF"></path><g><clipPath id="clip-56"><path d="M 226.4 267.2 L 306.8 267.2 L 306.8 290.3 L 226.4 290.3 Z M 226.4 267.2 "></path></clipPath><g clip-path="url(#clip-56)"><text xml:space="preserve" font-family="TimesNewRomanPS-ItalicMT" font-style="italic" font-size="13.0" fill="#000000" transform="matrix(1.00, 0.00, -0.00, -1.00, 230.0, 274.0)">A</text><text xml:space="preserve" font-family="TimesNewRomanPS-ItalicMT" font-style="italic" font-size="13.0" fill="#000000" transform="matrix(1.00, 0.00, -0.00, -1.00, 237.9, 274.0)">.</text><text xml:space="preserve" font-family="TimesNewRomanPS-ItalicMT" font-style="italic" font-size="13.0" fill="#000000" transform="matrix(1.00, 0.00, -0.00, -1.00, 241.2, 274.0)"> </text><text xml:space="preserve" font-family="TimesNewRomanPS-ItalicMT" font-style="italic" font-size="13.0" fill="#000000" transform="matrix(1.00, 0.00, -0.00, -1.00, 244.4, 274.0)">c</text><text xml:space="preserve" font-family="TimesNewRomanPS-ItalicMT" font-style="italic" font-size="13.0" fill="#000000" transform="matrix(1.00, 0.00, -0.00, -1.00, 250.2, 274.0)">r</text><text xml:space="preserve" font-family="TimesNewRomanPS-ItalicMT" font-style="italic" font-size="13.0" fill="#000000" transform="matrix(1.00, 0.00, -0.00, -1.00, 255.3, 274.0)">i</text><text xml:space="preserve" font-family="TimesNewRomanPS-ItalicMT" font-style="italic" font-size="13.0" fill="#000000" transform="matrix(1.00, 0.00, -0.00, -1.00, 258.9, 274.0)">s</text><text xml:space="preserve" font-family="TimesNewRomanPS-ItalicMT" font-style="italic" font-size="13.0" fill="#000000" transform="matrix(1.00, 0.00, -0.00, -1.00, 263.9, 274.0)">t</text><text xml:space="preserve" font-family="TimesNewRomanPS-ItalicMT" font-style="italic" font-size="13.0" fill="#000000" transform="matrix(1.00, 0.00, -0.00, -1.00, 267.5, 274.0)">a</text><text xml:space="preserve" font-family="TimesNewRomanPS-ItalicMT" font-style="italic" font-size="13.0" fill="#000000" transform="matrix(1.00, 0.00, -0.00, -1.00, 274.0, 274.0)">t</text><text xml:space="preserve" font-family="TimesNewRomanPS-ItalicMT" font-style="italic" font-size="13.0" fill="#000000" transform="matrix(1.00, 0.00, -0.00, -1.00, 277.7, 274.0)">e</text><text xml:space="preserve" font-family="TimesNewRomanPS-ItalicMT" font-style="italic" font-size="13.0" fill="#000000" transform="matrix(1.00, 0.00, -0.00, -1.00, 283.4, 274.0)">l</text><text xml:space="preserve" font-family="TimesNewRomanPS-ItalicMT" font-style="italic" font-size="13.0" fill="#000000" transform="matrix(1.00, 0.00, -0.00, -1.00, 287.0, 274.0)">l</text><text xml:space="preserve" font-family="TimesNewRomanPS-ItalicMT" font-style="italic" font-size="13.0" fill="#000000" transform="matrix(1.00, 0.00, -0.00, -1.00, 290.6, 274.0)">u</text><text xml:space="preserve" font-family="TimesNewRomanPS-ItalicMT" font-style="italic" font-size="13.0" fill="#000000" transform="matrix(1.00, 0.00, -0.00, -1.00, 297.1, 274.0)">s</text></g></g><path d="M 144.0 285.9 L 211.4 285.9 L 211.4 270.4 L 144.0 270.4 Z M 144.0 285.9 " fill="#FEFFFF"></path><g><clipPath id="clip-57"><path d="M 140.4 266.3 L 215.0 266.3 L 215.0 289.5 L 140.4 289.5 Z M 140.4 266.3 "></path></clipPath><g clip-path="url(#clip-57)"><text xml:space="preserve" font-family="TimesNewRomanPS-ItalicMT" font-style="italic" font-size="13.0" fill="#000000" transform="matrix(1.00, 0.00, -0.00, -1.00, 144.0, 273.0)">A</text><text xml:space="preserve" font-family="TimesNewRomanPS-ItalicMT" font-style="italic" font-size="13.0" fill="#000000" transform="matrix(1.00, 0.00, -0.00, -1.00, 151.9, 273.0)">.</text><text xml:space="preserve" font-family="TimesNewRomanPS-ItalicMT" font-style="italic" font-size="13.0" fill="#000000" transform="matrix(1.00, 0.00, -0.00, -1.00, 155.2, 273.0)"> </text><text xml:space="preserve" font-family="TimesNewRomanPS-ItalicMT" font-style="italic" font-size="13.0" fill="#000000" transform="matrix(1.00, 0.00, -0.00, -1.00, 158.4, 273.0)">g</text><text xml:space="preserve" font-family="TimesNewRomanPS-ItalicMT" font-style="italic" font-size="13.0" fill="#000000" transform="matrix(1.00, 0.00, -0.00, -1.00, 164.9, 273.0)">u</text><text xml:space="preserve" font-family="TimesNewRomanPS-ItalicMT" font-style="italic" font-size="13.0" fill="#000000" transform="matrix(1.00, 0.00, -0.00, -1.00, 171.4, 273.0)">n</text><text xml:space="preserve" font-family="TimesNewRomanPS-ItalicMT" font-style="italic" font-size="13.0" fill="#000000" transform="matrix(1.00, 0.00, -0.00, -1.00, 177.9, 273.0)">d</text><text xml:space="preserve" font-family="TimesNewRomanPS-ItalicMT" font-style="italic" font-size="13.0" fill="#000000" transform="matrix(1.00, 0.00, -0.00, -1.00, 184.4, 273.0)">l</text><text xml:space="preserve" font-family="TimesNewRomanPS-ItalicMT" font-style="italic" font-size="13.0" fill="#000000" transform="matrix(1.00, 0.00, -0.00, -1.00, 188.0, 273.0)">a</text><text xml:space="preserve" font-family="TimesNewRomanPS-ItalicMT" font-style="italic" font-size="13.0" fill="#000000" transform="matrix(1.00, 0.00, -0.00, -1.00, 194.5, 273.0)">c</text><text xml:space="preserve" font-family="TimesNewRomanPS-ItalicMT" font-style="italic" font-size="13.0" fill="#000000" transform="matrix(1.00, 0.00, -0.00, -1.00, 200.3, 273.0)">h</text><text xml:space="preserve" font-family="TimesNewRomanPS-ItalicMT" font-style="italic" font-size="13.0" fill="#000000" transform="matrix(1.00, 0.00, -0.00, -1.00, 206.8, 273.0)">i</text></g></g><path d="M 272.8 176.8 L 339.5 176.8 L 339.5 161.3 L 272.8 161.3 Z M 272.8 176.8 " fill="#FEFFFF"></path><g><clipPath id="clip-58"><path d="M 269.2 157.2 L 343.1 157.2 L 343.1 180.3 L 269.2 180.3 Z M 269.2 157.2 "></path></clipPath><g clip-path="url(#clip-58)"><text xml:space="preserve" font-family="TimesNewRomanPS-ItalicMT" font-style="italic" font-size="13.0" fill="#000000" transform="matrix(1.00, 0.00, -0.00, -1.00, 273.0, 164.0)">A</text><text xml:space="preserve" font-family="TimesNewRomanPS-ItalicMT" font-style="italic" font-size="13.0" fill="#000000" transform="matrix(1.00, 0.00, -0.00, -1.00, 280.9, 164.0)">.</text><text xml:space="preserve" font-family="TimesNewRomanPS-ItalicMT" font-style="italic" font-size="13.0" fill="#000000" transform="matrix(1.00, 0.00, -0.00, -1.00, 284.2, 164.0)"> </text><text xml:space="preserve" font-family="TimesNewRomanPS-ItalicMT" font-style="italic" font-size="13.0" fill="#000000" transform="matrix(1.00, 0.00, -0.00, -1.00, 287.4, 164.0)">p</text><text xml:space="preserve" font-family="TimesNewRomanPS-ItalicMT" font-style="italic" font-size="13.0" fill="#000000" transform="matrix(1.00, 0.00, -0.00, -1.00, 293.9, 164.0)">o</text><text xml:space="preserve" font-family="TimesNewRomanPS-ItalicMT" font-style="italic" font-size="13.0" fill="#000000" transform="matrix(1.00, 0.00, -0.00, -1.00, 300.4, 164.0)">n</text><text xml:space="preserve" font-family="TimesNewRomanPS-ItalicMT" font-style="italic" font-size="13.0" fill="#000000" transform="matrix(1.00, 0.00, -0.00, -1.00, 306.9, 164.0)">c</text><text xml:space="preserve" font-family="TimesNewRomanPS-ItalicMT" font-style="italic" font-size="13.0" fill="#000000" transform="matrix(1.00, 0.00, -0.00, -1.00, 312.7, 164.0)">e</text><text xml:space="preserve" font-family="TimesNewRomanPS-ItalicMT" font-style="italic" font-size="13.0" fill="#000000" transform="matrix(1.00, 0.00, -0.00, -1.00, 318.5, 164.0)">n</text><text xml:space="preserve" font-family="TimesNewRomanPS-ItalicMT" font-style="italic" font-size="13.0" fill="#000000" transform="matrix(1.00, 0.00, -0.00, -1.00, 325.0, 164.0)">s</text><text xml:space="preserve" font-family="TimesNewRomanPS-ItalicMT" font-style="italic" font-size="13.0" fill="#000000" transform="matrix(1.00, 0.00, -0.00, -1.00, 330.0, 164.0)">i</text><text xml:space="preserve" font-family="TimesNewRomanPS-ItalicMT" font-style="italic" font-size="13.0" fill="#000000" transform="matrix(1.00, 0.00, -0.00, -1.00, 333.6, 164.0)">s</text></g></g><path d="M 186.1 176.8 L 255.0 176.8 L 255.0 161.3 L 186.1 161.3 Z M 186.1 176.8 " fill="#FEFFFF"></path><g><clipPath id="clip-59"><path d="M 182.5 157.2 L 258.6 157.2 L 258.6 180.3 L 182.5 180.3 Z M 182.5 157.2 "></path></clipPath><g clip-path="url(#clip-59)"><text xml:space="preserve" font-family="TimesNewRomanPS-ItalicMT" font-style="italic" font-size="13.0" fill="#000000" transform="matrix(1.00, 0.00, -0.00, -1.00, 186.0, 164.0)">A</text><text xml:space="preserve" font-family="TimesNewRomanPS-ItalicMT" font-style="italic" font-size="13.0" fill="#000000" transform="matrix(1.00, 0.00, -0.00, -1.00, 193.9, 164.0)">.</text><text xml:space="preserve" font-family="TimesNewRomanPS-ItalicMT" font-style="italic" font-size="13.0" fill="#000000" transform="matrix(1.00, 0.00, -0.00, -1.00, 197.2, 164.0)"> </text><text xml:space="preserve" font-family="TimesNewRomanPS-ItalicMT" font-style="italic" font-size="13.0" fill="#000000" transform="matrix(1.00, 0.00, -0.00, -1.00, 200.4, 164.0)">p</text><text xml:space="preserve" font-family="TimesNewRomanPS-ItalicMT" font-style="italic" font-size="13.0" fill="#000000" transform="matrix(1.00, 0.00, -0.00, -1.00, 206.9, 164.0)">u</text><text xml:space="preserve" font-family="TimesNewRomanPS-ItalicMT" font-style="italic" font-size="13.0" fill="#000000" transform="matrix(1.00, 0.00, -0.00, -1.00, 213.4, 164.0)">l</text><text xml:space="preserve" font-family="TimesNewRomanPS-ItalicMT" font-style="italic" font-size="13.0" fill="#000000" transform="matrix(1.00, 0.00, -0.00, -1.00, 217.0, 164.0)">c</text><text xml:space="preserve" font-family="TimesNewRomanPS-ItalicMT" font-style="italic" font-size="13.0" fill="#000000" transform="matrix(1.00, 0.00, -0.00, -1.00, 222.8, 164.0)">h</text><text xml:space="preserve" font-family="TimesNewRomanPS-ItalicMT" font-style="italic" font-size="13.0" fill="#000000" transform="matrix(1.00, 0.00, -0.00, -1.00, 229.3, 164.0)">e</text><text xml:space="preserve" font-family="TimesNewRomanPS-ItalicMT" font-style="italic" font-size="13.0" fill="#000000" transform="matrix(1.00, 0.00, -0.00, -1.00, 235.1, 164.0)">l</text><text xml:space="preserve" font-family="TimesNewRomanPS-ItalicMT" font-style="italic" font-size="13.0" fill="#000000" transform="matrix(1.00, 0.00, -0.00, -1.00, 238.7, 164.0)">l</text><text xml:space="preserve" font-family="TimesNewRomanPS-ItalicMT" font-style="italic" font-size="13.0" fill="#000000" transform="matrix(1.00, 0.00, -0.00, -1.00, 242.3, 164.0)">u</text><text xml:space="preserve" font-family="TimesNewRomanPS-ItalicMT" font-style="italic" font-size="13.0" fill="#000000" transform="matrix(1.00, 0.00, -0.00, -1.00, 248.8, 164.0)">s</text></g></g><path d="M 111.0 173.8 L 170.1 173.8 L 170.1 158.3 L 111.0 158.3 Z M 111.0 173.8 " fill="#FEFFFF"></path><g><clipPath id="clip-60"><path d="M 107.4 154.2 L 173.7 154.2 L 173.7 177.3 L 107.4 177.3 Z M 107.4 154.2 "></path></clipPath><g clip-path="url(#clip-60)"><text xml:space="preserve" font-family="TimesNewRomanPS-ItalicMT" font-style="italic" font-size="13.0" fill="#000000" transform="matrix(1.00, 0.00, -0.00, -1.00, 111.0, 161.0)">A</text><text xml:space="preserve" font-family="TimesNewRomanPS-ItalicMT" font-style="italic" font-size="13.0" fill="#000000" transform="matrix(1.00, 0.00, -0.00, -1.00, 118.9, 161.0)">.</text><text xml:space="preserve" font-family="TimesNewRomanPS-ItalicMT" font-style="italic" font-size="13.0" fill="#000000" transform="matrix(1.00, 0.00, -0.00, -1.00, 122.2, 161.0)"> </text><text xml:space="preserve" font-family="TimesNewRomanPS-ItalicMT" font-style="italic" font-size="13.0" fill="#000000" transform="matrix(1.00, 0.00, -0.00, -1.00, 125.4, 161.0)">k</text><text xml:space="preserve" font-family="TimesNewRomanPS-ItalicMT" font-style="italic" font-size="13.0" fill="#000000" transform="matrix(1.00, 0.00, -0.00, -1.00, 131.2, 161.0)">r</text><text xml:space="preserve" font-family="TimesNewRomanPS-ItalicMT" font-style="italic" font-size="13.0" fill="#000000" transform="matrix(1.00, 0.00, -0.00, -1.00, 136.3, 161.0)">u</text><text xml:space="preserve" font-family="TimesNewRomanPS-ItalicMT" font-style="italic" font-size="13.0" fill="#000000" transform="matrix(1.00, 0.00, -0.00, -1.00, 142.8, 161.0)">g</text><text xml:space="preserve" font-family="TimesNewRomanPS-ItalicMT" font-style="italic" font-size="13.0" fill="#000000" transform="matrix(1.00, 0.00, -0.00, -1.00, 149.3, 161.0)">i</text></g></g><text xml:space="preserve" font-family="ArialMT" font-size="28.0" fill="#000000" transform="matrix(1.00, 0.00, -0.00, -1.00, 373.2, 354.8)">•</text><text xml:space="preserve" font-family="ArialMT" font-size="28.0" fill="#000000" transform="matrix(1.00, 0.00, -0.00, -1.00, 400.0, 355.0)">S</text><text xml:space="preserve" font-family="ArialMT" font-size="28.0" fill="#000000" transform="matrix(1.00, 0.00, -0.00, -1.00, 418.7, 355.0)">y</text><text xml:space="preserve" font-family="ArialMT" font-size="28.0" fill="#000000" transform="matrix(1.00, 0.00, -0.00, -1.00, 432.7, 355.0)">m</text><text xml:space="preserve" font-family="ArialMT" font-size="28.0" fill="#000000" transform="matrix(1.00, 0.00, -0.00, -1.00, 456.0, 355.0)">p</text><text xml:space="preserve" font-family="ArialMT" font-size="28.0" fill="#000000" transform="matrix(1.00, 0.00, -0.00, -1.00, 471.6, 355.0)">a</text><text xml:space="preserve" font-family="ArialMT" font-size="28.0" fill="#000000" transform="matrix(1.00, 0.00, -0.00, -1.00, 487.2, 355.0)">t</text><text xml:space="preserve" font-family="ArialMT" font-size="28.0" fill="#000000" transform="matrix(1.00, 0.00, -0.00, -1.00, 494.9, 355.0)">r</text><text xml:space="preserve" font-family="ArialMT" font-size="28.0" fill="#000000" transform="matrix(1.00, 0.00, -0.00, -1.00, 504.3, 355.0)">i</text><text xml:space="preserve" font-family="ArialMT" font-size="28.0" fill="#000000" transform="matrix(1.00, 0.00, -0.00, -1.00, 510.5, 355.0)">c</text><text xml:space="preserve" font-family="ArialMT" font-size="28.0" fill="#000000" transform="matrix(1.00, 0.00, -0.00, -1.00, 524.5, 355.0)"> </text><text xml:space="preserve" font-family="ArialMT" font-size="28.0" fill="#000000" transform="matrix(1.00, 0.00, -0.00, -1.00, 532.3, 355.0)">s</text><text xml:space="preserve" font-family="ArialMT" font-size="28.0" fill="#000000" transform="matrix(1.00, 0.00, -0.00, -1.00, 546.3, 355.0)">p</text><text xml:space="preserve" font-family="ArialMT" font-size="28.0" fill="#000000" transform="matrix(1.00, 0.00, -0.00, -1.00, 561.8, 355.0)">e</text><text xml:space="preserve" font-family="ArialMT" font-size="28.0" fill="#000000" transform="matrix(1.00, 0.00, -0.00, -1.00, 577.4, 355.0)">c</text><text xml:space="preserve" font-family="ArialMT" font-size="28.0" fill="#000000" transform="matrix(1.00, 0.00, -0.00, -1.00, 591.4, 355.0)">i</text><text xml:space="preserve" font-family="ArialMT" font-size="28.0" fill="#000000" transform="matrix(1.00, 0.00, -0.00, -1.00, 597.6, 355.0)">e</text><text xml:space="preserve" font-family="ArialMT" font-size="28.0" fill="#000000" transform="matrix(1.00, 0.00, -0.00, -1.00, 613.2, 355.0)">s</text><text xml:space="preserve" font-family="ArialMT" font-size="28.0" fill="#000000" transform="matrix(1.00, 0.00, -0.00, -1.00, 627.2, 355.0)"> </text><text xml:space="preserve" font-family="ArialMT" font-size="28.0" fill="#000000" transform="matrix(1.00, 0.00, -0.00, -1.00, 635.0, 355.0)">o</text><text xml:space="preserve" font-family="ArialMT" font-size="28.0" fill="#000000" transform="matrix(1.00, 0.00, -0.00, -1.00, 650.6, 355.0)">f</text><text xml:space="preserve" font-family="ArialMT" font-size="28.0" fill="#000000" transform="matrix(1.00, 0.00, -0.00, -1.00, 658.3, 355.0)"> </text><text xml:space="preserve" font-family="ArialMT" font-size="28.0" fill="#000000" transform="matrix(1.00, 0.00, -0.00, -1.00, 400.0, 323.0)">a</text><text xml:space="preserve" font-family="ArialMT" font-size="28.0" fill="#000000" transform="matrix(1.00, 0.00, -0.00, -1.00, 415.6, 323.0)">n</text><text xml:space="preserve" font-family="ArialMT" font-size="28.0" fill="#000000" transform="matrix(1.00, 0.00, -0.00, -1.00, 431.2, 323.0)">o</text><text xml:space="preserve" font-family="ArialMT" font-size="28.0" fill="#000000" transform="matrix(1.00, 0.00, -0.00, -1.00, 446.7, 323.0)">l</text><text xml:space="preserve" font-family="ArialMT" font-size="28.0" fill="#000000" transform="matrix(1.00, 0.00, -0.00, -1.00, 453.0, 323.0)">e</text><text xml:space="preserve" font-family="ArialMT" font-size="28.0" fill="#000000" transform="matrix(1.00, 0.00, -0.00, -1.00, 468.5, 323.0)">s</text><text xml:space="preserve" font-family="ArialMT" font-size="28.0" fill="#000000" transform="matrix(1.00, 0.00, -0.00, -1.00, 482.5, 323.0)"> </text><text xml:space="preserve" font-family="ArialMT" font-size="28.0" fill="#000000" transform="matrix(1.00, 0.00, -0.00, -1.00, 490.3, 323.0)">u</text><text xml:space="preserve" font-family="ArialMT" font-size="28.0" fill="#000000" transform="matrix(1.00, 0.00, -0.00, -1.00, 505.9, 323.0)">s</text><text xml:space="preserve" font-family="ArialMT" font-size="28.0" fill="#000000" transform="matrix(1.00, 0.00, -0.00, -1.00, 519.9, 323.0)">e</text><text xml:space="preserve" font-family="ArialMT" font-size="28.0" fill="#000000" transform="matrix(1.00, 0.00, -0.00, -1.00, 535.5, 323.0)"> </text><text xml:space="preserve" font-family="ArialMT" font-size="28.0" fill="#000000" transform="matrix(1.00, 0.00, -0.00, -1.00, 543.2, 323.0)">d</text><text xml:space="preserve" font-family="ArialMT" font-size="28.0" fill="#000000" transform="matrix(1.00, 0.00, -0.00, -1.00, 558.8, 323.0)">i</text><text xml:space="preserve" font-family="ArialMT" font-size="28.0" fill="#000000" transform="matrix(1.00, 0.00, -0.00, -1.00, 565.0, 323.0)">f</text><text xml:space="preserve" font-family="ArialMT" font-size="28.0" fill="#000000" transform="matrix(1.00, 0.00, -0.00, -1.00, 572.3, 323.0)">f</text><text xml:space="preserve" font-family="ArialMT" font-size="28.0" fill="#000000" transform="matrix(1.00, 0.00, -0.00, -1.00, 580.1, 323.0)">e</text><text xml:space="preserve" font-family="ArialMT" font-size="28.0" fill="#000000" transform="matrix(1.00, 0.00, -0.00, -1.00, 595.7, 323.0)">r</text><text xml:space="preserve" font-family="ArialMT" font-size="28.0" fill="#000000" transform="matrix(1.00, 0.00, -0.00, -1.00, 605.0, 323.0)">e</text><text xml:space="preserve" font-family="ArialMT" font-size="28.0" fill="#000000" transform="matrix(1.00, 0.00, -0.00, -1.00, 620.6, 323.0)">n</text><text xml:space="preserve" font-family="ArialMT" font-size="28.0" fill="#000000" transform="matrix(1.00, 0.00, -0.00, -1.00, 636.1, 323.0)">t</text><text xml:space="preserve" font-family="ArialMT" font-size="28.0" fill="#000000" transform="matrix(1.00, 0.00, -0.00, -1.00, 643.9, 323.0)"> </text><text xml:space="preserve" font-family="ArialMT" font-size="28.0" fill="#000000" transform="matrix(1.00, 0.00, -0.00, -1.00, 400.0, 291.0)">m</text><text xml:space="preserve" font-family="ArialMT" font-size="28.0" fill="#000000" transform="matrix(1.00, 0.00, -0.00, -1.00, 423.3, 291.0)">i</text><text xml:space="preserve" font-family="ArialMT" font-size="28.0" fill="#000000" transform="matrix(1.00, 0.00, -0.00, -1.00, 429.6, 291.0)">c</text><text xml:space="preserve" font-family="ArialMT" font-size="28.0" fill="#000000" transform="matrix(1.00, 0.00, -0.00, -1.00, 443.6, 291.0)">r</text><text xml:space="preserve" font-family="ArialMT" font-size="28.0" fill="#000000" transform="matrix(1.00, 0.00, -0.00, -1.00, 452.9, 291.0)">o</text><text xml:space="preserve" font-family="ArialMT" font-size="28.0" fill="#000000" transform="matrix(1.00, 0.00, -0.00, -1.00, 468.5, 291.0)">h</text><text xml:space="preserve" font-family="ArialMT" font-size="28.0" fill="#000000" transform="matrix(1.00, 0.00, -0.00, -1.00, 484.0, 291.0)">a</text><text xml:space="preserve" font-family="ArialMT" font-size="28.0" fill="#000000" transform="matrix(1.00, 0.00, -0.00, -1.00, 499.6, 291.0)">b</text><text xml:space="preserve" font-family="ArialMT" font-size="28.0" fill="#000000" transform="matrix(1.00, 0.00, -0.00, -1.00, 515.2, 291.0)">i</text><text xml:space="preserve" font-family="ArialMT" font-size="28.0" fill="#000000" transform="matrix(1.00, 0.00, -0.00, -1.00, 521.4, 291.0)">t</text><text xml:space="preserve" font-family="ArialMT" font-size="28.0" fill="#000000" transform="matrix(1.00, 0.00, -0.00, -1.00, 529.2, 291.0)">a</text><text xml:space="preserve" font-family="ArialMT" font-size="28.0" fill="#000000" transform="matrix(1.00, 0.00, -0.00, -1.00, 544.8, 291.0)">t</text><text xml:space="preserve" font-family="ArialMT" font-size="28.0" fill="#000000" transform="matrix(1.00, 0.00, -0.00, -1.00, 552.5, 291.0)">s</text><text xml:space="preserve" font-family="ArialMT" font-size="28.0" fill="#000000" transform="matrix(1.00, 0.00, -0.00, -1.00, 566.5, 291.0)"> </text><text xml:space="preserve" font-family="ArialMT" font-size="28.0" fill="#000000" transform="matrix(1.00, 0.00, -0.00, -1.00, 373.2, 251.4)">•</text><text xml:space="preserve" font-family="ArialMT" font-size="28.0" fill="#000000" transform="matrix(1.00, 0.00, -0.00, -1.00, 400.0, 251.0)">P</text><text xml:space="preserve" font-family="ArialMT" font-size="28.0" fill="#000000" transform="matrix(1.00, 0.00, -0.00, -1.00, 418.7, 251.0)">e</text><text xml:space="preserve" font-family="ArialMT" font-size="28.0" fill="#000000" transform="matrix(1.00, 0.00, -0.00, -1.00, 434.3, 251.0)">r</text><text xml:space="preserve" font-family="ArialMT" font-size="28.0" fill="#000000" transform="matrix(1.00, 0.00, -0.00, -1.00, 443.6, 251.0)">c</text><text xml:space="preserve" font-family="ArialMT" font-size="28.0" fill="#000000" transform="matrix(1.00, 0.00, -0.00, -1.00, 457.6, 251.0)">h</text><text xml:space="preserve" font-family="ArialMT" font-size="28.0" fill="#000000" transform="matrix(1.00, 0.00, -0.00, -1.00, 473.2, 251.0)"> </text><text xml:space="preserve" font-family="ArialMT" font-size="28.0" fill="#000000" transform="matrix(1.00, 0.00, -0.00, -1.00, 480.9, 251.0)">h</text><text xml:space="preserve" font-family="ArialMT" font-size="28.0" fill="#000000" transform="matrix(1.00, 0.00, -0.00, -1.00, 496.5, 251.0)">e</text><text xml:space="preserve" font-family="ArialMT" font-size="28.0" fill="#000000" transform="matrix(1.00, 0.00, -0.00, -1.00, 512.1, 251.0)">i</text><text xml:space="preserve" font-family="ArialMT" font-size="28.0" fill="#000000" transform="matrix(1.00, 0.00, -0.00, -1.00, 518.3, 251.0)">g</text><text xml:space="preserve" font-family="ArialMT" font-size="28.0" fill="#000000" transform="matrix(1.00, 0.00, -0.00, -1.00, 533.9, 251.0)">h</text><text xml:space="preserve" font-family="ArialMT" font-size="28.0" fill="#000000" transform="matrix(1.00, 0.00, -0.00, -1.00, 549.5, 251.0)">t</text><text xml:space="preserve" font-family="ArialMT" font-size="28.0" fill="#000000" transform="matrix(1.00, 0.00, -0.00, -1.00, 557.2, 251.0)"> </text><text xml:space="preserve" font-family="ArialMT" font-size="28.0" fill="#000000" transform="matrix(1.00, 0.00, -0.00, -1.00, 565.0, 251.0)"> </text><text xml:space="preserve" font-family="ArialMT" font-size="28.0" fill="#000000" transform="matrix(1.00, 0.00, -0.00, -1.00, 373.2, 212.0)">•</text><text xml:space="preserve" font-family="ArialMT" font-size="28.0" fill="#000000" transform="matrix(1.00, 0.00, -0.00, -1.00, 400.0, 212.0)">P</text><text xml:space="preserve" font-family="ArialMT" font-size="28.0" fill="#000000" transform="matrix(1.00, 0.00, -0.00, -1.00, 418.7, 212.0)">e</text><text xml:space="preserve" font-family="ArialMT" font-size="28.0" fill="#000000" transform="matrix(1.00, 0.00, -0.00, -1.00, 434.3, 212.0)">r</text><text xml:space="preserve" font-family="ArialMT" font-size="28.0" fill="#000000" transform="matrix(1.00, 0.00, -0.00, -1.00, 443.6, 212.0)">c</text><text xml:space="preserve" font-family="ArialMT" font-size="28.0" fill="#000000" transform="matrix(1.00, 0.00, -0.00, -1.00, 457.6, 212.0)">h</text><text xml:space="preserve" font-family="ArialMT" font-size="28.0" fill="#000000" transform="matrix(1.00, 0.00, -0.00, -1.00, 473.2, 212.0)"> </text><text xml:space="preserve" font-family="ArialMT" font-size="28.0" fill="#000000" transform="matrix(1.00, 0.00, -0.00, -1.00, 480.9, 212.0)">d</text><text xml:space="preserve" font-family="ArialMT" font-size="28.0" fill="#000000" transform="matrix(1.00, 0.00, -0.00, -1.00, 496.5, 212.0)">i</text><text xml:space="preserve" font-family="ArialMT" font-size="28.0" fill="#000000" transform="matrix(1.00, 0.00, -0.00, -1.00, 502.7, 212.0)">a</text><text xml:space="preserve" font-family="ArialMT" font-size="28.0" fill="#000000" transform="matrix(1.00, 0.00, -0.00, -1.00, 518.3, 212.0)">m</text><text xml:space="preserve" font-family="ArialMT" font-size="28.0" fill="#000000" transform="matrix(1.00, 0.00, -0.00, -1.00, 541.6, 212.0)">e</text><text xml:space="preserve" font-family="ArialMT" font-size="28.0" fill="#000000" transform="matrix(1.00, 0.00, -0.00, -1.00, 557.2, 212.0)">t</text><text xml:space="preserve" font-family="ArialMT" font-size="28.0" fill="#000000" transform="matrix(1.00, 0.00, -0.00, -1.00, 565.0, 212.0)">e</text><text xml:space="preserve" font-family="ArialMT" font-size="28.0" fill="#000000" transform="matrix(1.00, 0.00, -0.00, -1.00, 580.6, 212.0)">r</text></g></svg>