<?xml version="1.0" encoding="UTF-8" standalone="no"?><svg xmlns="http://www.w3.org/2000/svg" xmlns:xlink="http://www.w3.org/1999/xlink" clip-rule="evenodd" stroke-miterlimit="4.00" viewBox="0 0 720 540"><desc>SVG generated by Keynote</desc><defs></defs><g transform="matrix(1.00, 0.00, -0.00, -1.00, 0.0, 540.0)"><path d="M 0.0 540.0 L 720.0 540.0 L 720.0 0.0 L 0.0 0.0 Z M 0.0 540.0 " fill="#FEFFFF"></path><g><clipPath id="clip-28"><path d="M 258.0 377.0 L 399.0 377.0 L 399.0 450.0 L 258.0 450.0 Z M 258.0 377.0 "></path></clipPath><g clip-path="url(#clip-28)"><path d="M 258.0 450.0 L 399.0 450.0 L 399.0 377.0 L 258.0 377.0 Z M 258.0 450.0 " fill="#FFFFFF"></path><image xlink:href="../../941F4E45-164F-4446-B199-7D0D4C64D2CC/assets/FE4EB7734DA8F7936829812AF290A042.png" width="141.00" height="73.00" transform="matrix(1.00, 0.00, -0.00, -1.00, 258.0, 450.0)"></image></g></g><path d="M 0.0 0.0 L 141.0 0.0 L 141.0 73.0 L 0.0 73.0 Z M 0.0 0.0 " fill="none" stroke="#0432FF" stroke-width="3.00" transform="matrix(1.00, 0.00, 0.00, -1.00, 258.0, 450.0)"></path><g><clipPath id="clip-29"><path d="M 36.0 238.0 L 181.0 238.0 L 181.0 366.0 L 36.0 366.0 Z M 36.0 238.0 "></path></clipPath><g clip-path="url(#clip-29)"><path d="M 36.0 366.0 L 181.0 366.0 L 181.0 238.0 L 36.0 238.0 Z M 36.0 366.0 " fill="#FFFFFF"></path><image xlink:href="../../941F4E45-164F-4446-B199-7D0D4C64D2CC/assets/A775D1AA9D5928BA958F492730C2210F.png" width="145.00" height="128.00" transform="matrix(1.00, 0.00, -0.00, -1.00, 36.0, 366.0)"></image></g></g><path d="M 0.0 0.0 L 145.0 0.0 L 145.0 128.0 L 0.0 128.0 Z M 0.0 0.0 " fill="none" stroke="#0432FF" stroke-width="3.00" transform="matrix(1.00, 0.00, 0.00, -1.00, 36.0, 366.0)"></path><g><clipPath id="clip-30"><path d="M 204.0 81.0 L 323.0 81.0 L 323.0 216.0 L 204.0 216.0 Z M 204.0 81.0 "></path></clipPath><g clip-path="url(#clip-30)"><path d="M 204.0 216.0 L 323.0 216.0 L 323.0 81.0 L 204.0 81.0 Z M 204.0 216.0 " fill="#FFFFFF"></path><image xlink:href="../../941F4E45-164F-4446-B199-7D0D4C64D2CC/assets/F0C2999B74E14CA98ABCEFB5E65BAE14.png" width="119.00" height="135.00" transform="matrix(1.00, 0.00, -0.00, -1.00, 204.0, 216.0)"></image></g></g><path d="M 0.0 0.0 L 119.0 0.0 L 119.0 135.0 L 0.0 135.0 Z M 0.0 0.0 " fill="none" stroke="#0432FF" stroke-width="3.00" transform="matrix(1.00, 0.00, 0.00, -1.00, 204.0, 216.0)"></path><g><clipPath id="clip-31"><path d="M 444.0 87.0 L 554.0 87.0 L 554.0 222.0 L 444.0 222.0 Z M 444.0 87.0 "></path></clipPath><g clip-path="url(#clip-31)"><path d="M 444.0 222.0 L 554.0 222.0 L 554.0 87.0 L 444.0 87.0 Z M 444.0 222.0 " fill="#FFFFFF"></path><image xlink:href="../../941F4E45-164F-4446-B199-7D0D4C64D2CC/assets/2A1BA1AE8F013FDF93CF375122BDFC32.png" width="110.00" height="135.00" transform="matrix(1.00, 0.00, -0.00, -1.00, 444.0, 222.0)"></image></g></g><path d="M 0.0 0.0 L 110.0 0.0 L 110.0 135.0 L 0.0 135.0 Z M 0.0 0.0 " fill="none" stroke="#FF2600" stroke-width="3.00" transform="matrix(1.00, 0.00, 0.00, -1.00, 444.0, 222.0)"></path><g><clipPath id="clip-32"><path d="M 498.0 309.0 L 608.0 309.0 L 608.0 444.0 L 498.0 444.0 Z M 498.0 309.0 "></path></clipPath><g clip-path="url(#clip-32)"><path d="M 498.0 444.0 L 608.0 444.0 L 608.0 309.0 L 498.0 309.0 Z M 498.0 444.0 " fill="#FFFFFF"></path><image xlink:href="../../941F4E45-164F-4446-B199-7D0D4C64D2CC/assets/DAD2D62437D8B115573CA395B4D7DB3B.png" width="110.00" height="135.00" transform="matrix(1.00, 0.00, -0.00, -1.00, 498.0, 444.0)"></image></g></g><path d="M 0.0 0.0 L 110.0 0.0 L 110.0 135.0 L 0.0 135.0 Z M 0.0 0.0 " fill="none" stroke="#FF2600" stroke-width="3.00" transform="matrix(1.00, 0.00, 0.00, -1.00, 498.0, 444.0)"></path><path d="M 7.3 14.9 L 8.7 14.3 L 33.3 3.7 L 34.7 3.1 " fill="none" stroke="#0432FF" stroke-width="3.00" stroke-linejoin="round" transform="matrix(1.00, 0.00, 0.00, -1.00, 198.0, 390.0)"></path><path d="M 229.4 390.6 L 240.0 390.0 L 233.2 381.9 Z M 229.4 390.6 " fill="#0432FF"></path><path d="M 208.6 371.4 L 198.0 372.0 L 204.8 380.1 Z M 208.6 371.4 " fill="#0432FF"></path><path d="M 0.8 118.1 L 0.9 116.6 L 11.1 9.4 L 11.2 7.9 " fill="none" stroke="#0432FF" stroke-width="3.00" stroke-linejoin="round" transform="matrix(1.00, 0.00, 0.00, -1.00, 276.0, 360.0)"></path><path d="M 282.4 351.0 L 288.0 360.0 L 291.8 350.1 Z M 282.4 351.0 " fill="#0432FF"></path><path d="M 281.6 243.0 L 276.0 234.0 L 272.2 243.9 Z M 281.6 243.0 " fill="#0432FF"></path><path d="M 5.6 5.6 L 6.7 6.7 L 77.3 77.3 L 78.4 78.4 " fill="none" stroke="#0432FF" stroke-width="3.00" stroke-linejoin="round" transform="matrix(1.00, 0.00, 0.00, -1.00, 102.0, 216.0)"></path><path d="M 182.7 142.0 L 186.0 132.0 L 176.0 135.3 Z M 182.7 142.0 " fill="#0432FF"></path><path d="M 105.3 206.0 L 102.0 216.0 L 112.0 212.7 Z M 105.3 206.0 " fill="#0432FF"></path><path d="M 3.0 52.6 L 3.5 51.2 L 20.5 8.8 L 21.0 7.4 " fill="none" stroke="#FF2600" stroke-width="3.00" stroke-linejoin="round" transform="matrix(1.00, 0.00, 0.00, -1.00, 510.0, 294.0)"></path><path d="M 526.1 287.0 L 534.0 294.0 L 534.9 283.5 Z M 526.1 287.0 " fill="#FF2600"></path><path d="M 517.9 241.0 L 510.0 234.0 L 509.1 244.5 Z M 517.9 241.0 " fill="#FF2600"></path><path d="M 8.0 0.1 L 9.5 0.1 L 44.5 0.0 L 46.0 0.0 " fill="none" stroke="#0432FF" stroke-width="3.00" stroke-linejoin="round" transform="matrix(1.00, 0.00, 0.00, -1.00, 192.0, 516.0)"></path><path d="M 236.5 520.7 L 246.0 516.0 L 236.6 511.2 Z M 236.5 520.7 " fill="#0432FF"></path><path d="M 201.5 511.2 L 192.0 515.9 L 201.4 520.6 Z M 201.5 511.2 " fill="#0432FF"></path><path d="M 8.0 0.1 L 9.5 0.1 L 44.5 0.0 L 46.0 0.0 " fill="none" stroke="#FF2600" stroke-width="3.00" stroke-linejoin="round" transform="matrix(1.00, 0.00, 0.00, -1.00, 192.0, 498.0)"></path><path d="M 236.5 502.7 L 246.0 498.0 L 236.6 493.2 Z M 236.5 502.7 " fill="#FF2600"></path><path d="M 201.5 493.2 L 192.0 497.9 L 201.4 502.6 Z M 201.5 493.2 " fill="#FF2600"></path><text xml:space="preserve" font-family="ArialMT" font-size="24.0" fill="#000000" transform="matrix(1.00, 0.00, -0.00, -1.00, 277.0, 496.0)">I</text><text xml:space="preserve" font-family="ArialMT" font-size="24.0" fill="#000000" transform="matrix(1.00, 0.00, -0.00, -1.00, 283.7, 496.0)">n</text><text xml:space="preserve" font-family="ArialMT" font-size="24.0" fill="#000000" transform="matrix(1.00, 0.00, -0.00, -1.00, 297.0, 496.0)">t</text><text xml:space="preserve" font-family="ArialMT" font-size="24.0" fill="#000000" transform="matrix(1.00, 0.00, -0.00, -1.00, 303.7, 496.0)">r</text><text xml:space="preserve" font-family="ArialMT" font-size="24.0" fill="#000000" transform="matrix(1.00, 0.00, -0.00, -1.00, 311.7, 496.0)">a</text><text xml:space="preserve" font-family="ArialMT" font-size="24.0" fill="#000000" transform="matrix(1.00, 0.00, -0.00, -1.00, 325.0, 496.0)">s</text><text xml:space="preserve" font-family="ArialMT" font-size="24.0" fill="#000000" transform="matrix(1.00, 0.00, -0.00, -1.00, 337.0, 496.0)">p</text><text xml:space="preserve" font-family="ArialMT" font-size="24.0" fill="#000000" transform="matrix(1.00, 0.00, -0.00, -1.00, 350.4, 496.0)">e</text><text xml:space="preserve" font-family="ArialMT" font-size="24.0" fill="#000000" transform="matrix(1.00, 0.00, -0.00, -1.00, 363.7, 496.0)">c</text><text xml:space="preserve" font-family="ArialMT" font-size="24.0" fill="#000000" transform="matrix(1.00, 0.00, -0.00, -1.00, 375.7, 496.0)">i</text><text xml:space="preserve" font-family="ArialMT" font-size="24.0" fill="#000000" transform="matrix(1.00, 0.00, -0.00, -1.00, 381.1, 496.0)">f</text><text xml:space="preserve" font-family="ArialMT" font-size="24.0" fill="#000000" transform="matrix(1.00, 0.00, -0.00, -1.00, 387.7, 496.0)">i</text><text xml:space="preserve" font-family="ArialMT" font-size="24.0" fill="#000000" transform="matrix(1.00, 0.00, -0.00, -1.00, 393.1, 496.0)">c</text><text xml:space="preserve" font-family="ArialMT" font-size="24.0" fill="#000000" transform="matrix(1.00, 0.00, -0.00, -1.00, 405.1, 496.0)"> </text><text xml:space="preserve" font-family="ArialMT" font-size="24.0" fill="#000000" transform="matrix(1.00, 0.00, -0.00, -1.00, 411.7, 496.0)">c</text><text xml:space="preserve" font-family="ArialMT" font-size="24.0" fill="#000000" transform="matrix(1.00, 0.00, -0.00, -1.00, 423.7, 496.0)">o</text><text xml:space="preserve" font-family="ArialMT" font-size="24.0" fill="#000000" transform="matrix(1.00, 0.00, -0.00, -1.00, 437.1, 496.0)">m</text><text xml:space="preserve" font-family="ArialMT" font-size="24.0" fill="#000000" transform="matrix(1.00, 0.00, -0.00, -1.00, 457.1, 496.0)">p</text><text xml:space="preserve" font-family="ArialMT" font-size="24.0" fill="#000000" transform="matrix(1.00, 0.00, -0.00, -1.00, 470.4, 496.0)">e</text><text xml:space="preserve" font-family="ArialMT" font-size="24.0" fill="#000000" transform="matrix(1.00, 0.00, -0.00, -1.00, 483.8, 496.0)">t</text><text xml:space="preserve" font-family="ArialMT" font-size="24.0" fill="#000000" transform="matrix(1.00, 0.00, -0.00, -1.00, 490.4, 496.0)">i</text><text xml:space="preserve" font-family="ArialMT" font-size="24.0" fill="#000000" transform="matrix(1.00, 0.00, -0.00, -1.00, 495.8, 496.0)">t</text><text xml:space="preserve" font-family="ArialMT" font-size="24.0" fill="#000000" transform="matrix(1.00, 0.00, -0.00, -1.00, 502.4, 496.0)">i</text><text xml:space="preserve" font-family="ArialMT" font-size="24.0" fill="#000000" transform="matrix(1.00, 0.00, -0.00, -1.00, 507.8, 496.0)">o</text><text xml:space="preserve" font-family="ArialMT" font-size="24.0" fill="#000000" transform="matrix(1.00, 0.00, -0.00, -1.00, 521.1, 496.0)">n</text><path d="M 0.0 0.0 L 384.0 0.0 L 384.0 50.8 L 0.0 50.8 Z M 0.0 0.0 " fill="none" stroke="#000000" stroke-width="1.00" stroke-linejoin="round" transform="matrix(1.00, 0.00, 0.00, -1.00, 168.0, 531.2)"></path><path d="M 56.6 118.8 L 55.9 117.5 L 4.1 8.5 L 3.4 7.2 " fill="none" stroke="#00F900" stroke-width="3.00" stroke-linejoin="round" stroke-dasharray="3.0, 3.0" transform="matrix(1.00, 0.00, 0.00, -1.00, 396.0, 366.0)"></path><path d="M 395.8 355.4 L 396.0 366.0 L 404.3 359.5 Z M 395.8 355.4 " fill="#00F900"></path><path d="M 456.2 250.6 L 456.0 240.0 L 447.7 246.5 Z M 456.2 250.6 " fill="#00F900"></path><path d="M 64.0 0.1 L 62.5 0.1 L 9.5 0.0 L 8.0 0.0 " fill="none" stroke="#00F900" stroke-width="3.00" stroke-linejoin="round" stroke-dasharray="3.0, 3.0" transform="matrix(1.00, 0.00, 0.00, -1.00, 408.0, 366.0)"></path><path d="M 417.5 361.3 L 408.0 366.0 L 417.5 370.7 Z M 417.5 361.3 " fill="#00F900"></path><path d="M 470.5 370.6 L 480.0 365.9 L 470.5 361.2 Z M 470.5 370.6 " fill="#00F900"></path><path d="M 274.2 1.5 L 272.7 1.8 L 9.3 52.2 L 7.8 52.5 " fill="none" stroke="#00F900" stroke-width="3.00" stroke-linejoin="round" stroke-dasharray="3.0, 3.0" transform="matrix(1.00, 0.00, 0.00, -1.00, 198.0, 354.0)"></path><path d="M 208.2 297.1 L 198.0 300.0 L 206.4 306.4 Z M 208.2 297.1 " fill="#00F900"></path><path d="M 469.8 356.9 L 480.0 354.0 L 471.6 347.6 Z M 469.8 356.9 " fill="#00F900"></path><path d="M 137.9 5.1 L 136.7 6.1 L 7.3 113.9 L 6.1 114.9 " fill="none" stroke="#00F900" stroke-width="3.00" stroke-linejoin="round" stroke-dasharray="3.0, 3.0" transform="matrix(1.00, 0.00, 0.00, -1.00, 336.0, 330.0)"></path><path d="M 346.3 212.4 L 336.0 210.0 L 340.2 219.7 Z M 346.3 212.4 " fill="#00F900"></path><path d="M 469.7 327.6 L 480.0 330.0 L 475.8 320.3 Z M 469.7 327.6 " fill="#00F900"></path><path d="M 76.3 2.2 L 74.9 2.6 L 9.1 21.4 L 7.7 21.8 " fill="none" stroke="#00F900" stroke-width="3.00" stroke-linejoin="round" stroke-dasharray="3.0, 3.0" transform="matrix(1.00, 0.00, 0.00, -1.00, 342.0, 222.0)"></path><path d="M 352.4 196.1 L 342.0 198.0 L 349.8 205.1 Z M 352.4 196.1 " fill="#00F900"></path><path d="M 415.6 223.9 L 426.0 222.0 L 418.2 214.9 Z M 415.6 223.9 " fill="#00F900"></path><path d="M 232.3 58.1 L 230.8 57.7 L 9.2 2.3 L 7.7 1.9 " fill="none" stroke="#00F900" stroke-width="3.00" stroke-linejoin="round" stroke-dasharray="3.0, 3.0" transform="matrix(1.00, 0.00, 0.00, -1.00, 204.0, 294.0)"></path><path d="M 212.0 287.1 L 204.0 294.0 L 214.3 296.3 Z M 212.0 287.1 " fill="#00F900"></path><path d="M 436.0 240.9 L 444.0 234.0 L 433.7 231.7 Z M 436.0 240.9 " fill="#00F900"></path><path d="M 64.0 0.1 L 62.5 0.1 L 9.5 0.0 L 8.0 0.0 " fill="none" stroke="#00F900" stroke-width="3.00" stroke-linejoin="round" stroke-dasharray="3.0, 3.0" transform="matrix(1.00, 0.00, 0.00, -1.00, 228.0, 36.0)"></path><path d="M 237.5 31.3 L 228.0 36.0 L 237.5 40.7 Z M 237.5 31.3 " fill="#00F900"></path><path d="M 290.5 40.6 L 300.0 35.9 L 290.5 31.2 Z M 290.5 40.6 " fill="#00F900"></path><text xml:space="preserve" font-family="ArialMT" font-size="24.0" fill="#000000" transform="matrix(1.00, 0.00, -0.00, -1.00, 342.0, 25.0)">I</text><text xml:space="preserve" font-family="ArialMT" font-size="24.0" fill="#000000" transform="matrix(1.00, 0.00, -0.00, -1.00, 348.7, 25.0)">n</text><text xml:space="preserve" font-family="ArialMT" font-size="24.0" fill="#000000" transform="matrix(1.00, 0.00, -0.00, -1.00, 362.0, 25.0)">t</text><text xml:space="preserve" font-family="ArialMT" font-size="24.0" fill="#000000" transform="matrix(1.00, 0.00, -0.00, -1.00, 368.7, 25.0)">e</text><text xml:space="preserve" font-family="ArialMT" font-size="24.0" fill="#000000" transform="matrix(1.00, 0.00, -0.00, -1.00, 382.0, 25.0)">r</text><text xml:space="preserve" font-family="ArialMT" font-size="24.0" fill="#000000" transform="matrix(1.00, 0.00, -0.00, -1.00, 390.0, 25.0)">s</text><text xml:space="preserve" font-family="ArialMT" font-size="24.0" fill="#000000" transform="matrix(1.00, 0.00, -0.00, -1.00, 402.0, 25.0)">p</text><text xml:space="preserve" font-family="ArialMT" font-size="24.0" fill="#000000" transform="matrix(1.00, 0.00, -0.00, -1.00, 415.4, 25.0)">e</text><text xml:space="preserve" font-family="ArialMT" font-size="24.0" fill="#000000" transform="matrix(1.00, 0.00, -0.00, -1.00, 428.7, 25.0)">c</text><text xml:space="preserve" font-family="ArialMT" font-size="24.0" fill="#000000" transform="matrix(1.00, 0.00, -0.00, -1.00, 440.7, 25.0)">i</text><text xml:space="preserve" font-family="ArialMT" font-size="24.0" fill="#000000" transform="matrix(1.00, 0.00, -0.00, -1.00, 446.1, 25.0)">f</text><text xml:space="preserve" font-family="ArialMT" font-size="24.0" fill="#000000" transform="matrix(1.00, 0.00, -0.00, -1.00, 452.7, 25.0)">i</text><text xml:space="preserve" font-family="ArialMT" font-size="24.0" fill="#000000" transform="matrix(1.00, 0.00, -0.00, -1.00, 458.1, 25.0)">c</text><text xml:space="preserve" font-family="ArialMT" font-size="24.0" fill="#000000" transform="matrix(1.00, 0.00, -0.00, -1.00, 470.1, 25.0)"> </text><text xml:space="preserve" font-family="ArialMT" font-size="24.0" fill="#000000" transform="matrix(1.00, 0.00, -0.00, -1.00, 476.7, 25.0)">c</text><text xml:space="preserve" font-family="ArialMT" font-size="24.0" fill="#000000" transform="matrix(1.00, 0.00, -0.00, -1.00, 488.7, 25.0)">o</text><text xml:space="preserve" font-family="ArialMT" font-size="24.0" fill="#000000" transform="matrix(1.00, 0.00, -0.00, -1.00, 502.1, 25.0)">m</text><text xml:space="preserve" font-family="ArialMT" font-size="24.0" fill="#000000" transform="matrix(1.00, 0.00, -0.00, -1.00, 522.1, 25.0)">p</text><text xml:space="preserve" font-family="ArialMT" font-size="24.0" fill="#000000" transform="matrix(1.00, 0.00, -0.00, -1.00, 535.4, 25.0)">e</text><text xml:space="preserve" font-family="ArialMT" font-size="24.0" fill="#000000" transform="matrix(1.00, 0.00, -0.00, -1.00, 548.8, 25.0)">t</text><text xml:space="preserve" font-family="ArialMT" font-size="24.0" fill="#000000" transform="matrix(1.00, 0.00, -0.00, -1.00, 555.4, 25.0)">i</text><text xml:space="preserve" font-family="ArialMT" font-size="24.0" fill="#000000" transform="matrix(1.00, 0.00, -0.00, -1.00, 560.8, 25.0)">t</text><text xml:space="preserve" font-family="ArialMT" font-size="24.0" fill="#000000" transform="matrix(1.00, 0.00, -0.00, -1.00, 567.4, 25.0)">i</text><text xml:space="preserve" font-family="ArialMT" font-size="24.0" fill="#000000" transform="matrix(1.00, 0.00, -0.00, -1.00, 572.8, 25.0)">o</text><text xml:space="preserve" font-family="ArialMT" font-size="24.0" fill="#000000" transform="matrix(1.00, 0.00, -0.00, -1.00, 586.1, 25.0)">n</text><path d="M 0.0 0.0 L 384.0 0.0 L 384.0 50.8 L 0.0 50.8 Z M 0.0 0.0 " fill="none" stroke="#000000" stroke-width="1.00" stroke-linejoin="round" transform="matrix(1.00, 0.00, 0.00, -1.00, 224.4, 58.1)"></path></g></svg>