<?xml version="1.0" encoding="UTF-8" standalone="no"?><svg xmlns="http://www.w3.org/2000/svg" xmlns:xlink="http://www.w3.org/1999/xlink" clip-rule="evenodd" stroke-miterlimit="10" viewBox="0 0 720 540"><desc>SVG generated by Keynote</desc><defs></defs><g transform="matrix(1.00, 0.00, -0.00, -1.00, 0.0, 540.0)"><path d="M 0.0 540.0 L 720.0 540.0 L 720.0 0.0 L 0.0 0.0 Z M 0.0 540.0 " fill="#FEFFFF"></path><image xlink:href="55855C4DE4E5DE553EB7BD454CDEE4C3.png" width="800.00" height="244.00" transform="matrix(0.93, 0.00, -0.00, -0.93, -12.0, 384.0)"></image><text xml:space="preserve" font-family="Helvetica-Oblique,Helvetica" font-style="italic" font-size="26.0" fill="#000000" transform="matrix(1.00, 0.00, -0.00, -1.00, 312.0, 444.0)">T</text><text xml:space="preserve" font-family="Helvetica-Oblique,Helvetica" font-style="italic" font-size="26.0" fill="#000000" transform="matrix(1.00, 0.00, -0.00, -1.00, 326.9, 444.0)">i</text><text xml:space="preserve" font-family="Helvetica-Oblique,Helvetica" font-style="italic" font-size="26.0" fill="#000000" transform="matrix(1.00, 0.00, -0.00, -1.00, 332.7, 444.0)">k</text><text xml:space="preserve" font-family="Helvetica-Oblique,Helvetica" font-style="italic" font-size="26.0" fill="#000000" transform="matrix(1.00, 0.00, -0.00, -1.00, 345.7, 444.0)">t</text><text xml:space="preserve" font-family="Helvetica-Oblique,Helvetica" font-style="italic" font-size="26.0" fill="#000000" transform="matrix(1.00, 0.00, -0.00, -1.00, 352.9, 444.0)">a</text><text xml:space="preserve" font-family="Helvetica-Oblique,Helvetica" font-style="italic" font-size="26.0" fill="#000000" transform="matrix(1.00, 0.00, -0.00, -1.00, 367.4, 444.0)">a</text><text xml:space="preserve" font-family="Helvetica-Oblique,Helvetica" font-style="italic" font-size="26.0" fill="#000000" transform="matrix(1.00, 0.00, -0.00, -1.00, 381.9, 444.0)">l</text><text xml:space="preserve" font-family="Helvetica-Oblique,Helvetica" font-style="italic" font-size="26.0" fill="#000000" transform="matrix(1.00, 0.00, -0.00, -1.00, 387.6, 444.0)">i</text><text xml:space="preserve" font-family="Helvetica-Oblique,Helvetica" font-style="italic" font-size="26.0" fill="#000000" transform="matrix(1.00, 0.00, -0.00, -1.00, 393.4, 444.0)">k</text></g></svg>