<?xml version="1.0" encoding="UTF-8" standalone="no"?><svg xmlns="http://www.w3.org/2000/svg" xmlns:xlink="http://www.w3.org/1999/xlink" clip-rule="evenodd" stroke-miterlimit="10" viewBox="0 0 1024 768"><desc>SVG generated by Keynote</desc><defs></defs><g transform="matrix(1.00, 0.00, -0.00, -1.00, 0.0, 768.0)"><path d="M 0.0 768.0 L 1024.0 768.0 L 1024.0 0.0 L 0.0 0.0 Z M 0.0 768.0 " fill="#FEFFFF"></path><text xml:space="preserve" font-family="ArialMT,Arial" font-size="62.0" fill="#000000" transform="matrix(1.00, 0.00, -0.00, -1.00, 288.0, 614.2)">C</text><text xml:space="preserve" font-family="ArialMT,Arial" font-size="62.0" fill="#000000" transform="matrix(1.00, 0.00, -0.00, -1.00, 332.8, 614.2)">r</text><text xml:space="preserve" font-family="ArialMT,Arial" font-size="62.0" fill="#000000" transform="matrix(1.00, 0.00, -0.00, -1.00, 353.5, 614.2)">a</text><text xml:space="preserve" font-family="ArialMT,Arial" font-size="62.0" fill="#000000" transform="matrix(1.00, 0.00, -0.00, -1.00, 388.0, 614.2)">z</text><text xml:space="preserve" font-family="ArialMT,Arial" font-size="62.0" fill="#000000" transform="matrix(1.00, 0.00, -0.00, -1.00, 419.0, 614.2)">y</text><text xml:space="preserve" font-family="ArialMT,Arial" font-size="62.0" fill="#000000" transform="matrix(1.00, 0.00, -0.00, -1.00, 450.0, 614.2)"> </text><text xml:space="preserve" font-family="ArialMT,Arial" font-size="62.0" fill="#000000" transform="matrix(1.00, 0.00, -0.00, -1.00, 463.8, 614.2)">A</text><text xml:space="preserve" font-family="ArialMT,Arial" font-size="62.0" fill="#000000" transform="matrix(1.00, 0.00, -0.00, -1.00, 505.1, 614.2)">m</text><text xml:space="preserve" font-family="ArialMT,Arial" font-size="62.0" fill="#000000" transform="matrix(1.00, 0.00, -0.00, -1.00, 556.8, 614.2)">p</text><text xml:space="preserve" font-family="ArialMT,Arial" font-size="62.0" fill="#000000" transform="matrix(1.00, 0.00, -0.00, -1.00, 591.3, 614.2)">l</text><text xml:space="preserve" font-family="ArialMT,Arial" font-size="62.0" fill="#000000" transform="matrix(1.00, 0.00, -0.00, -1.00, 605.0, 614.2)">e</text><text xml:space="preserve" font-family="ArialMT,Arial" font-size="62.0" fill="#000000" transform="matrix(1.00, 0.00, -0.00, -1.00, 639.5, 614.2)">x</text><text xml:space="preserve" font-family="ArialMT,Arial" font-size="62.0" fill="#000000" transform="matrix(1.00, 0.00, -0.00, -1.00, 670.5, 614.2)">u</text><text xml:space="preserve" font-family="ArialMT,Arial" font-size="62.0" fill="#000000" transform="matrix(1.00, 0.00, -0.00, -1.00, 705.0, 614.2)">s</text><text xml:space="preserve" font-family="ArialMT,Arial" font-size="44.0" fill="#000000" transform="matrix(1.00, 0.00, -0.00, -1.00, 84.2, 502.8)">•</text><text xml:space="preserve" font-family="ArialMT,Arial" font-size="44.0" fill="#000000" transform="matrix(1.00, 0.00, -0.00, -1.00, 111.2, 502.8)">P</text><text xml:space="preserve" font-family="ArialMT,Arial" font-size="44.0" fill="#000000" transform="matrix(1.00, 0.00, -0.00, -1.00, 134.9, 502.8)">.</text><text xml:space="preserve" font-family="ArialMT,Arial" font-size="44.0" fill="#000000" transform="matrix(1.00, 0.00, -0.00, -1.00, 147.1, 502.8)">5</text><text xml:space="preserve" font-family="ArialMT,Arial" font-size="44.0" fill="#000000" transform="matrix(1.00, 0.00, -0.00, -1.00, 171.6, 502.8)">0</text><text xml:space="preserve" font-family="ArialMT,Arial" font-size="44.0" fill="#000000" transform="matrix(1.00, 0.00, -0.00, -1.00, 196.1, 502.8)">4</text><text xml:space="preserve" font-family="ArialMT,Arial" font-size="44.0" fill="#000000" transform="matrix(1.00, 0.00, -0.00, -1.00, 220.5, 502.8)"> </text><text xml:space="preserve" font-family="ArialMT,Arial" font-size="44.0" fill="#000000" transform="matrix(1.00, 0.00, -0.00, -1.00, 232.7, 502.8)">F</text><text xml:space="preserve" font-family="ArialMT,Arial" font-size="44.0" fill="#000000" transform="matrix(1.00, 0.00, -0.00, -1.00, 259.6, 502.8)">i</text><text xml:space="preserve" font-family="ArialMT,Arial" font-size="44.0" fill="#000000" transform="matrix(1.00, 0.00, -0.00, -1.00, 269.4, 502.8)">g</text><text xml:space="preserve" font-family="ArialMT,Arial" font-size="44.0" fill="#000000" transform="matrix(1.00, 0.00, -0.00, -1.00, 293.9, 502.8)">.</text><text xml:space="preserve" font-family="ArialMT,Arial" font-size="44.0" fill="#000000" transform="matrix(1.00, 0.00, -0.00, -1.00, 306.1, 502.8)"> </text><text xml:space="preserve" font-family="ArialMT,Arial" font-size="44.0" fill="#000000" transform="matrix(1.00, 0.00, -0.00, -1.00, 318.3, 502.8)">1</text><text xml:space="preserve" font-family="ArialMT,Arial" font-size="44.0" fill="#000000" transform="matrix(1.00, 0.00, -0.00, -1.00, 342.8, 502.8)">4</text><text xml:space="preserve" font-family="ArialMT,Arial" font-size="44.0" fill="#000000" transform="matrix(1.00, 0.00, -0.00, -1.00, 367.3, 502.8)">-</text><text xml:space="preserve" font-family="ArialMT,Arial" font-size="44.0" fill="#000000" transform="matrix(1.00, 0.00, -0.00, -1.00, 381.9, 502.8)">8</text><image xlink:href="../../66AF82B2-6493-47B9-BD76-FD8A907E3C1E/assets/286FFC202D437A27BCAA57BA5DB7EA0A.jpeg" width="1022.00" height="699.00" transform="matrix(0.78, 0.00, -0.00, -0.79, 111.0, 606.0)"></image><text xml:space="preserve" font-family="Arial-ItalicMT,Arial" font-style="italic" font-size="34.0" fill="#000000" transform="matrix(1.00, 0.00, -0.00, -1.00, 307.6, 16.3)">A</text><text xml:space="preserve" font-family="Arial-ItalicMT,Arial" font-style="italic" font-size="34.0" fill="#000000" transform="matrix(1.00, 0.00, -0.00, -1.00, 330.2, 16.3)">t</text><text xml:space="preserve" font-family="Arial-ItalicMT,Arial" font-style="italic" font-size="34.0" fill="#000000" transform="matrix(1.00, 0.00, -0.00, -1.00, 339.7, 16.3)">e</text><text xml:space="preserve" font-family="Arial-ItalicMT,Arial" font-style="italic" font-size="34.0" fill="#000000" transform="matrix(1.00, 0.00, -0.00, -1.00, 358.6, 16.3)">l</text><text xml:space="preserve" font-family="Arial-ItalicMT,Arial" font-style="italic" font-size="34.0" fill="#000000" transform="matrix(1.00, 0.00, -0.00, -1.00, 366.1, 16.3)">o</text><text xml:space="preserve" font-family="Arial-ItalicMT,Arial" font-style="italic" font-size="34.0" fill="#000000" transform="matrix(1.00, 0.00, -0.00, -1.00, 385.1, 16.3)">p</text><text xml:space="preserve" font-family="Arial-ItalicMT,Arial" font-style="italic" font-size="34.0" fill="#000000" transform="matrix(1.00, 0.00, -0.00, -1.00, 404.0, 16.3)">u</text><text xml:space="preserve" font-family="Arial-ItalicMT,Arial" font-style="italic" font-size="34.0" fill="#000000" transform="matrix(1.00, 0.00, -0.00, -1.00, 422.9, 16.3)">s</text><text xml:space="preserve" font-family="Arial-ItalicMT,Arial" font-style="italic" font-size="34.0" fill="#000000" transform="matrix(1.00, 0.00, -0.00, -1.00, 439.9, 16.3)"> </text><text xml:space="preserve" font-family="Arial-ItalicMT,Arial" font-style="italic" font-size="34.0" fill="#000000" transform="matrix(1.00, 0.00, -0.00, -1.00, 449.3, 16.3)">v</text><text xml:space="preserve" font-family="Arial-ItalicMT,Arial" font-style="italic" font-size="34.0" fill="#000000" transform="matrix(1.00, 0.00, -0.00, -1.00, 466.3, 16.3)">a</text><text xml:space="preserve" font-family="Arial-ItalicMT,Arial" font-style="italic" font-size="34.0" fill="#000000" transform="matrix(1.00, 0.00, -0.00, -1.00, 485.2, 16.3)">r</text><text xml:space="preserve" font-family="Arial-ItalicMT,Arial" font-style="italic" font-size="34.0" fill="#000000" transform="matrix(1.00, 0.00, -0.00, -1.00, 496.6, 16.3)">i</text><text xml:space="preserve" font-family="Arial-ItalicMT,Arial" font-style="italic" font-size="34.0" fill="#000000" transform="matrix(1.00, 0.00, -0.00, -1.00, 504.1, 16.3)">u</text><text xml:space="preserve" font-family="Arial-ItalicMT,Arial" font-style="italic" font-size="34.0" fill="#000000" transform="matrix(1.00, 0.00, -0.00, -1.00, 523.0, 16.3)">s</text><text xml:space="preserve" font-family="Arial-ItalicMT,Arial" font-style="italic" font-size="34.0" fill="#000000" transform="matrix(1.00, 0.00, -0.00, -1.00, 540.0, 16.3)"> </text><text xml:space="preserve" font-family="ArialMT,Arial" font-size="34.0" fill="#000000" transform="matrix(1.00, 0.00, -0.00, -1.00, 549.5, 16.3)">(</text><text xml:space="preserve" font-family="ArialMT,Arial" font-size="34.0" fill="#000000" transform="matrix(1.00, 0.00, -0.00, -1.00, 560.8, 16.3)">B</text><text xml:space="preserve" font-family="ArialMT,Arial" font-size="34.0" fill="#000000" transform="matrix(1.00, 0.00, -0.00, -1.00, 583.5, 16.3)">u</text><text xml:space="preserve" font-family="ArialMT,Arial" font-size="34.0" fill="#000000" transform="matrix(1.00, 0.00, -0.00, -1.00, 602.4, 16.3)">f</text><text xml:space="preserve" font-family="ArialMT,Arial" font-size="34.0" fill="#000000" transform="matrix(1.00, 0.00, -0.00, -1.00, 611.8, 16.3)">o</text><text xml:space="preserve" font-family="ArialMT,Arial" font-size="34.0" fill="#000000" transform="matrix(1.00, 0.00, -0.00, -1.00, 630.7, 16.3)">n</text><text xml:space="preserve" font-family="ArialMT,Arial" font-size="34.0" fill="#000000" transform="matrix(1.00, 0.00, -0.00, -1.00, 649.6, 16.3)">i</text><text xml:space="preserve" font-family="ArialMT,Arial" font-size="34.0" fill="#000000" transform="matrix(1.00, 0.00, -0.00, -1.00, 657.2, 16.3)">d</text><text xml:space="preserve" font-family="ArialMT,Arial" font-size="34.0" fill="#000000" transform="matrix(1.00, 0.00, -0.00, -1.00, 676.1, 16.3)">a</text><text xml:space="preserve" font-family="ArialMT,Arial" font-size="34.0" fill="#000000" transform="matrix(1.00, 0.00, -0.00, -1.00, 695.0, 16.3)">e</text><text xml:space="preserve" font-family="ArialMT,Arial" font-size="34.0" fill="#000000" transform="matrix(1.00, 0.00, -0.00, -1.00, 713.9, 16.3)">)</text></g></svg>