<?xml version="1.0" encoding="UTF-8" standalone="no"?><svg xmlns="http://www.w3.org/2000/svg" xmlns:xlink="http://www.w3.org/1999/xlink" clip-rule="evenodd" stroke-miterlimit="10" viewBox="0 0 720 540"><desc>SVG generated by Keynote</desc><defs></defs><g transform="matrix(1.00, 0.00, -0.00, -1.00, 0.0, 540.0)"><path d="M 0.0 540.0 L 720.0 540.0 L 720.0 0.0 L 0.0 0.0 Z M 0.0 540.0 " fill="#FEFFFF"></path><g><clipPath id="clip0x600001ebc7a0"><path d="M 104.0 522.0 L 659.0 522.0 L 659.0 72.0 L 104.0 72.0 Z M 104.0 522.0 "></path></clipPath><g clip-path="url(#clip0x600001ebc7a0)"><g><clipPath id="clip0x600001ebcb60"><path d="M 104.0 71.7 L 659.0 71.7 L 659.0 522.0 L 104.0 522.0 Z M 104.0 71.7 "></path></clipPath><g clip-path="url(#clip0x600001ebcb60)"><image xlink:href="../../D3869985-4F3E-498A-BCFD-591AE8190896/assets/4902990E1611A2D58CFB8F06988DF576.png" width="1179.00" height="540.00" transform="matrix(0.97, 0.00, -0.00, -0.97, -460.0, 550.0)"></image></g></g></g></g><g><clipPath id="clip0x608001ab0bc0"><path d="M 233.8 54.9 L 528.0 54.9 L 528.0 59.9 L 233.8 59.9 Z M 233.8 54.9 "></path></clipPath><g clip-path="url(#clip0x608001ab0bc0)"><path d="M 0.2 -0.1 L 292.2 -0.1 " fill="none" stroke="#000000" stroke-width="3.00" transform="matrix(1.00, 0.00, 0.00, -1.00, 234.8, 57.4)"></path></g></g><g><clipPath id="clip0x608001ab0fe0"><path d="M 319.5 -11.1 L 446.1 -11.1 L 446.1 78.5 L 319.5 78.5 Z M 319.5 -11.1 "></path></clipPath><g clip-path="url(#clip0x608001ab0fe0)"><text xml:space="preserve" font-family="GillSans,Gill Sans" font-size="24.0" fill="#000000" transform="matrix(1.00, 0.00, -0.00, -1.00, 364.2, 25.0)">1</text><text xml:space="preserve" font-family="GillSans,Gill Sans" font-size="24.0" fill="#000000" transform="matrix(1.00, 0.00, -0.00, -1.00, 376.2, 25.0)"> </text><text xml:space="preserve" font-family="GillSans,Gill Sans" font-size="24.0" fill="#000000" transform="matrix(1.00, 0.00, -0.00, -1.00, 382.9, 25.0)">m</text></g></g></g></svg>