<?xml version="1.0" encoding="UTF-8" standalone="no"?><svg xmlns="http://www.w3.org/2000/svg" xmlns:xlink="http://www.w3.org/1999/xlink" clip-rule="evenodd" stroke-miterlimit="10" viewBox="0 0 720 540"><desc>SVG generated by Keynote</desc><defs></defs><g transform="matrix(1.00, 0.00, -0.00, -1.00, 0.0, 540.0)"><path d="M 0.0 540.0 L 720.0 540.0 L 720.0 0.0 L 0.0 0.0 Z M 0.0 540.0 " fill="#FEFFFF"></path><image xlink:href="../../0983FBAA-73BA-44C7-A5F1-83F1279ED68E/assets/1BD99046FBAB026206F5D9386D659428.png" width="720.00" height="995.00" transform="matrix(0.53, 0.00, -0.00, -0.53, 168.0, 536.0)"></image><text xml:space="preserve" font-family="GillSans,Gill Sans" font-size="14.0" fill="#000000" transform="matrix(1.00, 0.00, -0.00, -1.00, 610.2, 9.2)">C</text><text xml:space="preserve" font-family="GillSans,Gill Sans" font-size="14.0" fill="#000000" transform="matrix(1.00, 0.00, -0.00, -1.00, 620.1, 9.2)">o</text><text xml:space="preserve" font-family="GillSans,Gill Sans" font-size="14.0" fill="#000000" transform="matrix(1.00, 0.00, -0.00, -1.00, 627.8, 9.2)">a</text><text xml:space="preserve" font-family="GillSans,Gill Sans" font-size="14.0" fill="#000000" transform="matrix(1.00, 0.00, -0.00, -1.00, 633.8, 9.2)">t</text><text xml:space="preserve" font-family="GillSans,Gill Sans" font-size="14.0" fill="#000000" transform="matrix(1.00, 0.00, -0.00, -1.00, 638.4, 9.2)">e</text><text xml:space="preserve" font-family="GillSans,Gill Sans" font-size="14.0" fill="#000000" transform="matrix(1.00, 0.00, -0.00, -1.00, 645.1, 9.2)">s</text><text xml:space="preserve" font-family="GillSans,Gill Sans" font-size="14.0" fill="#000000" transform="matrix(1.00, 0.00, -0.00, -1.00, 650.5, 9.2)"> </text><text xml:space="preserve" font-family="GillSans,Gill Sans" font-size="14.0" fill="#000000" transform="matrix(1.00, 0.00, -0.00, -1.00, 654.4, 9.2)">e</text><text xml:space="preserve" font-family="GillSans,Gill Sans" font-size="14.0" fill="#000000" transform="matrix(1.00, 0.00, -0.00, -1.00, 661.1, 9.2)">t</text><text xml:space="preserve" font-family="GillSans,Gill Sans" font-size="14.0" fill="#000000" transform="matrix(1.00, 0.00, -0.00, -1.00, 665.8, 9.2)"> </text><text xml:space="preserve" font-family="GillSans,Gill Sans" font-size="14.0" fill="#000000" transform="matrix(1.00, 0.00, -0.00, -1.00, 669.7, 9.2)">a</text><text xml:space="preserve" font-family="GillSans,Gill Sans" font-size="14.0" fill="#000000" transform="matrix(1.00, 0.00, -0.00, -1.00, 675.6, 9.2)">l</text><text xml:space="preserve" font-family="GillSans,Gill Sans" font-size="14.0" fill="#000000" transform="matrix(1.00, 0.00, -0.00, -1.00, 678.7, 9.2)">.</text><text xml:space="preserve" font-family="GillSans,Gill Sans" font-size="14.0" fill="#000000" transform="matrix(1.00, 0.00, -0.00, -1.00, 680.4, 9.2)"> </text><text xml:space="preserve" font-family="GillSans,Gill Sans" font-size="14.0" fill="#000000" transform="matrix(1.00, 0.00, -0.00, -1.00, 684.3, 9.2)">2</text><text xml:space="preserve" font-family="GillSans,Gill Sans" font-size="14.0" fill="#000000" transform="matrix(1.00, 0.00, -0.00, -1.00, 691.3, 9.2)">0</text><text xml:space="preserve" font-family="GillSans,Gill Sans" font-size="14.0" fill="#000000" transform="matrix(1.00, 0.00, -0.00, -1.00, 698.3, 9.2)">0</text><text xml:space="preserve" font-family="GillSans,Gill Sans" font-size="14.0" fill="#000000" transform="matrix(1.00, 0.00, -0.00, -1.00, 705.3, 9.2)">8</text><g><clipPath id="clip0x6080020ad0e0"><path d="M 252.0 -118.0 L 263.0 -118.0 L 263.0 541.0 L 252.0 541.0 Z M 252.0 -118.0 "></path></clipPath><g clip-path="url(#clip0x6080020ad0e0)"><g opacity="0.40"><g><clipPath id="clip0x6080020ad260"><path d="M 253.0 0.0 L 262.0 0.0 L 262.0 540.0 L 253.0 540.0 Z M 253.0 0.0 "></path></clipPath><g clip-path="url(#clip0x6080020ad260)"><path d="M 254.0 539.0 L 261.0 539.0 L 261.0 -116.0 L 254.0 -116.0 Z M 254.0 539.0 " fill="#B82C5D"></path><path d="M 0.0 0.0 L 7.0 0.0 L 7.0 655.0 L 0.0 655.0 Z M 0.0 0.0 " fill="none" stroke="#000000" stroke-opacity="0.00" stroke-width="2.00" transform="matrix(1.00, 0.00, 0.00, -1.00, 254.0, 539.0)"></path></g></g></g></g></g><g><clipPath id="clip0x6000020a95a0"><path d="M 282.0 154.0 L 657.0 154.0 L 657.0 357.0 L 282.0 357.0 Z M 282.0 154.0 "></path></clipPath><g clip-path="url(#clip0x6000020a95a0)"><g opacity="0.70"><g><clipPath id="clip0x6000020a92a0"><path d="M 283.0 155.0 L 656.0 155.0 L 656.0 356.0 L 283.0 356.0 Z M 283.0 155.0 "></path></clipPath><g clip-path="url(#clip0x6000020a92a0)"><path d="M 284.0 355.0 L 655.0 355.0 L 655.0 156.0 L 284.0 156.0 Z M 284.0 355.0 " fill="#99234E"></path><path d="M 0.0 0.0 L 371.0 0.0 L 371.0 199.0 L 0.0 199.0 Z M 0.0 0.0 " fill="none" stroke="#000000" stroke-width="2.00" transform="matrix(1.00, 0.00, 0.00, -1.00, 284.0, 355.0)"></path></g></g></g></g></g><g opacity="0.70"><image xlink:href="../../8731B918-116E-41F6-A556-1628DEB97BE4/assets/018CA341FF96644537415BB949928F0A.png" width="281.00" height="40.00" transform="matrix(1.00, 0.00, -0.00, -1.00, 329.0, 301.0)"></image><g><clipPath id="clip0x6080020acea0"><path d="M 283.0 157.0 L 656.0 157.0 L 656.0 354.0 L 283.0 354.0 Z M 283.0 157.0 "></path></clipPath><g clip-path="url(#clip0x6080020acea0)"><text xml:space="preserve" font-family="GillSans,Gill Sans" font-size="48.0" fill="#FEFFFF" transform="matrix(1.00, 0.00, -0.00, -1.00, 329.4, 266.1)">L</text><text xml:space="preserve" font-family="GillSans,Gill Sans" font-size="48.0" fill="#FEFFFF" transform="matrix(1.00, 0.00, -0.00, -1.00, 353.0, 266.1)">a</text><text xml:space="preserve" font-family="GillSans,Gill Sans" font-size="48.0" fill="#FEFFFF" transform="matrix(1.00, 0.00, -0.00, -1.00, 373.4, 266.1)">t</text><text xml:space="preserve" font-family="GillSans,Gill Sans" font-size="48.0" fill="#FEFFFF" transform="matrix(1.00, 0.00, -0.00, -1.00, 389.4, 266.1)">e</text><text xml:space="preserve" font-family="GillSans,Gill Sans" font-size="48.0" fill="#FEFFFF" transform="matrix(1.00, 0.00, -0.00, -1.00, 412.4, 266.1)"> </text><text xml:space="preserve" font-family="GillSans,Gill Sans" font-size="48.0" fill="#FEFFFF" transform="matrix(1.00, 0.00, -0.00, -1.00, 425.7, 266.1)">D</text><text xml:space="preserve" font-family="GillSans,Gill Sans" font-size="48.0" fill="#FEFFFF" transform="matrix(1.00, 0.00, -0.00, -1.00, 461.7, 266.1)">e</text><text xml:space="preserve" font-family="GillSans,Gill Sans" font-size="48.0" fill="#FEFFFF" transform="matrix(1.00, 0.00, -0.00, -1.00, 484.0, 266.1)">v</text><text xml:space="preserve" font-family="GillSans,Gill Sans" font-size="48.0" fill="#FEFFFF" transform="matrix(1.00, 0.00, -0.00, -1.00, 504.1, 266.1)">o</text><text xml:space="preserve" font-family="GillSans,Gill Sans" font-size="48.0" fill="#FEFFFF" transform="matrix(1.00, 0.00, -0.00, -1.00, 530.5, 266.1)">n</text><text xml:space="preserve" font-family="GillSans,Gill Sans" font-size="48.0" fill="#FEFFFF" transform="matrix(1.00, 0.00, -0.00, -1.00, 554.5, 266.1)">i</text><text xml:space="preserve" font-family="GillSans,Gill Sans" font-size="48.0" fill="#FEFFFF" transform="matrix(1.00, 0.00, -0.00, -1.00, 565.1, 266.1)">a</text><text xml:space="preserve" font-family="GillSans,Gill Sans" font-size="48.0" fill="#FEFFFF" transform="matrix(1.00, 0.00, -0.00, -1.00, 585.6, 266.1)">n</text><text xml:space="preserve" font-family="GillSans,Gill Sans" font-size="48.0" fill="#FEFFFF" transform="matrix(1.00, 0.00, -0.00, -1.00, 609.6, 266.1)"> </text></g></g><image xlink:href="../../8731B918-116E-41F6-A556-1628DEB97BE4/assets/E7074BF3FE8E69A6E461B28C40F5D1C4.png" width="306.00" height="38.00" transform="matrix(1.00, 0.00, -0.00, -1.00, 316.0, 244.0)"></image><g><clipPath id="clip0x6080020ac660"><path d="M 283.0 157.0 L 656.0 157.0 L 656.0 354.0 L 283.0 354.0 Z M 283.0 157.0 "></path></clipPath><g clip-path="url(#clip0x6080020ac660)"><text xml:space="preserve" font-family="GillSans,Gill Sans" font-size="48.0" fill="#FEFFFF" transform="matrix(1.00, 0.00, -0.00, -1.00, 317.9, 211.1)">m</text><text xml:space="preserve" font-family="GillSans,Gill Sans" font-size="48.0" fill="#FEFFFF" transform="matrix(1.00, 0.00, -0.00, -1.00, 354.9, 211.1)">a</text><text xml:space="preserve" font-family="GillSans,Gill Sans" font-size="48.0" fill="#FEFFFF" transform="matrix(1.00, 0.00, -0.00, -1.00, 375.3, 211.1)">s</text><text xml:space="preserve" font-family="GillSans,Gill Sans" font-size="48.0" fill="#FEFFFF" transform="matrix(1.00, 0.00, -0.00, -1.00, 393.8, 211.1)">s</text><text xml:space="preserve" font-family="GillSans,Gill Sans" font-size="48.0" fill="#FEFFFF" transform="matrix(1.00, 0.00, -0.00, -1.00, 412.3, 211.1)"> </text><text xml:space="preserve" font-family="GillSans,Gill Sans" font-size="48.0" fill="#FEFFFF" transform="matrix(1.00, 0.00, -0.00, -1.00, 425.6, 211.1)">e</text><text xml:space="preserve" font-family="GillSans,Gill Sans" font-size="48.0" fill="#FEFFFF" transform="matrix(1.00, 0.00, -0.00, -1.00, 448.6, 211.1)">x</text><text xml:space="preserve" font-family="GillSans,Gill Sans" font-size="48.0" fill="#FEFFFF" transform="matrix(1.00, 0.00, -0.00, -1.00, 472.6, 211.1)">t</text><text xml:space="preserve" font-family="GillSans,Gill Sans" font-size="48.0" fill="#FEFFFF" transform="matrix(1.00, 0.00, -0.00, -1.00, 488.6, 211.1)">i</text><text xml:space="preserve" font-family="GillSans,Gill Sans" font-size="48.0" fill="#FEFFFF" transform="matrix(1.00, 0.00, -0.00, -1.00, 499.1, 211.1)">n</text><text xml:space="preserve" font-family="GillSans,Gill Sans" font-size="48.0" fill="#FEFFFF" transform="matrix(1.00, 0.00, -0.00, -1.00, 523.1, 211.1)">c</text><text xml:space="preserve" font-family="GillSans,Gill Sans" font-size="48.0" fill="#FEFFFF" transform="matrix(1.00, 0.00, -0.00, -1.00, 544.1, 211.1)">t</text><text xml:space="preserve" font-family="GillSans,Gill Sans" font-size="48.0" fill="#FEFFFF" transform="matrix(1.00, 0.00, -0.00, -1.00, 560.1, 211.1)">i</text><text xml:space="preserve" font-family="GillSans,Gill Sans" font-size="48.0" fill="#FEFFFF" transform="matrix(1.00, 0.00, -0.00, -1.00, 570.6, 211.1)">o</text><text xml:space="preserve" font-family="GillSans,Gill Sans" font-size="48.0" fill="#FEFFFF" transform="matrix(1.00, 0.00, -0.00, -1.00, 597.1, 211.1)">n</text></g></g></g></g></svg>