<?xml version="1.0" encoding="UTF-8" standalone="no"?><svg xmlns="http://www.w3.org/2000/svg" xmlns:xlink="http://www.w3.org/1999/xlink" clip-rule="evenodd" stroke-miterlimit="10" viewBox="0 0 720 540"><desc>SVG generated by Keynote</desc><defs></defs><g transform="matrix(1.00, 0.00, -0.00, -1.00, 0.0, 540.0)"><path d="M 0.0 540.0 L 720.0 540.0 L 720.0 0.0 L 0.0 0.0 Z M 0.0 540.0 " fill="#FEFFFF"></path><text xml:space="preserve" font-family="ArialMT,Arial" font-size="42.0" fill="#000000" transform="matrix(1.00, 0.00, -0.00, -1.00, 313.7, 432.3)">A</text><text xml:space="preserve" font-family="ArialMT,Arial" font-size="42.0" fill="#000000" transform="matrix(1.00, 0.00, -0.00, -1.00, 340.9, 432.3)">v</text><text xml:space="preserve" font-family="ArialMT,Arial" font-size="42.0" fill="#000000" transform="matrix(1.00, 0.00, -0.00, -1.00, 361.9, 432.3)">e</text><text xml:space="preserve" font-family="ArialMT,Arial" font-size="42.0" fill="#000000" transform="matrix(1.00, 0.00, -0.00, -1.00, 385.3, 432.3)">s</text><text xml:space="preserve" font-family="ArialMT,Arial" font-size="30.0" fill="#000000" transform="matrix(1.00, 0.00, -0.00, -1.00, 61.2, 353.3)">•</text><text xml:space="preserve" font-family="ArialMT,Arial" font-size="30.0" fill="#000000" transform="matrix(1.00, 0.00, -0.00, -1.00, 88.2, 353.3)">~</text><text xml:space="preserve" font-family="ArialMT,Arial" font-size="30.0" fill="#000000" transform="matrix(1.00, 0.00, -0.00, -1.00, 105.7, 353.3)">1</text><text xml:space="preserve" font-family="ArialMT,Arial" font-size="30.0" fill="#000000" transform="matrix(1.00, 0.00, -0.00, -1.00, 122.4, 353.3)">0</text><text xml:space="preserve" font-family="ArialMT,Arial" font-size="30.0" fill="#000000" transform="matrix(1.00, 0.00, -0.00, -1.00, 139.1, 353.3)">0</text><text xml:space="preserve" font-family="ArialMT,Arial" font-size="30.0" fill="#000000" transform="matrix(1.00, 0.00, -0.00, -1.00, 155.8, 353.3)">0</text><text xml:space="preserve" font-family="ArialMT,Arial" font-size="30.0" fill="#000000" transform="matrix(1.00, 0.00, -0.00, -1.00, 172.5, 353.3)">0</text><text xml:space="preserve" font-family="ArialMT,Arial" font-size="30.0" fill="#000000" transform="matrix(1.00, 0.00, -0.00, -1.00, 189.2, 353.3)"> </text><text xml:space="preserve" font-family="ArialMT,Arial" font-size="30.0" fill="#000000" transform="matrix(1.00, 0.00, -0.00, -1.00, 197.5, 353.3)">s</text><text xml:space="preserve" font-family="ArialMT,Arial" font-size="30.0" fill="#000000" transform="matrix(1.00, 0.00, -0.00, -1.00, 212.5, 353.3)">p</text><text xml:space="preserve" font-family="ArialMT,Arial" font-size="30.0" fill="#000000" transform="matrix(1.00, 0.00, -0.00, -1.00, 229.2, 353.3)">e</text><text xml:space="preserve" font-family="ArialMT,Arial" font-size="30.0" fill="#000000" transform="matrix(1.00, 0.00, -0.00, -1.00, 245.9, 353.3)">c</text><text xml:space="preserve" font-family="ArialMT,Arial" font-size="30.0" fill="#000000" transform="matrix(1.00, 0.00, -0.00, -1.00, 260.9, 353.3)">i</text><text xml:space="preserve" font-family="ArialMT,Arial" font-size="30.0" fill="#000000" transform="matrix(1.00, 0.00, -0.00, -1.00, 267.6, 353.3)">e</text><text xml:space="preserve" font-family="ArialMT,Arial" font-size="30.0" fill="#000000" transform="matrix(1.00, 0.00, -0.00, -1.00, 284.2, 353.3)">s</text><text xml:space="preserve" font-family="ArialMT,Arial" font-size="30.0" fill="#000000" transform="matrix(1.00, 0.00, -0.00, -1.00, 299.2, 353.3)"> </text><text xml:space="preserve" font-family="ArialMT,Arial" font-size="30.0" fill="#000000" transform="matrix(1.00, 0.00, -0.00, -1.00, 61.2, 311.9)">•</text><text xml:space="preserve" font-family="ArialMT,Arial" font-size="30.0" fill="#000000" transform="matrix(1.00, 0.00, -0.00, -1.00, 88.2, 311.9)">F</text><text xml:space="preserve" font-family="ArialMT,Arial" font-size="30.0" fill="#000000" transform="matrix(1.00, 0.00, -0.00, -1.00, 106.5, 311.9)">e</text><text xml:space="preserve" font-family="ArialMT,Arial" font-size="30.0" fill="#000000" transform="matrix(1.00, 0.00, -0.00, -1.00, 123.2, 311.9)">a</text><text xml:space="preserve" font-family="ArialMT,Arial" font-size="30.0" fill="#000000" transform="matrix(1.00, 0.00, -0.00, -1.00, 139.9, 311.9)">t</text><text xml:space="preserve" font-family="ArialMT,Arial" font-size="30.0" fill="#000000" transform="matrix(1.00, 0.00, -0.00, -1.00, 148.2, 311.9)">h</text><text xml:space="preserve" font-family="ArialMT,Arial" font-size="30.0" fill="#000000" transform="matrix(1.00, 0.00, -0.00, -1.00, 164.9, 311.9)">e</text><text xml:space="preserve" font-family="ArialMT,Arial" font-size="30.0" fill="#000000" transform="matrix(1.00, 0.00, -0.00, -1.00, 181.6, 311.9)">r</text><text xml:space="preserve" font-family="ArialMT,Arial" font-size="30.0" fill="#000000" transform="matrix(1.00, 0.00, -0.00, -1.00, 191.6, 311.9)">s</text><text xml:space="preserve" font-family="ArialMT,Arial" font-size="30.0" fill="#000000" transform="matrix(1.00, 0.00, -0.00, -1.00, 206.6, 311.9)">,</text><text xml:space="preserve" font-family="ArialMT,Arial" font-size="30.0" fill="#000000" transform="matrix(1.00, 0.00, -0.00, -1.00, 214.9, 311.9)"> </text><text xml:space="preserve" font-family="ArialMT,Arial" font-size="30.0" fill="#000000" transform="matrix(1.00, 0.00, -0.00, -1.00, 223.3, 311.9)">f</text><text xml:space="preserve" font-family="ArialMT,Arial" font-size="30.0" fill="#000000" transform="matrix(1.00, 0.00, -0.00, -1.00, 231.6, 311.9)">l</text><text xml:space="preserve" font-family="ArialMT,Arial" font-size="30.0" fill="#000000" transform="matrix(1.00, 0.00, -0.00, -1.00, 238.3, 311.9)">i</text><text xml:space="preserve" font-family="ArialMT,Arial" font-size="30.0" fill="#000000" transform="matrix(1.00, 0.00, -0.00, -1.00, 244.9, 311.9)">g</text><text xml:space="preserve" font-family="ArialMT,Arial" font-size="30.0" fill="#000000" transform="matrix(1.00, 0.00, -0.00, -1.00, 261.6, 311.9)">h</text><text xml:space="preserve" font-family="ArialMT,Arial" font-size="30.0" fill="#000000" transform="matrix(1.00, 0.00, -0.00, -1.00, 278.3, 311.9)">t</text><text xml:space="preserve" font-family="ArialMT,Arial" font-size="30.0" fill="#000000" transform="matrix(1.00, 0.00, -0.00, -1.00, 286.6, 311.9)">,</text><text xml:space="preserve" font-family="ArialMT,Arial" font-size="30.0" fill="#000000" transform="matrix(1.00, 0.00, -0.00, -1.00, 295.0, 311.9)"> </text><text xml:space="preserve" font-family="ArialMT,Arial" font-size="30.0" fill="#000000" transform="matrix(1.00, 0.00, -0.00, -1.00, 303.3, 311.9)">b</text><text xml:space="preserve" font-family="ArialMT,Arial" font-size="30.0" fill="#000000" transform="matrix(1.00, 0.00, -0.00, -1.00, 320.0, 311.9)">e</text><text xml:space="preserve" font-family="ArialMT,Arial" font-size="30.0" fill="#000000" transform="matrix(1.00, 0.00, -0.00, -1.00, 336.7, 311.9)">a</text><text xml:space="preserve" font-family="ArialMT,Arial" font-size="30.0" fill="#000000" transform="matrix(1.00, 0.00, -0.00, -1.00, 353.4, 311.9)">k</text><text xml:space="preserve" font-family="ArialMT,Arial" font-size="30.0" fill="#000000" transform="matrix(1.00, 0.00, -0.00, -1.00, 368.4, 311.9)">s</text><text xml:space="preserve" font-family="ArialMT,Arial" font-size="30.0" fill="#000000" transform="matrix(1.00, 0.00, -0.00, -1.00, 383.4, 311.9)">,</text><text xml:space="preserve" font-family="ArialMT,Arial" font-size="30.0" fill="#000000" transform="matrix(1.00, 0.00, -0.00, -1.00, 391.7, 311.9)"> </text><text xml:space="preserve" font-family="ArialMT,Arial" font-size="30.0" fill="#000000" transform="matrix(1.00, 0.00, -0.00, -1.00, 400.0, 311.9)">h</text><text xml:space="preserve" font-family="ArialMT,Arial" font-size="30.0" fill="#000000" transform="matrix(1.00, 0.00, -0.00, -1.00, 416.7, 311.9)">o</text><text xml:space="preserve" font-family="ArialMT,Arial" font-size="30.0" fill="#000000" transform="matrix(1.00, 0.00, -0.00, -1.00, 433.4, 311.9)">m</text><text xml:space="preserve" font-family="ArialMT,Arial" font-size="30.0" fill="#000000" transform="matrix(1.00, 0.00, -0.00, -1.00, 458.4, 311.9)">e</text><text xml:space="preserve" font-family="ArialMT,Arial" font-size="30.0" fill="#000000" transform="matrix(1.00, 0.00, -0.00, -1.00, 475.1, 311.9)">o</text><text xml:space="preserve" font-family="ArialMT,Arial" font-size="30.0" fill="#000000" transform="matrix(1.00, 0.00, -0.00, -1.00, 491.8, 311.9)">t</text><text xml:space="preserve" font-family="ArialMT,Arial" font-size="30.0" fill="#000000" transform="matrix(1.00, 0.00, -0.00, -1.00, 500.1, 311.9)">h</text><text xml:space="preserve" font-family="ArialMT,Arial" font-size="30.0" fill="#000000" transform="matrix(1.00, 0.00, -0.00, -1.00, 516.8, 311.9)">e</text><text xml:space="preserve" font-family="ArialMT,Arial" font-size="30.0" fill="#000000" transform="matrix(1.00, 0.00, -0.00, -1.00, 533.5, 311.9)">r</text><text xml:space="preserve" font-family="ArialMT,Arial" font-size="30.0" fill="#000000" transform="matrix(1.00, 0.00, -0.00, -1.00, 543.5, 311.9)">m</text><text xml:space="preserve" font-family="ArialMT,Arial" font-size="30.0" fill="#000000" transform="matrix(1.00, 0.00, -0.00, -1.00, 568.5, 311.9)">y</text><g><clipPath id="clip0x600003ea4d40"><path d="M 276.0 75.0 L 528.0 75.0 L 528.0 264.0 L 276.0 264.0 Z M 276.0 75.0 "></path></clipPath><g clip-path="url(#clip0x600003ea4d40)"><path d="M 276.0 264.0 L 528.0 264.0 L 528.0 75.0 L 276.0 75.0 Z M 276.0 264.0 " fill="#FFFFFF"></path><image xlink:href="642E692E134EB0982E7FF527660E9E0C.png" width="240.00" height="180.00" transform="matrix(1.05, 0.00, -0.00, -1.05, 276.0, 264.0)"></image></g></g></g></svg>