<?xml version="1.0" encoding="UTF-8" standalone="no"?><svg xmlns="http://www.w3.org/2000/svg" xmlns:xlink="http://www.w3.org/1999/xlink" clip-rule="evenodd" stroke-miterlimit="4.00" viewBox="0 0 720 540"><desc>SVG generated by Keynote</desc><defs></defs><g transform="matrix(1.00, 0.00, -0.00, -1.00, 0.0, 540.0)"><path d="M 0.0 540.0 L 720.0 540.0 L 720.0 0.0 L 0.0 0.0 Z M 0.0 540.0 " fill="#FEFFFF"></path><g><clipPath id="clip-165"><path d="M 0.0 306.0 L 312.0 306.0 L 312.0 540.0 L 0.0 540.0 Z M 0.0 306.0 "></path></clipPath><g clip-path="url(#clip-165)"><path d="M 0.0 540.0 L 312.0 540.0 L 312.0 306.0 L 0.0 306.0 Z M 0.0 540.0 " fill="#FFFFFF"></path><image xlink:href="1115B9190E2B5448502DE5965EEF2E8F.png" width="640.00" height="480.00" transform="matrix(0.49, 0.00, -0.00, -0.49, 0.0, 540.0)"></image></g></g><g><clipPath id="clip-166"><path d="M 306.0 306.0 L 618.0 306.0 L 618.0 540.0 L 306.0 540.0 Z M 306.0 306.0 "></path></clipPath><g clip-path="url(#clip-166)"><path d="M 306.0 540.0 L 618.0 540.0 L 618.0 306.0 L 306.0 306.0 Z M 306.0 540.0 " fill="#FFFFFF"></path><image xlink:href="9BB9380323E8974E8204AB5419FCD934.png" width="720.00" height="540.00" transform="matrix(0.43, 0.00, -0.00, -0.43, 306.0, 540.0)"></image></g></g><g><clipPath id="clip-167"><path d="M 0.0 95.0 L 330.0 95.0 L 330.0 312.0 L 0.0 312.0 Z M 0.0 95.0 "></path></clipPath><g clip-path="url(#clip-167)"><path d="M 0.0 312.0 L 330.0 312.0 L 330.0 95.0 L 0.0 95.0 Z M 0.0 312.0 " fill="#FFFFFF"></path><image xlink:href="1C2BE725223C8CF39E02B36CBE213F61.png" width="570.00" height="374.00" transform="matrix(0.58, 0.00, -0.00, -0.58, 0.0, 312.0)"></image></g></g><g><clipPath id="clip-168"><path d="M 539.0 295.0 L 720.0 295.0 L 720.0 540.0 L 539.0 540.0 Z M 539.0 295.0 "></path></clipPath><g clip-path="url(#clip-168)"><path d="M 539.0 540.0 L 720.0 540.0 L 720.0 295.0 L 539.0 295.0 Z M 539.0 540.0 " fill="#FFFFFF"></path><image xlink:href="AD1C351E3F41C29615262B76F85B143E.png" width="314.00" height="425.00" transform="matrix(0.58, 0.00, -0.00, -0.58, 539.0, 540.0)"></image></g></g><g><clipPath id="clip-169"><path d="M 342.0 0.0 L 720.0 0.0 L 720.0 301.0 L 342.0 301.0 Z M 342.0 0.0 "></path></clipPath><g clip-path="url(#clip-169)"><path d="M 342.0 301.0 L 720.0 301.0 L 720.0 0.0 L 342.0 0.0 Z M 342.0 301.0 " fill="#FFFFFF"></path><image xlink:href="15A3F28EBE572F69C3AB16E01A4F954D.png" width="500.00" height="398.00" transform="matrix(0.76, 0.00, -0.00, -0.76, 342.0, 301.0)"></image></g></g><text xml:space="preserve" font-family="ArialMT" font-size="18.0" fill="#000000" transform="matrix(1.00, 0.00, -0.00, -1.00, 84.0, 43.0)">P</text><text xml:space="preserve" font-family="ArialMT" font-size="18.0" fill="#000000" transform="matrix(1.00, 0.00, -0.00, -1.00, 96.0, 43.0)">o</text><text xml:space="preserve" font-family="ArialMT" font-size="18.0" fill="#000000" transform="matrix(1.00, 0.00, -0.00, -1.00, 106.0, 43.0)">i</text><text xml:space="preserve" font-family="ArialMT" font-size="18.0" fill="#000000" transform="matrix(1.00, 0.00, -0.00, -1.00, 110.0, 43.0)">s</text><text xml:space="preserve" font-family="ArialMT" font-size="18.0" fill="#000000" transform="matrix(1.00, 0.00, -0.00, -1.00, 119.0, 43.0)">o</text><text xml:space="preserve" font-family="ArialMT" font-size="18.0" fill="#000000" transform="matrix(1.00, 0.00, -0.00, -1.00, 129.0, 43.0)">n</text><text xml:space="preserve" font-family="ArialMT" font-size="18.0" fill="#000000" transform="matrix(1.00, 0.00, -0.00, -1.00, 139.1, 43.0)"> </text><text xml:space="preserve" font-family="ArialMT" font-size="18.0" fill="#000000" transform="matrix(1.00, 0.00, -0.00, -1.00, 144.0, 43.0)">d</text><text xml:space="preserve" font-family="ArialMT" font-size="18.0" fill="#000000" transform="matrix(1.00, 0.00, -0.00, -1.00, 154.1, 43.0)">a</text><text xml:space="preserve" font-family="ArialMT" font-size="18.0" fill="#000000" transform="matrix(1.00, 0.00, -0.00, -1.00, 164.1, 43.0)">r</text><text xml:space="preserve" font-family="ArialMT" font-size="18.0" fill="#000000" transform="matrix(1.00, 0.00, -0.00, -1.00, 170.1, 43.0)">t</text><text xml:space="preserve" font-family="ArialMT" font-size="18.0" fill="#000000" transform="matrix(1.00, 0.00, -0.00, -1.00, 175.1, 43.0)"> </text><text xml:space="preserve" font-family="ArialMT" font-size="18.0" fill="#000000" transform="matrix(1.00, 0.00, -0.00, -1.00, 180.1, 43.0)">f</text><text xml:space="preserve" font-family="ArialMT" font-size="18.0" fill="#000000" transform="matrix(1.00, 0.00, -0.00, -1.00, 185.1, 43.0)">r</text><text xml:space="preserve" font-family="ArialMT" font-size="18.0" fill="#000000" transform="matrix(1.00, 0.00, -0.00, -1.00, 191.1, 43.0)">o</text><text xml:space="preserve" font-family="ArialMT" font-size="18.0" fill="#000000" transform="matrix(1.00, 0.00, -0.00, -1.00, 201.1, 43.0)">g</text><text xml:space="preserve" font-family="ArialMT" font-size="18.0" fill="#000000" transform="matrix(1.00, 0.00, -0.00, -1.00, 211.1, 43.0)">s</text><text xml:space="preserve" font-family="ArialMT" font-size="18.0" fill="#000000" transform="matrix(1.00, 0.00, -0.00, -1.00, 220.1, 43.0)"> </text><text xml:space="preserve" font-family="ArialMT" font-size="18.0" fill="#000000" transform="matrix(1.00, 0.00, -0.00, -1.00, 84.0, 22.0)">(</text><text xml:space="preserve" font-family="Arial-ItalicMT" font-style="italic" font-size="18.0" fill="#000000" transform="matrix(1.00, 0.00, -0.00, -1.00, 90.0, 22.0)">D</text><text xml:space="preserve" font-family="Arial-ItalicMT" font-style="italic" font-size="18.0" fill="#000000" transform="matrix(1.00, 0.00, -0.00, -1.00, 103.0, 22.0)">e</text><text xml:space="preserve" font-family="Arial-ItalicMT" font-style="italic" font-size="18.0" fill="#000000" transform="matrix(1.00, 0.00, -0.00, -1.00, 113.0, 22.0)">n</text><text xml:space="preserve" font-family="Arial-ItalicMT" font-style="italic" font-size="18.0" fill="#000000" transform="matrix(1.00, 0.00, -0.00, -1.00, 123.0, 22.0)">d</text><text xml:space="preserve" font-family="Arial-ItalicMT" font-style="italic" font-size="18.0" fill="#000000" transform="matrix(1.00, 0.00, -0.00, -1.00, 133.0, 22.0)">r</text><text xml:space="preserve" font-family="Arial-ItalicMT" font-style="italic" font-size="18.0" fill="#000000" transform="matrix(1.00, 0.00, -0.00, -1.00, 139.0, 22.0)">o</text><text xml:space="preserve" font-family="Arial-ItalicMT" font-style="italic" font-size="18.0" fill="#000000" transform="matrix(1.00, 0.00, -0.00, -1.00, 149.0, 22.0)">b</text><text xml:space="preserve" font-family="Arial-ItalicMT" font-style="italic" font-size="18.0" fill="#000000" transform="matrix(1.00, 0.00, -0.00, -1.00, 159.1, 22.0)">a</text><text xml:space="preserve" font-family="Arial-ItalicMT" font-style="italic" font-size="18.0" fill="#000000" transform="matrix(1.00, 0.00, -0.00, -1.00, 169.1, 22.0)">t</text><text xml:space="preserve" font-family="Arial-ItalicMT" font-style="italic" font-size="18.0" fill="#000000" transform="matrix(1.00, 0.00, -0.00, -1.00, 174.1, 22.0)">e</text><text xml:space="preserve" font-family="Arial-ItalicMT" font-style="italic" font-size="18.0" fill="#000000" transform="matrix(1.00, 0.00, -0.00, -1.00, 184.1, 22.0)">s</text><text xml:space="preserve" font-family="ArialMT" font-size="18.0" fill="#000000" transform="matrix(1.00, 0.00, -0.00, -1.00, 193.1, 22.0)">)</text></g></svg>