<?xml version="1.0" encoding="UTF-8" standalone="no"?><svg xmlns="http://www.w3.org/2000/svg" xmlns:xlink="http://www.w3.org/1999/xlink" clip-rule="evenodd" stroke-miterlimit="10" viewBox="0 0 26 152"><desc>SVG generated by Keynote</desc><defs></defs><g transform="matrix(1.00, 0.00, -0.00, -1.00, 0.0, 152.0)"><text xml:space="preserve" font-family="ArialMT,Arial" font-size="24.0" fill="#000000" transform="matrix(0.00, 1.00, 1.00, -0.00, 19.1, 0.3)">G</text><text xml:space="preserve" font-family="ArialMT,Arial" font-size="24.0" fill="#000000" transform="matrix(0.00, 1.00, 1.00, -0.00, 19.1, 18.9)">y</text><text xml:space="preserve" font-family="ArialMT,Arial" font-size="24.0" fill="#000000" transform="matrix(0.00, 1.00, 1.00, -0.00, 19.1, 30.9)">m</text><text xml:space="preserve" font-family="ArialMT,Arial" font-size="24.0" fill="#000000" transform="matrix(0.00, 1.00, 1.00, -0.00, 19.1, 50.9)">n</text><text xml:space="preserve" font-family="ArialMT,Arial" font-size="24.0" fill="#000000" transform="matrix(0.00, 1.00, 1.00, -0.00, 19.1, 64.3)">o</text><text xml:space="preserve" font-family="ArialMT,Arial" font-size="24.0" fill="#000000" transform="matrix(0.00, 1.00, 1.00, -0.00, 19.1, 77.6)">p</text><text xml:space="preserve" font-family="ArialMT,Arial" font-size="24.0" fill="#000000" transform="matrix(0.00, 1.00, 1.00, -0.00, 19.1, 91.0)">h</text><text xml:space="preserve" font-family="ArialMT,Arial" font-size="24.0" fill="#000000" transform="matrix(0.00, 1.00, 1.00, -0.00, 19.1, 104.3)">i</text><text xml:space="preserve" font-family="ArialMT,Arial" font-size="24.0" fill="#000000" transform="matrix(0.00, 1.00, 1.00, -0.00, 19.1, 109.7)">o</text><text xml:space="preserve" font-family="ArialMT,Arial" font-size="24.0" fill="#000000" transform="matrix(0.00, 1.00, 1.00, -0.00, 19.1, 123.0)">n</text><text xml:space="preserve" font-family="ArialMT,Arial" font-size="24.0" fill="#000000" transform="matrix(0.00, 1.00, 1.00, -0.00, 19.1, 136.4)">a</text></g></svg>