<?xml version="1.0" encoding="UTF-8" standalone="no"?><svg xmlns="http://www.w3.org/2000/svg" xmlns:xlink="http://www.w3.org/1999/xlink" clip-rule="evenodd" stroke-miterlimit="4.00" viewBox="0 0 720 540"><desc>SVG generated by Keynote</desc><defs></defs><g transform="matrix(1.00, 0.00, -0.00, -1.00, 0.0, 540.0)"><path d="M 0.0 540.0 L 720.0 540.0 L 720.0 0.0 L 0.0 0.0 Z M 0.0 540.0 " fill="#FEFFFF"></path><g><clipPath id="clip-251"><path d="M 138.0 0.0 L 241.0 0.0 L 241.0 114.0 L 138.0 114.0 Z M 138.0 0.0 "></path></clipPath><g clip-path="url(#clip-251)"><path d="M 138.0 114.0 L 241.0 114.0 L 241.0 0.0 L 138.0 0.0 Z M 138.0 114.0 " fill="#FFFFFF"></path><image xlink:href="../../E01F4E45-164F-4446-B199-7D0D4C64D2CC/assets/268FB8461D956D4A3776EB3D721B167F.png" width="126.00" height="140.00" transform="matrix(0.82, 0.00, -0.00, -0.81, 138.0, 114.0)"></image></g></g><g><clipPath id="clip-252"><path d="M 120.0 163.0 L 249.0 163.0 L 249.0 246.0 L 120.0 246.0 Z M 120.0 163.0 "></path></clipPath><g clip-path="url(#clip-252)"><path d="M 120.0 246.0 L 249.0 246.0 L 249.0 163.0 L 120.0 163.0 Z M 120.0 246.0 " fill="#FFFFFF"></path><image xlink:href="../../E01F4E45-164F-4446-B199-7D0D4C64D2CC/assets/A731DE4581FBA5179AFA886B2E5E128D.png" width="129.00" height="83.00" transform="matrix(1.00, 0.00, -0.00, -1.00, 120.0, 246.0)"></image></g></g><g><clipPath id="clip-253"><path d="M 138.0 280.0 L 242.0 280.0 L 242.0 384.0 L 138.0 384.0 Z M 138.0 280.0 "></path></clipPath><g clip-path="url(#clip-253)"><path d="M 138.0 384.0 L 242.0 384.0 L 242.0 280.0 L 138.0 280.0 Z M 138.0 384.0 " fill="#FFFFFF"></path><image xlink:href="../../E01F4E45-164F-4446-B199-7D0D4C64D2CC/assets/4AEC26723F3B31B59FED6418ED20D97F.png" width="104.00" height="104.00" transform="matrix(1.00, 0.00, -0.00, -1.00, 138.0, 384.0)"></image></g></g><g><clipPath id="clip-254"><path d="M 132.0 415.0 L 248.0 415.0 L 248.0 504.0 L 132.0 504.0 Z M 132.0 415.0 "></path></clipPath><g clip-path="url(#clip-254)"><path d="M 132.0 504.0 L 248.0 504.0 L 248.0 415.0 L 132.0 415.0 Z M 132.0 504.0 " fill="#FFFFFF"></path><image xlink:href="../../E01F4E45-164F-4446-B199-7D0D4C64D2CC/assets/4DC05507DE445C5615F4A5D94C27FDA2.png" width="116.00" height="89.00" transform="matrix(1.00, 0.00, -0.00, -1.00, 132.0, 504.0)"></image></g></g><path d="M 0.0 30.0 L 0.1 14.6 L 0.1 12.1 " fill="none" stroke="#FF2600" stroke-width="5.00" stroke-linejoin="round" transform="matrix(1.00, 0.00, 0.00, -1.00, 186.0, 156.0)"></path><path d="M 178.8 141.4 L 186.1 156.0 L 193.4 141.3 Z M 178.8 141.4 " fill="#FF2600"></path><path d="M 0.0 30.0 L 0.1 14.6 L 0.1 12.1 " fill="none" stroke="#FF2600" stroke-width="5.00" stroke-linejoin="round" transform="matrix(1.00, 0.00, 0.00, -1.00, 186.0, 276.0)"></path><path d="M 178.8 261.4 L 186.1 276.0 L 193.4 261.3 Z M 178.8 261.4 " fill="#FF2600"></path><path d="M 0.0 30.0 L 0.1 14.6 L 0.1 12.1 " fill="none" stroke="#FF2600" stroke-width="5.00" stroke-linejoin="round" transform="matrix(1.00, 0.00, 0.00, -1.00, 186.0, 408.0)"></path><path d="M 178.8 393.4 L 186.1 408.0 L 193.4 393.3 Z M 178.8 393.4 " fill="#FF2600"></path><path d="M 312.0 78.0 L 497.0 78.0 L 497.0 40.8 L 312.0 40.8 Z M 312.0 78.0 " fill="#FEFCA9"></path><path d="M 0.0 0.0 L 185.0 0.0 L 185.0 37.2 L 0.0 37.2 Z M 0.0 0.0 " fill="none" stroke="#000000" stroke-width="2.00" transform="matrix(1.00, 0.00, 0.00, -1.00, 312.0, 78.0)"></path><g><clipPath id="clip-255"><path d="M 310.3 38.3 L 498.7 38.3 L 498.7 79.7 L 310.3 79.7 Z M 310.3 38.3 "></path></clipPath><g clip-path="url(#clip-255)"><text xml:space="preserve" font-family="ArialMT" font-size="24.0" fill="#000000" transform="matrix(1.00, 0.00, -0.00, -1.00, 320.0, 51.0)">P</text><text xml:space="preserve" font-family="ArialMT" font-size="24.0" fill="#000000" transform="matrix(1.00, 0.00, -0.00, -1.00, 336.0, 51.0)">l</text><text xml:space="preserve" font-family="ArialMT" font-size="24.0" fill="#000000" transform="matrix(1.00, 0.00, -0.00, -1.00, 341.3, 51.0)">a</text><text xml:space="preserve" font-family="ArialMT" font-size="24.0" fill="#000000" transform="matrix(1.00, 0.00, -0.00, -1.00, 354.7, 51.0)">n</text><text xml:space="preserve" font-family="ArialMT" font-size="24.0" fill="#000000" transform="matrix(1.00, 0.00, -0.00, -1.00, 368.0, 51.0)">t</text><text xml:space="preserve" font-family="ArialMT" font-size="24.0" fill="#000000" transform="matrix(1.00, 0.00, -0.00, -1.00, 374.7, 51.0)"> </text><text xml:space="preserve" font-family="ArialMT" font-size="24.0" fill="#000000" transform="matrix(1.00, 0.00, -0.00, -1.00, 381.4, 51.0)">-</text><text xml:space="preserve" font-family="ArialMT" font-size="24.0" fill="#000000" transform="matrix(1.00, 0.00, -0.00, -1.00, 389.4, 51.0)"> </text><text xml:space="preserve" font-family="ArialMT" font-size="24.0" fill="#000000" transform="matrix(1.00, 0.00, -0.00, -1.00, 396.0, 51.0)">p</text><text xml:space="preserve" font-family="ArialMT" font-size="24.0" fill="#000000" transform="matrix(1.00, 0.00, -0.00, -1.00, 409.4, 51.0)">r</text><text xml:space="preserve" font-family="ArialMT" font-size="24.0" fill="#000000" transform="matrix(1.00, 0.00, -0.00, -1.00, 417.4, 51.0)">o</text><text xml:space="preserve" font-family="ArialMT" font-size="24.0" fill="#000000" transform="matrix(1.00, 0.00, -0.00, -1.00, 430.7, 51.0)">d</text><text xml:space="preserve" font-family="ArialMT" font-size="24.0" fill="#000000" transform="matrix(1.00, 0.00, -0.00, -1.00, 444.1, 51.0)">u</text><text xml:space="preserve" font-family="ArialMT" font-size="24.0" fill="#000000" transform="matrix(1.00, 0.00, -0.00, -1.00, 457.4, 51.0)">c</text><text xml:space="preserve" font-family="ArialMT" font-size="24.0" fill="#000000" transform="matrix(1.00, 0.00, -0.00, -1.00, 469.4, 51.0)">e</text><text xml:space="preserve" font-family="ArialMT" font-size="24.0" fill="#000000" transform="matrix(1.00, 0.00, -0.00, -1.00, 482.8, 51.0)">r</text></g></g><path d="M 312.0 234.0 L 571.6 234.0 L 571.6 196.8 L 312.0 196.8 Z M 312.0 234.0 " fill="#D4FDD5"></path><path d="M 0.0 0.0 L 259.6 0.0 L 259.6 37.2 L 0.0 37.2 Z M 0.0 0.0 " fill="none" stroke="#000000" stroke-width="2.00" transform="matrix(1.00, 0.00, 0.00, -1.00, 312.0, 234.0)"></path><g><clipPath id="clip-256"><path d="M 310.3 194.3 L 573.3 194.3 L 573.3 235.7 L 310.3 235.7 Z M 310.3 194.3 "></path></clipPath><g clip-path="url(#clip-256)"><text xml:space="preserve" font-family="ArialMT" font-size="24.0" fill="#000000" transform="matrix(1.00, 0.00, -0.00, -1.00, 320.0, 207.0)">F</text><text xml:space="preserve" font-family="ArialMT" font-size="24.0" fill="#000000" transform="matrix(1.00, 0.00, -0.00, -1.00, 334.7, 207.0)">l</text><text xml:space="preserve" font-family="ArialMT" font-size="24.0" fill="#000000" transform="matrix(1.00, 0.00, -0.00, -1.00, 340.0, 207.0)">y</text><text xml:space="preserve" font-family="ArialMT" font-size="24.0" fill="#000000" transform="matrix(1.00, 0.00, -0.00, -1.00, 352.0, 207.0)"> </text><text xml:space="preserve" font-family="ArialMT" font-size="24.0" fill="#000000" transform="matrix(1.00, 0.00, -0.00, -1.00, 358.7, 207.0)">-</text><text xml:space="preserve" font-family="ArialMT" font-size="24.0" fill="#000000" transform="matrix(1.00, 0.00, -0.00, -1.00, 366.6, 207.0)"> </text><text xml:space="preserve" font-family="ArialMT" font-size="24.0" fill="#000000" transform="matrix(1.00, 0.00, -0.00, -1.00, 373.3, 207.0)">p</text><text xml:space="preserve" font-family="ArialMT" font-size="24.0" fill="#000000" transform="matrix(1.00, 0.00, -0.00, -1.00, 386.7, 207.0)">r</text><text xml:space="preserve" font-family="ArialMT" font-size="24.0" fill="#000000" transform="matrix(1.00, 0.00, -0.00, -1.00, 394.7, 207.0)">i</text><text xml:space="preserve" font-family="ArialMT" font-size="24.0" fill="#000000" transform="matrix(1.00, 0.00, -0.00, -1.00, 400.0, 207.0)">m</text><text xml:space="preserve" font-family="ArialMT" font-size="24.0" fill="#000000" transform="matrix(1.00, 0.00, -0.00, -1.00, 420.0, 207.0)">a</text><text xml:space="preserve" font-family="ArialMT" font-size="24.0" fill="#000000" transform="matrix(1.00, 0.00, -0.00, -1.00, 433.3, 207.0)">r</text><text xml:space="preserve" font-family="ArialMT" font-size="24.0" fill="#000000" transform="matrix(1.00, 0.00, -0.00, -1.00, 441.3, 207.0)">y</text><text xml:space="preserve" font-family="ArialMT" font-size="24.0" fill="#000000" transform="matrix(1.00, 0.00, -0.00, -1.00, 453.3, 207.0)"> </text><text xml:space="preserve" font-family="ArialMT" font-size="24.0" fill="#000000" transform="matrix(1.00, 0.00, -0.00, -1.00, 460.0, 207.0)">c</text><text xml:space="preserve" font-family="ArialMT" font-size="24.0" fill="#000000" transform="matrix(1.00, 0.00, -0.00, -1.00, 472.0, 207.0)">o</text><text xml:space="preserve" font-family="ArialMT" font-size="24.0" fill="#000000" transform="matrix(1.00, 0.00, -0.00, -1.00, 485.3, 207.0)">n</text><text xml:space="preserve" font-family="ArialMT" font-size="24.0" fill="#000000" transform="matrix(1.00, 0.00, -0.00, -1.00, 498.7, 207.0)">s</text><text xml:space="preserve" font-family="ArialMT" font-size="24.0" fill="#000000" transform="matrix(1.00, 0.00, -0.00, -1.00, 510.7, 207.0)">u</text><text xml:space="preserve" font-family="ArialMT" font-size="24.0" fill="#000000" transform="matrix(1.00, 0.00, -0.00, -1.00, 524.0, 207.0)">m</text><text xml:space="preserve" font-family="ArialMT" font-size="24.0" fill="#000000" transform="matrix(1.00, 0.00, -0.00, -1.00, 544.0, 207.0)">e</text><text xml:space="preserve" font-family="ArialMT" font-size="24.0" fill="#000000" transform="matrix(1.00, 0.00, -0.00, -1.00, 557.4, 207.0)">r</text></g></g><path d="M 312.0 361.5 L 639.7 361.5 L 639.7 324.3 L 312.0 324.3 Z M 312.0 361.5 " fill="#FFD5A9"></path><path d="M 0.0 0.0 L 327.7 0.0 L 327.7 37.2 L 0.0 37.2 Z M 0.0 0.0 " fill="none" stroke="#000000" stroke-width="2.00" transform="matrix(1.00, 0.00, 0.00, -1.00, 312.0, 361.5)"></path><g><clipPath id="clip-257"><path d="M 310.3 321.8 L 641.4 321.8 L 641.4 363.2 L 310.3 363.2 Z M 310.3 321.8 "></path></clipPath><g clip-path="url(#clip-257)"><text xml:space="preserve" font-family="ArialMT" font-size="24.0" fill="#000000" transform="matrix(1.00, 0.00, -0.00, -1.00, 320.0, 334.0)">S</text><text xml:space="preserve" font-family="ArialMT" font-size="24.0" fill="#000000" transform="matrix(1.00, 0.00, -0.00, -1.00, 336.0, 334.0)">p</text><text xml:space="preserve" font-family="ArialMT" font-size="24.0" fill="#000000" transform="matrix(1.00, 0.00, -0.00, -1.00, 349.4, 334.0)">i</text><text xml:space="preserve" font-family="ArialMT" font-size="24.0" fill="#000000" transform="matrix(1.00, 0.00, -0.00, -1.00, 354.7, 334.0)">d</text><text xml:space="preserve" font-family="ArialMT" font-size="24.0" fill="#000000" transform="matrix(1.00, 0.00, -0.00, -1.00, 368.0, 334.0)">e</text><text xml:space="preserve" font-family="ArialMT" font-size="24.0" fill="#000000" transform="matrix(1.00, 0.00, -0.00, -1.00, 381.4, 334.0)">r</text><text xml:space="preserve" font-family="ArialMT" font-size="24.0" fill="#000000" transform="matrix(1.00, 0.00, -0.00, -1.00, 389.4, 334.0)"> </text><text xml:space="preserve" font-family="ArialMT" font-size="24.0" fill="#000000" transform="matrix(1.00, 0.00, -0.00, -1.00, 396.1, 334.0)">-</text><text xml:space="preserve" font-family="ArialMT" font-size="24.0" fill="#000000" transform="matrix(1.00, 0.00, -0.00, -1.00, 404.0, 334.0)"> </text><text xml:space="preserve" font-family="ArialMT" font-size="24.0" fill="#000000" transform="matrix(1.00, 0.00, -0.00, -1.00, 410.7, 334.0)">s</text><text xml:space="preserve" font-family="ArialMT" font-size="24.0" fill="#000000" transform="matrix(1.00, 0.00, -0.00, -1.00, 422.7, 334.0)">e</text><text xml:space="preserve" font-family="ArialMT" font-size="24.0" fill="#000000" transform="matrix(1.00, 0.00, -0.00, -1.00, 436.1, 334.0)">c</text><text xml:space="preserve" font-family="ArialMT" font-size="24.0" fill="#000000" transform="matrix(1.00, 0.00, -0.00, -1.00, 448.1, 334.0)">o</text><text xml:space="preserve" font-family="ArialMT" font-size="24.0" fill="#000000" transform="matrix(1.00, 0.00, -0.00, -1.00, 461.4, 334.0)">n</text><text xml:space="preserve" font-family="ArialMT" font-size="24.0" fill="#000000" transform="matrix(1.00, 0.00, -0.00, -1.00, 474.8, 334.0)">d</text><text xml:space="preserve" font-family="ArialMT" font-size="24.0" fill="#000000" transform="matrix(1.00, 0.00, -0.00, -1.00, 488.1, 334.0)">a</text><text xml:space="preserve" font-family="ArialMT" font-size="24.0" fill="#000000" transform="matrix(1.00, 0.00, -0.00, -1.00, 501.5, 334.0)">r</text><text xml:space="preserve" font-family="ArialMT" font-size="24.0" fill="#000000" transform="matrix(1.00, 0.00, -0.00, -1.00, 509.5, 334.0)">y</text><text xml:space="preserve" font-family="ArialMT" font-size="24.0" fill="#000000" transform="matrix(1.00, 0.00, -0.00, -1.00, 521.5, 334.0)"> </text><text xml:space="preserve" font-family="ArialMT" font-size="24.0" fill="#000000" transform="matrix(1.00, 0.00, -0.00, -1.00, 528.1, 334.0)">c</text><text xml:space="preserve" font-family="ArialMT" font-size="24.0" fill="#000000" transform="matrix(1.00, 0.00, -0.00, -1.00, 540.1, 334.0)">o</text><text xml:space="preserve" font-family="ArialMT" font-size="24.0" fill="#000000" transform="matrix(1.00, 0.00, -0.00, -1.00, 553.5, 334.0)">n</text><text xml:space="preserve" font-family="ArialMT" font-size="24.0" fill="#000000" transform="matrix(1.00, 0.00, -0.00, -1.00, 566.8, 334.0)">s</text><text xml:space="preserve" font-family="ArialMT" font-size="24.0" fill="#000000" transform="matrix(1.00, 0.00, -0.00, -1.00, 578.8, 334.0)">u</text><text xml:space="preserve" font-family="ArialMT" font-size="24.0" fill="#000000" transform="matrix(1.00, 0.00, -0.00, -1.00, 592.2, 334.0)">m</text><text xml:space="preserve" font-family="ArialMT" font-size="24.0" fill="#000000" transform="matrix(1.00, 0.00, -0.00, -1.00, 612.2, 334.0)">e</text><text xml:space="preserve" font-family="ArialMT" font-size="24.0" fill="#000000" transform="matrix(1.00, 0.00, -0.00, -1.00, 625.5, 334.0)">r</text></g></g><path d="M 312.0 486.0 L 509.6 486.0 L 509.6 447.0 L 312.0 447.0 Z M 312.0 486.0 " fill="#D6AEFF"></path><path d="M 0.0 0.0 L 197.6 0.0 L 197.6 39.0 L 0.0 39.0 Z M 0.0 0.0 " fill="none" stroke="#FF2600" stroke-width="3.00" transform="matrix(1.00, 0.00, 0.00, -1.00, 312.0, 486.0)"></path><g><clipPath id="clip-258"><path d="M 310.8 445.8 L 510.8 445.8 L 510.8 487.2 L 310.8 487.2 Z M 310.8 445.8 "></path></clipPath><g clip-path="url(#clip-258)"><text xml:space="preserve" font-family="ArialMT" font-size="24.0" fill="#000000" transform="matrix(1.00, 0.00, -0.00, -1.00, 321.0, 458.0)">A</text><text xml:space="preserve" font-family="ArialMT" font-size="24.0" fill="#000000" transform="matrix(1.00, 0.00, -0.00, -1.00, 337.0, 458.0)">n</text><text xml:space="preserve" font-family="ArialMT" font-size="24.0" fill="#000000" transform="matrix(1.00, 0.00, -0.00, -1.00, 350.4, 458.0)">o</text><text xml:space="preserve" font-family="ArialMT" font-size="24.0" fill="#000000" transform="matrix(1.00, 0.00, -0.00, -1.00, 363.7, 458.0)">l</text><text xml:space="preserve" font-family="ArialMT" font-size="24.0" fill="#000000" transform="matrix(1.00, 0.00, -0.00, -1.00, 369.0, 458.0)">e</text><text xml:space="preserve" font-family="ArialMT" font-size="24.0" fill="#000000" transform="matrix(1.00, 0.00, -0.00, -1.00, 382.4, 458.0)"> </text><text xml:space="preserve" font-family="ArialMT" font-size="24.0" fill="#000000" transform="matrix(1.00, 0.00, -0.00, -1.00, 389.1, 458.0)">-</text><text xml:space="preserve" font-family="ArialMT" font-size="24.0" fill="#000000" transform="matrix(1.00, 0.00, -0.00, -1.00, 397.1, 458.0)"> </text><text xml:space="preserve" font-family="ArialMT" font-size="24.0" fill="#000000" transform="matrix(1.00, 0.00, -0.00, -1.00, 403.7, 458.0)">o</text><text xml:space="preserve" font-family="ArialMT" font-size="24.0" fill="#000000" transform="matrix(1.00, 0.00, -0.00, -1.00, 417.1, 458.0)">m</text><text xml:space="preserve" font-family="ArialMT" font-size="24.0" fill="#000000" transform="matrix(1.00, 0.00, -0.00, -1.00, 437.1, 458.0)">n</text><text xml:space="preserve" font-family="ArialMT" font-size="24.0" fill="#000000" transform="matrix(1.00, 0.00, -0.00, -1.00, 450.4, 458.0)">i</text><text xml:space="preserve" font-family="ArialMT" font-size="24.0" fill="#000000" transform="matrix(1.00, 0.00, -0.00, -1.00, 455.8, 458.0)">v</text><text xml:space="preserve" font-family="ArialMT" font-size="24.0" fill="#000000" transform="matrix(1.00, 0.00, -0.00, -1.00, 467.8, 458.0)">o</text><text xml:space="preserve" font-family="ArialMT" font-size="24.0" fill="#000000" transform="matrix(1.00, 0.00, -0.00, -1.00, 481.1, 458.0)">r</text><text xml:space="preserve" font-family="ArialMT" font-size="24.0" fill="#000000" transform="matrix(1.00, 0.00, -0.00, -1.00, 489.1, 458.0)">e</text></g></g><path d="M 54.0 108.0 L 6.5 13.1 L 5.4 10.8 " fill="none" stroke="#FF2600" stroke-width="5.00" stroke-linejoin="round" transform="matrix(1.00, 0.00, 0.00, -1.00, 228.0, 414.0)"></path><path d="M 228.0 397.7 L 228.0 414.0 L 241.1 404.2 Z M 228.0 397.7 " fill="#FF2600"></path><path d="M 0.0 66.0 L 60.0 0.0 " fill="none" stroke="#FF2600" stroke-width="5.00" stroke-linejoin="round" transform="matrix(1.00, 0.00, 0.00, -1.00, 222.0, 306.0)"></path><path d="M 0.0 180.0 L 61.0 13.7 L 61.8 11.4 " fill="none" stroke="#FF2600" stroke-width="5.00" stroke-linejoin="round" transform="matrix(1.00, 0.00, 0.00, -1.00, 72.0, 402.0)"></path><path d="M 126.1 390.8 L 138.0 402.0 L 139.8 385.8 Z M 126.1 390.8 " fill="#FF2600"></path><path d="M 0.0 0.0 L 66.0 126.0 " fill="none" stroke="#FF2600" stroke-width="5.00" stroke-linejoin="round" transform="matrix(1.00, 0.00, 0.00, -1.00, 72.0, 222.0)"></path></g></svg>