<?xml version="1.0" encoding="UTF-8" standalone="no"?><svg xmlns="http://www.w3.org/2000/svg" xmlns:xlink="http://www.w3.org/1999/xlink" clip-rule="evenodd" stroke-miterlimit="10" viewBox="0 0 101 48"><desc>SVG generated by Keynote</desc><defs></defs><g transform="matrix(1.00, 0.00, -0.00, -1.00, 0.0, 48.0)"><g><clipPath id="clip0x600002cba820"><path d="M 0.5 13.5 L 34.5 13.5 L 34.5 47.5 L 0.5 47.5 Z M 0.5 13.5 "></path></clipPath><g clip-path="url(#clip0x600002cba820)"><g opacity="0.60"><g><clipPath id="clip0x600002cbad60"><path d="M 1.0 14.0 L 34.0 14.0 L 34.0 47.0 L 1.0 47.0 Z M 1.0 14.0 "></path></clipPath><g clip-path="url(#clip0x600002cbad60)"><path d="M 28.5 41.5 C 34.5 35.4 34.5 25.6 28.5 19.5 C 22.4 13.5 12.6 13.5 6.5 19.5 C 0.5 25.6 0.5 35.4 6.5 41.5 C 12.6 47.5 22.4 47.5 28.5 41.5 " fill="#775700"></path><path d="M 26.5 4.5 C 32.5 10.6 32.5 20.4 26.5 26.5 C 20.4 32.5 10.6 32.5 4.5 26.5 C -1.5 20.4 -1.5 10.6 4.5 4.5 C 10.6 -1.5 20.4 -1.5 26.5 4.5 " fill="none" stroke="#000000" stroke-width="1.00" stroke-linejoin="round" transform="matrix(1.00, 0.00, 0.00, -1.00, 2.0, 46.0)"></path></g></g></g></g></g><g><clipPath id="clip0x600002cbb060"><path d="M 28.0 1.1 L 99.3 1.1 L 99.3 25.0 L 28.0 25.0 Z M 28.0 1.1 "></path></clipPath><g clip-path="url(#clip0x600002cbb060)"><text xml:space="preserve" font-family="ArialMT,Arial" font-size="14.0" fill="#A67B00" transform="matrix(1.00, 0.00, -0.00, -1.00, 35.2, 8.4)">B</text><text xml:space="preserve" font-family="ArialMT,Arial" font-size="14.0" fill="#A67B00" transform="matrix(1.00, 0.00, -0.00, -1.00, 44.5, 8.4)">a</text><text xml:space="preserve" font-family="ArialMT,Arial" font-size="14.0" fill="#A67B00" transform="matrix(1.00, 0.00, -0.00, -1.00, 52.3, 8.4)">t</text><text xml:space="preserve" font-family="ArialMT,Arial" font-size="14.0" fill="#A67B00" transform="matrix(1.00, 0.00, -0.00, -1.00, 56.2, 8.4)">r</text><text xml:space="preserve" font-family="ArialMT,Arial" font-size="14.0" fill="#A67B00" transform="matrix(1.00, 0.00, -0.00, -1.00, 60.9, 8.4)">a</text><text xml:space="preserve" font-family="ArialMT,Arial" font-size="14.0" fill="#A67B00" transform="matrix(1.00, 0.00, -0.00, -1.00, 68.7, 8.4)">c</text><text xml:space="preserve" font-family="ArialMT,Arial" font-size="14.0" fill="#A67B00" transform="matrix(1.00, 0.00, -0.00, -1.00, 75.7, 8.4)">h</text><text xml:space="preserve" font-family="ArialMT,Arial" font-size="14.0" fill="#A67B00" transform="matrix(1.00, 0.00, -0.00, -1.00, 83.5, 8.4)">i</text><text xml:space="preserve" font-family="ArialMT,Arial" font-size="14.0" fill="#A67B00" transform="matrix(1.00, 0.00, -0.00, -1.00, 86.6, 8.4)">a</text></g></g></g></svg>