<?xml version="1.0" encoding="UTF-8" standalone="no"?><svg xmlns="http://www.w3.org/2000/svg" xmlns:xlink="http://www.w3.org/1999/xlink" clip-rule="evenodd" stroke-miterlimit="10" viewBox="0 0 130 61"><desc>SVG generated by Keynote</desc><defs></defs><g transform="matrix(1.00, 0.00, -0.00, -1.00, 0.0, 61.0)"><g><clipPath id="clip0x600002eb5c00"><path d="M 0.5 26.5 L 34.5 26.5 L 34.5 60.5 L 0.5 60.5 Z M 0.5 26.5 "></path></clipPath><g clip-path="url(#clip0x600002eb5c00)"><g opacity="0.60"><g><clipPath id="clip0x600002eb66e0"><path d="M 1.0 27.0 L 34.0 27.0 L 34.0 60.0 L 1.0 60.0 Z M 1.0 27.0 "></path></clipPath><g clip-path="url(#clip0x600002eb66e0)"><path d="M 28.5 54.5 C 34.5 48.4 34.5 38.6 28.5 32.5 C 22.4 26.5 12.6 26.5 6.5 32.5 C 0.5 38.6 0.5 48.4 6.5 54.5 C 12.6 60.5 22.4 60.5 28.5 54.5 " fill="#375719"></path><path d="M 26.5 4.5 C 32.5 10.6 32.5 20.4 26.5 26.5 C 20.4 32.5 10.6 32.5 4.5 26.5 C -1.5 20.4 -1.5 10.6 4.5 4.5 C 10.6 -1.5 20.4 -1.5 26.5 4.5 " fill="none" stroke="#000000" stroke-width="1.00" stroke-linejoin="round" transform="matrix(1.00, 0.00, 0.00, -1.00, 2.0, 59.0)"></path></g></g></g></g></g><g><clipPath id="clip0x600002eb6aa0"><path d="M 25.3 -1.7 L 130.9 -1.7 L 130.9 39.7 L 25.3 39.7 Z M 25.3 -1.7 "></path></clipPath><g clip-path="url(#clip0x600002eb6aa0)"><text xml:space="preserve" font-family="ArialMT,Arial" font-size="24.0" fill="#76BA40" transform="matrix(1.00, 0.00, -0.00, -1.00, 35.2, 10.9)">A</text><text xml:space="preserve" font-family="ArialMT,Arial" font-size="24.0" fill="#76BA40" transform="matrix(1.00, 0.00, -0.00, -1.00, 51.2, 10.9)">m</text><text xml:space="preserve" font-family="ArialMT,Arial" font-size="24.0" fill="#76BA40" transform="matrix(1.00, 0.00, -0.00, -1.00, 71.2, 10.9)">n</text><text xml:space="preserve" font-family="ArialMT,Arial" font-size="24.0" fill="#76BA40" transform="matrix(1.00, 0.00, -0.00, -1.00, 84.6, 10.9)">i</text><text xml:space="preserve" font-family="ArialMT,Arial" font-size="24.0" fill="#76BA40" transform="matrix(1.00, 0.00, -0.00, -1.00, 89.9, 10.9)">o</text><text xml:space="preserve" font-family="ArialMT,Arial" font-size="24.0" fill="#76BA40" transform="matrix(1.00, 0.00, -0.00, -1.00, 103.2, 10.9)">t</text><text xml:space="preserve" font-family="ArialMT,Arial" font-size="24.0" fill="#76BA40" transform="matrix(1.00, 0.00, -0.00, -1.00, 109.9, 10.9)">a</text></g></g></g></svg>