<?xml version="1.0" encoding="UTF-8" standalone="no"?><svg xmlns="http://www.w3.org/2000/svg" xmlns:xlink="http://www.w3.org/1999/xlink" clip-rule="evenodd" stroke-miterlimit="4.00" viewBox="0 0 720 540"><desc>SVG generated by Keynote</desc><defs></defs><g transform="matrix(1.00, 0.00, -0.00, -1.00, 0.0, 540.0)"><path d="M 0.0 540.0 L 720.0 540.0 L 720.0 0.0 L 0.0 0.0 Z M 0.0 540.0 " fill="#FEFFFF"></path><text xml:space="preserve" font-family="ArialMT" font-size="44.0" fill="#000000" transform="matrix(1.00, 0.00, -0.00, -1.00, 181.0, 456.0)">E</text><text xml:space="preserve" font-family="ArialMT" font-size="44.0" fill="#000000" transform="matrix(1.00, 0.00, -0.00, -1.00, 210.3, 456.0)">x</text><text xml:space="preserve" font-family="ArialMT" font-size="44.0" fill="#000000" transform="matrix(1.00, 0.00, -0.00, -1.00, 232.3, 456.0)">t</text><text xml:space="preserve" font-family="ArialMT" font-size="44.0" fill="#000000" transform="matrix(1.00, 0.00, -0.00, -1.00, 244.6, 456.0)">e</text><text xml:space="preserve" font-family="ArialMT" font-size="44.0" fill="#000000" transform="matrix(1.00, 0.00, -0.00, -1.00, 269.0, 456.0)">r</text><text xml:space="preserve" font-family="ArialMT" font-size="44.0" fill="#000000" transform="matrix(1.00, 0.00, -0.00, -1.00, 283.7, 456.0)">n</text><text xml:space="preserve" font-family="ArialMT" font-size="44.0" fill="#000000" transform="matrix(1.00, 0.00, -0.00, -1.00, 308.2, 456.0)">a</text><text xml:space="preserve" font-family="ArialMT" font-size="44.0" fill="#000000" transform="matrix(1.00, 0.00, -0.00, -1.00, 332.7, 456.0)">l</text><text xml:space="preserve" font-family="ArialMT" font-size="44.0" fill="#000000" transform="matrix(1.00, 0.00, -0.00, -1.00, 342.4, 456.0)"> </text><text xml:space="preserve" font-family="ArialMT" font-size="44.0" fill="#000000" transform="matrix(1.00, 0.00, -0.00, -1.00, 354.7, 456.0)">P</text><text xml:space="preserve" font-family="ArialMT" font-size="44.0" fill="#000000" transform="matrix(1.00, 0.00, -0.00, -1.00, 384.0, 456.0)">a</text><text xml:space="preserve" font-family="ArialMT" font-size="44.0" fill="#000000" transform="matrix(1.00, 0.00, -0.00, -1.00, 408.5, 456.0)">r</text><text xml:space="preserve" font-family="ArialMT" font-size="44.0" fill="#000000" transform="matrix(1.00, 0.00, -0.00, -1.00, 423.1, 456.0)">a</text><text xml:space="preserve" font-family="ArialMT" font-size="44.0" fill="#000000" transform="matrix(1.00, 0.00, -0.00, -1.00, 447.6, 456.0)">s</text><text xml:space="preserve" font-family="ArialMT" font-size="44.0" fill="#000000" transform="matrix(1.00, 0.00, -0.00, -1.00, 469.6, 456.0)">i</text><text xml:space="preserve" font-family="ArialMT" font-size="44.0" fill="#000000" transform="matrix(1.00, 0.00, -0.00, -1.00, 479.4, 456.0)">t</text><text xml:space="preserve" font-family="ArialMT" font-size="44.0" fill="#000000" transform="matrix(1.00, 0.00, -0.00, -1.00, 491.6, 456.0)">e</text><text xml:space="preserve" font-family="ArialMT" font-size="44.0" fill="#000000" transform="matrix(1.00, 0.00, -0.00, -1.00, 516.1, 456.0)">s</text><text xml:space="preserve" font-family="ArialMT" font-size="32.0" fill="#000000" transform="matrix(1.00, 0.00, -0.00, -1.00, 55.2, 350.8)">•</text><text xml:space="preserve" font-family="ArialMT" font-size="32.0" fill="#000000" transform="matrix(1.00, 0.00, -0.00, -1.00, 82.0, 351.0)">T</text><text xml:space="preserve" font-family="ArialMT" font-size="32.0" fill="#000000" transform="matrix(1.00, 0.00, -0.00, -1.00, 100.4, 351.0)">r</text><text xml:space="preserve" font-family="ArialMT" font-size="32.0" fill="#000000" transform="matrix(1.00, 0.00, -0.00, -1.00, 111.0, 351.0)">o</text><text xml:space="preserve" font-family="ArialMT" font-size="32.0" fill="#000000" transform="matrix(1.00, 0.00, -0.00, -1.00, 128.8, 351.0)">m</text><text xml:space="preserve" font-family="ArialMT" font-size="32.0" fill="#000000" transform="matrix(1.00, 0.00, -0.00, -1.00, 155.5, 351.0)">b</text><text xml:space="preserve" font-family="ArialMT" font-size="32.0" fill="#000000" transform="matrix(1.00, 0.00, -0.00, -1.00, 173.3, 351.0)">i</text><text xml:space="preserve" font-family="ArialMT" font-size="32.0" fill="#000000" transform="matrix(1.00, 0.00, -0.00, -1.00, 180.4, 351.0)">c</text><text xml:space="preserve" font-family="ArialMT" font-size="32.0" fill="#000000" transform="matrix(1.00, 0.00, -0.00, -1.00, 196.4, 351.0)">u</text><text xml:space="preserve" font-family="ArialMT" font-size="32.0" fill="#000000" transform="matrix(1.00, 0.00, -0.00, -1.00, 214.2, 351.0)">l</text><text xml:space="preserve" font-family="ArialMT" font-size="32.0" fill="#000000" transform="matrix(1.00, 0.00, -0.00, -1.00, 221.3, 351.0)">i</text><text xml:space="preserve" font-family="ArialMT" font-size="32.0" fill="#000000" transform="matrix(1.00, 0.00, -0.00, -1.00, 228.4, 351.0)">d</text><text xml:space="preserve" font-family="ArialMT" font-size="32.0" fill="#000000" transform="matrix(1.00, 0.00, -0.00, -1.00, 246.2, 351.0)"> </text><text xml:space="preserve" font-family="ArialMT" font-size="32.0" fill="#000000" transform="matrix(1.00, 0.00, -0.00, -1.00, 255.1, 351.0)">m</text><text xml:space="preserve" font-family="ArialMT" font-size="32.0" fill="#000000" transform="matrix(1.00, 0.00, -0.00, -1.00, 281.8, 351.0)">i</text><text xml:space="preserve" font-family="ArialMT" font-size="32.0" fill="#000000" transform="matrix(1.00, 0.00, -0.00, -1.00, 288.9, 351.0)">t</text><text xml:space="preserve" font-family="ArialMT" font-size="32.0" fill="#000000" transform="matrix(1.00, 0.00, -0.00, -1.00, 297.8, 351.0)">e</text><text xml:space="preserve" font-family="ArialMT" font-size="32.0" fill="#000000" transform="matrix(1.00, 0.00, -0.00, -1.00, 315.6, 351.0)"> </text><text xml:space="preserve" font-family="ArialMT" font-size="32.0" fill="#000000" transform="matrix(1.00, 0.00, -0.00, -1.00, 324.5, 351.0)">l</text><text xml:space="preserve" font-family="ArialMT" font-size="32.0" fill="#000000" transform="matrix(1.00, 0.00, -0.00, -1.00, 331.6, 351.0)">a</text><text xml:space="preserve" font-family="ArialMT" font-size="32.0" fill="#000000" transform="matrix(1.00, 0.00, -0.00, -1.00, 349.4, 351.0)">r</text><text xml:space="preserve" font-family="ArialMT" font-size="32.0" fill="#000000" transform="matrix(1.00, 0.00, -0.00, -1.00, 360.0, 351.0)">v</text><text xml:space="preserve" font-family="ArialMT" font-size="32.0" fill="#000000" transform="matrix(1.00, 0.00, -0.00, -1.00, 376.0, 351.0)">a</text><text xml:space="preserve" font-family="ArialMT" font-size="32.0" fill="#000000" transform="matrix(1.00, 0.00, -0.00, -1.00, 393.8, 351.0)">e</text><text xml:space="preserve" font-family="ArialMT" font-size="32.0" fill="#000000" transform="matrix(1.00, 0.00, -0.00, -1.00, 411.6, 351.0)"> </text><text xml:space="preserve" font-family="ArialMT" font-size="32.0" fill="#000000" transform="matrix(1.00, 0.00, -0.00, -1.00, 55.2, 306.4)">•</text><text xml:space="preserve" font-family="ArialMT" font-size="32.0" fill="#000000" transform="matrix(1.00, 0.00, -0.00, -1.00, 82.0, 306.0)">S</text><text xml:space="preserve" font-family="ArialMT" font-size="32.0" fill="#000000" transform="matrix(1.00, 0.00, -0.00, -1.00, 103.3, 306.0)">m</text><text xml:space="preserve" font-family="ArialMT" font-size="32.0" fill="#000000" transform="matrix(1.00, 0.00, -0.00, -1.00, 130.0, 306.0)">a</text><text xml:space="preserve" font-family="ArialMT" font-size="32.0" fill="#000000" transform="matrix(1.00, 0.00, -0.00, -1.00, 147.8, 306.0)">l</text><text xml:space="preserve" font-family="ArialMT" font-size="32.0" fill="#000000" transform="matrix(1.00, 0.00, -0.00, -1.00, 154.9, 306.0)">l</text><text xml:space="preserve" font-family="ArialMT" font-size="32.0" fill="#000000" transform="matrix(1.00, 0.00, -0.00, -1.00, 162.0, 306.0)"> </text><text xml:space="preserve" font-family="ArialMT" font-size="32.0" fill="#000000" transform="matrix(1.00, 0.00, -0.00, -1.00, 170.9, 306.0)">r</text><text xml:space="preserve" font-family="ArialMT" font-size="32.0" fill="#000000" transform="matrix(1.00, 0.00, -0.00, -1.00, 181.6, 306.0)">e</text><text xml:space="preserve" font-family="ArialMT" font-size="32.0" fill="#000000" transform="matrix(1.00, 0.00, -0.00, -1.00, 199.4, 306.0)">d</text><text xml:space="preserve" font-family="ArialMT" font-size="32.0" fill="#000000" transform="matrix(1.00, 0.00, -0.00, -1.00, 217.2, 306.0)"> </text><text xml:space="preserve" font-family="ArialMT" font-size="32.0" fill="#000000" transform="matrix(1.00, 0.00, -0.00, -1.00, 226.1, 306.0)">“</text><text xml:space="preserve" font-family="ArialMT" font-size="32.0" fill="#000000" transform="matrix(1.00, 0.00, -0.00, -1.00, 236.7, 306.0)">c</text><text xml:space="preserve" font-family="ArialMT" font-size="32.0" fill="#000000" transform="matrix(1.00, 0.00, -0.00, -1.00, 252.7, 306.0)">h</text><text xml:space="preserve" font-family="ArialMT" font-size="32.0" fill="#000000" transform="matrix(1.00, 0.00, -0.00, -1.00, 270.5, 306.0)">i</text><text xml:space="preserve" font-family="ArialMT" font-size="32.0" fill="#000000" transform="matrix(1.00, 0.00, -0.00, -1.00, 277.6, 306.0)">g</text><text xml:space="preserve" font-family="ArialMT" font-size="32.0" fill="#000000" transform="matrix(1.00, 0.00, -0.00, -1.00, 295.4, 306.0)">g</text><text xml:space="preserve" font-family="ArialMT" font-size="32.0" fill="#000000" transform="matrix(1.00, 0.00, -0.00, -1.00, 313.2, 306.0)">e</text><text xml:space="preserve" font-family="ArialMT" font-size="32.0" fill="#000000" transform="matrix(1.00, 0.00, -0.00, -1.00, 331.1, 306.0)">r</text><text xml:space="preserve" font-family="ArialMT" font-size="32.0" fill="#000000" transform="matrix(1.00, 0.00, -0.00, -1.00, 341.7, 306.0)">s</text><text xml:space="preserve" font-family="ArialMT" font-size="32.0" fill="#000000" transform="matrix(1.00, 0.00, -0.00, -1.00, 357.7, 306.0)">”</text><text xml:space="preserve" font-family="ArialMT" font-size="32.0" fill="#000000" transform="matrix(1.00, 0.00, -0.00, -1.00, 368.4, 306.0)"> </text><text xml:space="preserve" font-family="ArialMT" font-size="32.0" fill="#000000" transform="matrix(1.00, 0.00, -0.00, -1.00, 82.0, 269.0)">o</text><text xml:space="preserve" font-family="ArialMT" font-size="32.0" fill="#000000" transform="matrix(1.00, 0.00, -0.00, -1.00, 99.8, 269.0)">n</text><text xml:space="preserve" font-family="ArialMT" font-size="32.0" fill="#000000" transform="matrix(1.00, 0.00, -0.00, -1.00, 117.6, 269.0)"> </text><text xml:space="preserve" font-family="ArialMT" font-size="32.0" fill="#000000" transform="matrix(1.00, 0.00, -0.00, -1.00, 126.5, 269.0)">t</text><text xml:space="preserve" font-family="ArialMT" font-size="32.0" fill="#000000" transform="matrix(1.00, 0.00, -0.00, -1.00, 135.4, 269.0)">h</text><text xml:space="preserve" font-family="ArialMT" font-size="32.0" fill="#000000" transform="matrix(1.00, 0.00, -0.00, -1.00, 153.2, 269.0)">e</text><text xml:space="preserve" font-family="ArialMT" font-size="32.0" fill="#000000" transform="matrix(1.00, 0.00, -0.00, -1.00, 171.0, 269.0)"> </text><text xml:space="preserve" font-family="ArialMT" font-size="32.0" fill="#000000" transform="matrix(1.00, 0.00, -0.00, -1.00, 179.9, 269.0)">s</text><text xml:space="preserve" font-family="ArialMT" font-size="32.0" fill="#000000" transform="matrix(1.00, 0.00, -0.00, -1.00, 195.9, 269.0)">k</text><text xml:space="preserve" font-family="ArialMT" font-size="32.0" fill="#000000" transform="matrix(1.00, 0.00, -0.00, -1.00, 211.9, 269.0)">i</text><text xml:space="preserve" font-family="ArialMT" font-size="32.0" fill="#000000" transform="matrix(1.00, 0.00, -0.00, -1.00, 219.0, 269.0)">n</text><text xml:space="preserve" font-family="ArialMT" font-size="32.0" fill="#000000" transform="matrix(1.00, 0.00, -0.00, -1.00, 236.8, 269.0)"> </text><text xml:space="preserve" font-family="ArialMT" font-size="32.0" fill="#000000" transform="matrix(1.00, 0.00, -0.00, -1.00, 55.2, 225.0)">•</text><text xml:space="preserve" font-family="ArialMT" font-size="32.0" fill="#000000" transform="matrix(1.00, 0.00, -0.00, -1.00, 82.0, 225.0)">F</text><text xml:space="preserve" font-family="ArialMT" font-size="32.0" fill="#000000" transform="matrix(1.00, 0.00, -0.00, -1.00, 101.5, 225.0)">e</text><text xml:space="preserve" font-family="ArialMT" font-size="32.0" fill="#000000" transform="matrix(1.00, 0.00, -0.00, -1.00, 119.3, 225.0)">e</text><text xml:space="preserve" font-family="ArialMT" font-size="32.0" fill="#000000" transform="matrix(1.00, 0.00, -0.00, -1.00, 137.1, 225.0)">d</text><text xml:space="preserve" font-family="ArialMT" font-size="32.0" fill="#000000" transform="matrix(1.00, 0.00, -0.00, -1.00, 155.0, 225.0)"> </text><text xml:space="preserve" font-family="ArialMT" font-size="32.0" fill="#000000" transform="matrix(1.00, 0.00, -0.00, -1.00, 163.8, 225.0)">o</text><text xml:space="preserve" font-family="ArialMT" font-size="32.0" fill="#000000" transform="matrix(1.00, 0.00, -0.00, -1.00, 181.6, 225.0)">n</text><text xml:space="preserve" font-family="ArialMT" font-size="32.0" fill="#000000" transform="matrix(1.00, 0.00, -0.00, -1.00, 199.4, 225.0)"> </text><text xml:space="preserve" font-family="ArialMT" font-size="32.0" fill="#000000" transform="matrix(1.00, 0.00, -0.00, -1.00, 208.3, 225.0)">s</text><text xml:space="preserve" font-family="ArialMT" font-size="32.0" fill="#000000" transform="matrix(1.00, 0.00, -0.00, -1.00, 224.3, 225.0)">k</text><text xml:space="preserve" font-family="ArialMT" font-size="32.0" fill="#000000" transform="matrix(1.00, 0.00, -0.00, -1.00, 240.3, 225.0)">i</text><text xml:space="preserve" font-family="ArialMT" font-size="32.0" fill="#000000" transform="matrix(1.00, 0.00, -0.00, -1.00, 247.4, 225.0)">n</text><text xml:space="preserve" font-family="ArialMT" font-size="32.0" fill="#000000" transform="matrix(1.00, 0.00, -0.00, -1.00, 265.2, 225.0)"> </text><text xml:space="preserve" font-family="ArialMT" font-size="32.0" fill="#000000" transform="matrix(1.00, 0.00, -0.00, -1.00, 274.1, 225.0)">c</text><text xml:space="preserve" font-family="ArialMT" font-size="32.0" fill="#000000" transform="matrix(1.00, 0.00, -0.00, -1.00, 290.1, 225.0)">e</text><text xml:space="preserve" font-family="ArialMT" font-size="32.0" fill="#000000" transform="matrix(1.00, 0.00, -0.00, -1.00, 307.9, 225.0)">l</text><text xml:space="preserve" font-family="ArialMT" font-size="32.0" fill="#000000" transform="matrix(1.00, 0.00, -0.00, -1.00, 315.0, 225.0)">l</text><text xml:space="preserve" font-family="ArialMT" font-size="32.0" fill="#000000" transform="matrix(1.00, 0.00, -0.00, -1.00, 322.2, 225.0)">s</text><g><clipPath id="clip-533"><path d="M 432.0 248.0 L 654.0 248.0 L 654.0 420.0 L 432.0 420.0 Z M 432.0 248.0 "></path></clipPath><g clip-path="url(#clip-533)"><path d="M 432.0 420.0 L 654.0 420.0 L 654.0 248.0 L 432.0 248.0 Z M 432.0 420.0 " fill="#FFFFFF"></path><image xlink:href="66C05CE0710B754C1928E007054B6BF0.png" width="613.00" height="476.00" transform="matrix(0.36, 0.00, -0.00, -0.36, 432.0, 420.0)"></image></g></g><g><clipPath id="clip-534"><path d="M 432.0 79.0 L 654.0 79.0 L 654.0 246.0 L 432.0 246.0 Z M 432.0 79.0 "></path></clipPath><g clip-path="url(#clip-534)"><path d="M 432.0 246.0 L 654.0 246.0 L 654.0 79.0 L 432.0 79.0 Z M 432.0 246.0 " fill="#FFFFFF"></path><image xlink:href="5327CF0522512B45B914E75936976AE8.png" width="640.00" height="480.00" transform="matrix(0.35, 0.00, -0.00, -0.35, 432.0, 246.0)"></image></g></g><text xml:space="preserve" font-family="ArialMT" font-size="20.0" fill="#000000" transform="matrix(1.00, 0.00, -0.00, -1.00, 456.0, 49.0)">M</text><text xml:space="preserve" font-family="ArialMT" font-size="20.0" fill="#000000" transform="matrix(1.00, 0.00, -0.00, -1.00, 472.7, 49.0)">i</text><text xml:space="preserve" font-family="ArialMT" font-size="20.0" fill="#000000" transform="matrix(1.00, 0.00, -0.00, -1.00, 477.1, 49.0)">t</text><text xml:space="preserve" font-family="ArialMT" font-size="20.0" fill="#000000" transform="matrix(1.00, 0.00, -0.00, -1.00, 482.7, 49.0)">e</text><text xml:space="preserve" font-family="ArialMT" font-size="20.0" fill="#000000" transform="matrix(1.00, 0.00, -0.00, -1.00, 493.8, 49.0)">s</text><text xml:space="preserve" font-family="Arial-ItalicMT" font-style="italic" font-size="20.0" fill="#000000" transform="matrix(1.00, 0.00, -0.00, -1.00, 503.8, 49.0)"> </text><text xml:space="preserve" font-family="Arial-ItalicMT" font-style="italic" font-size="20.0" fill="#000000" transform="matrix(1.00, 0.00, -0.00, -1.00, 509.3, 49.0)">(</text><text xml:space="preserve" font-family="Arial-ItalicMT" font-style="italic" font-size="20.0" fill="#000000" transform="matrix(1.00, 0.00, -0.00, -1.00, 516.0, 49.0)">E</text><text xml:space="preserve" font-family="Arial-ItalicMT" font-style="italic" font-size="20.0" fill="#000000" transform="matrix(1.00, 0.00, -0.00, -1.00, 529.3, 49.0)">u</text><text xml:space="preserve" font-family="Arial-ItalicMT" font-style="italic" font-size="20.0" fill="#000000" transform="matrix(1.00, 0.00, -0.00, -1.00, 540.5, 49.0)">t</text><text xml:space="preserve" font-family="Arial-ItalicMT" font-style="italic" font-size="20.0" fill="#000000" transform="matrix(1.00, 0.00, -0.00, -1.00, 546.0, 49.0)">r</text><text xml:space="preserve" font-family="Arial-ItalicMT" font-style="italic" font-size="20.0" fill="#000000" transform="matrix(1.00, 0.00, -0.00, -1.00, 552.7, 49.0)">o</text><text xml:space="preserve" font-family="Arial-ItalicMT" font-style="italic" font-size="20.0" fill="#000000" transform="matrix(1.00, 0.00, -0.00, -1.00, 563.8, 49.0)">m</text><text xml:space="preserve" font-family="Arial-ItalicMT" font-style="italic" font-size="20.0" fill="#000000" transform="matrix(1.00, 0.00, -0.00, -1.00, 580.5, 49.0)">b</text><text xml:space="preserve" font-family="Arial-ItalicMT" font-style="italic" font-size="20.0" fill="#000000" transform="matrix(1.00, 0.00, -0.00, -1.00, 591.6, 49.0)">i</text><text xml:space="preserve" font-family="Arial-ItalicMT" font-style="italic" font-size="20.0" fill="#000000" transform="matrix(1.00, 0.00, -0.00, -1.00, 596.0, 49.0)">c</text><text xml:space="preserve" font-family="Arial-ItalicMT" font-style="italic" font-size="20.0" fill="#000000" transform="matrix(1.00, 0.00, -0.00, -1.00, 606.0, 49.0)">u</text><text xml:space="preserve" font-family="Arial-ItalicMT" font-style="italic" font-size="20.0" fill="#000000" transform="matrix(1.00, 0.00, -0.00, -1.00, 617.2, 49.0)">l</text><text xml:space="preserve" font-family="Arial-ItalicMT" font-style="italic" font-size="20.0" fill="#000000" transform="matrix(1.00, 0.00, -0.00, -1.00, 621.6, 49.0)">a</text><text xml:space="preserve" font-family="ArialMT" font-size="20.0" fill="#000000" transform="matrix(1.00, 0.00, -0.00, -1.00, 632.7, 49.0)">)</text><text xml:space="preserve" font-family="ArialMT" font-size="20.0" fill="#000000" transform="matrix(1.00, 0.00, -0.00, -1.00, 639.4, 49.0)"> </text><text xml:space="preserve" font-family="ArialMT" font-size="20.0" fill="#000000" transform="matrix(1.00, 0.00, -0.00, -1.00, 456.0, 26.0)">o</text><text xml:space="preserve" font-family="ArialMT" font-size="20.0" fill="#000000" transform="matrix(1.00, 0.00, -0.00, -1.00, 467.1, 26.0)">n</text><text xml:space="preserve" font-family="ArialMT" font-size="20.0" fill="#000000" transform="matrix(1.00, 0.00, -0.00, -1.00, 478.3, 26.0)"> </text><text xml:space="preserve" font-family="ArialMT" font-size="20.0" fill="#000000" transform="matrix(1.00, 0.00, -0.00, -1.00, 483.8, 26.0)">a</text><text xml:space="preserve" font-family="ArialMT" font-size="20.0" fill="#000000" transform="matrix(1.00, 0.00, -0.00, -1.00, 494.9, 26.0)"> </text><text xml:space="preserve" font-family="ArialMT" font-size="20.0" fill="#000000" transform="matrix(1.00, 0.00, -0.00, -1.00, 500.5, 26.0)">c</text><text xml:space="preserve" font-family="ArialMT" font-size="20.0" fill="#000000" transform="matrix(1.00, 0.00, -0.00, -1.00, 510.5, 26.0)">o</text><text xml:space="preserve" font-family="ArialMT" font-size="20.0" fill="#000000" transform="matrix(1.00, 0.00, -0.00, -1.00, 521.6, 26.0)">l</text><text xml:space="preserve" font-family="ArialMT" font-size="20.0" fill="#000000" transform="matrix(1.00, 0.00, -0.00, -1.00, 526.1, 26.0)">l</text><text xml:space="preserve" font-family="ArialMT" font-size="20.0" fill="#000000" transform="matrix(1.00, 0.00, -0.00, -1.00, 530.5, 26.0)">a</text><text xml:space="preserve" font-family="ArialMT" font-size="20.0" fill="#000000" transform="matrix(1.00, 0.00, -0.00, -1.00, 541.6, 26.0)">r</text><text xml:space="preserve" font-family="ArialMT" font-size="20.0" fill="#000000" transform="matrix(1.00, 0.00, -0.00, -1.00, 548.3, 26.0)">e</text><text xml:space="preserve" font-family="ArialMT" font-size="20.0" fill="#000000" transform="matrix(1.00, 0.00, -0.00, -1.00, 559.4, 26.0)">d</text><text xml:space="preserve" font-family="ArialMT" font-size="20.0" fill="#000000" transform="matrix(1.00, 0.00, -0.00, -1.00, 570.5, 26.0)"> </text><text xml:space="preserve" font-family="ArialMT" font-size="20.0" fill="#000000" transform="matrix(1.00, 0.00, -0.00, -1.00, 576.1, 26.0)">l</text><text xml:space="preserve" font-family="ArialMT" font-size="20.0" fill="#000000" transform="matrix(1.00, 0.00, -0.00, -1.00, 580.5, 26.0)">i</text><text xml:space="preserve" font-family="ArialMT" font-size="20.0" fill="#000000" transform="matrix(1.00, 0.00, -0.00, -1.00, 585.0, 26.0)">z</text><text xml:space="preserve" font-family="ArialMT" font-size="20.0" fill="#000000" transform="matrix(1.00, 0.00, -0.00, -1.00, 595.0, 26.0)">a</text><text xml:space="preserve" font-family="ArialMT" font-size="20.0" fill="#000000" transform="matrix(1.00, 0.00, -0.00, -1.00, 606.1, 26.0)">r</text><text xml:space="preserve" font-family="ArialMT" font-size="20.0" fill="#000000" transform="matrix(1.00, 0.00, -0.00, -1.00, 612.8, 26.0)">d</text><g><clipPath id="clip-535"><path d="M 150.0 26.0 L 294.0 26.0 L 294.0 162.0 L 150.0 162.0 Z M 150.0 26.0 "></path></clipPath><g clip-path="url(#clip-535)"><path d="M 150.0 162.0 L 294.0 162.0 L 294.0 26.0 L 150.0 26.0 Z M 150.0 162.0 " fill="#FFFFFF"></path><image xlink:href="D4AFB01E75441888470D62205EE4463F.png" width="300.00" height="284.00" transform="matrix(0.48, 0.00, -0.00, -0.48, 150.0, 162.0)"></image></g></g></g></svg>