<?xml version="1.0" encoding="UTF-8" standalone="no"?><svg xmlns="http://www.w3.org/2000/svg" xmlns:xlink="http://www.w3.org/1999/xlink" clip-rule="evenodd" stroke-miterlimit="10" viewBox="0 0 720 540"><desc>SVG generated by Keynote</desc><defs></defs><g transform="matrix(1.00, 0.00, -0.00, -1.00, 0.0, 540.0)"><path d="M 0.0 540.0 L 720.0 540.0 L 720.0 0.0 L 0.0 0.0 Z M 0.0 540.0 " fill="#FEFFFF"></path><text xml:space="preserve" font-family="GillSans,Gill Sans" font-size="28.0" fill="#000000" transform="matrix(1.00, 0.00, -0.00, -1.00, 273.8, 489.5)">T</text><text xml:space="preserve" font-family="GillSans,Gill Sans" font-size="28.0" fill="#000000" transform="matrix(1.00, 0.00, -0.00, -1.00, 287.2, 489.5)">a</text><text xml:space="preserve" font-family="GillSans,Gill Sans" font-size="28.0" fill="#000000" transform="matrix(1.00, 0.00, -0.00, -1.00, 299.1, 489.5)">k</text><text xml:space="preserve" font-family="GillSans,Gill Sans" font-size="28.0" fill="#000000" transform="matrix(1.00, 0.00, -0.00, -1.00, 312.5, 489.5)">i</text><text xml:space="preserve" font-family="GillSans,Gill Sans" font-size="28.0" fill="#000000" transform="matrix(1.00, 0.00, -0.00, -1.00, 318.7, 489.5)">n</text><text xml:space="preserve" font-family="GillSans,Gill Sans" font-size="28.0" fill="#000000" transform="matrix(1.00, 0.00, -0.00, -1.00, 332.7, 489.5)">g</text><text xml:space="preserve" font-family="GillSans,Gill Sans" font-size="28.0" fill="#000000" transform="matrix(1.00, 0.00, -0.00, -1.00, 344.6, 489.5)"> </text><text xml:space="preserve" font-family="GillSans,Gill Sans" font-size="28.0" fill="#000000" transform="matrix(1.00, 0.00, -0.00, -1.00, 352.4, 489.5)">i</text><text xml:space="preserve" font-family="GillSans,Gill Sans" font-size="28.0" fill="#000000" transform="matrix(1.00, 0.00, -0.00, -1.00, 358.5, 489.5)">n</text><text xml:space="preserve" font-family="GillSans,Gill Sans" font-size="28.0" fill="#000000" transform="matrix(1.00, 0.00, -0.00, -1.00, 372.5, 489.5)"> </text><text xml:space="preserve" font-family="GillSans,Gill Sans" font-size="28.0" fill="#000000" transform="matrix(1.00, 0.00, -0.00, -1.00, 380.3, 489.5)">w</text><text xml:space="preserve" font-family="GillSans,Gill Sans" font-size="28.0" fill="#000000" transform="matrix(1.00, 0.00, -0.00, -1.00, 400.5, 489.5)">a</text><text xml:space="preserve" font-family="GillSans,Gill Sans" font-size="28.0" fill="#000000" transform="matrix(1.00, 0.00, -0.00, -1.00, 412.4, 489.5)">t</text><text xml:space="preserve" font-family="GillSans,Gill Sans" font-size="28.0" fill="#000000" transform="matrix(1.00, 0.00, -0.00, -1.00, 421.7, 489.5)">e</text><text xml:space="preserve" font-family="GillSans,Gill Sans" font-size="28.0" fill="#000000" transform="matrix(1.00, 0.00, -0.00, -1.00, 435.1, 489.5)">r</text><image xlink:href="../../24CF4C31-A0D6-4611-8E26-A2943A47E9C2/assets/218178B17965D483F8ECF37E571F9F0E.png" width="187.00" height="187.00" transform="matrix(1.00, 0.00, -0.00, -1.00, 35.0, 361.7)" opacity="0.50"></image><g><clipPath id="clip0x7fce02301a70"><path d="M 38.0 206.5 L 38.0 333.5 C 38.0 348.5 50.2 361.0 65.2 361.0 L 192.3 361.0 C 207.3 361.0 219.0 348.5 219.0 333.5 L 219.0 206.5 C 219.0 191.5 207.3 179.0 192.3 179.0 L 65.2 179.0 C 50.2 179.0 38.0 191.5 38.0 206.5 Z M 38.0 206.5 "></path></clipPath><g clip-path="url(#clip0x7fce02301a70)"><image xlink:href="../../24CF4C31-A0D6-4611-8E26-A2943A47E9C2/assets/C3C0FC898C94653CAF8AD846D6CCD108.png" width="600.00" height="600.00" transform="matrix(0.50, 0.00, -0.00, -0.50, 38.0, 361.0)"></image></g></g><image xlink:href="../../24CF4C31-A0D6-4611-8E26-A2943A47E9C2/assets/5968CCE1AE137875860CD3DD7F5B99A9.png" width="60.00" height="30.00" transform="matrix(1.00, 0.00, -0.00, -1.00, 99.0, 296.0)"></image><g><clipPath id="clip0x7fce02303fb0"><path d="M 31.5 179.3 L 225.9 179.3 L 225.9 360.7 L 31.5 360.7 Z M 31.5 179.3 "></path></clipPath><g clip-path="url(#clip0x7fce02303fb0)"><text xml:space="preserve" font-family="GillSans,Gill Sans" font-size="26.0" fill="#FEFFFF" transform="matrix(1.00, 0.00, -0.00, -1.00, 100.6, 276.0)">l</text><text xml:space="preserve" font-family="GillSans,Gill Sans" font-size="26.0" fill="#FEFFFF" transform="matrix(1.00, 0.00, -0.00, -1.00, 106.3, 276.0)">i</text><text xml:space="preserve" font-family="GillSans,Gill Sans" font-size="26.0" fill="#FEFFFF" transform="matrix(1.00, 0.00, -0.00, -1.00, 112.0, 276.0)">q</text><text xml:space="preserve" font-family="GillSans,Gill Sans" font-size="26.0" fill="#FEFFFF" transform="matrix(1.00, 0.00, -0.00, -1.00, 125.0, 276.0)">u</text><text xml:space="preserve" font-family="GillSans,Gill Sans" font-size="26.0" fill="#FEFFFF" transform="matrix(1.00, 0.00, -0.00, -1.00, 138.0, 276.0)">i</text><text xml:space="preserve" font-family="GillSans,Gill Sans" font-size="26.0" fill="#FEFFFF" transform="matrix(1.00, 0.00, -0.00, -1.00, 143.7, 276.0)">d</text><text xml:space="preserve" font-family="GillSans,Gill Sans" font-size="26.0" fill="#FEFFFF" transform="matrix(1.00, 0.00, -0.00, -1.00, 156.9, 276.0)"> </text></g></g><image xlink:href="../../24CF4C31-A0D6-4611-8E26-A2943A47E9C2/assets/32B57811C3108044DC859DBBF0C01C25.png" width="68.00" height="22.00" transform="matrix(1.00, 0.00, -0.00, -1.00, 95.0, 263.0)"></image><g><clipPath id="clip0x7fce02308e20"><path d="M 31.5 179.3 L 225.9 179.3 L 225.9 360.7 L 31.5 360.7 Z M 31.5 179.3 "></path></clipPath><g clip-path="url(#clip0x7fce02308e20)"><text xml:space="preserve" font-family="GillSans,Gill Sans" font-size="26.0" fill="#FEFFFF" transform="matrix(1.00, 0.00, -0.00, -1.00, 98.1, 246.0)">w</text><text xml:space="preserve" font-family="GillSans,Gill Sans" font-size="26.0" fill="#FEFFFF" transform="matrix(1.00, 0.00, -0.00, -1.00, 116.8, 246.0)">a</text><text xml:space="preserve" font-family="GillSans,Gill Sans" font-size="26.0" fill="#FEFFFF" transform="matrix(1.00, 0.00, -0.00, -1.00, 127.9, 246.0)">t</text><text xml:space="preserve" font-family="GillSans,Gill Sans" font-size="26.0" fill="#FEFFFF" transform="matrix(1.00, 0.00, -0.00, -1.00, 136.6, 246.0)">e</text><text xml:space="preserve" font-family="GillSans,Gill Sans" font-size="26.0" fill="#FEFFFF" transform="matrix(1.00, 0.00, -0.00, -1.00, 149.0, 246.0)">r</text></g></g><image xlink:href="../../24CF4C31-A0D6-4611-8E26-A2943A47E9C2/assets/DA5689D4FE9BEAA31B4885A973A0B1DF.png" width="187.00" height="187.00" transform="matrix(1.00, 0.00, -0.00, -1.00, 266.3, 361.7)" opacity="0.50"></image><path d="M 269.3 206.5 L 269.0 333.5 C 269.0 348.5 281.5 361.0 296.5 361.0 L 423.5 361.0 C 438.5 361.0 451.0 348.5 451.0 333.5 L 451.0 206.5 C 451.0 191.5 438.5 179.0 423.5 179.0 L 296.5 179.0 C 281.5 179.0 269.3 191.5 269.3 206.5 Z M 269.3 206.5 " fill="#6FBF40"></path><image xlink:href="../../24CF4C31-A0D6-4611-8E26-A2943A47E9C2/assets/92A1F32C00FACF07ED6204BFDC3FECD3.png" width="116.00" height="30.00" transform="matrix(1.00, 0.00, -0.00, -1.00, 302.0, 296.0)"></image><g><clipPath id="clip0x7fce0222a420"><path d="M 262.8 179.3 L 457.2 179.3 L 457.2 360.7 L 262.8 360.7 Z M 262.8 179.3 "></path></clipPath><g clip-path="url(#clip0x7fce0222a420)"><text xml:space="preserve" font-family="GillSans,Gill Sans" font-size="26.0" fill="#FEFFFF" transform="matrix(1.00, 0.00, -0.00, -1.00, 304.1, 276.0)">p</text><text xml:space="preserve" font-family="GillSans,Gill Sans" font-size="26.0" fill="#FEFFFF" transform="matrix(1.00, 0.00, -0.00, -1.00, 317.1, 276.0)">r</text><text xml:space="preserve" font-family="GillSans,Gill Sans" font-size="26.0" fill="#FEFFFF" transform="matrix(1.00, 0.00, -0.00, -1.00, 326.8, 276.0)">e</text><text xml:space="preserve" font-family="GillSans,Gill Sans" font-size="26.0" fill="#FEFFFF" transform="matrix(1.00, 0.00, -0.00, -1.00, 339.3, 276.0)">f</text><text xml:space="preserve" font-family="GillSans,Gill Sans" font-size="26.0" fill="#FEFFFF" transform="matrix(1.00, 0.00, -0.00, -1.00, 345.5, 276.0)">o</text><text xml:space="preserve" font-family="GillSans,Gill Sans" font-size="26.0" fill="#FEFFFF" transform="matrix(1.00, 0.00, -0.00, -1.00, 359.9, 276.0)">r</text><text xml:space="preserve" font-family="GillSans,Gill Sans" font-size="26.0" fill="#FEFFFF" transform="matrix(1.00, 0.00, -0.00, -1.00, 370.2, 276.0)">m</text><text xml:space="preserve" font-family="GillSans,Gill Sans" font-size="26.0" fill="#FEFFFF" transform="matrix(1.00, 0.00, -0.00, -1.00, 390.2, 276.0)">e</text><text xml:space="preserve" font-family="GillSans,Gill Sans" font-size="26.0" fill="#FEFFFF" transform="matrix(1.00, 0.00, -0.00, -1.00, 402.7, 276.0)">d</text><text xml:space="preserve" font-family="GillSans,Gill Sans" font-size="26.0" fill="#FEFFFF" transform="matrix(1.00, 0.00, -0.00, -1.00, 415.9, 276.0)"> </text></g></g><image xlink:href="../../24CF4C31-A0D6-4611-8E26-A2943A47E9C2/assets/8BC310806CE7D4D46C3DBAA9B2B6EA60.png" width="68.00" height="22.00" transform="matrix(1.00, 0.00, -0.00, -1.00, 326.0, 263.0)"></image><g><clipPath id="clip0x7fce02230180"><path d="M 262.8 179.3 L 457.2 179.3 L 457.2 360.7 L 262.8 360.7 Z M 262.8 179.3 "></path></clipPath><g clip-path="url(#clip0x7fce02230180)"><text xml:space="preserve" font-family="GillSans,Gill Sans" font-size="26.0" fill="#FEFFFF" transform="matrix(1.00, 0.00, -0.00, -1.00, 329.4, 246.0)">w</text><text xml:space="preserve" font-family="GillSans,Gill Sans" font-size="26.0" fill="#FEFFFF" transform="matrix(1.00, 0.00, -0.00, -1.00, 348.1, 246.0)">a</text><text xml:space="preserve" font-family="GillSans,Gill Sans" font-size="26.0" fill="#FEFFFF" transform="matrix(1.00, 0.00, -0.00, -1.00, 359.2, 246.0)">t</text><text xml:space="preserve" font-family="GillSans,Gill Sans" font-size="26.0" fill="#FEFFFF" transform="matrix(1.00, 0.00, -0.00, -1.00, 367.9, 246.0)">e</text><text xml:space="preserve" font-family="GillSans,Gill Sans" font-size="26.0" fill="#FEFFFF" transform="matrix(1.00, 0.00, -0.00, -1.00, 380.3, 246.0)">r</text></g></g><image xlink:href="1673A288454D59846C7805A232C4E0C5.png" width="192.00" height="192.00" transform="matrix(1.00, 0.00, -0.00, -1.00, 495.0, 364.2)" opacity="0.50"></image><path d="M 500.5 206.0 L 500.5 333.5 C 500.5 348.5 512.7 360.5 527.7 360.5 L 654.8 360.5 C 669.8 360.5 682.5 348.5 682.5 333.5 L 682.5 206.5 C 682.5 191.5 669.8 179.5 654.8 179.5 L 527.7 179.5 C 512.7 179.5 500.5 191.0 500.5 206.0 Z M 500.5 206.5 " fill="#763E9B"></path><path d="M -0.0 154.7 L -0.0 27.2 C -0.0 12.2 12.2 0.2 27.2 0.2 L 154.3 0.2 C 169.3 0.2 182.0 12.2 182.0 27.2 L 182.0 154.3 C 182.0 169.3 169.3 181.2 154.3 181.2 L 27.2 181.2 C 12.2 181.2 -0.0 169.8 -0.0 154.7 Z M 0.0 154.3 " fill="none" stroke="#000000" stroke-width="5.00" transform="matrix(1.00, 0.00, 0.00, -1.00, 500.5, 360.7)"></path><image xlink:href="7A6BA9922C486A00F2118409CF6A1FB6.png" width="107.00" height="25.00" transform="matrix(1.00, 0.00, -0.00, -1.00, 538.0, 297.0)"></image><g><clipPath id="clip0x7fce0230edf0"><path d="M 496.6 179.3 L 686.0 179.3 L 686.0 360.7 L 496.6 360.7 Z M 496.6 179.3 "></path></clipPath><g clip-path="url(#clip0x7fce0230edf0)"><text xml:space="preserve" font-family="GillSans,Gill Sans" font-size="26.0" fill="#FEFFFF" transform="matrix(1.00, 0.00, -0.00, -1.00, 540.1, 276.6)">m</text><text xml:space="preserve" font-family="GillSans,Gill Sans" font-size="26.0" fill="#FEFFFF" transform="matrix(1.00, 0.00, -0.00, -1.00, 560.1, 276.6)">e</text><text xml:space="preserve" font-family="GillSans,Gill Sans" font-size="26.0" fill="#FEFFFF" transform="matrix(1.00, 0.00, -0.00, -1.00, 572.6, 276.6)">t</text><text xml:space="preserve" font-family="GillSans,Gill Sans" font-size="26.0" fill="#FEFFFF" transform="matrix(1.00, 0.00, -0.00, -1.00, 581.2, 276.6)">a</text><text xml:space="preserve" font-family="GillSans,Gill Sans" font-size="26.0" fill="#FEFFFF" transform="matrix(1.00, 0.00, -0.00, -1.00, 592.3, 276.6)">b</text><text xml:space="preserve" font-family="GillSans,Gill Sans" font-size="26.0" fill="#FEFFFF" transform="matrix(1.00, 0.00, -0.00, -1.00, 605.3, 276.6)">o</text><text xml:space="preserve" font-family="GillSans,Gill Sans" font-size="26.0" fill="#FEFFFF" transform="matrix(1.00, 0.00, -0.00, -1.00, 619.7, 276.6)">l</text><text xml:space="preserve" font-family="GillSans,Gill Sans" font-size="26.0" fill="#FEFFFF" transform="matrix(1.00, 0.00, -0.00, -1.00, 625.4, 276.6)">i</text><text xml:space="preserve" font-family="GillSans,Gill Sans" font-size="26.0" fill="#FEFFFF" transform="matrix(1.00, 0.00, -0.00, -1.00, 631.1, 276.6)">c</text><text xml:space="preserve" font-family="GillSans,Gill Sans" font-size="26.0" fill="#FEFFFF" transform="matrix(1.00, 0.00, -0.00, -1.00, 642.5, 276.6)"> </text></g></g><image xlink:href="F4B92FEACF38F7CDE403975EFAEEF1EE.png" width="68.00" height="21.00" transform="matrix(1.00, 0.00, -0.00, -1.00, 557.0, 263.0)"></image><g><clipPath id="clip0x7fce02315080"><path d="M 496.6 179.3 L 686.0 179.3 L 686.0 360.7 L 496.6 360.7 Z M 496.6 179.3 "></path></clipPath><g clip-path="url(#clip0x7fce02315080)"><text xml:space="preserve" font-family="GillSans,Gill Sans" font-size="26.0" fill="#FEFFFF" transform="matrix(1.00, 0.00, -0.00, -1.00, 560.7, 246.6)">w</text><text xml:space="preserve" font-family="GillSans,Gill Sans" font-size="26.0" fill="#FEFFFF" transform="matrix(1.00, 0.00, -0.00, -1.00, 579.4, 246.6)">a</text><text xml:space="preserve" font-family="GillSans,Gill Sans" font-size="26.0" fill="#FEFFFF" transform="matrix(1.00, 0.00, -0.00, -1.00, 590.5, 246.6)">t</text><text xml:space="preserve" font-family="GillSans,Gill Sans" font-size="26.0" fill="#FEFFFF" transform="matrix(1.00, 0.00, -0.00, -1.00, 599.1, 246.6)">e</text><text xml:space="preserve" font-family="GillSans,Gill Sans" font-size="26.0" fill="#FEFFFF" transform="matrix(1.00, 0.00, -0.00, -1.00, 611.6, 246.6)">r</text></g></g></g></svg>