<?xml version="1.0" encoding="UTF-8" standalone="no"?><svg xmlns="http://www.w3.org/2000/svg" xmlns:xlink="http://www.w3.org/1999/xlink" clip-rule="evenodd" stroke-miterlimit="4.00" viewBox="0 0 26 168"><desc>SVG generated by Keynote</desc><defs></defs><g transform="matrix(1.00, 0.00, -0.00, -1.00, 0.0, 168.0)"><text xml:space="preserve" font-family="ArialMT" font-size="24.0" fill="#929292" transform="matrix(0.00, 1.00, 1.00, -0.00, 19.0, 0.0)">P</text><text xml:space="preserve" font-family="ArialMT" font-size="24.0" fill="#929292" transform="matrix(0.00, 1.00, 1.00, -0.00, 19.0, 16.0)">o</text><text xml:space="preserve" font-family="ArialMT" font-size="24.0" fill="#929292" transform="matrix(0.00, 1.00, 1.00, -0.00, 19.0, 29.4)">p</text><text xml:space="preserve" font-family="ArialMT" font-size="24.0" fill="#929292" transform="matrix(0.00, 1.00, 1.00, -0.00, 19.0, 42.7)">u</text><text xml:space="preserve" font-family="ArialMT" font-size="24.0" fill="#929292" transform="matrix(0.00, 1.00, 1.00, -0.00, 19.0, 56.1)">l</text><text xml:space="preserve" font-family="ArialMT" font-size="24.0" fill="#929292" transform="matrix(0.00, 1.00, 1.00, -0.00, 19.0, 61.4)">a</text><text xml:space="preserve" font-family="ArialMT" font-size="24.0" fill="#929292" transform="matrix(0.00, 1.00, 1.00, -0.00, 19.0, 74.8)">t</text><text xml:space="preserve" font-family="ArialMT" font-size="24.0" fill="#929292" transform="matrix(0.00, 1.00, 1.00, -0.00, 19.0, 81.4)">i</text><text xml:space="preserve" font-family="ArialMT" font-size="24.0" fill="#929292" transform="matrix(0.00, 1.00, 1.00, -0.00, 19.0, 86.8)">o</text><text xml:space="preserve" font-family="ArialMT" font-size="24.0" fill="#929292" transform="matrix(0.00, 1.00, 1.00, -0.00, 19.0, 100.1)">n</text><text xml:space="preserve" font-family="ArialMT" font-size="24.0" fill="#929292" transform="matrix(0.00, 1.00, 1.00, -0.00, 19.0, 113.5)"> </text><text xml:space="preserve" font-family="ArialMT" font-size="24.0" fill="#929292" transform="matrix(0.00, 1.00, 1.00, -0.00, 19.0, 120.1)">S</text><text xml:space="preserve" font-family="ArialMT" font-size="24.0" fill="#929292" transform="matrix(0.00, 1.00, 1.00, -0.00, 19.0, 136.1)">i</text><text xml:space="preserve" font-family="ArialMT" font-size="24.0" fill="#929292" transform="matrix(0.00, 1.00, 1.00, -0.00, 19.0, 141.5)">z</text><text xml:space="preserve" font-family="ArialMT" font-size="24.0" fill="#929292" transform="matrix(0.00, 1.00, 1.00, -0.00, 19.0, 153.5)">e</text></g></svg>