<?xml version="1.0" encoding="UTF-8" standalone="no"?><svg xmlns="http://www.w3.org/2000/svg" xmlns:xlink="http://www.w3.org/1999/xlink" clip-rule="evenodd" stroke-miterlimit="4.00" viewBox="0 0 1024 768"><desc>SVG generated by Keynote</desc><defs></defs><g transform="matrix(1.00, 0.00, -0.00, -1.00, 0.0, 768.0)"><path d="M 0.0 768.0 L 1024.0 768.0 L 1024.0 0.0 L 0.0 0.0 Z M 0.0 768.0 " fill="#FEFFFF"></path><path d="M 0.0 0.0 L 980.0 0.0 L 980.0 726.0 L 0.0 726.0 Z M 0.0 0.0 " fill="none" stroke="#A2A0A6" stroke-width="2.00" transform="matrix(1.00, 0.00, 0.00, -1.00, 22.3, 746.0)"></path><path d="M 0.0 768.0 L 1024.0 768.0 L 1024.0 0.0 L 0.0 0.0 Z M 0.0 768.0 " fill="#FEFFFF"></path><path d="M 0.0 0.0 L 1024.0 0.0 L 1024.0 768.0 L 0.0 768.0 Z M 0.0 0.0 " fill="none" stroke="#000000" stroke-width="1.00" transform="matrix(1.00, 0.00, 0.00, -1.00, 0.0, 768.0)"></path><g><clipPath id="clip-966"><path d="M 137.4 458.6 L 311.4 458.6 L 311.4 568.4 L 137.4 568.4 Z M 137.4 458.6 "></path></clipPath><g clip-path="url(#clip-966)"><path d="M 181.0 545.6 C 191.8 547.0 200.2 548.8 210.5 550.2 C 212.3 552.2 213.2 554.9 215.3 556.3 C 217.2 557.9 219.9 557.9 222.4 558.6 C 230.6 557.5 234.7 555.6 242.5 553.8 C 246.4 552.9 254.4 550.2 254.4 550.2 C 250.5 561.5 239.1 557.9 228.3 558.6 C 223.1 560.4 223.1 562.2 224.7 567.0 C 228.4 565.8 231.5 563.6 235.4 562.2 C 241.1 556.8 234.5 561.6 238.9 564.5 C 239.8 565.2 240.4 562.9 241.4 562.2 C 245.0 560.2 250.3 559.7 254.4 558.6 C 262.4 553.3 258.7 554.7 265.1 552.7 C 266.7 547.7 269.3 544.0 270.9 538.5 C 273.6 528.5 272.7 519.7 284.1 517.1 C 285.7 515.3 288.4 514.2 290.0 512.3 C 290.8 511.0 291.4 506.5 292.3 505.1 C 294.0 502.1 301.9 500.3 301.9 500.3 C 302.8 482.6 302.0 483.0 310.0 470.7 C 304.9 465.4 303.3 472.8 299.4 476.6 C 298.1 480.3 299.0 494.6 295.8 485.0 C 295.5 481.8 295.3 478.5 294.8 475.3 C 294.2 473.0 292.3 468.2 292.3 468.2 C 287.8 473.0 289.2 479.1 287.6 485.0 C 283.2 480.7 282.3 473.2 280.5 467.1 C 280.9 471.1 281.8 475.0 281.6 478.9 C 281.4 481.4 280.9 484.4 279.3 486.0 C 278.4 486.9 278.4 483.7 278.0 482.5 C 277.5 481.4 277.3 480.2 277.0 478.9 C 274.1 470.7 276.4 473.2 270.9 469.5 C 268.4 480.5 277.2 481.4 280.5 490.9 C 278.0 491.7 274.8 491.2 273.4 493.2 C 269.5 498.5 270.8 505.1 266.3 509.9 C 256.0 507.4 250.3 498.9 240.2 495.7 C 243.0 492.6 245.5 492.3 249.6 490.9 C 250.3 488.5 252.8 486.2 252.1 483.7 C 250.0 478.0 245.5 478.5 240.2 476.6 C 236.6 472.1 235.6 469.5 229.5 467.1 C 227.0 466.4 222.4 464.6 222.4 464.6 C 217.6 466.4 212.8 467.8 208.2 469.5 C 205.7 469.1 203.0 469.5 201.1 468.2 C 199.8 467.7 200.7 465.5 199.8 464.6 C 197.7 462.7 192.7 460.0 192.7 460.0 C 194.8 466.6 196.4 461.8 198.8 468.2 C 196.6 468.7 194.7 469.3 192.7 469.5 C 183.3 471.2 182.0 469.3 188.1 473.0 C 193.1 471.9 196.1 470.3 201.1 471.8 C 203.9 480.3 194.1 479.3 188.1 480.2 C 199.6 481.0 206.4 481.2 216.5 483.7 C 216.5 483.9 222.6 487.5 222.4 488.5 C 221.5 491.6 208.5 493.0 206.9 493.2 C 196.4 496.9 202.3 495.5 189.2 496.7 C 181.2 499.6 172.4 500.7 165.5 505.1 C 161.8 515.5 166.0 511.7 164.3 525.3 C 163.9 526.7 162.5 523.1 162.0 521.7 C 160.2 518.5 159.5 514.6 158.4 511.0 C 159.6 499.4 160.2 501.9 163.2 493.2 C 162.3 492.5 161.8 490.7 160.7 490.9 C 158.4 491.6 158.2 496.7 157.2 498.0 C 156.1 499.2 154.7 499.6 153.6 500.3 C 150.8 509.6 154.3 499.2 151.3 492.1 C 150.8 491.0 148.8 492.8 147.7 493.2 C 144.4 498.3 143.5 500.7 150.0 502.8 C 145.6 498.2 147.4 497.3 140.6 495.7 C 136.5 501.9 139.6 500.8 145.4 502.8 C 148.6 508.0 149.3 512.4 154.8 515.8 C 157.3 523.5 162.8 529.0 167.8 534.9 C 169.2 536.9 172.3 539.5 174.9 539.5 " fill="#D74800" fill-opacity="0.80"></path><path d="M 42.2 21.4 C 53.1 20.0 61.4 18.2 71.7 16.8 C 73.5 14.8 74.4 12.1 76.5 10.7 C 78.5 9.1 81.2 9.1 83.7 8.4 C 91.8 9.5 95.9 11.4 103.7 13.2 C 107.7 14.1 115.7 16.8 115.7 16.8 C 111.7 5.5 100.4 9.1 89.5 8.4 C 84.4 6.6 84.4 4.8 86.0 0.0 C 89.7 1.2 92.7 3.4 96.6 4.8 C 102.3 10.2 95.7 5.4 100.2 2.5 C 101.1 1.8 101.6 4.1 102.7 4.8 C 106.2 6.8 111.6 7.3 115.7 8.4 C 123.7 13.7 119.9 12.3 126.3 14.3 C 127.9 19.3 130.6 23.0 132.2 28.5 C 134.9 38.5 134.0 47.3 145.3 49.9 C 146.9 51.7 149.6 52.8 151.2 54.7 C 152.1 56.0 152.6 60.5 153.5 61.9 C 155.3 64.9 163.1 66.7 163.1 66.7 C 164.0 84.4 163.3 84.0 171.3 96.3 C 166.1 101.7 164.5 94.2 160.6 90.4 C 159.4 86.7 160.3 72.4 157.1 82.0 C 156.7 85.2 156.5 88.5 156.0 91.7 C 155.5 94.0 153.5 98.8 153.5 98.8 C 149.1 94.0 150.5 87.9 148.9 82.0 C 144.5 86.3 143.6 93.8 141.8 99.9 C 142.1 95.9 143.0 92.0 142.9 88.1 C 142.7 85.6 142.1 82.6 140.5 81.0 C 139.7 80.1 139.7 83.3 139.3 84.5 C 138.8 85.6 138.6 86.8 138.2 88.1 C 135.4 96.3 137.7 93.8 132.2 97.5 C 129.7 86.5 138.4 85.6 141.8 76.1 C 139.3 75.3 136.1 75.8 134.7 73.8 C 130.8 68.5 132.0 61.9 127.6 57.1 C 117.3 59.6 111.6 68.1 101.4 71.3 C 104.3 74.4 106.8 74.7 110.9 76.1 C 111.6 78.5 114.1 80.8 113.3 83.3 C 111.2 89.0 106.8 88.5 101.4 90.4 C 97.9 94.9 96.8 97.5 90.8 99.9 C 88.3 100.6 83.7 102.4 83.7 102.4 C 78.9 100.6 74.1 99.2 69.4 97.5 C 66.9 97.9 64.3 97.5 62.3 98.8 C 61.1 99.3 62.0 101.5 61.1 102.4 C 58.9 104.3 54.0 107.0 54.0 107.0 C 56.1 100.4 57.7 105.2 60.0 98.8 C 57.9 98.3 55.9 97.7 54.0 97.5 C 44.5 95.8 43.3 97.7 49.3 94.0 C 54.3 95.1 57.3 96.7 62.3 95.2 C 65.2 86.7 55.4 87.7 49.3 86.8 C 60.9 86.0 67.7 85.8 77.8 83.3 C 77.8 83.1 83.8 79.5 83.7 78.5 C 82.8 75.4 69.8 74.0 68.2 73.8 C 57.7 70.1 63.6 71.5 50.4 70.3 C 42.4 67.4 33.7 66.3 26.8 61.9 C 23.0 51.5 27.3 55.3 25.5 41.7 C 25.2 40.3 23.7 43.9 23.2 45.3 C 21.4 48.5 20.7 52.4 19.7 56.0 C 20.9 67.6 21.4 65.1 24.5 73.8 C 23.6 74.5 23.0 76.3 22.0 76.1 C 19.7 75.4 19.5 70.3 18.4 69.0 C 17.3 67.8 15.9 67.4 14.9 66.7 C 12.0 57.4 15.6 67.8 12.5 74.9 C 12.0 76.0 10.1 74.2 9.0 73.8 C 5.6 68.7 4.7 66.3 11.3 64.2 C 6.9 68.8 8.6 69.7 1.9 71.3 C -2.2 65.1 0.8 66.2 6.7 64.2 C 9.9 59.0 10.6 54.6 16.1 51.2 C 18.6 43.5 24.1 38.0 29.1 32.1 C 30.5 30.1 33.5 27.5 36.2 27.5 " fill="none" stroke="#000000" stroke-width="0.75" stroke-linejoin="round" transform="matrix(1.00, 0.00, 0.00, -1.00, 138.7, 567.0)"></path></g></g><g><clipPath id="clip-967"><path d="M 169.6 531.6 L 181.4 531.6 L 181.4 543.4 L 169.6 543.4 Z M 169.6 531.6 "></path></clipPath><g clip-path="url(#clip-967)"><path d="M 178.7 540.7 C 180.4 538.9 180.4 536.1 178.7 534.3 C 176.9 532.6 174.1 532.6 172.3 534.3 C 170.6 536.1 170.6 538.9 172.3 540.7 C 174.1 542.4 176.9 542.4 178.7 540.7 " fill="#000000"></path><path d="M 7.7 1.3 C 9.4 3.1 9.4 5.9 7.7 7.7 C 5.9 9.4 3.1 9.4 1.3 7.7 C -0.4 5.9 -0.4 3.1 1.3 1.3 C 3.1 -0.4 5.9 -0.4 7.7 1.3 " fill="none" stroke="#000000" stroke-width="0.75" stroke-linejoin="round" transform="matrix(1.00, 0.00, 0.00, -1.00, 171.0, 542.0)"></path></g></g><g><clipPath id="clip-968"><path d="M 194.6 505.6 L 206.4 505.6 L 206.4 517.4 L 194.6 517.4 Z M 194.6 505.6 "></path></clipPath><g clip-path="url(#clip-968)"><path d="M 203.7 514.7 C 205.4 512.9 205.4 510.1 203.7 508.3 C 201.9 506.6 199.1 506.6 197.3 508.3 C 195.6 510.1 195.6 512.9 197.3 514.7 C 199.1 516.4 201.9 516.4 203.7 514.7 " fill="#000000"></path><path d="M 7.7 1.3 C 9.4 3.1 9.4 5.9 7.7 7.7 C 5.9 9.4 3.1 9.4 1.3 7.7 C -0.4 5.9 -0.4 3.1 1.3 1.3 C 3.1 -0.4 5.9 -0.4 7.7 1.3 " fill="none" stroke="#000000" stroke-width="0.75" stroke-linejoin="round" transform="matrix(1.00, 0.00, 0.00, -1.00, 196.0, 516.0)"></path></g></g><g><clipPath id="clip-969"><path d="M 373.5 467.6 L 547.5 467.6 L 547.5 577.4 L 373.5 577.4 Z M 373.5 467.6 "></path></clipPath><g clip-path="url(#clip-969)"><path d="M 417.1 554.6 C 427.9 556.0 436.3 557.8 446.6 559.2 C 448.4 561.2 449.2 563.9 451.4 565.3 C 453.3 566.9 456.0 566.9 458.5 567.6 C 466.7 566.5 470.8 564.6 478.6 562.8 C 482.5 561.9 490.5 559.2 490.5 559.2 C 486.6 570.5 475.2 566.9 464.4 567.6 C 459.2 569.4 459.2 571.2 460.8 576.0 C 464.5 574.8 467.6 572.6 471.5 571.2 C 477.2 565.8 470.6 570.6 475.0 573.5 C 475.9 574.2 476.4 571.9 477.5 571.2 C 481.1 569.2 486.4 568.7 490.5 567.6 C 498.5 562.3 494.8 563.7 501.2 561.7 C 502.8 556.7 505.4 553.0 507.0 547.5 C 509.7 537.5 508.8 528.7 520.2 526.1 C 521.8 524.3 524.4 523.2 526.0 521.3 C 526.9 520.0 527.5 515.5 528.4 514.1 C 530.1 511.1 538.0 509.3 538.0 509.3 C 538.8 491.6 538.1 492.0 546.1 479.7 C 541.0 474.4 539.4 481.8 535.5 485.6 C 534.2 489.3 535.1 503.6 531.9 494.0 C 531.6 490.8 531.4 487.5 530.8 484.3 C 530.3 482.0 528.4 477.2 528.4 477.2 C 523.9 482.0 525.3 488.1 523.7 494.0 C 519.3 489.7 518.4 482.2 516.6 476.1 C 517.0 480.1 517.9 484.0 517.7 487.9 C 517.5 490.4 517.0 493.4 515.4 495.0 C 514.5 495.9 514.5 492.7 514.1 491.5 C 513.6 490.4 513.4 489.2 513.1 487.9 C 510.2 479.7 512.5 482.2 507.0 478.5 C 504.5 489.5 513.2 490.4 516.6 499.9 C 514.1 500.7 510.9 500.2 509.5 502.2 C 505.6 507.5 506.8 514.1 502.4 518.9 C 492.1 516.4 486.4 507.9 476.3 504.7 C 479.1 501.6 481.6 501.3 485.7 499.9 C 486.4 497.5 488.9 495.2 488.2 492.7 C 486.0 487.0 481.6 487.5 476.3 485.6 C 472.7 481.1 471.6 478.5 465.6 476.1 C 463.1 475.4 458.5 473.6 458.5 473.6 C 453.7 475.4 448.9 476.8 444.3 478.5 C 441.8 478.1 439.1 478.5 437.2 477.2 C 435.9 476.7 436.8 474.5 435.9 473.6 C 433.8 471.7 428.8 469.0 428.8 469.0 C 430.9 475.6 432.5 470.8 434.8 477.2 C 432.7 477.7 430.8 478.3 428.8 478.5 C 419.4 480.2 418.1 478.3 424.2 482.0 C 429.2 480.9 432.2 479.3 437.2 480.8 C 440.0 489.3 430.2 488.3 424.2 489.2 C 435.7 490.0 442.5 490.2 452.6 492.7 C 452.6 492.9 458.7 496.5 458.5 497.5 C 457.6 500.6 444.6 502.0 443.0 502.2 C 432.5 505.9 438.4 504.5 425.2 505.7 C 417.2 508.6 408.5 509.7 401.6 514.1 C 397.9 524.5 402.1 520.7 400.4 534.3 C 400.0 535.7 398.6 532.1 398.0 530.7 C 396.3 527.5 395.6 523.6 394.5 520.0 C 395.7 508.4 396.3 510.9 399.3 502.2 C 398.4 501.5 397.9 499.7 396.8 499.9 C 394.5 500.6 394.3 505.7 393.2 507.0 C 392.2 508.2 390.8 508.6 389.7 509.3 C 386.8 518.6 390.4 508.2 387.4 501.1 C 386.8 500.0 384.9 501.8 383.8 502.2 C 380.4 507.3 379.6 509.7 386.1 511.8 C 381.7 507.2 383.5 506.3 376.7 504.7 C 372.6 510.9 375.6 509.8 381.5 511.8 C 384.7 517.0 385.4 521.4 390.9 524.8 C 393.4 532.5 398.9 538.0 403.9 543.9 C 405.3 545.9 408.4 548.5 411.0 548.5 " fill="#A7D100" fill-opacity="0.80"></path><path d="M 42.2 21.4 C 53.1 20.0 61.4 18.2 71.7 16.8 C 73.5 14.8 74.4 12.1 76.5 10.7 C 78.5 9.1 81.2 9.1 83.7 8.4 C 91.8 9.5 95.9 11.4 103.7 13.2 C 107.7 14.1 115.7 16.8 115.7 16.8 C 111.7 5.5 100.4 9.1 89.5 8.4 C 84.4 6.6 84.4 4.8 86.0 0.0 C 89.7 1.2 92.7 3.4 96.6 4.8 C 102.3 10.2 95.7 5.4 100.2 2.5 C 101.1 1.8 101.6 4.1 102.7 4.8 C 106.2 6.8 111.6 7.3 115.7 8.4 C 123.7 13.7 119.9 12.3 126.3 14.3 C 127.9 19.3 130.6 23.0 132.2 28.5 C 134.9 38.5 134.0 47.3 145.3 49.9 C 146.9 51.7 149.6 52.8 151.2 54.7 C 152.1 56.0 152.6 60.5 153.5 61.9 C 155.3 64.9 163.1 66.7 163.1 66.7 C 164.0 84.4 163.3 84.0 171.3 96.3 C 166.1 101.7 164.5 94.2 160.6 90.4 C 159.4 86.7 160.3 72.4 157.1 82.0 C 156.7 85.2 156.5 88.5 156.0 91.7 C 155.5 94.0 153.5 98.8 153.5 98.8 C 149.1 94.0 150.5 87.9 148.9 82.0 C 144.5 86.3 143.6 93.8 141.8 99.9 C 142.1 95.9 143.0 92.0 142.9 88.1 C 142.7 85.6 142.1 82.6 140.5 81.0 C 139.7 80.1 139.7 83.3 139.3 84.5 C 138.8 85.6 138.6 86.8 138.2 88.1 C 135.4 96.3 137.7 93.8 132.2 97.5 C 129.7 86.5 138.4 85.6 141.8 76.1 C 139.3 75.3 136.1 75.8 134.7 73.8 C 130.8 68.5 132.0 61.9 127.6 57.1 C 117.3 59.6 111.6 68.1 101.4 71.3 C 104.3 74.4 106.8 74.7 110.9 76.1 C 111.6 78.5 114.1 80.8 113.3 83.3 C 111.2 89.0 106.8 88.5 101.4 90.4 C 97.9 94.9 96.8 97.5 90.8 99.9 C 88.3 100.6 83.7 102.4 83.7 102.4 C 78.9 100.6 74.1 99.2 69.4 97.5 C 66.9 97.9 64.3 97.5 62.3 98.8 C 61.1 99.3 62.0 101.5 61.1 102.4 C 58.9 104.3 54.0 107.0 54.0 107.0 C 56.1 100.4 57.7 105.2 60.0 98.8 C 57.9 98.3 55.9 97.7 54.0 97.5 C 44.5 95.8 43.3 97.7 49.3 94.0 C 54.3 95.1 57.3 96.7 62.3 95.2 C 65.2 86.7 55.4 87.7 49.3 86.8 C 60.9 86.0 67.7 85.8 77.8 83.3 C 77.8 83.1 83.8 79.5 83.7 78.5 C 82.8 75.4 69.8 74.0 68.2 73.8 C 57.7 70.1 63.6 71.5 50.4 70.3 C 42.4 67.4 33.7 66.3 26.8 61.9 C 23.0 51.5 27.3 55.3 25.5 41.7 C 25.2 40.3 23.7 43.9 23.2 45.3 C 21.4 48.5 20.7 52.4 19.7 56.0 C 20.9 67.6 21.4 65.1 24.5 73.8 C 23.6 74.5 23.0 76.3 22.0 76.1 C 19.7 75.4 19.5 70.3 18.4 69.0 C 17.3 67.8 15.9 67.4 14.9 66.7 C 12.0 57.4 15.6 67.8 12.5 74.9 C 12.0 76.0 10.1 74.2 9.0 73.8 C 5.6 68.7 4.7 66.3 11.3 64.2 C 6.9 68.8 8.6 69.7 1.9 71.3 C -2.2 65.1 0.8 66.2 6.7 64.2 C 9.9 59.0 10.6 54.6 16.1 51.2 C 18.6 43.5 24.1 38.0 29.1 32.1 C 30.5 30.1 33.5 27.5 36.2 27.5 " fill="none" stroke="#000000" stroke-width="0.75" stroke-linejoin="round" transform="matrix(1.00, 0.00, 0.00, -1.00, 374.8, 576.0)"></path></g></g><g><clipPath id="clip-970"><path d="M 405.6 539.6 L 417.4 539.6 L 417.4 551.4 L 405.6 551.4 Z M 405.6 539.6 "></path></clipPath><g clip-path="url(#clip-970)"><path d="M 414.7 548.7 C 416.4 546.9 416.4 544.1 414.7 542.3 C 412.9 540.6 410.1 540.6 408.3 542.3 C 406.6 544.1 406.6 546.9 408.3 548.7 C 410.1 550.4 412.9 550.4 414.7 548.7 " fill="#000000"></path><path d="M 7.7 1.3 C 9.4 3.1 9.4 5.9 7.7 7.7 C 5.9 9.4 3.1 9.4 1.3 7.7 C -0.4 5.9 -0.4 3.1 1.3 1.3 C 3.1 -0.4 5.9 -0.4 7.7 1.3 " fill="none" stroke="#000000" stroke-width="0.75" stroke-linejoin="round" transform="matrix(1.00, 0.00, 0.00, -1.00, 407.0, 550.0)"></path></g></g><g><clipPath id="clip-971"><path d="M 430.6 514.6 L 442.4 514.6 L 442.4 526.4 L 430.6 526.4 Z M 430.6 514.6 "></path></clipPath><g clip-path="url(#clip-971)"><path d="M 439.7 523.7 C 441.4 521.9 441.4 519.1 439.7 517.3 C 437.9 515.6 435.1 515.6 433.3 517.3 C 431.6 519.1 431.6 521.9 433.3 523.7 C 435.1 525.4 437.9 525.4 439.7 523.7 " fill="#000000"></path><path d="M 7.7 1.3 C 9.4 3.1 9.4 5.9 7.7 7.7 C 5.9 9.4 3.1 9.4 1.3 7.7 C -0.4 5.9 -0.4 3.1 1.3 1.3 C 3.1 -0.4 5.9 -0.4 7.7 1.3 " fill="none" stroke="#000000" stroke-width="0.75" stroke-linejoin="round" transform="matrix(1.00, 0.00, 0.00, -1.00, 432.0, 525.0)"></path></g></g><text xml:space="preserve" font-family="Georgia" font-size="28.0" fill="#000000" transform="matrix(1.00, 0.00, -0.00, -1.00, 406.0, 584.0)">p</text><text xml:space="preserve" font-family="Georgia" font-size="28.0" fill="#000000" transform="matrix(1.00, 0.00, -0.00, -1.00, 422.0, 584.0)">e</text><text xml:space="preserve" font-family="Georgia" font-size="28.0" fill="#000000" transform="matrix(1.00, 0.00, -0.00, -1.00, 435.6, 584.0)">r</text><text xml:space="preserve" font-family="Georgia" font-size="28.0" fill="#000000" transform="matrix(1.00, 0.00, -0.00, -1.00, 447.0, 584.0)">s</text><text xml:space="preserve" font-family="Georgia" font-size="28.0" fill="#000000" transform="matrix(1.00, 0.00, -0.00, -1.00, 459.1, 584.0)">i</text><text xml:space="preserve" font-family="Georgia" font-size="28.0" fill="#000000" transform="matrix(1.00, 0.00, -0.00, -1.00, 467.3, 584.0)">s</text><text xml:space="preserve" font-family="Georgia" font-size="28.0" fill="#000000" transform="matrix(1.00, 0.00, -0.00, -1.00, 479.4, 584.0)">t</text><text xml:space="preserve" font-family="Georgia" font-size="28.0" fill="#000000" transform="matrix(1.00, 0.00, -0.00, -1.00, 489.1, 584.0)">e</text><text xml:space="preserve" font-family="Georgia" font-size="28.0" fill="#000000" transform="matrix(1.00, 0.00, -0.00, -1.00, 502.6, 584.0)">n</text><text xml:space="preserve" font-family="Georgia" font-size="28.0" fill="#000000" transform="matrix(1.00, 0.00, -0.00, -1.00, 519.2, 584.0)">t</text><text xml:space="preserve" font-family="Georgia" font-size="28.0" fill="#000000" transform="matrix(1.00, 0.00, -0.00, -1.00, 168.0, 584.0)">d</text><text xml:space="preserve" font-family="Georgia" font-size="28.0" fill="#000000" transform="matrix(1.00, 0.00, -0.00, -1.00, 184.1, 584.0)">e</text><text xml:space="preserve" font-family="Georgia" font-size="28.0" fill="#000000" transform="matrix(1.00, 0.00, -0.00, -1.00, 197.6, 584.0)">c</text><text xml:space="preserve" font-family="Georgia" font-size="28.0" fill="#000000" transform="matrix(1.00, 0.00, -0.00, -1.00, 210.3, 584.0)">l</text><text xml:space="preserve" font-family="Georgia" font-size="28.0" fill="#000000" transform="matrix(1.00, 0.00, -0.00, -1.00, 218.4, 584.0)">i</text><text xml:space="preserve" font-family="Georgia" font-size="28.0" fill="#000000" transform="matrix(1.00, 0.00, -0.00, -1.00, 226.6, 584.0)">n</text><text xml:space="preserve" font-family="Georgia" font-size="28.0" fill="#000000" transform="matrix(1.00, 0.00, -0.00, -1.00, 243.1, 584.0)">i</text><text xml:space="preserve" font-family="Georgia" font-size="28.0" fill="#000000" transform="matrix(1.00, 0.00, -0.00, -1.00, 251.3, 584.0)">n</text><text xml:space="preserve" font-family="Georgia" font-size="28.0" fill="#000000" transform="matrix(1.00, 0.00, -0.00, -1.00, 267.8, 584.0)">g</text><text xml:space="preserve" font-family="Georgia" font-size="38.0" fill="#FFA900" transform="matrix(1.00, 0.00, -0.00, -1.00, 69.0, 652.0)">D</text><text xml:space="preserve" font-family="Georgia" font-size="38.0" fill="#FFA900" transform="matrix(1.00, 0.00, -0.00, -1.00, 97.5, 652.0)">i</text><text xml:space="preserve" font-family="Georgia" font-size="38.0" fill="#FFA900" transform="matrix(1.00, 0.00, -0.00, -1.00, 108.6, 652.0)">f</text><text xml:space="preserve" font-family="Georgia" font-size="38.0" fill="#FFA900" transform="matrix(1.00, 0.00, -0.00, -1.00, 121.0, 652.0)">f</text><text xml:space="preserve" font-family="Georgia" font-size="38.0" fill="#FFA900" transform="matrix(1.00, 0.00, -0.00, -1.00, 133.3, 652.0)">e</text><text xml:space="preserve" font-family="Georgia" font-size="38.0" fill="#FFA900" transform="matrix(1.00, 0.00, -0.00, -1.00, 151.7, 652.0)">r</text><text xml:space="preserve" font-family="Georgia" font-size="38.0" fill="#FFA900" transform="matrix(1.00, 0.00, -0.00, -1.00, 167.3, 652.0)">e</text><text xml:space="preserve" font-family="Georgia" font-size="38.0" fill="#FFA900" transform="matrix(1.00, 0.00, -0.00, -1.00, 185.7, 652.0)">n</text><text xml:space="preserve" font-family="Georgia" font-size="38.0" fill="#FFA900" transform="matrix(1.00, 0.00, -0.00, -1.00, 208.1, 652.0)">t</text><text xml:space="preserve" font-family="Georgia" font-size="38.0" fill="#FFA900" transform="matrix(1.00, 0.00, -0.00, -1.00, 221.2, 652.0)"> </text><text xml:space="preserve" font-family="Georgia" font-size="38.0" fill="#FFA900" transform="matrix(1.00, 0.00, -0.00, -1.00, 230.4, 652.0)">r</text><text xml:space="preserve" font-family="Georgia" font-size="38.0" fill="#FFA900" transform="matrix(1.00, 0.00, -0.00, -1.00, 245.9, 652.0)">e</text><text xml:space="preserve" font-family="Georgia" font-size="38.0" fill="#FFA900" transform="matrix(1.00, 0.00, -0.00, -1.00, 264.3, 652.0)">s</text><text xml:space="preserve" font-family="Georgia" font-size="38.0" fill="#FFA900" transform="matrix(1.00, 0.00, -0.00, -1.00, 280.8, 652.0)">p</text><text xml:space="preserve" font-family="Georgia" font-size="38.0" fill="#FFA900" transform="matrix(1.00, 0.00, -0.00, -1.00, 302.5, 652.0)">o</text><text xml:space="preserve" font-family="Georgia" font-size="38.0" fill="#FFA900" transform="matrix(1.00, 0.00, -0.00, -1.00, 323.0, 652.0)">n</text><text xml:space="preserve" font-family="Georgia" font-size="38.0" fill="#FFA900" transform="matrix(1.00, 0.00, -0.00, -1.00, 345.4, 652.0)">s</text><text xml:space="preserve" font-family="Georgia" font-size="38.0" fill="#FFA900" transform="matrix(1.00, 0.00, -0.00, -1.00, 361.8, 652.0)">e</text><text xml:space="preserve" font-family="Georgia" font-size="38.0" fill="#FFA900" transform="matrix(1.00, 0.00, -0.00, -1.00, 380.2, 652.0)">s</text><text xml:space="preserve" font-family="Georgia" font-size="38.0" fill="#FFA900" transform="matrix(1.00, 0.00, -0.00, -1.00, 396.6, 652.0)"> </text><text xml:space="preserve" font-family="Georgia" font-size="38.0" fill="#FFA900" transform="matrix(1.00, 0.00, -0.00, -1.00, 405.8, 652.0)">t</text><text xml:space="preserve" font-family="Georgia" font-size="38.0" fill="#FFA900" transform="matrix(1.00, 0.00, -0.00, -1.00, 418.9, 652.0)">o</text><text xml:space="preserve" font-family="Georgia" font-size="38.0" fill="#FFA900" transform="matrix(1.00, 0.00, -0.00, -1.00, 439.4, 652.0)"> </text><text xml:space="preserve" font-family="Georgia" font-size="38.0" fill="#FFA900" transform="matrix(1.00, 0.00, -0.00, -1.00, 448.6, 652.0)">c</text><text xml:space="preserve" font-family="Georgia" font-size="38.0" fill="#FFA900" transform="matrix(1.00, 0.00, -0.00, -1.00, 465.9, 652.0)">h</text><text xml:space="preserve" font-family="Georgia" font-size="38.0" fill="#FFA900" transform="matrix(1.00, 0.00, -0.00, -1.00, 488.0, 652.0)">y</text><text xml:space="preserve" font-family="Georgia" font-size="38.0" fill="#FFA900" transform="matrix(1.00, 0.00, -0.00, -1.00, 506.7, 652.0)">t</text><text xml:space="preserve" font-family="Georgia" font-size="38.0" fill="#FFA900" transform="matrix(1.00, 0.00, -0.00, -1.00, 519.8, 652.0)">r</text><text xml:space="preserve" font-family="Georgia" font-size="38.0" fill="#FFA900" transform="matrix(1.00, 0.00, -0.00, -1.00, 535.4, 652.0)">i</text><text xml:space="preserve" font-family="Georgia" font-size="38.0" fill="#FFA900" transform="matrix(1.00, 0.00, -0.00, -1.00, 546.5, 652.0)">d</text><text xml:space="preserve" font-family="Georgia" font-size="38.0" fill="#FFA900" transform="matrix(1.00, 0.00, -0.00, -1.00, 568.3, 652.0)"> </text><text xml:space="preserve" font-family="Georgia" font-size="38.0" fill="#FFA900" transform="matrix(1.00, 0.00, -0.00, -1.00, 577.5, 652.0)">a</text><text xml:space="preserve" font-family="Georgia" font-size="38.0" fill="#FFA900" transform="matrix(1.00, 0.00, -0.00, -1.00, 596.7, 652.0)">m</text><text xml:space="preserve" font-family="Georgia" font-size="38.0" fill="#FFA900" transform="matrix(1.00, 0.00, -0.00, -1.00, 630.1, 652.0)">o</text><text xml:space="preserve" font-family="Georgia" font-size="38.0" fill="#FFA900" transform="matrix(1.00, 0.00, -0.00, -1.00, 650.6, 652.0)">n</text><text xml:space="preserve" font-family="Georgia" font-size="38.0" fill="#FFA900" transform="matrix(1.00, 0.00, -0.00, -1.00, 673.1, 652.0)">g</text><text xml:space="preserve" font-family="Georgia" font-size="38.0" fill="#FFA900" transform="matrix(1.00, 0.00, -0.00, -1.00, 692.4, 652.0)"> </text><text xml:space="preserve" font-family="Georgia" font-size="38.0" fill="#FFA900" transform="matrix(1.00, 0.00, -0.00, -1.00, 701.6, 652.0)">p</text><text xml:space="preserve" font-family="Georgia" font-size="38.0" fill="#FFA900" transform="matrix(1.00, 0.00, -0.00, -1.00, 723.3, 652.0)">o</text><text xml:space="preserve" font-family="Georgia" font-size="38.0" fill="#FFA900" transform="matrix(1.00, 0.00, -0.00, -1.00, 743.8, 652.0)">p</text><text xml:space="preserve" font-family="Georgia" font-size="38.0" fill="#FFA900" transform="matrix(1.00, 0.00, -0.00, -1.00, 765.5, 652.0)">u</text><text xml:space="preserve" font-family="Georgia" font-size="38.0" fill="#FFA900" transform="matrix(1.00, 0.00, -0.00, -1.00, 787.4, 652.0)">l</text><text xml:space="preserve" font-family="Georgia" font-size="38.0" fill="#FFA900" transform="matrix(1.00, 0.00, -0.00, -1.00, 798.3, 652.0)">a</text><text xml:space="preserve" font-family="Georgia" font-size="38.0" fill="#FFA900" transform="matrix(1.00, 0.00, -0.00, -1.00, 817.4, 652.0)">t</text><text xml:space="preserve" font-family="Georgia" font-size="38.0" fill="#FFA900" transform="matrix(1.00, 0.00, -0.00, -1.00, 830.5, 652.0)">i</text><text xml:space="preserve" font-family="Georgia" font-size="38.0" fill="#FFA900" transform="matrix(1.00, 0.00, -0.00, -1.00, 841.7, 652.0)">o</text><text xml:space="preserve" font-family="Georgia" font-size="38.0" fill="#FFA900" transform="matrix(1.00, 0.00, -0.00, -1.00, 862.2, 652.0)">n</text><text xml:space="preserve" font-family="Georgia" font-size="38.0" fill="#FFA900" transform="matrix(1.00, 0.00, -0.00, -1.00, 884.6, 652.0)">s</text></g></svg>