<?xml version="1.0" encoding="UTF-8" standalone="no"?><svg xmlns="http://www.w3.org/2000/svg" xmlns:xlink="http://www.w3.org/1999/xlink" clip-rule="evenodd" stroke-miterlimit="4.00" viewBox="0 0 720 540"><desc>SVG generated by Keynote</desc><defs></defs><g transform="matrix(1.00, 0.00, -0.00, -1.00, 0.0, 540.0)"><path d="M 0.0 540.0 L 720.0 540.0 L 720.0 0.0 L 0.0 0.0 Z M 0.0 540.0 " fill="#FEFFFF"></path><g><clipPath id="clip-128"><path d="M 360.0 24.0 L 720.0 24.0 L 720.0 540.0 L 360.0 540.0 Z M 360.0 24.0 "></path></clipPath><g clip-path="url(#clip-128)"><image xlink:href="../../D11F4E45-164F-4446-B199-7D0D4C64D2CC/assets/5AE5B874D671B7EE5785D2DEC32F0729.png" width="814.00" height="1166.00" transform="matrix(0.44, 0.00, -0.00, -0.44, 360.0, 540.0)"></image></g></g><image xlink:href="../../D11F4E45-164F-4446-B199-7D0D4C64D2CC/assets/2185DF1C3D1EE5A57950351B1603AE89.png" width="311.00" height="422.00" transform="matrix(1.07, 0.00, -0.00, -1.07, 18.0, 522.0)"></image><text xml:space="preserve" font-family="Arial-ItalicMT" font-style="italic" font-size="18.0" fill="#000000" transform="matrix(1.00, 0.00, -0.00, -1.00, 91.0, 39.0)">P</text><text xml:space="preserve" font-family="Arial-ItalicMT" font-style="italic" font-size="18.0" fill="#000000" transform="matrix(1.00, 0.00, -0.00, -1.00, 103.0, 39.0)">h</text><text xml:space="preserve" font-family="Arial-ItalicMT" font-style="italic" font-size="18.0" fill="#000000" transform="matrix(1.00, 0.00, -0.00, -1.00, 113.0, 39.0)">r</text><text xml:space="preserve" font-family="Arial-ItalicMT" font-style="italic" font-size="18.0" fill="#000000" transform="matrix(1.00, 0.00, -0.00, -1.00, 119.0, 39.0)">y</text><text xml:space="preserve" font-family="Arial-ItalicMT" font-style="italic" font-size="18.0" fill="#000000" transform="matrix(1.00, 0.00, -0.00, -1.00, 128.0, 39.0)">n</text><text xml:space="preserve" font-family="Arial-ItalicMT" font-style="italic" font-size="18.0" fill="#000000" transform="matrix(1.00, 0.00, -0.00, -1.00, 138.0, 39.0)">o</text><text xml:space="preserve" font-family="Arial-ItalicMT" font-style="italic" font-size="18.0" fill="#000000" transform="matrix(1.00, 0.00, -0.00, -1.00, 148.0, 39.0)">s</text><text xml:space="preserve" font-family="Arial-ItalicMT" font-style="italic" font-size="18.0" fill="#000000" transform="matrix(1.00, 0.00, -0.00, -1.00, 157.0, 39.0)">o</text><text xml:space="preserve" font-family="Arial-ItalicMT" font-style="italic" font-size="18.0" fill="#000000" transform="matrix(1.00, 0.00, -0.00, -1.00, 167.1, 39.0)">m</text><text xml:space="preserve" font-family="Arial-ItalicMT" font-style="italic" font-size="18.0" fill="#000000" transform="matrix(1.00, 0.00, -0.00, -1.00, 182.1, 39.0)">a</text><text xml:space="preserve" font-family="Arial-ItalicMT" font-style="italic" font-size="18.0" fill="#000000" transform="matrix(1.00, 0.00, -0.00, -1.00, 192.1, 39.0)"> </text><text xml:space="preserve" font-family="Arial-ItalicMT" font-style="italic" font-size="18.0" fill="#000000" transform="matrix(1.00, 0.00, -0.00, -1.00, 197.1, 39.0)">m</text><text xml:space="preserve" font-family="Arial-ItalicMT" font-style="italic" font-size="18.0" fill="#000000" transform="matrix(1.00, 0.00, -0.00, -1.00, 212.1, 39.0)">c</text><text xml:space="preserve" font-family="Arial-ItalicMT" font-style="italic" font-size="18.0" fill="#000000" transform="matrix(1.00, 0.00, -0.00, -1.00, 221.1, 39.0)">a</text><text xml:space="preserve" font-family="Arial-ItalicMT" font-style="italic" font-size="18.0" fill="#000000" transform="matrix(1.00, 0.00, -0.00, -1.00, 231.1, 39.0)">l</text><text xml:space="preserve" font-family="Arial-ItalicMT" font-style="italic" font-size="18.0" fill="#000000" transform="matrix(1.00, 0.00, -0.00, -1.00, 235.1, 39.0)">l</text><text xml:space="preserve" font-family="Arial-ItalicMT" font-style="italic" font-size="18.0" fill="#000000" transform="matrix(1.00, 0.00, -0.00, -1.00, 239.1, 39.0)">i</text></g></svg>