<?xml version="1.0" encoding="UTF-8" standalone="no"?><svg xmlns="http://www.w3.org/2000/svg" xmlns:xlink="http://www.w3.org/1999/xlink" clip-rule="evenodd" stroke-miterlimit="4.00" viewBox="0 0 1024 768"><desc>SVG generated by Keynote</desc><defs></defs><g transform="matrix(1.00, 0.00, -0.00, -1.00, 0.0, 768.0)"><g><clipPath id="clip-416"><path d="M 0.0 768.0 L 1024.0 768.0 L 1024.0 0.0 L 0.0 0.0 Z M 0.0 768.0 "></path></clipPath><g clip-path="url(#clip-416)"><image xlink:href="../../C9BB2F21-7097-4279-8A02-40FCEE817F8A/assets/5E504543DA7BCE62C2A0475F0A9742EF.jpeg" width="1365.00" height="767.00" transform="matrix(2.81, 0.00, -0.00, -2.82, -1408.0, 1464.0)"></image></g></g><path d="M 0.0 0.0 L 980.0 0.0 L 980.0 726.0 L 0.0 726.0 Z M 0.0 0.0 " fill="none" stroke="#A2A0A6" stroke-width="2.00" transform="matrix(1.00, 0.00, 0.00, -1.00, 22.3, 746.0)"></path><path d="M 0.0 0.0 L 981.1 0.0 " fill="none" stroke="#A2A0A6" stroke-width="2.00" transform="matrix(1.00, 0.00, 0.00, -1.00, 21.9, 110.0)"></path><g><clipPath id="clip-417"><path d="M 0.0 768.0 L 1024.0 768.0 L 1024.0 0.0 L 0.0 0.0 Z M 0.0 768.0 "></path></clipPath><g clip-path="url(#clip-417)"><image xlink:href="../../C9BB2F21-7097-4279-8A02-40FCEE817F8A/assets/5E504543DA7BCE62C2A0475F0A9742EF.jpeg" width="1365.00" height="767.00" transform="matrix(2.81, 0.00, -0.00, -2.82, -1408.0, 1464.0)"></image></g></g><path d="M 0.0 0.0 L 1024.0 0.0 L 1024.0 768.0 L 0.0 768.0 Z M 0.0 0.0 " fill="none" stroke="#000000" stroke-width="1.00" transform="matrix(1.00, 0.00, 0.00, -1.00, 0.0, 768.0)"></path><path d="M 0.0 0.0 L 980.0 0.0 L 980.0 726.0 L 0.0 726.0 Z M 0.0 0.0 " fill="none" stroke="#A2A0A6" stroke-width="2.00" transform="matrix(1.00, 0.00, 0.00, -1.00, 22.3, 746.0)"></path><path d="M 0.0 0.0 L 981.1 0.0 " fill="none" stroke="#A2A0A6" stroke-width="2.00" transform="matrix(1.00, 0.00, 0.00, -1.00, 21.9, 110.0)"></path><g><clipPath id="clip-418"><path d="M 677.0 425.0 L 995.0 425.0 L 995.0 117.0 L 677.0 117.0 Z M 677.0 425.0 "></path></clipPath><g clip-path="url(#clip-418)"><image xlink:href="481363D763A4A8B7EF4C40D646825AA7.png" width="200.00" height="142.00" transform="matrix(2.17, 0.00, -0.00, -2.17, 619.0, 425.0)"></image></g></g><g><clipPath id="clip-419"><path d="M 29.0 739.0 L 670.0 739.0 L 670.0 117.0 L 29.0 117.0 Z M 29.0 739.0 "></path></clipPath><g clip-path="url(#clip-419)"><image xlink:href="A1F24AD29B4E5917213D0FC966F59908.png" width="559.00" height="431.00" transform="matrix(1.16, 0.00, -0.00, -1.16, 25.0, 678.0)"></image></g></g><g><clipPath id="clip-420"><path d="M 677.0 739.0 L 995.0 739.0 L 995.0 431.0 L 677.0 431.0 Z M 677.0 739.0 "></path></clipPath><g clip-path="url(#clip-420)"><image xlink:href="F77B7CE786DC3092059211D3D4053AE1.png" width="384.00" height="290.00" transform="matrix(1.00, 0.00, -0.00, -1.00, 644.0, 730.0)"></image></g></g><text xml:space="preserve" font-family="HelveticaNeue-CondensedBold" font-weight="bold" font-size="37.8" fill="#DDDCDE" transform="matrix(1.00, 0.00, -0.00, -1.00, 33.0, 69.0)">~</text><text xml:space="preserve" font-family="HelveticaNeue-CondensedBold" font-weight="bold" font-size="37.8" fill="#DDDCDE" transform="matrix(1.00, 0.00, -0.00, -1.00, 55.7, 69.0)">1</text><text xml:space="preserve" font-family="HelveticaNeue-CondensedBold" font-weight="bold" font-size="37.8" fill="#DDDCDE" transform="matrix(1.00, 0.00, -0.00, -1.00, 73.8, 69.0)">6</text><text xml:space="preserve" font-family="HelveticaNeue-CondensedBold" font-weight="bold" font-size="37.8" fill="#DDDCDE" transform="matrix(1.00, 0.00, -0.00, -1.00, 92.0, 69.0)">0</text><text xml:space="preserve" font-family="HelveticaNeue-CondensedBold" font-weight="bold" font-size="37.8" fill="#DDDCDE" transform="matrix(1.00, 0.00, -0.00, -1.00, 110.1, 69.0)"> </text><text xml:space="preserve" font-family="HelveticaNeue-CondensedBold" font-weight="bold" font-size="37.8" fill="#DDDCDE" transform="matrix(1.00, 0.00, -0.00, -1.00, 119.2, 69.0)">S</text><text xml:space="preserve" font-family="HelveticaNeue-CondensedBold" font-weight="bold" font-size="37.8" fill="#DDDCDE" transform="matrix(1.00, 0.00, -0.00, -1.00, 138.8, 69.0)">P</text><text xml:space="preserve" font-family="HelveticaNeue-CondensedBold" font-weight="bold" font-size="37.8" fill="#DDDCDE" transform="matrix(1.00, 0.00, -0.00, -1.00, 158.4, 69.0)">E</text><text xml:space="preserve" font-family="HelveticaNeue-CondensedBold" font-weight="bold" font-size="37.8" fill="#DDDCDE" transform="matrix(1.00, 0.00, -0.00, -1.00, 176.6, 69.0)">C</text><text xml:space="preserve" font-family="HelveticaNeue-CondensedBold" font-weight="bold" font-size="37.8" fill="#DDDCDE" transform="matrix(1.00, 0.00, -0.00, -1.00, 196.9, 69.0)">I</text><text xml:space="preserve" font-family="HelveticaNeue-CondensedBold" font-weight="bold" font-size="37.8" fill="#DDDCDE" transform="matrix(1.00, 0.00, -0.00, -1.00, 206.7, 69.0)">E</text><text xml:space="preserve" font-family="HelveticaNeue-CondensedBold" font-weight="bold" font-size="37.8" fill="#DDDCDE" transform="matrix(1.00, 0.00, -0.00, -1.00, 224.8, 69.0)">S</text><text xml:space="preserve" font-family="HelveticaNeue-CondensedBold" font-weight="bold" font-size="37.8" fill="#DDDCDE" transform="matrix(1.00, 0.00, -0.00, -1.00, 244.5, 69.0)"> </text><text xml:space="preserve" font-family="HelveticaNeue-CondensedBold" font-weight="bold" font-size="37.8" fill="#DDDCDE" transform="matrix(1.00, 0.00, -0.00, -1.00, 252.1, 69.0)">A</text><text xml:space="preserve" font-family="HelveticaNeue-CondensedBold" font-weight="bold" font-size="37.8" fill="#DDDCDE" transform="matrix(1.00, 0.00, -0.00, -1.00, 273.1, 69.0)">L</text><text xml:space="preserve" font-family="HelveticaNeue-CondensedBold" font-weight="bold" font-size="37.8" fill="#DDDCDE" transform="matrix(1.00, 0.00, -0.00, -1.00, 290.6, 69.0)">R</text><text xml:space="preserve" font-family="HelveticaNeue-CondensedBold" font-weight="bold" font-size="37.8" fill="#DDDCDE" transform="matrix(1.00, 0.00, -0.00, -1.00, 311.7, 69.0)">E</text><text xml:space="preserve" font-family="HelveticaNeue-CondensedBold" font-weight="bold" font-size="37.8" fill="#DDDCDE" transform="matrix(1.00, 0.00, -0.00, -1.00, 329.8, 69.0)">A</text><text xml:space="preserve" font-family="HelveticaNeue-CondensedBold" font-weight="bold" font-size="37.8" fill="#DDDCDE" transform="matrix(1.00, 0.00, -0.00, -1.00, 350.9, 69.0)">D</text><text xml:space="preserve" font-family="HelveticaNeue-CondensedBold" font-weight="bold" font-size="37.8" fill="#DDDCDE" transform="matrix(1.00, 0.00, -0.00, -1.00, 371.8, 69.0)">Y</text><text xml:space="preserve" font-family="HelveticaNeue-CondensedBold" font-weight="bold" font-size="37.8" fill="#DDDCDE" transform="matrix(1.00, 0.00, -0.00, -1.00, 391.5, 69.0)"> </text><text xml:space="preserve" font-family="HelveticaNeue-CondensedBold" font-weight="bold" font-size="37.8" fill="#DDDCDE" transform="matrix(1.00, 0.00, -0.00, -1.00, 400.5, 69.0)">E</text><text xml:space="preserve" font-family="HelveticaNeue-CondensedBold" font-weight="bold" font-size="37.8" fill="#DDDCDE" transform="matrix(1.00, 0.00, -0.00, -1.00, 418.7, 69.0)">X</text><text xml:space="preserve" font-family="HelveticaNeue-CondensedBold" font-weight="bold" font-size="37.8" fill="#DDDCDE" transform="matrix(1.00, 0.00, -0.00, -1.00, 439.0, 69.0)">T</text><text xml:space="preserve" font-family="HelveticaNeue-CondensedBold" font-weight="bold" font-size="37.8" fill="#DDDCDE" transform="matrix(1.00, 0.00, -0.00, -1.00, 457.2, 69.0)">I</text><text xml:space="preserve" font-family="HelveticaNeue-CondensedBold" font-weight="bold" font-size="37.8" fill="#DDDCDE" transform="matrix(1.00, 0.00, -0.00, -1.00, 466.9, 69.0)">N</text><text xml:space="preserve" font-family="HelveticaNeue-CondensedBold" font-weight="bold" font-size="37.8" fill="#DDDCDE" transform="matrix(1.00, 0.00, -0.00, -1.00, 488.6, 69.0)">C</text><text xml:space="preserve" font-family="HelveticaNeue-CondensedBold" font-weight="bold" font-size="37.8" fill="#DDDCDE" transform="matrix(1.00, 0.00, -0.00, -1.00, 508.9, 69.0)">T</text><text xml:space="preserve" font-family="HelveticaNeue-CondensedBold" font-weight="bold" font-size="21.1" fill="#6596B5" transform="matrix(1.00, 0.00, -0.00, -1.00, 33.0, 33.0)">(</text><text xml:space="preserve" font-family="HelveticaNeue-CondensedBold" font-weight="bold" font-size="21.1" fill="#6596B5" transform="matrix(1.00, 0.00, -0.00, -1.00, 39.3, 33.0)">T</text><text xml:space="preserve" font-family="HelveticaNeue-CondensedBold" font-weight="bold" font-size="21.1" fill="#6596B5" transform="matrix(1.00, 0.00, -0.00, -1.00, 49.4, 33.0)">H</text><text xml:space="preserve" font-family="HelveticaNeue-CondensedBold" font-weight="bold" font-size="21.1" fill="#6596B5" transform="matrix(1.00, 0.00, -0.00, -1.00, 61.1, 33.0)">A</text><text xml:space="preserve" font-family="HelveticaNeue-CondensedBold" font-weight="bold" font-size="21.1" fill="#6596B5" transform="matrix(1.00, 0.00, -0.00, -1.00, 71.7, 33.0)">T</text><text xml:space="preserve" font-family="HelveticaNeue-CondensedBold" font-weight="bold" font-size="21.1" fill="#6596B5" transform="matrix(1.00, 0.00, -0.00, -1.00, 81.9, 33.0)"> </text><text xml:space="preserve" font-family="HelveticaNeue-CondensedBold" font-weight="bold" font-size="21.1" fill="#6596B5" transform="matrix(1.00, 0.00, -0.00, -1.00, 86.1, 33.0)">W</text><text xml:space="preserve" font-family="HelveticaNeue-CondensedBold" font-weight="bold" font-size="21.1" fill="#6596B5" transform="matrix(1.00, 0.00, -0.00, -1.00, 102.2, 33.0)">E</text><text xml:space="preserve" font-family="HelveticaNeue-CondensedBold" font-weight="bold" font-size="21.1" fill="#6596B5" transform="matrix(1.00, 0.00, -0.00, -1.00, 112.3, 33.0)"> </text><text xml:space="preserve" font-family="HelveticaNeue-CondensedBold" font-weight="bold" font-size="21.1" fill="#6596B5" transform="matrix(1.00, 0.00, -0.00, -1.00, 117.4, 33.0)">K</text><text xml:space="preserve" font-family="HelveticaNeue-CondensedBold" font-weight="bold" font-size="21.1" fill="#6596B5" transform="matrix(1.00, 0.00, -0.00, -1.00, 128.8, 33.0)">N</text><text xml:space="preserve" font-family="HelveticaNeue-CondensedBold" font-weight="bold" font-size="21.1" fill="#6596B5" transform="matrix(1.00, 0.00, -0.00, -1.00, 140.9, 33.0)">O</text><text xml:space="preserve" font-family="HelveticaNeue-CondensedBold" font-weight="bold" font-size="21.1" fill="#6596B5" transform="matrix(1.00, 0.00, -0.00, -1.00, 152.6, 33.0)">W</text><text xml:space="preserve" font-family="HelveticaNeue-CondensedBold" font-weight="bold" font-size="21.1" fill="#6596B5" transform="matrix(1.00, 0.00, -0.00, -1.00, 168.7, 33.0)"> </text><text xml:space="preserve" font-family="HelveticaNeue-CondensedBold" font-weight="bold" font-size="21.1" fill="#6596B5" transform="matrix(1.00, 0.00, -0.00, -1.00, 173.0, 33.0)">A</text><text xml:space="preserve" font-family="HelveticaNeue-CondensedBold" font-weight="bold" font-size="21.1" fill="#6596B5" transform="matrix(1.00, 0.00, -0.00, -1.00, 184.7, 33.0)">B</text><text xml:space="preserve" font-family="HelveticaNeue-CondensedBold" font-weight="bold" font-size="21.1" fill="#6596B5" transform="matrix(1.00, 0.00, -0.00, -1.00, 196.4, 33.0)">O</text><text xml:space="preserve" font-family="HelveticaNeue-CondensedBold" font-weight="bold" font-size="21.1" fill="#6596B5" transform="matrix(1.00, 0.00, -0.00, -1.00, 208.2, 33.0)">U</text><text xml:space="preserve" font-family="HelveticaNeue-CondensedBold" font-weight="bold" font-size="21.1" fill="#6596B5" transform="matrix(1.00, 0.00, -0.00, -1.00, 219.6, 33.0)">T</text><text xml:space="preserve" font-family="HelveticaNeue-CondensedBold" font-weight="bold" font-size="21.1" fill="#6596B5" transform="matrix(1.00, 0.00, -0.00, -1.00, 229.7, 33.0)">)</text><text xml:space="preserve" font-family="HelveticaNeue-CondensedBold" font-weight="bold" font-size="32.0" fill="#5B88A5" transform="matrix(1.00, 0.00, -0.00, -1.00, 137.0, 701.0)">R</text><text xml:space="preserve" font-family="HelveticaNeue-CondensedBold" font-weight="bold" font-size="32.0" fill="#5B88A5" transform="matrix(1.00, 0.00, -0.00, -1.00, 154.8, 701.0)">E</text><text xml:space="preserve" font-family="HelveticaNeue-CondensedBold" font-weight="bold" font-size="32.0" fill="#5B88A5" transform="matrix(1.00, 0.00, -0.00, -1.00, 170.2, 701.0)">D</text><text xml:space="preserve" font-family="HelveticaNeue-CondensedBold" font-weight="bold" font-size="32.0" fill="#5B88A5" transform="matrix(1.00, 0.00, -0.00, -1.00, 188.6, 701.0)"> </text><text xml:space="preserve" font-family="HelveticaNeue-CondensedBold" font-weight="bold" font-size="32.0" fill="#5B88A5" transform="matrix(1.00, 0.00, -0.00, -1.00, 196.2, 701.0)">L</text><text xml:space="preserve" font-family="HelveticaNeue-CondensedBold" font-weight="bold" font-size="32.0" fill="#5B88A5" transform="matrix(1.00, 0.00, -0.00, -1.00, 211.0, 701.0)">I</text><text xml:space="preserve" font-family="HelveticaNeue-CondensedBold" font-weight="bold" font-size="32.0" fill="#5B88A5" transform="matrix(1.00, 0.00, -0.00, -1.00, 219.3, 701.0)">S</text><text xml:space="preserve" font-family="HelveticaNeue-CondensedBold" font-weight="bold" font-size="32.0" fill="#5B88A5" transform="matrix(1.00, 0.00, -0.00, -1.00, 235.9, 701.0)">T</text><text xml:space="preserve" font-family="HelveticaNeue-CondensedBold" font-weight="bold" font-size="32.0" fill="#5B88A5" transform="matrix(1.00, 0.00, -0.00, -1.00, 251.3, 701.0)"> </text><text xml:space="preserve" font-family="HelveticaNeue-CondensedBold" font-weight="bold" font-size="32.0" fill="#5B88A5" transform="matrix(1.00, 0.00, -0.00, -1.00, 259.0, 701.0)">S</text><text xml:space="preserve" font-family="HelveticaNeue-CondensedBold" font-weight="bold" font-size="32.0" fill="#5B88A5" transform="matrix(1.00, 0.00, -0.00, -1.00, 275.6, 701.0)">T</text><text xml:space="preserve" font-family="HelveticaNeue-CondensedBold" font-weight="bold" font-size="32.0" fill="#5B88A5" transform="matrix(1.00, 0.00, -0.00, -1.00, 289.2, 701.0)">A</text><text xml:space="preserve" font-family="HelveticaNeue-CondensedBold" font-weight="bold" font-size="32.0" fill="#5B88A5" transform="matrix(1.00, 0.00, -0.00, -1.00, 305.2, 701.0)">T</text><text xml:space="preserve" font-family="HelveticaNeue-CondensedBold" font-weight="bold" font-size="32.0" fill="#5B88A5" transform="matrix(1.00, 0.00, -0.00, -1.00, 320.6, 701.0)">U</text><text xml:space="preserve" font-family="HelveticaNeue-CondensedBold" font-weight="bold" font-size="32.0" fill="#5B88A5" transform="matrix(1.00, 0.00, -0.00, -1.00, 337.8, 701.0)">S</text><text xml:space="preserve" font-family="HelveticaNeue-CondensedBold" font-weight="bold" font-size="32.0" fill="#5B88A5" transform="matrix(1.00, 0.00, -0.00, -1.00, 354.4, 701.0)"> </text><text xml:space="preserve" font-family="HelveticaNeue-CondensedBold" font-weight="bold" font-size="32.0" fill="#5B88A5" transform="matrix(1.00, 0.00, -0.00, -1.00, 362.1, 701.0)">O</text><text xml:space="preserve" font-family="HelveticaNeue-CondensedBold" font-weight="bold" font-size="32.0" fill="#5B88A5" transform="matrix(1.00, 0.00, -0.00, -1.00, 379.8, 701.0)">F</text><text xml:space="preserve" font-family="HelveticaNeue-CondensedBold" font-weight="bold" font-size="32.0" fill="#5B88A5" transform="matrix(1.00, 0.00, -0.00, -1.00, 394.7, 701.0)"> </text><text xml:space="preserve" font-family="HelveticaNeue-CondensedBold" font-weight="bold" font-size="32.0" fill="#5B88A5" transform="matrix(1.00, 0.00, -0.00, -1.00, 401.2, 701.0)">A</text><text xml:space="preserve" font-family="HelveticaNeue-CondensedBold" font-weight="bold" font-size="32.0" fill="#5B88A5" transform="matrix(1.00, 0.00, -0.00, -1.00, 419.0, 701.0)">M</text><text xml:space="preserve" font-family="HelveticaNeue-CondensedBold" font-weight="bold" font-size="32.0" fill="#5B88A5" transform="matrix(1.00, 0.00, -0.00, -1.00, 442.6, 701.0)">P</text><text xml:space="preserve" font-family="HelveticaNeue-CondensedBold" font-weight="bold" font-size="32.0" fill="#5B88A5" transform="matrix(1.00, 0.00, -0.00, -1.00, 459.2, 701.0)">H</text><text xml:space="preserve" font-family="HelveticaNeue-CondensedBold" font-weight="bold" font-size="32.0" fill="#5B88A5" transform="matrix(1.00, 0.00, -0.00, -1.00, 477.0, 701.0)">I</text><text xml:space="preserve" font-family="HelveticaNeue-CondensedBold" font-weight="bold" font-size="32.0" fill="#5B88A5" transform="matrix(1.00, 0.00, -0.00, -1.00, 485.3, 701.0)">B</text><text xml:space="preserve" font-family="HelveticaNeue-CondensedBold" font-weight="bold" font-size="32.0" fill="#5B88A5" transform="matrix(1.00, 0.00, -0.00, -1.00, 503.1, 701.0)">I</text><text xml:space="preserve" font-family="HelveticaNeue-CondensedBold" font-weight="bold" font-size="32.0" fill="#5B88A5" transform="matrix(1.00, 0.00, -0.00, -1.00, 511.3, 701.0)">A</text><text xml:space="preserve" font-family="HelveticaNeue-CondensedBold" font-weight="bold" font-size="32.0" fill="#5B88A5" transform="matrix(1.00, 0.00, -0.00, -1.00, 529.1, 701.0)">N</text><text xml:space="preserve" font-family="HelveticaNeue-CondensedBold" font-weight="bold" font-size="32.0" fill="#5B88A5" transform="matrix(1.00, 0.00, -0.00, -1.00, 547.5, 701.0)">S</text><text xml:space="preserve" font-family="HelveticaNeue-CondensedBold" font-weight="bold" font-size="24.0" fill="#000000" transform="matrix(1.00, 0.00, -0.00, -1.00, 722.0, 464.0)">R</text><text xml:space="preserve" font-family="HelveticaNeue-CondensedBold" font-weight="bold" font-size="24.0" fill="#000000" transform="matrix(1.00, 0.00, -0.00, -1.00, 735.3, 464.0)">H</text><text xml:space="preserve" font-family="HelveticaNeue-CondensedBold" font-weight="bold" font-size="24.0" fill="#000000" transform="matrix(1.00, 0.00, -0.00, -1.00, 748.7, 464.0)">E</text><text xml:space="preserve" font-family="HelveticaNeue-CondensedBold" font-weight="bold" font-size="24.0" fill="#000000" transform="matrix(1.00, 0.00, -0.00, -1.00, 760.2, 464.0)">O</text><text xml:space="preserve" font-family="HelveticaNeue-CondensedBold" font-weight="bold" font-size="24.0" fill="#000000" transform="matrix(1.00, 0.00, -0.00, -1.00, 773.6, 464.0)">B</text><text xml:space="preserve" font-family="HelveticaNeue-CondensedBold" font-weight="bold" font-size="24.0" fill="#000000" transform="matrix(1.00, 0.00, -0.00, -1.00, 786.9, 464.0)">A</text><text xml:space="preserve" font-family="HelveticaNeue-CondensedBold" font-weight="bold" font-size="24.0" fill="#000000" transform="matrix(1.00, 0.00, -0.00, -1.00, 798.9, 464.0)">T</text><text xml:space="preserve" font-family="HelveticaNeue-CondensedBold" font-weight="bold" font-size="24.0" fill="#000000" transform="matrix(1.00, 0.00, -0.00, -1.00, 810.5, 464.0)">R</text><text xml:space="preserve" font-family="HelveticaNeue-CondensedBold" font-weight="bold" font-size="24.0" fill="#000000" transform="matrix(1.00, 0.00, -0.00, -1.00, 823.8, 464.0)">A</text><text xml:space="preserve" font-family="HelveticaNeue-CondensedBold" font-weight="bold" font-size="24.0" fill="#000000" transform="matrix(1.00, 0.00, -0.00, -1.00, 837.2, 464.0)">C</text><text xml:space="preserve" font-family="HelveticaNeue-CondensedBold" font-weight="bold" font-size="24.0" fill="#000000" transform="matrix(1.00, 0.00, -0.00, -1.00, 850.0, 464.0)">H</text><text xml:space="preserve" font-family="HelveticaNeue-CondensedBold" font-weight="bold" font-size="24.0" fill="#000000" transform="matrix(1.00, 0.00, -0.00, -1.00, 863.4, 464.0)">U</text><text xml:space="preserve" font-family="HelveticaNeue-CondensedBold" font-weight="bold" font-size="24.0" fill="#000000" transform="matrix(1.00, 0.00, -0.00, -1.00, 876.3, 464.0)">S</text><text xml:space="preserve" font-family="HelveticaNeue-CondensedBold" font-weight="bold" font-size="24.0" fill="#000000" transform="matrix(1.00, 0.00, -0.00, -1.00, 888.8, 464.0)"> </text><text xml:space="preserve" font-family="HelveticaNeue-CondensedBold" font-weight="bold" font-size="24.0" fill="#000000" transform="matrix(1.00, 0.00, -0.00, -1.00, 894.5, 464.0)">S</text><text xml:space="preserve" font-family="HelveticaNeue-CondensedBold" font-weight="bold" font-size="24.0" fill="#000000" transform="matrix(1.00, 0.00, -0.00, -1.00, 907.0, 464.0)">I</text><text xml:space="preserve" font-family="HelveticaNeue-CondensedBold" font-weight="bold" font-size="24.0" fill="#000000" transform="matrix(1.00, 0.00, -0.00, -1.00, 913.2, 464.0)">L</text><text xml:space="preserve" font-family="HelveticaNeue-CondensedBold" font-weight="bold" font-size="24.0" fill="#000000" transform="matrix(1.00, 0.00, -0.00, -1.00, 924.3, 464.0)">U</text><text xml:space="preserve" font-family="HelveticaNeue-CondensedBold" font-weight="bold" font-size="24.0" fill="#000000" transform="matrix(1.00, 0.00, -0.00, -1.00, 937.2, 464.0)">S</text><text xml:space="preserve" font-family="HelveticaNeue-CondensedBold" font-weight="bold" font-size="24.0" fill="#000000" transform="matrix(1.00, 0.00, -0.00, -1.00, 695.0, 133.0)">D</text><text xml:space="preserve" font-family="HelveticaNeue-CondensedBold" font-weight="bold" font-size="24.0" fill="#000000" transform="matrix(1.00, 0.00, -0.00, -1.00, 708.8, 133.0)">I</text><text xml:space="preserve" font-family="HelveticaNeue-CondensedBold" font-weight="bold" font-size="24.0" fill="#000000" transform="matrix(1.00, 0.00, -0.00, -1.00, 715.0, 133.0)">S</text><text xml:space="preserve" font-family="HelveticaNeue-CondensedBold" font-weight="bold" font-size="24.0" fill="#000000" transform="matrix(1.00, 0.00, -0.00, -1.00, 727.4, 133.0)">C</text><text xml:space="preserve" font-family="HelveticaNeue-CondensedBold" font-weight="bold" font-size="24.0" fill="#000000" transform="matrix(1.00, 0.00, -0.00, -1.00, 740.3, 133.0)">O</text><text xml:space="preserve" font-family="HelveticaNeue-CondensedBold" font-weight="bold" font-size="24.0" fill="#000000" transform="matrix(1.00, 0.00, -0.00, -1.00, 753.7, 133.0)">G</text><text xml:space="preserve" font-family="HelveticaNeue-CondensedBold" font-weight="bold" font-size="24.0" fill="#000000" transform="matrix(1.00, 0.00, -0.00, -1.00, 767.0, 133.0)">L</text><text xml:space="preserve" font-family="HelveticaNeue-CondensedBold" font-weight="bold" font-size="24.0" fill="#000000" transform="matrix(1.00, 0.00, -0.00, -1.00, 778.1, 133.0)">O</text><text xml:space="preserve" font-family="HelveticaNeue-CondensedBold" font-weight="bold" font-size="24.0" fill="#000000" transform="matrix(1.00, 0.00, -0.00, -1.00, 791.5, 133.0)">S</text><text xml:space="preserve" font-family="HelveticaNeue-CondensedBold" font-weight="bold" font-size="24.0" fill="#000000" transform="matrix(1.00, 0.00, -0.00, -1.00, 803.9, 133.0)">S</text><text xml:space="preserve" font-family="HelveticaNeue-CondensedBold" font-weight="bold" font-size="24.0" fill="#000000" transform="matrix(1.00, 0.00, -0.00, -1.00, 816.4, 133.0)">U</text><text xml:space="preserve" font-family="HelveticaNeue-CondensedBold" font-weight="bold" font-size="24.0" fill="#000000" transform="matrix(1.00, 0.00, -0.00, -1.00, 829.3, 133.0)">S</text><text xml:space="preserve" font-family="HelveticaNeue-CondensedBold" font-weight="bold" font-size="24.0" fill="#000000" transform="matrix(1.00, 0.00, -0.00, -1.00, 841.7, 133.0)"> </text><text xml:space="preserve" font-family="HelveticaNeue-CondensedBold" font-weight="bold" font-size="24.0" fill="#000000" transform="matrix(1.00, 0.00, -0.00, -1.00, 847.5, 133.0)">N</text><text xml:space="preserve" font-family="HelveticaNeue-CondensedBold" font-weight="bold" font-size="24.0" fill="#000000" transform="matrix(1.00, 0.00, -0.00, -1.00, 861.3, 133.0)">I</text><text xml:space="preserve" font-family="HelveticaNeue-CondensedBold" font-weight="bold" font-size="24.0" fill="#000000" transform="matrix(1.00, 0.00, -0.00, -1.00, 867.5, 133.0)">G</text><text xml:space="preserve" font-family="HelveticaNeue-CondensedBold" font-weight="bold" font-size="24.0" fill="#000000" transform="matrix(1.00, 0.00, -0.00, -1.00, 880.8, 133.0)">R</text><text xml:space="preserve" font-family="HelveticaNeue-CondensedBold" font-weight="bold" font-size="24.0" fill="#000000" transform="matrix(1.00, 0.00, -0.00, -1.00, 894.2, 133.0)">I</text><text xml:space="preserve" font-family="HelveticaNeue-CondensedBold" font-weight="bold" font-size="24.0" fill="#000000" transform="matrix(1.00, 0.00, -0.00, -1.00, 900.3, 133.0)">V</text><text xml:space="preserve" font-family="HelveticaNeue-CondensedBold" font-weight="bold" font-size="24.0" fill="#000000" transform="matrix(1.00, 0.00, -0.00, -1.00, 912.8, 133.0)">E</text><text xml:space="preserve" font-family="HelveticaNeue-CondensedBold" font-weight="bold" font-size="24.0" fill="#000000" transform="matrix(1.00, 0.00, -0.00, -1.00, 924.3, 133.0)">N</text><text xml:space="preserve" font-family="HelveticaNeue-CondensedBold" font-weight="bold" font-size="24.0" fill="#000000" transform="matrix(1.00, 0.00, -0.00, -1.00, 938.1, 133.0)">T</text><text xml:space="preserve" font-family="HelveticaNeue-CondensedBold" font-weight="bold" font-size="24.0" fill="#000000" transform="matrix(1.00, 0.00, -0.00, -1.00, 949.6, 133.0)">E</text><text xml:space="preserve" font-family="HelveticaNeue-CondensedBold" font-weight="bold" font-size="24.0" fill="#000000" transform="matrix(1.00, 0.00, -0.00, -1.00, 961.2, 133.0)">R</text><text xml:space="preserve" font-family="HelveticaNeue-CondensedBold" font-weight="bold" font-size="32.0" fill="#5B88A5" transform="matrix(1.00, 0.00, -0.00, -1.00, 744.0, 76.0)">B</text><text xml:space="preserve" font-family="HelveticaNeue-CondensedBold" font-weight="bold" font-size="32.0" fill="#5B88A5" transform="matrix(1.00, 0.00, -0.00, -1.00, 761.8, 76.0)">O</text><text xml:space="preserve" font-family="HelveticaNeue-CondensedBold" font-weight="bold" font-size="32.0" fill="#5B88A5" transform="matrix(1.00, 0.00, -0.00, -1.00, 779.6, 76.0)">T</text><text xml:space="preserve" font-family="HelveticaNeue-CondensedBold" font-weight="bold" font-size="32.0" fill="#5B88A5" transform="matrix(1.00, 0.00, -0.00, -1.00, 794.9, 76.0)">H</text><text xml:space="preserve" font-family="HelveticaNeue-CondensedBold" font-weight="bold" font-size="32.0" fill="#5B88A5" transform="matrix(1.00, 0.00, -0.00, -1.00, 812.7, 76.0)"> </text><text xml:space="preserve" font-family="HelveticaNeue-CondensedBold" font-weight="bold" font-size="32.0" fill="#5B88A5" transform="matrix(1.00, 0.00, -0.00, -1.00, 820.4, 76.0)">E</text><text xml:space="preserve" font-family="HelveticaNeue-CondensedBold" font-weight="bold" font-size="32.0" fill="#5B88A5" transform="matrix(1.00, 0.00, -0.00, -1.00, 835.8, 76.0)">X</text><text xml:space="preserve" font-family="HelveticaNeue-CondensedBold" font-weight="bold" font-size="32.0" fill="#5B88A5" transform="matrix(1.00, 0.00, -0.00, -1.00, 853.0, 76.0)">T</text><text xml:space="preserve" font-family="HelveticaNeue-CondensedBold" font-weight="bold" font-size="32.0" fill="#5B88A5" transform="matrix(1.00, 0.00, -0.00, -1.00, 868.4, 76.0)">I</text><text xml:space="preserve" font-family="HelveticaNeue-CondensedBold" font-weight="bold" font-size="32.0" fill="#5B88A5" transform="matrix(1.00, 0.00, -0.00, -1.00, 876.6, 76.0)">N</text><text xml:space="preserve" font-family="HelveticaNeue-CondensedBold" font-weight="bold" font-size="32.0" fill="#5B88A5" transform="matrix(1.00, 0.00, -0.00, -1.00, 895.0, 76.0)">C</text><text xml:space="preserve" font-family="HelveticaNeue-CondensedBold" font-weight="bold" font-size="32.0" fill="#5B88A5" transform="matrix(1.00, 0.00, -0.00, -1.00, 912.2, 76.0)">T</text><text xml:space="preserve" font-family="HelveticaNeue-CondensedBold" font-weight="bold" font-size="32.0" fill="#5B88A5" transform="matrix(1.00, 0.00, -0.00, -1.00, 927.5, 76.0)"> </text><text xml:space="preserve" font-family="HelveticaNeue-CondensedBold" font-weight="bold" font-size="32.0" fill="#5B88A5" transform="matrix(1.00, 0.00, -0.00, -1.00, 935.2, 76.0)"> </text><text xml:space="preserve" font-family="HelveticaNeue-CondensedBold" font-weight="bold" font-size="32.0" fill="#5B88A5" transform="matrix(1.00, 0.00, -0.00, -1.00, 752.0, 37.0)">I</text><text xml:space="preserve" font-family="HelveticaNeue-CondensedBold" font-weight="bold" font-size="32.0" fill="#5B88A5" transform="matrix(1.00, 0.00, -0.00, -1.00, 760.3, 37.0)">N</text><text xml:space="preserve" font-family="HelveticaNeue-CondensedBold" font-weight="bold" font-size="32.0" fill="#5B88A5" transform="matrix(1.00, 0.00, -0.00, -1.00, 778.6, 37.0)"> </text><text xml:space="preserve" font-family="HelveticaNeue-CondensedBold" font-weight="bold" font-size="32.0" fill="#5B88A5" transform="matrix(1.00, 0.00, -0.00, -1.00, 785.1, 37.0)">T</text><text xml:space="preserve" font-family="HelveticaNeue-CondensedBold" font-weight="bold" font-size="32.0" fill="#5B88A5" transform="matrix(1.00, 0.00, -0.00, -1.00, 800.5, 37.0)">H</text><text xml:space="preserve" font-family="HelveticaNeue-CondensedBold" font-weight="bold" font-size="32.0" fill="#5B88A5" transform="matrix(1.00, 0.00, -0.00, -1.00, 818.3, 37.0)">E</text><text xml:space="preserve" font-family="HelveticaNeue-CondensedBold" font-weight="bold" font-size="32.0" fill="#5B88A5" transform="matrix(1.00, 0.00, -0.00, -1.00, 833.7, 37.0)"> </text><text xml:space="preserve" font-family="HelveticaNeue-CondensedBold" font-weight="bold" font-size="32.0" fill="#5B88A5" transform="matrix(1.00, 0.00, -0.00, -1.00, 841.3, 37.0)">1</text><text xml:space="preserve" font-family="HelveticaNeue-CondensedBold" font-weight="bold" font-size="32.0" fill="#5B88A5" transform="matrix(1.00, 0.00, -0.00, -1.00, 856.7, 37.0)">9</text><text xml:space="preserve" font-family="HelveticaNeue-CondensedBold" font-weight="bold" font-size="32.0" fill="#5B88A5" transform="matrix(1.00, 0.00, -0.00, -1.00, 872.1, 37.0)">8</text><text xml:space="preserve" font-family="HelveticaNeue-CondensedBold" font-weight="bold" font-size="32.0" fill="#5B88A5" transform="matrix(1.00, 0.00, -0.00, -1.00, 887.4, 37.0)">0</text><text xml:space="preserve" font-family="HelveticaNeue-CondensedBold" font-weight="bold" font-size="32.0" fill="#5B88A5" transform="matrix(1.00, 0.00, -0.00, -1.00, 902.8, 37.0)">S</text><text xml:space="preserve" font-family="HelveticaNeue-CondensedBold" font-weight="bold" font-size="11.0" fill="#000000" transform="matrix(1.00, 0.00, -0.00, -1.00, 112.0, 516.0)">D</text><text xml:space="preserve" font-family="HelveticaNeue-CondensedBold" font-weight="bold" font-size="11.0" fill="#000000" transform="matrix(1.00, 0.00, -0.00, -1.00, 118.3, 516.0)">A</text><text xml:space="preserve" font-family="HelveticaNeue-CondensedBold" font-weight="bold" font-size="11.0" fill="#000000" transform="matrix(1.00, 0.00, -0.00, -1.00, 123.8, 516.0)">T</text><text xml:space="preserve" font-family="HelveticaNeue-CondensedBold" font-weight="bold" font-size="11.0" fill="#000000" transform="matrix(1.00, 0.00, -0.00, -1.00, 128.5, 516.0)">A</text><text xml:space="preserve" font-family="HelveticaNeue-CondensedBold" font-weight="bold" font-size="11.0" fill="#000000" transform="matrix(1.00, 0.00, -0.00, -1.00, 134.6, 516.0)"> </text><text xml:space="preserve" font-family="HelveticaNeue-CondensedBold" font-weight="bold" font-size="11.0" fill="#000000" transform="matrix(1.00, 0.00, -0.00, -1.00, 137.3, 516.0)">D</text><text xml:space="preserve" font-family="HelveticaNeue-CondensedBold" font-weight="bold" font-size="11.0" fill="#000000" transform="matrix(1.00, 0.00, -0.00, -1.00, 143.6, 516.0)">E</text><text xml:space="preserve" font-family="HelveticaNeue-CondensedBold" font-weight="bold" font-size="11.0" fill="#000000" transform="matrix(1.00, 0.00, -0.00, -1.00, 148.9, 516.0)">F</text><text xml:space="preserve" font-family="HelveticaNeue-CondensedBold" font-weight="bold" font-size="11.0" fill="#000000" transform="matrix(1.00, 0.00, -0.00, -1.00, 154.0, 516.0)">I</text><text xml:space="preserve" font-family="HelveticaNeue-CondensedBold" font-weight="bold" font-size="11.0" fill="#000000" transform="matrix(1.00, 0.00, -0.00, -1.00, 156.8, 516.0)">C</text><text xml:space="preserve" font-family="HelveticaNeue-CondensedBold" font-weight="bold" font-size="11.0" fill="#000000" transform="matrix(1.00, 0.00, -0.00, -1.00, 162.7, 516.0)">I</text><text xml:space="preserve" font-family="HelveticaNeue-CondensedBold" font-weight="bold" font-size="11.0" fill="#000000" transform="matrix(1.00, 0.00, -0.00, -1.00, 165.5, 516.0)">E</text><text xml:space="preserve" font-family="HelveticaNeue-CondensedBold" font-weight="bold" font-size="11.0" fill="#000000" transform="matrix(1.00, 0.00, -0.00, -1.00, 170.8, 516.0)">N</text><text xml:space="preserve" font-family="HelveticaNeue-CondensedBold" font-weight="bold" font-size="11.0" fill="#000000" transform="matrix(1.00, 0.00, -0.00, -1.00, 177.1, 516.0)">T</text><text xml:space="preserve" font-family="HelveticaNeue-CondensedBold" font-weight="bold" font-size="11.0" fill="#000000" transform="matrix(1.00, 0.00, -0.00, -1.00, 138.0, 256.0)">L</text><text xml:space="preserve" font-family="HelveticaNeue-CondensedBold" font-weight="bold" font-size="11.0" fill="#000000" transform="matrix(1.00, 0.00, -0.00, -1.00, 143.1, 256.0)">E</text><text xml:space="preserve" font-family="HelveticaNeue-CondensedBold" font-weight="bold" font-size="11.0" fill="#000000" transform="matrix(1.00, 0.00, -0.00, -1.00, 148.4, 256.0)">A</text><text xml:space="preserve" font-family="HelveticaNeue-CondensedBold" font-weight="bold" font-size="11.0" fill="#000000" transform="matrix(1.00, 0.00, -0.00, -1.00, 154.5, 256.0)">S</text><text xml:space="preserve" font-family="HelveticaNeue-CondensedBold" font-weight="bold" font-size="11.0" fill="#000000" transform="matrix(1.00, 0.00, -0.00, -1.00, 160.2, 256.0)">T</text><text xml:space="preserve" font-family="HelveticaNeue-CondensedBold" font-weight="bold" font-size="11.0" fill="#000000" transform="matrix(1.00, 0.00, -0.00, -1.00, 165.5, 256.0)"> </text><text xml:space="preserve" font-family="HelveticaNeue-CondensedBold" font-weight="bold" font-size="11.0" fill="#000000" transform="matrix(1.00, 0.00, -0.00, -1.00, 168.1, 256.0)">C</text><text xml:space="preserve" font-family="HelveticaNeue-CondensedBold" font-weight="bold" font-size="11.0" fill="#000000" transform="matrix(1.00, 0.00, -0.00, -1.00, 174.0, 256.0)">O</text><text xml:space="preserve" font-family="HelveticaNeue-CondensedBold" font-weight="bold" font-size="11.0" fill="#000000" transform="matrix(1.00, 0.00, -0.00, -1.00, 180.2, 256.0)">N</text><text xml:space="preserve" font-family="HelveticaNeue-CondensedBold" font-weight="bold" font-size="11.0" fill="#000000" transform="matrix(1.00, 0.00, -0.00, -1.00, 186.5, 256.0)">C</text><text xml:space="preserve" font-family="HelveticaNeue-CondensedBold" font-weight="bold" font-size="11.0" fill="#000000" transform="matrix(1.00, 0.00, -0.00, -1.00, 192.4, 256.0)">E</text><text xml:space="preserve" font-family="HelveticaNeue-CondensedBold" font-weight="bold" font-size="11.0" fill="#000000" transform="matrix(1.00, 0.00, -0.00, -1.00, 197.7, 256.0)">R</text><text xml:space="preserve" font-family="HelveticaNeue-CondensedBold" font-weight="bold" font-size="11.0" fill="#000000" transform="matrix(1.00, 0.00, -0.00, -1.00, 203.8, 256.0)">N</text><text xml:space="preserve" font-family="HelveticaNeue-CondensedBold" font-weight="bold" font-size="11.0" fill="#000000" transform="matrix(1.00, 0.00, -0.00, -1.00, 536.0, 286.0)">N</text><text xml:space="preserve" font-family="HelveticaNeue-CondensedBold" font-weight="bold" font-size="11.0" fill="#000000" transform="matrix(1.00, 0.00, -0.00, -1.00, 542.3, 286.0)">E</text><text xml:space="preserve" font-family="HelveticaNeue-CondensedBold" font-weight="bold" font-size="11.0" fill="#000000" transform="matrix(1.00, 0.00, -0.00, -1.00, 547.6, 286.0)">A</text><text xml:space="preserve" font-family="HelveticaNeue-CondensedBold" font-weight="bold" font-size="11.0" fill="#000000" transform="matrix(1.00, 0.00, -0.00, -1.00, 553.7, 286.0)">R</text><text xml:space="preserve" font-family="HelveticaNeue-CondensedBold" font-weight="bold" font-size="11.0" fill="#000000" transform="matrix(1.00, 0.00, -0.00, -1.00, 559.8, 286.0)"> </text><text xml:space="preserve" font-family="HelveticaNeue-CondensedBold" font-weight="bold" font-size="11.0" fill="#000000" transform="matrix(1.00, 0.00, -0.00, -1.00, 562.1, 286.0)">T</text><text xml:space="preserve" font-family="HelveticaNeue-CondensedBold" font-weight="bold" font-size="11.0" fill="#000000" transform="matrix(1.00, 0.00, -0.00, -1.00, 567.4, 286.0)">H</text><text xml:space="preserve" font-family="HelveticaNeue-CondensedBold" font-weight="bold" font-size="11.0" fill="#000000" transform="matrix(1.00, 0.00, -0.00, -1.00, 573.5, 286.0)">R</text><text xml:space="preserve" font-family="HelveticaNeue-CondensedBold" font-weight="bold" font-size="11.0" fill="#000000" transform="matrix(1.00, 0.00, -0.00, -1.00, 579.6, 286.0)">E</text><text xml:space="preserve" font-family="HelveticaNeue-CondensedBold" font-weight="bold" font-size="11.0" fill="#000000" transform="matrix(1.00, 0.00, -0.00, -1.00, 584.9, 286.0)">A</text><text xml:space="preserve" font-family="HelveticaNeue-CondensedBold" font-weight="bold" font-size="11.0" fill="#000000" transform="matrix(1.00, 0.00, -0.00, -1.00, 590.4, 286.0)">T</text><text xml:space="preserve" font-family="HelveticaNeue-CondensedBold" font-weight="bold" font-size="11.0" fill="#000000" transform="matrix(1.00, 0.00, -0.00, -1.00, 595.7, 286.0)">E</text><text xml:space="preserve" font-family="HelveticaNeue-CondensedBold" font-weight="bold" font-size="11.0" fill="#000000" transform="matrix(1.00, 0.00, -0.00, -1.00, 601.0, 286.0)">N</text><text xml:space="preserve" font-family="HelveticaNeue-CondensedBold" font-weight="bold" font-size="11.0" fill="#000000" transform="matrix(1.00, 0.00, -0.00, -1.00, 607.3, 286.0)">E</text><text xml:space="preserve" font-family="HelveticaNeue-CondensedBold" font-weight="bold" font-size="11.0" fill="#000000" transform="matrix(1.00, 0.00, -0.00, -1.00, 612.6, 286.0)">D</text><text xml:space="preserve" font-family="HelveticaNeue-CondensedBold" font-weight="bold" font-size="11.0" fill="#000000" transform="matrix(1.00, 0.00, -0.00, -1.00, 549.0, 425.0)">V</text><text xml:space="preserve" font-family="HelveticaNeue-CondensedBold" font-weight="bold" font-size="11.0" fill="#000000" transform="matrix(1.00, 0.00, -0.00, -1.00, 554.7, 425.0)">U</text><text xml:space="preserve" font-family="HelveticaNeue-CondensedBold" font-weight="bold" font-size="11.0" fill="#000000" transform="matrix(1.00, 0.00, -0.00, -1.00, 560.6, 425.0)">L</text><text xml:space="preserve" font-family="HelveticaNeue-CondensedBold" font-weight="bold" font-size="11.0" fill="#000000" transform="matrix(1.00, 0.00, -0.00, -1.00, 565.7, 425.0)">N</text><text xml:space="preserve" font-family="HelveticaNeue-CondensedBold" font-weight="bold" font-size="11.0" fill="#000000" transform="matrix(1.00, 0.00, -0.00, -1.00, 572.0, 425.0)">E</text><text xml:space="preserve" font-family="HelveticaNeue-CondensedBold" font-weight="bold" font-size="11.0" fill="#000000" transform="matrix(1.00, 0.00, -0.00, -1.00, 577.3, 425.0)">R</text><text xml:space="preserve" font-family="HelveticaNeue-CondensedBold" font-weight="bold" font-size="11.0" fill="#000000" transform="matrix(1.00, 0.00, -0.00, -1.00, 583.4, 425.0)">A</text><text xml:space="preserve" font-family="HelveticaNeue-CondensedBold" font-weight="bold" font-size="11.0" fill="#000000" transform="matrix(1.00, 0.00, -0.00, -1.00, 589.6, 425.0)">B</text><text xml:space="preserve" font-family="HelveticaNeue-CondensedBold" font-weight="bold" font-size="11.0" fill="#000000" transform="matrix(1.00, 0.00, -0.00, -1.00, 595.7, 425.0)">L</text><text xml:space="preserve" font-family="HelveticaNeue-CondensedBold" font-weight="bold" font-size="11.0" fill="#000000" transform="matrix(1.00, 0.00, -0.00, -1.00, 600.8, 425.0)">E</text><text xml:space="preserve" font-family="HelveticaNeue-CondensedBold" font-weight="bold" font-size="11.0" fill="#000000" transform="matrix(1.00, 0.00, -0.00, -1.00, 547.0, 564.0)">E</text><text xml:space="preserve" font-family="HelveticaNeue-CondensedBold" font-weight="bold" font-size="11.0" fill="#000000" transform="matrix(1.00, 0.00, -0.00, -1.00, 552.3, 564.0)">N</text><text xml:space="preserve" font-family="HelveticaNeue-CondensedBold" font-weight="bold" font-size="11.0" fill="#000000" transform="matrix(1.00, 0.00, -0.00, -1.00, 558.6, 564.0)">D</text><text xml:space="preserve" font-family="HelveticaNeue-CondensedBold" font-weight="bold" font-size="11.0" fill="#000000" transform="matrix(1.00, 0.00, -0.00, -1.00, 564.9, 564.0)">A</text><text xml:space="preserve" font-family="HelveticaNeue-CondensedBold" font-weight="bold" font-size="11.0" fill="#000000" transform="matrix(1.00, 0.00, -0.00, -1.00, 571.0, 564.0)">N</text><text xml:space="preserve" font-family="HelveticaNeue-CondensedBold" font-weight="bold" font-size="11.0" fill="#000000" transform="matrix(1.00, 0.00, -0.00, -1.00, 577.3, 564.0)">G</text><text xml:space="preserve" font-family="HelveticaNeue-CondensedBold" font-weight="bold" font-size="11.0" fill="#000000" transform="matrix(1.00, 0.00, -0.00, -1.00, 583.5, 564.0)">E</text><text xml:space="preserve" font-family="HelveticaNeue-CondensedBold" font-weight="bold" font-size="11.0" fill="#000000" transform="matrix(1.00, 0.00, -0.00, -1.00, 588.8, 564.0)">R</text><text xml:space="preserve" font-family="HelveticaNeue-CondensedBold" font-weight="bold" font-size="11.0" fill="#000000" transform="matrix(1.00, 0.00, -0.00, -1.00, 594.9, 564.0)">E</text><text xml:space="preserve" font-family="HelveticaNeue-CondensedBold" font-weight="bold" font-size="11.0" fill="#000000" transform="matrix(1.00, 0.00, -0.00, -1.00, 600.2, 564.0)">D</text><text xml:space="preserve" font-family="HelveticaNeue-CondensedBold" font-weight="bold" font-size="11.0" fill="#000000" transform="matrix(1.00, 0.00, -0.00, -1.00, 445.0, 634.0)">C</text><text xml:space="preserve" font-family="HelveticaNeue-CondensedBold" font-weight="bold" font-size="11.0" fill="#000000" transform="matrix(1.00, 0.00, -0.00, -1.00, 450.9, 634.0)">R</text><text xml:space="preserve" font-family="HelveticaNeue-CondensedBold" font-weight="bold" font-size="11.0" fill="#000000" transform="matrix(1.00, 0.00, -0.00, -1.00, 457.0, 634.0)">I</text><text xml:space="preserve" font-family="HelveticaNeue-CondensedBold" font-weight="bold" font-size="11.0" fill="#000000" transform="matrix(1.00, 0.00, -0.00, -1.00, 459.9, 634.0)">T</text><text xml:space="preserve" font-family="HelveticaNeue-CondensedBold" font-weight="bold" font-size="11.0" fill="#000000" transform="matrix(1.00, 0.00, -0.00, -1.00, 465.1, 634.0)">I</text><text xml:space="preserve" font-family="HelveticaNeue-CondensedBold" font-weight="bold" font-size="11.0" fill="#000000" transform="matrix(1.00, 0.00, -0.00, -1.00, 468.0, 634.0)">C</text><text xml:space="preserve" font-family="HelveticaNeue-CondensedBold" font-weight="bold" font-size="11.0" fill="#000000" transform="matrix(1.00, 0.00, -0.00, -1.00, 473.9, 634.0)">A</text><text xml:space="preserve" font-family="HelveticaNeue-CondensedBold" font-weight="bold" font-size="11.0" fill="#000000" transform="matrix(1.00, 0.00, -0.00, -1.00, 480.0, 634.0)">L</text><text xml:space="preserve" font-family="HelveticaNeue-CondensedBold" font-weight="bold" font-size="11.0" fill="#000000" transform="matrix(1.00, 0.00, -0.00, -1.00, 485.1, 634.0)">L</text><text xml:space="preserve" font-family="HelveticaNeue-CondensedBold" font-weight="bold" font-size="11.0" fill="#000000" transform="matrix(1.00, 0.00, -0.00, -1.00, 489.2, 634.0)">Y</text><text xml:space="preserve" font-family="HelveticaNeue-CondensedBold" font-weight="bold" font-size="11.0" fill="#000000" transform="matrix(1.00, 0.00, -0.00, -1.00, 494.9, 634.0)"> </text><text xml:space="preserve" font-family="HelveticaNeue-CondensedBold" font-weight="bold" font-size="11.0" fill="#000000" transform="matrix(1.00, 0.00, -0.00, -1.00, 440.0, 621.0)">E</text><text xml:space="preserve" font-family="HelveticaNeue-CondensedBold" font-weight="bold" font-size="11.0" fill="#000000" transform="matrix(1.00, 0.00, -0.00, -1.00, 445.3, 621.0)">N</text><text xml:space="preserve" font-family="HelveticaNeue-CondensedBold" font-weight="bold" font-size="11.0" fill="#000000" transform="matrix(1.00, 0.00, -0.00, -1.00, 451.6, 621.0)">D</text><text xml:space="preserve" font-family="HelveticaNeue-CondensedBold" font-weight="bold" font-size="11.0" fill="#000000" transform="matrix(1.00, 0.00, -0.00, -1.00, 457.9, 621.0)">A</text><text xml:space="preserve" font-family="HelveticaNeue-CondensedBold" font-weight="bold" font-size="11.0" fill="#000000" transform="matrix(1.00, 0.00, -0.00, -1.00, 464.0, 621.0)">N</text><text xml:space="preserve" font-family="HelveticaNeue-CondensedBold" font-weight="bold" font-size="11.0" fill="#000000" transform="matrix(1.00, 0.00, -0.00, -1.00, 470.3, 621.0)">G</text><text xml:space="preserve" font-family="HelveticaNeue-CondensedBold" font-weight="bold" font-size="11.0" fill="#000000" transform="matrix(1.00, 0.00, -0.00, -1.00, 476.5, 621.0)">E</text><text xml:space="preserve" font-family="HelveticaNeue-CondensedBold" font-weight="bold" font-size="11.0" fill="#000000" transform="matrix(1.00, 0.00, -0.00, -1.00, 481.8, 621.0)">R</text><text xml:space="preserve" font-family="HelveticaNeue-CondensedBold" font-weight="bold" font-size="11.0" fill="#000000" transform="matrix(1.00, 0.00, -0.00, -1.00, 487.9, 621.0)">E</text><text xml:space="preserve" font-family="HelveticaNeue-CondensedBold" font-weight="bold" font-size="11.0" fill="#000000" transform="matrix(1.00, 0.00, -0.00, -1.00, 493.2, 621.0)">D</text><text xml:space="preserve" font-family="HelveticaNeue-CondensedBold" font-weight="bold" font-size="11.0" fill="#000000" transform="matrix(1.00, 0.00, -0.00, -1.00, 332.0, 647.0)">E</text><text xml:space="preserve" font-family="HelveticaNeue-CondensedBold" font-weight="bold" font-size="11.0" fill="#000000" transform="matrix(1.00, 0.00, -0.00, -1.00, 337.3, 647.0)">X</text><text xml:space="preserve" font-family="HelveticaNeue-CondensedBold" font-weight="bold" font-size="11.0" fill="#000000" transform="matrix(1.00, 0.00, -0.00, -1.00, 343.2, 647.0)">T</text><text xml:space="preserve" font-family="HelveticaNeue-CondensedBold" font-weight="bold" font-size="11.0" fill="#000000" transform="matrix(1.00, 0.00, -0.00, -1.00, 348.5, 647.0)">I</text><text xml:space="preserve" font-family="HelveticaNeue-CondensedBold" font-weight="bold" font-size="11.0" fill="#000000" transform="matrix(1.00, 0.00, -0.00, -1.00, 351.3, 647.0)">N</text><text xml:space="preserve" font-family="HelveticaNeue-CondensedBold" font-weight="bold" font-size="11.0" fill="#000000" transform="matrix(1.00, 0.00, -0.00, -1.00, 357.6, 647.0)">C</text><text xml:space="preserve" font-family="HelveticaNeue-CondensedBold" font-weight="bold" font-size="11.0" fill="#000000" transform="matrix(1.00, 0.00, -0.00, -1.00, 363.5, 647.0)">T</text></g></svg>