<?xml version="1.0" encoding="UTF-8" standalone="no"?><svg xmlns="http://www.w3.org/2000/svg" xmlns:xlink="http://www.w3.org/1999/xlink" clip-rule="evenodd" stroke-miterlimit="4.00" viewBox="0 0 1024 768"><desc>SVG generated by Keynote</desc><defs></defs><g transform="matrix(1.00, 0.00, -0.00, -1.00, 0.0, 768.0)"><path d="M 0.0 768.0 L 1024.0 768.0 L 1024.0 0.0 L 0.0 0.0 Z M 0.0 768.0 " fill="#FEFFFF"></path><path d="M 0.0 0.0 L 980.0 0.0 L 980.0 726.0 L 0.0 726.0 Z M 0.0 0.0 " fill="none" stroke="#A2A0A6" stroke-width="2.00" transform="matrix(1.00, 0.00, 0.00, -1.00, 22.3, 746.0)"></path><path d="M 0.0 768.0 L 1024.0 768.0 L 1024.0 0.0 L 0.0 0.0 Z M 0.0 768.0 " fill="#FEFFFF"></path><path d="M 0.0 0.0 L 1024.0 0.0 L 1024.0 768.0 L 0.0 768.0 Z M 0.0 0.0 " fill="none" stroke="#000000" stroke-width="1.00" transform="matrix(1.00, 0.00, 0.00, -1.00, 0.0, 768.0)"></path><image xlink:href="2EE0D51C52E1C890DC7A3AE1BAEF4443.png" width="593.00" height="768.00" transform="matrix(1.00, 0.00, -0.00, -1.00, 222.0, 725.0)"></image><text xml:space="preserve" font-family="Georgia" font-size="38.0" fill="#FFA900" transform="matrix(1.00, 0.00, -0.00, -1.00, 69.0, 652.0)">C</text><text xml:space="preserve" font-family="Georgia" font-size="38.0" fill="#FFA900" transform="matrix(1.00, 0.00, -0.00, -1.00, 93.4, 652.0)">h</text><text xml:space="preserve" font-family="Georgia" font-size="38.0" fill="#FFA900" transform="matrix(1.00, 0.00, -0.00, -1.00, 115.5, 652.0)">y</text><text xml:space="preserve" font-family="Georgia" font-size="38.0" fill="#FFA900" transform="matrix(1.00, 0.00, -0.00, -1.00, 134.2, 652.0)">t</text><text xml:space="preserve" font-family="Georgia" font-size="38.0" fill="#FFA900" transform="matrix(1.00, 0.00, -0.00, -1.00, 147.4, 652.0)">r</text><text xml:space="preserve" font-family="Georgia" font-size="38.0" fill="#FFA900" transform="matrix(1.00, 0.00, -0.00, -1.00, 162.9, 652.0)">i</text><text xml:space="preserve" font-family="Georgia" font-size="38.0" fill="#FFA900" transform="matrix(1.00, 0.00, -0.00, -1.00, 174.0, 652.0)">d</text><text xml:space="preserve" font-family="Georgia" font-size="38.0" fill="#FFA900" transform="matrix(1.00, 0.00, -0.00, -1.00, 195.9, 652.0)"> </text><text xml:space="preserve" font-family="Georgia" font-size="38.0" fill="#FFA900" transform="matrix(1.00, 0.00, -0.00, -1.00, 205.0, 652.0)">l</text><text xml:space="preserve" font-family="Georgia" font-size="38.0" fill="#FFA900" transform="matrix(1.00, 0.00, -0.00, -1.00, 215.9, 652.0)">i</text><text xml:space="preserve" font-family="Georgia" font-size="38.0" fill="#FFA900" transform="matrix(1.00, 0.00, -0.00, -1.00, 227.1, 652.0)">f</text><text xml:space="preserve" font-family="Georgia" font-size="38.0" fill="#FFA900" transform="matrix(1.00, 0.00, -0.00, -1.00, 239.4, 652.0)">e</text><text xml:space="preserve" font-family="Georgia" font-size="38.0" fill="#FFA900" transform="matrix(1.00, 0.00, -0.00, -1.00, 257.8, 652.0)"> </text><text xml:space="preserve" font-family="Georgia" font-size="38.0" fill="#FFA900" transform="matrix(1.00, 0.00, -0.00, -1.00, 267.0, 652.0)">c</text><text xml:space="preserve" font-family="Georgia" font-size="38.0" fill="#FFA900" transform="matrix(1.00, 0.00, -0.00, -1.00, 284.2, 652.0)">y</text><text xml:space="preserve" font-family="Georgia" font-size="38.0" fill="#FFA900" transform="matrix(1.00, 0.00, -0.00, -1.00, 303.0, 652.0)">c</text><text xml:space="preserve" font-family="Georgia" font-size="38.0" fill="#FFA900" transform="matrix(1.00, 0.00, -0.00, -1.00, 320.2, 652.0)">l</text><text xml:space="preserve" font-family="Georgia" font-size="38.0" fill="#FFA900" transform="matrix(1.00, 0.00, -0.00, -1.00, 331.1, 652.0)">e</text><path d="M 196.0 512.0 L 853.0 512.0 L 853.0 495.0 L 196.0 495.0 Z M 196.0 512.0 " fill="#FEFFFF"></path><path d="M 427.0 68.0 L 649.0 68.0 L 649.0 25.0 L 427.0 25.0 Z M 427.0 68.0 " fill="#FEFFFF"></path><path d="M 401.0 649.0 L 631.0 649.0 L 631.0 623.0 L 401.0 623.0 Z M 401.0 649.0 " fill="#FEFFFF"></path></g></svg>