<?xml version="1.0" encoding="UTF-8" standalone="no"?><svg xmlns="http://www.w3.org/2000/svg" xmlns:xlink="http://www.w3.org/1999/xlink" clip-rule="evenodd" stroke-miterlimit="4.00" viewBox="0 0 720 540"><desc>SVG generated by Keynote</desc><defs></defs><g transform="matrix(1.00, 0.00, -0.00, -1.00, 0.0, 540.0)"><path d="M 0.0 540.0 L 720.0 540.0 L 720.0 0.0 L 0.0 0.0 Z M 0.0 540.0 " fill="#FEFFFF"></path><g><clipPath id="clip-580"><path d="M 16.0 485.0 L 726.0 485.0 L 726.0 -1.0 L 16.0 -1.0 Z M 16.0 484.6 "></path></clipPath><g clip-path="url(#clip-580)"><image xlink:href="../../23204E45-164F-4446-B199-7D0D4C64D2CC/assets/8B6ED383CEFF1DB4FDB1F2C62F1CE904.png" width="702.00" height="540.00" transform="matrix(1.01, 0.00, -0.00, -1.01, 16.0, 485.0)"></image></g></g><text xml:space="preserve" font-family="ArialNarrow-Bold" font-weight="bold" font-size="30.0" fill="#000000" transform="matrix(1.00, 0.00, -0.00, -1.00, 100.0, 490.0)">A</text><text xml:space="preserve" font-family="ArialNarrow-Bold" font-weight="bold" font-size="30.0" fill="#000000" transform="matrix(1.00, 0.00, -0.00, -1.00, 117.7, 490.0)">m</text><text xml:space="preserve" font-family="ArialNarrow-Bold" font-weight="bold" font-size="30.0" fill="#000000" transform="matrix(1.00, 0.00, -0.00, -1.00, 139.6, 490.0)">p</text><text xml:space="preserve" font-family="ArialNarrow-Bold" font-weight="bold" font-size="30.0" fill="#000000" transform="matrix(1.00, 0.00, -0.00, -1.00, 154.6, 490.0)">h</text><text xml:space="preserve" font-family="ArialNarrow-Bold" font-weight="bold" font-size="30.0" fill="#000000" transform="matrix(1.00, 0.00, -0.00, -1.00, 169.7, 490.0)">i</text><text xml:space="preserve" font-family="ArialNarrow-Bold" font-weight="bold" font-size="30.0" fill="#000000" transform="matrix(1.00, 0.00, -0.00, -1.00, 176.5, 490.0)">b</text><text xml:space="preserve" font-family="ArialNarrow-Bold" font-weight="bold" font-size="30.0" fill="#000000" transform="matrix(1.00, 0.00, -0.00, -1.00, 191.5, 490.0)">i</text><text xml:space="preserve" font-family="ArialNarrow-Bold" font-weight="bold" font-size="30.0" fill="#000000" transform="matrix(1.00, 0.00, -0.00, -1.00, 198.4, 490.0)">a</text><text xml:space="preserve" font-family="ArialNarrow-Bold" font-weight="bold" font-size="30.0" fill="#000000" transform="matrix(1.00, 0.00, -0.00, -1.00, 212.1, 490.0)">n</text><text xml:space="preserve" font-family="ArialNarrow-Bold" font-weight="bold" font-size="30.0" fill="#000000" transform="matrix(1.00, 0.00, -0.00, -1.00, 227.1, 490.0)"> </text><text xml:space="preserve" font-family="ArialNarrow-Bold" font-weight="bold" font-size="30.0" fill="#000000" transform="matrix(1.00, 0.00, -0.00, -1.00, 233.9, 490.0)">d</text><text xml:space="preserve" font-family="ArialNarrow-Bold" font-weight="bold" font-size="30.0" fill="#000000" transform="matrix(1.00, 0.00, -0.00, -1.00, 249.0, 490.0)">e</text><text xml:space="preserve" font-family="ArialNarrow-Bold" font-weight="bold" font-size="30.0" fill="#000000" transform="matrix(1.00, 0.00, -0.00, -1.00, 262.7, 490.0)">n</text><text xml:space="preserve" font-family="ArialNarrow-Bold" font-weight="bold" font-size="30.0" fill="#000000" transform="matrix(1.00, 0.00, -0.00, -1.00, 277.7, 490.0)">s</text><text xml:space="preserve" font-family="ArialNarrow-Bold" font-weight="bold" font-size="30.0" fill="#000000" transform="matrix(1.00, 0.00, -0.00, -1.00, 291.4, 490.0)">i</text><text xml:space="preserve" font-family="ArialNarrow-Bold" font-weight="bold" font-size="30.0" fill="#000000" transform="matrix(1.00, 0.00, -0.00, -1.00, 298.2, 490.0)">t</text><text xml:space="preserve" font-family="ArialNarrow-Bold" font-weight="bold" font-size="30.0" fill="#000000" transform="matrix(1.00, 0.00, -0.00, -1.00, 306.4, 490.0)">y</text><text xml:space="preserve" font-family="ArialNarrow-Bold" font-weight="bold" font-size="30.0" fill="#000000" transform="matrix(1.00, 0.00, -0.00, -1.00, 320.1, 490.0)"> </text><text xml:space="preserve" font-family="ArialNarrow-Bold" font-weight="bold" font-size="30.0" fill="#000000" transform="matrix(1.00, 0.00, -0.00, -1.00, 326.9, 490.0)">c</text><text xml:space="preserve" font-family="ArialNarrow-Bold" font-weight="bold" font-size="30.0" fill="#000000" transform="matrix(1.00, 0.00, -0.00, -1.00, 340.6, 490.0)">h</text><text xml:space="preserve" font-family="ArialNarrow-Bold" font-weight="bold" font-size="30.0" fill="#000000" transform="matrix(1.00, 0.00, -0.00, -1.00, 355.6, 490.0)">a</text><text xml:space="preserve" font-family="ArialNarrow-Bold" font-weight="bold" font-size="30.0" fill="#000000" transform="matrix(1.00, 0.00, -0.00, -1.00, 369.3, 490.0)">n</text><text xml:space="preserve" font-family="ArialNarrow-Bold" font-weight="bold" font-size="30.0" fill="#000000" transform="matrix(1.00, 0.00, -0.00, -1.00, 384.3, 490.0)">g</text><text xml:space="preserve" font-family="ArialNarrow-Bold" font-weight="bold" font-size="30.0" fill="#000000" transform="matrix(1.00, 0.00, -0.00, -1.00, 399.4, 490.0)">e</text><text xml:space="preserve" font-family="ArialNarrow-Bold" font-weight="bold" font-size="30.0" fill="#000000" transform="matrix(1.00, 0.00, -0.00, -1.00, 413.1, 490.0)">s</text><text xml:space="preserve" font-family="ArialNarrow-Bold" font-weight="bold" font-size="30.0" fill="#000000" transform="matrix(1.00, 0.00, -0.00, -1.00, 426.7, 490.0)"> </text><text xml:space="preserve" font-family="ArialNarrow-Bold" font-weight="bold" font-size="30.0" fill="#000000" transform="matrix(1.00, 0.00, -0.00, -1.00, 433.6, 490.0)">a</text><text xml:space="preserve" font-family="ArialNarrow-Bold" font-weight="bold" font-size="30.0" fill="#000000" transform="matrix(1.00, 0.00, -0.00, -1.00, 447.3, 490.0)">l</text><text xml:space="preserve" font-family="ArialNarrow-Bold" font-weight="bold" font-size="30.0" fill="#000000" transform="matrix(1.00, 0.00, -0.00, -1.00, 454.1, 490.0)">o</text><text xml:space="preserve" font-family="ArialNarrow-Bold" font-weight="bold" font-size="30.0" fill="#000000" transform="matrix(1.00, 0.00, -0.00, -1.00, 469.1, 490.0)">n</text><text xml:space="preserve" font-family="ArialNarrow-Bold" font-weight="bold" font-size="30.0" fill="#000000" transform="matrix(1.00, 0.00, -0.00, -1.00, 484.2, 490.0)">g</text><text xml:space="preserve" font-family="ArialNarrow-Bold" font-weight="bold" font-size="30.0" fill="#000000" transform="matrix(1.00, 0.00, -0.00, -1.00, 499.2, 490.0)"> </text><text xml:space="preserve" font-family="ArialNarrow-Bold" font-weight="bold" font-size="30.0" fill="#000000" transform="matrix(1.00, 0.00, -0.00, -1.00, 506.0, 490.0)">s</text><text xml:space="preserve" font-family="ArialNarrow-Bold" font-weight="bold" font-size="30.0" fill="#000000" transform="matrix(1.00, 0.00, -0.00, -1.00, 519.7, 490.0)">t</text><text xml:space="preserve" font-family="ArialNarrow-Bold" font-weight="bold" font-size="30.0" fill="#000000" transform="matrix(1.00, 0.00, -0.00, -1.00, 527.9, 490.0)">r</text><text xml:space="preserve" font-family="ArialNarrow-Bold" font-weight="bold" font-size="30.0" fill="#000000" transform="matrix(1.00, 0.00, -0.00, -1.00, 537.5, 490.0)">e</text><text xml:space="preserve" font-family="ArialNarrow-Bold" font-weight="bold" font-size="30.0" fill="#000000" transform="matrix(1.00, 0.00, -0.00, -1.00, 551.2, 490.0)">a</text><text xml:space="preserve" font-family="ArialNarrow-Bold" font-weight="bold" font-size="30.0" fill="#000000" transform="matrix(1.00, 0.00, -0.00, -1.00, 564.8, 490.0)">m</text><text xml:space="preserve" font-family="ArialNarrow-Bold" font-weight="bold" font-size="30.0" fill="#000000" transform="matrix(1.00, 0.00, -0.00, -1.00, 586.7, 490.0)">s</text><path d="M 0.0 0.0 L 0.1 32.5 L 0.1 34.0 " fill="none" stroke="#FF2600" stroke-width="3.00" stroke-linejoin="round" transform="matrix(1.00, 0.00, 0.00, -1.00, 566.5, 422.2)"></path><path d="M 571.3 389.7 L 566.6 380.2 L 561.9 389.7 Z M 571.3 389.7 " fill="#FF2600"></path><text xml:space="preserve" font-family="ArialNarrow-Bold" font-weight="bold" font-size="24.0" fill="#FF280F" transform="matrix(1.00, 0.00, -0.00, -1.00, 551.0, 442.0)">C</text><text xml:space="preserve" font-family="ArialNarrow-Bold" font-weight="bold" font-size="24.0" fill="#FF280F" transform="matrix(1.00, 0.00, -0.00, -1.00, 565.2, 442.0)">h</text><text xml:space="preserve" font-family="ArialNarrow-Bold" font-weight="bold" font-size="24.0" fill="#FF280F" transform="matrix(1.00, 0.00, -0.00, -1.00, 577.2, 442.0)">y</text><text xml:space="preserve" font-family="ArialNarrow-Bold" font-weight="bold" font-size="24.0" fill="#FF280F" transform="matrix(1.00, 0.00, -0.00, -1.00, 588.2, 442.0)">t</text><text xml:space="preserve" font-family="ArialNarrow-Bold" font-weight="bold" font-size="24.0" fill="#FF280F" transform="matrix(1.00, 0.00, -0.00, -1.00, 594.7, 442.0)">r</text><text xml:space="preserve" font-family="ArialNarrow-Bold" font-weight="bold" font-size="24.0" fill="#FF280F" transform="matrix(1.00, 0.00, -0.00, -1.00, 602.4, 442.0)">i</text><text xml:space="preserve" font-family="ArialNarrow-Bold" font-weight="bold" font-size="24.0" fill="#FF280F" transform="matrix(1.00, 0.00, -0.00, -1.00, 607.8, 442.0)">d</text><text xml:space="preserve" font-family="ArialNarrow-Bold" font-weight="bold" font-size="24.0" fill="#FF280F" transform="matrix(1.00, 0.00, -0.00, -1.00, 619.9, 442.0)"> </text><text xml:space="preserve" font-family="ArialNarrow-Bold" font-weight="bold" font-size="24.0" fill="#FF280F" transform="matrix(1.00, 0.00, -0.00, -1.00, 625.3, 442.0)">e</text><text xml:space="preserve" font-family="ArialNarrow-Bold" font-weight="bold" font-size="24.0" fill="#FF280F" transform="matrix(1.00, 0.00, -0.00, -1.00, 636.3, 442.0)">m</text><text xml:space="preserve" font-family="ArialNarrow-Bold" font-weight="bold" font-size="24.0" fill="#FF280F" transform="matrix(1.00, 0.00, -0.00, -1.00, 653.8, 442.0)">e</text><text xml:space="preserve" font-family="ArialNarrow-Bold" font-weight="bold" font-size="24.0" fill="#FF280F" transform="matrix(1.00, 0.00, -0.00, -1.00, 664.7, 442.0)">r</text><text xml:space="preserve" font-family="ArialNarrow-Bold" font-weight="bold" font-size="24.0" fill="#FF280F" transform="matrix(1.00, 0.00, -0.00, -1.00, 672.4, 442.0)">g</text><text xml:space="preserve" font-family="ArialNarrow-Bold" font-weight="bold" font-size="24.0" fill="#FF280F" transform="matrix(1.00, 0.00, -0.00, -1.00, 684.4, 442.0)">e</text><text xml:space="preserve" font-family="ArialNarrow-Bold" font-weight="bold" font-size="24.0" fill="#FF280F" transform="matrix(1.00, 0.00, -0.00, -1.00, 695.3, 442.0)">s</text><text xml:space="preserve" font-family="ArialNarrow-Bold" font-weight="bold" font-size="24.0" fill="#FF280F" transform="matrix(1.00, 0.00, -0.00, -1.00, 706.3, 442.0)"> </text></g></svg>