<?xml version="1.0" encoding="UTF-8" standalone="no"?><svg xmlns="http://www.w3.org/2000/svg" xmlns:xlink="http://www.w3.org/1999/xlink" clip-rule="evenodd" stroke-miterlimit="10" viewBox="0 0 1024 768"><desc>SVG generated by Keynote</desc><defs></defs><g transform="matrix(1.00, 0.00, -0.00, -1.00, 0.0, 768.0)"><path d="M 0.0 768.0 L 1024.0 768.0 L 1024.0 0.0 L 0.0 0.0 Z M 0.0 768.0 " fill="#FEFFFF"></path><text xml:space="preserve" font-family="ArialMT,Arial" font-size="62.0" fill="#000000" transform="matrix(1.00, 0.00, -0.00, -1.00, 432.8, 614.8)">F</text><text xml:space="preserve" font-family="ArialMT,Arial" font-size="62.0" fill="#000000" transform="matrix(1.00, 0.00, -0.00, -1.00, 470.6, 614.8)">r</text><text xml:space="preserve" font-family="ArialMT,Arial" font-size="62.0" fill="#000000" transform="matrix(1.00, 0.00, -0.00, -1.00, 491.3, 614.8)">o</text><text xml:space="preserve" font-family="ArialMT,Arial" font-size="62.0" fill="#000000" transform="matrix(1.00, 0.00, -0.00, -1.00, 525.8, 614.8)">g</text><text xml:space="preserve" font-family="ArialMT,Arial" font-size="62.0" fill="#000000" transform="matrix(1.00, 0.00, -0.00, -1.00, 560.3, 614.8)">s</text><text xml:space="preserve" font-family="ArialMT,Arial" font-size="44.0" fill="#000000" transform="matrix(1.00, 0.00, -0.00, -1.00, 85.7, 501.2)">•</text><text xml:space="preserve" font-family="ArialMT,Arial" font-size="44.0" fill="#000000" transform="matrix(1.00, 0.00, -0.00, -1.00, 122.8, 501.2)">T</text><text xml:space="preserve" font-family="ArialMT,Arial" font-size="44.0" fill="#000000" transform="matrix(1.00, 0.00, -0.00, -1.00, 144.8, 501.2)">a</text><text xml:space="preserve" font-family="ArialMT,Arial" font-size="44.0" fill="#000000" transform="matrix(1.00, 0.00, -0.00, -1.00, 169.3, 501.2)">d</text><text xml:space="preserve" font-family="ArialMT,Arial" font-size="44.0" fill="#000000" transform="matrix(1.00, 0.00, -0.00, -1.00, 193.8, 501.2)">p</text><text xml:space="preserve" font-family="ArialMT,Arial" font-size="44.0" fill="#000000" transform="matrix(1.00, 0.00, -0.00, -1.00, 218.2, 501.2)">o</text><text xml:space="preserve" font-family="ArialMT,Arial" font-size="44.0" fill="#000000" transform="matrix(1.00, 0.00, -0.00, -1.00, 242.7, 501.2)">l</text><text xml:space="preserve" font-family="ArialMT,Arial" font-size="44.0" fill="#000000" transform="matrix(1.00, 0.00, -0.00, -1.00, 252.5, 501.2)">e</text><text xml:space="preserve" font-family="ArialMT,Arial" font-size="44.0" fill="#000000" transform="matrix(1.00, 0.00, -0.00, -1.00, 277.0, 501.2)">s</text><text xml:space="preserve" font-family="ArialMT,Arial" font-size="44.0" fill="#000000" transform="matrix(1.00, 0.00, -0.00, -1.00, 299.0, 501.2)">,</text><text xml:space="preserve" font-family="ArialMT,Arial" font-size="44.0" fill="#000000" transform="matrix(1.00, 0.00, -0.00, -1.00, 311.2, 501.2)"> </text><text xml:space="preserve" font-family="ArialMT,Arial" font-size="44.0" fill="#000000" transform="matrix(1.00, 0.00, -0.00, -1.00, 323.4, 501.2)">P</text><text xml:space="preserve" font-family="ArialMT,Arial" font-size="44.0" fill="#000000" transform="matrix(1.00, 0.00, -0.00, -1.00, 352.8, 501.2)">i</text><text xml:space="preserve" font-family="ArialMT,Arial" font-size="44.0" fill="#000000" transform="matrix(1.00, 0.00, -0.00, -1.00, 362.6, 501.2)">p</text><text xml:space="preserve" font-family="ArialMT,Arial" font-size="44.0" fill="#000000" transform="matrix(1.00, 0.00, -0.00, -1.00, 387.0, 501.2)">i</text><text xml:space="preserve" font-family="ArialMT,Arial" font-size="44.0" fill="#000000" transform="matrix(1.00, 0.00, -0.00, -1.00, 396.8, 501.2)">d</text><text xml:space="preserve" font-family="ArialMT,Arial" font-size="44.0" fill="#000000" transform="matrix(1.00, 0.00, -0.00, -1.00, 421.3, 501.2)">a</text><text xml:space="preserve" font-family="ArialMT,Arial" font-size="44.0" fill="#000000" transform="matrix(1.00, 0.00, -0.00, -1.00, 445.8, 501.2)">e</text><text xml:space="preserve" font-family="ArialMT,Arial" font-size="44.0" fill="#000000" transform="matrix(1.00, 0.00, -0.00, -1.00, 470.3, 501.2)"> </text><text xml:space="preserve" font-family="ArialMT,Arial" font-size="44.0" fill="#000000" transform="matrix(1.00, 0.00, -0.00, -1.00, 482.5, 501.2)">u</text><text xml:space="preserve" font-family="ArialMT,Arial" font-size="44.0" fill="#000000" transform="matrix(1.00, 0.00, -0.00, -1.00, 506.9, 501.2)">s</text><text xml:space="preserve" font-family="ArialMT,Arial" font-size="44.0" fill="#000000" transform="matrix(1.00, 0.00, -0.00, -1.00, 528.9, 501.2)">e</text><text xml:space="preserve" font-family="ArialMT,Arial" font-size="44.0" fill="#000000" transform="matrix(1.00, 0.00, -0.00, -1.00, 553.4, 501.2)"> </text><text xml:space="preserve" font-family="ArialMT,Arial" font-size="44.0" fill="#000000" transform="matrix(1.00, 0.00, -0.00, -1.00, 565.6, 501.2)">s</text><text xml:space="preserve" font-family="ArialMT,Arial" font-size="44.0" fill="#000000" transform="matrix(1.00, 0.00, -0.00, -1.00, 587.6, 501.2)">u</text><text xml:space="preserve" font-family="ArialMT,Arial" font-size="44.0" fill="#000000" transform="matrix(1.00, 0.00, -0.00, -1.00, 612.1, 501.2)">c</text><text xml:space="preserve" font-family="ArialMT,Arial" font-size="44.0" fill="#000000" transform="matrix(1.00, 0.00, -0.00, -1.00, 634.1, 501.2)">t</text><text xml:space="preserve" font-family="ArialMT,Arial" font-size="44.0" fill="#000000" transform="matrix(1.00, 0.00, -0.00, -1.00, 646.3, 501.2)">i</text><text xml:space="preserve" font-family="ArialMT,Arial" font-size="44.0" fill="#000000" transform="matrix(1.00, 0.00, -0.00, -1.00, 656.1, 501.2)">o</text><text xml:space="preserve" font-family="ArialMT,Arial" font-size="44.0" fill="#000000" transform="matrix(1.00, 0.00, -0.00, -1.00, 680.6, 501.2)">n</text><text xml:space="preserve" font-family="ArialMT,Arial" font-size="44.0" fill="#000000" transform="matrix(1.00, 0.00, -0.00, -1.00, 705.1, 501.2)"> </text><text xml:space="preserve" font-family="ArialMT,Arial" font-size="44.0" fill="#000000" transform="matrix(1.00, 0.00, -0.00, -1.00, 717.3, 501.2)">f</text><text xml:space="preserve" font-family="ArialMT,Arial" font-size="44.0" fill="#000000" transform="matrix(1.00, 0.00, -0.00, -1.00, 729.5, 501.2)">e</text><text xml:space="preserve" font-family="ArialMT,Arial" font-size="44.0" fill="#000000" transform="matrix(1.00, 0.00, -0.00, -1.00, 754.0, 501.2)">e</text><text xml:space="preserve" font-family="ArialMT,Arial" font-size="44.0" fill="#000000" transform="matrix(1.00, 0.00, -0.00, -1.00, 778.5, 501.2)">d</text><text xml:space="preserve" font-family="ArialMT,Arial" font-size="44.0" fill="#000000" transform="matrix(1.00, 0.00, -0.00, -1.00, 803.0, 501.2)">i</text><text xml:space="preserve" font-family="ArialMT,Arial" font-size="44.0" fill="#000000" transform="matrix(1.00, 0.00, -0.00, -1.00, 812.7, 501.2)">n</text><text xml:space="preserve" font-family="ArialMT,Arial" font-size="44.0" fill="#000000" transform="matrix(1.00, 0.00, -0.00, -1.00, 837.2, 501.2)">g</text><text xml:space="preserve" font-family="ArialMT,Arial" font-size="44.0" fill="#000000" transform="matrix(1.00, 0.00, -0.00, -1.00, 861.7, 501.2)"> </text><text xml:space="preserve" font-family="ArialMT,Arial" font-size="44.0" fill="#000000" transform="matrix(1.00, 0.00, -0.00, -1.00, 85.7, 443.8)">•</text><text xml:space="preserve" font-family="ArialMT,Arial" font-size="44.0" fill="#000000" transform="matrix(1.00, 0.00, -0.00, -1.00, 122.8, 443.8)">T</text><text xml:space="preserve" font-family="ArialMT,Arial" font-size="44.0" fill="#000000" transform="matrix(1.00, 0.00, -0.00, -1.00, 144.8, 443.8)">a</text><text xml:space="preserve" font-family="ArialMT,Arial" font-size="44.0" fill="#000000" transform="matrix(1.00, 0.00, -0.00, -1.00, 169.3, 443.8)">d</text><text xml:space="preserve" font-family="ArialMT,Arial" font-size="44.0" fill="#000000" transform="matrix(1.00, 0.00, -0.00, -1.00, 193.8, 443.8)">p</text><text xml:space="preserve" font-family="ArialMT,Arial" font-size="44.0" fill="#000000" transform="matrix(1.00, 0.00, -0.00, -1.00, 218.2, 443.8)">o</text><text xml:space="preserve" font-family="ArialMT,Arial" font-size="44.0" fill="#000000" transform="matrix(1.00, 0.00, -0.00, -1.00, 242.7, 443.8)">l</text><text xml:space="preserve" font-family="ArialMT,Arial" font-size="44.0" fill="#000000" transform="matrix(1.00, 0.00, -0.00, -1.00, 252.5, 443.8)">e</text><text xml:space="preserve" font-family="ArialMT,Arial" font-size="44.0" fill="#000000" transform="matrix(1.00, 0.00, -0.00, -1.00, 277.0, 443.8)">s</text><text xml:space="preserve" font-family="ArialMT,Arial" font-size="44.0" fill="#000000" transform="matrix(1.00, 0.00, -0.00, -1.00, 299.0, 443.8)"> </text><text xml:space="preserve" font-family="ArialMT,Arial" font-size="44.0" fill="#000000" transform="matrix(1.00, 0.00, -0.00, -1.00, 311.2, 443.8)">a</text><text xml:space="preserve" font-family="ArialMT,Arial" font-size="44.0" fill="#000000" transform="matrix(1.00, 0.00, -0.00, -1.00, 335.7, 443.8)">r</text><text xml:space="preserve" font-family="ArialMT,Arial" font-size="44.0" fill="#000000" transform="matrix(1.00, 0.00, -0.00, -1.00, 350.3, 443.8)">e</text><text xml:space="preserve" font-family="ArialMT,Arial" font-size="44.0" fill="#000000" transform="matrix(1.00, 0.00, -0.00, -1.00, 374.8, 443.8)"> </text><text xml:space="preserve" font-family="ArialMT,Arial" font-size="44.0" fill="#000000" transform="matrix(1.00, 0.00, -0.00, -1.00, 387.0, 443.8)">f</text><text xml:space="preserve" font-family="ArialMT,Arial" font-size="44.0" fill="#000000" transform="matrix(1.00, 0.00, -0.00, -1.00, 399.2, 443.8)">i</text><text xml:space="preserve" font-family="ArialMT,Arial" font-size="44.0" fill="#000000" transform="matrix(1.00, 0.00, -0.00, -1.00, 409.0, 443.8)">l</text><text xml:space="preserve" font-family="ArialMT,Arial" font-size="44.0" fill="#000000" transform="matrix(1.00, 0.00, -0.00, -1.00, 418.8, 443.8)">t</text><text xml:space="preserve" font-family="ArialMT,Arial" font-size="44.0" fill="#000000" transform="matrix(1.00, 0.00, -0.00, -1.00, 431.0, 443.8)">e</text><text xml:space="preserve" font-family="ArialMT,Arial" font-size="44.0" fill="#000000" transform="matrix(1.00, 0.00, -0.00, -1.00, 455.5, 443.8)">r</text><text xml:space="preserve" font-family="ArialMT,Arial" font-size="44.0" fill="#000000" transform="matrix(1.00, 0.00, -0.00, -1.00, 470.2, 443.8)"> </text><text xml:space="preserve" font-family="ArialMT,Arial" font-size="44.0" fill="#000000" transform="matrix(1.00, 0.00, -0.00, -1.00, 482.4, 443.8)">f</text><text xml:space="preserve" font-family="ArialMT,Arial" font-size="44.0" fill="#000000" transform="matrix(1.00, 0.00, -0.00, -1.00, 494.6, 443.8)">e</text><text xml:space="preserve" font-family="ArialMT,Arial" font-size="44.0" fill="#000000" transform="matrix(1.00, 0.00, -0.00, -1.00, 519.1, 443.8)">e</text><text xml:space="preserve" font-family="ArialMT,Arial" font-size="44.0" fill="#000000" transform="matrix(1.00, 0.00, -0.00, -1.00, 543.6, 443.8)">d</text><text xml:space="preserve" font-family="ArialMT,Arial" font-size="44.0" fill="#000000" transform="matrix(1.00, 0.00, -0.00, -1.00, 568.0, 443.8)">e</text><text xml:space="preserve" font-family="ArialMT,Arial" font-size="44.0" fill="#000000" transform="matrix(1.00, 0.00, -0.00, -1.00, 592.5, 443.8)">r</text><text xml:space="preserve" font-family="ArialMT,Arial" font-size="44.0" fill="#000000" transform="matrix(1.00, 0.00, -0.00, -1.00, 607.2, 443.8)">s</text><text xml:space="preserve" font-family="ArialMT,Arial" font-size="44.0" fill="#000000" transform="matrix(1.00, 0.00, -0.00, -1.00, 629.2, 443.8)"> </text><text xml:space="preserve" font-family="ArialMT,Arial" font-size="38.0" fill="#000000" transform="matrix(1.00, 0.00, -0.00, -1.00, 121.7, 392.9)">–</text><text xml:space="preserve" font-family="ArialMT,Arial" font-size="38.0" fill="#000000" transform="matrix(1.00, 0.00, -0.00, -1.00, 152.2, 392.9)">U</text><text xml:space="preserve" font-family="ArialMT,Arial" font-size="38.0" fill="#000000" transform="matrix(1.00, 0.00, -0.00, -1.00, 179.7, 392.9)">n</text><text xml:space="preserve" font-family="ArialMT,Arial" font-size="38.0" fill="#000000" transform="matrix(1.00, 0.00, -0.00, -1.00, 200.8, 392.9)">i</text><text xml:space="preserve" font-family="ArialMT,Arial" font-size="38.0" fill="#000000" transform="matrix(1.00, 0.00, -0.00, -1.00, 209.3, 392.9)">d</text><text xml:space="preserve" font-family="ArialMT,Arial" font-size="38.0" fill="#000000" transform="matrix(1.00, 0.00, -0.00, -1.00, 230.4, 392.9)">i</text><text xml:space="preserve" font-family="ArialMT,Arial" font-size="38.0" fill="#000000" transform="matrix(1.00, 0.00, -0.00, -1.00, 238.9, 392.9)">r</text><text xml:space="preserve" font-family="ArialMT,Arial" font-size="38.0" fill="#000000" transform="matrix(1.00, 0.00, -0.00, -1.00, 251.5, 392.9)">e</text><text xml:space="preserve" font-family="ArialMT,Arial" font-size="38.0" fill="#000000" transform="matrix(1.00, 0.00, -0.00, -1.00, 272.7, 392.9)">c</text><text xml:space="preserve" font-family="ArialMT,Arial" font-size="38.0" fill="#000000" transform="matrix(1.00, 0.00, -0.00, -1.00, 291.7, 392.9)">t</text><text xml:space="preserve" font-family="ArialMT,Arial" font-size="38.0" fill="#000000" transform="matrix(1.00, 0.00, -0.00, -1.00, 302.2, 392.9)">i</text><text xml:space="preserve" font-family="ArialMT,Arial" font-size="38.0" fill="#000000" transform="matrix(1.00, 0.00, -0.00, -1.00, 310.7, 392.9)">o</text><text xml:space="preserve" font-family="ArialMT,Arial" font-size="38.0" fill="#000000" transform="matrix(1.00, 0.00, -0.00, -1.00, 331.8, 392.9)">n</text><text xml:space="preserve" font-family="ArialMT,Arial" font-size="38.0" fill="#000000" transform="matrix(1.00, 0.00, -0.00, -1.00, 352.9, 392.9)">a</text><text xml:space="preserve" font-family="ArialMT,Arial" font-size="38.0" fill="#000000" transform="matrix(1.00, 0.00, -0.00, -1.00, 374.1, 392.9)">l</text><text xml:space="preserve" font-family="ArialMT,Arial" font-size="38.0" fill="#000000" transform="matrix(1.00, 0.00, -0.00, -1.00, 382.5, 392.9)"> </text><text xml:space="preserve" font-family="ArialMT,Arial" font-size="38.0" fill="#000000" transform="matrix(1.00, 0.00, -0.00, -1.00, 121.7, 343.5)">–</text><text xml:space="preserve" font-family="ArialMT,Arial" font-size="38.0" fill="#000000" transform="matrix(1.00, 0.00, -0.00, -1.00, 152.2, 343.5)">C</text><text xml:space="preserve" font-family="ArialMT,Arial" font-size="38.0" fill="#000000" transform="matrix(1.00, 0.00, -0.00, -1.00, 179.7, 343.5)">o</text><text xml:space="preserve" font-family="ArialMT,Arial" font-size="38.0" fill="#000000" transform="matrix(1.00, 0.00, -0.00, -1.00, 200.8, 343.5)">n</text><text xml:space="preserve" font-family="ArialMT,Arial" font-size="38.0" fill="#000000" transform="matrix(1.00, 0.00, -0.00, -1.00, 222.0, 343.5)">t</text><text xml:space="preserve" font-family="ArialMT,Arial" font-size="38.0" fill="#000000" transform="matrix(1.00, 0.00, -0.00, -1.00, 232.5, 343.5)">i</text><text xml:space="preserve" font-family="ArialMT,Arial" font-size="38.0" fill="#000000" transform="matrix(1.00, 0.00, -0.00, -1.00, 241.0, 343.5)">n</text><text xml:space="preserve" font-family="ArialMT,Arial" font-size="38.0" fill="#000000" transform="matrix(1.00, 0.00, -0.00, -1.00, 262.1, 343.5)">u</text><text xml:space="preserve" font-family="ArialMT,Arial" font-size="38.0" fill="#000000" transform="matrix(1.00, 0.00, -0.00, -1.00, 283.2, 343.5)">o</text><text xml:space="preserve" font-family="ArialMT,Arial" font-size="38.0" fill="#000000" transform="matrix(1.00, 0.00, -0.00, -1.00, 304.4, 343.5)">u</text><text xml:space="preserve" font-family="ArialMT,Arial" font-size="38.0" fill="#000000" transform="matrix(1.00, 0.00, -0.00, -1.00, 325.5, 343.5)">s</text><text xml:space="preserve" font-family="ArialMT,Arial" font-size="38.0" fill="#000000" transform="matrix(1.00, 0.00, -0.00, -1.00, 344.5, 343.5)"> </text><text xml:space="preserve" font-family="ArialMT,Arial" font-size="38.0" fill="#000000" transform="matrix(1.00, 0.00, -0.00, -1.00, 355.1, 343.5)">f</text><text xml:space="preserve" font-family="ArialMT,Arial" font-size="38.0" fill="#000000" transform="matrix(1.00, 0.00, -0.00, -1.00, 365.6, 343.5)">l</text><text xml:space="preserve" font-family="ArialMT,Arial" font-size="38.0" fill="#000000" transform="matrix(1.00, 0.00, -0.00, -1.00, 374.1, 343.5)">o</text><text xml:space="preserve" font-family="ArialMT,Arial" font-size="38.0" fill="#000000" transform="matrix(1.00, 0.00, -0.00, -1.00, 395.2, 343.5)">w</text><image xlink:href="../../7199ED89-EC3F-421C-800C-6A62167353B2/assets/F2FFBEF4BAE5889CC3B46CAC61BED3A4.jpeg" width="2168.00" height="981.00" transform="matrix(0.34, 0.00, -0.00, -0.34, 538.0, 367.0)"></image><path d="M 503.0 43.0 L 1024.0 43.0 L 1024.0 0.0 L 503.0 0.0 Z M 503.5 42.7 " fill="#FEFFFF"></path><path d="M 486.0 384.0 L 572.0 384.0 L 572.0 17.0 L 486.0 17.0 Z M 486.4 384.0 " fill="#FEFFFF"></path><path d="M 529.0 393.0 L 1024.0 393.0 L 1024.0 282.0 L 529.0 282.0 Z M 529.1 392.5 " fill="#FEFFFF"></path></g></svg>