<?xml version="1.0" encoding="UTF-8" standalone="no"?><svg xmlns="http://www.w3.org/2000/svg" xmlns:xlink="http://www.w3.org/1999/xlink" clip-rule="evenodd" stroke-miterlimit="4.00" viewBox="0 0 1024 768"><desc>SVG generated by Keynote</desc><defs></defs><g transform="matrix(1.00, 0.00, -0.00, -1.00, 0.0, 768.0)"><g><clipPath id="clip-212"><path d="M 0.0 768.0 L 1024.0 768.0 L 1024.0 0.0 L 0.0 0.0 Z M 0.0 768.0 "></path></clipPath><g clip-path="url(#clip-212)"><image xlink:href="../../C9BB2F21-7097-4279-8A02-40FCEE817F8A/assets/5E504543DA7BCE62C2A0475F0A9742EF.jpeg" width="1365.00" height="767.00" transform="matrix(2.81, 0.00, -0.00, -2.82, -1408.0, 1464.0)"></image></g></g><path d="M 0.0 0.0 L 980.0 0.0 L 980.0 726.0 L 0.0 726.0 Z M 0.0 0.0 " fill="none" stroke="#A2A0A6" stroke-width="2.00" transform="matrix(1.00, 0.00, 0.00, -1.00, 22.3, 746.0)"></path><path d="M 0.0 0.0 L 981.1 0.0 " fill="none" stroke="#A2A0A6" stroke-width="2.00" transform="matrix(1.00, 0.00, 0.00, -1.00, 21.9, 110.0)"></path><g><clipPath id="clip-213"><path d="M 677.0 425.0 L 995.0 425.0 L 995.0 117.0 L 677.0 117.0 Z M 677.0 425.0 "></path></clipPath><g clip-path="url(#clip-213)"><image xlink:href="../../E1BB2F21-7097-4279-8A02-40FCEE817F8A/assets/AFB9AA08968B5A37100ED3D5F1C8768A.jpeg" width="411.00" height="308.00" transform="matrix(1.00, 0.00, -0.00, -1.00, 631.0, 425.0)"></image></g></g><g><clipPath id="clip-214"><path d="M 29.0 739.0 L 670.0 739.0 L 670.0 117.0 L 29.0 117.0 Z M 29.0 739.0 "></path></clipPath><g clip-path="url(#clip-214)"><image xlink:href="../../E1BB2F21-7097-4279-8A02-40FCEE817F8A/assets/8B22EEA03C28AF359035AFCBECC1B0EB.jpeg" width="830.00" height="622.00" transform="matrix(1.00, 0.00, -0.00, -1.00, -65.0, 739.0)"></image></g></g><g><clipPath id="clip-215"><path d="M 677.0 739.0 L 995.0 739.0 L 995.0 431.0 L 677.0 431.0 Z M 677.0 739.0 "></path></clipPath><g clip-path="url(#clip-215)"><image xlink:href="../../E1BB2F21-7097-4279-8A02-40FCEE817F8A/assets/126CA81305899E63BFC48B59D8C490B8.jpeg" width="411.00" height="308.00" transform="matrix(1.00, 0.00, -0.00, -1.00, 631.0, 739.0)"></image></g></g></g></svg>