<?xml version="1.0" encoding="UTF-8" standalone="no"?><svg xmlns="http://www.w3.org/2000/svg" xmlns:xlink="http://www.w3.org/1999/xlink" clip-rule="evenodd" stroke-miterlimit="4.00" viewBox="0 0 832 40"><desc>SVG generated by Keynote</desc><defs></defs><g transform="matrix(1.00, 0.00, -0.00, -1.00, 0.0, 40.0)"><text xml:space="preserve" font-family="Georgia" font-size="38.0" fill="#FFA900" transform="matrix(1.00, 0.00, -0.00, -1.00, 0.0, 9.0)">D</text><text xml:space="preserve" font-family="Georgia" font-size="38.0" fill="#FFA900" transform="matrix(1.00, 0.00, -0.00, -1.00, 28.5, 9.0)">i</text><text xml:space="preserve" font-family="Georgia" font-size="38.0" fill="#FFA900" transform="matrix(1.00, 0.00, -0.00, -1.00, 39.6, 9.0)">f</text><text xml:space="preserve" font-family="Georgia" font-size="38.0" fill="#FFA900" transform="matrix(1.00, 0.00, -0.00, -1.00, 52.0, 9.0)">f</text><text xml:space="preserve" font-family="Georgia" font-size="38.0" fill="#FFA900" transform="matrix(1.00, 0.00, -0.00, -1.00, 64.3, 9.0)">e</text><text xml:space="preserve" font-family="Georgia" font-size="38.0" fill="#FFA900" transform="matrix(1.00, 0.00, -0.00, -1.00, 82.7, 9.0)">r</text><text xml:space="preserve" font-family="Georgia" font-size="38.0" fill="#FFA900" transform="matrix(1.00, 0.00, -0.00, -1.00, 98.3, 9.0)">e</text><text xml:space="preserve" font-family="Georgia" font-size="38.0" fill="#FFA900" transform="matrix(1.00, 0.00, -0.00, -1.00, 116.7, 9.0)">n</text><text xml:space="preserve" font-family="Georgia" font-size="38.0" fill="#FFA900" transform="matrix(1.00, 0.00, -0.00, -1.00, 139.1, 9.0)">t</text><text xml:space="preserve" font-family="Georgia" font-size="38.0" fill="#FFA900" transform="matrix(1.00, 0.00, -0.00, -1.00, 152.2, 9.0)"> </text><text xml:space="preserve" font-family="Georgia" font-size="38.0" fill="#FFA900" transform="matrix(1.00, 0.00, -0.00, -1.00, 161.4, 9.0)">r</text><text xml:space="preserve" font-family="Georgia" font-size="38.0" fill="#FFA900" transform="matrix(1.00, 0.00, -0.00, -1.00, 176.9, 9.0)">e</text><text xml:space="preserve" font-family="Georgia" font-size="38.0" fill="#FFA900" transform="matrix(1.00, 0.00, -0.00, -1.00, 195.3, 9.0)">s</text><text xml:space="preserve" font-family="Georgia" font-size="38.0" fill="#FFA900" transform="matrix(1.00, 0.00, -0.00, -1.00, 211.8, 9.0)">p</text><text xml:space="preserve" font-family="Georgia" font-size="38.0" fill="#FFA900" transform="matrix(1.00, 0.00, -0.00, -1.00, 233.5, 9.0)">o</text><text xml:space="preserve" font-family="Georgia" font-size="38.0" fill="#FFA900" transform="matrix(1.00, 0.00, -0.00, -1.00, 254.0, 9.0)">n</text><text xml:space="preserve" font-family="Georgia" font-size="38.0" fill="#FFA900" transform="matrix(1.00, 0.00, -0.00, -1.00, 276.4, 9.0)">s</text><text xml:space="preserve" font-family="Georgia" font-size="38.0" fill="#FFA900" transform="matrix(1.00, 0.00, -0.00, -1.00, 292.8, 9.0)">e</text><text xml:space="preserve" font-family="Georgia" font-size="38.0" fill="#FFA900" transform="matrix(1.00, 0.00, -0.00, -1.00, 311.2, 9.0)">s</text><text xml:space="preserve" font-family="Georgia" font-size="38.0" fill="#FFA900" transform="matrix(1.00, 0.00, -0.00, -1.00, 327.6, 9.0)"> </text><text xml:space="preserve" font-family="Georgia" font-size="38.0" fill="#FFA900" transform="matrix(1.00, 0.00, -0.00, -1.00, 336.8, 9.0)">t</text><text xml:space="preserve" font-family="Georgia" font-size="38.0" fill="#FFA900" transform="matrix(1.00, 0.00, -0.00, -1.00, 349.9, 9.0)">o</text><text xml:space="preserve" font-family="Georgia" font-size="38.0" fill="#FFA900" transform="matrix(1.00, 0.00, -0.00, -1.00, 370.4, 9.0)"> </text><text xml:space="preserve" font-family="Georgia" font-size="38.0" fill="#FFA900" transform="matrix(1.00, 0.00, -0.00, -1.00, 379.6, 9.0)">c</text><text xml:space="preserve" font-family="Georgia" font-size="38.0" fill="#FFA900" transform="matrix(1.00, 0.00, -0.00, -1.00, 396.9, 9.0)">h</text><text xml:space="preserve" font-family="Georgia" font-size="38.0" fill="#FFA900" transform="matrix(1.00, 0.00, -0.00, -1.00, 419.0, 9.0)">y</text><text xml:space="preserve" font-family="Georgia" font-size="38.0" fill="#FFA900" transform="matrix(1.00, 0.00, -0.00, -1.00, 437.7, 9.0)">t</text><text xml:space="preserve" font-family="Georgia" font-size="38.0" fill="#FFA900" transform="matrix(1.00, 0.00, -0.00, -1.00, 450.8, 9.0)">r</text><text xml:space="preserve" font-family="Georgia" font-size="38.0" fill="#FFA900" transform="matrix(1.00, 0.00, -0.00, -1.00, 466.4, 9.0)">i</text><text xml:space="preserve" font-family="Georgia" font-size="38.0" fill="#FFA900" transform="matrix(1.00, 0.00, -0.00, -1.00, 477.5, 9.0)">d</text><text xml:space="preserve" font-family="Georgia" font-size="38.0" fill="#FFA900" transform="matrix(1.00, 0.00, -0.00, -1.00, 499.3, 9.0)"> </text><text xml:space="preserve" font-family="Georgia" font-size="38.0" fill="#FFA900" transform="matrix(1.00, 0.00, -0.00, -1.00, 508.5, 9.0)">a</text><text xml:space="preserve" font-family="Georgia" font-size="38.0" fill="#FFA900" transform="matrix(1.00, 0.00, -0.00, -1.00, 527.7, 9.0)">m</text><text xml:space="preserve" font-family="Georgia" font-size="38.0" fill="#FFA900" transform="matrix(1.00, 0.00, -0.00, -1.00, 561.1, 9.0)">o</text><text xml:space="preserve" font-family="Georgia" font-size="38.0" fill="#FFA900" transform="matrix(1.00, 0.00, -0.00, -1.00, 581.6, 9.0)">n</text><text xml:space="preserve" font-family="Georgia" font-size="38.0" fill="#FFA900" transform="matrix(1.00, 0.00, -0.00, -1.00, 604.1, 9.0)">g</text><text xml:space="preserve" font-family="Georgia" font-size="38.0" fill="#FFA900" transform="matrix(1.00, 0.00, -0.00, -1.00, 623.4, 9.0)"> </text><text xml:space="preserve" font-family="Georgia" font-size="38.0" fill="#FFA900" transform="matrix(1.00, 0.00, -0.00, -1.00, 632.6, 9.0)">p</text><text xml:space="preserve" font-family="Georgia" font-size="38.0" fill="#FFA900" transform="matrix(1.00, 0.00, -0.00, -1.00, 654.3, 9.0)">o</text><text xml:space="preserve" font-family="Georgia" font-size="38.0" fill="#FFA900" transform="matrix(1.00, 0.00, -0.00, -1.00, 674.8, 9.0)">p</text><text xml:space="preserve" font-family="Georgia" font-size="38.0" fill="#FFA900" transform="matrix(1.00, 0.00, -0.00, -1.00, 696.5, 9.0)">u</text><text xml:space="preserve" font-family="Georgia" font-size="38.0" fill="#FFA900" transform="matrix(1.00, 0.00, -0.00, -1.00, 718.4, 9.0)">l</text><text xml:space="preserve" font-family="Georgia" font-size="38.0" fill="#FFA900" transform="matrix(1.00, 0.00, -0.00, -1.00, 729.3, 9.0)">a</text><text xml:space="preserve" font-family="Georgia" font-size="38.0" fill="#FFA900" transform="matrix(1.00, 0.00, -0.00, -1.00, 748.4, 9.0)">t</text><text xml:space="preserve" font-family="Georgia" font-size="38.0" fill="#FFA900" transform="matrix(1.00, 0.00, -0.00, -1.00, 761.5, 9.0)">i</text><text xml:space="preserve" font-family="Georgia" font-size="38.0" fill="#FFA900" transform="matrix(1.00, 0.00, -0.00, -1.00, 772.7, 9.0)">o</text><text xml:space="preserve" font-family="Georgia" font-size="38.0" fill="#FFA900" transform="matrix(1.00, 0.00, -0.00, -1.00, 793.2, 9.0)">n</text><text xml:space="preserve" font-family="Georgia" font-size="38.0" fill="#FFA900" transform="matrix(1.00, 0.00, -0.00, -1.00, 815.6, 9.0)">s</text></g></svg>