<?xml version="1.0" encoding="UTF-8" standalone="no"?><svg xmlns="http://www.w3.org/2000/svg" xmlns:xlink="http://www.w3.org/1999/xlink" clip-rule="evenodd" stroke-miterlimit="4.00" viewBox="0 0 349 139"><desc>SVG generated by Keynote</desc><defs></defs><g transform="matrix(1.00, 0.00, -0.00, -1.00, 0.0, 139.0)"><text xml:space="preserve" font-family="Georgia" font-size="28.0" fill="#D74800" transform="matrix(1.00, 0.00, -0.00, -1.00, 2.0, 115.0)">C</text><text xml:space="preserve" font-family="Georgia" font-size="28.0" fill="#D74800" transform="matrix(1.00, 0.00, -0.00, -1.00, 20.0, 115.0)">o</text><text xml:space="preserve" font-family="Georgia" font-size="28.0" fill="#D74800" transform="matrix(1.00, 0.00, -0.00, -1.00, 35.1, 115.0)">u</text><text xml:space="preserve" font-family="Georgia" font-size="28.0" fill="#D74800" transform="matrix(1.00, 0.00, -0.00, -1.00, 51.2, 115.0)">l</text><text xml:space="preserve" font-family="Georgia" font-size="28.0" fill="#D74800" transform="matrix(1.00, 0.00, -0.00, -1.00, 59.2, 115.0)">d</text><text xml:space="preserve" font-family="Georgia" font-size="28.0" fill="#D74800" transform="matrix(1.00, 0.00, -0.00, -1.00, 75.3, 115.0)"> </text><text xml:space="preserve" font-family="Georgia" font-size="28.0" fill="#D74800" transform="matrix(1.00, 0.00, -0.00, -1.00, 82.0, 115.0)">b</text><text xml:space="preserve" font-family="Georgia" font-size="28.0" fill="#D74800" transform="matrix(1.00, 0.00, -0.00, -1.00, 97.7, 115.0)">e</text><text xml:space="preserve" font-family="Georgia" font-size="28.0" fill="#D74800" transform="matrix(1.00, 0.00, -0.00, -1.00, 111.3, 115.0)"> </text><text xml:space="preserve" font-family="Georgia" font-size="28.0" fill="#D74800" transform="matrix(1.00, 0.00, -0.00, -1.00, 118.0, 115.0)">d</text><text xml:space="preserve" font-family="Georgia" font-size="28.0" fill="#D74800" transform="matrix(1.00, 0.00, -0.00, -1.00, 134.1, 115.0)">u</text><text xml:space="preserve" font-family="Georgia" font-size="28.0" fill="#D74800" transform="matrix(1.00, 0.00, -0.00, -1.00, 150.2, 115.0)">e</text><text xml:space="preserve" font-family="Georgia" font-size="28.0" fill="#D74800" transform="matrix(1.00, 0.00, -0.00, -1.00, 163.8, 115.0)"> </text><text xml:space="preserve" font-family="Georgia" font-size="28.0" fill="#D74800" transform="matrix(1.00, 0.00, -0.00, -1.00, 170.5, 115.0)">t</text><text xml:space="preserve" font-family="Georgia" font-size="28.0" fill="#D74800" transform="matrix(1.00, 0.00, -0.00, -1.00, 180.2, 115.0)">o</text><text xml:space="preserve" font-family="Georgia" font-size="28.0" fill="#D74800" transform="matrix(1.00, 0.00, -0.00, -1.00, 195.3, 115.0)"> </text><text xml:space="preserve" font-family="Georgia" font-size="28.0" fill="#D74800" transform="matrix(1.00, 0.00, -0.00, -1.00, 202.1, 115.0)">d</text><text xml:space="preserve" font-family="Georgia" font-size="28.0" fill="#D74800" transform="matrix(1.00, 0.00, -0.00, -1.00, 218.1, 115.0)">i</text><text xml:space="preserve" font-family="Georgia" font-size="28.0" fill="#D74800" transform="matrix(1.00, 0.00, -0.00, -1.00, 226.4, 115.0)">f</text><text xml:space="preserve" font-family="Georgia" font-size="28.0" fill="#D74800" transform="matrix(1.00, 0.00, -0.00, -1.00, 235.5, 115.0)">f</text><text xml:space="preserve" font-family="Georgia" font-size="28.0" fill="#D74800" transform="matrix(1.00, 0.00, -0.00, -1.00, 244.6, 115.0)">e</text><text xml:space="preserve" font-family="Georgia" font-size="28.0" fill="#D74800" transform="matrix(1.00, 0.00, -0.00, -1.00, 258.1, 115.0)">r</text><text xml:space="preserve" font-family="Georgia" font-size="28.0" fill="#D74800" transform="matrix(1.00, 0.00, -0.00, -1.00, 269.6, 115.0)">e</text><text xml:space="preserve" font-family="Georgia" font-size="28.0" fill="#D74800" transform="matrix(1.00, 0.00, -0.00, -1.00, 283.1, 115.0)">n</text><text xml:space="preserve" font-family="Georgia" font-size="28.0" fill="#D74800" transform="matrix(1.00, 0.00, -0.00, -1.00, 299.7, 115.0)">t</text><text xml:space="preserve" font-family="Georgia" font-size="28.0" fill="#D74800" transform="matrix(1.00, 0.00, -0.00, -1.00, 309.3, 115.0)">i</text><text xml:space="preserve" font-family="Georgia" font-size="28.0" fill="#D74800" transform="matrix(1.00, 0.00, -0.00, -1.00, 317.5, 115.0)">a</text><text xml:space="preserve" font-family="Georgia" font-size="28.0" fill="#D74800" transform="matrix(1.00, 0.00, -0.00, -1.00, 331.6, 115.0)">l</text><text xml:space="preserve" font-family="Georgia" font-size="28.0" fill="#D74800" transform="matrix(1.00, 0.00, -0.00, -1.00, 339.7, 115.0)">:</text><text xml:space="preserve" font-family="Georgia" font-size="28.0" fill="#D74800" transform="matrix(1.00, 0.00, -0.00, -1.00, 348.4, 115.0)"> </text><text xml:space="preserve" font-family="Georgia" font-size="24.0" fill="#000000" transform="matrix(1.00, 0.00, -0.00, -1.00, 0.2, 87.5)">•</text><text xml:space="preserve" font-family="Georgia" font-size="24.0" fill="#000000" transform="matrix(1.00, 0.00, -0.00, -1.00, 10.0, 87.0)"> </text><text xml:space="preserve" font-family="Georgia" font-size="24.0" fill="#000000" transform="matrix(1.00, 0.00, -0.00, -1.00, 15.8, 87.0)">c</text><text xml:space="preserve" font-family="Georgia" font-size="24.0" fill="#000000" transform="matrix(1.00, 0.00, -0.00, -1.00, 26.7, 87.0)">h</text><text xml:space="preserve" font-family="Georgia" font-size="24.0" fill="#000000" transform="matrix(1.00, 0.00, -0.00, -1.00, 40.7, 87.0)">y</text><text xml:space="preserve" font-family="Georgia" font-size="24.0" fill="#000000" transform="matrix(1.00, 0.00, -0.00, -1.00, 52.5, 87.0)">t</text><text xml:space="preserve" font-family="Georgia" font-size="24.0" fill="#000000" transform="matrix(1.00, 0.00, -0.00, -1.00, 60.8, 87.0)">r</text><text xml:space="preserve" font-family="Georgia" font-size="24.0" fill="#000000" transform="matrix(1.00, 0.00, -0.00, -1.00, 70.6, 87.0)">i</text><text xml:space="preserve" font-family="Georgia" font-size="24.0" fill="#000000" transform="matrix(1.00, 0.00, -0.00, -1.00, 77.6, 87.0)">d</text><text xml:space="preserve" font-family="Georgia" font-size="24.0" fill="#000000" transform="matrix(1.00, 0.00, -0.00, -1.00, 91.4, 87.0)"> </text><text xml:space="preserve" font-family="Georgia" font-size="24.0" fill="#000000" transform="matrix(1.00, 0.00, -0.00, -1.00, 97.2, 87.0)">v</text><text xml:space="preserve" font-family="Georgia" font-size="24.0" fill="#000000" transform="matrix(1.00, 0.00, -0.00, -1.00, 109.1, 87.0)">i</text><text xml:space="preserve" font-family="Georgia" font-size="24.0" fill="#000000" transform="matrix(1.00, 0.00, -0.00, -1.00, 116.1, 87.0)">r</text><text xml:space="preserve" font-family="Georgia" font-size="24.0" fill="#000000" transform="matrix(1.00, 0.00, -0.00, -1.00, 126.0, 87.0)">u</text><text xml:space="preserve" font-family="Georgia" font-size="24.0" fill="#000000" transform="matrix(1.00, 0.00, -0.00, -1.00, 139.8, 87.0)">l</text><text xml:space="preserve" font-family="Georgia" font-size="24.0" fill="#000000" transform="matrix(1.00, 0.00, -0.00, -1.00, 146.7, 87.0)">e</text><text xml:space="preserve" font-family="Georgia" font-size="24.0" fill="#000000" transform="matrix(1.00, 0.00, -0.00, -1.00, 158.3, 87.0)">n</text><text xml:space="preserve" font-family="Georgia" font-size="24.0" fill="#000000" transform="matrix(1.00, 0.00, -0.00, -1.00, 172.4, 87.0)">c</text><text xml:space="preserve" font-family="Georgia" font-size="24.0" fill="#000000" transform="matrix(1.00, 0.00, -0.00, -1.00, 183.3, 87.0)">e</text><text xml:space="preserve" font-family="Georgia" font-size="24.0" fill="#000000" transform="matrix(1.00, 0.00, -0.00, -1.00, 194.9, 87.0)"> </text><text xml:space="preserve" font-family="Georgia" font-size="24.0" fill="#000000" transform="matrix(1.00, 0.00, -0.00, -1.00, 0.2, 60.5)">•</text><text xml:space="preserve" font-family="Georgia" font-size="24.0" fill="#000000" transform="matrix(1.00, 0.00, -0.00, -1.00, 10.0, 60.0)"> </text><text xml:space="preserve" font-family="Georgia" font-size="24.0" fill="#000000" transform="matrix(1.00, 0.00, -0.00, -1.00, 15.8, 60.0)">f</text><text xml:space="preserve" font-family="Georgia" font-size="24.0" fill="#000000" transform="matrix(1.00, 0.00, -0.00, -1.00, 23.6, 60.0)">r</text><text xml:space="preserve" font-family="Georgia" font-size="24.0" fill="#000000" transform="matrix(1.00, 0.00, -0.00, -1.00, 33.4, 60.0)">o</text><text xml:space="preserve" font-family="Georgia" font-size="24.0" fill="#000000" transform="matrix(1.00, 0.00, -0.00, -1.00, 46.4, 60.0)">g</text><text xml:space="preserve" font-family="Georgia" font-size="24.0" fill="#000000" transform="matrix(1.00, 0.00, -0.00, -1.00, 58.6, 60.0)"> </text><text xml:space="preserve" font-family="Georgia" font-size="24.0" fill="#000000" transform="matrix(1.00, 0.00, -0.00, -1.00, 64.4, 60.0)">s</text><text xml:space="preserve" font-family="Georgia" font-size="24.0" fill="#000000" transform="matrix(1.00, 0.00, -0.00, -1.00, 74.8, 60.0)">u</text><text xml:space="preserve" font-family="Georgia" font-size="24.0" fill="#000000" transform="matrix(1.00, 0.00, -0.00, -1.00, 88.6, 60.0)">s</text><text xml:space="preserve" font-family="Georgia" font-size="24.0" fill="#000000" transform="matrix(1.00, 0.00, -0.00, -1.00, 98.9, 60.0)">c</text><text xml:space="preserve" font-family="Georgia" font-size="24.0" fill="#000000" transform="matrix(1.00, 0.00, -0.00, -1.00, 109.8, 60.0)">e</text><text xml:space="preserve" font-family="Georgia" font-size="24.0" fill="#000000" transform="matrix(1.00, 0.00, -0.00, -1.00, 121.5, 60.0)">p</text><text xml:space="preserve" font-family="Georgia" font-size="24.0" fill="#000000" transform="matrix(1.00, 0.00, -0.00, -1.00, 135.2, 60.0)">t</text><text xml:space="preserve" font-family="Georgia" font-size="24.0" fill="#000000" transform="matrix(1.00, 0.00, -0.00, -1.00, 143.5, 60.0)">i</text><text xml:space="preserve" font-family="Georgia" font-size="24.0" fill="#000000" transform="matrix(1.00, 0.00, -0.00, -1.00, 150.5, 60.0)">b</text><text xml:space="preserve" font-family="Georgia" font-size="24.0" fill="#000000" transform="matrix(1.00, 0.00, -0.00, -1.00, 163.9, 60.0)">i</text><text xml:space="preserve" font-family="Georgia" font-size="24.0" fill="#000000" transform="matrix(1.00, 0.00, -0.00, -1.00, 171.0, 60.0)">l</text><text xml:space="preserve" font-family="Georgia" font-size="24.0" fill="#000000" transform="matrix(1.00, 0.00, -0.00, -1.00, 177.8, 60.0)">i</text><text xml:space="preserve" font-family="Georgia" font-size="24.0" fill="#000000" transform="matrix(1.00, 0.00, -0.00, -1.00, 184.9, 60.0)">t</text><text xml:space="preserve" font-family="Georgia" font-size="24.0" fill="#000000" transform="matrix(1.00, 0.00, -0.00, -1.00, 193.2, 60.0)">y</text><text xml:space="preserve" font-family="Georgia" font-size="24.0" fill="#000000" transform="matrix(1.00, 0.00, -0.00, -1.00, 205.0, 60.0)"> </text><text xml:space="preserve" font-family="Georgia" font-size="24.0" fill="#000000" transform="matrix(1.00, 0.00, -0.00, -1.00, 0.2, 33.5)">•</text><text xml:space="preserve" font-family="Georgia" font-size="24.0" fill="#000000" transform="matrix(1.00, 0.00, -0.00, -1.00, 10.0, 33.0)"> </text><text xml:space="preserve" font-family="Georgia" font-size="24.0" fill="#000000" transform="matrix(1.00, 0.00, -0.00, -1.00, 15.8, 33.0)">e</text><text xml:space="preserve" font-family="Georgia" font-size="24.0" fill="#000000" transform="matrix(1.00, 0.00, -0.00, -1.00, 27.4, 33.0)">n</text><text xml:space="preserve" font-family="Georgia" font-size="24.0" fill="#000000" transform="matrix(1.00, 0.00, -0.00, -1.00, 41.6, 33.0)">v</text><text xml:space="preserve" font-family="Georgia" font-size="24.0" fill="#000000" transform="matrix(1.00, 0.00, -0.00, -1.00, 53.5, 33.0)">i</text><text xml:space="preserve" font-family="Georgia" font-size="24.0" fill="#000000" transform="matrix(1.00, 0.00, -0.00, -1.00, 60.5, 33.0)">r</text><text xml:space="preserve" font-family="Georgia" font-size="24.0" fill="#000000" transform="matrix(1.00, 0.00, -0.00, -1.00, 70.3, 33.0)">o</text><text xml:space="preserve" font-family="Georgia" font-size="24.0" fill="#000000" transform="matrix(1.00, 0.00, -0.00, -1.00, 83.3, 33.0)">n</text><text xml:space="preserve" font-family="Georgia" font-size="24.0" fill="#000000" transform="matrix(1.00, 0.00, -0.00, -1.00, 97.5, 33.0)">m</text><text xml:space="preserve" font-family="Georgia" font-size="24.0" fill="#000000" transform="matrix(1.00, 0.00, -0.00, -1.00, 118.6, 33.0)">e</text><text xml:space="preserve" font-family="Georgia" font-size="24.0" fill="#000000" transform="matrix(1.00, 0.00, -0.00, -1.00, 130.2, 33.0)">n</text><text xml:space="preserve" font-family="Georgia" font-size="24.0" fill="#000000" transform="matrix(1.00, 0.00, -0.00, -1.00, 144.4, 33.0)">t</text><text xml:space="preserve" font-family="Georgia" font-size="24.0" fill="#000000" transform="matrix(1.00, 0.00, -0.00, -1.00, 152.7, 33.0)">a</text><text xml:space="preserve" font-family="Georgia" font-size="24.0" fill="#000000" transform="matrix(1.00, 0.00, -0.00, -1.00, 164.8, 33.0)">l</text><text xml:space="preserve" font-family="Georgia" font-size="24.0" fill="#000000" transform="matrix(1.00, 0.00, -0.00, -1.00, 171.6, 33.0)"> </text><text xml:space="preserve" font-family="Georgia" font-size="24.0" fill="#000000" transform="matrix(1.00, 0.00, -0.00, -1.00, 177.4, 33.0)">c</text><text xml:space="preserve" font-family="Georgia" font-size="24.0" fill="#000000" transform="matrix(1.00, 0.00, -0.00, -1.00, 188.3, 33.0)">o</text><text xml:space="preserve" font-family="Georgia" font-size="24.0" fill="#000000" transform="matrix(1.00, 0.00, -0.00, -1.00, 201.3, 33.0)">n</text><text xml:space="preserve" font-family="Georgia" font-size="24.0" fill="#000000" transform="matrix(1.00, 0.00, -0.00, -1.00, 215.4, 33.0)">d</text><text xml:space="preserve" font-family="Georgia" font-size="24.0" fill="#000000" transform="matrix(1.00, 0.00, -0.00, -1.00, 229.2, 33.0)">i</text><text xml:space="preserve" font-family="Georgia" font-size="24.0" fill="#000000" transform="matrix(1.00, 0.00, -0.00, -1.00, 236.3, 33.0)">t</text><text xml:space="preserve" font-family="Georgia" font-size="24.0" fill="#000000" transform="matrix(1.00, 0.00, -0.00, -1.00, 244.6, 33.0)">i</text><text xml:space="preserve" font-family="Georgia" font-size="24.0" fill="#000000" transform="matrix(1.00, 0.00, -0.00, -1.00, 251.6, 33.0)">o</text><text xml:space="preserve" font-family="Georgia" font-size="24.0" fill="#000000" transform="matrix(1.00, 0.00, -0.00, -1.00, 264.5, 33.0)">n</text><text xml:space="preserve" font-family="Georgia" font-size="24.0" fill="#000000" transform="matrix(1.00, 0.00, -0.00, -1.00, 278.7, 33.0)">s</text><text xml:space="preserve" font-family="Georgia" font-size="24.0" fill="#000000" transform="matrix(1.00, 0.00, -0.00, -1.00, 289.1, 33.0)"> </text><text xml:space="preserve" font-family="Georgia" font-size="24.0" fill="#000000" transform="matrix(1.00, 0.00, -0.00, -1.00, 0.2, 6.5)">•</text><text xml:space="preserve" font-family="Georgia" font-size="24.0" fill="#000000" transform="matrix(1.00, 0.00, -0.00, -1.00, 10.0, 6.0)"> </text><text xml:space="preserve" font-family="Georgia" font-size="24.0" fill="#000000" transform="matrix(1.00, 0.00, -0.00, -1.00, 15.8, 6.0)">d</text><text xml:space="preserve" font-family="Georgia" font-size="24.0" fill="#000000" transform="matrix(1.00, 0.00, -0.00, -1.00, 29.6, 6.0)">e</text><text xml:space="preserve" font-family="Georgia" font-size="24.0" fill="#000000" transform="matrix(1.00, 0.00, -0.00, -1.00, 41.2, 6.0)">m</text><text xml:space="preserve" font-family="Georgia" font-size="24.0" fill="#000000" transform="matrix(1.00, 0.00, -0.00, -1.00, 62.3, 6.0)">o</text><text xml:space="preserve" font-family="Georgia" font-size="24.0" fill="#000000" transform="matrix(1.00, 0.00, -0.00, -1.00, 75.3, 6.0)">g</text><text xml:space="preserve" font-family="Georgia" font-size="24.0" fill="#000000" transform="matrix(1.00, 0.00, -0.00, -1.00, 87.5, 6.0)">r</text><text xml:space="preserve" font-family="Georgia" font-size="24.0" fill="#000000" transform="matrix(1.00, 0.00, -0.00, -1.00, 97.3, 6.0)">a</text><text xml:space="preserve" font-family="Georgia" font-size="24.0" fill="#000000" transform="matrix(1.00, 0.00, -0.00, -1.00, 109.4, 6.0)">p</text><text xml:space="preserve" font-family="Georgia" font-size="24.0" fill="#000000" transform="matrix(1.00, 0.00, -0.00, -1.00, 123.1, 6.0)">h</text><text xml:space="preserve" font-family="Georgia" font-size="24.0" fill="#000000" transform="matrix(1.00, 0.00, -0.00, -1.00, 137.1, 6.0)">i</text><text xml:space="preserve" font-family="Georgia" font-size="24.0" fill="#000000" transform="matrix(1.00, 0.00, -0.00, -1.00, 144.1, 6.0)">c</text><text xml:space="preserve" font-family="Georgia" font-size="24.0" fill="#000000" transform="matrix(1.00, 0.00, -0.00, -1.00, 155.0, 6.0)"> </text><text xml:space="preserve" font-family="Georgia" font-size="24.0" fill="#000000" transform="matrix(1.00, 0.00, -0.00, -1.00, 160.8, 6.0)">f</text><text xml:space="preserve" font-family="Georgia" font-size="24.0" fill="#000000" transform="matrix(1.00, 0.00, -0.00, -1.00, 168.6, 6.0)">a</text><text xml:space="preserve" font-family="Georgia" font-size="24.0" fill="#000000" transform="matrix(1.00, 0.00, -0.00, -1.00, 180.7, 6.0)">c</text><text xml:space="preserve" font-family="Georgia" font-size="24.0" fill="#000000" transform="matrix(1.00, 0.00, -0.00, -1.00, 191.6, 6.0)">t</text><text xml:space="preserve" font-family="Georgia" font-size="24.0" fill="#000000" transform="matrix(1.00, 0.00, -0.00, -1.00, 199.9, 6.0)">o</text><text xml:space="preserve" font-family="Georgia" font-size="24.0" fill="#000000" transform="matrix(1.00, 0.00, -0.00, -1.00, 212.9, 6.0)">r</text><text xml:space="preserve" font-family="Georgia" font-size="24.0" fill="#000000" transform="matrix(1.00, 0.00, -0.00, -1.00, 222.7, 6.0)">s</text></g></svg>