<?xml version="1.0" encoding="UTF-8" standalone="no"?><svg xmlns="http://www.w3.org/2000/svg" xmlns:xlink="http://www.w3.org/1999/xlink" clip-rule="evenodd" stroke-miterlimit="4.00" viewBox="0 0 310 208"><desc>SVG generated by Keynote</desc><defs></defs><g transform="matrix(1.00, 0.00, -0.00, -1.00, 0.0, 208.0)"><g><clipPath id="clip-1021"><path d="M 0.2 103.7 L 87.2 103.7 L 87.2 158.9 L 0.2 158.9 Z M 0.2 103.7 "></path></clipPath><g clip-path="url(#clip-1021)"><path d="M 22.3 147.0 C 27.7 147.7 31.8 148.6 36.8 149.3 C 37.7 150.2 38.1 151.5 39.2 152.2 C 40.2 153.0 41.5 153.0 42.7 153.4 C 46.7 152.9 48.7 151.9 52.6 151.0 C 54.5 150.6 58.4 149.3 58.4 149.3 C 56.5 154.8 50.9 153.0 45.6 153.4 C 43.0 154.3 43.0 155.1 43.8 157.5 C 45.7 156.9 47.2 155.8 49.1 155.1 C 51.9 152.5 48.6 154.9 50.8 156.3 C 51.3 156.6 51.5 155.5 52.1 155.1 C 53.8 154.2 56.4 153.9 58.4 153.4 C 62.4 150.8 60.5 151.5 63.7 150.5 C 64.5 148.0 65.8 146.2 66.6 143.5 C 67.9 138.6 67.4 134.3 73.0 133.0 C 73.8 132.1 75.1 131.6 75.9 130.7 C 76.4 130.0 76.6 127.9 77.1 127.2 C 77.9 125.7 81.8 124.8 81.8 124.8 C 82.2 116.1 81.9 116.3 85.8 110.3 C 83.3 107.7 82.5 111.3 80.6 113.2 C 79.9 115.0 80.4 122.0 78.8 117.3 C 78.6 115.7 78.5 114.1 78.3 112.6 C 78.0 111.4 77.1 109.1 77.1 109.1 C 74.9 111.4 75.6 114.4 74.8 117.3 C 72.6 115.2 72.2 111.5 71.3 108.5 C 71.5 110.5 71.9 112.4 71.8 114.3 C 71.7 115.5 71.5 117.0 70.7 117.8 C 70.2 118.2 70.2 116.7 70.1 116.1 C 69.8 115.5 69.7 114.9 69.5 114.3 C 68.1 110.3 69.3 111.5 66.6 109.7 C 65.3 115.1 69.6 115.5 71.3 120.2 C 70.1 120.6 68.5 120.3 67.8 121.3 C 65.9 123.9 66.5 127.2 64.3 129.5 C 59.2 128.3 56.4 124.1 51.4 122.5 C 52.8 121.0 54.1 120.9 56.1 120.2 C 56.4 119.0 57.6 117.9 57.3 116.7 C 56.2 113.9 54.1 114.1 51.4 113.2 C 49.7 111.0 49.2 109.7 46.2 108.5 C 45.0 108.2 42.7 107.3 42.7 107.3 C 40.3 108.2 38.0 108.9 35.7 109.7 C 34.5 109.5 33.2 109.7 32.2 109.1 C 31.6 108.8 32.0 107.8 31.6 107.3 C 30.5 106.4 28.1 105.0 28.1 105.0 C 29.1 108.3 29.9 105.9 31.1 109.1 C 30.0 109.3 29.1 109.6 28.1 109.7 C 23.5 110.6 22.8 109.6 25.8 111.4 C 28.3 110.9 29.8 110.1 32.2 110.8 C 33.6 115.0 28.8 114.5 25.8 114.9 C 31.5 115.4 34.8 115.4 39.8 116.7 C 39.8 116.8 42.8 118.5 42.7 119.0 C 42.3 120.5 35.9 121.2 35.1 121.3 C 29.9 123.1 32.8 122.4 26.3 123.1 C 22.4 124.4 18.1 125.0 14.7 127.2 C 12.9 132.2 15.0 130.4 14.1 137.0 C 13.9 137.7 13.2 136.0 13.0 135.3 C 12.1 133.7 11.7 131.8 11.2 130.0 C 11.8 124.4 12.1 125.6 13.6 121.3 C 13.1 121.0 12.9 120.1 12.4 120.2 C 11.2 120.5 11.1 123.1 10.6 123.7 C 10.1 124.3 9.4 124.4 8.9 124.8 C 7.5 129.3 9.2 124.3 7.7 120.8 C 7.5 120.3 6.5 121.1 6.0 121.3 C 4.3 123.8 3.9 125.0 7.1 126.0 C 4.9 123.7 5.8 123.3 2.5 122.5 C 0.5 125.6 2.0 125.1 4.8 126.0 C 6.4 128.6 6.8 130.7 9.5 132.4 C 10.7 136.2 13.4 138.9 15.9 141.8 C 16.6 142.7 18.0 144.0 19.4 144.0 " fill="#D74800" fill-opacity="0.80"></path><path d="M 20.8 10.5 C 26.1 9.8 30.2 8.9 35.3 8.2 C 36.2 7.3 36.6 5.9 37.6 5.2 C 38.6 4.5 39.9 4.5 41.1 4.1 C 45.2 4.6 47.2 5.6 51.0 6.5 C 52.9 6.9 56.9 8.2 56.9 8.2 C 55.0 2.7 49.4 4.5 44.0 4.1 C 41.5 3.2 41.5 2.4 42.3 0.0 C 44.1 0.6 45.6 1.7 47.5 2.4 C 50.3 5.0 47.1 2.6 49.3 1.2 C 49.7 0.9 50.0 2.0 50.5 2.4 C 52.2 3.3 54.9 3.6 56.9 4.1 C 60.8 6.7 59.0 6.0 62.1 7.0 C 62.9 9.4 64.2 11.3 65.0 14.0 C 66.3 18.9 65.9 23.2 71.5 24.5 C 72.3 25.3 73.6 25.9 74.4 26.8 C 74.8 27.4 75.1 29.6 75.5 30.3 C 76.4 31.8 80.2 32.7 80.2 32.7 C 80.7 41.3 80.3 41.2 84.2 47.2 C 81.7 49.8 80.9 46.2 79.0 44.3 C 78.4 42.5 78.8 35.5 77.3 40.2 C 77.1 41.8 77.0 43.4 76.7 44.9 C 76.5 46.1 75.5 48.4 75.5 48.4 C 73.3 46.1 74.0 43.1 73.2 40.2 C 71.0 42.3 70.6 46.0 69.7 48.9 C 69.9 47.0 70.3 45.1 70.3 43.2 C 70.2 42.0 69.9 40.5 69.1 39.7 C 68.7 39.2 68.7 40.8 68.5 41.4 C 68.2 42.0 68.2 42.6 68.0 43.2 C 66.6 47.2 67.7 46.0 65.0 47.8 C 63.8 42.4 68.1 42.0 69.7 37.3 C 68.5 36.9 66.9 37.1 66.2 36.2 C 64.3 33.6 64.9 30.3 62.7 28.0 C 57.7 29.2 54.9 33.4 49.9 35.0 C 51.3 36.4 52.5 36.6 54.5 37.3 C 54.9 38.5 56.1 39.6 55.7 40.8 C 54.7 43.6 52.5 43.4 49.9 44.3 C 48.1 46.5 47.6 47.8 44.6 48.9 C 43.4 49.3 41.1 50.2 41.1 50.2 C 38.8 49.3 36.4 48.6 34.1 47.8 C 32.9 48.0 31.6 47.8 30.7 48.4 C 30.0 48.7 30.5 49.7 30.0 50.2 C 29.0 51.1 26.5 52.4 26.5 52.4 C 27.6 49.2 28.4 51.6 29.5 48.4 C 28.5 48.2 27.5 47.9 26.5 47.8 C 21.9 46.9 21.3 47.9 24.3 46.1 C 26.7 46.6 28.2 47.4 30.7 46.7 C 32.1 42.5 27.2 43.0 24.3 42.6 C 30.0 42.1 33.3 42.0 38.3 40.8 C 38.3 40.7 41.2 39.0 41.1 38.5 C 40.7 37.0 34.3 36.3 33.5 36.2 C 28.4 34.4 31.3 35.1 24.8 34.4 C 20.9 33.0 16.6 32.5 13.2 30.3 C 11.3 25.3 13.4 27.1 12.6 20.5 C 12.4 19.8 11.7 21.5 11.4 22.2 C 10.5 23.8 10.2 25.7 9.7 27.4 C 10.3 33.1 10.5 31.9 12.0 36.2 C 11.6 36.5 11.3 37.4 10.8 37.3 C 9.7 37.0 9.6 34.4 9.1 33.8 C 8.5 33.2 7.8 33.0 7.3 32.7 C 5.9 28.1 7.7 33.2 6.2 36.7 C 5.9 37.2 4.9 36.4 4.4 36.2 C 2.8 33.7 2.3 32.5 5.6 31.5 C 3.4 33.7 4.2 34.2 0.9 35.0 C -1.1 31.9 0.4 32.4 3.3 31.5 C 4.9 28.9 5.2 26.7 7.9 25.1 C 9.1 21.3 11.9 18.6 14.3 15.7 C 15.0 14.8 16.5 13.5 17.8 13.5 " fill="none" stroke="#000000" stroke-width="0.75" stroke-linejoin="round" transform="matrix(1.00, 0.00, 0.00, -1.00, 1.6, 157.5)"></path></g></g><g><clipPath id="clip-1022"><path d="M 15.9 139.3 L 22.8 139.3 L 22.8 146.3 L 15.9 146.3 Z M 15.9 139.3 "></path></clipPath><g clip-path="url(#clip-1022)"><path d="M 20.8 144.3 C 21.7 143.5 21.7 142.1 20.8 141.3 C 20.0 140.5 18.7 140.5 17.9 141.3 C 17.0 142.1 17.0 143.5 17.9 144.3 C 18.7 145.1 20.0 145.1 20.8 144.3 " fill="#000000"></path><path d="M 3.6 0.6 C 4.4 1.4 4.4 2.8 3.6 3.6 C 2.8 4.4 1.4 4.4 0.6 3.6 C -0.2 2.8 -0.2 1.4 0.6 0.6 C 1.4 -0.2 2.8 -0.2 3.6 0.6 " fill="none" stroke="#000000" stroke-width="0.75" stroke-linejoin="round" transform="matrix(1.00, 0.00, 0.00, -1.00, 17.3, 144.9)"></path></g></g><g><clipPath id="clip-1023"><path d="M 28.5 126.7 L 35.4 126.7 L 35.4 133.7 L 28.5 133.7 Z M 28.5 126.7 "></path></clipPath><g clip-path="url(#clip-1023)"><path d="M 33.4 131.7 C 34.2 130.9 34.2 129.6 33.4 128.7 C 32.6 127.9 31.3 127.9 30.5 128.7 C 29.6 129.6 29.6 130.9 30.5 131.7 C 31.3 132.5 32.6 132.5 33.4 131.7 " fill="#000000"></path><path d="M 3.6 0.6 C 4.4 1.4 4.4 2.8 3.6 3.6 C 2.8 4.4 1.4 4.4 0.6 3.6 C -0.2 2.8 -0.2 1.4 0.6 0.6 C 1.4 -0.2 2.8 -0.2 3.6 0.6 " fill="none" stroke="#000000" stroke-width="0.75" stroke-linejoin="round" transform="matrix(1.00, 0.00, 0.00, -1.00, 29.8, 132.3)"></path></g></g><g><clipPath id="clip-1024"><path d="M 222.0 103.7 L 309.0 103.7 L 309.0 158.9 L 222.0 158.9 Z M 222.0 103.7 "></path></clipPath><g clip-path="url(#clip-1024)"><path d="M 244.2 147.0 C 249.5 147.7 253.6 148.6 258.7 149.3 C 259.6 150.2 260.0 151.5 261.1 152.2 C 262.0 153.0 263.3 153.0 264.6 153.4 C 268.6 152.9 270.6 151.9 274.4 151.0 C 276.4 150.6 280.3 149.3 280.3 149.3 C 278.4 154.8 272.8 153.0 267.4 153.4 C 264.9 154.3 264.9 155.1 265.7 157.5 C 267.5 156.9 269.0 155.8 270.9 155.1 C 273.7 152.5 270.5 154.9 272.7 156.3 C 273.1 156.6 273.4 155.5 273.9 155.1 C 275.7 154.2 278.3 153.9 280.3 153.4 C 284.2 150.8 282.4 151.5 285.5 150.5 C 286.3 148.0 287.6 146.2 288.4 143.5 C 289.7 138.6 289.3 134.3 294.9 133.0 C 295.7 132.1 297.0 131.6 297.8 130.7 C 298.2 130.0 298.5 127.9 298.9 127.2 C 299.8 125.7 303.6 124.8 303.6 124.8 C 304.1 116.1 303.7 116.3 307.7 110.3 C 305.1 107.7 304.3 111.3 302.4 113.2 C 301.8 115.0 302.2 122.0 300.7 117.3 C 300.5 115.7 300.4 114.1 300.1 112.6 C 299.9 111.4 298.9 109.1 298.9 109.1 C 296.7 111.4 297.4 114.4 296.7 117.3 C 294.5 115.2 294.0 111.5 293.2 108.5 C 293.3 110.5 293.8 112.4 293.7 114.3 C 293.6 115.5 293.3 117.0 292.5 117.8 C 292.1 118.2 292.1 116.7 291.9 116.1 C 291.7 115.5 291.6 114.9 291.4 114.3 C 290.0 110.3 291.1 111.5 288.4 109.7 C 287.2 115.1 291.5 115.5 293.2 120.2 C 291.9 120.6 290.4 120.3 289.7 121.3 C 287.7 123.9 288.3 127.2 286.2 129.5 C 281.1 128.3 278.3 124.1 273.3 122.5 C 274.7 121.0 275.9 120.9 277.9 120.2 C 278.3 119.0 279.5 117.9 279.2 116.7 C 278.1 113.9 275.9 114.1 273.3 113.2 C 271.6 111.0 271.0 109.7 268.1 108.5 C 266.8 108.2 264.6 107.3 264.6 107.3 C 262.2 108.2 259.8 108.9 257.6 109.7 C 256.3 109.5 255.0 109.7 254.1 109.1 C 253.5 108.8 253.9 107.8 253.5 107.3 C 252.4 106.4 250.0 105.0 250.0 105.0 C 251.0 108.3 251.8 105.9 252.9 109.1 C 251.9 109.3 250.9 109.6 250.0 109.7 C 245.3 110.6 244.7 109.6 247.7 111.4 C 250.1 110.9 251.6 110.1 254.1 110.8 C 255.5 115.0 250.7 114.5 247.7 114.9 C 253.4 115.4 256.7 115.4 261.7 116.7 C 261.7 116.8 264.7 118.5 264.6 119.0 C 264.1 120.5 257.7 121.2 257.0 121.3 C 251.8 123.1 254.7 122.4 248.2 123.1 C 244.3 124.4 240.0 125.0 236.6 127.2 C 234.7 132.2 236.8 130.4 236.0 137.0 C 235.8 137.7 235.1 136.0 234.8 135.3 C 234.0 133.7 233.6 131.8 233.1 130.0 C 233.7 124.4 234.0 125.6 235.4 121.3 C 235.0 121.0 234.7 120.1 234.2 120.2 C 233.1 120.5 233.0 123.1 232.5 123.7 C 232.0 124.3 231.3 124.4 230.7 124.8 C 229.3 129.3 231.1 124.3 229.6 120.8 C 229.3 120.3 228.4 121.1 227.8 121.3 C 226.2 123.8 225.7 125.0 229.0 126.0 C 226.8 123.7 227.7 123.3 224.3 122.5 C 222.3 125.6 223.8 125.1 226.7 126.0 C 228.3 128.6 228.6 130.7 231.3 132.4 C 232.6 136.2 235.3 138.9 237.7 141.8 C 238.4 142.7 239.9 144.0 241.2 144.0 " fill="#A7D100" fill-opacity="0.80"></path><path d="M 20.8 10.5 C 26.1 9.8 30.2 8.9 35.3 8.2 C 36.2 7.3 36.6 5.9 37.6 5.2 C 38.6 4.5 39.9 4.5 41.1 4.1 C 45.2 4.6 47.2 5.6 51.0 6.5 C 52.9 6.9 56.9 8.2 56.9 8.2 C 55.0 2.7 49.4 4.5 44.0 4.1 C 41.5 3.2 41.5 2.4 42.3 0.0 C 44.1 0.6 45.6 1.7 47.5 2.4 C 50.3 5.0 47.1 2.6 49.3 1.2 C 49.7 0.9 50.0 2.0 50.5 2.4 C 52.2 3.3 54.9 3.6 56.9 4.1 C 60.8 6.7 59.0 6.0 62.1 7.0 C 62.9 9.4 64.2 11.3 65.0 14.0 C 66.3 18.9 65.9 23.2 71.5 24.5 C 72.3 25.3 73.6 25.9 74.4 26.8 C 74.8 27.4 75.1 29.6 75.5 30.3 C 76.4 31.8 80.2 32.7 80.2 32.7 C 80.7 41.3 80.3 41.2 84.2 47.2 C 81.7 49.8 80.9 46.2 79.0 44.3 C 78.4 42.5 78.8 35.5 77.3 40.2 C 77.1 41.8 77.0 43.4 76.7 44.9 C 76.5 46.1 75.5 48.4 75.5 48.4 C 73.3 46.1 74.0 43.1 73.2 40.2 C 71.0 42.3 70.6 46.0 69.7 48.9 C 69.9 47.0 70.3 45.1 70.3 43.2 C 70.2 42.0 69.9 40.5 69.1 39.7 C 68.7 39.2 68.7 40.8 68.5 41.4 C 68.2 42.0 68.2 42.6 68.0 43.2 C 66.6 47.2 67.7 46.0 65.0 47.8 C 63.8 42.4 68.1 42.0 69.7 37.3 C 68.5 36.9 66.9 37.1 66.2 36.2 C 64.3 33.6 64.9 30.3 62.7 28.0 C 57.7 29.2 54.9 33.4 49.9 35.0 C 51.3 36.4 52.5 36.6 54.5 37.3 C 54.9 38.5 56.1 39.6 55.7 40.8 C 54.7 43.6 52.5 43.4 49.9 44.3 C 48.1 46.5 47.6 47.8 44.6 48.9 C 43.4 49.3 41.1 50.2 41.1 50.2 C 38.8 49.3 36.4 48.6 34.1 47.8 C 32.9 48.0 31.6 47.8 30.7 48.4 C 30.0 48.7 30.5 49.7 30.0 50.2 C 29.0 51.1 26.5 52.4 26.5 52.4 C 27.6 49.2 28.4 51.6 29.5 48.4 C 28.5 48.2 27.5 47.9 26.5 47.8 C 21.9 46.9 21.3 47.9 24.3 46.1 C 26.7 46.6 28.2 47.4 30.7 46.7 C 32.1 42.5 27.2 43.0 24.3 42.6 C 30.0 42.1 33.3 42.0 38.3 40.8 C 38.3 40.7 41.2 39.0 41.1 38.5 C 40.7 37.0 34.3 36.3 33.5 36.2 C 28.4 34.4 31.3 35.1 24.8 34.4 C 20.9 33.0 16.6 32.5 13.2 30.3 C 11.3 25.3 13.4 27.1 12.6 20.5 C 12.4 19.8 11.7 21.5 11.4 22.2 C 10.5 23.8 10.2 25.7 9.7 27.4 C 10.3 33.1 10.5 31.9 12.0 36.2 C 11.6 36.5 11.3 37.4 10.8 37.3 C 9.7 37.0 9.6 34.4 9.1 33.8 C 8.5 33.2 7.8 33.0 7.3 32.7 C 5.9 28.1 7.7 33.2 6.2 36.7 C 5.9 37.2 4.9 36.4 4.4 36.2 C 2.8 33.7 2.3 32.5 5.6 31.5 C 3.4 33.7 4.2 34.2 0.9 35.0 C -1.1 31.9 0.4 32.4 3.3 31.5 C 4.9 28.9 5.2 26.7 7.9 25.1 C 9.1 21.3 11.9 18.6 14.3 15.7 C 15.0 14.8 16.5 13.5 17.8 13.5 " fill="none" stroke="#000000" stroke-width="0.75" stroke-linejoin="round" transform="matrix(1.00, 0.00, 0.00, -1.00, 223.4, 157.5)"></path></g></g><g><clipPath id="clip-1025"><path d="M 237.7 139.3 L 244.7 139.3 L 244.7 146.3 L 237.7 146.3 Z M 237.7 139.3 "></path></clipPath><g clip-path="url(#clip-1025)"><path d="M 242.7 144.3 C 243.5 143.5 243.5 142.1 242.7 141.3 C 241.9 140.5 240.6 140.5 239.7 141.3 C 238.9 142.1 238.9 143.5 239.7 144.3 C 240.6 145.1 241.9 145.1 242.7 144.3 " fill="#000000"></path><path d="M 3.6 0.6 C 4.4 1.4 4.4 2.8 3.6 3.6 C 2.8 4.4 1.4 4.4 0.6 3.6 C -0.2 2.8 -0.2 1.4 0.6 0.6 C 1.4 -0.2 2.8 -0.2 3.6 0.6 " fill="none" stroke="#000000" stroke-width="0.75" stroke-linejoin="round" transform="matrix(1.00, 0.00, 0.00, -1.00, 239.1, 144.9)"></path></g></g><g><clipPath id="clip-1026"><path d="M 250.3 126.7 L 257.3 126.7 L 257.3 133.7 L 250.3 133.7 Z M 250.3 126.7 "></path></clipPath><g clip-path="url(#clip-1026)"><path d="M 255.3 131.7 C 256.1 130.9 256.1 129.6 255.3 128.7 C 254.5 127.9 253.1 127.9 252.3 128.7 C 251.5 129.6 251.5 130.9 252.3 131.7 C 253.1 132.5 254.5 132.5 255.3 131.7 " fill="#000000"></path><path d="M 3.6 0.6 C 4.4 1.4 4.4 2.8 3.6 3.6 C 2.8 4.4 1.4 4.4 0.6 3.6 C -0.2 2.8 -0.2 1.4 0.6 0.6 C 1.4 -0.2 2.8 -0.2 3.6 0.6 " fill="none" stroke="#000000" stroke-width="0.75" stroke-linejoin="round" transform="matrix(1.00, 0.00, 0.00, -1.00, 251.7, 132.3)"></path></g></g><g><clipPath id="clip-1027"><path d="M 0.2 0.0 L 87.2 0.0 L 87.2 55.2 L 0.2 55.2 Z M 0.2 0.0 "></path></clipPath><g clip-path="url(#clip-1027)"><path d="M 22.3 43.4 C 27.7 44.1 31.8 44.9 36.8 45.6 C 37.7 46.6 38.1 47.9 39.2 48.6 C 40.2 49.4 41.5 49.4 42.7 49.7 C 46.7 49.2 48.7 48.3 52.6 47.4 C 54.5 46.9 58.4 45.6 58.4 45.6 C 56.5 51.1 50.9 49.4 45.6 49.7 C 43.0 50.6 43.0 51.5 43.8 53.8 C 45.7 53.2 47.2 52.2 49.1 51.5 C 51.9 48.9 48.6 51.2 50.8 52.6 C 51.3 53.0 51.5 51.8 52.1 51.5 C 53.8 50.5 56.4 50.3 58.4 49.7 C 62.4 47.1 60.5 47.8 63.7 46.9 C 64.5 44.4 65.8 42.6 66.6 39.9 C 67.9 35.0 67.4 30.7 73.0 29.4 C 73.8 28.5 75.1 28.0 75.9 27.0 C 76.4 26.4 76.6 24.2 77.1 23.5 C 77.9 22.0 81.8 21.2 81.8 21.2 C 82.2 12.5 81.9 12.7 85.8 6.6 C 83.3 4.0 82.5 7.7 80.6 9.5 C 79.9 11.4 80.4 18.4 78.8 13.6 C 78.6 12.1 78.5 10.5 78.3 8.9 C 78.0 7.8 77.1 5.4 77.1 5.4 C 74.9 7.8 75.6 10.8 74.8 13.6 C 72.6 11.5 72.2 7.9 71.3 4.9 C 71.5 6.8 71.9 8.7 71.8 10.7 C 71.7 11.9 71.5 13.4 70.7 14.2 C 70.2 14.6 70.2 13.0 70.1 12.4 C 69.8 11.9 69.7 11.3 69.5 10.7 C 68.1 6.6 69.3 7.9 66.6 6.0 C 65.3 11.5 69.6 11.9 71.3 16.5 C 70.1 17.0 68.5 16.7 67.8 17.7 C 65.9 20.3 66.5 23.5 64.3 25.9 C 59.2 24.7 56.4 20.5 51.4 18.9 C 52.8 17.4 54.1 17.2 56.1 16.5 C 56.4 15.4 57.6 14.2 57.3 13.0 C 56.2 10.2 54.1 10.5 51.4 9.5 C 49.7 7.3 49.2 6.0 46.2 4.9 C 45.0 4.5 42.7 3.7 42.7 3.7 C 40.3 4.5 38.0 5.2 35.7 6.0 C 34.5 5.9 33.2 6.0 32.2 5.4 C 31.6 5.2 32.0 4.1 31.6 3.7 C 30.5 2.7 28.1 1.4 28.1 1.4 C 29.1 4.6 29.9 2.3 31.1 5.4 C 30.0 5.7 29.1 5.9 28.1 6.0 C 23.5 6.9 22.8 5.9 25.8 7.8 C 28.3 7.3 29.8 6.5 32.2 7.2 C 33.6 11.4 28.8 10.8 25.8 11.3 C 31.5 11.7 34.8 11.8 39.8 13.0 C 39.8 13.1 42.8 14.9 42.7 15.4 C 42.3 16.9 35.9 17.6 35.1 17.7 C 29.9 19.5 32.8 18.8 26.3 19.4 C 22.4 20.8 18.1 21.3 14.7 23.5 C 12.9 28.6 15.0 26.7 14.1 33.4 C 13.9 34.1 13.2 32.3 13.0 31.6 C 12.1 30.1 11.7 28.1 11.2 26.4 C 11.8 20.7 12.1 21.9 13.6 17.7 C 13.1 17.3 12.9 16.4 12.4 16.5 C 11.2 16.9 11.1 19.4 10.6 20.0 C 10.1 20.6 9.4 20.8 8.9 21.2 C 7.5 25.7 9.2 20.6 7.7 17.1 C 7.5 16.6 6.5 17.5 6.0 17.7 C 4.3 20.2 3.9 21.3 7.1 22.4 C 4.9 20.1 5.8 19.7 2.5 18.9 C 0.5 21.9 2.0 21.4 4.8 22.4 C 6.4 24.9 6.8 27.1 9.5 28.8 C 10.7 32.5 13.4 35.2 15.9 38.1 C 16.6 39.1 18.0 40.4 19.4 40.4 " fill="#D74800" fill-opacity="0.80"></path><path d="M 20.8 10.5 C 26.1 9.8 30.2 8.9 35.3 8.2 C 36.2 7.3 36.6 5.9 37.6 5.2 C 38.6 4.5 39.9 4.5 41.1 4.1 C 45.2 4.6 47.2 5.6 51.0 6.5 C 52.9 6.9 56.9 8.2 56.9 8.2 C 55.0 2.7 49.4 4.5 44.0 4.1 C 41.5 3.2 41.5 2.4 42.3 0.0 C 44.1 0.6 45.6 1.7 47.5 2.4 C 50.3 5.0 47.1 2.6 49.3 1.2 C 49.7 0.9 50.0 2.0 50.5 2.4 C 52.2 3.3 54.9 3.6 56.9 4.1 C 60.8 6.7 59.0 6.0 62.1 7.0 C 62.9 9.4 64.2 11.3 65.0 14.0 C 66.3 18.9 65.9 23.2 71.5 24.5 C 72.3 25.3 73.6 25.9 74.4 26.8 C 74.8 27.4 75.1 29.6 75.5 30.3 C 76.4 31.8 80.2 32.7 80.2 32.7 C 80.7 41.3 80.3 41.2 84.2 47.2 C 81.7 49.8 80.9 46.2 79.0 44.3 C 78.4 42.5 78.8 35.5 77.3 40.2 C 77.1 41.8 77.0 43.4 76.7 44.9 C 76.5 46.1 75.5 48.4 75.5 48.4 C 73.3 46.1 74.0 43.1 73.2 40.2 C 71.0 42.3 70.6 46.0 69.7 48.9 C 69.9 47.0 70.3 45.1 70.3 43.2 C 70.2 42.0 69.9 40.5 69.1 39.7 C 68.7 39.2 68.7 40.8 68.5 41.4 C 68.2 42.0 68.2 42.6 68.0 43.2 C 66.6 47.2 67.7 46.0 65.0 47.8 C 63.8 42.4 68.1 42.0 69.7 37.3 C 68.5 36.9 66.9 37.1 66.2 36.2 C 64.3 33.6 64.9 30.3 62.7 28.0 C 57.7 29.2 54.9 33.4 49.9 35.0 C 51.3 36.4 52.5 36.6 54.5 37.3 C 54.9 38.5 56.1 39.6 55.7 40.8 C 54.7 43.6 52.5 43.4 49.9 44.3 C 48.1 46.5 47.6 47.8 44.6 48.9 C 43.4 49.3 41.1 50.2 41.1 50.2 C 38.8 49.3 36.4 48.6 34.1 47.8 C 32.9 48.0 31.6 47.8 30.7 48.4 C 30.0 48.7 30.5 49.7 30.0 50.2 C 29.0 51.1 26.5 52.4 26.5 52.4 C 27.6 49.2 28.4 51.6 29.5 48.4 C 28.5 48.2 27.5 47.9 26.5 47.8 C 21.9 46.9 21.3 47.9 24.3 46.1 C 26.7 46.6 28.2 47.4 30.7 46.7 C 32.1 42.5 27.2 43.0 24.3 42.6 C 30.0 42.1 33.3 42.0 38.3 40.8 C 38.3 40.7 41.2 39.0 41.1 38.5 C 40.7 37.0 34.3 36.3 33.5 36.2 C 28.4 34.4 31.3 35.1 24.8 34.4 C 20.9 33.0 16.6 32.5 13.2 30.3 C 11.3 25.3 13.4 27.1 12.6 20.5 C 12.4 19.8 11.7 21.5 11.4 22.2 C 10.5 23.8 10.2 25.7 9.7 27.4 C 10.3 33.1 10.5 31.9 12.0 36.2 C 11.6 36.5 11.3 37.4 10.8 37.3 C 9.7 37.0 9.6 34.4 9.1 33.8 C 8.5 33.2 7.8 33.0 7.3 32.7 C 5.9 28.1 7.7 33.2 6.2 36.7 C 5.9 37.2 4.9 36.4 4.4 36.2 C 2.8 33.7 2.3 32.5 5.6 31.5 C 3.4 33.7 4.2 34.2 0.9 35.0 C -1.1 31.9 0.4 32.4 3.3 31.5 C 4.9 28.9 5.2 26.7 7.9 25.1 C 9.1 21.3 11.9 18.6 14.3 15.7 C 15.0 14.8 16.5 13.5 17.8 13.5 " fill="none" stroke="#000000" stroke-width="0.75" stroke-linejoin="round" transform="matrix(1.00, 0.00, 0.00, -1.00, 1.6, 53.8)"></path></g></g><g><clipPath id="clip-1028"><path d="M 15.9 35.7 L 22.8 35.7 L 22.8 42.6 L 15.9 42.6 Z M 15.9 35.7 "></path></clipPath><g clip-path="url(#clip-1028)"><path d="M 20.8 40.6 C 21.7 39.8 21.7 38.5 20.8 37.7 C 20.0 36.9 18.7 36.9 17.9 37.7 C 17.0 38.5 17.0 39.8 17.9 40.6 C 18.7 41.5 20.0 41.5 20.8 40.6 " fill="#000000"></path><path d="M 3.6 0.6 C 4.4 1.4 4.4 2.8 3.6 3.6 C 2.8 4.4 1.4 4.4 0.6 3.6 C -0.2 2.8 -0.2 1.4 0.6 0.6 C 1.4 -0.2 2.8 -0.2 3.6 0.6 " fill="none" stroke="#000000" stroke-width="0.75" stroke-linejoin="round" transform="matrix(1.00, 0.00, 0.00, -1.00, 17.3, 41.3)"></path></g></g><g><clipPath id="clip-1029"><path d="M 28.5 23.1 L 35.4 23.1 L 35.4 30.0 L 28.5 30.0 Z M 28.5 23.1 "></path></clipPath><g clip-path="url(#clip-1029)"><path d="M 33.4 28.1 C 34.2 27.2 34.2 25.9 33.4 25.1 C 32.6 24.3 31.3 24.3 30.5 25.1 C 29.6 25.9 29.6 27.2 30.5 28.1 C 31.3 28.9 32.6 28.9 33.4 28.1 " fill="#000000"></path><path d="M 3.6 0.6 C 4.4 1.4 4.4 2.8 3.6 3.6 C 2.8 4.4 1.4 4.4 0.6 3.6 C -0.2 2.8 -0.2 1.4 0.6 0.6 C 1.4 -0.2 2.8 -0.2 3.6 0.6 " fill="none" stroke="#000000" stroke-width="0.75" stroke-linejoin="round" transform="matrix(1.00, 0.00, 0.00, -1.00, 29.8, 28.7)"></path></g></g><g><clipPath id="clip-1030"><path d="M 222.0 0.0 L 309.0 0.0 L 309.0 55.2 L 222.0 55.2 Z M 222.0 0.0 "></path></clipPath><g clip-path="url(#clip-1030)"><path d="M 244.2 43.4 C 249.5 44.1 253.6 44.9 258.7 45.6 C 259.6 46.6 260.0 47.9 261.1 48.6 C 262.0 49.4 263.3 49.4 264.6 49.7 C 268.6 49.2 270.6 48.3 274.4 47.4 C 276.4 46.9 280.3 45.6 280.3 45.6 C 278.4 51.1 272.8 49.4 267.4 49.7 C 264.9 50.6 264.9 51.5 265.7 53.8 C 267.5 53.2 269.0 52.2 270.9 51.5 C 273.7 48.9 270.5 51.2 272.7 52.6 C 273.1 53.0 273.4 51.8 273.9 51.5 C 275.7 50.5 278.3 50.3 280.3 49.7 C 284.2 47.1 282.4 47.8 285.5 46.9 C 286.3 44.4 287.6 42.6 288.4 39.9 C 289.7 35.0 289.3 30.7 294.9 29.4 C 295.7 28.5 297.0 28.0 297.8 27.0 C 298.2 26.4 298.5 24.2 298.9 23.5 C 299.8 22.0 303.6 21.2 303.6 21.2 C 304.1 12.5 303.7 12.7 307.7 6.6 C 305.1 4.0 304.3 7.7 302.4 9.5 C 301.8 11.4 302.2 18.4 300.7 13.6 C 300.5 12.1 300.4 10.5 300.1 8.9 C 299.9 7.8 298.9 5.4 298.9 5.4 C 296.7 7.8 297.4 10.8 296.7 13.6 C 294.5 11.5 294.0 7.9 293.2 4.9 C 293.3 6.8 293.8 8.7 293.7 10.7 C 293.6 11.9 293.3 13.4 292.5 14.2 C 292.1 14.6 292.1 13.0 291.9 12.4 C 291.7 11.9 291.6 11.3 291.4 10.7 C 290.0 6.6 291.1 7.9 288.4 6.0 C 287.2 11.5 291.5 11.9 293.2 16.5 C 291.9 17.0 290.4 16.7 289.7 17.7 C 287.7 20.3 288.3 23.5 286.2 25.9 C 281.1 24.7 278.3 20.5 273.3 18.9 C 274.7 17.4 275.9 17.2 277.9 16.5 C 278.3 15.4 279.5 14.2 279.2 13.0 C 278.1 10.2 275.9 10.5 273.3 9.5 C 271.6 7.3 271.0 6.0 268.1 4.9 C 266.8 4.5 264.6 3.7 264.6 3.7 C 262.2 4.5 259.8 5.2 257.6 6.0 C 256.3 5.9 255.0 6.0 254.1 5.4 C 253.5 5.2 253.9 4.1 253.5 3.7 C 252.4 2.7 250.0 1.4 250.0 1.4 C 251.0 4.6 251.8 2.3 252.9 5.4 C 251.9 5.7 250.9 5.9 250.0 6.0 C 245.3 6.9 244.7 5.9 247.7 7.8 C 250.1 7.3 251.6 6.5 254.1 7.2 C 255.5 11.4 250.7 10.8 247.7 11.3 C 253.4 11.7 256.7 11.8 261.7 13.0 C 261.7 13.1 264.7 14.9 264.6 15.4 C 264.1 16.9 257.7 17.6 257.0 17.7 C 251.8 19.5 254.7 18.8 248.2 19.4 C 244.3 20.8 240.0 21.3 236.6 23.5 C 234.7 28.6 236.8 26.7 236.0 33.4 C 235.8 34.1 235.1 32.3 234.8 31.6 C 234.0 30.1 233.6 28.1 233.1 26.4 C 233.7 20.7 234.0 21.9 235.4 17.7 C 235.0 17.3 234.7 16.4 234.2 16.5 C 233.1 16.9 233.0 19.4 232.5 20.0 C 232.0 20.6 231.3 20.8 230.7 21.2 C 229.3 25.7 231.1 20.6 229.6 17.1 C 229.3 16.6 228.4 17.5 227.8 17.7 C 226.2 20.2 225.7 21.3 229.0 22.4 C 226.8 20.1 227.7 19.7 224.3 18.9 C 222.3 21.9 223.8 21.4 226.7 22.4 C 228.3 24.9 228.6 27.1 231.3 28.8 C 232.6 32.5 235.3 35.2 237.7 38.1 C 238.4 39.1 239.9 40.4 241.2 40.4 " fill="#A7D100" fill-opacity="0.80"></path><path d="M 20.8 10.5 C 26.1 9.8 30.2 8.9 35.3 8.2 C 36.2 7.3 36.6 5.9 37.6 5.2 C 38.6 4.5 39.9 4.5 41.1 4.1 C 45.2 4.6 47.2 5.6 51.0 6.5 C 52.9 6.9 56.9 8.2 56.9 8.2 C 55.0 2.7 49.4 4.5 44.0 4.1 C 41.5 3.2 41.5 2.4 42.3 0.0 C 44.1 0.6 45.6 1.7 47.5 2.4 C 50.3 5.0 47.1 2.6 49.3 1.2 C 49.7 0.9 50.0 2.0 50.5 2.4 C 52.2 3.3 54.9 3.6 56.9 4.1 C 60.8 6.7 59.0 6.0 62.1 7.0 C 62.9 9.4 64.2 11.3 65.0 14.0 C 66.3 18.9 65.9 23.2 71.5 24.5 C 72.3 25.3 73.6 25.9 74.4 26.8 C 74.8 27.4 75.1 29.6 75.5 30.3 C 76.4 31.8 80.2 32.7 80.2 32.7 C 80.7 41.3 80.3 41.2 84.2 47.2 C 81.7 49.8 80.9 46.2 79.0 44.3 C 78.4 42.5 78.8 35.5 77.3 40.2 C 77.1 41.8 77.0 43.4 76.7 44.9 C 76.5 46.1 75.5 48.4 75.5 48.4 C 73.3 46.1 74.0 43.1 73.2 40.2 C 71.0 42.3 70.6 46.0 69.7 48.9 C 69.9 47.0 70.3 45.1 70.3 43.2 C 70.2 42.0 69.9 40.5 69.1 39.7 C 68.7 39.2 68.7 40.8 68.5 41.4 C 68.2 42.0 68.2 42.6 68.0 43.2 C 66.6 47.2 67.7 46.0 65.0 47.8 C 63.8 42.4 68.1 42.0 69.7 37.3 C 68.5 36.9 66.9 37.1 66.2 36.2 C 64.3 33.6 64.9 30.3 62.7 28.0 C 57.7 29.2 54.9 33.4 49.9 35.0 C 51.3 36.4 52.5 36.6 54.5 37.3 C 54.9 38.5 56.1 39.6 55.7 40.8 C 54.7 43.6 52.5 43.4 49.9 44.3 C 48.1 46.5 47.6 47.8 44.6 48.9 C 43.4 49.3 41.1 50.2 41.1 50.2 C 38.8 49.3 36.4 48.6 34.1 47.8 C 32.9 48.0 31.6 47.8 30.7 48.4 C 30.0 48.7 30.5 49.7 30.0 50.2 C 29.0 51.1 26.5 52.4 26.5 52.4 C 27.6 49.2 28.4 51.6 29.5 48.4 C 28.5 48.2 27.5 47.9 26.5 47.8 C 21.9 46.9 21.3 47.9 24.3 46.1 C 26.7 46.6 28.2 47.4 30.7 46.7 C 32.1 42.5 27.2 43.0 24.3 42.6 C 30.0 42.1 33.3 42.0 38.3 40.8 C 38.3 40.7 41.2 39.0 41.1 38.5 C 40.7 37.0 34.3 36.3 33.5 36.2 C 28.4 34.4 31.3 35.1 24.8 34.4 C 20.9 33.0 16.6 32.5 13.2 30.3 C 11.3 25.3 13.4 27.1 12.6 20.5 C 12.4 19.8 11.7 21.5 11.4 22.2 C 10.5 23.8 10.2 25.7 9.7 27.4 C 10.3 33.1 10.5 31.9 12.0 36.2 C 11.6 36.5 11.3 37.4 10.8 37.3 C 9.7 37.0 9.6 34.4 9.1 33.8 C 8.5 33.2 7.8 33.0 7.3 32.7 C 5.9 28.1 7.7 33.2 6.2 36.7 C 5.9 37.2 4.9 36.4 4.4 36.2 C 2.8 33.7 2.3 32.5 5.6 31.5 C 3.4 33.7 4.2 34.2 0.9 35.0 C -1.1 31.9 0.4 32.4 3.3 31.5 C 4.9 28.9 5.2 26.7 7.9 25.1 C 9.1 21.3 11.9 18.6 14.3 15.7 C 15.0 14.8 16.5 13.5 17.8 13.5 " fill="none" stroke="#000000" stroke-width="0.75" stroke-linejoin="round" transform="matrix(1.00, 0.00, 0.00, -1.00, 223.4, 53.8)"></path></g></g><g><clipPath id="clip-1031"><path d="M 237.7 35.7 L 244.7 35.7 L 244.7 42.6 L 237.7 42.6 Z M 237.7 35.7 "></path></clipPath><g clip-path="url(#clip-1031)"><path d="M 242.7 40.6 C 243.5 39.8 243.5 38.5 242.7 37.7 C 241.9 36.9 240.6 36.9 239.7 37.7 C 238.9 38.5 238.9 39.8 239.7 40.6 C 240.6 41.5 241.9 41.5 242.7 40.6 " fill="#000000"></path><path d="M 3.6 0.6 C 4.4 1.4 4.4 2.8 3.6 3.6 C 2.8 4.4 1.4 4.4 0.6 3.6 C -0.2 2.8 -0.2 1.4 0.6 0.6 C 1.4 -0.2 2.8 -0.2 3.6 0.6 " fill="none" stroke="#000000" stroke-width="0.75" stroke-linejoin="round" transform="matrix(1.00, 0.00, 0.00, -1.00, 239.1, 41.3)"></path></g></g><g><clipPath id="clip-1032"><path d="M 250.3 23.1 L 257.3 23.1 L 257.3 30.0 L 250.3 30.0 Z M 250.3 23.1 "></path></clipPath><g clip-path="url(#clip-1032)"><path d="M 255.3 28.1 C 256.1 27.2 256.1 25.9 255.3 25.1 C 254.5 24.3 253.1 24.3 252.3 25.1 C 251.5 25.9 251.5 27.2 252.3 28.1 C 253.1 28.9 254.5 28.9 255.3 28.1 " fill="#000000"></path><path d="M 3.6 0.6 C 4.4 1.4 4.4 2.8 3.6 3.6 C 2.8 4.4 1.4 4.4 0.6 3.6 C -0.2 2.8 -0.2 1.4 0.6 0.6 C 1.4 -0.2 2.8 -0.2 3.6 0.6 " fill="none" stroke="#000000" stroke-width="0.75" stroke-linejoin="round" transform="matrix(1.00, 0.00, 0.00, -1.00, 251.7, 28.7)"></path></g></g><g><clipPath id="clip-1033"><path d="M 0.2 152.2 L 87.2 152.2 L 87.2 207.4 L 0.2 207.4 Z M 0.2 152.2 "></path></clipPath><g clip-path="url(#clip-1033)"><path d="M 22.3 195.5 C 27.7 196.2 31.8 197.1 36.8 197.8 C 37.7 198.7 38.1 200.1 39.2 200.8 C 40.2 201.5 41.5 201.5 42.7 201.9 C 46.7 201.4 48.7 200.4 52.6 199.5 C 54.5 199.1 58.4 197.8 58.4 197.8 C 56.5 203.3 50.9 201.5 45.6 201.9 C 43.0 202.8 43.0 203.6 43.8 206.0 C 45.7 205.4 47.2 204.3 49.1 203.6 C 51.9 201.0 48.6 203.4 50.8 204.8 C 51.3 205.1 51.5 204.0 52.1 203.6 C 53.8 202.7 56.4 202.4 58.4 201.9 C 62.4 199.3 60.5 200.0 63.7 199.0 C 64.5 196.6 65.8 194.7 66.6 192.0 C 67.9 187.1 67.4 182.8 73.0 181.5 C 73.8 180.7 75.1 180.1 75.9 179.2 C 76.4 178.6 76.6 176.4 77.1 175.7 C 77.9 174.2 81.8 173.3 81.8 173.3 C 82.2 164.7 81.9 164.8 85.8 158.8 C 83.3 156.2 82.5 159.8 80.6 161.7 C 79.9 163.5 80.4 170.5 78.8 165.8 C 78.6 164.2 78.5 162.6 78.3 161.1 C 78.0 159.9 77.1 157.6 77.1 157.6 C 74.9 159.9 75.6 162.9 74.8 165.8 C 72.6 163.7 72.2 160.0 71.3 157.1 C 71.5 159.0 71.9 160.9 71.8 162.8 C 71.7 164.0 71.5 165.5 70.7 166.3 C 70.2 166.8 70.2 165.2 70.1 164.6 C 69.8 164.0 69.7 163.4 69.5 162.8 C 68.1 158.8 69.3 160.0 66.6 158.2 C 65.3 163.6 69.6 164.0 71.3 168.7 C 70.1 169.1 68.5 168.9 67.8 169.8 C 65.9 172.4 66.5 175.7 64.3 178.0 C 59.2 176.8 56.4 172.6 51.4 171.0 C 52.8 169.6 54.1 169.4 56.1 168.7 C 56.4 167.5 57.6 166.4 57.3 165.2 C 56.2 162.4 54.1 162.6 51.4 161.7 C 49.7 159.5 49.2 158.2 46.2 157.1 C 45.0 156.7 42.7 155.8 42.7 155.8 C 40.3 156.7 38.0 157.4 35.7 158.2 C 34.5 158.0 33.2 158.2 32.2 157.6 C 31.6 157.3 32.0 156.3 31.6 155.8 C 30.5 154.9 28.1 153.6 28.1 153.6 C 29.1 156.8 29.9 154.4 31.1 157.6 C 30.0 157.8 29.1 158.1 28.1 158.2 C 23.5 159.1 22.8 158.1 25.8 159.9 C 28.3 159.4 29.8 158.6 32.2 159.3 C 33.6 163.5 28.8 163.0 25.8 163.4 C 31.5 163.9 34.8 164.0 39.8 165.2 C 39.8 165.3 42.8 167.0 42.7 167.5 C 42.3 169.0 35.9 169.7 35.1 169.8 C 29.9 171.6 32.8 170.9 26.3 171.6 C 22.4 173.0 18.1 173.5 14.7 175.7 C 12.9 180.7 15.0 178.9 14.1 185.5 C 13.9 186.2 13.2 184.5 13.0 183.8 C 12.1 182.2 11.7 180.3 11.2 178.6 C 11.8 172.9 12.1 174.1 13.6 169.8 C 13.1 169.5 12.9 168.6 12.4 168.7 C 11.2 169.0 11.1 171.6 10.6 172.2 C 10.1 172.8 9.4 173.0 8.9 173.3 C 7.5 177.9 9.2 172.8 7.7 169.3 C 7.5 168.8 6.5 169.6 6.0 169.8 C 4.3 172.3 3.9 173.5 7.1 174.5 C 4.9 172.3 5.8 171.8 2.5 171.0 C 0.5 174.1 2.0 173.6 4.8 174.5 C 6.4 177.1 6.8 179.3 9.5 180.9 C 10.7 184.7 13.4 187.4 15.9 190.3 C 16.6 191.2 18.0 192.5 19.4 192.5 " fill="#D74800" fill-opacity="0.80"></path><path d="M 20.8 10.5 C 26.1 9.8 30.2 8.9 35.3 8.2 C 36.2 7.3 36.6 5.9 37.6 5.2 C 38.6 4.5 39.9 4.5 41.1 4.1 C 45.2 4.6 47.2 5.6 51.0 6.5 C 52.9 6.9 56.9 8.2 56.9 8.2 C 55.0 2.7 49.4 4.5 44.0 4.1 C 41.5 3.2 41.5 2.4 42.3 0.0 C 44.1 0.6 45.6 1.7 47.5 2.4 C 50.3 5.0 47.1 2.6 49.3 1.2 C 49.7 0.9 50.0 2.0 50.5 2.4 C 52.2 3.3 54.9 3.6 56.9 4.1 C 60.8 6.7 59.0 6.0 62.1 7.0 C 62.9 9.4 64.2 11.3 65.0 14.0 C 66.3 18.9 65.9 23.2 71.5 24.5 C 72.3 25.3 73.6 25.9 74.4 26.8 C 74.8 27.4 75.1 29.6 75.5 30.3 C 76.4 31.8 80.2 32.7 80.2 32.7 C 80.7 41.3 80.3 41.2 84.2 47.2 C 81.7 49.8 80.9 46.2 79.0 44.3 C 78.4 42.5 78.8 35.5 77.3 40.2 C 77.1 41.8 77.0 43.4 76.7 44.9 C 76.5 46.1 75.5 48.4 75.5 48.4 C 73.3 46.1 74.0 43.1 73.2 40.2 C 71.0 42.3 70.6 46.0 69.7 48.9 C 69.9 47.0 70.3 45.1 70.3 43.2 C 70.2 42.0 69.9 40.5 69.1 39.7 C 68.7 39.2 68.7 40.8 68.5 41.4 C 68.2 42.0 68.2 42.6 68.0 43.2 C 66.6 47.2 67.7 46.0 65.0 47.8 C 63.8 42.4 68.1 42.0 69.7 37.3 C 68.5 36.9 66.9 37.1 66.2 36.2 C 64.3 33.6 64.9 30.3 62.7 28.0 C 57.7 29.2 54.9 33.4 49.9 35.0 C 51.3 36.4 52.5 36.6 54.5 37.3 C 54.9 38.5 56.1 39.6 55.7 40.8 C 54.7 43.6 52.5 43.4 49.9 44.3 C 48.1 46.5 47.6 47.8 44.6 48.9 C 43.4 49.3 41.1 50.2 41.1 50.2 C 38.8 49.3 36.4 48.6 34.1 47.8 C 32.9 48.0 31.6 47.8 30.7 48.4 C 30.0 48.7 30.5 49.7 30.0 50.2 C 29.0 51.1 26.5 52.4 26.5 52.4 C 27.6 49.2 28.4 51.6 29.5 48.4 C 28.5 48.2 27.5 47.9 26.5 47.8 C 21.9 46.9 21.3 47.9 24.3 46.1 C 26.7 46.6 28.2 47.4 30.7 46.7 C 32.1 42.5 27.2 43.0 24.3 42.6 C 30.0 42.1 33.3 42.0 38.3 40.8 C 38.3 40.7 41.2 39.0 41.1 38.5 C 40.7 37.0 34.3 36.3 33.5 36.2 C 28.4 34.4 31.3 35.1 24.8 34.4 C 20.9 33.0 16.6 32.5 13.2 30.3 C 11.3 25.3 13.4 27.1 12.6 20.5 C 12.4 19.8 11.7 21.5 11.4 22.2 C 10.5 23.8 10.2 25.7 9.7 27.4 C 10.3 33.1 10.5 31.9 12.0 36.2 C 11.6 36.5 11.3 37.4 10.8 37.3 C 9.7 37.0 9.6 34.4 9.1 33.8 C 8.5 33.2 7.8 33.0 7.3 32.7 C 5.9 28.1 7.7 33.2 6.2 36.7 C 5.9 37.2 4.9 36.4 4.4 36.2 C 2.8 33.7 2.3 32.5 5.6 31.5 C 3.4 33.7 4.2 34.2 0.9 35.0 C -1.1 31.9 0.4 32.4 3.3 31.5 C 4.9 28.9 5.2 26.7 7.9 25.1 C 9.1 21.3 11.9 18.6 14.3 15.7 C 15.0 14.8 16.5 13.5 17.8 13.5 " fill="none" stroke="#000000" stroke-width="0.75" stroke-linejoin="round" transform="matrix(1.00, 0.00, 0.00, -1.00, 1.6, 206.0)"></path></g></g><g><clipPath id="clip-1034"><path d="M 15.9 188.0 L 22.8 188.0 L 22.8 195.0 L 15.9 195.0 Z M 15.9 188.0 "></path></clipPath><g clip-path="url(#clip-1034)"><path d="M 20.8 193.0 C 21.7 192.2 21.7 190.9 20.8 190.0 C 20.0 189.2 18.7 189.2 17.9 190.0 C 17.0 190.9 17.0 192.2 17.9 193.0 C 18.7 193.8 20.0 193.8 20.8 193.0 " fill="#000000"></path><path d="M 3.6 0.6 C 4.4 1.4 4.4 2.8 3.6 3.6 C 2.8 4.4 1.4 4.4 0.6 3.6 C -0.2 2.8 -0.2 1.4 0.6 0.6 C 1.4 -0.2 2.8 -0.2 3.6 0.6 " fill="none" stroke="#000000" stroke-width="0.75" stroke-linejoin="round" transform="matrix(1.00, 0.00, 0.00, -1.00, 17.3, 193.6)"></path></g></g><g><clipPath id="clip-1035"><path d="M 28.5 175.5 L 35.4 175.5 L 35.4 182.4 L 28.5 182.4 Z M 28.5 175.5 "></path></clipPath><g clip-path="url(#clip-1035)"><path d="M 33.4 180.4 C 34.2 179.6 34.2 178.3 33.4 177.4 C 32.6 176.6 31.3 176.6 30.5 177.4 C 29.6 178.3 29.6 179.6 30.5 180.4 C 31.3 181.2 32.6 181.2 33.4 180.4 " fill="#000000"></path><path d="M 3.6 0.6 C 4.4 1.4 4.4 2.8 3.6 3.6 C 2.8 4.4 1.4 4.4 0.6 3.6 C -0.2 2.8 -0.2 1.4 0.6 0.6 C 1.4 -0.2 2.8 -0.2 3.6 0.6 " fill="none" stroke="#000000" stroke-width="0.75" stroke-linejoin="round" transform="matrix(1.00, 0.00, 0.00, -1.00, 29.8, 181.0)"></path></g></g><g><clipPath id="clip-1036"><path d="M 222.0 152.2 L 309.0 152.2 L 309.0 207.4 L 222.0 207.4 Z M 222.0 152.2 "></path></clipPath><g clip-path="url(#clip-1036)"><path d="M 244.2 195.5 C 249.5 196.2 253.6 197.1 258.7 197.8 C 259.6 198.7 260.0 200.1 261.1 200.8 C 262.0 201.5 263.3 201.5 264.6 201.9 C 268.6 201.4 270.6 200.4 274.4 199.5 C 276.4 199.1 280.3 197.8 280.3 197.8 C 278.4 203.3 272.8 201.5 267.4 201.9 C 264.9 202.8 264.9 203.6 265.7 206.0 C 267.5 205.4 269.0 204.3 270.9 203.6 C 273.7 201.0 270.5 203.4 272.7 204.8 C 273.1 205.1 273.4 204.0 273.9 203.6 C 275.7 202.7 278.3 202.4 280.3 201.9 C 284.2 199.3 282.4 200.0 285.5 199.0 C 286.3 196.6 287.6 194.7 288.4 192.0 C 289.7 187.1 289.3 182.8 294.9 181.5 C 295.7 180.7 297.0 180.1 297.8 179.2 C 298.2 178.6 298.5 176.4 298.9 175.7 C 299.8 174.2 303.6 173.3 303.6 173.3 C 304.1 164.7 303.7 164.8 307.7 158.8 C 305.1 156.2 304.3 159.8 302.4 161.7 C 301.8 163.5 302.2 170.5 300.7 165.8 C 300.5 164.2 300.4 162.6 300.1 161.1 C 299.9 159.9 298.9 157.6 298.9 157.6 C 296.7 159.9 297.4 162.9 296.7 165.8 C 294.5 163.7 294.0 160.0 293.2 157.1 C 293.3 159.0 293.8 160.9 293.7 162.8 C 293.6 164.0 293.3 165.5 292.5 166.3 C 292.1 166.8 292.1 165.2 291.9 164.6 C 291.7 164.0 291.6 163.4 291.4 162.8 C 290.0 158.8 291.1 160.0 288.4 158.2 C 287.2 163.6 291.5 164.0 293.2 168.7 C 291.9 169.1 290.4 168.9 289.7 169.8 C 287.7 172.4 288.3 175.7 286.2 178.0 C 281.1 176.8 278.3 172.6 273.3 171.0 C 274.7 169.6 275.9 169.4 277.9 168.7 C 278.3 167.5 279.5 166.4 279.2 165.2 C 278.1 162.4 275.9 162.6 273.3 161.7 C 271.6 159.5 271.0 158.2 268.1 157.1 C 266.8 156.7 264.6 155.8 264.6 155.8 C 262.2 156.7 259.8 157.4 257.6 158.2 C 256.3 158.0 255.0 158.2 254.1 157.6 C 253.5 157.3 253.9 156.3 253.5 155.8 C 252.4 154.9 250.0 153.6 250.0 153.6 C 251.0 156.8 251.8 154.4 252.9 157.6 C 251.9 157.8 250.9 158.1 250.0 158.2 C 245.3 159.1 244.7 158.1 247.7 159.9 C 250.1 159.4 251.6 158.6 254.1 159.3 C 255.5 163.5 250.7 163.0 247.7 163.4 C 253.4 163.9 256.7 164.0 261.7 165.2 C 261.7 165.3 264.7 167.0 264.6 167.5 C 264.1 169.0 257.7 169.7 257.0 169.8 C 251.8 171.6 254.7 170.9 248.2 171.6 C 244.3 173.0 240.0 173.5 236.6 175.7 C 234.7 180.7 236.8 178.9 236.0 185.5 C 235.8 186.2 235.1 184.5 234.8 183.8 C 234.0 182.2 233.6 180.3 233.1 178.6 C 233.7 172.9 234.0 174.1 235.4 169.8 C 235.0 169.5 234.7 168.6 234.2 168.7 C 233.1 169.0 233.0 171.6 232.5 172.2 C 232.0 172.8 231.3 173.0 230.7 173.3 C 229.3 177.9 231.1 172.8 229.6 169.3 C 229.3 168.8 228.4 169.6 227.8 169.8 C 226.2 172.3 225.7 173.5 229.0 174.5 C 226.8 172.3 227.7 171.8 224.3 171.0 C 222.3 174.1 223.8 173.6 226.7 174.5 C 228.3 177.1 228.6 179.3 231.3 180.9 C 232.6 184.7 235.3 187.4 237.7 190.3 C 238.4 191.2 239.9 192.5 241.2 192.5 " fill="#A7D100" fill-opacity="0.80"></path><path d="M 20.8 10.5 C 26.1 9.8 30.2 8.9 35.3 8.2 C 36.2 7.3 36.6 5.9 37.6 5.2 C 38.6 4.5 39.9 4.5 41.1 4.1 C 45.2 4.6 47.2 5.6 51.0 6.5 C 52.9 6.9 56.9 8.2 56.9 8.2 C 55.0 2.7 49.4 4.5 44.0 4.1 C 41.5 3.2 41.5 2.4 42.3 0.0 C 44.1 0.6 45.6 1.7 47.5 2.4 C 50.3 5.0 47.1 2.6 49.3 1.2 C 49.7 0.9 50.0 2.0 50.5 2.4 C 52.2 3.3 54.9 3.6 56.9 4.1 C 60.8 6.7 59.0 6.0 62.1 7.0 C 62.9 9.4 64.2 11.3 65.0 14.0 C 66.3 18.9 65.9 23.2 71.5 24.5 C 72.3 25.3 73.6 25.9 74.4 26.8 C 74.8 27.4 75.1 29.6 75.5 30.3 C 76.4 31.8 80.2 32.7 80.2 32.7 C 80.7 41.3 80.3 41.2 84.2 47.2 C 81.7 49.8 80.9 46.2 79.0 44.3 C 78.4 42.5 78.8 35.5 77.3 40.2 C 77.1 41.8 77.0 43.4 76.7 44.9 C 76.5 46.1 75.5 48.4 75.5 48.4 C 73.3 46.1 74.0 43.1 73.2 40.2 C 71.0 42.3 70.6 46.0 69.7 48.9 C 69.9 47.0 70.3 45.1 70.3 43.2 C 70.2 42.0 69.9 40.5 69.1 39.7 C 68.7 39.2 68.7 40.8 68.5 41.4 C 68.2 42.0 68.2 42.6 68.0 43.2 C 66.6 47.2 67.7 46.0 65.0 47.8 C 63.8 42.4 68.1 42.0 69.7 37.3 C 68.5 36.9 66.9 37.1 66.2 36.2 C 64.3 33.6 64.9 30.3 62.7 28.0 C 57.7 29.2 54.9 33.4 49.9 35.0 C 51.3 36.4 52.5 36.6 54.5 37.3 C 54.9 38.5 56.1 39.6 55.7 40.8 C 54.7 43.6 52.5 43.4 49.9 44.3 C 48.1 46.5 47.6 47.8 44.6 48.9 C 43.4 49.3 41.1 50.2 41.1 50.2 C 38.8 49.3 36.4 48.6 34.1 47.8 C 32.9 48.0 31.6 47.8 30.7 48.4 C 30.0 48.7 30.5 49.7 30.0 50.2 C 29.0 51.1 26.5 52.4 26.5 52.4 C 27.6 49.2 28.4 51.6 29.5 48.4 C 28.5 48.2 27.5 47.9 26.5 47.8 C 21.9 46.9 21.3 47.9 24.3 46.1 C 26.7 46.6 28.2 47.4 30.7 46.7 C 32.1 42.5 27.2 43.0 24.3 42.6 C 30.0 42.1 33.3 42.0 38.3 40.8 C 38.3 40.7 41.2 39.0 41.1 38.5 C 40.7 37.0 34.3 36.3 33.5 36.2 C 28.4 34.4 31.3 35.1 24.8 34.4 C 20.9 33.0 16.6 32.5 13.2 30.3 C 11.3 25.3 13.4 27.1 12.6 20.5 C 12.4 19.8 11.7 21.5 11.4 22.2 C 10.5 23.8 10.2 25.7 9.7 27.4 C 10.3 33.1 10.5 31.9 12.0 36.2 C 11.6 36.5 11.3 37.4 10.8 37.3 C 9.7 37.0 9.6 34.4 9.1 33.8 C 8.5 33.2 7.8 33.0 7.3 32.7 C 5.9 28.1 7.7 33.2 6.2 36.7 C 5.9 37.2 4.9 36.4 4.4 36.2 C 2.8 33.7 2.3 32.5 5.6 31.5 C 3.4 33.7 4.2 34.2 0.9 35.0 C -1.1 31.9 0.4 32.4 3.3 31.5 C 4.9 28.9 5.2 26.7 7.9 25.1 C 9.1 21.3 11.9 18.6 14.3 15.7 C 15.0 14.8 16.5 13.5 17.8 13.5 " fill="none" stroke="#000000" stroke-width="0.75" stroke-linejoin="round" transform="matrix(1.00, 0.00, 0.00, -1.00, 223.4, 206.0)"></path></g></g><g><clipPath id="clip-1037"><path d="M 237.7 188.0 L 244.7 188.0 L 244.7 195.0 L 237.7 195.0 Z M 237.7 188.0 "></path></clipPath><g clip-path="url(#clip-1037)"><path d="M 242.7 193.0 C 243.5 192.2 243.5 190.9 242.7 190.0 C 241.9 189.2 240.6 189.2 239.7 190.0 C 238.9 190.9 238.9 192.2 239.7 193.0 C 240.6 193.8 241.9 193.8 242.7 193.0 " fill="#000000"></path><path d="M 3.6 0.6 C 4.4 1.4 4.4 2.8 3.6 3.6 C 2.8 4.4 1.4 4.4 0.6 3.6 C -0.2 2.8 -0.2 1.4 0.6 0.6 C 1.4 -0.2 2.8 -0.2 3.6 0.6 " fill="none" stroke="#000000" stroke-width="0.75" stroke-linejoin="round" transform="matrix(1.00, 0.00, 0.00, -1.00, 239.1, 193.6)"></path></g></g><g><clipPath id="clip-1038"><path d="M 250.3 175.5 L 257.3 175.5 L 257.3 182.4 L 250.3 182.4 Z M 250.3 175.5 "></path></clipPath><g clip-path="url(#clip-1038)"><path d="M 255.3 180.4 C 256.1 179.6 256.1 178.3 255.3 177.4 C 254.5 176.6 253.1 176.6 252.3 177.4 C 251.5 178.3 251.5 179.6 252.3 180.4 C 253.1 181.2 254.5 181.2 255.3 180.4 " fill="#000000"></path><path d="M 3.6 0.6 C 4.4 1.4 4.4 2.8 3.6 3.6 C 2.8 4.4 1.4 4.4 0.6 3.6 C -0.2 2.8 -0.2 1.4 0.6 0.6 C 1.4 -0.2 2.8 -0.2 3.6 0.6 " fill="none" stroke="#000000" stroke-width="0.75" stroke-linejoin="round" transform="matrix(1.00, 0.00, 0.00, -1.00, 251.7, 181.0)"></path></g></g><g><clipPath id="clip-1039"><path d="M 0.2 48.7 L 87.2 48.7 L 87.2 103.9 L 0.2 103.9 Z M 0.2 48.7 "></path></clipPath><g clip-path="url(#clip-1039)"><path d="M 22.3 92.1 C 27.7 92.8 31.8 93.6 36.8 94.3 C 37.7 95.3 38.1 96.6 39.2 97.3 C 40.2 98.1 41.5 98.1 42.7 98.4 C 46.7 97.9 48.7 97.0 52.6 96.1 C 54.5 95.7 58.4 94.3 58.4 94.3 C 56.5 99.8 50.9 98.1 45.6 98.4 C 43.0 99.3 43.0 100.2 43.8 102.6 C 45.7 101.9 47.2 100.9 49.1 100.2 C 51.9 97.6 48.6 99.9 50.8 101.3 C 51.3 101.7 51.5 100.5 52.1 100.2 C 53.8 99.2 56.4 99.0 58.4 98.4 C 62.4 95.8 60.5 96.5 63.7 95.6 C 64.5 93.1 65.8 91.3 66.6 88.6 C 67.9 83.7 67.4 79.4 73.0 78.1 C 73.8 77.2 75.1 76.7 75.9 75.7 C 76.4 75.1 76.6 72.9 77.1 72.2 C 77.9 70.7 81.8 69.9 81.8 69.9 C 82.2 61.2 81.9 61.4 85.8 55.4 C 83.3 52.7 82.5 56.4 80.6 58.2 C 79.9 60.1 80.4 67.1 78.8 62.3 C 78.6 60.8 78.5 59.2 78.3 57.6 C 78.0 56.5 77.1 54.1 77.1 54.1 C 74.9 56.5 75.6 59.5 74.8 62.3 C 72.6 60.3 72.2 56.6 71.3 53.6 C 71.5 55.5 71.9 57.5 71.8 59.4 C 71.7 60.6 71.5 62.1 70.7 62.9 C 70.2 63.3 70.2 61.7 70.1 61.1 C 69.8 60.6 69.7 60.0 69.5 59.4 C 68.1 55.4 69.3 56.6 66.6 54.7 C 65.3 60.2 69.6 60.6 71.3 65.2 C 70.1 65.7 68.5 65.4 67.8 66.4 C 65.9 69.0 66.5 72.2 64.3 74.6 C 59.2 73.4 56.4 69.2 51.4 67.6 C 52.8 66.1 54.1 65.9 56.1 65.2 C 56.4 64.1 57.6 63.0 57.3 61.7 C 56.2 58.9 54.1 59.2 51.4 58.2 C 49.7 56.1 49.2 54.7 46.2 53.6 C 45.0 53.3 42.7 52.4 42.7 52.4 C 40.3 53.3 38.0 54.0 35.7 54.7 C 34.5 54.6 33.2 54.7 32.2 54.1 C 31.6 53.9 32.0 52.8 31.6 52.4 C 30.5 51.4 28.1 50.1 28.1 50.1 C 29.1 53.3 29.9 51.0 31.1 54.1 C 30.0 54.4 29.1 54.7 28.1 54.7 C 23.5 55.6 22.8 54.7 25.8 56.5 C 28.3 56.0 29.8 55.2 32.2 55.9 C 33.6 60.1 28.8 59.6 25.8 60.0 C 31.5 60.4 34.8 60.5 39.8 61.7 C 39.8 61.8 42.8 63.6 42.7 64.1 C 42.3 65.6 35.9 66.3 35.1 66.4 C 29.9 68.2 32.8 67.5 26.3 68.1 C 22.4 69.5 18.1 70.0 14.7 72.2 C 12.9 77.3 15.0 75.5 14.1 82.1 C 13.9 82.8 13.2 81.1 13.0 80.4 C 12.1 78.8 11.7 76.9 11.2 75.1 C 11.8 69.4 12.1 70.7 13.6 66.4 C 13.1 66.0 12.9 65.1 12.4 65.2 C 11.2 65.6 11.1 68.1 10.6 68.7 C 10.1 69.3 9.4 69.5 8.9 69.9 C 7.5 74.4 9.2 69.3 7.7 65.8 C 7.5 65.3 6.5 66.2 6.0 66.4 C 4.3 68.9 3.9 70.0 7.1 71.1 C 4.9 68.8 5.8 68.4 2.5 67.6 C 0.5 70.7 2.0 70.1 4.8 71.1 C 6.4 73.6 6.8 75.8 9.5 77.5 C 10.7 81.2 13.4 83.9 15.9 86.8 C 16.6 87.8 18.0 89.1 19.4 89.1 " fill="#D74800" fill-opacity="0.80"></path><path d="M 20.8 10.5 C 26.1 9.8 30.2 8.9 35.3 8.2 C 36.2 7.3 36.6 5.9 37.6 5.2 C 38.6 4.5 39.9 4.5 41.1 4.1 C 45.2 4.6 47.2 5.6 51.0 6.5 C 52.9 6.9 56.9 8.2 56.9 8.2 C 55.0 2.7 49.4 4.5 44.0 4.1 C 41.5 3.2 41.5 2.4 42.3 0.0 C 44.1 0.6 45.6 1.7 47.5 2.4 C 50.3 5.0 47.1 2.6 49.3 1.2 C 49.7 0.9 50.0 2.0 50.5 2.4 C 52.2 3.3 54.9 3.6 56.9 4.1 C 60.8 6.7 59.0 6.0 62.1 7.0 C 62.9 9.4 64.2 11.3 65.0 14.0 C 66.3 18.9 65.9 23.2 71.5 24.5 C 72.3 25.3 73.6 25.9 74.4 26.8 C 74.8 27.4 75.1 29.6 75.5 30.3 C 76.4 31.8 80.2 32.7 80.2 32.7 C 80.7 41.3 80.3 41.2 84.2 47.2 C 81.7 49.8 80.9 46.2 79.0 44.3 C 78.4 42.5 78.8 35.5 77.3 40.2 C 77.1 41.8 77.0 43.4 76.7 44.9 C 76.5 46.1 75.5 48.4 75.5 48.4 C 73.3 46.1 74.0 43.1 73.2 40.2 C 71.0 42.3 70.6 46.0 69.7 48.9 C 69.9 47.0 70.3 45.1 70.3 43.2 C 70.2 42.0 69.9 40.5 69.1 39.7 C 68.7 39.2 68.7 40.8 68.5 41.4 C 68.2 42.0 68.2 42.6 68.0 43.2 C 66.6 47.2 67.7 46.0 65.0 47.8 C 63.8 42.4 68.1 42.0 69.7 37.3 C 68.5 36.9 66.9 37.1 66.2 36.2 C 64.3 33.6 64.9 30.3 62.7 28.0 C 57.7 29.2 54.9 33.4 49.9 35.0 C 51.3 36.4 52.5 36.6 54.5 37.3 C 54.9 38.5 56.1 39.6 55.7 40.8 C 54.7 43.6 52.5 43.4 49.9 44.3 C 48.1 46.5 47.6 47.8 44.6 48.9 C 43.4 49.3 41.1 50.2 41.1 50.2 C 38.8 49.3 36.4 48.6 34.1 47.8 C 32.9 48.0 31.6 47.8 30.7 48.4 C 30.0 48.7 30.5 49.7 30.0 50.2 C 29.0 51.1 26.5 52.4 26.5 52.4 C 27.6 49.2 28.4 51.6 29.5 48.4 C 28.5 48.2 27.5 47.9 26.5 47.8 C 21.9 46.9 21.3 47.9 24.3 46.1 C 26.7 46.6 28.2 47.4 30.7 46.7 C 32.1 42.5 27.2 43.0 24.3 42.6 C 30.0 42.1 33.3 42.0 38.3 40.8 C 38.3 40.7 41.2 39.0 41.1 38.5 C 40.7 37.0 34.3 36.3 33.5 36.2 C 28.4 34.4 31.3 35.1 24.8 34.4 C 20.9 33.0 16.6 32.5 13.2 30.3 C 11.3 25.3 13.4 27.1 12.6 20.5 C 12.4 19.8 11.7 21.5 11.4 22.2 C 10.5 23.8 10.2 25.7 9.7 27.4 C 10.3 33.1 10.5 31.9 12.0 36.2 C 11.6 36.5 11.3 37.4 10.8 37.3 C 9.7 37.0 9.6 34.4 9.1 33.8 C 8.5 33.2 7.8 33.0 7.3 32.7 C 5.9 28.1 7.7 33.2 6.2 36.7 C 5.9 37.2 4.9 36.4 4.4 36.2 C 2.8 33.7 2.3 32.5 5.6 31.5 C 3.4 33.7 4.2 34.2 0.9 35.0 C -1.1 31.9 0.4 32.4 3.3 31.5 C 4.9 28.9 5.2 26.7 7.9 25.1 C 9.1 21.3 11.9 18.6 14.3 15.7 C 15.0 14.8 16.5 13.5 17.8 13.5 " fill="none" stroke="#000000" stroke-width="0.75" stroke-linejoin="round" transform="matrix(1.00, 0.00, 0.00, -1.00, 1.6, 102.6)"></path></g></g><g><clipPath id="clip-1040"><path d="M 15.9 84.4 L 22.8 84.4 L 22.8 91.3 L 15.9 91.3 Z M 15.9 84.4 "></path></clipPath><g clip-path="url(#clip-1040)"><path d="M 20.8 89.4 C 21.7 88.5 21.7 87.2 20.8 86.4 C 20.0 85.6 18.7 85.6 17.9 86.4 C 17.0 87.2 17.0 88.5 17.9 89.4 C 18.7 90.2 20.0 90.2 20.8 89.4 " fill="#000000"></path><path d="M 3.6 0.6 C 4.4 1.4 4.4 2.8 3.6 3.6 C 2.8 4.4 1.4 4.4 0.6 3.6 C -0.2 2.8 -0.2 1.4 0.6 0.6 C 1.4 -0.2 2.8 -0.2 3.6 0.6 " fill="none" stroke="#000000" stroke-width="0.75" stroke-linejoin="round" transform="matrix(1.00, 0.00, 0.00, -1.00, 17.3, 90.0)"></path></g></g><g><clipPath id="clip-1041"><path d="M 28.5 71.8 L 35.4 71.8 L 35.4 78.8 L 28.5 78.8 Z M 28.5 71.8 "></path></clipPath><g clip-path="url(#clip-1041)"><path d="M 33.4 76.8 C 34.2 75.9 34.2 74.6 33.4 73.8 C 32.6 73.0 31.3 73.0 30.5 73.8 C 29.6 74.6 29.6 75.9 30.5 76.8 C 31.3 77.6 32.6 77.6 33.4 76.8 " fill="#000000"></path><path d="M 3.6 0.6 C 4.4 1.4 4.4 2.8 3.6 3.6 C 2.8 4.4 1.4 4.4 0.6 3.6 C -0.2 2.8 -0.2 1.4 0.6 0.6 C 1.4 -0.2 2.8 -0.2 3.6 0.6 " fill="none" stroke="#000000" stroke-width="0.75" stroke-linejoin="round" transform="matrix(1.00, 0.00, 0.00, -1.00, 29.8, 77.4)"></path></g></g><g><clipPath id="clip-1042"><path d="M 222.0 48.7 L 309.0 48.7 L 309.0 103.9 L 222.0 103.9 Z M 222.0 48.7 "></path></clipPath><g clip-path="url(#clip-1042)"><path d="M 244.2 92.1 C 249.5 92.8 253.6 93.6 258.7 94.3 C 259.6 95.3 260.0 96.6 261.1 97.3 C 262.0 98.1 263.3 98.1 264.6 98.4 C 268.6 97.9 270.6 97.0 274.4 96.1 C 276.4 95.7 280.3 94.3 280.3 94.3 C 278.4 99.8 272.8 98.1 267.4 98.4 C 264.9 99.3 264.9 100.2 265.7 102.6 C 267.5 101.9 269.0 100.9 270.9 100.2 C 273.7 97.6 270.5 99.9 272.7 101.3 C 273.1 101.7 273.4 100.5 273.9 100.2 C 275.7 99.2 278.3 99.0 280.3 98.4 C 284.2 95.8 282.4 96.5 285.5 95.6 C 286.3 93.1 287.6 91.3 288.4 88.6 C 289.7 83.7 289.3 79.4 294.9 78.1 C 295.7 77.2 297.0 76.7 297.8 75.7 C 298.2 75.1 298.5 72.9 298.9 72.2 C 299.8 70.7 303.6 69.9 303.6 69.9 C 304.1 61.2 303.7 61.4 307.7 55.4 C 305.1 52.7 304.3 56.4 302.4 58.2 C 301.8 60.1 302.2 67.1 300.7 62.3 C 300.5 60.8 300.4 59.2 300.1 57.6 C 299.9 56.5 298.9 54.1 298.9 54.1 C 296.7 56.5 297.4 59.5 296.7 62.3 C 294.5 60.3 294.0 56.6 293.2 53.6 C 293.3 55.5 293.8 57.5 293.7 59.4 C 293.6 60.6 293.3 62.1 292.5 62.9 C 292.1 63.3 292.1 61.7 291.9 61.1 C 291.7 60.6 291.6 60.0 291.4 59.4 C 290.0 55.4 291.1 56.6 288.4 54.7 C 287.2 60.2 291.5 60.6 293.2 65.2 C 291.9 65.7 290.4 65.4 289.7 66.4 C 287.7 69.0 288.3 72.2 286.2 74.6 C 281.1 73.4 278.3 69.2 273.3 67.6 C 274.7 66.1 275.9 65.9 277.9 65.2 C 278.3 64.1 279.5 63.0 279.2 61.7 C 278.1 58.9 275.9 59.2 273.3 58.2 C 271.6 56.1 271.0 54.7 268.1 53.6 C 266.8 53.3 264.6 52.4 264.6 52.4 C 262.2 53.3 259.8 54.0 257.6 54.7 C 256.3 54.6 255.0 54.7 254.1 54.1 C 253.5 53.9 253.9 52.8 253.5 52.4 C 252.4 51.4 250.0 50.1 250.0 50.1 C 251.0 53.3 251.8 51.0 252.9 54.1 C 251.9 54.4 250.9 54.7 250.0 54.7 C 245.3 55.6 244.7 54.7 247.7 56.5 C 250.1 56.0 251.6 55.2 254.1 55.9 C 255.5 60.1 250.7 59.6 247.7 60.0 C 253.4 60.4 256.7 60.5 261.7 61.7 C 261.7 61.8 264.7 63.6 264.6 64.1 C 264.1 65.6 257.7 66.3 257.0 66.4 C 251.8 68.2 254.7 67.5 248.2 68.1 C 244.3 69.5 240.0 70.0 236.6 72.2 C 234.7 77.3 236.8 75.5 236.0 82.1 C 235.8 82.8 235.1 81.1 234.8 80.4 C 234.0 78.8 233.6 76.9 233.1 75.1 C 233.7 69.4 234.0 70.7 235.4 66.4 C 235.0 66.0 234.7 65.1 234.2 65.2 C 233.1 65.6 233.0 68.1 232.5 68.7 C 232.0 69.3 231.3 69.5 230.7 69.9 C 229.3 74.4 231.1 69.3 229.6 65.8 C 229.3 65.3 228.4 66.2 227.8 66.4 C 226.2 68.9 225.7 70.0 229.0 71.1 C 226.8 68.8 227.7 68.4 224.3 67.6 C 222.3 70.7 223.8 70.1 226.7 71.1 C 228.3 73.6 228.6 75.8 231.3 77.5 C 232.6 81.2 235.3 83.9 237.7 86.8 C 238.4 87.8 239.9 89.1 241.2 89.1 " fill="#A7D100" fill-opacity="0.80"></path><path d="M 20.8 10.5 C 26.1 9.8 30.2 8.9 35.3 8.2 C 36.2 7.3 36.6 5.9 37.6 5.2 C 38.6 4.5 39.9 4.5 41.1 4.1 C 45.2 4.6 47.2 5.6 51.0 6.5 C 52.9 6.9 56.9 8.2 56.9 8.2 C 55.0 2.7 49.4 4.5 44.0 4.1 C 41.5 3.2 41.5 2.4 42.3 0.0 C 44.1 0.6 45.6 1.7 47.5 2.4 C 50.3 5.0 47.1 2.6 49.3 1.2 C 49.7 0.9 50.0 2.0 50.5 2.4 C 52.2 3.3 54.9 3.6 56.9 4.1 C 60.8 6.7 59.0 6.0 62.1 7.0 C 62.9 9.4 64.2 11.3 65.0 14.0 C 66.3 18.9 65.9 23.2 71.5 24.5 C 72.3 25.3 73.6 25.9 74.4 26.8 C 74.8 27.4 75.1 29.6 75.5 30.3 C 76.4 31.8 80.2 32.7 80.2 32.7 C 80.7 41.3 80.3 41.2 84.2 47.2 C 81.7 49.8 80.9 46.2 79.0 44.3 C 78.4 42.5 78.8 35.5 77.3 40.2 C 77.1 41.8 77.0 43.4 76.7 44.9 C 76.5 46.1 75.5 48.4 75.5 48.4 C 73.3 46.1 74.0 43.1 73.2 40.2 C 71.0 42.3 70.6 46.0 69.7 48.9 C 69.9 47.0 70.3 45.1 70.3 43.2 C 70.2 42.0 69.9 40.5 69.1 39.7 C 68.7 39.2 68.7 40.8 68.5 41.4 C 68.2 42.0 68.2 42.6 68.0 43.2 C 66.6 47.2 67.7 46.0 65.0 47.8 C 63.8 42.4 68.1 42.0 69.7 37.3 C 68.5 36.9 66.9 37.1 66.2 36.2 C 64.3 33.6 64.9 30.3 62.7 28.0 C 57.7 29.2 54.9 33.4 49.9 35.0 C 51.3 36.4 52.5 36.6 54.5 37.3 C 54.9 38.5 56.1 39.6 55.7 40.8 C 54.7 43.6 52.5 43.4 49.9 44.3 C 48.1 46.5 47.6 47.8 44.6 48.9 C 43.4 49.3 41.1 50.2 41.1 50.2 C 38.8 49.3 36.4 48.6 34.1 47.8 C 32.9 48.0 31.6 47.8 30.7 48.4 C 30.0 48.7 30.5 49.7 30.0 50.2 C 29.0 51.1 26.5 52.4 26.5 52.4 C 27.6 49.2 28.4 51.6 29.5 48.4 C 28.5 48.2 27.5 47.9 26.5 47.8 C 21.9 46.9 21.3 47.9 24.3 46.1 C 26.7 46.6 28.2 47.4 30.7 46.7 C 32.1 42.5 27.2 43.0 24.3 42.6 C 30.0 42.1 33.3 42.0 38.3 40.8 C 38.3 40.7 41.2 39.0 41.1 38.5 C 40.7 37.0 34.3 36.3 33.5 36.2 C 28.4 34.4 31.3 35.1 24.8 34.4 C 20.9 33.0 16.6 32.5 13.2 30.3 C 11.3 25.3 13.4 27.1 12.6 20.5 C 12.4 19.8 11.7 21.5 11.4 22.2 C 10.5 23.8 10.2 25.7 9.7 27.4 C 10.3 33.1 10.5 31.9 12.0 36.2 C 11.6 36.5 11.3 37.4 10.8 37.3 C 9.7 37.0 9.6 34.4 9.1 33.8 C 8.5 33.2 7.8 33.0 7.3 32.7 C 5.9 28.1 7.7 33.2 6.2 36.7 C 5.9 37.2 4.9 36.4 4.4 36.2 C 2.8 33.7 2.3 32.5 5.6 31.5 C 3.4 33.7 4.2 34.2 0.9 35.0 C -1.1 31.9 0.4 32.4 3.3 31.5 C 4.9 28.9 5.2 26.7 7.9 25.1 C 9.1 21.3 11.9 18.6 14.3 15.7 C 15.0 14.8 16.5 13.5 17.8 13.5 " fill="none" stroke="#000000" stroke-width="0.75" stroke-linejoin="round" transform="matrix(1.00, 0.00, 0.00, -1.00, 223.4, 102.6)"></path></g></g><g><clipPath id="clip-1043"><path d="M 237.7 84.4 L 244.7 84.4 L 244.7 91.3 L 237.7 91.3 Z M 237.7 84.4 "></path></clipPath><g clip-path="url(#clip-1043)"><path d="M 242.7 89.4 C 243.5 88.5 243.5 87.2 242.7 86.4 C 241.9 85.6 240.6 85.6 239.7 86.4 C 238.9 87.2 238.9 88.5 239.7 89.4 C 240.6 90.2 241.9 90.2 242.7 89.4 " fill="#000000"></path><path d="M 3.6 0.6 C 4.4 1.4 4.4 2.8 3.6 3.6 C 2.8 4.4 1.4 4.4 0.6 3.6 C -0.2 2.8 -0.2 1.4 0.6 0.6 C 1.4 -0.2 2.8 -0.2 3.6 0.6 " fill="none" stroke="#000000" stroke-width="0.75" stroke-linejoin="round" transform="matrix(1.00, 0.00, 0.00, -1.00, 239.1, 90.0)"></path></g></g><g><clipPath id="clip-1044"><path d="M 250.3 71.8 L 257.3 71.8 L 257.3 78.8 L 250.3 78.8 Z M 250.3 71.8 "></path></clipPath><g clip-path="url(#clip-1044)"><path d="M 255.3 76.8 C 256.1 75.9 256.1 74.6 255.3 73.8 C 254.5 73.0 253.1 73.0 252.3 73.8 C 251.5 74.6 251.5 75.9 252.3 76.8 C 253.1 77.6 254.5 77.6 255.3 76.8 " fill="#000000"></path><path d="M 3.6 0.6 C 4.4 1.4 4.4 2.8 3.6 3.6 C 2.8 4.4 1.4 4.4 0.6 3.6 C -0.2 2.8 -0.2 1.4 0.6 0.6 C 1.4 -0.2 2.8 -0.2 3.6 0.6 " fill="none" stroke="#000000" stroke-width="0.75" stroke-linejoin="round" transform="matrix(1.00, 0.00, 0.00, -1.00, 251.7, 77.4)"></path></g></g></g></svg>