<?xml version="1.0" encoding="UTF-8" standalone="no"?><svg xmlns="http://www.w3.org/2000/svg" xmlns:xlink="http://www.w3.org/1999/xlink" clip-rule="evenodd" stroke-miterlimit="10" viewBox="0 0 720 540"><desc>SVG generated by Keynote</desc><defs></defs><g transform="matrix(1.00, 0.00, -0.00, -1.00, 0.0, 540.0)"><path d="M 0.0 540.0 L 720.0 540.0 L 720.0 0.0 L 0.0 0.0 Z M 0.0 540.0 " fill="#FEFFFF"></path><image xlink:href="FAA2BC7315CA07F6CAE1407297A028E8.jpeg" width="343.00" height="355.00" transform="matrix(1.26, 0.00, -0.00, -1.26, 22.0, 509.0)"></image><text xml:space="preserve" font-family="ArialMT,Arial" font-size="14.0" fill="#000000" transform="matrix(1.00, 0.00, -0.00, -1.00, 583.2, 31.4)">9</text><text xml:space="preserve" font-family="ArialMT,Arial" font-size="14.0" fill="#000000" transform="matrix(1.00, 0.00, -0.00, -1.00, 591.0, 31.4)">6</text><text xml:space="preserve" font-family="Georgia,Georgia" font-size="11.0" fill="#000000" transform="matrix(1.00, 0.00, -0.00, -1.00, 321.5, 41.4)">A</text><text xml:space="preserve" font-family="Georgia,Georgia" font-size="11.0" fill="#000000" transform="matrix(1.00, 0.00, -0.00, -1.00, 328.9, 41.4)">r</text><text xml:space="preserve" font-family="Georgia,Georgia" font-size="11.0" fill="#000000" transform="matrix(1.00, 0.00, -0.00, -1.00, 333.4, 41.4)">t</text><text xml:space="preserve" font-family="Georgia,Georgia" font-size="11.0" fill="#000000" transform="matrix(1.00, 0.00, -0.00, -1.00, 337.2, 41.4)"> </text><text xml:space="preserve" font-family="Georgia,Georgia" font-size="11.0" fill="#000000" transform="matrix(1.00, 0.00, -0.00, -1.00, 339.8, 41.4)">b</text><text xml:space="preserve" font-family="Georgia,Georgia" font-size="11.0" fill="#000000" transform="matrix(1.00, 0.00, -0.00, -1.00, 346.0, 41.4)">y</text><text xml:space="preserve" font-family="Georgia,Georgia" font-size="11.0" fill="#000000" transform="matrix(1.00, 0.00, -0.00, -1.00, 351.4, 41.4)"> </text><text xml:space="preserve" font-family="Georgia,Georgia" font-size="11.0" fill="#000000" transform="matrix(1.00, 0.00, -0.00, -1.00, 354.1, 41.4)">M</text><text xml:space="preserve" font-family="Georgia,Georgia" font-size="11.0" fill="#000000" transform="matrix(1.00, 0.00, -0.00, -1.00, 364.3, 41.4)">i</text><text xml:space="preserve" font-family="Georgia,Georgia" font-size="11.0" fill="#000000" transform="matrix(1.00, 0.00, -0.00, -1.00, 367.5, 41.4)">c</text><text xml:space="preserve" font-family="Georgia,Georgia" font-size="11.0" fill="#000000" transform="matrix(1.00, 0.00, -0.00, -1.00, 372.5, 41.4)">h</text><text xml:space="preserve" font-family="Georgia,Georgia" font-size="11.0" fill="#000000" transform="matrix(1.00, 0.00, -0.00, -1.00, 378.9, 41.4)">a</text><text xml:space="preserve" font-family="Georgia,Georgia" font-size="11.0" fill="#000000" transform="matrix(1.00, 0.00, -0.00, -1.00, 384.4, 41.4)">e</text><text xml:space="preserve" font-family="Georgia,Georgia" font-size="11.0" fill="#000000" transform="matrix(1.00, 0.00, -0.00, -1.00, 389.8, 41.4)">l</text><text xml:space="preserve" font-family="Georgia,Georgia" font-size="11.0" fill="#000000" transform="matrix(1.00, 0.00, -0.00, -1.00, 392.9, 41.4)"> </text><text xml:space="preserve" font-family="Georgia,Georgia" font-size="11.0" fill="#000000" transform="matrix(1.00, 0.00, -0.00, -1.00, 395.6, 41.4)">S</text><text xml:space="preserve" font-family="Georgia,Georgia" font-size="11.0" fill="#000000" transform="matrix(1.00, 0.00, -0.00, -1.00, 401.7, 41.4)">k</text><text xml:space="preserve" font-family="Georgia,Georgia" font-size="11.0" fill="#000000" transform="matrix(1.00, 0.00, -0.00, -1.00, 407.6, 41.4)">r</text><text xml:space="preserve" font-family="Georgia,Georgia" font-size="11.0" fill="#000000" transform="matrix(1.00, 0.00, -0.00, -1.00, 412.1, 41.4)">e</text><text xml:space="preserve" font-family="Georgia,Georgia" font-size="11.0" fill="#000000" transform="matrix(1.00, 0.00, -0.00, -1.00, 417.4, 41.4)">p</text><text xml:space="preserve" font-family="Georgia,Georgia" font-size="11.0" fill="#000000" transform="matrix(1.00, 0.00, -0.00, -1.00, 423.7, 41.4)">n</text><text xml:space="preserve" font-family="Georgia,Georgia" font-size="11.0" fill="#000000" transform="matrix(1.00, 0.00, -0.00, -1.00, 430.2, 41.4)">i</text><text xml:space="preserve" font-family="Georgia,Georgia" font-size="11.0" fill="#000000" transform="matrix(1.00, 0.00, -0.00, -1.00, 433.5, 41.4)">c</text><text xml:space="preserve" font-family="Georgia,Georgia" font-size="11.0" fill="#000000" transform="matrix(1.00, 0.00, -0.00, -1.00, 438.4, 41.4)">k</text><text xml:space="preserve" font-family="Arial-ItalicMT,Arial" font-style="italic" font-size="24.0" fill="#000000" transform="matrix(1.00, 0.00, -0.00, -1.00, 503.2, 473.9)">G</text><text xml:space="preserve" font-family="Arial-ItalicMT,Arial" font-style="italic" font-size="24.0" fill="#000000" transform="matrix(1.00, 0.00, -0.00, -1.00, 521.9, 473.9)">e</text><text xml:space="preserve" font-family="Arial-ItalicMT,Arial" font-style="italic" font-size="24.0" fill="#000000" transform="matrix(1.00, 0.00, -0.00, -1.00, 535.2, 473.9)">r</text><text xml:space="preserve" font-family="Arial-ItalicMT,Arial" font-style="italic" font-size="24.0" fill="#000000" transform="matrix(1.00, 0.00, -0.00, -1.00, 543.2, 473.9)">o</text><text xml:space="preserve" font-family="Arial-ItalicMT,Arial" font-style="italic" font-size="24.0" fill="#000000" transform="matrix(1.00, 0.00, -0.00, -1.00, 556.6, 473.9)">b</text><text xml:space="preserve" font-family="Arial-ItalicMT,Arial" font-style="italic" font-size="24.0" fill="#000000" transform="matrix(1.00, 0.00, -0.00, -1.00, 569.9, 473.9)">a</text><text xml:space="preserve" font-family="Arial-ItalicMT,Arial" font-style="italic" font-size="24.0" fill="#000000" transform="matrix(1.00, 0.00, -0.00, -1.00, 583.3, 473.9)">t</text><text xml:space="preserve" font-family="Arial-ItalicMT,Arial" font-style="italic" font-size="24.0" fill="#000000" transform="matrix(1.00, 0.00, -0.00, -1.00, 589.9, 473.9)">r</text><text xml:space="preserve" font-family="Arial-ItalicMT,Arial" font-style="italic" font-size="24.0" fill="#000000" transform="matrix(1.00, 0.00, -0.00, -1.00, 597.9, 473.9)">a</text><text xml:space="preserve" font-family="Arial-ItalicMT,Arial" font-style="italic" font-size="24.0" fill="#000000" transform="matrix(1.00, 0.00, -0.00, -1.00, 611.3, 473.9)">c</text><text xml:space="preserve" font-family="Arial-ItalicMT,Arial" font-style="italic" font-size="24.0" fill="#000000" transform="matrix(1.00, 0.00, -0.00, -1.00, 623.3, 473.9)">h</text><text xml:space="preserve" font-family="Arial-ItalicMT,Arial" font-style="italic" font-size="24.0" fill="#000000" transform="matrix(1.00, 0.00, -0.00, -1.00, 636.6, 473.9)">u</text><text xml:space="preserve" font-family="Arial-ItalicMT,Arial" font-style="italic" font-size="24.0" fill="#000000" transform="matrix(1.00, 0.00, -0.00, -1.00, 650.0, 473.9)">s</text><text xml:space="preserve" font-family="Arial-ItalicMT,Arial" font-style="italic" font-size="24.0" fill="#000000" transform="matrix(1.00, 0.00, -0.00, -1.00, 662.0, 473.9)">:</text><text xml:space="preserve" font-family="Arial-ItalicMT,Arial" font-style="italic" font-size="24.0" fill="#000000" transform="matrix(1.00, 0.00, -0.00, -1.00, 668.6, 473.9)"> </text><text xml:space="preserve" font-family="ArialMT,Arial" font-size="24.0" fill="#000000" transform="matrix(1.00, 0.00, -0.00, -1.00, 503.2, 445.9)">T</text><text xml:space="preserve" font-family="ArialMT,Arial" font-size="24.0" fill="#000000" transform="matrix(1.00, 0.00, -0.00, -1.00, 517.9, 445.9)">h</text><text xml:space="preserve" font-family="ArialMT,Arial" font-size="24.0" fill="#000000" transform="matrix(1.00, 0.00, -0.00, -1.00, 531.2, 445.9)">e</text><text xml:space="preserve" font-family="ArialMT,Arial" font-size="24.0" fill="#000000" transform="matrix(1.00, 0.00, -0.00, -1.00, 544.6, 445.9)"> </text><text xml:space="preserve" font-family="ArialMT,Arial" font-size="24.0" fill="#000000" transform="matrix(1.00, 0.00, -0.00, -1.00, 551.2, 445.9)">“</text><text xml:space="preserve" font-family="ArialMT,Arial" font-size="24.0" fill="#000000" transform="matrix(1.00, 0.00, -0.00, -1.00, 559.2, 445.9)">f</text><text xml:space="preserve" font-family="ArialMT,Arial" font-size="24.0" fill="#000000" transform="matrix(1.00, 0.00, -0.00, -1.00, 565.9, 445.9)">r</text><text xml:space="preserve" font-family="ArialMT,Arial" font-size="24.0" fill="#000000" transform="matrix(1.00, 0.00, -0.00, -1.00, 573.9, 445.9)">o</text><text xml:space="preserve" font-family="ArialMT,Arial" font-size="24.0" fill="#000000" transform="matrix(1.00, 0.00, -0.00, -1.00, 587.2, 445.9)">g</text><text xml:space="preserve" font-family="ArialMT,Arial" font-size="24.0" fill="#000000" transform="matrix(1.00, 0.00, -0.00, -1.00, 600.6, 445.9)">a</text><text xml:space="preserve" font-family="ArialMT,Arial" font-size="24.0" fill="#000000" transform="matrix(1.00, 0.00, -0.00, -1.00, 613.9, 445.9)">m</text><text xml:space="preserve" font-family="ArialMT,Arial" font-size="24.0" fill="#000000" transform="matrix(1.00, 0.00, -0.00, -1.00, 633.9, 445.9)">a</text><text xml:space="preserve" font-family="ArialMT,Arial" font-size="24.0" fill="#000000" transform="matrix(1.00, 0.00, -0.00, -1.00, 647.3, 445.9)">n</text><text xml:space="preserve" font-family="ArialMT,Arial" font-size="24.0" fill="#000000" transform="matrix(1.00, 0.00, -0.00, -1.00, 660.6, 445.9)">d</text><text xml:space="preserve" font-family="ArialMT,Arial" font-size="24.0" fill="#000000" transform="matrix(1.00, 0.00, -0.00, -1.00, 674.0, 445.9)">e</text><text xml:space="preserve" font-family="ArialMT,Arial" font-size="24.0" fill="#000000" transform="matrix(1.00, 0.00, -0.00, -1.00, 687.3, 445.9)">r</text><text xml:space="preserve" font-family="ArialMT,Arial" font-size="24.0" fill="#000000" transform="matrix(1.00, 0.00, -0.00, -1.00, 695.3, 445.9)">”</text></g></svg>