<?xml version="1.0" encoding="UTF-8" standalone="no"?><svg xmlns="http://www.w3.org/2000/svg" xmlns:xlink="http://www.w3.org/1999/xlink" clip-rule="evenodd" stroke-miterlimit="4.00" viewBox="0 0 354 79"><desc>SVG generated by Keynote</desc><defs></defs><g transform="matrix(1.00, 0.00, -0.00, -1.00, 0.0, 79.0)"><g><clipPath id="clip-157"><path d="M 0.3 53.5 L 21.3 53.5 L 21.3 74.5 L 0.3 74.5 Z M 0.3 53.5 "></path></clipPath><g clip-path="url(#clip-157)"><path d="M 9.8 73.4 L 9.8 67.8 L 7.0 72.6 L 5.2 71.6 L 8.0 66.8 L 3.2 69.5 L 2.1 67.7 L 6.9 64.9 L 1.4 64.9 L 1.4 62.8 L 6.9 62.8 L 2.1 60.0 L 3.2 58.2 L 8.0 61.0 L 5.2 56.2 L 7.0 55.1 L 9.8 59.9 L 9.8 54.4 L 11.9 54.4 L 11.9 60.0 L 14.7 55.1 L 16.5 56.2 L 13.7 61.0 L 18.6 58.2 L 19.6 60.0 L 14.8 62.8 L 20.4 62.8 L 20.4 64.9 L 14.8 64.9 L 19.6 67.7 L 18.6 69.5 L 13.7 66.8 L 16.5 71.6 L 14.7 72.6 L 11.9 67.8 L 11.9 73.4 Z M 9.8 73.4 " fill="#497493"></path></g></g><text xml:space="preserve" font-family="HelveticaNeue" font-size="36.0" fill="#777775" transform="matrix(1.00, 0.00, -0.00, -1.00, 34.0, 52.0)">C</text><text xml:space="preserve" font-family="HelveticaNeue" font-size="36.0" fill="#777775" transform="matrix(1.00, 0.00, -0.00, -1.00, 60.0, 52.0)">o</text><text xml:space="preserve" font-family="HelveticaNeue" font-size="36.0" fill="#777775" transform="matrix(1.00, 0.00, -0.00, -1.00, 80.7, 52.0)">m</text><text xml:space="preserve" font-family="HelveticaNeue" font-size="36.0" fill="#777775" transform="matrix(1.00, 0.00, -0.00, -1.00, 111.4, 52.0)">m</text><text xml:space="preserve" font-family="HelveticaNeue" font-size="36.0" fill="#777775" transform="matrix(1.00, 0.00, -0.00, -1.00, 142.1, 52.0)">u</text><text xml:space="preserve" font-family="HelveticaNeue" font-size="36.0" fill="#777775" transform="matrix(1.00, 0.00, -0.00, -1.00, 162.1, 52.0)">n</text><text xml:space="preserve" font-family="HelveticaNeue" font-size="36.0" fill="#777775" transform="matrix(1.00, 0.00, -0.00, -1.00, 182.1, 52.0)">i</text><text xml:space="preserve" font-family="HelveticaNeue" font-size="36.0" fill="#777775" transform="matrix(1.00, 0.00, -0.00, -1.00, 190.1, 52.0)">t</text><text xml:space="preserve" font-family="HelveticaNeue" font-size="36.0" fill="#777775" transform="matrix(1.00, 0.00, -0.00, -1.00, 201.4, 52.0)">y</text><text xml:space="preserve" font-family="HelveticaNeue" font-size="36.0" fill="#777775" transform="matrix(1.00, 0.00, -0.00, -1.00, 219.4, 52.0)"> </text><text xml:space="preserve" font-family="HelveticaNeue" font-size="36.0" fill="#777775" transform="matrix(1.00, 0.00, -0.00, -1.00, 229.4, 52.0)">/</text><text xml:space="preserve" font-family="HelveticaNeue" font-size="36.0" fill="#777775" transform="matrix(1.00, 0.00, -0.00, -1.00, 241.4, 52.0)"> </text><text xml:space="preserve" font-family="HelveticaNeue" font-size="36.0" fill="#777775" transform="matrix(1.00, 0.00, -0.00, -1.00, 34.0, 9.0)">e</text><text xml:space="preserve" font-family="HelveticaNeue" font-size="36.0" fill="#777775" transform="matrix(1.00, 0.00, -0.00, -1.00, 53.3, 9.0)">c</text><text xml:space="preserve" font-family="HelveticaNeue" font-size="36.0" fill="#777775" transform="matrix(1.00, 0.00, -0.00, -1.00, 72.7, 9.0)">o</text><text xml:space="preserve" font-family="HelveticaNeue" font-size="36.0" fill="#777775" transform="matrix(1.00, 0.00, -0.00, -1.00, 93.3, 9.0)">s</text><text xml:space="preserve" font-family="HelveticaNeue" font-size="36.0" fill="#777775" transform="matrix(1.00, 0.00, -0.00, -1.00, 111.3, 9.0)">y</text><text xml:space="preserve" font-family="HelveticaNeue" font-size="36.0" fill="#777775" transform="matrix(1.00, 0.00, -0.00, -1.00, 129.3, 9.0)">s</text><text xml:space="preserve" font-family="HelveticaNeue" font-size="36.0" fill="#777775" transform="matrix(1.00, 0.00, -0.00, -1.00, 147.3, 9.0)">t</text><text xml:space="preserve" font-family="HelveticaNeue" font-size="36.0" fill="#777775" transform="matrix(1.00, 0.00, -0.00, -1.00, 158.7, 9.0)">e</text><text xml:space="preserve" font-family="HelveticaNeue" font-size="36.0" fill="#777775" transform="matrix(1.00, 0.00, -0.00, -1.00, 178.0, 9.0)">m</text><text xml:space="preserve" font-family="HelveticaNeue" font-size="36.0" fill="#777775" transform="matrix(1.00, 0.00, -0.00, -1.00, 208.7, 9.0)"> </text><text xml:space="preserve" font-family="HelveticaNeue" font-size="36.0" fill="#777775" transform="matrix(1.00, 0.00, -0.00, -1.00, 218.7, 9.0)">d</text><text xml:space="preserve" font-family="HelveticaNeue" font-size="36.0" fill="#777775" transform="matrix(1.00, 0.00, -0.00, -1.00, 240.1, 9.0)">i</text><text xml:space="preserve" font-family="HelveticaNeue" font-size="36.0" fill="#777775" transform="matrix(1.00, 0.00, -0.00, -1.00, 248.1, 9.0)">v</text><text xml:space="preserve" font-family="HelveticaNeue" font-size="36.0" fill="#777775" transform="matrix(1.00, 0.00, -0.00, -1.00, 266.1, 9.0)">e</text><text xml:space="preserve" font-family="HelveticaNeue" font-size="36.0" fill="#777775" transform="matrix(1.00, 0.00, -0.00, -1.00, 285.4, 9.0)">r</text><text xml:space="preserve" font-family="HelveticaNeue" font-size="36.0" fill="#777775" transform="matrix(1.00, 0.00, -0.00, -1.00, 297.4, 9.0)">s</text><text xml:space="preserve" font-family="HelveticaNeue" font-size="36.0" fill="#777775" transform="matrix(1.00, 0.00, -0.00, -1.00, 315.4, 9.0)">i</text><text xml:space="preserve" font-family="HelveticaNeue" font-size="36.0" fill="#777775" transform="matrix(1.00, 0.00, -0.00, -1.00, 323.4, 9.0)">t</text><text xml:space="preserve" font-family="HelveticaNeue" font-size="36.0" fill="#777775" transform="matrix(1.00, 0.00, -0.00, -1.00, 334.7, 9.0)">y</text></g></svg>