<?xml version="1.0" encoding="UTF-8" standalone="no"?><svg xmlns="http://www.w3.org/2000/svg" xmlns:xlink="http://www.w3.org/1999/xlink" clip-rule="evenodd" stroke-miterlimit="4.00" viewBox="0 0 1024 768"><desc>SVG generated by Keynote</desc><defs></defs><g transform="matrix(1.00, 0.00, -0.00, -1.00, 0.0, 768.0)"><g><clipPath id="clip-158"><path d="M 0.0 768.0 L 1024.0 768.0 L 1024.0 0.0 L 0.0 0.0 Z M 0.0 768.0 "></path></clipPath><g clip-path="url(#clip-158)"><image xlink:href="../../C9BB2F21-7097-4279-8A02-40FCEE817F8A/assets/A7CD394FAC08D6D1529A4490C94CFB40.jpeg" width="1365.00" height="767.00" transform="matrix(2.81, 0.00, -0.00, -2.82, -1408.0, 1464.0)"></image></g></g><path d="M 0.0 0.0 L 980.0 0.0 L 980.0 726.0 L 0.0 726.0 Z M 0.0 0.0 " fill="none" stroke="#A2A0A6" stroke-width="2.00" transform="matrix(1.00, 0.00, 0.00, -1.00, 22.3, 746.0)"></path><text xml:space="preserve" font-family="HelveticaNeue-Light" font-size="78.0" fill="#5B88A5" transform="matrix(1.00, 0.00, -0.00, -1.00, 118.0, 623.0)">L</text><text xml:space="preserve" font-family="HelveticaNeue-Light" font-size="78.0" fill="#5B88A5" transform="matrix(1.00, 0.00, -0.00, -1.00, 159.9, 623.0)">e</text><text xml:space="preserve" font-family="HelveticaNeue-Light" font-size="78.0" fill="#5B88A5" transform="matrix(1.00, 0.00, -0.00, -1.00, 200.4, 623.0)">v</text><text xml:space="preserve" font-family="HelveticaNeue-Light" font-size="78.0" fill="#5B88A5" transform="matrix(1.00, 0.00, -0.00, -1.00, 236.5, 623.0)">e</text><text xml:space="preserve" font-family="HelveticaNeue-Light" font-size="78.0" fill="#5B88A5" transform="matrix(1.00, 0.00, -0.00, -1.00, 277.0, 623.0)">l</text><text xml:space="preserve" font-family="HelveticaNeue-Light" font-size="78.0" fill="#5B88A5" transform="matrix(1.00, 0.00, -0.00, -1.00, 291.4, 623.0)">s</text><text xml:space="preserve" font-family="HelveticaNeue-Light" font-size="78.0" fill="#5B88A5" transform="matrix(1.00, 0.00, -0.00, -1.00, 328.9, 623.0)"> </text><text xml:space="preserve" font-family="HelveticaNeue-Light" font-size="78.0" fill="#5B88A5" transform="matrix(1.00, 0.00, -0.00, -1.00, 350.6, 623.0)">o</text><text xml:space="preserve" font-family="HelveticaNeue-Light" font-size="78.0" fill="#5B88A5" transform="matrix(1.00, 0.00, -0.00, -1.00, 394.0, 623.0)">f</text><text xml:space="preserve" font-family="HelveticaNeue-Light" font-size="78.0" fill="#5B88A5" transform="matrix(1.00, 0.00, -0.00, -1.00, 414.2, 623.0)"> </text><text xml:space="preserve" font-family="HelveticaNeue-Light" font-size="78.0" fill="#5B88A5" transform="matrix(1.00, 0.00, -0.00, -1.00, 435.9, 623.0)">B</text><text xml:space="preserve" font-family="HelveticaNeue-Light" font-size="78.0" fill="#5B88A5" transform="matrix(1.00, 0.00, -0.00, -1.00, 487.9, 623.0)">i</text><text xml:space="preserve" font-family="HelveticaNeue-Light" font-size="78.0" fill="#5B88A5" transform="matrix(1.00, 0.00, -0.00, -1.00, 502.3, 623.0)">o</text><text xml:space="preserve" font-family="HelveticaNeue-Light" font-size="78.0" fill="#5B88A5" transform="matrix(1.00, 0.00, -0.00, -1.00, 545.7, 623.0)">d</text><text xml:space="preserve" font-family="HelveticaNeue-Light" font-size="78.0" fill="#5B88A5" transform="matrix(1.00, 0.00, -0.00, -1.00, 590.4, 623.0)">i</text><text xml:space="preserve" font-family="HelveticaNeue-Light" font-size="78.0" fill="#5B88A5" transform="matrix(1.00, 0.00, -0.00, -1.00, 604.9, 623.0)">v</text><text xml:space="preserve" font-family="HelveticaNeue-Light" font-size="78.0" fill="#5B88A5" transform="matrix(1.00, 0.00, -0.00, -1.00, 641.0, 623.0)">e</text><text xml:space="preserve" font-family="HelveticaNeue-Light" font-size="78.0" fill="#5B88A5" transform="matrix(1.00, 0.00, -0.00, -1.00, 681.5, 623.0)">r</text><text xml:space="preserve" font-family="HelveticaNeue-Light" font-size="78.0" fill="#5B88A5" transform="matrix(1.00, 0.00, -0.00, -1.00, 706.0, 623.0)">s</text><text xml:space="preserve" font-family="HelveticaNeue-Light" font-size="78.0" fill="#5B88A5" transform="matrix(1.00, 0.00, -0.00, -1.00, 743.6, 623.0)">i</text><text xml:space="preserve" font-family="HelveticaNeue-Light" font-size="78.0" fill="#5B88A5" transform="matrix(1.00, 0.00, -0.00, -1.00, 758.0, 623.0)">t</text><text xml:space="preserve" font-family="HelveticaNeue-Light" font-size="78.0" fill="#5B88A5" transform="matrix(1.00, 0.00, -0.00, -1.00, 781.1, 623.0)">y</text><g><clipPath id="clip-159"><path d="M 86.0 513.5 L 107.0 513.5 L 107.0 534.5 L 86.0 534.5 Z M 86.0 513.5 "></path></clipPath><g clip-path="url(#clip-159)"><path d="M 95.5 533.4 L 95.5 527.8 L 92.7 532.6 L 90.9 531.6 L 93.7 526.8 L 88.9 529.5 L 87.8 527.7 L 92.6 524.9 L 87.1 524.9 L 87.1 522.8 L 92.6 522.8 L 87.8 520.0 L 88.9 518.2 L 93.7 521.0 L 90.9 516.2 L 92.7 515.1 L 95.5 519.9 L 95.5 514.4 L 97.6 514.4 L 97.6 520.0 L 100.4 515.1 L 102.2 516.2 L 99.4 521.0 L 104.3 518.2 L 105.3 520.0 L 100.5 522.8 L 106.1 522.8 L 106.1 524.9 L 100.5 524.9 L 105.3 527.7 L 104.3 529.5 L 99.4 526.8 L 102.2 531.6 L 100.4 532.6 L 97.6 527.8 L 97.6 533.4 Z M 95.5 533.4 " fill="#497493"></path></g></g><text xml:space="preserve" font-family="HelveticaNeue" font-size="36.0" fill="#777775" transform="matrix(1.00, 0.00, -0.00, -1.00, 120.0, 512.0)">S</text><text xml:space="preserve" font-family="HelveticaNeue" font-size="36.0" fill="#777775" transform="matrix(1.00, 0.00, -0.00, -1.00, 143.3, 512.0)">o</text><text xml:space="preserve" font-family="HelveticaNeue" font-size="36.0" fill="#777775" transform="matrix(1.00, 0.00, -0.00, -1.00, 164.0, 512.0)"> </text><text xml:space="preserve" font-family="HelveticaNeue" font-size="36.0" fill="#777775" transform="matrix(1.00, 0.00, -0.00, -1.00, 174.0, 512.0)">f</text><text xml:space="preserve" font-family="HelveticaNeue" font-size="36.0" fill="#777775" transform="matrix(1.00, 0.00, -0.00, -1.00, 184.7, 512.0)">a</text><text xml:space="preserve" font-family="HelveticaNeue" font-size="36.0" fill="#777775" transform="matrix(1.00, 0.00, -0.00, -1.00, 204.0, 512.0)">r</text><text xml:space="preserve" font-family="HelveticaNeue" font-size="36.0" fill="#777775" transform="matrix(1.00, 0.00, -0.00, -1.00, 212.7, 512.0)">,</text><text xml:space="preserve" font-family="HelveticaNeue" font-size="36.0" fill="#777775" transform="matrix(1.00, 0.00, -0.00, -1.00, 222.7, 512.0)"> </text><text xml:space="preserve" font-family="HelveticaNeue" font-size="36.0" fill="#777775" transform="matrix(1.00, 0.00, -0.00, -1.00, 232.7, 512.0)">w</text><text xml:space="preserve" font-family="HelveticaNeue" font-size="36.0" fill="#777775" transform="matrix(1.00, 0.00, -0.00, -1.00, 260.0, 512.0)">e</text><text xml:space="preserve" font-family="HelveticaNeue" font-size="36.0" fill="#777775" transform="matrix(1.00, 0.00, -0.00, -1.00, 279.3, 512.0)">’</text><text xml:space="preserve" font-family="HelveticaNeue" font-size="36.0" fill="#777775" transform="matrix(1.00, 0.00, -0.00, -1.00, 289.3, 512.0)">v</text><text xml:space="preserve" font-family="HelveticaNeue" font-size="36.0" fill="#777775" transform="matrix(1.00, 0.00, -0.00, -1.00, 307.3, 512.0)">e</text><text xml:space="preserve" font-family="HelveticaNeue" font-size="36.0" fill="#777775" transform="matrix(1.00, 0.00, -0.00, -1.00, 326.6, 512.0)"> </text><text xml:space="preserve" font-family="HelveticaNeue" font-size="36.0" fill="#777775" transform="matrix(1.00, 0.00, -0.00, -1.00, 336.6, 512.0)">f</text><text xml:space="preserve" font-family="HelveticaNeue" font-size="36.0" fill="#777775" transform="matrix(1.00, 0.00, -0.00, -1.00, 347.3, 512.0)">o</text><text xml:space="preserve" font-family="HelveticaNeue" font-size="36.0" fill="#777775" transform="matrix(1.00, 0.00, -0.00, -1.00, 368.0, 512.0)">c</text><text xml:space="preserve" font-family="HelveticaNeue" font-size="36.0" fill="#777775" transform="matrix(1.00, 0.00, -0.00, -1.00, 387.3, 512.0)">u</text><text xml:space="preserve" font-family="HelveticaNeue" font-size="36.0" fill="#777775" transform="matrix(1.00, 0.00, -0.00, -1.00, 407.3, 512.0)">s</text><text xml:space="preserve" font-family="HelveticaNeue" font-size="36.0" fill="#777775" transform="matrix(1.00, 0.00, -0.00, -1.00, 425.3, 512.0)">e</text><text xml:space="preserve" font-family="HelveticaNeue" font-size="36.0" fill="#777775" transform="matrix(1.00, 0.00, -0.00, -1.00, 444.6, 512.0)">d</text><text xml:space="preserve" font-family="HelveticaNeue" font-size="36.0" fill="#777775" transform="matrix(1.00, 0.00, -0.00, -1.00, 466.0, 512.0)"> </text><text xml:space="preserve" font-family="HelveticaNeue" font-size="36.0" fill="#777775" transform="matrix(1.00, 0.00, -0.00, -1.00, 120.0, 469.0)">m</text><text xml:space="preserve" font-family="HelveticaNeue" font-size="36.0" fill="#777775" transform="matrix(1.00, 0.00, -0.00, -1.00, 150.7, 469.0)">a</text><text xml:space="preserve" font-family="HelveticaNeue" font-size="36.0" fill="#777775" transform="matrix(1.00, 0.00, -0.00, -1.00, 170.0, 469.0)">i</text><text xml:space="preserve" font-family="HelveticaNeue" font-size="36.0" fill="#777775" transform="matrix(1.00, 0.00, -0.00, -1.00, 178.0, 469.0)">n</text><text xml:space="preserve" font-family="HelveticaNeue" font-size="36.0" fill="#777775" transform="matrix(1.00, 0.00, -0.00, -1.00, 198.0, 469.0)">l</text><text xml:space="preserve" font-family="HelveticaNeue" font-size="36.0" fill="#777775" transform="matrix(1.00, 0.00, -0.00, -1.00, 206.0, 469.0)">y</text><text xml:space="preserve" font-family="HelveticaNeue" font-size="36.0" fill="#777775" transform="matrix(1.00, 0.00, -0.00, -1.00, 224.0, 469.0)"> </text><text xml:space="preserve" font-family="HelveticaNeue" font-size="36.0" fill="#777775" transform="matrix(1.00, 0.00, -0.00, -1.00, 234.0, 469.0)">o</text><text xml:space="preserve" font-family="HelveticaNeue" font-size="36.0" fill="#777775" transform="matrix(1.00, 0.00, -0.00, -1.00, 254.7, 469.0)">n</text><text xml:space="preserve" font-family="HelveticaNeue" font-size="36.0" fill="#777775" transform="matrix(1.00, 0.00, -0.00, -1.00, 274.7, 469.0)"> </text><text xml:space="preserve" font-family="HelveticaNeue" font-size="36.0" fill="#777775" transform="matrix(1.00, 0.00, -0.00, -1.00, 284.7, 469.0)">s</text><text xml:space="preserve" font-family="HelveticaNeue" font-size="36.0" fill="#777775" transform="matrix(1.00, 0.00, -0.00, -1.00, 302.7, 469.0)">p</text><text xml:space="preserve" font-family="HelveticaNeue" font-size="36.0" fill="#777775" transform="matrix(1.00, 0.00, -0.00, -1.00, 324.1, 469.0)">e</text><text xml:space="preserve" font-family="HelveticaNeue" font-size="36.0" fill="#777775" transform="matrix(1.00, 0.00, -0.00, -1.00, 343.4, 469.0)">c</text><text xml:space="preserve" font-family="HelveticaNeue" font-size="36.0" fill="#777775" transform="matrix(1.00, 0.00, -0.00, -1.00, 362.7, 469.0)">i</text><text xml:space="preserve" font-family="HelveticaNeue" font-size="36.0" fill="#777775" transform="matrix(1.00, 0.00, -0.00, -1.00, 370.7, 469.0)">e</text><text xml:space="preserve" font-family="HelveticaNeue" font-size="36.0" fill="#777775" transform="matrix(1.00, 0.00, -0.00, -1.00, 390.1, 469.0)">s</text><text xml:space="preserve" font-family="HelveticaNeue" font-size="36.0" fill="#777775" transform="matrix(1.00, 0.00, -0.00, -1.00, 408.1, 469.0)"> </text><text xml:space="preserve" font-family="HelveticaNeue" font-size="36.0" fill="#777775" transform="matrix(1.00, 0.00, -0.00, -1.00, 120.0, 426.0)">d</text><text xml:space="preserve" font-family="HelveticaNeue" font-size="36.0" fill="#777775" transform="matrix(1.00, 0.00, -0.00, -1.00, 141.3, 426.0)">i</text><text xml:space="preserve" font-family="HelveticaNeue" font-size="36.0" fill="#777775" transform="matrix(1.00, 0.00, -0.00, -1.00, 149.3, 426.0)">v</text><text xml:space="preserve" font-family="HelveticaNeue" font-size="36.0" fill="#777775" transform="matrix(1.00, 0.00, -0.00, -1.00, 167.3, 426.0)">e</text><text xml:space="preserve" font-family="HelveticaNeue" font-size="36.0" fill="#777775" transform="matrix(1.00, 0.00, -0.00, -1.00, 186.7, 426.0)">r</text><text xml:space="preserve" font-family="HelveticaNeue" font-size="36.0" fill="#777775" transform="matrix(1.00, 0.00, -0.00, -1.00, 198.7, 426.0)">s</text><text xml:space="preserve" font-family="HelveticaNeue" font-size="36.0" fill="#777775" transform="matrix(1.00, 0.00, -0.00, -1.00, 216.7, 426.0)">i</text><text xml:space="preserve" font-family="HelveticaNeue" font-size="36.0" fill="#777775" transform="matrix(1.00, 0.00, -0.00, -1.00, 224.7, 426.0)">t</text><text xml:space="preserve" font-family="HelveticaNeue" font-size="36.0" fill="#777775" transform="matrix(1.00, 0.00, -0.00, -1.00, 236.0, 426.0)">y</text><g><clipPath id="clip-160"><path d="M 86.0 352.5 L 107.0 352.5 L 107.0 373.5 L 86.0 373.5 Z M 86.0 352.5 "></path></clipPath><g clip-path="url(#clip-160)"><path d="M 95.5 372.4 L 95.5 366.8 L 92.7 371.6 L 90.9 370.6 L 93.7 365.8 L 88.9 368.5 L 87.8 366.7 L 92.6 363.9 L 87.1 363.9 L 87.1 361.8 L 92.6 361.8 L 87.8 359.0 L 88.9 357.2 L 93.7 360.0 L 90.9 355.2 L 92.7 354.1 L 95.5 358.9 L 95.5 353.4 L 97.6 353.4 L 97.6 359.0 L 100.4 354.1 L 102.2 355.2 L 99.4 360.0 L 104.3 357.2 L 105.3 359.0 L 100.5 361.8 L 106.1 361.8 L 106.1 363.9 L 100.5 363.9 L 105.3 366.7 L 104.3 368.5 L 99.4 365.8 L 102.2 370.6 L 100.4 371.6 L 97.6 366.8 L 97.6 372.4 Z M 95.5 372.4 " fill="#497493"></path></g></g><text xml:space="preserve" font-family="HelveticaNeue" font-size="36.0" fill="#777775" transform="matrix(1.00, 0.00, -0.00, -1.00, 120.0, 351.0)">T</text><text xml:space="preserve" font-family="HelveticaNeue" font-size="36.0" fill="#777775" transform="matrix(1.00, 0.00, -0.00, -1.00, 140.7, 351.0)">h</text><text xml:space="preserve" font-family="HelveticaNeue" font-size="36.0" fill="#777775" transform="matrix(1.00, 0.00, -0.00, -1.00, 160.7, 351.0)">e</text><text xml:space="preserve" font-family="HelveticaNeue" font-size="36.0" fill="#777775" transform="matrix(1.00, 0.00, -0.00, -1.00, 180.0, 351.0)">r</text><text xml:space="preserve" font-family="HelveticaNeue" font-size="36.0" fill="#777775" transform="matrix(1.00, 0.00, -0.00, -1.00, 191.4, 351.0)">e</text><text xml:space="preserve" font-family="HelveticaNeue" font-size="36.0" fill="#777775" transform="matrix(1.00, 0.00, -0.00, -1.00, 210.7, 351.0)"> </text><text xml:space="preserve" font-family="HelveticaNeue" font-size="36.0" fill="#777775" transform="matrix(1.00, 0.00, -0.00, -1.00, 220.7, 351.0)">a</text><text xml:space="preserve" font-family="HelveticaNeue" font-size="36.0" fill="#777775" transform="matrix(1.00, 0.00, -0.00, -1.00, 240.0, 351.0)">r</text><text xml:space="preserve" font-family="HelveticaNeue" font-size="36.0" fill="#777775" transform="matrix(1.00, 0.00, -0.00, -1.00, 251.4, 351.0)">e</text><text xml:space="preserve" font-family="HelveticaNeue" font-size="36.0" fill="#777775" transform="matrix(1.00, 0.00, -0.00, -1.00, 270.7, 351.0)"> </text><text xml:space="preserve" font-family="HelveticaNeue" font-size="36.0" fill="#777775" transform="matrix(1.00, 0.00, -0.00, -1.00, 280.7, 351.0)">o</text><text xml:space="preserve" font-family="HelveticaNeue" font-size="36.0" fill="#777775" transform="matrix(1.00, 0.00, -0.00, -1.00, 301.4, 351.0)">t</text><text xml:space="preserve" font-family="HelveticaNeue" font-size="36.0" fill="#777775" transform="matrix(1.00, 0.00, -0.00, -1.00, 312.7, 351.0)">h</text><text xml:space="preserve" font-family="HelveticaNeue" font-size="36.0" fill="#777775" transform="matrix(1.00, 0.00, -0.00, -1.00, 332.7, 351.0)">e</text><text xml:space="preserve" font-family="HelveticaNeue" font-size="36.0" fill="#777775" transform="matrix(1.00, 0.00, -0.00, -1.00, 352.1, 351.0)">r</text><text xml:space="preserve" font-family="HelveticaNeue" font-size="36.0" fill="#777775" transform="matrix(1.00, 0.00, -0.00, -1.00, 364.0, 351.0)"> </text><text xml:space="preserve" font-family="HelveticaNeue" font-size="36.0" fill="#777775" transform="matrix(1.00, 0.00, -0.00, -1.00, 120.0, 308.0)">i</text><text xml:space="preserve" font-family="HelveticaNeue" font-size="36.0" fill="#777775" transform="matrix(1.00, 0.00, -0.00, -1.00, 128.0, 308.0)">m</text><text xml:space="preserve" font-family="HelveticaNeue" font-size="36.0" fill="#777775" transform="matrix(1.00, 0.00, -0.00, -1.00, 158.7, 308.0)">p</text><text xml:space="preserve" font-family="HelveticaNeue" font-size="36.0" fill="#777775" transform="matrix(1.00, 0.00, -0.00, -1.00, 180.0, 308.0)">o</text><text xml:space="preserve" font-family="HelveticaNeue" font-size="36.0" fill="#777775" transform="matrix(1.00, 0.00, -0.00, -1.00, 200.7, 308.0)">r</text><text xml:space="preserve" font-family="HelveticaNeue" font-size="36.0" fill="#777775" transform="matrix(1.00, 0.00, -0.00, -1.00, 212.7, 308.0)">t</text><text xml:space="preserve" font-family="HelveticaNeue" font-size="36.0" fill="#777775" transform="matrix(1.00, 0.00, -0.00, -1.00, 224.0, 308.0)">a</text><text xml:space="preserve" font-family="HelveticaNeue" font-size="36.0" fill="#777775" transform="matrix(1.00, 0.00, -0.00, -1.00, 243.4, 308.0)">n</text><text xml:space="preserve" font-family="HelveticaNeue" font-size="36.0" fill="#777775" transform="matrix(1.00, 0.00, -0.00, -1.00, 263.4, 308.0)">t</text><text xml:space="preserve" font-family="HelveticaNeue" font-size="36.0" fill="#777775" transform="matrix(1.00, 0.00, -0.00, -1.00, 274.7, 308.0)"> </text><text xml:space="preserve" font-family="HelveticaNeue" font-size="36.0" fill="#777775" transform="matrix(1.00, 0.00, -0.00, -1.00, 284.7, 308.0)">a</text><text xml:space="preserve" font-family="HelveticaNeue" font-size="36.0" fill="#777775" transform="matrix(1.00, 0.00, -0.00, -1.00, 304.1, 308.0)">s</text><text xml:space="preserve" font-family="HelveticaNeue" font-size="36.0" fill="#777775" transform="matrix(1.00, 0.00, -0.00, -1.00, 322.1, 308.0)">p</text><text xml:space="preserve" font-family="HelveticaNeue" font-size="36.0" fill="#777775" transform="matrix(1.00, 0.00, -0.00, -1.00, 343.4, 308.0)">e</text><text xml:space="preserve" font-family="HelveticaNeue" font-size="36.0" fill="#777775" transform="matrix(1.00, 0.00, -0.00, -1.00, 362.7, 308.0)">c</text><text xml:space="preserve" font-family="HelveticaNeue" font-size="36.0" fill="#777775" transform="matrix(1.00, 0.00, -0.00, -1.00, 382.1, 308.0)">t</text><text xml:space="preserve" font-family="HelveticaNeue" font-size="36.0" fill="#777775" transform="matrix(1.00, 0.00, -0.00, -1.00, 393.4, 308.0)">s</text><text xml:space="preserve" font-family="HelveticaNeue" font-size="36.0" fill="#777775" transform="matrix(1.00, 0.00, -0.00, -1.00, 411.4, 308.0)"> </text><text xml:space="preserve" font-family="HelveticaNeue" font-size="36.0" fill="#777775" transform="matrix(1.00, 0.00, -0.00, -1.00, 421.4, 308.0)">o</text><text xml:space="preserve" font-family="HelveticaNeue" font-size="36.0" fill="#777775" transform="matrix(1.00, 0.00, -0.00, -1.00, 442.1, 308.0)">f</text><text xml:space="preserve" font-family="HelveticaNeue" font-size="36.0" fill="#777775" transform="matrix(1.00, 0.00, -0.00, -1.00, 452.7, 308.0)"> </text><text xml:space="preserve" font-family="HelveticaNeue" font-size="36.0" fill="#777775" transform="matrix(1.00, 0.00, -0.00, -1.00, 120.0, 265.0)">b</text><text xml:space="preserve" font-family="HelveticaNeue" font-size="36.0" fill="#777775" transform="matrix(1.00, 0.00, -0.00, -1.00, 141.3, 265.0)">i</text><text xml:space="preserve" font-family="HelveticaNeue" font-size="36.0" fill="#777775" transform="matrix(1.00, 0.00, -0.00, -1.00, 149.3, 265.0)">o</text><text xml:space="preserve" font-family="HelveticaNeue" font-size="36.0" fill="#777775" transform="matrix(1.00, 0.00, -0.00, -1.00, 170.0, 265.0)">d</text><text xml:space="preserve" font-family="HelveticaNeue" font-size="36.0" fill="#777775" transform="matrix(1.00, 0.00, -0.00, -1.00, 191.4, 265.0)">i</text><text xml:space="preserve" font-family="HelveticaNeue" font-size="36.0" fill="#777775" transform="matrix(1.00, 0.00, -0.00, -1.00, 199.3, 265.0)">v</text><text xml:space="preserve" font-family="HelveticaNeue" font-size="36.0" fill="#777775" transform="matrix(1.00, 0.00, -0.00, -1.00, 217.3, 265.0)">e</text><text xml:space="preserve" font-family="HelveticaNeue" font-size="36.0" fill="#777775" transform="matrix(1.00, 0.00, -0.00, -1.00, 236.7, 265.0)">r</text><text xml:space="preserve" font-family="HelveticaNeue" font-size="36.0" fill="#777775" transform="matrix(1.00, 0.00, -0.00, -1.00, 248.7, 265.0)">s</text><text xml:space="preserve" font-family="HelveticaNeue" font-size="36.0" fill="#777775" transform="matrix(1.00, 0.00, -0.00, -1.00, 266.7, 265.0)">i</text><text xml:space="preserve" font-family="HelveticaNeue" font-size="36.0" fill="#777775" transform="matrix(1.00, 0.00, -0.00, -1.00, 274.7, 265.0)">t</text><text xml:space="preserve" font-family="HelveticaNeue" font-size="36.0" fill="#777775" transform="matrix(1.00, 0.00, -0.00, -1.00, 286.0, 265.0)">y</text><text xml:space="preserve" font-family="HelveticaNeue" font-size="36.0" fill="#777775" transform="matrix(1.00, 0.00, -0.00, -1.00, 304.0, 265.0)"> </text><text xml:space="preserve" font-family="HelveticaNeue" font-size="36.0" fill="#777775" transform="matrix(1.00, 0.00, -0.00, -1.00, 314.0, 265.0)">o</text><text xml:space="preserve" font-family="HelveticaNeue" font-size="36.0" fill="#777775" transform="matrix(1.00, 0.00, -0.00, -1.00, 334.7, 265.0)">f</text><text xml:space="preserve" font-family="HelveticaNeue" font-size="36.0" fill="#777775" transform="matrix(1.00, 0.00, -0.00, -1.00, 345.3, 265.0)"> </text><text xml:space="preserve" font-family="HelveticaNeue" font-size="36.0" fill="#777775" transform="matrix(1.00, 0.00, -0.00, -1.00, 355.3, 265.0)">c</text><text xml:space="preserve" font-family="HelveticaNeue" font-size="36.0" fill="#777775" transform="matrix(1.00, 0.00, -0.00, -1.00, 374.7, 265.0)">o</text><text xml:space="preserve" font-family="HelveticaNeue" font-size="36.0" fill="#777775" transform="matrix(1.00, 0.00, -0.00, -1.00, 395.3, 265.0)">n</text><text xml:space="preserve" font-family="HelveticaNeue" font-size="36.0" fill="#777775" transform="matrix(1.00, 0.00, -0.00, -1.00, 415.3, 265.0)">c</text><text xml:space="preserve" font-family="HelveticaNeue" font-size="36.0" fill="#777775" transform="matrix(1.00, 0.00, -0.00, -1.00, 434.7, 265.0)">e</text><text xml:space="preserve" font-family="HelveticaNeue" font-size="36.0" fill="#777775" transform="matrix(1.00, 0.00, -0.00, -1.00, 454.0, 265.0)">r</text><text xml:space="preserve" font-family="HelveticaNeue" font-size="36.0" fill="#777775" transform="matrix(1.00, 0.00, -0.00, -1.00, 466.6, 265.0)">n</text><text xml:space="preserve" font-family="HelveticaNeue" font-size="36.0" fill="#777775" transform="matrix(1.00, 0.00, -0.00, -1.00, 486.7, 265.0)"> </text><g><clipPath id="clip-161"><path d="M 533.3 513.5 L 554.3 513.5 L 554.3 534.5 L 533.3 534.5 Z M 533.3 513.5 "></path></clipPath><g clip-path="url(#clip-161)"><path d="M 542.8 533.4 L 542.8 527.8 L 540.0 532.6 L 538.2 531.6 L 541.0 526.8 L 536.2 529.5 L 535.1 527.7 L 539.9 524.9 L 534.4 524.9 L 534.4 522.8 L 539.9 522.8 L 535.1 520.0 L 536.2 518.2 L 541.0 521.0 L 538.2 516.2 L 540.0 515.1 L 542.8 519.9 L 542.8 514.4 L 544.9 514.4 L 544.9 520.0 L 547.7 515.1 L 549.5 516.2 L 546.7 521.0 L 551.6 518.2 L 552.6 520.0 L 547.8 522.8 L 553.4 522.8 L 553.4 524.9 L 547.8 524.9 L 552.6 527.7 L 551.6 529.5 L 546.7 526.8 L 549.5 531.6 L 547.7 532.6 L 544.9 527.8 L 544.9 533.4 Z M 542.8 533.4 " fill="#497493"></path></g></g><text xml:space="preserve" font-family="HelveticaNeue" font-size="36.0" fill="#777775" transform="matrix(1.00, 0.00, -0.00, -1.00, 567.0, 512.0)">G</text><text xml:space="preserve" font-family="HelveticaNeue" font-size="36.0" fill="#777775" transform="matrix(1.00, 0.00, -0.00, -1.00, 594.3, 512.0)">e</text><text xml:space="preserve" font-family="HelveticaNeue" font-size="36.0" fill="#777775" transform="matrix(1.00, 0.00, -0.00, -1.00, 613.7, 512.0)">n</text><text xml:space="preserve" font-family="HelveticaNeue" font-size="36.0" fill="#777775" transform="matrix(1.00, 0.00, -0.00, -1.00, 633.7, 512.0)">e</text><text xml:space="preserve" font-family="HelveticaNeue" font-size="36.0" fill="#777775" transform="matrix(1.00, 0.00, -0.00, -1.00, 653.0, 512.0)">t</text><text xml:space="preserve" font-family="HelveticaNeue" font-size="36.0" fill="#777775" transform="matrix(1.00, 0.00, -0.00, -1.00, 664.3, 512.0)">i</text><text xml:space="preserve" font-family="HelveticaNeue" font-size="36.0" fill="#777775" transform="matrix(1.00, 0.00, -0.00, -1.00, 672.3, 512.0)">c</text><text xml:space="preserve" font-family="HelveticaNeue" font-size="36.0" fill="#777775" transform="matrix(1.00, 0.00, -0.00, -1.00, 691.7, 512.0)"> </text><text xml:space="preserve" font-family="HelveticaNeue" font-size="36.0" fill="#777775" transform="matrix(1.00, 0.00, -0.00, -1.00, 701.7, 512.0)">d</text><text xml:space="preserve" font-family="HelveticaNeue" font-size="36.0" fill="#777775" transform="matrix(1.00, 0.00, -0.00, -1.00, 723.0, 512.0)">i</text><text xml:space="preserve" font-family="HelveticaNeue" font-size="36.0" fill="#777775" transform="matrix(1.00, 0.00, -0.00, -1.00, 731.0, 512.0)">v</text><text xml:space="preserve" font-family="HelveticaNeue" font-size="36.0" fill="#777775" transform="matrix(1.00, 0.00, -0.00, -1.00, 749.0, 512.0)">e</text><text xml:space="preserve" font-family="HelveticaNeue" font-size="36.0" fill="#777775" transform="matrix(1.00, 0.00, -0.00, -1.00, 768.3, 512.0)">r</text><text xml:space="preserve" font-family="HelveticaNeue" font-size="36.0" fill="#777775" transform="matrix(1.00, 0.00, -0.00, -1.00, 780.3, 512.0)">s</text><text xml:space="preserve" font-family="HelveticaNeue" font-size="36.0" fill="#777775" transform="matrix(1.00, 0.00, -0.00, -1.00, 798.3, 512.0)">i</text><text xml:space="preserve" font-family="HelveticaNeue" font-size="36.0" fill="#777775" transform="matrix(1.00, 0.00, -0.00, -1.00, 806.3, 512.0)">t</text><text xml:space="preserve" font-family="HelveticaNeue" font-size="36.0" fill="#777775" transform="matrix(1.00, 0.00, -0.00, -1.00, 817.7, 512.0)">y</text><g><clipPath id="clip-162"><path d="M 533.3 438.5 L 554.3 438.5 L 554.3 459.5 L 533.3 459.5 Z M 533.3 438.5 "></path></clipPath><g clip-path="url(#clip-162)"><path d="M 542.8 458.4 L 542.8 452.8 L 540.0 457.6 L 538.2 456.6 L 541.0 451.8 L 536.2 454.5 L 535.1 452.7 L 539.9 449.9 L 534.4 449.9 L 534.4 447.8 L 539.9 447.8 L 535.1 445.0 L 536.2 443.2 L 541.0 446.0 L 538.2 441.2 L 540.0 440.1 L 542.8 444.9 L 542.8 439.4 L 544.9 439.4 L 544.9 445.0 L 547.7 440.1 L 549.5 441.2 L 546.7 446.0 L 551.6 443.2 L 552.6 445.0 L 547.8 447.8 L 553.4 447.8 L 553.4 449.9 L 547.8 449.9 L 552.6 452.7 L 551.6 454.5 L 546.7 451.8 L 549.5 456.6 L 547.7 457.6 L 544.9 452.8 L 544.9 458.4 Z M 542.8 458.4 " fill="#497493"></path></g></g><text xml:space="preserve" font-family="HelveticaNeue" font-size="36.0" fill="#777775" transform="matrix(1.00, 0.00, -0.00, -1.00, 567.0, 437.0)">S</text><text xml:space="preserve" font-family="HelveticaNeue" font-size="36.0" fill="#777775" transform="matrix(1.00, 0.00, -0.00, -1.00, 590.3, 437.0)">p</text><text xml:space="preserve" font-family="HelveticaNeue" font-size="36.0" fill="#777775" transform="matrix(1.00, 0.00, -0.00, -1.00, 611.7, 437.0)">e</text><text xml:space="preserve" font-family="HelveticaNeue" font-size="36.0" fill="#777775" transform="matrix(1.00, 0.00, -0.00, -1.00, 631.0, 437.0)">c</text><text xml:space="preserve" font-family="HelveticaNeue" font-size="36.0" fill="#777775" transform="matrix(1.00, 0.00, -0.00, -1.00, 650.3, 437.0)">i</text><text xml:space="preserve" font-family="HelveticaNeue" font-size="36.0" fill="#777775" transform="matrix(1.00, 0.00, -0.00, -1.00, 658.3, 437.0)">e</text><text xml:space="preserve" font-family="HelveticaNeue" font-size="36.0" fill="#777775" transform="matrix(1.00, 0.00, -0.00, -1.00, 677.7, 437.0)">s</text><text xml:space="preserve" font-family="HelveticaNeue" font-size="36.0" fill="#777775" transform="matrix(1.00, 0.00, -0.00, -1.00, 695.7, 437.0)"> </text><text xml:space="preserve" font-family="HelveticaNeue" font-size="36.0" fill="#777775" transform="matrix(1.00, 0.00, -0.00, -1.00, 705.7, 437.0)">d</text><text xml:space="preserve" font-family="HelveticaNeue" font-size="36.0" fill="#777775" transform="matrix(1.00, 0.00, -0.00, -1.00, 727.0, 437.0)">i</text><text xml:space="preserve" font-family="HelveticaNeue" font-size="36.0" fill="#777775" transform="matrix(1.00, 0.00, -0.00, -1.00, 735.0, 437.0)">v</text><text xml:space="preserve" font-family="HelveticaNeue" font-size="36.0" fill="#777775" transform="matrix(1.00, 0.00, -0.00, -1.00, 753.0, 437.0)">e</text><text xml:space="preserve" font-family="HelveticaNeue" font-size="36.0" fill="#777775" transform="matrix(1.00, 0.00, -0.00, -1.00, 772.3, 437.0)">r</text><text xml:space="preserve" font-family="HelveticaNeue" font-size="36.0" fill="#777775" transform="matrix(1.00, 0.00, -0.00, -1.00, 784.3, 437.0)">s</text><text xml:space="preserve" font-family="HelveticaNeue" font-size="36.0" fill="#777775" transform="matrix(1.00, 0.00, -0.00, -1.00, 802.3, 437.0)">i</text><text xml:space="preserve" font-family="HelveticaNeue" font-size="36.0" fill="#777775" transform="matrix(1.00, 0.00, -0.00, -1.00, 810.3, 437.0)">t</text><text xml:space="preserve" font-family="HelveticaNeue" font-size="36.0" fill="#777775" transform="matrix(1.00, 0.00, -0.00, -1.00, 821.7, 437.0)">y</text><text xml:space="preserve" font-family="HelveticaNeue" font-size="36.0" fill="#777775" transform="matrix(1.00, 0.00, -0.00, -1.00, 839.7, 437.0)"> </text><text xml:space="preserve" font-family="HelveticaNeue" font-size="36.0" fill="#777775" transform="matrix(1.00, 0.00, -0.00, -1.00, 849.7, 437.0)">a</text><text xml:space="preserve" font-family="HelveticaNeue" font-size="36.0" fill="#777775" transform="matrix(1.00, 0.00, -0.00, -1.00, 869.0, 437.0)">t</text><text xml:space="preserve" font-family="HelveticaNeue" font-size="36.0" fill="#777775" transform="matrix(1.00, 0.00, -0.00, -1.00, 880.3, 437.0)"> </text><text xml:space="preserve" font-family="HelveticaNeue" font-size="36.0" fill="#777775" transform="matrix(1.00, 0.00, -0.00, -1.00, 567.0, 394.0)">o</text><text xml:space="preserve" font-family="HelveticaNeue" font-size="36.0" fill="#777775" transform="matrix(1.00, 0.00, -0.00, -1.00, 587.7, 394.0)">t</text><text xml:space="preserve" font-family="HelveticaNeue" font-size="36.0" fill="#777775" transform="matrix(1.00, 0.00, -0.00, -1.00, 599.0, 394.0)">h</text><text xml:space="preserve" font-family="HelveticaNeue" font-size="36.0" fill="#777775" transform="matrix(1.00, 0.00, -0.00, -1.00, 619.0, 394.0)">e</text><text xml:space="preserve" font-family="HelveticaNeue" font-size="36.0" fill="#777775" transform="matrix(1.00, 0.00, -0.00, -1.00, 638.4, 394.0)">r</text><text xml:space="preserve" font-family="HelveticaNeue" font-size="36.0" fill="#777775" transform="matrix(1.00, 0.00, -0.00, -1.00, 650.3, 394.0)"> </text><text xml:space="preserve" font-family="HelveticaNeue" font-size="36.0" fill="#777775" transform="matrix(1.00, 0.00, -0.00, -1.00, 660.3, 394.0)">l</text><text xml:space="preserve" font-family="HelveticaNeue" font-size="36.0" fill="#777775" transform="matrix(1.00, 0.00, -0.00, -1.00, 668.3, 394.0)">e</text><text xml:space="preserve" font-family="HelveticaNeue" font-size="36.0" fill="#777775" transform="matrix(1.00, 0.00, -0.00, -1.00, 687.7, 394.0)">v</text><text xml:space="preserve" font-family="HelveticaNeue" font-size="36.0" fill="#777775" transform="matrix(1.00, 0.00, -0.00, -1.00, 705.7, 394.0)">e</text><text xml:space="preserve" font-family="HelveticaNeue" font-size="36.0" fill="#777775" transform="matrix(1.00, 0.00, -0.00, -1.00, 725.0, 394.0)">l</text><text xml:space="preserve" font-family="HelveticaNeue" font-size="36.0" fill="#777775" transform="matrix(1.00, 0.00, -0.00, -1.00, 733.0, 394.0)">s</text><text xml:space="preserve" font-family="HelveticaNeue" font-size="36.0" fill="#777775" transform="matrix(1.00, 0.00, -0.00, -1.00, 751.0, 394.0)"> </text><text xml:space="preserve" font-family="HelveticaNeue" font-size="36.0" fill="#777775" transform="matrix(1.00, 0.00, -0.00, -1.00, 761.0, 394.0)">(</text><text xml:space="preserve" font-family="HelveticaNeue" font-size="36.0" fill="#777775" transform="matrix(1.00, 0.00, -0.00, -1.00, 770.3, 394.0)">a</text><text xml:space="preserve" font-family="HelveticaNeue" font-size="36.0" fill="#777775" transform="matrix(1.00, 0.00, -0.00, -1.00, 789.7, 394.0)">l</text><text xml:space="preserve" font-family="HelveticaNeue" font-size="36.0" fill="#777775" transform="matrix(1.00, 0.00, -0.00, -1.00, 797.7, 394.0)">p</text><text xml:space="preserve" font-family="HelveticaNeue" font-size="36.0" fill="#777775" transform="matrix(1.00, 0.00, -0.00, -1.00, 819.0, 394.0)">h</text><text xml:space="preserve" font-family="HelveticaNeue" font-size="36.0" fill="#777775" transform="matrix(1.00, 0.00, -0.00, -1.00, 839.0, 394.0)">a</text><text xml:space="preserve" font-family="HelveticaNeue" font-size="36.0" fill="#777775" transform="matrix(1.00, 0.00, -0.00, -1.00, 858.3, 394.0)">,</text><text xml:space="preserve" font-family="HelveticaNeue" font-size="36.0" fill="#777775" transform="matrix(1.00, 0.00, -0.00, -1.00, 868.4, 394.0)"> </text><text xml:space="preserve" font-family="HelveticaNeue" font-size="36.0" fill="#777775" transform="matrix(1.00, 0.00, -0.00, -1.00, 567.0, 351.0)">b</text><text xml:space="preserve" font-family="HelveticaNeue" font-size="36.0" fill="#777775" transform="matrix(1.00, 0.00, -0.00, -1.00, 588.3, 351.0)">e</text><text xml:space="preserve" font-family="HelveticaNeue" font-size="36.0" fill="#777775" transform="matrix(1.00, 0.00, -0.00, -1.00, 607.7, 351.0)">t</text><text xml:space="preserve" font-family="HelveticaNeue" font-size="36.0" fill="#777775" transform="matrix(1.00, 0.00, -0.00, -1.00, 619.0, 351.0)">a</text><text xml:space="preserve" font-family="HelveticaNeue" font-size="36.0" fill="#777775" transform="matrix(1.00, 0.00, -0.00, -1.00, 638.4, 351.0)">,</text><text xml:space="preserve" font-family="HelveticaNeue" font-size="36.0" fill="#777775" transform="matrix(1.00, 0.00, -0.00, -1.00, 648.4, 351.0)"> </text><text xml:space="preserve" font-family="HelveticaNeue" font-size="36.0" fill="#777775" transform="matrix(1.00, 0.00, -0.00, -1.00, 658.4, 351.0)">a</text><text xml:space="preserve" font-family="HelveticaNeue" font-size="36.0" fill="#777775" transform="matrix(1.00, 0.00, -0.00, -1.00, 677.7, 351.0)">n</text><text xml:space="preserve" font-family="HelveticaNeue" font-size="36.0" fill="#777775" transform="matrix(1.00, 0.00, -0.00, -1.00, 697.7, 351.0)">d</text><text xml:space="preserve" font-family="HelveticaNeue" font-size="36.0" fill="#777775" transform="matrix(1.00, 0.00, -0.00, -1.00, 719.1, 351.0)"> </text><text xml:space="preserve" font-family="HelveticaNeue" font-size="36.0" fill="#777775" transform="matrix(1.00, 0.00, -0.00, -1.00, 729.1, 351.0)">g</text><text xml:space="preserve" font-family="HelveticaNeue" font-size="36.0" fill="#777775" transform="matrix(1.00, 0.00, -0.00, -1.00, 749.7, 351.0)">a</text><text xml:space="preserve" font-family="HelveticaNeue" font-size="36.0" fill="#777775" transform="matrix(1.00, 0.00, -0.00, -1.00, 769.1, 351.0)">m</text><text xml:space="preserve" font-family="HelveticaNeue" font-size="36.0" fill="#777775" transform="matrix(1.00, 0.00, -0.00, -1.00, 799.8, 351.0)">m</text><text xml:space="preserve" font-family="HelveticaNeue" font-size="36.0" fill="#777775" transform="matrix(1.00, 0.00, -0.00, -1.00, 830.5, 351.0)">a</text><text xml:space="preserve" font-family="HelveticaNeue" font-size="36.0" fill="#777775" transform="matrix(1.00, 0.00, -0.00, -1.00, 849.8, 351.0)">)</text><g><clipPath id="clip-163"><path d="M 533.3 277.5 L 554.3 277.5 L 554.3 298.5 L 533.3 298.5 Z M 533.3 277.5 "></path></clipPath><g clip-path="url(#clip-163)"><path d="M 542.8 297.4 L 542.8 291.8 L 540.0 296.6 L 538.2 295.6 L 541.0 290.8 L 536.2 293.5 L 535.1 291.7 L 539.9 288.9 L 534.4 288.9 L 534.4 286.8 L 539.9 286.8 L 535.1 284.0 L 536.2 282.2 L 541.0 285.0 L 538.2 280.2 L 540.0 279.1 L 542.8 283.9 L 542.8 278.4 L 544.9 278.4 L 544.9 284.0 L 547.7 279.1 L 549.5 280.2 L 546.7 285.0 L 551.6 282.2 L 552.6 284.0 L 547.8 286.8 L 553.4 286.8 L 553.4 288.9 L 547.8 288.9 L 552.6 291.7 L 551.6 293.5 L 546.7 290.8 L 549.5 295.6 L 547.7 296.6 L 544.9 291.8 L 544.9 297.4 Z M 542.8 297.4 " fill="#497493"></path></g></g><text xml:space="preserve" font-family="HelveticaNeue" font-size="36.0" fill="#777775" transform="matrix(1.00, 0.00, -0.00, -1.00, 567.0, 276.0)">C</text><text xml:space="preserve" font-family="HelveticaNeue" font-size="36.0" fill="#777775" transform="matrix(1.00, 0.00, -0.00, -1.00, 593.0, 276.0)">o</text><text xml:space="preserve" font-family="HelveticaNeue" font-size="36.0" fill="#777775" transform="matrix(1.00, 0.00, -0.00, -1.00, 613.7, 276.0)">m</text><text xml:space="preserve" font-family="HelveticaNeue" font-size="36.0" fill="#777775" transform="matrix(1.00, 0.00, -0.00, -1.00, 644.4, 276.0)">m</text><text xml:space="preserve" font-family="HelveticaNeue" font-size="36.0" fill="#777775" transform="matrix(1.00, 0.00, -0.00, -1.00, 675.1, 276.0)">u</text><text xml:space="preserve" font-family="HelveticaNeue" font-size="36.0" fill="#777775" transform="matrix(1.00, 0.00, -0.00, -1.00, 695.1, 276.0)">n</text><text xml:space="preserve" font-family="HelveticaNeue" font-size="36.0" fill="#777775" transform="matrix(1.00, 0.00, -0.00, -1.00, 715.1, 276.0)">i</text><text xml:space="preserve" font-family="HelveticaNeue" font-size="36.0" fill="#777775" transform="matrix(1.00, 0.00, -0.00, -1.00, 723.1, 276.0)">t</text><text xml:space="preserve" font-family="HelveticaNeue" font-size="36.0" fill="#777775" transform="matrix(1.00, 0.00, -0.00, -1.00, 734.4, 276.0)">y</text><text xml:space="preserve" font-family="HelveticaNeue" font-size="36.0" fill="#777775" transform="matrix(1.00, 0.00, -0.00, -1.00, 752.4, 276.0)"> </text><text xml:space="preserve" font-family="HelveticaNeue" font-size="36.0" fill="#777775" transform="matrix(1.00, 0.00, -0.00, -1.00, 762.4, 276.0)">/</text><text xml:space="preserve" font-family="HelveticaNeue" font-size="36.0" fill="#777775" transform="matrix(1.00, 0.00, -0.00, -1.00, 774.4, 276.0)"> </text><text xml:space="preserve" font-family="HelveticaNeue" font-size="36.0" fill="#777775" transform="matrix(1.00, 0.00, -0.00, -1.00, 567.0, 233.0)">e</text><text xml:space="preserve" font-family="HelveticaNeue" font-size="36.0" fill="#777775" transform="matrix(1.00, 0.00, -0.00, -1.00, 586.3, 233.0)">c</text><text xml:space="preserve" font-family="HelveticaNeue" font-size="36.0" fill="#777775" transform="matrix(1.00, 0.00, -0.00, -1.00, 605.7, 233.0)">o</text><text xml:space="preserve" font-family="HelveticaNeue" font-size="36.0" fill="#777775" transform="matrix(1.00, 0.00, -0.00, -1.00, 626.3, 233.0)">s</text><text xml:space="preserve" font-family="HelveticaNeue" font-size="36.0" fill="#777775" transform="matrix(1.00, 0.00, -0.00, -1.00, 644.3, 233.0)">y</text><text xml:space="preserve" font-family="HelveticaNeue" font-size="36.0" fill="#777775" transform="matrix(1.00, 0.00, -0.00, -1.00, 662.3, 233.0)">s</text><text xml:space="preserve" font-family="HelveticaNeue" font-size="36.0" fill="#777775" transform="matrix(1.00, 0.00, -0.00, -1.00, 680.3, 233.0)">t</text><text xml:space="preserve" font-family="HelveticaNeue" font-size="36.0" fill="#777775" transform="matrix(1.00, 0.00, -0.00, -1.00, 691.7, 233.0)">e</text><text xml:space="preserve" font-family="HelveticaNeue" font-size="36.0" fill="#777775" transform="matrix(1.00, 0.00, -0.00, -1.00, 711.0, 233.0)">m</text><text xml:space="preserve" font-family="HelveticaNeue" font-size="36.0" fill="#777775" transform="matrix(1.00, 0.00, -0.00, -1.00, 741.7, 233.0)"> </text><text xml:space="preserve" font-family="HelveticaNeue" font-size="36.0" fill="#777775" transform="matrix(1.00, 0.00, -0.00, -1.00, 751.7, 233.0)">d</text><text xml:space="preserve" font-family="HelveticaNeue" font-size="36.0" fill="#777775" transform="matrix(1.00, 0.00, -0.00, -1.00, 773.1, 233.0)">i</text><text xml:space="preserve" font-family="HelveticaNeue" font-size="36.0" fill="#777775" transform="matrix(1.00, 0.00, -0.00, -1.00, 781.1, 233.0)">v</text><text xml:space="preserve" font-family="HelveticaNeue" font-size="36.0" fill="#777775" transform="matrix(1.00, 0.00, -0.00, -1.00, 799.1, 233.0)">e</text><text xml:space="preserve" font-family="HelveticaNeue" font-size="36.0" fill="#777775" transform="matrix(1.00, 0.00, -0.00, -1.00, 818.4, 233.0)">r</text><text xml:space="preserve" font-family="HelveticaNeue" font-size="36.0" fill="#777775" transform="matrix(1.00, 0.00, -0.00, -1.00, 830.4, 233.0)">s</text><text xml:space="preserve" font-family="HelveticaNeue" font-size="36.0" fill="#777775" transform="matrix(1.00, 0.00, -0.00, -1.00, 848.4, 233.0)">i</text><text xml:space="preserve" font-family="HelveticaNeue" font-size="36.0" fill="#777775" transform="matrix(1.00, 0.00, -0.00, -1.00, 856.4, 233.0)">t</text><text xml:space="preserve" font-family="HelveticaNeue" font-size="36.0" fill="#777775" transform="matrix(1.00, 0.00, -0.00, -1.00, 867.7, 233.0)">y</text></g></svg>