<?xml version="1.0" encoding="UTF-8" standalone="no"?><svg xmlns="http://www.w3.org/2000/svg" xmlns:xlink="http://www.w3.org/1999/xlink" clip-rule="evenodd" stroke-miterlimit="4.00" viewBox="0 0 381 122"><desc>SVG generated by Keynote</desc><defs></defs><g transform="matrix(1.00, 0.00, -0.00, -1.00, 0.0, 122.0)"><g><clipPath id="clip-153"><path d="M 0.0 96.5 L 21.0 96.5 L 21.0 117.5 L 0.0 117.5 Z M 0.0 96.5 "></path></clipPath><g clip-path="url(#clip-153)"><path d="M 9.5 116.4 L 9.5 110.8 L 6.7 115.6 L 4.9 114.6 L 7.7 109.8 L 2.9 112.5 L 1.8 110.7 L 6.6 107.9 L 1.1 107.9 L 1.1 105.8 L 6.6 105.8 L 1.8 103.0 L 2.9 101.2 L 7.7 104.0 L 4.9 99.2 L 6.7 98.1 L 9.5 102.9 L 9.5 97.4 L 11.6 97.4 L 11.6 103.0 L 14.4 98.1 L 16.2 99.2 L 13.4 104.0 L 18.3 101.2 L 19.3 103.0 L 14.5 105.8 L 20.1 105.8 L 20.1 107.9 L 14.5 107.9 L 19.3 110.7 L 18.3 112.5 L 13.4 109.8 L 16.2 114.6 L 14.4 115.6 L 11.6 110.8 L 11.6 116.4 Z M 9.5 116.4 " fill="#497493"></path></g></g><text xml:space="preserve" font-family="HelveticaNeue" font-size="36.0" fill="#777775" transform="matrix(1.00, 0.00, -0.00, -1.00, 34.0, 95.0)">S</text><text xml:space="preserve" font-family="HelveticaNeue" font-size="36.0" fill="#777775" transform="matrix(1.00, 0.00, -0.00, -1.00, 57.3, 95.0)">o</text><text xml:space="preserve" font-family="HelveticaNeue" font-size="36.0" fill="#777775" transform="matrix(1.00, 0.00, -0.00, -1.00, 78.0, 95.0)"> </text><text xml:space="preserve" font-family="HelveticaNeue" font-size="36.0" fill="#777775" transform="matrix(1.00, 0.00, -0.00, -1.00, 88.0, 95.0)">f</text><text xml:space="preserve" font-family="HelveticaNeue" font-size="36.0" fill="#777775" transform="matrix(1.00, 0.00, -0.00, -1.00, 98.7, 95.0)">a</text><text xml:space="preserve" font-family="HelveticaNeue" font-size="36.0" fill="#777775" transform="matrix(1.00, 0.00, -0.00, -1.00, 118.0, 95.0)">r</text><text xml:space="preserve" font-family="HelveticaNeue" font-size="36.0" fill="#777775" transform="matrix(1.00, 0.00, -0.00, -1.00, 126.7, 95.0)">,</text><text xml:space="preserve" font-family="HelveticaNeue" font-size="36.0" fill="#777775" transform="matrix(1.00, 0.00, -0.00, -1.00, 136.7, 95.0)"> </text><text xml:space="preserve" font-family="HelveticaNeue" font-size="36.0" fill="#777775" transform="matrix(1.00, 0.00, -0.00, -1.00, 146.7, 95.0)">w</text><text xml:space="preserve" font-family="HelveticaNeue" font-size="36.0" fill="#777775" transform="matrix(1.00, 0.00, -0.00, -1.00, 174.0, 95.0)">e</text><text xml:space="preserve" font-family="HelveticaNeue" font-size="36.0" fill="#777775" transform="matrix(1.00, 0.00, -0.00, -1.00, 193.3, 95.0)">’</text><text xml:space="preserve" font-family="HelveticaNeue" font-size="36.0" fill="#777775" transform="matrix(1.00, 0.00, -0.00, -1.00, 203.3, 95.0)">v</text><text xml:space="preserve" font-family="HelveticaNeue" font-size="36.0" fill="#777775" transform="matrix(1.00, 0.00, -0.00, -1.00, 221.3, 95.0)">e</text><text xml:space="preserve" font-family="HelveticaNeue" font-size="36.0" fill="#777775" transform="matrix(1.00, 0.00, -0.00, -1.00, 240.6, 95.0)"> </text><text xml:space="preserve" font-family="HelveticaNeue" font-size="36.0" fill="#777775" transform="matrix(1.00, 0.00, -0.00, -1.00, 250.6, 95.0)">f</text><text xml:space="preserve" font-family="HelveticaNeue" font-size="36.0" fill="#777775" transform="matrix(1.00, 0.00, -0.00, -1.00, 261.3, 95.0)">o</text><text xml:space="preserve" font-family="HelveticaNeue" font-size="36.0" fill="#777775" transform="matrix(1.00, 0.00, -0.00, -1.00, 282.0, 95.0)">c</text><text xml:space="preserve" font-family="HelveticaNeue" font-size="36.0" fill="#777775" transform="matrix(1.00, 0.00, -0.00, -1.00, 301.3, 95.0)">u</text><text xml:space="preserve" font-family="HelveticaNeue" font-size="36.0" fill="#777775" transform="matrix(1.00, 0.00, -0.00, -1.00, 321.3, 95.0)">s</text><text xml:space="preserve" font-family="HelveticaNeue" font-size="36.0" fill="#777775" transform="matrix(1.00, 0.00, -0.00, -1.00, 339.3, 95.0)">e</text><text xml:space="preserve" font-family="HelveticaNeue" font-size="36.0" fill="#777775" transform="matrix(1.00, 0.00, -0.00, -1.00, 358.6, 95.0)">d</text><text xml:space="preserve" font-family="HelveticaNeue" font-size="36.0" fill="#777775" transform="matrix(1.00, 0.00, -0.00, -1.00, 380.0, 95.0)"> </text><text xml:space="preserve" font-family="HelveticaNeue" font-size="36.0" fill="#777775" transform="matrix(1.00, 0.00, -0.00, -1.00, 34.0, 52.0)">m</text><text xml:space="preserve" font-family="HelveticaNeue" font-size="36.0" fill="#777775" transform="matrix(1.00, 0.00, -0.00, -1.00, 64.7, 52.0)">a</text><text xml:space="preserve" font-family="HelveticaNeue" font-size="36.0" fill="#777775" transform="matrix(1.00, 0.00, -0.00, -1.00, 84.0, 52.0)">i</text><text xml:space="preserve" font-family="HelveticaNeue" font-size="36.0" fill="#777775" transform="matrix(1.00, 0.00, -0.00, -1.00, 92.0, 52.0)">n</text><text xml:space="preserve" font-family="HelveticaNeue" font-size="36.0" fill="#777775" transform="matrix(1.00, 0.00, -0.00, -1.00, 112.0, 52.0)">l</text><text xml:space="preserve" font-family="HelveticaNeue" font-size="36.0" fill="#777775" transform="matrix(1.00, 0.00, -0.00, -1.00, 120.0, 52.0)">y</text><text xml:space="preserve" font-family="HelveticaNeue" font-size="36.0" fill="#777775" transform="matrix(1.00, 0.00, -0.00, -1.00, 138.0, 52.0)"> </text><text xml:space="preserve" font-family="HelveticaNeue" font-size="36.0" fill="#777775" transform="matrix(1.00, 0.00, -0.00, -1.00, 148.0, 52.0)">o</text><text xml:space="preserve" font-family="HelveticaNeue" font-size="36.0" fill="#777775" transform="matrix(1.00, 0.00, -0.00, -1.00, 168.7, 52.0)">n</text><text xml:space="preserve" font-family="HelveticaNeue" font-size="36.0" fill="#777775" transform="matrix(1.00, 0.00, -0.00, -1.00, 188.7, 52.0)"> </text><text xml:space="preserve" font-family="HelveticaNeue" font-size="36.0" fill="#777775" transform="matrix(1.00, 0.00, -0.00, -1.00, 198.7, 52.0)">s</text><text xml:space="preserve" font-family="HelveticaNeue" font-size="36.0" fill="#777775" transform="matrix(1.00, 0.00, -0.00, -1.00, 216.7, 52.0)">p</text><text xml:space="preserve" font-family="HelveticaNeue" font-size="36.0" fill="#777775" transform="matrix(1.00, 0.00, -0.00, -1.00, 238.1, 52.0)">e</text><text xml:space="preserve" font-family="HelveticaNeue" font-size="36.0" fill="#777775" transform="matrix(1.00, 0.00, -0.00, -1.00, 257.4, 52.0)">c</text><text xml:space="preserve" font-family="HelveticaNeue" font-size="36.0" fill="#777775" transform="matrix(1.00, 0.00, -0.00, -1.00, 276.7, 52.0)">i</text><text xml:space="preserve" font-family="HelveticaNeue" font-size="36.0" fill="#777775" transform="matrix(1.00, 0.00, -0.00, -1.00, 284.7, 52.0)">e</text><text xml:space="preserve" font-family="HelveticaNeue" font-size="36.0" fill="#777775" transform="matrix(1.00, 0.00, -0.00, -1.00, 304.1, 52.0)">s</text><text xml:space="preserve" font-family="HelveticaNeue" font-size="36.0" fill="#777775" transform="matrix(1.00, 0.00, -0.00, -1.00, 322.1, 52.0)"> </text><text xml:space="preserve" font-family="HelveticaNeue" font-size="36.0" fill="#777775" transform="matrix(1.00, 0.00, -0.00, -1.00, 34.0, 9.0)">d</text><text xml:space="preserve" font-family="HelveticaNeue" font-size="36.0" fill="#777775" transform="matrix(1.00, 0.00, -0.00, -1.00, 55.3, 9.0)">i</text><text xml:space="preserve" font-family="HelveticaNeue" font-size="36.0" fill="#777775" transform="matrix(1.00, 0.00, -0.00, -1.00, 63.3, 9.0)">v</text><text xml:space="preserve" font-family="HelveticaNeue" font-size="36.0" fill="#777775" transform="matrix(1.00, 0.00, -0.00, -1.00, 81.3, 9.0)">e</text><text xml:space="preserve" font-family="HelveticaNeue" font-size="36.0" fill="#777775" transform="matrix(1.00, 0.00, -0.00, -1.00, 100.7, 9.0)">r</text><text xml:space="preserve" font-family="HelveticaNeue" font-size="36.0" fill="#777775" transform="matrix(1.00, 0.00, -0.00, -1.00, 112.7, 9.0)">s</text><text xml:space="preserve" font-family="HelveticaNeue" font-size="36.0" fill="#777775" transform="matrix(1.00, 0.00, -0.00, -1.00, 130.7, 9.0)">i</text><text xml:space="preserve" font-family="HelveticaNeue" font-size="36.0" fill="#777775" transform="matrix(1.00, 0.00, -0.00, -1.00, 138.7, 9.0)">t</text><text xml:space="preserve" font-family="HelveticaNeue" font-size="36.0" fill="#777775" transform="matrix(1.00, 0.00, -0.00, -1.00, 150.0, 9.0)">y</text></g></svg>