<?xml version="1.0" encoding="UTF-8" standalone="no"?><svg xmlns="http://www.w3.org/2000/svg" xmlns:xlink="http://www.w3.org/1999/xlink" clip-rule="evenodd" stroke-miterlimit="4.00" viewBox="0 0 304 36"><desc>SVG generated by Keynote</desc><defs></defs><g transform="matrix(1.00, 0.00, -0.00, -1.00, 0.0, 36.0)"><g><clipPath id="clip-155"><path d="M 0.3 10.5 L 21.3 10.5 L 21.3 31.5 L 0.3 31.5 Z M 0.3 10.5 "></path></clipPath><g clip-path="url(#clip-155)"><path d="M 9.8 30.4 L 9.8 24.8 L 7.0 29.6 L 5.2 28.6 L 8.0 23.8 L 3.2 26.5 L 2.1 24.7 L 6.9 21.9 L 1.4 21.9 L 1.4 19.8 L 6.9 19.8 L 2.1 17.0 L 3.2 15.2 L 8.0 18.0 L 5.2 13.2 L 7.0 12.1 L 9.8 16.9 L 9.8 11.4 L 11.9 11.4 L 11.9 17.0 L 14.7 12.1 L 16.5 13.2 L 13.7 18.0 L 18.6 15.2 L 19.6 17.0 L 14.8 19.8 L 20.4 19.8 L 20.4 21.9 L 14.8 21.9 L 19.6 24.7 L 18.6 26.5 L 13.7 23.8 L 16.5 28.6 L 14.7 29.6 L 11.9 24.8 L 11.9 30.4 Z M 9.8 30.4 " fill="#497493"></path></g></g><text xml:space="preserve" font-family="HelveticaNeue" font-size="36.0" fill="#777775" transform="matrix(1.00, 0.00, -0.00, -1.00, 34.0, 9.0)">G</text><text xml:space="preserve" font-family="HelveticaNeue" font-size="36.0" fill="#777775" transform="matrix(1.00, 0.00, -0.00, -1.00, 61.3, 9.0)">e</text><text xml:space="preserve" font-family="HelveticaNeue" font-size="36.0" fill="#777775" transform="matrix(1.00, 0.00, -0.00, -1.00, 80.7, 9.0)">n</text><text xml:space="preserve" font-family="HelveticaNeue" font-size="36.0" fill="#777775" transform="matrix(1.00, 0.00, -0.00, -1.00, 100.7, 9.0)">e</text><text xml:space="preserve" font-family="HelveticaNeue" font-size="36.0" fill="#777775" transform="matrix(1.00, 0.00, -0.00, -1.00, 120.0, 9.0)">t</text><text xml:space="preserve" font-family="HelveticaNeue" font-size="36.0" fill="#777775" transform="matrix(1.00, 0.00, -0.00, -1.00, 131.3, 9.0)">i</text><text xml:space="preserve" font-family="HelveticaNeue" font-size="36.0" fill="#777775" transform="matrix(1.00, 0.00, -0.00, -1.00, 139.3, 9.0)">c</text><text xml:space="preserve" font-family="HelveticaNeue" font-size="36.0" fill="#777775" transform="matrix(1.00, 0.00, -0.00, -1.00, 158.7, 9.0)"> </text><text xml:space="preserve" font-family="HelveticaNeue" font-size="36.0" fill="#777775" transform="matrix(1.00, 0.00, -0.00, -1.00, 168.7, 9.0)">d</text><text xml:space="preserve" font-family="HelveticaNeue" font-size="36.0" fill="#777775" transform="matrix(1.00, 0.00, -0.00, -1.00, 190.0, 9.0)">i</text><text xml:space="preserve" font-family="HelveticaNeue" font-size="36.0" fill="#777775" transform="matrix(1.00, 0.00, -0.00, -1.00, 198.0, 9.0)">v</text><text xml:space="preserve" font-family="HelveticaNeue" font-size="36.0" fill="#777775" transform="matrix(1.00, 0.00, -0.00, -1.00, 216.0, 9.0)">e</text><text xml:space="preserve" font-family="HelveticaNeue" font-size="36.0" fill="#777775" transform="matrix(1.00, 0.00, -0.00, -1.00, 235.3, 9.0)">r</text><text xml:space="preserve" font-family="HelveticaNeue" font-size="36.0" fill="#777775" transform="matrix(1.00, 0.00, -0.00, -1.00, 247.3, 9.0)">s</text><text xml:space="preserve" font-family="HelveticaNeue" font-size="36.0" fill="#777775" transform="matrix(1.00, 0.00, -0.00, -1.00, 265.3, 9.0)">i</text><text xml:space="preserve" font-family="HelveticaNeue" font-size="36.0" fill="#777775" transform="matrix(1.00, 0.00, -0.00, -1.00, 273.3, 9.0)">t</text><text xml:space="preserve" font-family="HelveticaNeue" font-size="36.0" fill="#777775" transform="matrix(1.00, 0.00, -0.00, -1.00, 284.7, 9.0)">y</text></g></svg>