<?xml version="1.0" encoding="UTF-8" standalone="no"?><svg xmlns="http://www.w3.org/2000/svg" xmlns:xlink="http://www.w3.org/1999/xlink" clip-rule="evenodd" stroke-miterlimit="4.00" viewBox="0 0 1024 768"><desc>SVG generated by Keynote</desc><defs></defs><g transform="matrix(1.00, 0.00, -0.00, -1.00, 0.0, 768.0)"><g><clipPath id="clip-1"><path d="M 0.0 768.0 L 1024.0 768.0 L 1024.0 0.0 L 0.0 0.0 Z M 0.0 768.0 "></path></clipPath><g clip-path="url(#clip-1)"><image xlink:href="A7CD394FAC08D6D1529A4490C94CFB40.jpeg" width="1365.00" height="767.00" transform="matrix(2.81, 0.00, -0.00, -2.82, -1408.0, 1464.0)"></image></g></g><path d="M 0.0 0.0 L 980.0 0.0 L 980.0 726.0 L 0.0 726.0 Z M 0.0 0.0 " fill="none" stroke="#A2A0A6" stroke-width="2.00" transform="matrix(1.00, 0.00, 0.00, -1.00, 22.3, 746.0)"></path><g><clipPath id="clip-2"><path d="M 604.0 550.0 L 942.0 550.0 L 942.0 100.0 L 604.0 100.0 Z M 604.0 550.0 "></path></clipPath><g clip-path="url(#clip-2)"><image xlink:href="CF87F1CCAE3F7E17591752A2CC757B47.png" width="338.00" height="507.00" transform="matrix(1.00, 0.00, -0.00, -1.00, 604.0, 578.0)"></image></g></g><image xlink:href="379EFC8F94DE6E09C133284317D27903.png" width="349.00" height="461.00" transform="matrix(1.00, 0.00, -0.00, 1.00, 598.0, 94.0)"></image><text xml:space="preserve" font-family="HelveticaNeue-Light" font-size="78.0" fill="#5B88A5" transform="matrix(1.00, 0.00, -0.00, -1.00, 118.0, 623.0)">A</text><text xml:space="preserve" font-family="HelveticaNeue-Light" font-size="78.0" fill="#5B88A5" transform="matrix(1.00, 0.00, -0.00, -1.00, 167.1, 623.0)">c</text><text xml:space="preserve" font-family="HelveticaNeue-Light" font-size="78.0" fill="#5B88A5" transform="matrix(1.00, 0.00, -0.00, -1.00, 207.6, 623.0)">t</text><text xml:space="preserve" font-family="HelveticaNeue-Light" font-size="78.0" fill="#5B88A5" transform="matrix(1.00, 0.00, -0.00, -1.00, 230.7, 623.0)">i</text><text xml:space="preserve" font-family="HelveticaNeue-Light" font-size="78.0" fill="#5B88A5" transform="matrix(1.00, 0.00, -0.00, -1.00, 245.1, 623.0)">v</text><text xml:space="preserve" font-family="HelveticaNeue-Light" font-size="78.0" fill="#5B88A5" transform="matrix(1.00, 0.00, -0.00, -1.00, 281.3, 623.0)">i</text><text xml:space="preserve" font-family="HelveticaNeue-Light" font-size="78.0" fill="#5B88A5" transform="matrix(1.00, 0.00, -0.00, -1.00, 295.7, 623.0)">t</text><text xml:space="preserve" font-family="HelveticaNeue-Light" font-size="78.0" fill="#5B88A5" transform="matrix(1.00, 0.00, -0.00, -1.00, 318.8, 623.0)">y</text></g></svg>