<?xml version="1.0" encoding="UTF-8" standalone="no"?><svg xmlns="http://www.w3.org/2000/svg" xmlns:xlink="http://www.w3.org/1999/xlink" clip-rule="evenodd" stroke-miterlimit="4.00" viewBox="0 0 1024 768"><desc>SVG generated by Keynote</desc><defs></defs><g transform="matrix(1.00, 0.00, -0.00, -1.00, 0.0, 768.0)"><g><clipPath id="clip-0"><path d="M 0.0 768.0 L 1024.0 768.0 L 1024.0 0.0 L 0.0 0.0 Z M 0.0 768.0 "></path></clipPath><g clip-path="url(#clip-0)"><image xlink:href="5E504543DA7BCE62C2A0475F0A9742EF.jpeg" width="1365.00" height="767.00" transform="matrix(2.81, 0.00, -0.00, -2.82, -1408.0, 1464.0)"></image></g></g><path d="M 0.0 0.0 L 980.0 0.0 L 980.0 726.0 L 0.0 726.0 Z M 0.0 0.0 " fill="none" stroke="#A2A0A6" stroke-width="2.00" transform="matrix(1.00, 0.00, 0.00, -1.00, 22.3, 746.0)"></path><text xml:space="preserve" font-family="HelveticaNeue-CondensedBold" font-weight="bold" font-size="76.0" fill="#DDDCDE" transform="matrix(1.00, 0.00, -0.00, -1.00, 116.0, 169.0)">C</text><text xml:space="preserve" font-family="HelveticaNeue-CondensedBold" font-weight="bold" font-size="76.0" fill="#DDDCDE" transform="matrix(1.00, 0.00, -0.00, -1.00, 156.8, 169.0)">o</text><text xml:space="preserve" font-family="HelveticaNeue-CondensedBold" font-weight="bold" font-size="76.0" fill="#DDDCDE" transform="matrix(1.00, 0.00, -0.00, -1.00, 193.3, 169.0)">n</text><text xml:space="preserve" font-family="HelveticaNeue-CondensedBold" font-weight="bold" font-size="76.0" fill="#DDDCDE" transform="matrix(1.00, 0.00, -0.00, -1.00, 231.3, 169.0)">s</text><text xml:space="preserve" font-family="HelveticaNeue-CondensedBold" font-weight="bold" font-size="76.0" fill="#DDDCDE" transform="matrix(1.00, 0.00, -0.00, -1.00, 265.0, 169.0)">e</text><text xml:space="preserve" font-family="HelveticaNeue-CondensedBold" font-weight="bold" font-size="76.0" fill="#DDDCDE" transform="matrix(1.00, 0.00, -0.00, -1.00, 300.2, 169.0)">r</text><text xml:space="preserve" font-family="HelveticaNeue-CondensedBold" font-weight="bold" font-size="76.0" fill="#DDDCDE" transform="matrix(1.00, 0.00, -0.00, -1.00, 326.9, 169.0)">v</text><text xml:space="preserve" font-family="HelveticaNeue-CondensedBold" font-weight="bold" font-size="76.0" fill="#DDDCDE" transform="matrix(1.00, 0.00, -0.00, -1.00, 360.6, 169.0)">a</text><text xml:space="preserve" font-family="HelveticaNeue-CondensedBold" font-weight="bold" font-size="76.0" fill="#DDDCDE" transform="matrix(1.00, 0.00, -0.00, -1.00, 397.2, 169.0)">t</text><text xml:space="preserve" font-family="HelveticaNeue-CondensedBold" font-weight="bold" font-size="76.0" fill="#DDDCDE" transform="matrix(1.00, 0.00, -0.00, -1.00, 419.7, 169.0)">i</text><text xml:space="preserve" font-family="HelveticaNeue-CondensedBold" font-weight="bold" font-size="76.0" fill="#DDDCDE" transform="matrix(1.00, 0.00, -0.00, -1.00, 437.9, 169.0)">o</text><text xml:space="preserve" font-family="HelveticaNeue-CondensedBold" font-weight="bold" font-size="76.0" fill="#DDDCDE" transform="matrix(1.00, 0.00, -0.00, -1.00, 474.4, 169.0)">n</text><text xml:space="preserve" font-family="HelveticaNeue-CondensedBold" font-weight="bold" font-size="76.0" fill="#DDDCDE" transform="matrix(1.00, 0.00, -0.00, -1.00, 512.4, 169.0)"> </text><text xml:space="preserve" font-family="HelveticaNeue-CondensedBold" font-weight="bold" font-size="76.0" fill="#DDDCDE" transform="matrix(1.00, 0.00, -0.00, -1.00, 530.7, 169.0)">o</text><text xml:space="preserve" font-family="HelveticaNeue-CondensedBold" font-weight="bold" font-size="76.0" fill="#DDDCDE" transform="matrix(1.00, 0.00, -0.00, -1.00, 567.1, 169.0)">f</text><text xml:space="preserve" font-family="HelveticaNeue-CondensedBold" font-weight="bold" font-size="76.0" fill="#DDDCDE" transform="matrix(1.00, 0.00, -0.00, -1.00, 589.6, 169.0)"> </text><text xml:space="preserve" font-family="HelveticaNeue-CondensedBold" font-weight="bold" font-size="76.0" fill="#DDDCDE" transform="matrix(1.00, 0.00, -0.00, -1.00, 607.9, 169.0)">H</text><text xml:space="preserve" font-family="HelveticaNeue-CondensedBold" font-weight="bold" font-size="76.0" fill="#DDDCDE" transform="matrix(1.00, 0.00, -0.00, -1.00, 650.1, 169.0)">e</text><text xml:space="preserve" font-family="HelveticaNeue-CondensedBold" font-weight="bold" font-size="76.0" fill="#DDDCDE" transform="matrix(1.00, 0.00, -0.00, -1.00, 685.3, 169.0)">r</text><text xml:space="preserve" font-family="HelveticaNeue-CondensedBold" font-weight="bold" font-size="76.0" fill="#DDDCDE" transform="matrix(1.00, 0.00, -0.00, -1.00, 710.6, 169.0)">p</text><text xml:space="preserve" font-family="HelveticaNeue-CondensedBold" font-weight="bold" font-size="76.0" fill="#DDDCDE" transform="matrix(1.00, 0.00, -0.00, -1.00, 748.6, 169.0)">s</text><image xlink:href="50D2BCBA1F9B5785A937326E565A7C03.jpeg" width="640.00" height="435.00" transform="matrix(1.13, 0.00, -0.00, -1.13, 166.0, 737.0)"></image></g></svg>