<?xml version="1.0" encoding="UTF-8" standalone="no"?><svg xmlns="http://www.w3.org/2000/svg" xmlns:xlink="http://www.w3.org/1999/xlink" clip-rule="evenodd" stroke-miterlimit="10" viewBox="0 0 720 540"><desc>SVG generated by Keynote</desc><defs></defs><g transform="matrix(1.00, 0.00, -0.00, -1.00, 0.0, 540.0)"><path d="M 0.0 540.0 L 720.0 540.0 L 720.0 0.0 L 0.0 0.0 Z M 0.0 540.0 " fill="#FEFFFF"></path><text xml:space="preserve" font-family="ArialMT,Arial" font-size="44.0" fill="#000000" transform="matrix(1.00, 0.00, -0.00, -1.00, 147.2, 479.8)">T</text><text xml:space="preserve" font-family="ArialMT,Arial" font-size="44.0" fill="#000000" transform="matrix(1.00, 0.00, -0.00, -1.00, 174.1, 479.8)">h</text><text xml:space="preserve" font-family="ArialMT,Arial" font-size="44.0" fill="#000000" transform="matrix(1.00, 0.00, -0.00, -1.00, 198.6, 479.8)">e</text><text xml:space="preserve" font-family="ArialMT,Arial" font-size="44.0" fill="#000000" transform="matrix(1.00, 0.00, -0.00, -1.00, 223.0, 479.8)"> </text><text xml:space="preserve" font-family="ArialMT,Arial" font-size="44.0" fill="#000000" transform="matrix(1.00, 0.00, -0.00, -1.00, 235.3, 479.8)">l</text><text xml:space="preserve" font-family="ArialMT,Arial" font-size="44.0" fill="#000000" transform="matrix(1.00, 0.00, -0.00, -1.00, 245.0, 479.8)">i</text><text xml:space="preserve" font-family="ArialMT,Arial" font-size="44.0" fill="#000000" transform="matrix(1.00, 0.00, -0.00, -1.00, 254.8, 479.8)">v</text><text xml:space="preserve" font-family="ArialMT,Arial" font-size="44.0" fill="#000000" transform="matrix(1.00, 0.00, -0.00, -1.00, 276.8, 479.8)">i</text><text xml:space="preserve" font-family="ArialMT,Arial" font-size="44.0" fill="#000000" transform="matrix(1.00, 0.00, -0.00, -1.00, 286.6, 479.8)">n</text><text xml:space="preserve" font-family="ArialMT,Arial" font-size="44.0" fill="#000000" transform="matrix(1.00, 0.00, -0.00, -1.00, 311.1, 479.8)">g</text><text xml:space="preserve" font-family="ArialMT,Arial" font-size="44.0" fill="#000000" transform="matrix(1.00, 0.00, -0.00, -1.00, 335.6, 479.8)"> </text><text xml:space="preserve" font-family="ArialMT,Arial" font-size="44.0" fill="#000000" transform="matrix(1.00, 0.00, -0.00, -1.00, 347.8, 479.8)">a</text><text xml:space="preserve" font-family="ArialMT,Arial" font-size="44.0" fill="#000000" transform="matrix(1.00, 0.00, -0.00, -1.00, 372.3, 479.8)">m</text><text xml:space="preserve" font-family="ArialMT,Arial" font-size="44.0" fill="#000000" transform="matrix(1.00, 0.00, -0.00, -1.00, 408.9, 479.8)">p</text><text xml:space="preserve" font-family="ArialMT,Arial" font-size="44.0" fill="#000000" transform="matrix(1.00, 0.00, -0.00, -1.00, 433.4, 479.8)">h</text><text xml:space="preserve" font-family="ArialMT,Arial" font-size="44.0" fill="#000000" transform="matrix(1.00, 0.00, -0.00, -1.00, 457.9, 479.8)">i</text><text xml:space="preserve" font-family="ArialMT,Arial" font-size="44.0" fill="#000000" transform="matrix(1.00, 0.00, -0.00, -1.00, 467.7, 479.8)">b</text><text xml:space="preserve" font-family="ArialMT,Arial" font-size="44.0" fill="#000000" transform="matrix(1.00, 0.00, -0.00, -1.00, 492.1, 479.8)">i</text><text xml:space="preserve" font-family="ArialMT,Arial" font-size="44.0" fill="#000000" transform="matrix(1.00, 0.00, -0.00, -1.00, 501.9, 479.8)">a</text><text xml:space="preserve" font-family="ArialMT,Arial" font-size="44.0" fill="#000000" transform="matrix(1.00, 0.00, -0.00, -1.00, 526.4, 479.8)">n</text><text xml:space="preserve" font-family="ArialMT,Arial" font-size="44.0" fill="#000000" transform="matrix(1.00, 0.00, -0.00, -1.00, 550.9, 479.8)">s</text><g><clipPath id="clip0x600002ab9ce0"><path d="M 291.0 145.1 L 291.0 233.0 L 299.0 233.0 L 299.0 145.1 Z M 291.0 145.1 "></path></clipPath><g clip-path="url(#clip0x600002ab9ce0)"><path d="M -0.1 0.0 L 85.9 0.0 " fill="none" stroke="#000000" stroke-width="6.00" stroke-linejoin="round" transform="matrix(0.00, 1.00, 1.00, 0.00, 295.0, 146.1)"></path></g></g><g><clipPath id="clip0x600002ab2480"><path d="M 421.0 193.6 L 421.0 233.0 L 429.0 233.0 L 429.0 193.6 Z M 421.0 193.6 "></path></clipPath><g clip-path="url(#clip0x600002ab2480)"><path d="M 0.4 0.0 L 37.4 0.0 " fill="none" stroke="#000000" stroke-width="6.00" stroke-linejoin="round" transform="matrix(0.00, 1.00, 1.00, 0.00, 425.0, 194.6)"></path></g></g><g><clipPath id="clip0x600002ab2000"><path d="M 356.0 196.6 L 356.0 229.0 L 364.0 229.0 L 364.0 196.6 Z M 356.0 196.6 "></path></clipPath><g clip-path="url(#clip0x600002ab2000)"><path d="M 0.4 0.0 L 30.4 0.0 " fill="none" stroke="#000000" stroke-width="6.00" stroke-linejoin="round" transform="matrix(0.00, 1.00, 1.00, 0.00, 360.0, 197.6)"></path></g></g><g><clipPath id="clip0x600002ab2900"><path d="M 274.3 230.4 L 274.3 397.4 L 315.7 397.4 L 315.7 230.4 Z M 274.3 230.4 "></path></clipPath><g clip-path="url(#clip0x600002ab2900)"><text xml:space="preserve" font-family="ArialMT,Arial" font-size="24.0" fill="#000000" transform="matrix(0.00, 1.00, 1.00, -0.00, 303.1, 240.3)">G</text><text xml:space="preserve" font-family="ArialMT,Arial" font-size="24.0" fill="#000000" transform="matrix(0.00, 1.00, 1.00, -0.00, 303.1, 258.9)">y</text><text xml:space="preserve" font-family="ArialMT,Arial" font-size="24.0" fill="#000000" transform="matrix(0.00, 1.00, 1.00, -0.00, 303.1, 270.9)">m</text><text xml:space="preserve" font-family="ArialMT,Arial" font-size="24.0" fill="#000000" transform="matrix(0.00, 1.00, 1.00, -0.00, 303.1, 290.9)">n</text><text xml:space="preserve" font-family="ArialMT,Arial" font-size="24.0" fill="#000000" transform="matrix(0.00, 1.00, 1.00, -0.00, 303.1, 304.3)">o</text><text xml:space="preserve" font-family="ArialMT,Arial" font-size="24.0" fill="#000000" transform="matrix(0.00, 1.00, 1.00, -0.00, 303.1, 317.6)">p</text><text xml:space="preserve" font-family="ArialMT,Arial" font-size="24.0" fill="#000000" transform="matrix(0.00, 1.00, 1.00, -0.00, 303.1, 331.0)">h</text><text xml:space="preserve" font-family="ArialMT,Arial" font-size="24.0" fill="#000000" transform="matrix(0.00, 1.00, 1.00, -0.00, 303.1, 344.3)">i</text><text xml:space="preserve" font-family="ArialMT,Arial" font-size="24.0" fill="#000000" transform="matrix(0.00, 1.00, 1.00, -0.00, 303.1, 349.7)">o</text><text xml:space="preserve" font-family="ArialMT,Arial" font-size="24.0" fill="#000000" transform="matrix(0.00, 1.00, 1.00, -0.00, 303.1, 363.0)">n</text><text xml:space="preserve" font-family="ArialMT,Arial" font-size="24.0" fill="#000000" transform="matrix(0.00, 1.00, 1.00, -0.00, 303.1, 376.4)">a</text></g></g><g><clipPath id="clip0x6080028be2a0"><path d="M 339.3 230.4 L 339.3 312.0 L 380.7 312.0 L 380.7 230.4 Z M 339.3 230.4 "></path></clipPath><g clip-path="url(#clip0x6080028be2a0)"><text xml:space="preserve" font-family="ArialMT,Arial" font-size="24.0" fill="#000000" transform="matrix(0.00, 1.00, 1.00, -0.00, 368.1, 240.3)">A</text><text xml:space="preserve" font-family="ArialMT,Arial" font-size="24.0" fill="#000000" transform="matrix(0.00, 1.00, 1.00, -0.00, 368.1, 256.3)">n</text><text xml:space="preserve" font-family="ArialMT,Arial" font-size="24.0" fill="#000000" transform="matrix(0.00, 1.00, 1.00, -0.00, 368.1, 269.6)">u</text><text xml:space="preserve" font-family="ArialMT,Arial" font-size="24.0" fill="#000000" transform="matrix(0.00, 1.00, 1.00, -0.00, 368.1, 283.0)">r</text><text xml:space="preserve" font-family="ArialMT,Arial" font-size="24.0" fill="#000000" transform="matrix(0.00, 1.00, 1.00, -0.00, 368.1, 291.0)">a</text></g></g><g><clipPath id="clip0x6080028be420"><path d="M 404.3 230.4 L 404.3 338.7 L 445.7 338.7 L 445.7 230.4 Z M 404.3 230.4 "></path></clipPath><g clip-path="url(#clip0x6080028be420)"><text xml:space="preserve" font-family="ArialMT,Arial" font-size="24.0" fill="#000000" transform="matrix(0.00, 1.00, 1.00, -0.00, 433.1, 240.3)">C</text><text xml:space="preserve" font-family="ArialMT,Arial" font-size="24.0" fill="#000000" transform="matrix(0.00, 1.00, 1.00, -0.00, 433.1, 257.6)">a</text><text xml:space="preserve" font-family="ArialMT,Arial" font-size="24.0" fill="#000000" transform="matrix(0.00, 1.00, 1.00, -0.00, 433.1, 271.0)">u</text><text xml:space="preserve" font-family="ArialMT,Arial" font-size="24.0" fill="#000000" transform="matrix(0.00, 1.00, 1.00, -0.00, 433.1, 284.3)">d</text><text xml:space="preserve" font-family="ArialMT,Arial" font-size="24.0" fill="#000000" transform="matrix(0.00, 1.00, 1.00, -0.00, 433.1, 297.7)">a</text><text xml:space="preserve" font-family="ArialMT,Arial" font-size="24.0" fill="#000000" transform="matrix(0.00, 1.00, 1.00, -0.00, 433.1, 311.0)">t</text><text xml:space="preserve" font-family="ArialMT,Arial" font-size="24.0" fill="#000000" transform="matrix(0.00, 1.00, 1.00, -0.00, 433.1, 317.7)">a</text></g></g><g><clipPath id="clip0x6080028be780"><path d="M 355.9 193.0 L 429.0 193.0 L 429.0 201.0 L 355.9 201.0 Z M 355.9 193.0 "></path></clipPath><g clip-path="url(#clip0x6080028be780)"><path d="M 0.1 0.0 L 71.1 0.0 " fill="none" stroke="#000000" stroke-width="6.00" stroke-linejoin="round" transform="matrix(1.00, 0.00, 0.00, -1.00, 356.9, 197.0)"></path></g></g><g><clipPath id="clip0x6080028becc0"><path d="M 390.0 150.6 L 390.0 200.0 L 398.0 200.0 L 398.0 150.6 Z M 390.0 150.6 "></path></clipPath><g clip-path="url(#clip0x6080028becc0)"><path d="M 0.4 0.0 L 47.4 0.0 " fill="none" stroke="#000000" stroke-width="6.00" stroke-linejoin="round" transform="matrix(0.00, 1.00, 1.00, 0.00, 394.0, 151.6)"></path></g></g><g><clipPath id="clip0x6080028befc0"><path d="M 291.2 145.0 L 398.0 145.0 L 398.0 153.0 L 291.2 153.0 Z M 291.2 145.0 "></path></clipPath><g clip-path="url(#clip0x6080028befc0)"><path d="M -0.2 0.0 L 104.8 0.0 " fill="none" stroke="#000000" stroke-width="6.00" stroke-linejoin="round" transform="matrix(1.00, 0.00, 0.00, -1.00, 292.2, 149.0)"></path></g></g></g></svg>