<?xml version="1.0" encoding="UTF-8" standalone="no"?><svg xmlns="http://www.w3.org/2000/svg" xmlns:xlink="http://www.w3.org/1999/xlink" clip-rule="evenodd" stroke-miterlimit="4.00" viewBox="0 0 397 158"><desc>SVG generated by Keynote</desc><defs></defs><g transform="matrix(1.00, 0.00, -0.00, -1.00, 0.0, 158.0)"><g><clipPath id="clip-5"><path d="M 0.0 132.5 L 21.0 132.5 L 21.0 153.5 L 0.0 153.5 Z M 0.0 132.5 "></path></clipPath><g clip-path="url(#clip-5)"><path d="M 9.5 152.4 L 9.5 146.8 L 6.7 151.6 L 4.9 150.6 L 7.7 145.8 L 2.9 148.5 L 1.8 146.7 L 6.6 143.9 L 1.1 143.9 L 1.1 141.8 L 6.6 141.8 L 1.8 139.0 L 2.9 137.2 L 7.7 140.0 L 4.9 135.2 L 6.7 134.1 L 9.5 138.9 L 9.5 133.4 L 11.6 133.4 L 11.6 139.0 L 14.4 134.1 L 16.2 135.2 L 13.4 140.0 L 18.3 137.2 L 19.3 139.0 L 14.5 141.8 L 20.1 141.8 L 20.1 143.9 L 14.5 143.9 L 19.3 146.7 L 18.3 148.5 L 13.4 145.8 L 16.2 150.6 L 14.4 151.6 L 11.6 146.8 L 11.6 152.4 Z M 9.5 152.4 " fill="#497493"></path></g></g><text xml:space="preserve" font-family="HelveticaNeue" font-size="36.0" fill="#777775" transform="matrix(1.00, 0.00, -0.00, -1.00, 34.0, 131.0)">“</text><text xml:space="preserve" font-family="HelveticaNeue" font-size="36.0" fill="#777775" transform="matrix(1.00, 0.00, -0.00, -1.00, 49.3, 131.0)">T</text><text xml:space="preserve" font-family="HelveticaNeue" font-size="36.0" fill="#777775" transform="matrix(1.00, 0.00, -0.00, -1.00, 70.0, 131.0)">h</text><text xml:space="preserve" font-family="HelveticaNeue" font-size="36.0" fill="#777775" transform="matrix(1.00, 0.00, -0.00, -1.00, 90.0, 131.0)">e</text><text xml:space="preserve" font-family="HelveticaNeue" font-size="36.0" fill="#777775" transform="matrix(1.00, 0.00, -0.00, -1.00, 109.3, 131.0)">y</text><text xml:space="preserve" font-family="HelveticaNeue" font-size="36.0" fill="#777775" transform="matrix(1.00, 0.00, -0.00, -1.00, 127.3, 131.0)"> </text><text xml:space="preserve" font-family="HelveticaNeue" font-size="36.0" fill="#777775" transform="matrix(1.00, 0.00, -0.00, -1.00, 137.4, 131.0)">l</text><text xml:space="preserve" font-family="HelveticaNeue" font-size="36.0" fill="#777775" transform="matrix(1.00, 0.00, -0.00, -1.00, 145.3, 131.0)">i</text><text xml:space="preserve" font-family="HelveticaNeue" font-size="36.0" fill="#777775" transform="matrix(1.00, 0.00, -0.00, -1.00, 153.3, 131.0)">v</text><text xml:space="preserve" font-family="HelveticaNeue" font-size="36.0" fill="#777775" transform="matrix(1.00, 0.00, -0.00, -1.00, 171.3, 131.0)">e</text><text xml:space="preserve" font-family="HelveticaNeue" font-size="36.0" fill="#777775" transform="matrix(1.00, 0.00, -0.00, -1.00, 190.7, 131.0)"> </text><text xml:space="preserve" font-family="HelveticaNeue" font-size="36.0" fill="#777775" transform="matrix(1.00, 0.00, -0.00, -1.00, 200.7, 131.0)">i</text><text xml:space="preserve" font-family="HelveticaNeue" font-size="36.0" fill="#777775" transform="matrix(1.00, 0.00, -0.00, -1.00, 208.7, 131.0)">n</text><text xml:space="preserve" font-family="HelveticaNeue" font-size="36.0" fill="#777775" transform="matrix(1.00, 0.00, -0.00, -1.00, 228.7, 131.0)"> </text><text xml:space="preserve" font-family="HelveticaNeue" font-size="36.0" fill="#777775" transform="matrix(1.00, 0.00, -0.00, -1.00, 238.7, 131.0)">t</text><text xml:space="preserve" font-family="HelveticaNeue" font-size="36.0" fill="#777775" transform="matrix(1.00, 0.00, -0.00, -1.00, 250.0, 131.0)">h</text><text xml:space="preserve" font-family="HelveticaNeue" font-size="36.0" fill="#777775" transform="matrix(1.00, 0.00, -0.00, -1.00, 270.1, 131.0)">e</text><text xml:space="preserve" font-family="HelveticaNeue" font-size="36.0" fill="#777775" transform="matrix(1.00, 0.00, -0.00, -1.00, 289.4, 131.0)"> </text><text xml:space="preserve" font-family="HelveticaNeue" font-size="36.0" fill="#777775" transform="matrix(1.00, 0.00, -0.00, -1.00, 299.4, 131.0)">w</text><text xml:space="preserve" font-family="HelveticaNeue" font-size="36.0" fill="#777775" transform="matrix(1.00, 0.00, -0.00, -1.00, 326.7, 131.0)">a</text><text xml:space="preserve" font-family="HelveticaNeue" font-size="36.0" fill="#777775" transform="matrix(1.00, 0.00, -0.00, -1.00, 346.0, 131.0)">t</text><text xml:space="preserve" font-family="HelveticaNeue" font-size="36.0" fill="#777775" transform="matrix(1.00, 0.00, -0.00, -1.00, 357.4, 131.0)">e</text><text xml:space="preserve" font-family="HelveticaNeue" font-size="36.0" fill="#777775" transform="matrix(1.00, 0.00, -0.00, -1.00, 376.7, 131.0)">r</text><text xml:space="preserve" font-family="HelveticaNeue" font-size="36.0" fill="#777775" transform="matrix(1.00, 0.00, -0.00, -1.00, 385.4, 131.0)">.</text><text xml:space="preserve" font-family="HelveticaNeue" font-size="36.0" fill="#777775" transform="matrix(1.00, 0.00, -0.00, -1.00, 395.4, 131.0)"> </text><text xml:space="preserve" font-family="HelveticaNeue" font-size="36.0" fill="#777775" transform="matrix(1.00, 0.00, -0.00, -1.00, 34.0, 88.0)">T</text><text xml:space="preserve" font-family="HelveticaNeue" font-size="36.0" fill="#777775" transform="matrix(1.00, 0.00, -0.00, -1.00, 54.7, 88.0)">h</text><text xml:space="preserve" font-family="HelveticaNeue" font-size="36.0" fill="#777775" transform="matrix(1.00, 0.00, -0.00, -1.00, 74.7, 88.0)">e</text><text xml:space="preserve" font-family="HelveticaNeue" font-size="36.0" fill="#777775" transform="matrix(1.00, 0.00, -0.00, -1.00, 94.0, 88.0)">y</text><text xml:space="preserve" font-family="HelveticaNeue" font-size="36.0" fill="#777775" transform="matrix(1.00, 0.00, -0.00, -1.00, 112.0, 88.0)"> </text><text xml:space="preserve" font-family="HelveticaNeue" font-size="36.0" fill="#777775" transform="matrix(1.00, 0.00, -0.00, -1.00, 122.0, 88.0)">e</text><text xml:space="preserve" font-family="HelveticaNeue" font-size="36.0" fill="#777775" transform="matrix(1.00, 0.00, -0.00, -1.00, 141.4, 88.0)">a</text><text xml:space="preserve" font-family="HelveticaNeue" font-size="36.0" fill="#777775" transform="matrix(1.00, 0.00, -0.00, -1.00, 160.7, 88.0)">t</text><text xml:space="preserve" font-family="HelveticaNeue" font-size="36.0" fill="#777775" transform="matrix(1.00, 0.00, -0.00, -1.00, 172.0, 88.0)"> </text><text xml:space="preserve" font-family="HelveticaNeue" font-size="36.0" fill="#777775" transform="matrix(1.00, 0.00, -0.00, -1.00, 182.0, 88.0)">g</text><text xml:space="preserve" font-family="HelveticaNeue" font-size="36.0" fill="#777775" transform="matrix(1.00, 0.00, -0.00, -1.00, 202.7, 88.0)">r</text><text xml:space="preserve" font-family="HelveticaNeue" font-size="36.0" fill="#777775" transform="matrix(1.00, 0.00, -0.00, -1.00, 214.7, 88.0)">a</text><text xml:space="preserve" font-family="HelveticaNeue" font-size="36.0" fill="#777775" transform="matrix(1.00, 0.00, -0.00, -1.00, 234.0, 88.0)">s</text><text xml:space="preserve" font-family="HelveticaNeue" font-size="36.0" fill="#777775" transform="matrix(1.00, 0.00, -0.00, -1.00, 252.0, 88.0)">s</text><text xml:space="preserve" font-family="HelveticaNeue" font-size="36.0" fill="#777775" transform="matrix(1.00, 0.00, -0.00, -1.00, 270.0, 88.0)">.</text><text xml:space="preserve" font-family="HelveticaNeue" font-size="36.0" fill="#777775" transform="matrix(1.00, 0.00, -0.00, -1.00, 280.0, 88.0)"> </text><text xml:space="preserve" font-family="HelveticaNeue" font-size="36.0" fill="#777775" transform="matrix(1.00, 0.00, -0.00, -1.00, 290.0, 88.0)">W</text><text xml:space="preserve" font-family="HelveticaNeue" font-size="36.0" fill="#777775" transform="matrix(1.00, 0.00, -0.00, -1.00, 323.4, 88.0)">h</text><text xml:space="preserve" font-family="HelveticaNeue" font-size="36.0" fill="#777775" transform="matrix(1.00, 0.00, -0.00, -1.00, 343.4, 88.0)">a</text><text xml:space="preserve" font-family="HelveticaNeue" font-size="36.0" fill="#777775" transform="matrix(1.00, 0.00, -0.00, -1.00, 362.7, 88.0)">t</text><text xml:space="preserve" font-family="HelveticaNeue" font-size="36.0" fill="#777775" transform="matrix(1.00, 0.00, -0.00, -1.00, 374.1, 88.0)"> </text><text xml:space="preserve" font-family="HelveticaNeue" font-size="36.0" fill="#777775" transform="matrix(1.00, 0.00, -0.00, -1.00, 34.0, 45.0)">m</text><text xml:space="preserve" font-family="HelveticaNeue" font-size="36.0" fill="#777775" transform="matrix(1.00, 0.00, -0.00, -1.00, 64.7, 45.0)">o</text><text xml:space="preserve" font-family="HelveticaNeue" font-size="36.0" fill="#777775" transform="matrix(1.00, 0.00, -0.00, -1.00, 85.4, 45.0)">r</text><text xml:space="preserve" font-family="HelveticaNeue" font-size="36.0" fill="#777775" transform="matrix(1.00, 0.00, -0.00, -1.00, 96.7, 45.0)">e</text><text xml:space="preserve" font-family="HelveticaNeue" font-size="36.0" fill="#777775" transform="matrix(1.00, 0.00, -0.00, -1.00, 116.0, 45.0)"> </text><text xml:space="preserve" font-family="HelveticaNeue" font-size="36.0" fill="#777775" transform="matrix(1.00, 0.00, -0.00, -1.00, 126.1, 45.0)">d</text><text xml:space="preserve" font-family="HelveticaNeue" font-size="36.0" fill="#777775" transform="matrix(1.00, 0.00, -0.00, -1.00, 147.4, 45.0)">o</text><text xml:space="preserve" font-family="HelveticaNeue" font-size="36.0" fill="#777775" transform="matrix(1.00, 0.00, -0.00, -1.00, 168.1, 45.0)"> </text><text xml:space="preserve" font-family="HelveticaNeue" font-size="36.0" fill="#777775" transform="matrix(1.00, 0.00, -0.00, -1.00, 178.1, 45.0)">y</text><text xml:space="preserve" font-family="HelveticaNeue" font-size="36.0" fill="#777775" transform="matrix(1.00, 0.00, -0.00, -1.00, 196.1, 45.0)">o</text><text xml:space="preserve" font-family="HelveticaNeue" font-size="36.0" fill="#777775" transform="matrix(1.00, 0.00, -0.00, -1.00, 216.7, 45.0)">u</text><text xml:space="preserve" font-family="HelveticaNeue" font-size="36.0" fill="#777775" transform="matrix(1.00, 0.00, -0.00, -1.00, 236.8, 45.0)"> </text><text xml:space="preserve" font-family="HelveticaNeue" font-size="36.0" fill="#777775" transform="matrix(1.00, 0.00, -0.00, -1.00, 246.8, 45.0)">n</text><text xml:space="preserve" font-family="HelveticaNeue" font-size="36.0" fill="#777775" transform="matrix(1.00, 0.00, -0.00, -1.00, 266.8, 45.0)">e</text><text xml:space="preserve" font-family="HelveticaNeue" font-size="36.0" fill="#777775" transform="matrix(1.00, 0.00, -0.00, -1.00, 286.1, 45.0)">e</text><text xml:space="preserve" font-family="HelveticaNeue" font-size="36.0" fill="#777775" transform="matrix(1.00, 0.00, -0.00, -1.00, 305.4, 45.0)">d</text><text xml:space="preserve" font-family="HelveticaNeue" font-size="36.0" fill="#777775" transform="matrix(1.00, 0.00, -0.00, -1.00, 326.8, 45.0)"> </text><text xml:space="preserve" font-family="HelveticaNeue" font-size="36.0" fill="#777775" transform="matrix(1.00, 0.00, -0.00, -1.00, 336.8, 45.0)">t</text><text xml:space="preserve" font-family="HelveticaNeue" font-size="36.0" fill="#777775" transform="matrix(1.00, 0.00, -0.00, -1.00, 348.1, 45.0)">o</text><text xml:space="preserve" font-family="HelveticaNeue" font-size="36.0" fill="#777775" transform="matrix(1.00, 0.00, -0.00, -1.00, 368.8, 45.0)"> </text><text xml:space="preserve" font-family="HelveticaNeue" font-size="36.0" fill="#777775" transform="matrix(1.00, 0.00, -0.00, -1.00, 34.0, 2.0)">k</text><text xml:space="preserve" font-family="HelveticaNeue" font-size="36.0" fill="#777775" transform="matrix(1.00, 0.00, -0.00, -1.00, 52.7, 2.0)">n</text><text xml:space="preserve" font-family="HelveticaNeue" font-size="36.0" fill="#777775" transform="matrix(1.00, 0.00, -0.00, -1.00, 72.7, 2.0)">o</text><text xml:space="preserve" font-family="HelveticaNeue" font-size="36.0" fill="#777775" transform="matrix(1.00, 0.00, -0.00, -1.00, 93.4, 2.0)">w</text><text xml:space="preserve" font-family="HelveticaNeue" font-size="36.0" fill="#777775" transform="matrix(1.00, 0.00, -0.00, -1.00, 120.7, 2.0)">?</text><text xml:space="preserve" font-family="HelveticaNeue" font-size="36.0" fill="#777775" transform="matrix(1.00, 0.00, -0.00, -1.00, 140.7, 2.0)">”</text></g></svg>