<?xml version="1.0" encoding="UTF-8" standalone="no"?><svg xmlns="http://www.w3.org/2000/svg" xmlns:xlink="http://www.w3.org/1999/xlink" clip-rule="evenodd" stroke-miterlimit="4.00" viewBox="0 0 720 540"><desc>SVG generated by Keynote</desc><defs></defs><g transform="matrix(1.00, 0.00, -0.00, -1.00, 0.0, 540.0)"><path d="M 0.0 540.0 L 720.0 540.0 L 720.0 0.0 L 0.0 0.0 Z M 0.0 540.0 " fill="#FEFFFF"></path><text xml:space="preserve" font-family="ArialMT" font-size="44.0" fill="#000000" transform="matrix(1.00, 0.00, -0.00, -1.00, 86.0, 462.0)">W</text><text xml:space="preserve" font-family="ArialMT" font-size="44.0" fill="#000000" transform="matrix(1.00, 0.00, -0.00, -1.00, 127.5, 462.0)">h</text><text xml:space="preserve" font-family="ArialMT" font-size="44.0" fill="#000000" transform="matrix(1.00, 0.00, -0.00, -1.00, 152.0, 462.0)">y</text><text xml:space="preserve" font-family="ArialMT" font-size="44.0" fill="#000000" transform="matrix(1.00, 0.00, -0.00, -1.00, 174.0, 462.0)"> </text><text xml:space="preserve" font-family="ArialMT" font-size="44.0" fill="#000000" transform="matrix(1.00, 0.00, -0.00, -1.00, 186.2, 462.0)">i</text><text xml:space="preserve" font-family="ArialMT" font-size="44.0" fill="#000000" transform="matrix(1.00, 0.00, -0.00, -1.00, 196.0, 462.0)">s</text><text xml:space="preserve" font-family="ArialMT" font-size="44.0" fill="#000000" transform="matrix(1.00, 0.00, -0.00, -1.00, 218.0, 462.0)"> </text><text xml:space="preserve" font-family="ArialMT" font-size="44.0" fill="#000000" transform="matrix(1.00, 0.00, -0.00, -1.00, 230.2, 462.0)">p</text><text xml:space="preserve" font-family="ArialMT" font-size="44.0" fill="#000000" transform="matrix(1.00, 0.00, -0.00, -1.00, 254.7, 462.0)">r</text><text xml:space="preserve" font-family="ArialMT" font-size="44.0" fill="#000000" transform="matrix(1.00, 0.00, -0.00, -1.00, 269.3, 462.0)">e</text><text xml:space="preserve" font-family="ArialMT" font-size="44.0" fill="#000000" transform="matrix(1.00, 0.00, -0.00, -1.00, 293.8, 462.0)">d</text><text xml:space="preserve" font-family="ArialMT" font-size="44.0" fill="#000000" transform="matrix(1.00, 0.00, -0.00, -1.00, 318.3, 462.0)">a</text><text xml:space="preserve" font-family="ArialMT" font-size="44.0" fill="#000000" transform="matrix(1.00, 0.00, -0.00, -1.00, 342.8, 462.0)">t</text><text xml:space="preserve" font-family="ArialMT" font-size="44.0" fill="#000000" transform="matrix(1.00, 0.00, -0.00, -1.00, 355.0, 462.0)">i</text><text xml:space="preserve" font-family="ArialMT" font-size="44.0" fill="#000000" transform="matrix(1.00, 0.00, -0.00, -1.00, 364.8, 462.0)">o</text><text xml:space="preserve" font-family="ArialMT" font-size="44.0" fill="#000000" transform="matrix(1.00, 0.00, -0.00, -1.00, 389.3, 462.0)">n</text><text xml:space="preserve" font-family="ArialMT" font-size="44.0" fill="#000000" transform="matrix(1.00, 0.00, -0.00, -1.00, 413.7, 462.0)"> </text><text xml:space="preserve" font-family="ArialMT" font-size="44.0" fill="#000000" transform="matrix(1.00, 0.00, -0.00, -1.00, 426.0, 462.0)">i</text><text xml:space="preserve" font-family="ArialMT" font-size="44.0" fill="#000000" transform="matrix(1.00, 0.00, -0.00, -1.00, 435.7, 462.0)">m</text><text xml:space="preserve" font-family="ArialMT" font-size="44.0" fill="#000000" transform="matrix(1.00, 0.00, -0.00, -1.00, 472.4, 462.0)">p</text><text xml:space="preserve" font-family="ArialMT" font-size="44.0" fill="#000000" transform="matrix(1.00, 0.00, -0.00, -1.00, 496.9, 462.0)">o</text><text xml:space="preserve" font-family="ArialMT" font-size="44.0" fill="#000000" transform="matrix(1.00, 0.00, -0.00, -1.00, 521.4, 462.0)">r</text><text xml:space="preserve" font-family="ArialMT" font-size="44.0" fill="#000000" transform="matrix(1.00, 0.00, -0.00, -1.00, 536.0, 462.0)">t</text><text xml:space="preserve" font-family="ArialMT" font-size="44.0" fill="#000000" transform="matrix(1.00, 0.00, -0.00, -1.00, 548.2, 462.0)">a</text><text xml:space="preserve" font-family="ArialMT" font-size="44.0" fill="#000000" transform="matrix(1.00, 0.00, -0.00, -1.00, 572.7, 462.0)">n</text><text xml:space="preserve" font-family="ArialMT" font-size="44.0" fill="#000000" transform="matrix(1.00, 0.00, -0.00, -1.00, 597.2, 462.0)">t</text><text xml:space="preserve" font-family="ArialMT" font-size="44.0" fill="#000000" transform="matrix(1.00, 0.00, -0.00, -1.00, 609.4, 462.0)">?</text><g><clipPath id="clip-153"><path d="M 462.0 0.0 L 648.0 0.0 L 648.0 155.0 L 462.0 155.0 Z M 462.0 0.0 "></path></clipPath><g clip-path="url(#clip-153)"><path d="M 462.0 155.0 L 648.0 155.0 L 648.0 0.0 L 462.0 0.0 Z M 462.0 155.0 " fill="#FFFFFF"></path><image xlink:href="../../BA1F4E45-164F-4446-B199-7D0D4C64D2CC/assets/1DB7BA252B0DDD5C3A4D6F0328952D5D.png" width="128.00" height="107.00" transform="matrix(1.45, 0.00, -0.00, -1.45, 462.0, 155.0)"></image></g></g><g><clipPath id="clip-154"><path d="M 90.0 0.0 L 222.0 0.0 L 222.0 132.0 L 90.0 132.0 Z M 90.0 0.0 "></path></clipPath><g clip-path="url(#clip-154)"><path d="M 90.0 132.0 L 222.0 132.0 L 222.0 0.0 L 90.0 0.0 Z M 90.0 132.0 " fill="#FFFFFF"></path><image xlink:href="../../BA1F4E45-164F-4446-B199-7D0D4C64D2CC/assets/EFC6CB07CF7EB7BEAE48DD8B4E421653.png" width="359.00" height="359.00" transform="matrix(0.37, 0.00, -0.00, -0.37, 90.0, 132.0)"></image></g></g><path d="M 0.0 0.0 L 97.6 0.1 L 101.6 0.1 " fill="none" stroke="#FF2600" stroke-width="8.00" stroke-linejoin="round" transform="matrix(1.00, 0.00, 0.00, -1.00, 270.0, 306.0)"></path><path d="M 367.7 317.1 L 390.0 305.9 L 367.6 294.7 Z M 367.7 317.1 " fill="#FF2600"></path><path d="M 114.0 0.0 L 6.9 0.1 L 5.9 0.1 " fill="none" stroke="#00F900" stroke-width="2.00" stroke-linejoin="round" transform="matrix(1.00, 0.00, 0.00, -1.00, 270.0, 372.0)"></path><path d="M 276.9 368.4 L 270.0 371.9 L 276.9 375.3 Z M 276.9 368.4 " fill="#00F900"></path><text xml:space="preserve" font-family="Arial-BoldMT" font-weight="bold" font-size="24.0" fill="#00F900" transform="matrix(1.00, 0.00, -0.00, -1.00, 318.0, 382.0)">+</text><text xml:space="preserve" font-family="Arial-BoldMT" font-weight="bold" font-size="24.0" fill="#FF2600" transform="matrix(1.00, 0.00, -0.00, -1.00, 325.0, 262.0)">-</text><g><clipPath id="clip-155"><path d="M 402.0 220.0 L 720.0 220.0 L 720.0 432.0 L 402.0 432.0 Z M 402.0 220.0 "></path></clipPath><g clip-path="url(#clip-155)"><path d="M 402.0 432.0 L 720.0 432.0 L 720.0 220.0 L 402.0 220.0 Z M 402.0 432.0 " fill="#FFFFFF"></path><image xlink:href="../../D41F4E45-164F-4446-B199-7D0D4C64D2CC/assets/3AB483EF3751A2B756FDE809867D6FA0.png" width="700.00" height="467.00" transform="matrix(0.45, 0.00, -0.00, -0.45, 402.0, 432.0)"></image></g></g><g><clipPath id="clip-156"><path d="M 36.0 273.0 L 216.0 273.0 L 216.0 414.0 L 36.0 414.0 Z M 36.0 273.0 "></path></clipPath><g clip-path="url(#clip-156)"><path d="M 36.0 414.0 L 216.0 414.0 L 216.0 273.0 L 36.0 273.0 Z M 36.0 414.0 " fill="#FFFFFF"></path><image xlink:href="../../DA1F4E45-164F-4446-B199-7D0D4C64D2CC/assets/BA4DFDB25A1D3A15C0E96BAE3D7DCAA9.png" width="120.00" height="94.00" transform="matrix(1.50, 0.00, -0.00, -1.50, 36.0, 414.0)"></image></g></g></g></svg>