<?xml version="1.0" encoding="UTF-8" standalone="no"?><svg xmlns="http://www.w3.org/2000/svg" xmlns:xlink="http://www.w3.org/1999/xlink" clip-rule="evenodd" stroke-miterlimit="4.00" viewBox="0 0 1024 768"><desc>SVG generated by Keynote</desc><defs></defs><g transform="matrix(1.00, 0.00, -0.00, -1.00, 0.0, 768.0)"><path d="M 0.0 768.0 L 1024.0 768.0 L 1024.0 0.0 L 0.0 0.0 Z M 0.0 768.0 " fill="#FEFFFF"></path><path d="M 0.0 0.0 L 980.0 0.0 L 980.0 726.0 L 0.0 726.0 Z M 0.0 0.0 " fill="none" stroke="#A2A0A6" stroke-width="2.00" transform="matrix(1.00, 0.00, 0.00, -1.00, 22.3, 746.0)"></path><path d="M 0.0 768.0 L 1024.0 768.0 L 1024.0 0.0 L 0.0 0.0 Z M 0.0 768.0 " fill="#FEFFFF"></path><path d="M 0.0 0.0 L 1024.0 0.0 L 1024.0 768.0 L 0.0 768.0 Z M 0.0 0.0 " fill="none" stroke="#000000" stroke-width="1.00" transform="matrix(1.00, 0.00, 0.00, -1.00, 0.0, 768.0)"></path><image xlink:href="55E02833C56CAB9B4AD598BF420A2D2D.jpeg" width="606.00" height="507.00" transform="matrix(1.00, 0.00, -0.00, -1.00, -43.0, 649.0)"></image><text xml:space="preserve" font-family="Georgia" font-size="38.0" fill="#FFA900" transform="matrix(1.00, 0.00, -0.00, -1.00, 69.0, 652.0)">D</text><text xml:space="preserve" font-family="Georgia" font-size="38.0" fill="#FFA900" transform="matrix(1.00, 0.00, -0.00, -1.00, 97.5, 652.0)">i</text><text xml:space="preserve" font-family="Georgia" font-size="38.0" fill="#FFA900" transform="matrix(1.00, 0.00, -0.00, -1.00, 108.6, 652.0)">f</text><text xml:space="preserve" font-family="Georgia" font-size="38.0" fill="#FFA900" transform="matrix(1.00, 0.00, -0.00, -1.00, 121.0, 652.0)">f</text><text xml:space="preserve" font-family="Georgia" font-size="38.0" fill="#FFA900" transform="matrix(1.00, 0.00, -0.00, -1.00, 133.3, 652.0)">e</text><text xml:space="preserve" font-family="Georgia" font-size="38.0" fill="#FFA900" transform="matrix(1.00, 0.00, -0.00, -1.00, 151.7, 652.0)">r</text><text xml:space="preserve" font-family="Georgia" font-size="38.0" fill="#FFA900" transform="matrix(1.00, 0.00, -0.00, -1.00, 167.3, 652.0)">e</text><text xml:space="preserve" font-family="Georgia" font-size="38.0" fill="#FFA900" transform="matrix(1.00, 0.00, -0.00, -1.00, 185.7, 652.0)">n</text><text xml:space="preserve" font-family="Georgia" font-size="38.0" fill="#FFA900" transform="matrix(1.00, 0.00, -0.00, -1.00, 208.1, 652.0)">t</text><text xml:space="preserve" font-family="Georgia" font-size="38.0" fill="#FFA900" transform="matrix(1.00, 0.00, -0.00, -1.00, 221.2, 652.0)"> </text><text xml:space="preserve" font-family="Georgia" font-size="38.0" fill="#FFA900" transform="matrix(1.00, 0.00, -0.00, -1.00, 230.4, 652.0)">r</text><text xml:space="preserve" font-family="Georgia" font-size="38.0" fill="#FFA900" transform="matrix(1.00, 0.00, -0.00, -1.00, 245.9, 652.0)">e</text><text xml:space="preserve" font-family="Georgia" font-size="38.0" fill="#FFA900" transform="matrix(1.00, 0.00, -0.00, -1.00, 264.3, 652.0)">s</text><text xml:space="preserve" font-family="Georgia" font-size="38.0" fill="#FFA900" transform="matrix(1.00, 0.00, -0.00, -1.00, 280.8, 652.0)">p</text><text xml:space="preserve" font-family="Georgia" font-size="38.0" fill="#FFA900" transform="matrix(1.00, 0.00, -0.00, -1.00, 302.5, 652.0)">o</text><text xml:space="preserve" font-family="Georgia" font-size="38.0" fill="#FFA900" transform="matrix(1.00, 0.00, -0.00, -1.00, 323.0, 652.0)">n</text><text xml:space="preserve" font-family="Georgia" font-size="38.0" fill="#FFA900" transform="matrix(1.00, 0.00, -0.00, -1.00, 345.4, 652.0)">s</text><text xml:space="preserve" font-family="Georgia" font-size="38.0" fill="#FFA900" transform="matrix(1.00, 0.00, -0.00, -1.00, 361.8, 652.0)">e</text><text xml:space="preserve" font-family="Georgia" font-size="38.0" fill="#FFA900" transform="matrix(1.00, 0.00, -0.00, -1.00, 380.2, 652.0)">s</text><text xml:space="preserve" font-family="Georgia" font-size="38.0" fill="#FFA900" transform="matrix(1.00, 0.00, -0.00, -1.00, 396.6, 652.0)"> </text><text xml:space="preserve" font-family="Georgia" font-size="38.0" fill="#FFA900" transform="matrix(1.00, 0.00, -0.00, -1.00, 405.8, 652.0)">t</text><text xml:space="preserve" font-family="Georgia" font-size="38.0" fill="#FFA900" transform="matrix(1.00, 0.00, -0.00, -1.00, 418.9, 652.0)">o</text><text xml:space="preserve" font-family="Georgia" font-size="38.0" fill="#FFA900" transform="matrix(1.00, 0.00, -0.00, -1.00, 439.4, 652.0)"> </text><text xml:space="preserve" font-family="Georgia" font-size="38.0" fill="#FFA900" transform="matrix(1.00, 0.00, -0.00, -1.00, 448.6, 652.0)">c</text><text xml:space="preserve" font-family="Georgia" font-size="38.0" fill="#FFA900" transform="matrix(1.00, 0.00, -0.00, -1.00, 465.9, 652.0)">h</text><text xml:space="preserve" font-family="Georgia" font-size="38.0" fill="#FFA900" transform="matrix(1.00, 0.00, -0.00, -1.00, 488.0, 652.0)">y</text><text xml:space="preserve" font-family="Georgia" font-size="38.0" fill="#FFA900" transform="matrix(1.00, 0.00, -0.00, -1.00, 506.7, 652.0)">t</text><text xml:space="preserve" font-family="Georgia" font-size="38.0" fill="#FFA900" transform="matrix(1.00, 0.00, -0.00, -1.00, 519.8, 652.0)">r</text><text xml:space="preserve" font-family="Georgia" font-size="38.0" fill="#FFA900" transform="matrix(1.00, 0.00, -0.00, -1.00, 535.4, 652.0)">i</text><text xml:space="preserve" font-family="Georgia" font-size="38.0" fill="#FFA900" transform="matrix(1.00, 0.00, -0.00, -1.00, 546.5, 652.0)">d</text><text xml:space="preserve" font-family="Georgia" font-size="38.0" fill="#FFA900" transform="matrix(1.00, 0.00, -0.00, -1.00, 568.3, 652.0)"> </text><text xml:space="preserve" font-family="Georgia" font-size="38.0" fill="#FFA900" transform="matrix(1.00, 0.00, -0.00, -1.00, 577.5, 652.0)">a</text><text xml:space="preserve" font-family="Georgia" font-size="38.0" fill="#FFA900" transform="matrix(1.00, 0.00, -0.00, -1.00, 596.7, 652.0)">m</text><text xml:space="preserve" font-family="Georgia" font-size="38.0" fill="#FFA900" transform="matrix(1.00, 0.00, -0.00, -1.00, 630.1, 652.0)">o</text><text xml:space="preserve" font-family="Georgia" font-size="38.0" fill="#FFA900" transform="matrix(1.00, 0.00, -0.00, -1.00, 650.6, 652.0)">n</text><text xml:space="preserve" font-family="Georgia" font-size="38.0" fill="#FFA900" transform="matrix(1.00, 0.00, -0.00, -1.00, 673.1, 652.0)">g</text><text xml:space="preserve" font-family="Georgia" font-size="38.0" fill="#FFA900" transform="matrix(1.00, 0.00, -0.00, -1.00, 692.4, 652.0)"> </text><text xml:space="preserve" font-family="Georgia" font-size="38.0" fill="#FFA900" transform="matrix(1.00, 0.00, -0.00, -1.00, 701.6, 652.0)">p</text><text xml:space="preserve" font-family="Georgia" font-size="38.0" fill="#FFA900" transform="matrix(1.00, 0.00, -0.00, -1.00, 723.3, 652.0)">o</text><text xml:space="preserve" font-family="Georgia" font-size="38.0" fill="#FFA900" transform="matrix(1.00, 0.00, -0.00, -1.00, 743.8, 652.0)">p</text><text xml:space="preserve" font-family="Georgia" font-size="38.0" fill="#FFA900" transform="matrix(1.00, 0.00, -0.00, -1.00, 765.5, 652.0)">u</text><text xml:space="preserve" font-family="Georgia" font-size="38.0" fill="#FFA900" transform="matrix(1.00, 0.00, -0.00, -1.00, 787.4, 652.0)">l</text><text xml:space="preserve" font-family="Georgia" font-size="38.0" fill="#FFA900" transform="matrix(1.00, 0.00, -0.00, -1.00, 798.3, 652.0)">a</text><text xml:space="preserve" font-family="Georgia" font-size="38.0" fill="#FFA900" transform="matrix(1.00, 0.00, -0.00, -1.00, 817.4, 652.0)">t</text><text xml:space="preserve" font-family="Georgia" font-size="38.0" fill="#FFA900" transform="matrix(1.00, 0.00, -0.00, -1.00, 830.5, 652.0)">i</text><text xml:space="preserve" font-family="Georgia" font-size="38.0" fill="#FFA900" transform="matrix(1.00, 0.00, -0.00, -1.00, 841.7, 652.0)">o</text><text xml:space="preserve" font-family="Georgia" font-size="38.0" fill="#FFA900" transform="matrix(1.00, 0.00, -0.00, -1.00, 862.2, 652.0)">n</text><text xml:space="preserve" font-family="Georgia" font-size="38.0" fill="#FFA900" transform="matrix(1.00, 0.00, -0.00, -1.00, 884.6, 652.0)">s</text><text xml:space="preserve" font-family="ArialMT" font-size="22.0" fill="#000000" transform="matrix(1.00, 0.00, -0.00, -1.00, 265.0, 531.0)">E</text><text xml:space="preserve" font-family="ArialMT" font-size="22.0" fill="#000000" transform="matrix(1.00, 0.00, -0.00, -1.00, 279.7, 531.0)">x</text><text xml:space="preserve" font-family="ArialMT" font-size="22.0" fill="#000000" transform="matrix(1.00, 0.00, -0.00, -1.00, 290.7, 531.0)">t</text><text xml:space="preserve" font-family="ArialMT" font-size="22.0" fill="#000000" transform="matrix(1.00, 0.00, -0.00, -1.00, 296.8, 531.0)">i</text><text xml:space="preserve" font-family="ArialMT" font-size="22.0" fill="#000000" transform="matrix(1.00, 0.00, -0.00, -1.00, 301.7, 531.0)">n</text><text xml:space="preserve" font-family="ArialMT" font-size="22.0" fill="#000000" transform="matrix(1.00, 0.00, -0.00, -1.00, 313.9, 531.0)">c</text><text xml:space="preserve" font-family="ArialMT" font-size="22.0" fill="#000000" transform="matrix(1.00, 0.00, -0.00, -1.00, 324.9, 531.0)">t</text><text xml:space="preserve" font-family="ArialMT" font-size="22.0" fill="#000000" transform="matrix(1.00, 0.00, -0.00, -1.00, 265.0, 568.0)">E</text><text xml:space="preserve" font-family="ArialMT" font-size="22.0" fill="#000000" transform="matrix(1.00, 0.00, -0.00, -1.00, 279.7, 568.0)">x</text><text xml:space="preserve" font-family="ArialMT" font-size="22.0" fill="#000000" transform="matrix(1.00, 0.00, -0.00, -1.00, 290.7, 568.0)">t</text><text xml:space="preserve" font-family="ArialMT" font-size="22.0" fill="#000000" transform="matrix(1.00, 0.00, -0.00, -1.00, 296.8, 568.0)">a</text><text xml:space="preserve" font-family="ArialMT" font-size="22.0" fill="#000000" transform="matrix(1.00, 0.00, -0.00, -1.00, 309.0, 568.0)">n</text><text xml:space="preserve" font-family="ArialMT" font-size="22.0" fill="#000000" transform="matrix(1.00, 0.00, -0.00, -1.00, 321.3, 568.0)">t</text><path d="M 254.7 540.4 C 256.4 538.6 256.4 535.8 254.7 534.0 C 252.9 532.2 250.1 532.2 248.3 534.0 C 246.6 535.8 246.6 538.6 248.3 540.4 C 250.1 542.1 252.9 542.1 254.7 540.4 " fill="#FF4B00"></path><path d="M 7.7 1.3 C 9.4 3.1 9.4 5.9 7.7 7.7 C 5.9 9.4 3.1 9.4 1.3 7.7 C -0.4 5.9 -0.4 3.1 1.3 1.3 C 3.1 -0.4 5.9 -0.4 7.7 1.3 " fill="none" stroke="#000000" stroke-width="0.75" stroke-linejoin="round" transform="matrix(1.00, 0.00, 0.00, -1.00, 247.0, 541.7)"></path><path d="M 255.3 577.7 C 257.1 575.9 257.1 573.1 255.3 571.3 C 253.6 569.6 250.7 569.6 249.0 571.3 C 247.2 573.1 247.2 575.9 249.0 577.7 C 250.7 579.4 253.6 579.4 255.3 577.7 " fill="#FEFB00"></path><path d="M 7.7 1.3 C 9.4 3.1 9.4 5.9 7.7 7.7 C 5.9 9.4 3.1 9.4 1.3 7.7 C -0.4 5.9 -0.4 3.1 1.3 1.3 C 3.1 -0.4 5.9 -0.4 7.7 1.3 " fill="none" stroke="#000000" stroke-width="0.75" stroke-linejoin="round" transform="matrix(1.00, 0.00, 0.00, -1.00, 247.6, 579.0)"></path><text xml:space="preserve" font-family="Georgia" font-size="18.0" fill="#000000" transform="matrix(1.00, 0.00, -0.00, -1.00, 73.0, 90.0)">V</text><text xml:space="preserve" font-family="Georgia" font-size="18.0" fill="#000000" transform="matrix(1.00, 0.00, -0.00, -1.00, 85.0, 90.0)">r</text><text xml:space="preserve" font-family="Georgia" font-size="18.0" fill="#000000" transform="matrix(1.00, 0.00, -0.00, -1.00, 92.4, 90.0)">e</text><text xml:space="preserve" font-family="Georgia" font-size="18.0" fill="#000000" transform="matrix(1.00, 0.00, -0.00, -1.00, 101.1, 90.0)">d</text><text xml:space="preserve" font-family="Georgia" font-size="18.0" fill="#000000" transform="matrix(1.00, 0.00, -0.00, -1.00, 111.4, 90.0)">e</text><text xml:space="preserve" font-family="Georgia" font-size="18.0" fill="#000000" transform="matrix(1.00, 0.00, -0.00, -1.00, 120.1, 90.0)">n</text><text xml:space="preserve" font-family="Georgia" font-size="18.0" fill="#000000" transform="matrix(1.00, 0.00, -0.00, -1.00, 130.7, 90.0)">b</text><text xml:space="preserve" font-family="Georgia" font-size="18.0" fill="#000000" transform="matrix(1.00, 0.00, -0.00, -1.00, 140.8, 90.0)">u</text><text xml:space="preserve" font-family="Georgia" font-size="18.0" fill="#000000" transform="matrix(1.00, 0.00, -0.00, -1.00, 151.2, 90.0)">r</text><text xml:space="preserve" font-family="Georgia" font-size="18.0" fill="#000000" transform="matrix(1.00, 0.00, -0.00, -1.00, 158.6, 90.0)">g</text><text xml:space="preserve" font-family="Georgia" font-size="18.0" fill="#000000" transform="matrix(1.00, 0.00, -0.00, -1.00, 167.7, 90.0)"> </text><text xml:space="preserve" font-family="Georgia" font-size="18.0" fill="#000000" transform="matrix(1.00, 0.00, -0.00, -1.00, 172.1, 90.0)">e</text><text xml:space="preserve" font-family="Georgia" font-size="18.0" fill="#000000" transform="matrix(1.00, 0.00, -0.00, -1.00, 180.8, 90.0)">t</text><text xml:space="preserve" font-family="Georgia" font-size="18.0" fill="#000000" transform="matrix(1.00, 0.00, -0.00, -1.00, 187.0, 90.0)"> </text><text xml:space="preserve" font-family="Georgia" font-size="18.0" fill="#000000" transform="matrix(1.00, 0.00, -0.00, -1.00, 191.4, 90.0)">a</text><text xml:space="preserve" font-family="Georgia" font-size="18.0" fill="#000000" transform="matrix(1.00, 0.00, -0.00, -1.00, 200.4, 90.0)">l</text><text xml:space="preserve" font-family="Georgia" font-size="18.0" fill="#000000" transform="matrix(1.00, 0.00, -0.00, -1.00, 205.6, 90.0)"> </text><text xml:space="preserve" font-family="Georgia" font-size="18.0" fill="#000000" transform="matrix(1.00, 0.00, -0.00, -1.00, 209.9, 90.0)">2</text><text xml:space="preserve" font-family="Georgia" font-size="18.0" fill="#000000" transform="matrix(1.00, 0.00, -0.00, -1.00, 220.0, 90.0)">0</text><text xml:space="preserve" font-family="Georgia" font-size="18.0" fill="#000000" transform="matrix(1.00, 0.00, -0.00, -1.00, 231.0, 90.0)">0</text><text xml:space="preserve" font-family="Georgia" font-size="18.0" fill="#000000" transform="matrix(1.00, 0.00, -0.00, -1.00, 242.1, 90.0)">7</text><text xml:space="preserve" font-family="Georgia" font-size="18.0" fill="#000000" transform="matrix(1.00, 0.00, -0.00, -1.00, 251.1, 90.0)"> </text><text xml:space="preserve" font-family="Georgia" font-size="18.0" fill="#929292" transform="matrix(1.00, 0.00, -0.00, -1.00, 73.0, 69.0)">D</text><text xml:space="preserve" font-family="Georgia" font-size="18.0" fill="#929292" transform="matrix(1.00, 0.00, -0.00, -1.00, 86.5, 69.0)">a</text><text xml:space="preserve" font-family="Georgia" font-size="18.0" fill="#929292" transform="matrix(1.00, 0.00, -0.00, -1.00, 95.6, 69.0)">t</text><text xml:space="preserve" font-family="Georgia" font-size="18.0" fill="#929292" transform="matrix(1.00, 0.00, -0.00, -1.00, 101.8, 69.0)">a</text><text xml:space="preserve" font-family="Georgia" font-size="18.0" fill="#929292" transform="matrix(1.00, 0.00, -0.00, -1.00, 110.8, 69.0)">:</text><text xml:space="preserve" font-family="Georgia" font-size="18.0" fill="#929292" transform="matrix(1.00, 0.00, -0.00, -1.00, 116.5, 69.0)"> </text><text xml:space="preserve" font-family="Georgia" font-size="18.0" fill="#929292" transform="matrix(1.00, 0.00, -0.00, -1.00, 120.8, 69.0)">V</text><text xml:space="preserve" font-family="Georgia" font-size="18.0" fill="#929292" transform="matrix(1.00, 0.00, -0.00, -1.00, 132.8, 69.0)">.</text><text xml:space="preserve" font-family="Georgia" font-size="18.0" fill="#929292" transform="matrix(1.00, 0.00, -0.00, -1.00, 137.6, 69.0)"> </text><text xml:space="preserve" font-family="Georgia" font-size="18.0" fill="#929292" transform="matrix(1.00, 0.00, -0.00, -1.00, 142.0, 69.0)">V</text><text xml:space="preserve" font-family="Georgia" font-size="18.0" fill="#929292" transform="matrix(1.00, 0.00, -0.00, -1.00, 154.0, 69.0)">r</text><text xml:space="preserve" font-family="Georgia" font-size="18.0" fill="#929292" transform="matrix(1.00, 0.00, -0.00, -1.00, 161.3, 69.0)">e</text><text xml:space="preserve" font-family="Georgia" font-size="18.0" fill="#929292" transform="matrix(1.00, 0.00, -0.00, -1.00, 170.0, 69.0)">d</text><text xml:space="preserve" font-family="Georgia" font-size="18.0" fill="#929292" transform="matrix(1.00, 0.00, -0.00, -1.00, 180.4, 69.0)">e</text><text xml:space="preserve" font-family="Georgia" font-size="18.0" fill="#929292" transform="matrix(1.00, 0.00, -0.00, -1.00, 189.1, 69.0)">n</text><text xml:space="preserve" font-family="Georgia" font-size="18.0" fill="#929292" transform="matrix(1.00, 0.00, -0.00, -1.00, 199.7, 69.0)">b</text><text xml:space="preserve" font-family="Georgia" font-size="18.0" fill="#929292" transform="matrix(1.00, 0.00, -0.00, -1.00, 209.8, 69.0)">u</text><text xml:space="preserve" font-family="Georgia" font-size="18.0" fill="#929292" transform="matrix(1.00, 0.00, -0.00, -1.00, 220.2, 69.0)">r</text><text xml:space="preserve" font-family="Georgia" font-size="18.0" fill="#929292" transform="matrix(1.00, 0.00, -0.00, -1.00, 227.5, 69.0)">g</text><text xml:space="preserve" font-family="Georgia" font-size="18.0" fill="#929292" transform="matrix(1.00, 0.00, -0.00, -1.00, 236.7, 69.0)">,</text><text xml:space="preserve" font-family="Georgia" font-size="18.0" fill="#929292" transform="matrix(1.00, 0.00, -0.00, -1.00, 241.5, 69.0)"> </text><text xml:space="preserve" font-family="Georgia" font-size="18.0" fill="#929292" transform="matrix(1.00, 0.00, -0.00, -1.00, 245.9, 69.0)">K</text><text xml:space="preserve" font-family="Georgia" font-size="18.0" fill="#929292" transform="matrix(1.00, 0.00, -0.00, -1.00, 258.4, 69.0)">n</text><text xml:space="preserve" font-family="Georgia" font-size="18.0" fill="#929292" transform="matrix(1.00, 0.00, -0.00, -1.00, 269.0, 69.0)">a</text><text xml:space="preserve" font-family="Georgia" font-size="18.0" fill="#929292" transform="matrix(1.00, 0.00, -0.00, -1.00, 278.1, 69.0)">p</text><text xml:space="preserve" font-family="Georgia" font-size="18.0" fill="#929292" transform="matrix(1.00, 0.00, -0.00, -1.00, 288.4, 69.0)">p</text><text xml:space="preserve" font-family="Georgia" font-size="18.0" fill="#929292" transform="matrix(1.00, 0.00, -0.00, -1.00, 298.7, 69.0)">,</text><text xml:space="preserve" font-family="Georgia" font-size="18.0" fill="#929292" transform="matrix(1.00, 0.00, -0.00, -1.00, 303.5, 69.0)"> </text><text xml:space="preserve" font-family="Georgia" font-size="18.0" fill="#929292" transform="matrix(1.00, 0.00, -0.00, -1.00, 307.9, 69.0)">B</text><text xml:space="preserve" font-family="Georgia" font-size="18.0" fill="#929292" transform="matrix(1.00, 0.00, -0.00, -1.00, 319.6, 69.0)">r</text><text xml:space="preserve" font-family="Georgia" font-size="18.0" fill="#929292" transform="matrix(1.00, 0.00, -0.00, -1.00, 327.0, 69.0)">i</text><text xml:space="preserve" font-family="Georgia" font-size="18.0" fill="#929292" transform="matrix(1.00, 0.00, -0.00, -1.00, 332.3, 69.0)">g</text><text xml:space="preserve" font-family="Georgia" font-size="18.0" fill="#929292" transform="matrix(1.00, 0.00, -0.00, -1.00, 341.4, 69.0)">g</text><text xml:space="preserve" font-family="Georgia" font-size="18.0" fill="#929292" transform="matrix(1.00, 0.00, -0.00, -1.00, 350.6, 69.0)">s</text><text xml:space="preserve" font-family="Georgia" font-size="18.0" fill="#929292" transform="matrix(1.00, 0.00, -0.00, -1.00, 358.4, 69.0)"> </text><text xml:space="preserve" font-family="Georgia" font-size="18.0" fill="#929292" transform="matrix(1.00, 0.00, -0.00, -1.00, 362.7, 69.0)">e</text><text xml:space="preserve" font-family="Georgia" font-size="18.0" fill="#929292" transform="matrix(1.00, 0.00, -0.00, -1.00, 371.4, 69.0)">t</text><text xml:space="preserve" font-family="Georgia" font-size="18.0" fill="#929292" transform="matrix(1.00, 0.00, -0.00, -1.00, 377.7, 69.0)"> </text><text xml:space="preserve" font-family="Georgia" font-size="18.0" fill="#929292" transform="matrix(1.00, 0.00, -0.00, -1.00, 382.0, 69.0)">a</text><text xml:space="preserve" font-family="Georgia" font-size="18.0" fill="#929292" transform="matrix(1.00, 0.00, -0.00, -1.00, 391.1, 69.0)">l</text><text xml:space="preserve" font-family="Georgia" font-size="18.0" fill="#929292" transform="matrix(1.00, 0.00, -0.00, -1.00, 396.2, 69.0)">.</text><text xml:space="preserve" font-family="Georgia" font-size="18.0" fill="#929292" transform="matrix(1.00, 0.00, -0.00, -1.00, 401.1, 69.0)">,</text><text xml:space="preserve" font-family="Georgia" font-size="18.0" fill="#929292" transform="matrix(1.00, 0.00, -0.00, -1.00, 405.9, 69.0)"> </text><text xml:space="preserve" font-family="Georgia" font-size="18.0" fill="#929292" transform="matrix(1.00, 0.00, -0.00, -1.00, 410.3, 69.0)">M</text><text xml:space="preserve" font-family="Georgia" font-size="18.0" fill="#929292" transform="matrix(1.00, 0.00, -0.00, -1.00, 426.9, 69.0)">V</text><text xml:space="preserve" font-family="Georgia" font-size="18.0" fill="#929292" transform="matrix(1.00, 0.00, -0.00, -1.00, 438.9, 69.0)">Z</text><text xml:space="preserve" font-family="Georgia" font-size="18.0" fill="#929292" transform="matrix(1.00, 0.00, -0.00, -1.00, 449.8, 69.0)">,</text><text xml:space="preserve" font-family="Georgia" font-size="18.0" fill="#929292" transform="matrix(1.00, 0.00, -0.00, -1.00, 454.6, 69.0)"> </text><text xml:space="preserve" font-family="Georgia" font-size="18.0" fill="#929292" transform="matrix(1.00, 0.00, -0.00, -1.00, 458.9, 69.0)"> </text><text xml:space="preserve" font-family="Georgia" font-size="18.0" fill="#929292" transform="matrix(1.00, 0.00, -0.00, -1.00, 73.0, 48.0)">C</text><text xml:space="preserve" font-family="Georgia" font-size="18.0" fill="#929292" transform="matrix(1.00, 0.00, -0.00, -1.00, 84.6, 48.0)">A</text><text xml:space="preserve" font-family="Georgia" font-size="18.0" fill="#929292" transform="matrix(1.00, 0.00, -0.00, -1.00, 96.6, 48.0)">S</text><text xml:space="preserve" font-family="Georgia" font-size="18.0" fill="#929292" transform="matrix(1.00, 0.00, -0.00, -1.00, 106.7, 48.0)">,</text><text xml:space="preserve" font-family="Georgia" font-size="18.0" fill="#929292" transform="matrix(1.00, 0.00, -0.00, -1.00, 111.6, 48.0)"> </text><text xml:space="preserve" font-family="Georgia" font-size="18.0" fill="#929292" transform="matrix(1.00, 0.00, -0.00, -1.00, 115.9, 48.0)">C</text><text xml:space="preserve" font-family="Georgia" font-size="18.0" fill="#929292" transform="matrix(1.00, 0.00, -0.00, -1.00, 127.5, 48.0)">D</text><text xml:space="preserve" font-family="Georgia" font-size="18.0" fill="#929292" transform="matrix(1.00, 0.00, -0.00, -1.00, 141.0, 48.0)">F</text><text xml:space="preserve" font-family="Georgia" font-size="18.0" fill="#929292" transform="matrix(1.00, 0.00, -0.00, -1.00, 151.7, 48.0)">G</text><text xml:space="preserve" font-family="Georgia" font-size="18.0" fill="#929292" transform="matrix(1.00, 0.00, -0.00, -1.00, 164.8, 48.0)">,</text><text xml:space="preserve" font-family="Georgia" font-size="18.0" fill="#929292" transform="matrix(1.00, 0.00, -0.00, -1.00, 169.6, 48.0)"> </text><text xml:space="preserve" font-family="Georgia" font-size="18.0" fill="#929292" transform="matrix(1.00, 0.00, -0.00, -1.00, 174.0, 48.0)">U</text><text xml:space="preserve" font-family="Georgia" font-size="18.0" fill="#929292" transform="matrix(1.00, 0.00, -0.00, -1.00, 187.6, 48.0)">S</text><text xml:space="preserve" font-family="Georgia" font-size="18.0" fill="#929292" transform="matrix(1.00, 0.00, -0.00, -1.00, 197.7, 48.0)">F</text><text xml:space="preserve" font-family="Georgia" font-size="18.0" fill="#929292" transform="matrix(1.00, 0.00, -0.00, -1.00, 208.5, 48.0)">S</text><text xml:space="preserve" font-family="Georgia" font-size="18.0" fill="#929292" transform="matrix(1.00, 0.00, -0.00, -1.00, 218.6, 48.0)">,</text><text xml:space="preserve" font-family="Georgia" font-size="18.0" fill="#929292" transform="matrix(1.00, 0.00, -0.00, -1.00, 223.4, 48.0)"> </text><text xml:space="preserve" font-family="Georgia" font-size="18.0" fill="#929292" transform="matrix(1.00, 0.00, -0.00, -1.00, 227.8, 48.0)">U</text><text xml:space="preserve" font-family="Georgia" font-size="18.0" fill="#929292" transform="matrix(1.00, 0.00, -0.00, -1.00, 241.4, 48.0)">S</text><text xml:space="preserve" font-family="Georgia" font-size="18.0" fill="#929292" transform="matrix(1.00, 0.00, -0.00, -1.00, 251.5, 48.0)">G</text><text xml:space="preserve" font-family="Georgia" font-size="18.0" fill="#929292" transform="matrix(1.00, 0.00, -0.00, -1.00, 264.6, 48.0)">S</text><text xml:space="preserve" font-family="Georgia" font-size="18.0" fill="#929292" transform="matrix(1.00, 0.00, -0.00, -1.00, 274.7, 48.0)"> </text><text xml:space="preserve" font-family="Georgia" font-size="18.0" fill="#929292" transform="matrix(1.00, 0.00, -0.00, -1.00, 279.0, 48.0)">s</text><text xml:space="preserve" font-family="Georgia" font-size="18.0" fill="#929292" transform="matrix(1.00, 0.00, -0.00, -1.00, 286.8, 48.0)">u</text><text xml:space="preserve" font-family="Georgia" font-size="18.0" fill="#929292" transform="matrix(1.00, 0.00, -0.00, -1.00, 297.1, 48.0)">r</text><text xml:space="preserve" font-family="Georgia" font-size="18.0" fill="#929292" transform="matrix(1.00, 0.00, -0.00, -1.00, 304.5, 48.0)">v</text><text xml:space="preserve" font-family="Georgia" font-size="18.0" fill="#929292" transform="matrix(1.00, 0.00, -0.00, -1.00, 313.4, 48.0)">e</text><text xml:space="preserve" font-family="Georgia" font-size="18.0" fill="#929292" transform="matrix(1.00, 0.00, -0.00, -1.00, 322.1, 48.0)">y</text><text xml:space="preserve" font-family="Georgia" font-size="18.0" fill="#929292" transform="matrix(1.00, 0.00, -0.00, -1.00, 331.0, 48.0)">s</text><text xml:space="preserve" font-family="Georgia" font-size="18.0" fill="#929292" transform="matrix(1.00, 0.00, -0.00, -1.00, 338.8, 48.0)">,</text><text xml:space="preserve" font-family="Georgia" font-size="18.0" fill="#929292" transform="matrix(1.00, 0.00, -0.00, -1.00, 343.6, 48.0)"> </text><text xml:space="preserve" font-family="Georgia" font-size="18.0" fill="#929292" transform="matrix(1.00, 0.00, -0.00, -1.00, 348.0, 48.0)">C</text><text xml:space="preserve" font-family="Georgia" font-size="18.0" fill="#929292" transform="matrix(1.00, 0.00, -0.00, -1.00, 359.5, 48.0)">.</text><text xml:space="preserve" font-family="Georgia" font-size="18.0" fill="#929292" transform="matrix(1.00, 0.00, -0.00, -1.00, 364.4, 48.0)"> </text><text xml:space="preserve" font-family="Georgia" font-size="18.0" fill="#929292" transform="matrix(1.00, 0.00, -0.00, -1.00, 368.7, 48.0)">D</text><text xml:space="preserve" font-family="Georgia" font-size="18.0" fill="#929292" transform="matrix(1.00, 0.00, -0.00, -1.00, 382.2, 48.0)">a</text><text xml:space="preserve" font-family="Georgia" font-size="18.0" fill="#929292" transform="matrix(1.00, 0.00, -0.00, -1.00, 391.3, 48.0)">v</text><text xml:space="preserve" font-family="Georgia" font-size="18.0" fill="#929292" transform="matrix(1.00, 0.00, -0.00, -1.00, 400.2, 48.0)">i</text><text xml:space="preserve" font-family="Georgia" font-size="18.0" fill="#929292" transform="matrix(1.00, 0.00, -0.00, -1.00, 405.5, 48.0)">d</text><text xml:space="preserve" font-family="Georgia" font-size="18.0" fill="#929292" transform="matrix(1.00, 0.00, -0.00, -1.00, 415.8, 48.0)">s</text><text xml:space="preserve" font-family="Georgia" font-size="18.0" fill="#929292" transform="matrix(1.00, 0.00, -0.00, -1.00, 423.6, 48.0)">o</text><text xml:space="preserve" font-family="Georgia" font-size="18.0" fill="#929292" transform="matrix(1.00, 0.00, -0.00, -1.00, 433.3, 48.0)">n</text></g></svg>