<?xml version="1.0" encoding="UTF-8" standalone="no"?><svg xmlns="http://www.w3.org/2000/svg" xmlns:xlink="http://www.w3.org/1999/xlink" clip-rule="evenodd" stroke-miterlimit="4.00" viewBox="0 0 720 540"><desc>SVG generated by Keynote</desc><defs></defs><g transform="matrix(1.00, 0.00, -0.00, -1.00, 0.0, 540.0)"><path d="M 0.0 540.0 L 720.0 540.0 L 720.0 0.0 L 0.0 0.0 Z M 0.0 540.0 " fill="#FEFFFF"></path><text xml:space="preserve" font-family="ArialMT" font-size="44.0" fill="#000000" transform="matrix(1.00, 0.00, -0.00, -1.00, 195.0, 432.0)">F</text><text xml:space="preserve" font-family="ArialMT" font-size="44.0" fill="#000000" transform="matrix(1.00, 0.00, -0.00, -1.00, 221.9, 432.0)">u</text><text xml:space="preserve" font-family="ArialMT" font-size="44.0" fill="#000000" transform="matrix(1.00, 0.00, -0.00, -1.00, 246.3, 432.0)">n</text><text xml:space="preserve" font-family="ArialMT" font-size="44.0" fill="#000000" transform="matrix(1.00, 0.00, -0.00, -1.00, 270.8, 432.0)">g</text><text xml:space="preserve" font-family="ArialMT" font-size="44.0" fill="#000000" transform="matrix(1.00, 0.00, -0.00, -1.00, 295.3, 432.0)">a</text><text xml:space="preserve" font-family="ArialMT" font-size="44.0" fill="#000000" transform="matrix(1.00, 0.00, -0.00, -1.00, 319.8, 432.0)">l</text><text xml:space="preserve" font-family="ArialMT" font-size="44.0" fill="#000000" transform="matrix(1.00, 0.00, -0.00, -1.00, 329.6, 432.0)"> </text><text xml:space="preserve" font-family="ArialMT" font-size="44.0" fill="#000000" transform="matrix(1.00, 0.00, -0.00, -1.00, 341.8, 432.0)">P</text><text xml:space="preserve" font-family="ArialMT" font-size="44.0" fill="#000000" transform="matrix(1.00, 0.00, -0.00, -1.00, 371.1, 432.0)">a</text><text xml:space="preserve" font-family="ArialMT" font-size="44.0" fill="#000000" transform="matrix(1.00, 0.00, -0.00, -1.00, 395.6, 432.0)">r</text><text xml:space="preserve" font-family="ArialMT" font-size="44.0" fill="#000000" transform="matrix(1.00, 0.00, -0.00, -1.00, 410.3, 432.0)">a</text><text xml:space="preserve" font-family="ArialMT" font-size="44.0" fill="#000000" transform="matrix(1.00, 0.00, -0.00, -1.00, 434.7, 432.0)">s</text><text xml:space="preserve" font-family="ArialMT" font-size="44.0" fill="#000000" transform="matrix(1.00, 0.00, -0.00, -1.00, 456.7, 432.0)">i</text><text xml:space="preserve" font-family="ArialMT" font-size="44.0" fill="#000000" transform="matrix(1.00, 0.00, -0.00, -1.00, 466.5, 432.0)">t</text><text xml:space="preserve" font-family="ArialMT" font-size="44.0" fill="#000000" transform="matrix(1.00, 0.00, -0.00, -1.00, 478.7, 432.0)">e</text><text xml:space="preserve" font-family="ArialMT" font-size="44.0" fill="#000000" transform="matrix(1.00, 0.00, -0.00, -1.00, 503.2, 432.0)">s</text><text xml:space="preserve" font-family="ArialMT" font-size="28.0" fill="#000000" transform="matrix(1.00, 0.00, -0.00, -1.00, 49.2, 348.8)">•</text><text xml:space="preserve" font-family="ArialMT" font-size="28.0" fill="#000000" transform="matrix(1.00, 0.00, -0.00, -1.00, 76.0, 349.0)">C</text><text xml:space="preserve" font-family="ArialMT" font-size="28.0" fill="#000000" transform="matrix(1.00, 0.00, -0.00, -1.00, 96.2, 349.0)">h</text><text xml:space="preserve" font-family="ArialMT" font-size="28.0" fill="#000000" transform="matrix(1.00, 0.00, -0.00, -1.00, 111.8, 349.0)">y</text><text xml:space="preserve" font-family="ArialMT" font-size="28.0" fill="#000000" transform="matrix(1.00, 0.00, -0.00, -1.00, 125.8, 349.0)">t</text><text xml:space="preserve" font-family="ArialMT" font-size="28.0" fill="#000000" transform="matrix(1.00, 0.00, -0.00, -1.00, 133.6, 349.0)">r</text><text xml:space="preserve" font-family="ArialMT" font-size="28.0" fill="#000000" transform="matrix(1.00, 0.00, -0.00, -1.00, 142.9, 349.0)">i</text><text xml:space="preserve" font-family="ArialMT" font-size="28.0" fill="#000000" transform="matrix(1.00, 0.00, -0.00, -1.00, 149.1, 349.0)">d</text><text xml:space="preserve" font-family="ArialMT" font-size="28.0" fill="#000000" transform="matrix(1.00, 0.00, -0.00, -1.00, 164.7, 349.0)"> </text><text xml:space="preserve" font-family="ArialMT" font-size="28.0" fill="#000000" transform="matrix(1.00, 0.00, -0.00, -1.00, 172.5, 349.0)">f</text><text xml:space="preserve" font-family="ArialMT" font-size="28.0" fill="#000000" transform="matrix(1.00, 0.00, -0.00, -1.00, 180.3, 349.0)">u</text><text xml:space="preserve" font-family="ArialMT" font-size="28.0" fill="#000000" transform="matrix(1.00, 0.00, -0.00, -1.00, 195.8, 349.0)">n</text><text xml:space="preserve" font-family="ArialMT" font-size="28.0" fill="#000000" transform="matrix(1.00, 0.00, -0.00, -1.00, 211.4, 349.0)">g</text><text xml:space="preserve" font-family="ArialMT" font-size="28.0" fill="#000000" transform="matrix(1.00, 0.00, -0.00, -1.00, 227.0, 349.0)">u</text><text xml:space="preserve" font-family="ArialMT" font-size="28.0" fill="#000000" transform="matrix(1.00, 0.00, -0.00, -1.00, 242.6, 349.0)">s</text><text xml:space="preserve" font-family="ArialMT" font-size="28.0" fill="#000000" transform="matrix(1.00, 0.00, -0.00, -1.00, 256.6, 349.0)"> </text><text xml:space="preserve" font-family="ArialMT" font-size="28.0" fill="#000000" transform="matrix(1.00, 0.00, -0.00, -1.00, 76.0, 317.0)">(</text><text xml:space="preserve" font-family="Arial-ItalicMT" font-style="italic" font-size="28.0" fill="#000000" transform="matrix(1.00, 0.00, -0.00, -1.00, 85.3, 317.0)">B</text><text xml:space="preserve" font-family="Arial-ItalicMT" font-style="italic" font-size="28.0" fill="#000000" transform="matrix(1.00, 0.00, -0.00, -1.00, 104.0, 317.0)">a</text><text xml:space="preserve" font-family="Arial-ItalicMT" font-style="italic" font-size="28.0" fill="#000000" transform="matrix(1.00, 0.00, -0.00, -1.00, 119.6, 317.0)">t</text><text xml:space="preserve" font-family="Arial-ItalicMT" font-style="italic" font-size="28.0" fill="#000000" transform="matrix(1.00, 0.00, -0.00, -1.00, 127.4, 317.0)">r</text><text xml:space="preserve" font-family="Arial-ItalicMT" font-style="italic" font-size="28.0" fill="#000000" transform="matrix(1.00, 0.00, -0.00, -1.00, 136.7, 317.0)">a</text><text xml:space="preserve" font-family="Arial-ItalicMT" font-style="italic" font-size="28.0" fill="#000000" transform="matrix(1.00, 0.00, -0.00, -1.00, 152.3, 317.0)">c</text><text xml:space="preserve" font-family="Arial-ItalicMT" font-style="italic" font-size="28.0" fill="#000000" transform="matrix(1.00, 0.00, -0.00, -1.00, 166.3, 317.0)">h</text><text xml:space="preserve" font-family="Arial-ItalicMT" font-style="italic" font-size="28.0" fill="#000000" transform="matrix(1.00, 0.00, -0.00, -1.00, 181.8, 317.0)">o</text><text xml:space="preserve" font-family="Arial-ItalicMT" font-style="italic" font-size="28.0" fill="#000000" transform="matrix(1.00, 0.00, -0.00, -1.00, 197.4, 317.0)">c</text><text xml:space="preserve" font-family="Arial-ItalicMT" font-style="italic" font-size="28.0" fill="#000000" transform="matrix(1.00, 0.00, -0.00, -1.00, 211.4, 317.0)">h</text><text xml:space="preserve" font-family="Arial-ItalicMT" font-style="italic" font-size="28.0" fill="#000000" transform="matrix(1.00, 0.00, -0.00, -1.00, 227.0, 317.0)">y</text><text xml:space="preserve" font-family="Arial-ItalicMT" font-style="italic" font-size="28.0" fill="#000000" transform="matrix(1.00, 0.00, -0.00, -1.00, 241.0, 317.0)">t</text><text xml:space="preserve" font-family="Arial-ItalicMT" font-style="italic" font-size="28.0" fill="#000000" transform="matrix(1.00, 0.00, -0.00, -1.00, 248.8, 317.0)">r</text><text xml:space="preserve" font-family="Arial-ItalicMT" font-style="italic" font-size="28.0" fill="#000000" transform="matrix(1.00, 0.00, -0.00, -1.00, 258.1, 317.0)">i</text><text xml:space="preserve" font-family="Arial-ItalicMT" font-style="italic" font-size="28.0" fill="#000000" transform="matrix(1.00, 0.00, -0.00, -1.00, 264.3, 317.0)">u</text><text xml:space="preserve" font-family="Arial-ItalicMT" font-style="italic" font-size="28.0" fill="#000000" transform="matrix(1.00, 0.00, -0.00, -1.00, 279.9, 317.0)">m</text><text xml:space="preserve" font-family="Arial-ItalicMT" font-style="italic" font-size="28.0" fill="#000000" transform="matrix(1.00, 0.00, -0.00, -1.00, 303.2, 317.0)"> </text><text xml:space="preserve" font-family="Arial-ItalicMT" font-style="italic" font-size="28.0" fill="#000000" transform="matrix(1.00, 0.00, -0.00, -1.00, 76.0, 285.0)">d</text><text xml:space="preserve" font-family="Arial-ItalicMT" font-style="italic" font-size="28.0" fill="#000000" transform="matrix(1.00, 0.00, -0.00, -1.00, 91.6, 285.0)">e</text><text xml:space="preserve" font-family="Arial-ItalicMT" font-style="italic" font-size="28.0" fill="#000000" transform="matrix(1.00, 0.00, -0.00, -1.00, 107.2, 285.0)">n</text><text xml:space="preserve" font-family="Arial-ItalicMT" font-style="italic" font-size="28.0" fill="#000000" transform="matrix(1.00, 0.00, -0.00, -1.00, 122.7, 285.0)">d</text><text xml:space="preserve" font-family="Arial-ItalicMT" font-style="italic" font-size="28.0" fill="#000000" transform="matrix(1.00, 0.00, -0.00, -1.00, 138.3, 285.0)">r</text><text xml:space="preserve" font-family="Arial-ItalicMT" font-style="italic" font-size="28.0" fill="#000000" transform="matrix(1.00, 0.00, -0.00, -1.00, 147.6, 285.0)">o</text><text xml:space="preserve" font-family="Arial-ItalicMT" font-style="italic" font-size="28.0" fill="#000000" transform="matrix(1.00, 0.00, -0.00, -1.00, 163.2, 285.0)">b</text><text xml:space="preserve" font-family="Arial-ItalicMT" font-style="italic" font-size="28.0" fill="#000000" transform="matrix(1.00, 0.00, -0.00, -1.00, 178.8, 285.0)">a</text><text xml:space="preserve" font-family="Arial-ItalicMT" font-style="italic" font-size="28.0" fill="#000000" transform="matrix(1.00, 0.00, -0.00, -1.00, 194.4, 285.0)">t</text><text xml:space="preserve" font-family="Arial-ItalicMT" font-style="italic" font-size="28.0" fill="#000000" transform="matrix(1.00, 0.00, -0.00, -1.00, 202.1, 285.0)">i</text><text xml:space="preserve" font-family="Arial-ItalicMT" font-style="italic" font-size="28.0" fill="#000000" transform="matrix(1.00, 0.00, -0.00, -1.00, 208.4, 285.0)">d</text><text xml:space="preserve" font-family="Arial-ItalicMT" font-style="italic" font-size="28.0" fill="#000000" transform="matrix(1.00, 0.00, -0.00, -1.00, 223.9, 285.0)">i</text><text xml:space="preserve" font-family="Arial-ItalicMT" font-style="italic" font-size="28.0" fill="#000000" transform="matrix(1.00, 0.00, -0.00, -1.00, 230.2, 285.0)">s</text><text xml:space="preserve" font-family="ArialMT" font-size="28.0" fill="#000000" transform="matrix(1.00, 0.00, -0.00, -1.00, 244.1, 285.0)">)</text><text xml:space="preserve" font-family="ArialMT" font-size="28.0" fill="#000000" transform="matrix(1.00, 0.00, -0.00, -1.00, 253.4, 285.0)"> </text><text xml:space="preserve" font-family="ArialMT" font-size="28.0" fill="#000000" transform="matrix(1.00, 0.00, -0.00, -1.00, 261.2, 285.0)">c</text><text xml:space="preserve" font-family="ArialMT" font-size="28.0" fill="#000000" transform="matrix(1.00, 0.00, -0.00, -1.00, 275.2, 285.0)">a</text><text xml:space="preserve" font-family="ArialMT" font-size="28.0" fill="#000000" transform="matrix(1.00, 0.00, -0.00, -1.00, 290.8, 285.0)">u</text><text xml:space="preserve" font-family="ArialMT" font-size="28.0" fill="#000000" transform="matrix(1.00, 0.00, -0.00, -1.00, 306.4, 285.0)">s</text><text xml:space="preserve" font-family="ArialMT" font-size="28.0" fill="#000000" transform="matrix(1.00, 0.00, -0.00, -1.00, 320.4, 285.0)">e</text><text xml:space="preserve" font-family="ArialMT" font-size="28.0" fill="#000000" transform="matrix(1.00, 0.00, -0.00, -1.00, 336.0, 285.0)">s</text><text xml:space="preserve" font-family="ArialMT" font-size="28.0" fill="#000000" transform="matrix(1.00, 0.00, -0.00, -1.00, 350.0, 285.0)"> </text><text xml:space="preserve" font-family="ArialMT" font-size="28.0" fill="#000000" transform="matrix(1.00, 0.00, -0.00, -1.00, 76.0, 253.0)">c</text><text xml:space="preserve" font-family="ArialMT" font-size="28.0" fill="#000000" transform="matrix(1.00, 0.00, -0.00, -1.00, 90.0, 253.0)">h</text><text xml:space="preserve" font-family="ArialMT" font-size="28.0" fill="#000000" transform="matrix(1.00, 0.00, -0.00, -1.00, 105.6, 253.0)">y</text><text xml:space="preserve" font-family="ArialMT" font-size="28.0" fill="#000000" transform="matrix(1.00, 0.00, -0.00, -1.00, 119.6, 253.0)">t</text><text xml:space="preserve" font-family="ArialMT" font-size="28.0" fill="#000000" transform="matrix(1.00, 0.00, -0.00, -1.00, 127.4, 253.0)">r</text><text xml:space="preserve" font-family="ArialMT" font-size="28.0" fill="#000000" transform="matrix(1.00, 0.00, -0.00, -1.00, 136.7, 253.0)">i</text><text xml:space="preserve" font-family="ArialMT" font-size="28.0" fill="#000000" transform="matrix(1.00, 0.00, -0.00, -1.00, 142.9, 253.0)">d</text><text xml:space="preserve" font-family="ArialMT" font-size="28.0" fill="#000000" transform="matrix(1.00, 0.00, -0.00, -1.00, 158.5, 253.0)">i</text><text xml:space="preserve" font-family="ArialMT" font-size="28.0" fill="#000000" transform="matrix(1.00, 0.00, -0.00, -1.00, 164.7, 253.0)">o</text><text xml:space="preserve" font-family="ArialMT" font-size="28.0" fill="#000000" transform="matrix(1.00, 0.00, -0.00, -1.00, 180.3, 253.0)">m</text><text xml:space="preserve" font-family="ArialMT" font-size="28.0" fill="#000000" transform="matrix(1.00, 0.00, -0.00, -1.00, 203.6, 253.0)">y</text><text xml:space="preserve" font-family="ArialMT" font-size="28.0" fill="#000000" transform="matrix(1.00, 0.00, -0.00, -1.00, 217.6, 253.0)">c</text><text xml:space="preserve" font-family="ArialMT" font-size="28.0" fill="#000000" transform="matrix(1.00, 0.00, -0.00, -1.00, 231.6, 253.0)">o</text><text xml:space="preserve" font-family="ArialMT" font-size="28.0" fill="#000000" transform="matrix(1.00, 0.00, -0.00, -1.00, 247.2, 253.0)">s</text><text xml:space="preserve" font-family="ArialMT" font-size="28.0" fill="#000000" transform="matrix(1.00, 0.00, -0.00, -1.00, 261.2, 253.0)">i</text><text xml:space="preserve" font-family="ArialMT" font-size="28.0" fill="#000000" transform="matrix(1.00, 0.00, -0.00, -1.00, 267.4, 253.0)">s</text><text xml:space="preserve" font-family="ArialMT" font-size="28.0" fill="#000000" transform="matrix(1.00, 0.00, -0.00, -1.00, 281.4, 253.0)"> </text><text xml:space="preserve" font-family="ArialMT" font-size="28.0" fill="#000000" transform="matrix(1.00, 0.00, -0.00, -1.00, 49.2, 213.4)">•</text><text xml:space="preserve" font-family="ArialMT" font-size="28.0" fill="#000000" transform="matrix(1.00, 0.00, -0.00, -1.00, 76.0, 213.0)">I</text><text xml:space="preserve" font-family="ArialMT" font-size="28.0" fill="#000000" transform="matrix(1.00, 0.00, -0.00, -1.00, 83.8, 213.0)">n</text><text xml:space="preserve" font-family="ArialMT" font-size="28.0" fill="#000000" transform="matrix(1.00, 0.00, -0.00, -1.00, 99.4, 213.0)">f</text><text xml:space="preserve" font-family="ArialMT" font-size="28.0" fill="#000000" transform="matrix(1.00, 0.00, -0.00, -1.00, 107.1, 213.0)">e</text><text xml:space="preserve" font-family="ArialMT" font-size="28.0" fill="#000000" transform="matrix(1.00, 0.00, -0.00, -1.00, 122.7, 213.0)">c</text><text xml:space="preserve" font-family="ArialMT" font-size="28.0" fill="#000000" transform="matrix(1.00, 0.00, -0.00, -1.00, 136.7, 213.0)">t</text><text xml:space="preserve" font-family="ArialMT" font-size="28.0" fill="#000000" transform="matrix(1.00, 0.00, -0.00, -1.00, 144.5, 213.0)">s</text><text xml:space="preserve" font-family="ArialMT" font-size="28.0" fill="#000000" transform="matrix(1.00, 0.00, -0.00, -1.00, 158.5, 213.0)"> </text><text xml:space="preserve" font-family="ArialMT" font-size="28.0" fill="#000000" transform="matrix(1.00, 0.00, -0.00, -1.00, 166.3, 213.0)">t</text><text xml:space="preserve" font-family="ArialMT" font-size="28.0" fill="#000000" transform="matrix(1.00, 0.00, -0.00, -1.00, 174.0, 213.0)">h</text><text xml:space="preserve" font-family="ArialMT" font-size="28.0" fill="#000000" transform="matrix(1.00, 0.00, -0.00, -1.00, 189.6, 213.0)">e</text><text xml:space="preserve" font-family="ArialMT" font-size="28.0" fill="#000000" transform="matrix(1.00, 0.00, -0.00, -1.00, 205.2, 213.0)"> </text><text xml:space="preserve" font-family="ArialMT" font-size="28.0" fill="#000000" transform="matrix(1.00, 0.00, -0.00, -1.00, 213.0, 213.0)">s</text><text xml:space="preserve" font-family="ArialMT" font-size="28.0" fill="#000000" transform="matrix(1.00, 0.00, -0.00, -1.00, 227.0, 213.0)">k</text><text xml:space="preserve" font-family="ArialMT" font-size="28.0" fill="#000000" transform="matrix(1.00, 0.00, -0.00, -1.00, 241.0, 213.0)">i</text><text xml:space="preserve" font-family="ArialMT" font-size="28.0" fill="#000000" transform="matrix(1.00, 0.00, -0.00, -1.00, 247.2, 213.0)">n</text><text xml:space="preserve" font-family="ArialMT" font-size="28.0" fill="#000000" transform="matrix(1.00, 0.00, -0.00, -1.00, 262.8, 213.0)"> </text><text xml:space="preserve" font-family="ArialMT" font-size="28.0" fill="#000000" transform="matrix(1.00, 0.00, -0.00, -1.00, 270.5, 213.0)">o</text><text xml:space="preserve" font-family="ArialMT" font-size="28.0" fill="#000000" transform="matrix(1.00, 0.00, -0.00, -1.00, 286.1, 213.0)">f</text><text xml:space="preserve" font-family="ArialMT" font-size="28.0" fill="#000000" transform="matrix(1.00, 0.00, -0.00, -1.00, 293.9, 213.0)"> </text><text xml:space="preserve" font-family="ArialMT" font-size="28.0" fill="#000000" transform="matrix(1.00, 0.00, -0.00, -1.00, 301.7, 213.0)">f</text><text xml:space="preserve" font-family="ArialMT" font-size="28.0" fill="#000000" transform="matrix(1.00, 0.00, -0.00, -1.00, 309.4, 213.0)">r</text><text xml:space="preserve" font-family="ArialMT" font-size="28.0" fill="#000000" transform="matrix(1.00, 0.00, -0.00, -1.00, 318.8, 213.0)">o</text><text xml:space="preserve" font-family="ArialMT" font-size="28.0" fill="#000000" transform="matrix(1.00, 0.00, -0.00, -1.00, 334.3, 213.0)">g</text><text xml:space="preserve" font-family="ArialMT" font-size="28.0" fill="#000000" transform="matrix(1.00, 0.00, -0.00, -1.00, 349.9, 213.0)">s</text><text xml:space="preserve" font-family="ArialMT" font-size="28.0" fill="#000000" transform="matrix(1.00, 0.00, -0.00, -1.00, 363.9, 213.0)"> </text><text xml:space="preserve" font-family="ArialMT" font-size="28.0" fill="#000000" transform="matrix(1.00, 0.00, -0.00, -1.00, 49.2, 174.0)">•</text><text xml:space="preserve" font-family="ArialMT" font-size="28.0" fill="#000000" transform="matrix(1.00, 0.00, -0.00, -1.00, 76.0, 174.0)">C</text><text xml:space="preserve" font-family="ArialMT" font-size="28.0" fill="#000000" transform="matrix(1.00, 0.00, -0.00, -1.00, 96.2, 174.0)">o</text><text xml:space="preserve" font-family="ArialMT" font-size="28.0" fill="#000000" transform="matrix(1.00, 0.00, -0.00, -1.00, 111.8, 174.0)">n</text><text xml:space="preserve" font-family="ArialMT" font-size="28.0" fill="#000000" transform="matrix(1.00, 0.00, -0.00, -1.00, 127.4, 174.0)">t</text><text xml:space="preserve" font-family="ArialMT" font-size="28.0" fill="#000000" transform="matrix(1.00, 0.00, -0.00, -1.00, 135.2, 174.0)">r</text><text xml:space="preserve" font-family="ArialMT" font-size="28.0" fill="#000000" transform="matrix(1.00, 0.00, -0.00, -1.00, 144.5, 174.0)">i</text><text xml:space="preserve" font-family="ArialMT" font-size="28.0" fill="#000000" transform="matrix(1.00, 0.00, -0.00, -1.00, 150.7, 174.0)">b</text><text xml:space="preserve" font-family="ArialMT" font-size="28.0" fill="#000000" transform="matrix(1.00, 0.00, -0.00, -1.00, 166.3, 174.0)">u</text><text xml:space="preserve" font-family="ArialMT" font-size="28.0" fill="#000000" transform="matrix(1.00, 0.00, -0.00, -1.00, 181.9, 174.0)">t</text><text xml:space="preserve" font-family="ArialMT" font-size="28.0" fill="#000000" transform="matrix(1.00, 0.00, -0.00, -1.00, 189.6, 174.0)">i</text><text xml:space="preserve" font-family="ArialMT" font-size="28.0" fill="#000000" transform="matrix(1.00, 0.00, -0.00, -1.00, 195.9, 174.0)">n</text><text xml:space="preserve" font-family="ArialMT" font-size="28.0" fill="#000000" transform="matrix(1.00, 0.00, -0.00, -1.00, 211.4, 174.0)">g</text><text xml:space="preserve" font-family="ArialMT" font-size="28.0" fill="#000000" transform="matrix(1.00, 0.00, -0.00, -1.00, 227.0, 174.0)"> </text><text xml:space="preserve" font-family="ArialMT" font-size="28.0" fill="#000000" transform="matrix(1.00, 0.00, -0.00, -1.00, 234.8, 174.0)">t</text><text xml:space="preserve" font-family="ArialMT" font-size="28.0" fill="#000000" transform="matrix(1.00, 0.00, -0.00, -1.00, 242.6, 174.0)">o</text><text xml:space="preserve" font-family="ArialMT" font-size="28.0" fill="#000000" transform="matrix(1.00, 0.00, -0.00, -1.00, 258.1, 174.0)"> </text><text xml:space="preserve" font-family="ArialMT" font-size="28.0" fill="#000000" transform="matrix(1.00, 0.00, -0.00, -1.00, 76.0, 142.0)">w</text><text xml:space="preserve" font-family="ArialMT" font-size="28.0" fill="#000000" transform="matrix(1.00, 0.00, -0.00, -1.00, 96.2, 142.0)">o</text><text xml:space="preserve" font-family="ArialMT" font-size="28.0" fill="#000000" transform="matrix(1.00, 0.00, -0.00, -1.00, 111.8, 142.0)">r</text><text xml:space="preserve" font-family="ArialMT" font-size="28.0" fill="#000000" transform="matrix(1.00, 0.00, -0.00, -1.00, 121.1, 142.0)">l</text><text xml:space="preserve" font-family="ArialMT" font-size="28.0" fill="#000000" transform="matrix(1.00, 0.00, -0.00, -1.00, 127.4, 142.0)">d</text><text xml:space="preserve" font-family="ArialMT" font-size="28.0" fill="#000000" transform="matrix(1.00, 0.00, -0.00, -1.00, 142.9, 142.0)">w</text><text xml:space="preserve" font-family="ArialMT" font-size="28.0" fill="#000000" transform="matrix(1.00, 0.00, -0.00, -1.00, 163.2, 142.0)">i</text><text xml:space="preserve" font-family="ArialMT" font-size="28.0" fill="#000000" transform="matrix(1.00, 0.00, -0.00, -1.00, 169.4, 142.0)">d</text><text xml:space="preserve" font-family="ArialMT" font-size="28.0" fill="#000000" transform="matrix(1.00, 0.00, -0.00, -1.00, 185.0, 142.0)">e</text><text xml:space="preserve" font-family="ArialMT" font-size="28.0" fill="#000000" transform="matrix(1.00, 0.00, -0.00, -1.00, 200.5, 142.0)"> </text><text xml:space="preserve" font-family="ArialMT" font-size="28.0" fill="#000000" transform="matrix(1.00, 0.00, -0.00, -1.00, 208.3, 142.0)">a</text><text xml:space="preserve" font-family="ArialMT" font-size="28.0" fill="#000000" transform="matrix(1.00, 0.00, -0.00, -1.00, 223.9, 142.0)">m</text><text xml:space="preserve" font-family="ArialMT" font-size="28.0" fill="#000000" transform="matrix(1.00, 0.00, -0.00, -1.00, 247.2, 142.0)">p</text><text xml:space="preserve" font-family="ArialMT" font-size="28.0" fill="#000000" transform="matrix(1.00, 0.00, -0.00, -1.00, 262.8, 142.0)">h</text><text xml:space="preserve" font-family="ArialMT" font-size="28.0" fill="#000000" transform="matrix(1.00, 0.00, -0.00, -1.00, 278.4, 142.0)">i</text><text xml:space="preserve" font-family="ArialMT" font-size="28.0" fill="#000000" transform="matrix(1.00, 0.00, -0.00, -1.00, 284.6, 142.0)">b</text><text xml:space="preserve" font-family="ArialMT" font-size="28.0" fill="#000000" transform="matrix(1.00, 0.00, -0.00, -1.00, 300.2, 142.0)">i</text><text xml:space="preserve" font-family="ArialMT" font-size="28.0" fill="#000000" transform="matrix(1.00, 0.00, -0.00, -1.00, 306.4, 142.0)">a</text><text xml:space="preserve" font-family="ArialMT" font-size="28.0" fill="#000000" transform="matrix(1.00, 0.00, -0.00, -1.00, 322.0, 142.0)">n</text><text xml:space="preserve" font-family="ArialMT" font-size="28.0" fill="#000000" transform="matrix(1.00, 0.00, -0.00, -1.00, 337.6, 142.0)"> </text><text xml:space="preserve" font-family="ArialMT" font-size="28.0" fill="#000000" transform="matrix(1.00, 0.00, -0.00, -1.00, 76.0, 110.0)">d</text><text xml:space="preserve" font-family="ArialMT" font-size="28.0" fill="#000000" transform="matrix(1.00, 0.00, -0.00, -1.00, 91.6, 110.0)">e</text><text xml:space="preserve" font-family="ArialMT" font-size="28.0" fill="#000000" transform="matrix(1.00, 0.00, -0.00, -1.00, 107.2, 110.0)">c</text><text xml:space="preserve" font-family="ArialMT" font-size="28.0" fill="#000000" transform="matrix(1.00, 0.00, -0.00, -1.00, 121.2, 110.0)">l</text><text xml:space="preserve" font-family="ArialMT" font-size="28.0" fill="#000000" transform="matrix(1.00, 0.00, -0.00, -1.00, 127.4, 110.0)">i</text><text xml:space="preserve" font-family="ArialMT" font-size="28.0" fill="#000000" transform="matrix(1.00, 0.00, -0.00, -1.00, 133.6, 110.0)">n</text><text xml:space="preserve" font-family="ArialMT" font-size="28.0" fill="#000000" transform="matrix(1.00, 0.00, -0.00, -1.00, 149.2, 110.0)">e</text><g><clipPath id="clip-513"><path d="M 414.0 119.0 L 690.0 119.0 L 690.0 372.0 L 414.0 372.0 Z M 414.0 119.0 "></path></clipPath><g clip-path="url(#clip-513)"><path d="M 414.0 372.0 L 690.0 372.0 L 690.0 119.0 L 414.0 119.0 Z M 414.0 372.0 " fill="#FFFFFF"></path><image xlink:href="1F5A4DE07B4AD4E4A871EC7ED50717DA.png" width="570.00" height="522.00" transform="matrix(0.48, 0.00, -0.00, -0.48, 414.0, 372.0)"></image></g></g><text xml:space="preserve" font-family="ArialMT" font-size="20.0" fill="#000000" transform="matrix(1.00, 0.00, -0.00, -1.00, 554.0, 9.0)">B</text><text xml:space="preserve" font-family="ArialMT" font-size="20.0" fill="#000000" transform="matrix(1.00, 0.00, -0.00, -1.00, 567.3, 9.0)">e</text><text xml:space="preserve" font-family="ArialMT" font-size="20.0" fill="#000000" transform="matrix(1.00, 0.00, -0.00, -1.00, 578.5, 9.0)">r</text><text xml:space="preserve" font-family="ArialMT" font-size="20.0" fill="#000000" transform="matrix(1.00, 0.00, -0.00, -1.00, 585.1, 9.0)">g</text><text xml:space="preserve" font-family="ArialMT" font-size="20.0" fill="#000000" transform="matrix(1.00, 0.00, -0.00, -1.00, 596.3, 9.0)">e</text><text xml:space="preserve" font-family="ArialMT" font-size="20.0" fill="#000000" transform="matrix(1.00, 0.00, -0.00, -1.00, 607.4, 9.0)">r</text><text xml:space="preserve" font-family="ArialMT" font-size="20.0" fill="#000000" transform="matrix(1.00, 0.00, -0.00, -1.00, 614.0, 9.0)"> </text><text xml:space="preserve" font-family="ArialMT" font-size="20.0" fill="#000000" transform="matrix(1.00, 0.00, -0.00, -1.00, 619.6, 9.0)">e</text><text xml:space="preserve" font-family="ArialMT" font-size="20.0" fill="#000000" transform="matrix(1.00, 0.00, -0.00, -1.00, 630.7, 9.0)">t</text><text xml:space="preserve" font-family="ArialMT" font-size="20.0" fill="#000000" transform="matrix(1.00, 0.00, -0.00, -1.00, 636.3, 9.0)"> </text><text xml:space="preserve" font-family="ArialMT" font-size="20.0" fill="#000000" transform="matrix(1.00, 0.00, -0.00, -1.00, 641.8, 9.0)">a</text><text xml:space="preserve" font-family="ArialMT" font-size="20.0" fill="#000000" transform="matrix(1.00, 0.00, -0.00, -1.00, 653.0, 9.0)">l</text><text xml:space="preserve" font-family="ArialMT" font-size="20.0" fill="#000000" transform="matrix(1.00, 0.00, -0.00, -1.00, 657.4, 9.0)">.</text><text xml:space="preserve" font-family="ArialMT" font-size="20.0" fill="#000000" transform="matrix(1.00, 0.00, -0.00, -1.00, 663.0, 9.0)"> </text><text xml:space="preserve" font-family="ArialMT" font-size="20.0" fill="#000000" transform="matrix(1.00, 0.00, -0.00, -1.00, 668.5, 9.0)">1</text><text xml:space="preserve" font-family="ArialMT" font-size="20.0" fill="#000000" transform="matrix(1.00, 0.00, -0.00, -1.00, 679.6, 9.0)">9</text><text xml:space="preserve" font-family="ArialMT" font-size="20.0" fill="#000000" transform="matrix(1.00, 0.00, -0.00, -1.00, 690.8, 9.0)">9</text><text xml:space="preserve" font-family="ArialMT" font-size="20.0" fill="#000000" transform="matrix(1.00, 0.00, -0.00, -1.00, 701.9, 9.0)">5</text></g></svg>