<?xml version="1.0" encoding="UTF-8" standalone="no"?><svg xmlns="http://www.w3.org/2000/svg" xmlns:xlink="http://www.w3.org/1999/xlink" clip-rule="evenodd" stroke-miterlimit="10" viewBox="0 0 720 540"><desc>SVG generated by Keynote</desc><defs></defs><g transform="matrix(1.00, 0.00, -0.00, -1.00, 0.0, 540.0)"><path d="M 0.0 540.0 L 720.0 540.0 L 720.0 0.0 L 0.0 0.0 Z M 0.0 540.0 " fill="#FEFFFF"></path><text xml:space="preserve" font-family="ArialMT,Arial" font-size="44.0" fill="#000000" transform="matrix(1.00, 0.00, -0.00, -1.00, 182.3, 463.8)">t</text><text xml:space="preserve" font-family="ArialMT,Arial" font-size="44.0" fill="#000000" transform="matrix(1.00, 0.00, -0.00, -1.00, 194.5, 463.8)">h</text><text xml:space="preserve" font-family="ArialMT,Arial" font-size="44.0" fill="#000000" transform="matrix(1.00, 0.00, -0.00, -1.00, 219.0, 463.8)">a</text><text xml:space="preserve" font-family="ArialMT,Arial" font-size="44.0" fill="#000000" transform="matrix(1.00, 0.00, -0.00, -1.00, 243.5, 463.8)">t</text><text xml:space="preserve" font-family="ArialMT,Arial" font-size="44.0" fill="#000000" transform="matrix(1.00, 0.00, -0.00, -1.00, 255.7, 463.8)"> </text><text xml:space="preserve" font-family="ArialMT,Arial" font-size="44.0" fill="#000000" transform="matrix(1.00, 0.00, -0.00, -1.00, 267.9, 463.8)">d</text><text xml:space="preserve" font-family="ArialMT,Arial" font-size="44.0" fill="#000000" transform="matrix(1.00, 0.00, -0.00, -1.00, 292.4, 463.8)">i</text><text xml:space="preserve" font-family="ArialMT,Arial" font-size="44.0" fill="#000000" transform="matrix(1.00, 0.00, -0.00, -1.00, 302.2, 463.8)">f</text><text xml:space="preserve" font-family="ArialMT,Arial" font-size="44.0" fill="#000000" transform="matrix(1.00, 0.00, -0.00, -1.00, 313.6, 463.8)">f</text><text xml:space="preserve" font-family="ArialMT,Arial" font-size="44.0" fill="#000000" transform="matrix(1.00, 0.00, -0.00, -1.00, 325.8, 463.8)">e</text><text xml:space="preserve" font-family="ArialMT,Arial" font-size="44.0" fill="#000000" transform="matrix(1.00, 0.00, -0.00, -1.00, 350.3, 463.8)">r</text><text xml:space="preserve" font-family="ArialMT,Arial" font-size="44.0" fill="#000000" transform="matrix(1.00, 0.00, -0.00, -1.00, 365.0, 463.8)"> </text><text xml:space="preserve" font-family="ArialMT,Arial" font-size="44.0" fill="#000000" transform="matrix(1.00, 0.00, -0.00, -1.00, 377.2, 463.8)">i</text><text xml:space="preserve" font-family="ArialMT,Arial" font-size="44.0" fill="#000000" transform="matrix(1.00, 0.00, -0.00, -1.00, 387.0, 463.8)">n</text><text xml:space="preserve" font-family="ArialMT,Arial" font-size="44.0" fill="#000000" transform="matrix(1.00, 0.00, -0.00, -1.00, 411.4, 463.8)"> </text><text xml:space="preserve" font-family="ArialMT,Arial" font-size="44.0" fill="#000000" transform="matrix(1.00, 0.00, -0.00, -1.00, 423.6, 463.8)">s</text><text xml:space="preserve" font-family="ArialMT,Arial" font-size="44.0" fill="#000000" transform="matrix(1.00, 0.00, -0.00, -1.00, 445.6, 463.8)">i</text><text xml:space="preserve" font-family="ArialMT,Arial" font-size="44.0" fill="#000000" transform="matrix(1.00, 0.00, -0.00, -1.00, 455.4, 463.8)">z</text><text xml:space="preserve" font-family="ArialMT,Arial" font-size="44.0" fill="#000000" transform="matrix(1.00, 0.00, -0.00, -1.00, 477.4, 463.8)">e</text><text xml:space="preserve" font-family="ArialMT,Arial" font-size="44.0" fill="#000000" transform="matrix(1.00, 0.00, -0.00, -1.00, 501.9, 463.8)">.</text><text xml:space="preserve" font-family="ArialMT,Arial" font-size="44.0" fill="#000000" transform="matrix(1.00, 0.00, -0.00, -1.00, 514.1, 463.8)">.</text><text xml:space="preserve" font-family="ArialMT,Arial" font-size="44.0" fill="#000000" transform="matrix(1.00, 0.00, -0.00, -1.00, 526.3, 463.8)">.</text><image xlink:href="3EFEECA759602C58372DEEBC061CE6AD.png" width="353.00" height="272.00" transform="matrix(1.37, 0.00, -0.00, -1.37, 112.0, 431.0)"></image><text xml:space="preserve" font-family="TimesNewRomanPSMT,Times New Roman" font-size="22.0" fill="#000000" transform="matrix(1.00, 0.00, -0.00, -1.00, 526.6, 4.2)">C</text><text xml:space="preserve" font-family="TimesNewRomanPSMT,Times New Roman" font-size="22.0" fill="#000000" transform="matrix(1.00, 0.00, -0.00, -1.00, 541.3, 4.2)">a</text><text xml:space="preserve" font-family="TimesNewRomanPSMT,Times New Roman" font-size="22.0" fill="#000000" transform="matrix(1.00, 0.00, -0.00, -1.00, 551.1, 4.2)">d</text><text xml:space="preserve" font-family="TimesNewRomanPSMT,Times New Roman" font-size="22.0" fill="#000000" transform="matrix(1.00, 0.00, -0.00, -1.00, 562.1, 4.2)">l</text><text xml:space="preserve" font-family="TimesNewRomanPSMT,Times New Roman" font-size="22.0" fill="#000000" transform="matrix(1.00, 0.00, -0.00, -1.00, 568.2, 4.2)">e</text><text xml:space="preserve" font-family="TimesNewRomanPSMT,Times New Roman" font-size="22.0" fill="#000000" transform="matrix(1.00, 0.00, -0.00, -1.00, 577.9, 4.2)"> </text><text xml:space="preserve" font-family="TimesNewRomanPSMT,Times New Roman" font-size="22.0" fill="#000000" transform="matrix(1.00, 0.00, -0.00, -1.00, 583.4, 4.2)">a</text><text xml:space="preserve" font-family="TimesNewRomanPSMT,Times New Roman" font-size="22.0" fill="#000000" transform="matrix(1.00, 0.00, -0.00, -1.00, 593.2, 4.2)">n</text><text xml:space="preserve" font-family="TimesNewRomanPSMT,Times New Roman" font-size="22.0" fill="#000000" transform="matrix(1.00, 0.00, -0.00, -1.00, 604.2, 4.2)">d</text><text xml:space="preserve" font-family="TimesNewRomanPSMT,Times New Roman" font-size="22.0" fill="#000000" transform="matrix(1.00, 0.00, -0.00, -1.00, 615.2, 4.2)"> </text><text xml:space="preserve" font-family="TimesNewRomanPSMT,Times New Roman" font-size="22.0" fill="#000000" transform="matrix(1.00, 0.00, -0.00, -1.00, 620.7, 4.2)">G</text><text xml:space="preserve" font-family="TimesNewRomanPSMT,Times New Roman" font-size="22.0" fill="#000000" transform="matrix(1.00, 0.00, -0.00, -1.00, 636.6, 4.2)">r</text><text xml:space="preserve" font-family="TimesNewRomanPSMT,Times New Roman" font-size="22.0" fill="#000000" transform="matrix(1.00, 0.00, -0.00, -1.00, 643.9, 4.2)">e</text><text xml:space="preserve" font-family="TimesNewRomanPSMT,Times New Roman" font-size="22.0" fill="#000000" transform="matrix(1.00, 0.00, -0.00, -1.00, 653.7, 4.2)">e</text><text xml:space="preserve" font-family="TimesNewRomanPSMT,Times New Roman" font-size="22.0" fill="#000000" transform="matrix(1.00, 0.00, -0.00, -1.00, 663.4, 4.2)">n</text><text xml:space="preserve" font-family="TimesNewRomanPSMT,Times New Roman" font-size="22.0" fill="#000000" transform="matrix(1.00, 0.00, -0.00, -1.00, 674.4, 4.2)"> </text><text xml:space="preserve" font-family="TimesNewRomanPSMT,Times New Roman" font-size="22.0" fill="#000000" transform="matrix(1.00, 0.00, -0.00, -1.00, 679.9, 4.2)">1</text><text xml:space="preserve" font-family="TimesNewRomanPSMT,Times New Roman" font-size="22.0" fill="#000000" transform="matrix(1.00, 0.00, -0.00, -1.00, 690.9, 4.2)">9</text><text xml:space="preserve" font-family="TimesNewRomanPSMT,Times New Roman" font-size="22.0" fill="#000000" transform="matrix(1.00, 0.00, -0.00, -1.00, 701.9, 4.2)">9</text><text xml:space="preserve" font-family="TimesNewRomanPSMT,Times New Roman" font-size="22.0" fill="#000000" transform="matrix(1.00, 0.00, -0.00, -1.00, 712.9, 4.2)">3</text></g></svg>