<?xml version="1.0" encoding="UTF-8" standalone="no"?><svg xmlns="http://www.w3.org/2000/svg" xmlns:xlink="http://www.w3.org/1999/xlink" clip-rule="evenodd" stroke-miterlimit="4.00" viewBox="0 0 430 55"><desc>SVG generated by Keynote</desc><defs></defs><g transform="matrix(1.00, 0.00, -0.00, -1.00, 0.0, 55.0)"><g><clipPath id="clip-328"><path d="M 0.0 36.7 L 14.0 36.7 L 14.0 50.6 L 0.0 50.6 Z M 0.0 36.7 "></path></clipPath><g clip-path="url(#clip-328)"><path d="M 6.3 49.9 L 6.3 46.2 L 4.5 49.4 L 3.3 48.7 L 5.1 45.5 L 1.9 47.4 L 1.2 46.1 L 4.4 44.3 L 0.7 44.3 L 0.7 42.9 L 4.4 42.9 L 1.2 41.0 L 1.9 39.8 L 5.1 41.7 L 3.3 38.5 L 4.5 37.8 L 6.3 41.0 L 6.3 37.3 L 7.7 37.3 L 7.7 41.0 L 9.6 37.8 L 10.8 38.5 L 9.0 41.7 L 12.2 39.8 L 12.9 41.0 L 9.7 42.9 L 13.4 42.9 L 13.4 44.3 L 9.7 44.3 L 12.9 46.1 L 12.2 47.4 L 9.0 45.5 L 10.8 48.7 L 9.6 49.4 L 7.7 46.2 L 7.7 49.9 Z M 6.3 49.9 " fill="#497493"></path></g></g><text xml:space="preserve" font-family="HelveticaNeue" font-size="24.0" fill="#777775" transform="matrix(1.00, 0.00, -0.00, -1.00, 34.0, 36.0)">B</text><text xml:space="preserve" font-family="HelveticaNeue" font-size="24.0" fill="#777775" transform="matrix(1.00, 0.00, -0.00, -1.00, 50.4, 36.0)">u</text><text xml:space="preserve" font-family="HelveticaNeue" font-size="24.0" fill="#777775" transform="matrix(1.00, 0.00, -0.00, -1.00, 63.8, 36.0)">y</text><text xml:space="preserve" font-family="HelveticaNeue" font-size="24.0" fill="#777775" transform="matrix(1.00, 0.00, -0.00, -1.00, 75.8, 36.0)">i</text><text xml:space="preserve" font-family="HelveticaNeue" font-size="24.0" fill="#777775" transform="matrix(1.00, 0.00, -0.00, -1.00, 81.1, 36.0)">n</text><text xml:space="preserve" font-family="HelveticaNeue" font-size="24.0" fill="#777775" transform="matrix(1.00, 0.00, -0.00, -1.00, 94.5, 36.0)">g</text><text xml:space="preserve" font-family="HelveticaNeue" font-size="24.0" fill="#777775" transform="matrix(1.00, 0.00, -0.00, -1.00, 108.2, 36.0)"> </text><text xml:space="preserve" font-family="HelveticaNeue" font-size="24.0" fill="#777775" transform="matrix(1.00, 0.00, -0.00, -1.00, 114.9, 36.0)">l</text><text xml:space="preserve" font-family="HelveticaNeue" font-size="24.0" fill="#777775" transform="matrix(1.00, 0.00, -0.00, -1.00, 120.2, 36.0)">a</text><text xml:space="preserve" font-family="HelveticaNeue" font-size="24.0" fill="#777775" transform="matrix(1.00, 0.00, -0.00, -1.00, 133.1, 36.0)">n</text><text xml:space="preserve" font-family="HelveticaNeue" font-size="24.0" fill="#777775" transform="matrix(1.00, 0.00, -0.00, -1.00, 146.5, 36.0)">d</text><text xml:space="preserve" font-family="HelveticaNeue" font-size="24.0" fill="#777775" transform="matrix(1.00, 0.00, -0.00, -1.00, 160.7, 36.0)"> </text><text xml:space="preserve" font-family="HelveticaNeue" font-size="24.0" fill="#777775" transform="matrix(1.00, 0.00, -0.00, -1.00, 167.4, 36.0)">a</text><text xml:space="preserve" font-family="HelveticaNeue" font-size="24.0" fill="#777775" transform="matrix(1.00, 0.00, -0.00, -1.00, 180.3, 36.0)">n</text><text xml:space="preserve" font-family="HelveticaNeue" font-size="24.0" fill="#777775" transform="matrix(1.00, 0.00, -0.00, -1.00, 193.6, 36.0)">d</text><text xml:space="preserve" font-family="HelveticaNeue" font-size="24.0" fill="#777775" transform="matrix(1.00, 0.00, -0.00, -1.00, 207.8, 36.0)"> </text><text xml:space="preserve" font-family="HelveticaNeue" font-size="24.0" fill="#777775" transform="matrix(1.00, 0.00, -0.00, -1.00, 214.5, 36.0)">k</text><text xml:space="preserve" font-family="HelveticaNeue" font-size="24.0" fill="#777775" transform="matrix(1.00, 0.00, -0.00, -1.00, 227.0, 36.0)">i</text><text xml:space="preserve" font-family="HelveticaNeue" font-size="24.0" fill="#777775" transform="matrix(1.00, 0.00, -0.00, -1.00, 232.3, 36.0)">c</text><text xml:space="preserve" font-family="HelveticaNeue" font-size="24.0" fill="#777775" transform="matrix(1.00, 0.00, -0.00, -1.00, 245.2, 36.0)">k</text><text xml:space="preserve" font-family="HelveticaNeue" font-size="24.0" fill="#777775" transform="matrix(1.00, 0.00, -0.00, -1.00, 257.6, 36.0)">i</text><text xml:space="preserve" font-family="HelveticaNeue" font-size="24.0" fill="#777775" transform="matrix(1.00, 0.00, -0.00, -1.00, 263.0, 36.0)">n</text><text xml:space="preserve" font-family="HelveticaNeue" font-size="24.0" fill="#777775" transform="matrix(1.00, 0.00, -0.00, -1.00, 276.3, 36.0)">g</text><text xml:space="preserve" font-family="HelveticaNeue" font-size="24.0" fill="#777775" transform="matrix(1.00, 0.00, -0.00, -1.00, 290.1, 36.0)"> </text><text xml:space="preserve" font-family="HelveticaNeue" font-size="24.0" fill="#777775" transform="matrix(1.00, 0.00, -0.00, -1.00, 296.8, 36.0)">p</text><text xml:space="preserve" font-family="HelveticaNeue" font-size="24.0" fill="#777775" transform="matrix(1.00, 0.00, -0.00, -1.00, 311.0, 36.0)">e</text><text xml:space="preserve" font-family="HelveticaNeue" font-size="24.0" fill="#777775" transform="matrix(1.00, 0.00, -0.00, -1.00, 323.9, 36.0)">o</text><text xml:space="preserve" font-family="HelveticaNeue" font-size="24.0" fill="#777775" transform="matrix(1.00, 0.00, -0.00, -1.00, 337.6, 36.0)">p</text><text xml:space="preserve" font-family="HelveticaNeue" font-size="24.0" fill="#777775" transform="matrix(1.00, 0.00, -0.00, -1.00, 351.9, 36.0)">l</text><text xml:space="preserve" font-family="HelveticaNeue" font-size="24.0" fill="#777775" transform="matrix(1.00, 0.00, -0.00, -1.00, 357.2, 36.0)">e</text><text xml:space="preserve" font-family="HelveticaNeue" font-size="24.0" fill="#777775" transform="matrix(1.00, 0.00, -0.00, -1.00, 370.1, 36.0)"> </text><text xml:space="preserve" font-family="HelveticaNeue" font-size="24.0" fill="#777775" transform="matrix(1.00, 0.00, -0.00, -1.00, 376.8, 36.0)">o</text><text xml:space="preserve" font-family="HelveticaNeue" font-size="24.0" fill="#777775" transform="matrix(1.00, 0.00, -0.00, -1.00, 390.5, 36.0)">ﬀ</text><text xml:space="preserve" font-family="HelveticaNeue" font-size="24.0" fill="#777775" transform="matrix(1.00, 0.00, -0.00, -1.00, 404.4, 36.0)"> </text><text xml:space="preserve" font-family="HelveticaNeue" font-size="24.0" fill="#777775" transform="matrix(1.00, 0.00, -0.00, -1.00, 411.1, 36.0)">i</text><text xml:space="preserve" font-family="HelveticaNeue" font-size="24.0" fill="#777775" transform="matrix(1.00, 0.00, -0.00, -1.00, 416.4, 36.0)">s</text><text xml:space="preserve" font-family="HelveticaNeue" font-size="24.0" fill="#777775" transform="matrix(1.00, 0.00, -0.00, -1.00, 428.4, 36.0)"> </text><text xml:space="preserve" font-family="HelveticaNeue" font-size="24.0" fill="#777775" transform="matrix(1.00, 0.00, -0.00, -1.00, 34.0, 7.0)">o</text><text xml:space="preserve" font-family="HelveticaNeue" font-size="24.0" fill="#777775" transform="matrix(1.00, 0.00, -0.00, -1.00, 47.8, 7.0)">f</text><text xml:space="preserve" font-family="HelveticaNeue" font-size="24.0" fill="#777775" transform="matrix(1.00, 0.00, -0.00, -1.00, 54.9, 7.0)">t</text><text xml:space="preserve" font-family="HelveticaNeue" font-size="24.0" fill="#777775" transform="matrix(1.00, 0.00, -0.00, -1.00, 62.4, 7.0)">e</text><text xml:space="preserve" font-family="HelveticaNeue" font-size="24.0" fill="#777775" transform="matrix(1.00, 0.00, -0.00, -1.00, 75.3, 7.0)">n</text><text xml:space="preserve" font-family="HelveticaNeue" font-size="24.0" fill="#777775" transform="matrix(1.00, 0.00, -0.00, -1.00, 88.7, 7.0)"> </text><text xml:space="preserve" font-family="HelveticaNeue" font-size="24.0" fill="#777775" transform="matrix(1.00, 0.00, -0.00, -1.00, 95.3, 7.0)">n</text><text xml:space="preserve" font-family="HelveticaNeue" font-size="24.0" fill="#777775" transform="matrix(1.00, 0.00, -0.00, -1.00, 108.7, 7.0)">o</text><text xml:space="preserve" font-family="HelveticaNeue" font-size="24.0" fill="#777775" transform="matrix(1.00, 0.00, -0.00, -1.00, 122.5, 7.0)">t</text><text xml:space="preserve" font-family="HelveticaNeue" font-size="24.0" fill="#777775" transform="matrix(1.00, 0.00, -0.00, -1.00, 130.0, 7.0)"> </text><text xml:space="preserve" font-family="HelveticaNeue" font-size="24.0" fill="#777775" transform="matrix(1.00, 0.00, -0.00, -1.00, 136.7, 7.0)">a</text><text xml:space="preserve" font-family="HelveticaNeue" font-size="24.0" fill="#777775" transform="matrix(1.00, 0.00, -0.00, -1.00, 149.6, 7.0)"> </text><text xml:space="preserve" font-family="HelveticaNeue" font-size="24.0" fill="#777775" transform="matrix(1.00, 0.00, -0.00, -1.00, 156.3, 7.0)">g</text><text xml:space="preserve" font-family="HelveticaNeue" font-size="24.0" fill="#777775" transform="matrix(1.00, 0.00, -0.00, -1.00, 170.0, 7.0)">o</text><text xml:space="preserve" font-family="HelveticaNeue" font-size="24.0" fill="#777775" transform="matrix(1.00, 0.00, -0.00, -1.00, 183.8, 7.0)">o</text><text xml:space="preserve" font-family="HelveticaNeue" font-size="24.0" fill="#777775" transform="matrix(1.00, 0.00, -0.00, -1.00, 197.6, 7.0)">d</text><text xml:space="preserve" font-family="HelveticaNeue" font-size="24.0" fill="#777775" transform="matrix(1.00, 0.00, -0.00, -1.00, 211.8, 7.0)"> </text><text xml:space="preserve" font-family="HelveticaNeue" font-size="24.0" fill="#777775" transform="matrix(1.00, 0.00, -0.00, -1.00, 218.5, 7.0)">l</text><text xml:space="preserve" font-family="HelveticaNeue" font-size="24.0" fill="#777775" transform="matrix(1.00, 0.00, -0.00, -1.00, 223.8, 7.0)">o</text><text xml:space="preserve" font-family="HelveticaNeue" font-size="24.0" fill="#777775" transform="matrix(1.00, 0.00, -0.00, -1.00, 237.6, 7.0)">n</text><text xml:space="preserve" font-family="HelveticaNeue" font-size="24.0" fill="#777775" transform="matrix(1.00, 0.00, -0.00, -1.00, 250.9, 7.0)">g</text><text xml:space="preserve" font-family="HelveticaNeue" font-size="24.0" fill="#777775" transform="matrix(1.00, 0.00, -0.00, -1.00, 264.7, 7.0)">-</text><text xml:space="preserve" font-family="HelveticaNeue" font-size="24.0" fill="#777775" transform="matrix(1.00, 0.00, -0.00, -1.00, 274.0, 7.0)">t</text><text xml:space="preserve" font-family="HelveticaNeue" font-size="24.0" fill="#777775" transform="matrix(1.00, 0.00, -0.00, -1.00, 281.6, 7.0)">e</text><text xml:space="preserve" font-family="HelveticaNeue" font-size="24.0" fill="#777775" transform="matrix(1.00, 0.00, -0.00, -1.00, 294.5, 7.0)">r</text><text xml:space="preserve" font-family="HelveticaNeue" font-size="24.0" fill="#777775" transform="matrix(1.00, 0.00, -0.00, -1.00, 302.5, 7.0)">m</text><text xml:space="preserve" font-family="HelveticaNeue" font-size="24.0" fill="#777775" transform="matrix(1.00, 0.00, -0.00, -1.00, 323.0, 7.0)"> </text><text xml:space="preserve" font-family="HelveticaNeue" font-size="24.0" fill="#777775" transform="matrix(1.00, 0.00, -0.00, -1.00, 329.6, 7.0)">s</text><text xml:space="preserve" font-family="HelveticaNeue" font-size="24.0" fill="#777775" transform="matrix(1.00, 0.00, -0.00, -1.00, 341.6, 7.0)">t</text><text xml:space="preserve" font-family="HelveticaNeue" font-size="24.0" fill="#777775" transform="matrix(1.00, 0.00, -0.00, -1.00, 349.2, 7.0)">r</text><text xml:space="preserve" font-family="HelveticaNeue" font-size="24.0" fill="#777775" transform="matrix(1.00, 0.00, -0.00, -1.00, 357.2, 7.0)">a</text><text xml:space="preserve" font-family="HelveticaNeue" font-size="24.0" fill="#777775" transform="matrix(1.00, 0.00, -0.00, -1.00, 370.1, 7.0)">t</text><text xml:space="preserve" font-family="HelveticaNeue" font-size="24.0" fill="#777775" transform="matrix(1.00, 0.00, -0.00, -1.00, 377.6, 7.0)">e</text><text xml:space="preserve" font-family="HelveticaNeue" font-size="24.0" fill="#777775" transform="matrix(1.00, 0.00, -0.00, -1.00, 390.5, 7.0)">g</text><text xml:space="preserve" font-family="HelveticaNeue" font-size="24.0" fill="#777775" transform="matrix(1.00, 0.00, -0.00, -1.00, 404.3, 7.0)">y</text></g></svg>