<?xml version="1.0" encoding="UTF-8" standalone="no"?><svg xmlns="http://www.w3.org/2000/svg" xmlns:xlink="http://www.w3.org/1999/xlink" clip-rule="evenodd" stroke-miterlimit="4.00" viewBox="0 0 455 108"><desc>SVG generated by Keynote</desc><defs></defs><g transform="matrix(1.00, 0.00, -0.00, -1.00, 0.0, 108.0)"><g><clipPath id="clip-327"><path d="M 0.0 89.7 L 14.0 89.7 L 14.0 103.6 L 0.0 103.6 Z M 0.0 89.7 "></path></clipPath><g clip-path="url(#clip-327)"><path d="M 6.3 102.9 L 6.3 99.2 L 4.5 102.4 L 3.3 101.7 L 5.1 98.5 L 1.9 100.4 L 1.2 99.1 L 4.4 97.3 L 0.7 97.3 L 0.7 95.9 L 4.4 95.9 L 1.2 94.0 L 1.9 92.8 L 5.1 94.7 L 3.3 91.5 L 4.5 90.8 L 6.3 94.0 L 6.3 90.3 L 7.7 90.3 L 7.7 94.0 L 9.6 90.8 L 10.8 91.5 L 9.0 94.7 L 12.2 92.8 L 12.9 94.0 L 9.7 95.9 L 13.4 95.9 L 13.4 97.3 L 9.7 97.3 L 12.9 99.1 L 12.2 100.4 L 9.0 98.5 L 10.8 101.7 L 9.6 102.4 L 7.7 99.2 L 7.7 102.9 Z M 6.3 102.9 " fill="#497493"></path></g></g><text xml:space="preserve" font-family="HelveticaNeue" font-size="24.0" fill="#777775" transform="matrix(1.00, 0.00, -0.00, -1.00, 34.0, 89.0)">T</text><text xml:space="preserve" font-family="HelveticaNeue" font-size="24.0" fill="#777775" transform="matrix(1.00, 0.00, -0.00, -1.00, 47.8, 89.0)">h</text><text xml:space="preserve" font-family="HelveticaNeue" font-size="24.0" fill="#777775" transform="matrix(1.00, 0.00, -0.00, -1.00, 61.1, 89.0)">e</text><text xml:space="preserve" font-family="HelveticaNeue" font-size="24.0" fill="#777775" transform="matrix(1.00, 0.00, -0.00, -1.00, 74.0, 89.0)">s</text><text xml:space="preserve" font-family="HelveticaNeue" font-size="24.0" fill="#777775" transform="matrix(1.00, 0.00, -0.00, -1.00, 86.0, 89.0)">e</text><text xml:space="preserve" font-family="HelveticaNeue" font-size="24.0" fill="#777775" transform="matrix(1.00, 0.00, -0.00, -1.00, 98.9, 89.0)"> </text><text xml:space="preserve" font-family="HelveticaNeue" font-size="24.0" fill="#777775" transform="matrix(1.00, 0.00, -0.00, -1.00, 105.6, 89.0)">a</text><text xml:space="preserve" font-family="HelveticaNeue" font-size="24.0" fill="#777775" transform="matrix(1.00, 0.00, -0.00, -1.00, 118.5, 89.0)">r</text><text xml:space="preserve" font-family="HelveticaNeue" font-size="24.0" fill="#777775" transform="matrix(1.00, 0.00, -0.00, -1.00, 126.0, 89.0)">e</text><text xml:space="preserve" font-family="HelveticaNeue" font-size="24.0" fill="#777775" transform="matrix(1.00, 0.00, -0.00, -1.00, 138.9, 89.0)"> </text><text xml:space="preserve" font-family="HelveticaNeue" font-size="24.0" fill="#777775" transform="matrix(1.00, 0.00, -0.00, -1.00, 145.6, 89.0)">t</text><text xml:space="preserve" font-family="HelveticaNeue" font-size="24.0" fill="#777775" transform="matrix(1.00, 0.00, -0.00, -1.00, 153.1, 89.0)">h</text><text xml:space="preserve" font-family="HelveticaNeue" font-size="24.0" fill="#777775" transform="matrix(1.00, 0.00, -0.00, -1.00, 166.5, 89.0)">e</text><text xml:space="preserve" font-family="HelveticaNeue" font-size="24.0" fill="#777775" transform="matrix(1.00, 0.00, -0.00, -1.00, 179.4, 89.0)"> </text><text xml:space="preserve" font-family="HelveticaNeue" font-size="24.0" fill="#777775" transform="matrix(1.00, 0.00, -0.00, -1.00, 186.0, 89.0)">p</text><text xml:space="preserve" font-family="HelveticaNeue" font-size="24.0" fill="#777775" transform="matrix(1.00, 0.00, -0.00, -1.00, 200.3, 89.0)">e</text><text xml:space="preserve" font-family="HelveticaNeue" font-size="24.0" fill="#777775" transform="matrix(1.00, 0.00, -0.00, -1.00, 213.2, 89.0)">o</text><text xml:space="preserve" font-family="HelveticaNeue" font-size="24.0" fill="#777775" transform="matrix(1.00, 0.00, -0.00, -1.00, 226.9, 89.0)">p</text><text xml:space="preserve" font-family="HelveticaNeue" font-size="24.0" fill="#777775" transform="matrix(1.00, 0.00, -0.00, -1.00, 241.2, 89.0)">l</text><text xml:space="preserve" font-family="HelveticaNeue" font-size="24.0" fill="#777775" transform="matrix(1.00, 0.00, -0.00, -1.00, 246.5, 89.0)">e</text><text xml:space="preserve" font-family="HelveticaNeue" font-size="24.0" fill="#777775" transform="matrix(1.00, 0.00, -0.00, -1.00, 259.4, 89.0)"> </text><text xml:space="preserve" font-family="HelveticaNeue" font-size="24.0" fill="#777775" transform="matrix(1.00, 0.00, -0.00, -1.00, 266.1, 89.0)">w</text><text xml:space="preserve" font-family="HelveticaNeue" font-size="24.0" fill="#777775" transform="matrix(1.00, 0.00, -0.00, -1.00, 284.2, 89.0)">h</text><text xml:space="preserve" font-family="HelveticaNeue" font-size="24.0" fill="#777775" transform="matrix(1.00, 0.00, -0.00, -1.00, 297.6, 89.0)">o</text><text xml:space="preserve" font-family="HelveticaNeue" font-size="24.0" fill="#777775" transform="matrix(1.00, 0.00, -0.00, -1.00, 311.4, 89.0)"> </text><text xml:space="preserve" font-family="HelveticaNeue" font-size="24.0" fill="#777775" transform="matrix(1.00, 0.00, -0.00, -1.00, 318.0, 89.0)">a</text><text xml:space="preserve" font-family="HelveticaNeue" font-size="24.0" fill="#777775" transform="matrix(1.00, 0.00, -0.00, -1.00, 330.9, 89.0)">r</text><text xml:space="preserve" font-family="HelveticaNeue" font-size="24.0" fill="#777775" transform="matrix(1.00, 0.00, -0.00, -1.00, 338.5, 89.0)">e</text><text xml:space="preserve" font-family="HelveticaNeue" font-size="24.0" fill="#777775" transform="matrix(1.00, 0.00, -0.00, -1.00, 351.4, 89.0)"> </text><text xml:space="preserve" font-family="HelveticaNeue" font-size="24.0" fill="#777775" transform="matrix(1.00, 0.00, -0.00, -1.00, 358.0, 89.0)">a</text><text xml:space="preserve" font-family="HelveticaNeue" font-size="24.0" fill="#777775" transform="matrix(1.00, 0.00, -0.00, -1.00, 370.9, 89.0)">ﬀ</text><text xml:space="preserve" font-family="HelveticaNeue" font-size="24.0" fill="#777775" transform="matrix(1.00, 0.00, -0.00, -1.00, 384.8, 89.0)">e</text><text xml:space="preserve" font-family="HelveticaNeue" font-size="24.0" fill="#777775" transform="matrix(1.00, 0.00, -0.00, -1.00, 397.7, 89.0)">c</text><text xml:space="preserve" font-family="HelveticaNeue" font-size="24.0" fill="#777775" transform="matrix(1.00, 0.00, -0.00, -1.00, 410.6, 89.0)">t</text><text xml:space="preserve" font-family="HelveticaNeue" font-size="24.0" fill="#777775" transform="matrix(1.00, 0.00, -0.00, -1.00, 418.1, 89.0)">e</text><text xml:space="preserve" font-family="HelveticaNeue" font-size="24.0" fill="#777775" transform="matrix(1.00, 0.00, -0.00, -1.00, 431.0, 89.0)">d</text><text xml:space="preserve" font-family="HelveticaNeue" font-size="24.0" fill="#777775" transform="matrix(1.00, 0.00, -0.00, -1.00, 445.2, 89.0)"> </text><text xml:space="preserve" font-family="HelveticaNeue" font-size="24.0" fill="#777775" transform="matrix(1.00, 0.00, -0.00, -1.00, 34.0, 60.0)">m</text><text xml:space="preserve" font-family="HelveticaNeue" font-size="24.0" fill="#777775" transform="matrix(1.00, 0.00, -0.00, -1.00, 54.5, 60.0)">o</text><text xml:space="preserve" font-family="HelveticaNeue" font-size="24.0" fill="#777775" transform="matrix(1.00, 0.00, -0.00, -1.00, 68.2, 60.0)">s</text><text xml:space="preserve" font-family="HelveticaNeue" font-size="24.0" fill="#777775" transform="matrix(1.00, 0.00, -0.00, -1.00, 80.2, 60.0)">t</text><text xml:space="preserve" font-family="HelveticaNeue" font-size="24.0" fill="#777775" transform="matrix(1.00, 0.00, -0.00, -1.00, 87.8, 60.0)"> </text><text xml:space="preserve" font-family="HelveticaNeue" font-size="24.0" fill="#777775" transform="matrix(1.00, 0.00, -0.00, -1.00, 94.5, 60.0)">b</text><text xml:space="preserve" font-family="HelveticaNeue" font-size="24.0" fill="#777775" transform="matrix(1.00, 0.00, -0.00, -1.00, 108.7, 60.0)">y</text><text xml:space="preserve" font-family="HelveticaNeue" font-size="24.0" fill="#777775" transform="matrix(1.00, 0.00, -0.00, -1.00, 120.7, 60.0)"> </text><text xml:space="preserve" font-family="HelveticaNeue" font-size="24.0" fill="#777775" transform="matrix(1.00, 0.00, -0.00, -1.00, 127.4, 60.0)">c</text><text xml:space="preserve" font-family="HelveticaNeue" font-size="24.0" fill="#777775" transform="matrix(1.00, 0.00, -0.00, -1.00, 140.3, 60.0)">o</text><text xml:space="preserve" font-family="HelveticaNeue" font-size="24.0" fill="#777775" transform="matrix(1.00, 0.00, -0.00, -1.00, 154.0, 60.0)">n</text><text xml:space="preserve" font-family="HelveticaNeue" font-size="24.0" fill="#777775" transform="matrix(1.00, 0.00, -0.00, -1.00, 167.4, 60.0)">s</text><text xml:space="preserve" font-family="HelveticaNeue" font-size="24.0" fill="#777775" transform="matrix(1.00, 0.00, -0.00, -1.00, 179.4, 60.0)">e</text><text xml:space="preserve" font-family="HelveticaNeue" font-size="24.0" fill="#777775" transform="matrix(1.00, 0.00, -0.00, -1.00, 192.3, 60.0)">r</text><text xml:space="preserve" font-family="HelveticaNeue" font-size="24.0" fill="#777775" transform="matrix(1.00, 0.00, -0.00, -1.00, 200.3, 60.0)">v</text><text xml:space="preserve" font-family="HelveticaNeue" font-size="24.0" fill="#777775" transform="matrix(1.00, 0.00, -0.00, -1.00, 212.3, 60.0)">a</text><text xml:space="preserve" font-family="HelveticaNeue" font-size="24.0" fill="#777775" transform="matrix(1.00, 0.00, -0.00, -1.00, 225.2, 60.0)">t</text><text xml:space="preserve" font-family="HelveticaNeue" font-size="24.0" fill="#777775" transform="matrix(1.00, 0.00, -0.00, -1.00, 232.7, 60.0)">i</text><text xml:space="preserve" font-family="HelveticaNeue" font-size="24.0" fill="#777775" transform="matrix(1.00, 0.00, -0.00, -1.00, 238.0, 60.0)">o</text><text xml:space="preserve" font-family="HelveticaNeue" font-size="24.0" fill="#777775" transform="matrix(1.00, 0.00, -0.00, -1.00, 251.8, 60.0)">n</text><text xml:space="preserve" font-family="HelveticaNeue" font-size="24.0" fill="#777775" transform="matrix(1.00, 0.00, -0.00, -1.00, 265.2, 60.0)"> </text><text xml:space="preserve" font-family="HelveticaNeue" font-size="24.0" fill="#777775" transform="matrix(1.00, 0.00, -0.00, -1.00, 271.8, 60.0)">p</text><text xml:space="preserve" font-family="HelveticaNeue" font-size="24.0" fill="#777775" transform="matrix(1.00, 0.00, -0.00, -1.00, 286.1, 60.0)">r</text><text xml:space="preserve" font-family="HelveticaNeue" font-size="24.0" fill="#777775" transform="matrix(1.00, 0.00, -0.00, -1.00, 293.6, 60.0)">o</text><text xml:space="preserve" font-family="HelveticaNeue" font-size="24.0" fill="#777775" transform="matrix(1.00, 0.00, -0.00, -1.00, 307.4, 60.0)">g</text><text xml:space="preserve" font-family="HelveticaNeue" font-size="24.0" fill="#777775" transform="matrix(1.00, 0.00, -0.00, -1.00, 321.2, 60.0)">r</text><text xml:space="preserve" font-family="HelveticaNeue" font-size="24.0" fill="#777775" transform="matrix(1.00, 0.00, -0.00, -1.00, 329.2, 60.0)">a</text><text xml:space="preserve" font-family="HelveticaNeue" font-size="24.0" fill="#777775" transform="matrix(1.00, 0.00, -0.00, -1.00, 342.1, 60.0)">m</text><text xml:space="preserve" font-family="HelveticaNeue" font-size="24.0" fill="#777775" transform="matrix(1.00, 0.00, -0.00, -1.00, 362.5, 60.0)">s</text><text xml:space="preserve" font-family="HelveticaNeue" font-size="24.0" fill="#777775" transform="matrix(1.00, 0.00, -0.00, -1.00, 374.5, 60.0)">,</text><text xml:space="preserve" font-family="HelveticaNeue" font-size="24.0" fill="#777775" transform="matrix(1.00, 0.00, -0.00, -1.00, 381.2, 60.0)"> </text><text xml:space="preserve" font-family="HelveticaNeue" font-size="24.0" fill="#777775" transform="matrix(1.00, 0.00, -0.00, -1.00, 387.9, 60.0)">a</text><text xml:space="preserve" font-family="HelveticaNeue" font-size="24.0" fill="#777775" transform="matrix(1.00, 0.00, -0.00, -1.00, 400.8, 60.0)">n</text><text xml:space="preserve" font-family="HelveticaNeue" font-size="24.0" fill="#777775" transform="matrix(1.00, 0.00, -0.00, -1.00, 414.1, 60.0)">d</text><text xml:space="preserve" font-family="HelveticaNeue" font-size="24.0" fill="#777775" transform="matrix(1.00, 0.00, -0.00, -1.00, 428.3, 60.0)"> </text><text xml:space="preserve" font-family="HelveticaNeue" font-size="24.0" fill="#777775" transform="matrix(1.00, 0.00, -0.00, -1.00, 435.0, 60.0)">i</text><text xml:space="preserve" font-family="HelveticaNeue" font-size="24.0" fill="#777775" transform="matrix(1.00, 0.00, -0.00, -1.00, 440.3, 60.0)">n</text><text xml:space="preserve" font-family="HelveticaNeue" font-size="24.0" fill="#777775" transform="matrix(1.00, 0.00, -0.00, -1.00, 453.7, 60.0)"> </text><text xml:space="preserve" font-family="HelveticaNeue" font-size="24.0" fill="#777775" transform="matrix(1.00, 0.00, -0.00, -1.00, 34.0, 31.0)">t</text><text xml:space="preserve" font-family="HelveticaNeue" font-size="24.0" fill="#777775" transform="matrix(1.00, 0.00, -0.00, -1.00, 41.6, 31.0)">u</text><text xml:space="preserve" font-family="HelveticaNeue" font-size="24.0" fill="#777775" transform="matrix(1.00, 0.00, -0.00, -1.00, 54.9, 31.0)">r</text><text xml:space="preserve" font-family="HelveticaNeue" font-size="24.0" fill="#777775" transform="matrix(1.00, 0.00, -0.00, -1.00, 63.3, 31.0)">n</text><text xml:space="preserve" font-family="HelveticaNeue" font-size="24.0" fill="#777775" transform="matrix(1.00, 0.00, -0.00, -1.00, 76.7, 31.0)"> </text><text xml:space="preserve" font-family="HelveticaNeue" font-size="24.0" fill="#777775" transform="matrix(1.00, 0.00, -0.00, -1.00, 83.3, 31.0)">h</text><text xml:space="preserve" font-family="HelveticaNeue" font-size="24.0" fill="#777775" transform="matrix(1.00, 0.00, -0.00, -1.00, 96.7, 31.0)">a</text><text xml:space="preserve" font-family="HelveticaNeue" font-size="24.0" fill="#777775" transform="matrix(1.00, 0.00, -0.00, -1.00, 109.6, 31.0)">v</text><text xml:space="preserve" font-family="HelveticaNeue" font-size="24.0" fill="#777775" transform="matrix(1.00, 0.00, -0.00, -1.00, 121.6, 31.0)">e</text><text xml:space="preserve" font-family="HelveticaNeue" font-size="24.0" fill="#777775" transform="matrix(1.00, 0.00, -0.00, -1.00, 134.5, 31.0)"> </text><text xml:space="preserve" font-family="HelveticaNeue" font-size="24.0" fill="#777775" transform="matrix(1.00, 0.00, -0.00, -1.00, 141.1, 31.0)">t</text><text xml:space="preserve" font-family="HelveticaNeue" font-size="24.0" fill="#777775" transform="matrix(1.00, 0.00, -0.00, -1.00, 148.7, 31.0)">h</text><text xml:space="preserve" font-family="HelveticaNeue" font-size="24.0" fill="#777775" transform="matrix(1.00, 0.00, -0.00, -1.00, 162.0, 31.0)">e</text><text xml:space="preserve" font-family="HelveticaNeue" font-size="24.0" fill="#777775" transform="matrix(1.00, 0.00, -0.00, -1.00, 174.9, 31.0)"> </text><text xml:space="preserve" font-family="HelveticaNeue" font-size="24.0" fill="#777775" transform="matrix(1.00, 0.00, -0.00, -1.00, 181.6, 31.0)">m</text><text xml:space="preserve" font-family="HelveticaNeue" font-size="24.0" fill="#777775" transform="matrix(1.00, 0.00, -0.00, -1.00, 202.1, 31.0)">o</text><text xml:space="preserve" font-family="HelveticaNeue" font-size="24.0" fill="#777775" transform="matrix(1.00, 0.00, -0.00, -1.00, 215.8, 31.0)">s</text><text xml:space="preserve" font-family="HelveticaNeue" font-size="24.0" fill="#777775" transform="matrix(1.00, 0.00, -0.00, -1.00, 227.8, 31.0)">t</text><text xml:space="preserve" font-family="HelveticaNeue" font-size="24.0" fill="#777775" transform="matrix(1.00, 0.00, -0.00, -1.00, 235.4, 31.0)"> </text><text xml:space="preserve" font-family="HelveticaNeue" font-size="24.0" fill="#777775" transform="matrix(1.00, 0.00, -0.00, -1.00, 242.1, 31.0)">e</text><text xml:space="preserve" font-family="HelveticaNeue" font-size="24.0" fill="#777775" transform="matrix(1.00, 0.00, -0.00, -1.00, 255.0, 31.0)">ﬀ</text><text xml:space="preserve" font-family="HelveticaNeue" font-size="24.0" fill="#777775" transform="matrix(1.00, 0.00, -0.00, -1.00, 268.8, 31.0)">e</text><text xml:space="preserve" font-family="HelveticaNeue" font-size="24.0" fill="#777775" transform="matrix(1.00, 0.00, -0.00, -1.00, 281.7, 31.0)">c</text><text xml:space="preserve" font-family="HelveticaNeue" font-size="24.0" fill="#777775" transform="matrix(1.00, 0.00, -0.00, -1.00, 294.6, 31.0)">t</text><text xml:space="preserve" font-family="HelveticaNeue" font-size="24.0" fill="#777775" transform="matrix(1.00, 0.00, -0.00, -1.00, 302.2, 31.0)"> </text><text xml:space="preserve" font-family="HelveticaNeue" font-size="24.0" fill="#777775" transform="matrix(1.00, 0.00, -0.00, -1.00, 308.8, 31.0)">o</text><text xml:space="preserve" font-family="HelveticaNeue" font-size="24.0" fill="#777775" transform="matrix(1.00, 0.00, -0.00, -1.00, 322.6, 31.0)">n</text><text xml:space="preserve" font-family="HelveticaNeue" font-size="24.0" fill="#777775" transform="matrix(1.00, 0.00, -0.00, -1.00, 335.9, 31.0)"> </text><text xml:space="preserve" font-family="HelveticaNeue" font-size="24.0" fill="#777775" transform="matrix(1.00, 0.00, -0.00, -1.00, 342.6, 31.0)">n</text><text xml:space="preserve" font-family="HelveticaNeue" font-size="24.0" fill="#777775" transform="matrix(1.00, 0.00, -0.00, -1.00, 356.0, 31.0)">a</text><text xml:space="preserve" font-family="HelveticaNeue" font-size="24.0" fill="#777775" transform="matrix(1.00, 0.00, -0.00, -1.00, 368.8, 31.0)">t</text><text xml:space="preserve" font-family="HelveticaNeue" font-size="24.0" fill="#777775" transform="matrix(1.00, 0.00, -0.00, -1.00, 376.4, 31.0)">u</text><text xml:space="preserve" font-family="HelveticaNeue" font-size="24.0" fill="#777775" transform="matrix(1.00, 0.00, -0.00, -1.00, 389.8, 31.0)">r</text><text xml:space="preserve" font-family="HelveticaNeue" font-size="24.0" fill="#777775" transform="matrix(1.00, 0.00, -0.00, -1.00, 397.7, 31.0)">a</text><text xml:space="preserve" font-family="HelveticaNeue" font-size="24.0" fill="#777775" transform="matrix(1.00, 0.00, -0.00, -1.00, 410.6, 31.0)">l</text><text xml:space="preserve" font-family="HelveticaNeue" font-size="24.0" fill="#777775" transform="matrix(1.00, 0.00, -0.00, -1.00, 416.0, 31.0)"> </text><text xml:space="preserve" font-family="HelveticaNeue" font-size="24.0" fill="#777775" transform="matrix(1.00, 0.00, -0.00, -1.00, 34.0, 2.0)">h</text><text xml:space="preserve" font-family="HelveticaNeue" font-size="24.0" fill="#777775" transform="matrix(1.00, 0.00, -0.00, -1.00, 47.3, 2.0)">a</text><text xml:space="preserve" font-family="HelveticaNeue" font-size="24.0" fill="#777775" transform="matrix(1.00, 0.00, -0.00, -1.00, 60.2, 2.0)">b</text><text xml:space="preserve" font-family="HelveticaNeue" font-size="24.0" fill="#777775" transform="matrix(1.00, 0.00, -0.00, -1.00, 74.5, 2.0)">i</text><text xml:space="preserve" font-family="HelveticaNeue" font-size="24.0" fill="#777775" transform="matrix(1.00, 0.00, -0.00, -1.00, 79.8, 2.0)">t</text><text xml:space="preserve" font-family="HelveticaNeue" font-size="24.0" fill="#777775" transform="matrix(1.00, 0.00, -0.00, -1.00, 87.4, 2.0)">a</text><text xml:space="preserve" font-family="HelveticaNeue" font-size="24.0" fill="#777775" transform="matrix(1.00, 0.00, -0.00, -1.00, 100.2, 2.0)">t</text><text xml:space="preserve" font-family="HelveticaNeue" font-size="24.0" fill="#777775" transform="matrix(1.00, 0.00, -0.00, -1.00, 107.8, 2.0)">s</text></g></svg>