<?xml version="1.0" encoding="UTF-8" standalone="no"?><svg xmlns="http://www.w3.org/2000/svg" xmlns:xlink="http://www.w3.org/1999/xlink" clip-rule="evenodd" stroke-miterlimit="10" viewBox="0 0 720 540"><desc>SVG generated by Keynote</desc><defs></defs><g transform="matrix(1.00, 0.00, -0.00, -1.00, 0.0, 540.0)"><path d="M 0.0 540.0 L 720.0 540.0 L 720.0 0.0 L 0.0 0.0 Z M 0.0 540.0 " fill="#FEFFFF"></path><g><clipPath id="clip0x7fd2de17b750"><path d="M 252.0 187.0 L 30.0 187.0 L 30.0 336.0 L 252.0 336.0 Z M 252.0 187.0 "></path></clipPath><g clip-path="url(#clip0x7fd2de17b750)"><g><clipPath id="clip0x7fd2de17bf10"><path d="M 30.0 187.0 L 252.0 187.0 L 252.0 336.0 L 30.0 336.0 Z M 30.0 187.0 "></path></clipPath><g clip-path="url(#clip0x7fd2de17bf10)"><path d="M 252.0 336.0 L 30.0 336.0 L 30.0 187.0 L 252.0 187.0 Z M 252.0 336.0 " fill="#FFFFFF"></path><image xlink:href="../../765A459D-D19E-4E0D-800C-5953461A2811/assets/A77BB357C11CF6EE023D4005EDD94BE7.png" width="610.00" height="410.00" transform="matrix(-0.36, 0.00, 0.00, -0.36, 252.0, 336.0)"></image></g></g></g></g><g><clipPath id="clip0x7fd2de23a2a0"><path d="M 438.0 53.0 L 636.0 53.0 L 636.0 186.0 L 438.0 186.0 Z M 438.0 53.0 "></path></clipPath><g clip-path="url(#clip0x7fd2de23a2a0)"><path d="M 438.0 186.0 L 636.0 186.0 L 636.0 53.0 L 438.0 53.0 Z M 438.0 186.0 " fill="#FFFFFF"></path><image xlink:href="../../882D9407-0E9A-4671-BAD5-0D440020B7AC/assets/9748887025492613135868C3C1B1A607.png" width="476.00" height="319.00" transform="matrix(0.42, 0.00, -0.00, -0.42, 438.0, 186.0)"></image></g></g><g><clipPath id="clip0x7fd2de23b7f0"><path d="M 426.0 331.0 L 636.0 331.0 L 636.0 498.0 L 426.0 498.0 Z M 426.0 331.0 "></path></clipPath><g clip-path="url(#clip0x7fd2de23b7f0)"><path d="M 426.0 498.0 L 636.0 498.0 L 636.0 331.0 L 426.0 331.0 Z M 426.0 498.0 " fill="#FFFFFF"></path><image xlink:href="../../882D9407-0E9A-4671-BAD5-0D440020B7AC/assets/FA7C829D7F09629A25CE6FF684498305.png" width="450.00" height="358.00" transform="matrix(0.47, 0.00, -0.00, -0.47, 426.0, 498.0)"></image></g></g><path d="M 0.0 126.0 L 127.2 9.9 L 129.0 8.2 " fill="none" stroke="#FF2600" stroke-width="5.00" stroke-linejoin="round" transform="matrix(1.00, 0.00, 0.00, -1.00, 270.0, 402.0)"></path><path d="M 392.3 397.5 L 408.0 402.0 L 402.1 386.7 Z M 392.3 397.5 " fill="#FF2600"></path><path d="M 0.0 0.0 L 140.3 157.1 L 141.9 159.0 " fill="none" stroke="#FF2600" stroke-width="5.00" stroke-linejoin="round" transform="matrix(1.00, 0.00, 0.00, -1.00, 270.0, 276.0)"></path><path d="M 415.7 123.8 L 420.0 108.0 L 404.8 114.0 Z M 415.7 123.8 " fill="#FF2600"></path><path d="M 36.5 173.5 L 241.5 173.5 L 241.5 110.5 L 36.5 110.5 Z M 36.0 174.0 " fill="#A8D6FF"></path><path d="M 0.5 0.5 L 205.5 0.5 L 205.5 63.5 L 0.5 63.5 Z M 0.0 0.0 " fill="none" stroke="#000000" stroke-width="1.00" transform="matrix(1.00, 0.00, 0.00, -1.00, 36.0, 174.0)"></path><g><clipPath id="clip0x7fd2de180b70"><path d="M 36.0 111.0 L 241.0 111.0 L 241.0 174.0 L 36.0 174.0 Z M 36.0 111.0 "></path></clipPath><g clip-path="url(#clip0x7fd2de180b70)"><text xml:space="preserve" font-family="ArialMT,Arial" font-size="16.0" fill="#000000" transform="matrix(1.00, 0.00, -0.00, -1.00, 43.7, 155.4)">“</text><text xml:space="preserve" font-family="ArialMT,Arial" font-size="16.0" fill="#000000" transform="matrix(1.00, 0.00, -0.00, -1.00, 49.0, 155.4)">I</text><text xml:space="preserve" font-family="ArialMT,Arial" font-size="16.0" fill="#000000" transform="matrix(1.00, 0.00, -0.00, -1.00, 53.5, 155.4)"> </text><text xml:space="preserve" font-family="ArialMT,Arial" font-size="16.0" fill="#000000" transform="matrix(1.00, 0.00, -0.00, -1.00, 57.9, 155.4)">a</text><text xml:space="preserve" font-family="ArialMT,Arial" font-size="16.0" fill="#000000" transform="matrix(1.00, 0.00, -0.00, -1.00, 66.8, 155.4)">m</text><text xml:space="preserve" font-family="ArialMT,Arial" font-size="16.0" fill="#000000" transform="matrix(1.00, 0.00, -0.00, -1.00, 80.1, 155.4)"> </text><text xml:space="preserve" font-family="ArialMT,Arial" font-size="16.0" fill="#000000" transform="matrix(1.00, 0.00, -0.00, -1.00, 84.6, 155.4)">a</text><text xml:space="preserve" font-family="ArialMT,Arial" font-size="16.0" fill="#000000" transform="matrix(1.00, 0.00, -0.00, -1.00, 93.5, 155.4)"> </text><text xml:space="preserve" font-family="ArialMT,Arial" font-size="16.0" fill="#000000" transform="matrix(1.00, 0.00, -0.00, -1.00, 97.9, 155.4)">m</text><text xml:space="preserve" font-family="ArialMT,Arial" font-size="16.0" fill="#000000" transform="matrix(1.00, 0.00, -0.00, -1.00, 111.3, 155.4)">a</text><text xml:space="preserve" font-family="ArialMT,Arial" font-size="16.0" fill="#000000" transform="matrix(1.00, 0.00, -0.00, -1.00, 120.2, 155.4)">l</text><text xml:space="preserve" font-family="ArialMT,Arial" font-size="16.0" fill="#000000" transform="matrix(1.00, 0.00, -0.00, -1.00, 123.7, 155.4)">e</text><text xml:space="preserve" font-family="ArialMT,Arial" font-size="16.0" fill="#000000" transform="matrix(1.00, 0.00, -0.00, -1.00, 132.6, 155.4)"> </text><text xml:space="preserve" font-family="ArialMT,Arial" font-size="16.0" fill="#000000" transform="matrix(1.00, 0.00, -0.00, -1.00, 137.1, 155.4)">b</text><text xml:space="preserve" font-family="ArialMT,Arial" font-size="16.0" fill="#000000" transform="matrix(1.00, 0.00, -0.00, -1.00, 146.0, 155.4)">u</text><text xml:space="preserve" font-family="ArialMT,Arial" font-size="16.0" fill="#000000" transform="matrix(1.00, 0.00, -0.00, -1.00, 154.9, 155.4)">l</text><text xml:space="preserve" font-family="ArialMT,Arial" font-size="16.0" fill="#000000" transform="matrix(1.00, 0.00, -0.00, -1.00, 158.4, 155.4)">l</text><text xml:space="preserve" font-family="ArialMT,Arial" font-size="16.0" fill="#000000" transform="matrix(1.00, 0.00, -0.00, -1.00, 162.0, 155.4)">f</text><text xml:space="preserve" font-family="ArialMT,Arial" font-size="16.0" fill="#000000" transform="matrix(1.00, 0.00, -0.00, -1.00, 166.4, 155.4)">r</text><text xml:space="preserve" font-family="ArialMT,Arial" font-size="16.0" fill="#000000" transform="matrix(1.00, 0.00, -0.00, -1.00, 171.7, 155.4)">o</text><text xml:space="preserve" font-family="ArialMT,Arial" font-size="16.0" fill="#000000" transform="matrix(1.00, 0.00, -0.00, -1.00, 180.7, 155.4)">g</text><text xml:space="preserve" font-family="ArialMT,Arial" font-size="16.0" fill="#000000" transform="matrix(1.00, 0.00, -0.00, -1.00, 189.6, 155.4)">,</text><text xml:space="preserve" font-family="ArialMT,Arial" font-size="16.0" fill="#000000" transform="matrix(1.00, 0.00, -0.00, -1.00, 194.0, 155.4)"> </text><text xml:space="preserve" font-family="ArialMT,Arial" font-size="16.0" fill="#000000" transform="matrix(1.00, 0.00, -0.00, -1.00, 198.4, 155.4)">i</text><text xml:space="preserve" font-family="ArialMT,Arial" font-size="16.0" fill="#000000" transform="matrix(1.00, 0.00, -0.00, -1.00, 202.0, 155.4)">n</text><text xml:space="preserve" font-family="ArialMT,Arial" font-size="16.0" fill="#000000" transform="matrix(1.00, 0.00, -0.00, -1.00, 210.9, 155.4)"> </text><text xml:space="preserve" font-family="ArialMT,Arial" font-size="16.0" fill="#000000" transform="matrix(1.00, 0.00, -0.00, -1.00, 43.7, 137.4)">g</text><text xml:space="preserve" font-family="ArialMT,Arial" font-size="16.0" fill="#000000" transform="matrix(1.00, 0.00, -0.00, -1.00, 52.6, 137.4)">o</text><text xml:space="preserve" font-family="ArialMT,Arial" font-size="16.0" fill="#000000" transform="matrix(1.00, 0.00, -0.00, -1.00, 61.5, 137.4)">o</text><text xml:space="preserve" font-family="ArialMT,Arial" font-size="16.0" fill="#000000" transform="matrix(1.00, 0.00, -0.00, -1.00, 70.4, 137.4)">d</text><text xml:space="preserve" font-family="ArialMT,Arial" font-size="16.0" fill="#000000" transform="matrix(1.00, 0.00, -0.00, -1.00, 79.3, 137.4)"> </text><text xml:space="preserve" font-family="ArialMT,Arial" font-size="16.0" fill="#000000" transform="matrix(1.00, 0.00, -0.00, -1.00, 83.7, 137.4)">c</text><text xml:space="preserve" font-family="ArialMT,Arial" font-size="16.0" fill="#000000" transform="matrix(1.00, 0.00, -0.00, -1.00, 91.7, 137.4)">o</text><text xml:space="preserve" font-family="ArialMT,Arial" font-size="16.0" fill="#000000" transform="matrix(1.00, 0.00, -0.00, -1.00, 100.7, 137.4)">n</text><text xml:space="preserve" font-family="ArialMT,Arial" font-size="16.0" fill="#000000" transform="matrix(1.00, 0.00, -0.00, -1.00, 109.6, 137.4)">d</text><text xml:space="preserve" font-family="ArialMT,Arial" font-size="16.0" fill="#000000" transform="matrix(1.00, 0.00, -0.00, -1.00, 118.5, 137.4)">i</text><text xml:space="preserve" font-family="ArialMT,Arial" font-size="16.0" fill="#000000" transform="matrix(1.00, 0.00, -0.00, -1.00, 122.0, 137.4)">t</text><text xml:space="preserve" font-family="ArialMT,Arial" font-size="16.0" fill="#000000" transform="matrix(1.00, 0.00, -0.00, -1.00, 126.5, 137.4)">i</text><text xml:space="preserve" font-family="ArialMT,Arial" font-size="16.0" fill="#000000" transform="matrix(1.00, 0.00, -0.00, -1.00, 130.0, 137.4)">o</text><text xml:space="preserve" font-family="ArialMT,Arial" font-size="16.0" fill="#000000" transform="matrix(1.00, 0.00, -0.00, -1.00, 138.9, 137.4)">n</text><text xml:space="preserve" font-family="ArialMT,Arial" font-size="16.0" fill="#000000" transform="matrix(1.00, 0.00, -0.00, -1.00, 147.8, 137.4)"> </text><text xml:space="preserve" font-family="ArialMT,Arial" font-size="16.0" fill="#000000" transform="matrix(1.00, 0.00, -0.00, -1.00, 152.3, 137.4)">a</text><text xml:space="preserve" font-family="ArialMT,Arial" font-size="16.0" fill="#000000" transform="matrix(1.00, 0.00, -0.00, -1.00, 161.2, 137.4)">n</text><text xml:space="preserve" font-family="ArialMT,Arial" font-size="16.0" fill="#000000" transform="matrix(1.00, 0.00, -0.00, -1.00, 170.1, 137.4)">d</text><text xml:space="preserve" font-family="ArialMT,Arial" font-size="16.0" fill="#000000" transform="matrix(1.00, 0.00, -0.00, -1.00, 179.0, 137.4)"> </text><text xml:space="preserve" font-family="ArialMT,Arial" font-size="16.0" fill="#000000" transform="matrix(1.00, 0.00, -0.00, -1.00, 183.4, 137.4)">r</text><text xml:space="preserve" font-family="ArialMT,Arial" font-size="16.0" fill="#000000" transform="matrix(1.00, 0.00, -0.00, -1.00, 188.7, 137.4)">e</text><text xml:space="preserve" font-family="ArialMT,Arial" font-size="16.0" fill="#000000" transform="matrix(1.00, 0.00, -0.00, -1.00, 197.6, 137.4)">a</text><text xml:space="preserve" font-family="ArialMT,Arial" font-size="16.0" fill="#000000" transform="matrix(1.00, 0.00, -0.00, -1.00, 206.5, 137.4)">d</text><text xml:space="preserve" font-family="ArialMT,Arial" font-size="16.0" fill="#000000" transform="matrix(1.00, 0.00, -0.00, -1.00, 215.4, 137.4)">y</text><text xml:space="preserve" font-family="ArialMT,Arial" font-size="16.0" fill="#000000" transform="matrix(1.00, 0.00, -0.00, -1.00, 223.4, 137.4)"> </text><text xml:space="preserve" font-family="ArialMT,Arial" font-size="16.0" fill="#000000" transform="matrix(1.00, 0.00, -0.00, -1.00, 43.7, 119.4)">t</text><text xml:space="preserve" font-family="ArialMT,Arial" font-size="16.0" fill="#000000" transform="matrix(1.00, 0.00, -0.00, -1.00, 48.1, 119.4)">o</text><text xml:space="preserve" font-family="ArialMT,Arial" font-size="16.0" fill="#000000" transform="matrix(1.00, 0.00, -0.00, -1.00, 57.0, 119.4)"> </text><text xml:space="preserve" font-family="ArialMT,Arial" font-size="16.0" fill="#000000" transform="matrix(1.00, 0.00, -0.00, -1.00, 61.5, 119.4)">m</text><text xml:space="preserve" font-family="ArialMT,Arial" font-size="16.0" fill="#000000" transform="matrix(1.00, 0.00, -0.00, -1.00, 74.8, 119.4)">a</text><text xml:space="preserve" font-family="ArialMT,Arial" font-size="16.0" fill="#000000" transform="matrix(1.00, 0.00, -0.00, -1.00, 83.7, 119.4)">t</text><text xml:space="preserve" font-family="ArialMT,Arial" font-size="16.0" fill="#000000" transform="matrix(1.00, 0.00, -0.00, -1.00, 88.2, 119.4)">e</text><text xml:space="preserve" font-family="ArialMT,Arial" font-size="16.0" fill="#000000" transform="matrix(1.00, 0.00, -0.00, -1.00, 97.1, 119.4)">,</text><text xml:space="preserve" font-family="ArialMT,Arial" font-size="16.0" fill="#000000" transform="matrix(1.00, 0.00, -0.00, -1.00, 101.5, 119.4)"> </text><text xml:space="preserve" font-family="ArialMT,Arial" font-size="16.0" fill="#000000" transform="matrix(1.00, 0.00, -0.00, -1.00, 105.9, 119.4)">r</text><text xml:space="preserve" font-family="ArialMT,Arial" font-size="16.0" fill="#000000" transform="matrix(1.00, 0.00, -0.00, -1.00, 111.3, 119.4)">i</text><text xml:space="preserve" font-family="ArialMT,Arial" font-size="16.0" fill="#000000" transform="matrix(1.00, 0.00, -0.00, -1.00, 114.8, 119.4)">g</text><text xml:space="preserve" font-family="ArialMT,Arial" font-size="16.0" fill="#000000" transform="matrix(1.00, 0.00, -0.00, -1.00, 123.7, 119.4)">h</text><text xml:space="preserve" font-family="ArialMT,Arial" font-size="16.0" fill="#000000" transform="matrix(1.00, 0.00, -0.00, -1.00, 132.6, 119.4)">t</text><text xml:space="preserve" font-family="ArialMT,Arial" font-size="16.0" fill="#000000" transform="matrix(1.00, 0.00, -0.00, -1.00, 137.1, 119.4)"> </text><text xml:space="preserve" font-family="ArialMT,Arial" font-size="16.0" fill="#000000" transform="matrix(1.00, 0.00, -0.00, -1.00, 141.5, 119.4)">o</text><text xml:space="preserve" font-family="ArialMT,Arial" font-size="16.0" fill="#000000" transform="matrix(1.00, 0.00, -0.00, -1.00, 150.4, 119.4)">v</text><text xml:space="preserve" font-family="ArialMT,Arial" font-size="16.0" fill="#000000" transform="matrix(1.00, 0.00, -0.00, -1.00, 158.4, 119.4)">e</text><text xml:space="preserve" font-family="ArialMT,Arial" font-size="16.0" fill="#000000" transform="matrix(1.00, 0.00, -0.00, -1.00, 167.3, 119.4)">r</text><text xml:space="preserve" font-family="ArialMT,Arial" font-size="16.0" fill="#000000" transform="matrix(1.00, 0.00, -0.00, -1.00, 172.6, 119.4)"> </text><text xml:space="preserve" font-family="ArialMT,Arial" font-size="16.0" fill="#000000" transform="matrix(1.00, 0.00, -0.00, -1.00, 177.1, 119.4)">h</text><text xml:space="preserve" font-family="ArialMT,Arial" font-size="16.0" fill="#000000" transform="matrix(1.00, 0.00, -0.00, -1.00, 186.0, 119.4)">e</text><text xml:space="preserve" font-family="ArialMT,Arial" font-size="16.0" fill="#000000" transform="matrix(1.00, 0.00, -0.00, -1.00, 194.9, 119.4)">r</text><text xml:space="preserve" font-family="ArialMT,Arial" font-size="16.0" fill="#000000" transform="matrix(1.00, 0.00, -0.00, -1.00, 200.2, 119.4)">e</text><text xml:space="preserve" font-family="ArialMT,Arial" font-size="16.0" fill="#000000" transform="matrix(1.00, 0.00, -0.00, -1.00, 209.1, 119.4)">.</text><text xml:space="preserve" font-family="ArialMT,Arial" font-size="16.0" fill="#000000" transform="matrix(1.00, 0.00, -0.00, -1.00, 213.6, 119.4)">”</text></g></g><path d="M 430.5 323.5 L 635.5 323.5 L 635.5 278.5 L 430.5 278.5 Z M 430.8 323.8 " fill="#FFD5A9"></path><path d="M -0.2 0.2 L 204.8 0.2 L 204.8 45.2 L -0.2 45.2 Z M 0.0 0.0 " fill="none" stroke="#000000" stroke-width="1.00" transform="matrix(1.00, 0.00, 0.00, -1.00, 430.8, 323.8)"></path><g><clipPath id="clip0x7fd2de19b830"><path d="M 430.8 278.8 L 635.7 278.8 L 635.7 323.7 L 430.8 323.7 Z M 430.8 278.8 "></path></clipPath><g clip-path="url(#clip0x7fd2de19b830)"><text xml:space="preserve" font-family="ArialMT,Arial" font-size="16.0" fill="#000000" transform="matrix(1.00, 0.00, -0.00, -1.00, 438.4, 305.2)">“</text><text xml:space="preserve" font-family="ArialMT,Arial" font-size="16.0" fill="#000000" transform="matrix(1.00, 0.00, -0.00, -1.00, 443.8, 305.2)">I</text><text xml:space="preserve" font-family="ArialMT,Arial" font-size="16.0" fill="#000000" transform="matrix(1.00, 0.00, -0.00, -1.00, 448.2, 305.2)">’</text><text xml:space="preserve" font-family="ArialMT,Arial" font-size="16.0" fill="#000000" transform="matrix(1.00, 0.00, -0.00, -1.00, 451.8, 305.2)">m</text><text xml:space="preserve" font-family="ArialMT,Arial" font-size="16.0" fill="#000000" transform="matrix(1.00, 0.00, -0.00, -1.00, 465.1, 305.2)"> </text><text xml:space="preserve" font-family="ArialMT,Arial" font-size="16.0" fill="#000000" transform="matrix(1.00, 0.00, -0.00, -1.00, 469.5, 305.2)">a</text><text xml:space="preserve" font-family="ArialMT,Arial" font-size="16.0" fill="#000000" transform="matrix(1.00, 0.00, -0.00, -1.00, 478.4, 305.2)">n</text><text xml:space="preserve" font-family="ArialMT,Arial" font-size="16.0" fill="#000000" transform="matrix(1.00, 0.00, -0.00, -1.00, 487.4, 305.2)">o</text><text xml:space="preserve" font-family="ArialMT,Arial" font-size="16.0" fill="#000000" transform="matrix(1.00, 0.00, -0.00, -1.00, 496.3, 305.2)">t</text><text xml:space="preserve" font-family="ArialMT,Arial" font-size="16.0" fill="#000000" transform="matrix(1.00, 0.00, -0.00, -1.00, 500.7, 305.2)">h</text><text xml:space="preserve" font-family="ArialMT,Arial" font-size="16.0" fill="#000000" transform="matrix(1.00, 0.00, -0.00, -1.00, 509.6, 305.2)">e</text><text xml:space="preserve" font-family="ArialMT,Arial" font-size="16.0" fill="#000000" transform="matrix(1.00, 0.00, -0.00, -1.00, 518.5, 305.2)">r</text><text xml:space="preserve" font-family="ArialMT,Arial" font-size="16.0" fill="#000000" transform="matrix(1.00, 0.00, -0.00, -1.00, 523.8, 305.2)"> </text><text xml:space="preserve" font-family="ArialMT,Arial" font-size="16.0" fill="#000000" transform="matrix(1.00, 0.00, -0.00, -1.00, 528.3, 305.2)">m</text><text xml:space="preserve" font-family="ArialMT,Arial" font-size="16.0" fill="#000000" transform="matrix(1.00, 0.00, -0.00, -1.00, 541.6, 305.2)">a</text><text xml:space="preserve" font-family="ArialMT,Arial" font-size="16.0" fill="#000000" transform="matrix(1.00, 0.00, -0.00, -1.00, 550.5, 305.2)">l</text><text xml:space="preserve" font-family="ArialMT,Arial" font-size="16.0" fill="#000000" transform="matrix(1.00, 0.00, -0.00, -1.00, 554.1, 305.2)">e</text><text xml:space="preserve" font-family="ArialMT,Arial" font-size="16.0" fill="#000000" transform="matrix(1.00, 0.00, -0.00, -1.00, 563.0, 305.2)">,</text><text xml:space="preserve" font-family="ArialMT,Arial" font-size="16.0" fill="#000000" transform="matrix(1.00, 0.00, -0.00, -1.00, 567.4, 305.2)"> </text><text xml:space="preserve" font-family="ArialMT,Arial" font-size="16.0" fill="#000000" transform="matrix(1.00, 0.00, -0.00, -1.00, 571.8, 305.2)">a</text><text xml:space="preserve" font-family="ArialMT,Arial" font-size="16.0" fill="#000000" transform="matrix(1.00, 0.00, -0.00, -1.00, 580.7, 305.2)">n</text><text xml:space="preserve" font-family="ArialMT,Arial" font-size="16.0" fill="#000000" transform="matrix(1.00, 0.00, -0.00, -1.00, 589.6, 305.2)">d</text><text xml:space="preserve" font-family="ArialMT,Arial" font-size="16.0" fill="#000000" transform="matrix(1.00, 0.00, -0.00, -1.00, 598.5, 305.2)"> </text><text xml:space="preserve" font-family="ArialMT,Arial" font-size="16.0" fill="#000000" transform="matrix(1.00, 0.00, -0.00, -1.00, 603.0, 305.2)">t</text><text xml:space="preserve" font-family="ArialMT,Arial" font-size="16.0" fill="#000000" transform="matrix(1.00, 0.00, -0.00, -1.00, 607.4, 305.2)">h</text><text xml:space="preserve" font-family="ArialMT,Arial" font-size="16.0" fill="#000000" transform="matrix(1.00, 0.00, -0.00, -1.00, 616.3, 305.2)">i</text><text xml:space="preserve" font-family="ArialMT,Arial" font-size="16.0" fill="#000000" transform="matrix(1.00, 0.00, -0.00, -1.00, 619.9, 305.2)">s</text><text xml:space="preserve" font-family="ArialMT,Arial" font-size="16.0" fill="#000000" transform="matrix(1.00, 0.00, -0.00, -1.00, 627.9, 305.2)"> </text><text xml:space="preserve" font-family="ArialMT,Arial" font-size="16.0" fill="#000000" transform="matrix(1.00, 0.00, -0.00, -1.00, 438.4, 287.2)">i</text><text xml:space="preserve" font-family="ArialMT,Arial" font-size="16.0" fill="#000000" transform="matrix(1.00, 0.00, -0.00, -1.00, 442.0, 287.2)">s</text><text xml:space="preserve" font-family="ArialMT,Arial" font-size="16.0" fill="#000000" transform="matrix(1.00, 0.00, -0.00, -1.00, 450.0, 287.2)"> </text><text xml:space="preserve" font-family="ArialMT,Arial" font-size="16.0" fill="#000000" transform="matrix(1.00, 0.00, -0.00, -1.00, 454.4, 287.2)">m</text><text xml:space="preserve" font-family="ArialMT,Arial" font-size="16.0" fill="#000000" transform="matrix(1.00, 0.00, -0.00, -1.00, 467.8, 287.2)">y</text><text xml:space="preserve" font-family="ArialMT,Arial" font-size="16.0" fill="#000000" transform="matrix(1.00, 0.00, -0.00, -1.00, 475.8, 287.2)"> </text><text xml:space="preserve" font-family="ArialMT,Arial" font-size="16.0" fill="#000000" transform="matrix(1.00, 0.00, -0.00, -1.00, 480.2, 287.2)">t</text><text xml:space="preserve" font-family="ArialMT,Arial" font-size="16.0" fill="#000000" transform="matrix(1.00, 0.00, -0.00, -1.00, 484.7, 287.2)">e</text><text xml:space="preserve" font-family="ArialMT,Arial" font-size="16.0" fill="#000000" transform="matrix(1.00, 0.00, -0.00, -1.00, 493.6, 287.2)">r</text><text xml:space="preserve" font-family="ArialMT,Arial" font-size="16.0" fill="#000000" transform="matrix(1.00, 0.00, -0.00, -1.00, 498.9, 287.2)">r</text><text xml:space="preserve" font-family="ArialMT,Arial" font-size="16.0" fill="#000000" transform="matrix(1.00, 0.00, -0.00, -1.00, 504.2, 287.2)">i</text><text xml:space="preserve" font-family="ArialMT,Arial" font-size="16.0" fill="#000000" transform="matrix(1.00, 0.00, -0.00, -1.00, 507.8, 287.2)">t</text><text xml:space="preserve" font-family="ArialMT,Arial" font-size="16.0" fill="#000000" transform="matrix(1.00, 0.00, -0.00, -1.00, 512.2, 287.2)">o</text><text xml:space="preserve" font-family="ArialMT,Arial" font-size="16.0" fill="#000000" transform="matrix(1.00, 0.00, -0.00, -1.00, 521.1, 287.2)">r</text><text xml:space="preserve" font-family="ArialMT,Arial" font-size="16.0" fill="#000000" transform="matrix(1.00, 0.00, -0.00, -1.00, 526.5, 287.2)">y</text><text xml:space="preserve" font-family="ArialMT,Arial" font-size="16.0" fill="#000000" transform="matrix(1.00, 0.00, -0.00, -1.00, 533.3, 287.2)">.</text><text xml:space="preserve" font-family="ArialMT,Arial" font-size="16.0" fill="#000000" transform="matrix(1.00, 0.00, -0.00, -1.00, 537.7, 287.2)">”</text></g></g><text xml:space="preserve" font-family="ArialMT,Arial" font-size="24.0" fill="#000000" transform="matrix(1.00, 0.00, -0.00, -1.00, 666.0, 420.7)">M</text><text xml:space="preserve" font-family="ArialMT,Arial" font-size="24.0" fill="#000000" transform="matrix(1.00, 0.00, -0.00, -1.00, 672.0, 120.7)">F</text></g></svg>