<?xml version="1.0" encoding="UTF-8" standalone="no"?><svg xmlns="http://www.w3.org/2000/svg" xmlns:xlink="http://www.w3.org/1999/xlink" clip-rule="evenodd" stroke-miterlimit="10" viewBox="0 0 1024 768"><desc>SVG generated by Keynote</desc><defs></defs><g transform="matrix(1.00, 0.00, -0.00, -1.00, 0.0, 768.0)"><path d="M 0.0 768.0 L 1024.0 768.0 L 1024.0 0.0 L 0.0 0.0 Z M 0.0 768.0 " fill="#FEFFFF"></path><text xml:space="preserve" font-family="ArialMT,Arial" font-size="62.0" fill="#000000" transform="matrix(1.00, 0.00, -0.00, -1.00, 105.9, 614.2)">A</text><text xml:space="preserve" font-family="ArialMT,Arial" font-size="62.0" fill="#000000" transform="matrix(1.00, 0.00, -0.00, -1.00, 147.3, 614.2)">d</text><text xml:space="preserve" font-family="ArialMT,Arial" font-size="62.0" fill="#000000" transform="matrix(1.00, 0.00, -0.00, -1.00, 181.7, 614.2)">a</text><text xml:space="preserve" font-family="ArialMT,Arial" font-size="62.0" fill="#000000" transform="matrix(1.00, 0.00, -0.00, -1.00, 216.2, 614.2)">p</text><text xml:space="preserve" font-family="ArialMT,Arial" font-size="62.0" fill="#000000" transform="matrix(1.00, 0.00, -0.00, -1.00, 250.7, 614.2)">t</text><text xml:space="preserve" font-family="ArialMT,Arial" font-size="62.0" fill="#000000" transform="matrix(1.00, 0.00, -0.00, -1.00, 267.9, 614.2)">i</text><text xml:space="preserve" font-family="ArialMT,Arial" font-size="62.0" fill="#000000" transform="matrix(1.00, 0.00, -0.00, -1.00, 281.7, 614.2)">v</text><text xml:space="preserve" font-family="ArialMT,Arial" font-size="62.0" fill="#000000" transform="matrix(1.00, 0.00, -0.00, -1.00, 312.7, 614.2)">e</text><text xml:space="preserve" font-family="ArialMT,Arial" font-size="62.0" fill="#000000" transform="matrix(1.00, 0.00, -0.00, -1.00, 347.2, 614.2)"> </text><text xml:space="preserve" font-family="ArialMT,Arial" font-size="62.0" fill="#000000" transform="matrix(1.00, 0.00, -0.00, -1.00, 364.4, 614.2)">E</text><text xml:space="preserve" font-family="ArialMT,Arial" font-size="62.0" fill="#000000" transform="matrix(1.00, 0.00, -0.00, -1.00, 405.8, 614.2)">x</text><text xml:space="preserve" font-family="ArialMT,Arial" font-size="62.0" fill="#000000" transform="matrix(1.00, 0.00, -0.00, -1.00, 436.8, 614.2)">p</text><text xml:space="preserve" font-family="ArialMT,Arial" font-size="62.0" fill="#000000" transform="matrix(1.00, 0.00, -0.00, -1.00, 471.3, 614.2)">l</text><text xml:space="preserve" font-family="ArialMT,Arial" font-size="62.0" fill="#000000" transform="matrix(1.00, 0.00, -0.00, -1.00, 485.1, 614.2)">a</text><text xml:space="preserve" font-family="ArialMT,Arial" font-size="62.0" fill="#000000" transform="matrix(1.00, 0.00, -0.00, -1.00, 519.6, 614.2)">n</text><text xml:space="preserve" font-family="ArialMT,Arial" font-size="62.0" fill="#000000" transform="matrix(1.00, 0.00, -0.00, -1.00, 554.1, 614.2)">a</text><text xml:space="preserve" font-family="ArialMT,Arial" font-size="62.0" fill="#000000" transform="matrix(1.00, 0.00, -0.00, -1.00, 588.6, 614.2)">t</text><text xml:space="preserve" font-family="ArialMT,Arial" font-size="62.0" fill="#000000" transform="matrix(1.00, 0.00, -0.00, -1.00, 605.8, 614.2)">i</text><text xml:space="preserve" font-family="ArialMT,Arial" font-size="62.0" fill="#000000" transform="matrix(1.00, 0.00, -0.00, -1.00, 619.6, 614.2)">o</text><text xml:space="preserve" font-family="ArialMT,Arial" font-size="62.0" fill="#000000" transform="matrix(1.00, 0.00, -0.00, -1.00, 654.0, 614.2)">n</text><text xml:space="preserve" font-family="ArialMT,Arial" font-size="62.0" fill="#000000" transform="matrix(1.00, 0.00, -0.00, -1.00, 688.5, 614.2)"> </text><text xml:space="preserve" font-family="ArialMT,Arial" font-size="62.0" fill="#000000" transform="matrix(1.00, 0.00, -0.00, -1.00, 705.8, 614.2)">f</text><text xml:space="preserve" font-family="ArialMT,Arial" font-size="62.0" fill="#000000" transform="matrix(1.00, 0.00, -0.00, -1.00, 723.0, 614.2)">o</text><text xml:space="preserve" font-family="ArialMT,Arial" font-size="62.0" fill="#000000" transform="matrix(1.00, 0.00, -0.00, -1.00, 757.5, 614.2)">r</text><text xml:space="preserve" font-family="ArialMT,Arial" font-size="62.0" fill="#000000" transform="matrix(1.00, 0.00, -0.00, -1.00, 778.1, 614.2)"> </text><text xml:space="preserve" font-family="ArialMT,Arial" font-size="62.0" fill="#000000" transform="matrix(1.00, 0.00, -0.00, -1.00, 794.2, 614.2)">T</text><text xml:space="preserve" font-family="ArialMT,Arial" font-size="62.0" fill="#000000" transform="matrix(1.00, 0.00, -0.00, -1.00, 832.1, 614.2)">S</text><text xml:space="preserve" font-family="ArialMT,Arial" font-size="62.0" fill="#000000" transform="matrix(1.00, 0.00, -0.00, -1.00, 873.4, 614.2)">D</text><text xml:space="preserve" font-family="ArialMT,Arial" font-size="44.0" fill="#000000" transform="matrix(1.00, 0.00, -0.00, -1.00, 84.2, 502.8)">•</text><text xml:space="preserve" font-family="ArialMT,Arial" font-size="44.0" fill="#000000" transform="matrix(1.00, 0.00, -0.00, -1.00, 111.2, 502.8)">F</text><text xml:space="preserve" font-family="ArialMT,Arial" font-size="44.0" fill="#000000" transform="matrix(1.00, 0.00, -0.00, -1.00, 138.1, 502.8)">i</text><text xml:space="preserve" font-family="ArialMT,Arial" font-size="44.0" fill="#000000" transform="matrix(1.00, 0.00, -0.00, -1.00, 147.9, 502.8)">t</text><text xml:space="preserve" font-family="ArialMT,Arial" font-size="44.0" fill="#000000" transform="matrix(1.00, 0.00, -0.00, -1.00, 160.1, 502.8)">n</text><text xml:space="preserve" font-family="ArialMT,Arial" font-size="44.0" fill="#000000" transform="matrix(1.00, 0.00, -0.00, -1.00, 184.5, 502.8)">e</text><text xml:space="preserve" font-family="ArialMT,Arial" font-size="44.0" fill="#000000" transform="matrix(1.00, 0.00, -0.00, -1.00, 209.0, 502.8)">s</text><text xml:space="preserve" font-family="ArialMT,Arial" font-size="44.0" fill="#000000" transform="matrix(1.00, 0.00, -0.00, -1.00, 231.0, 502.8)">s</text><text xml:space="preserve" font-family="ArialMT,Arial" font-size="44.0" fill="#000000" transform="matrix(1.00, 0.00, -0.00, -1.00, 253.0, 502.8)"> </text><text xml:space="preserve" font-family="ArialMT,Arial" font-size="44.0" fill="#000000" transform="matrix(1.00, 0.00, -0.00, -1.00, 265.2, 502.8)">o</text><text xml:space="preserve" font-family="ArialMT,Arial" font-size="44.0" fill="#000000" transform="matrix(1.00, 0.00, -0.00, -1.00, 289.7, 502.8)">f</text><text xml:space="preserve" font-family="ArialMT,Arial" font-size="44.0" fill="#000000" transform="matrix(1.00, 0.00, -0.00, -1.00, 301.9, 502.8)"> </text><text xml:space="preserve" font-family="ArialMT,Arial" font-size="44.0" fill="#000000" transform="matrix(1.00, 0.00, -0.00, -1.00, 314.2, 502.8)">e</text><text xml:space="preserve" font-family="ArialMT,Arial" font-size="44.0" fill="#000000" transform="matrix(1.00, 0.00, -0.00, -1.00, 338.6, 502.8)">a</text><text xml:space="preserve" font-family="ArialMT,Arial" font-size="44.0" fill="#000000" transform="matrix(1.00, 0.00, -0.00, -1.00, 363.1, 502.8)">c</text><text xml:space="preserve" font-family="ArialMT,Arial" font-size="44.0" fill="#000000" transform="matrix(1.00, 0.00, -0.00, -1.00, 385.1, 502.8)">h</text><text xml:space="preserve" font-family="ArialMT,Arial" font-size="44.0" fill="#000000" transform="matrix(1.00, 0.00, -0.00, -1.00, 409.6, 502.8)"> </text><text xml:space="preserve" font-family="ArialMT,Arial" font-size="44.0" fill="#000000" transform="matrix(1.00, 0.00, -0.00, -1.00, 421.8, 502.8)">s</text><text xml:space="preserve" font-family="ArialMT,Arial" font-size="44.0" fill="#000000" transform="matrix(1.00, 0.00, -0.00, -1.00, 443.8, 502.8)">e</text><text xml:space="preserve" font-family="ArialMT,Arial" font-size="44.0" fill="#000000" transform="matrix(1.00, 0.00, -0.00, -1.00, 468.3, 502.8)">x</text><text xml:space="preserve" font-family="ArialMT,Arial" font-size="44.0" fill="#000000" transform="matrix(1.00, 0.00, -0.00, -1.00, 490.3, 502.8)"> </text><text xml:space="preserve" font-family="ArialMT,Arial" font-size="44.0" fill="#000000" transform="matrix(1.00, 0.00, -0.00, -1.00, 502.5, 502.8)">r</text><text xml:space="preserve" font-family="ArialMT,Arial" font-size="44.0" fill="#000000" transform="matrix(1.00, 0.00, -0.00, -1.00, 517.2, 502.8)">e</text><text xml:space="preserve" font-family="ArialMT,Arial" font-size="44.0" fill="#000000" transform="matrix(1.00, 0.00, -0.00, -1.00, 541.6, 502.8)">s</text><text xml:space="preserve" font-family="ArialMT,Arial" font-size="44.0" fill="#000000" transform="matrix(1.00, 0.00, -0.00, -1.00, 563.6, 502.8)">p</text><text xml:space="preserve" font-family="ArialMT,Arial" font-size="44.0" fill="#000000" transform="matrix(1.00, 0.00, -0.00, -1.00, 588.1, 502.8)">o</text><text xml:space="preserve" font-family="ArialMT,Arial" font-size="44.0" fill="#000000" transform="matrix(1.00, 0.00, -0.00, -1.00, 612.6, 502.8)">n</text><text xml:space="preserve" font-family="ArialMT,Arial" font-size="44.0" fill="#000000" transform="matrix(1.00, 0.00, -0.00, -1.00, 637.1, 502.8)">d</text><text xml:space="preserve" font-family="ArialMT,Arial" font-size="44.0" fill="#000000" transform="matrix(1.00, 0.00, -0.00, -1.00, 661.6, 502.8)">s</text><text xml:space="preserve" font-family="ArialMT,Arial" font-size="44.0" fill="#000000" transform="matrix(1.00, 0.00, -0.00, -1.00, 683.6, 502.8)"> </text><text xml:space="preserve" font-family="ArialMT,Arial" font-size="44.0" fill="#000000" transform="matrix(1.00, 0.00, -0.00, -1.00, 695.8, 502.8)">d</text><text xml:space="preserve" font-family="ArialMT,Arial" font-size="44.0" fill="#000000" transform="matrix(1.00, 0.00, -0.00, -1.00, 720.2, 502.8)">i</text><text xml:space="preserve" font-family="ArialMT,Arial" font-size="44.0" fill="#000000" transform="matrix(1.00, 0.00, -0.00, -1.00, 730.0, 502.8)">f</text><text xml:space="preserve" font-family="ArialMT,Arial" font-size="44.0" fill="#000000" transform="matrix(1.00, 0.00, -0.00, -1.00, 741.5, 502.8)">f</text><text xml:space="preserve" font-family="ArialMT,Arial" font-size="44.0" fill="#000000" transform="matrix(1.00, 0.00, -0.00, -1.00, 753.7, 502.8)">e</text><text xml:space="preserve" font-family="ArialMT,Arial" font-size="44.0" fill="#000000" transform="matrix(1.00, 0.00, -0.00, -1.00, 778.2, 502.8)">r</text><text xml:space="preserve" font-family="ArialMT,Arial" font-size="44.0" fill="#000000" transform="matrix(1.00, 0.00, -0.00, -1.00, 792.8, 502.8)">e</text><text xml:space="preserve" font-family="ArialMT,Arial" font-size="44.0" fill="#000000" transform="matrix(1.00, 0.00, -0.00, -1.00, 817.3, 502.8)">n</text><text xml:space="preserve" font-family="ArialMT,Arial" font-size="44.0" fill="#000000" transform="matrix(1.00, 0.00, -0.00, -1.00, 841.8, 502.8)">t</text><text xml:space="preserve" font-family="ArialMT,Arial" font-size="44.0" fill="#000000" transform="matrix(1.00, 0.00, -0.00, -1.00, 854.0, 502.8)">l</text><text xml:space="preserve" font-family="ArialMT,Arial" font-size="44.0" fill="#000000" transform="matrix(1.00, 0.00, -0.00, -1.00, 863.8, 502.8)">y</text><text xml:space="preserve" font-family="ArialMT,Arial" font-size="44.0" fill="#000000" transform="matrix(1.00, 0.00, -0.00, -1.00, 885.8, 502.8)"> </text><text xml:space="preserve" font-family="ArialMT,Arial" font-size="44.0" fill="#000000" transform="matrix(1.00, 0.00, -0.00, -1.00, 898.0, 502.8)">t</text><text xml:space="preserve" font-family="ArialMT,Arial" font-size="44.0" fill="#000000" transform="matrix(1.00, 0.00, -0.00, -1.00, 910.2, 502.8)">o</text><text xml:space="preserve" font-family="ArialMT,Arial" font-size="44.0" fill="#000000" transform="matrix(1.00, 0.00, -0.00, -1.00, 934.7, 502.8)"> </text><text xml:space="preserve" font-family="ArialMT,Arial" font-size="44.0" fill="#000000" transform="matrix(1.00, 0.00, -0.00, -1.00, 111.2, 452.8)">i</text><text xml:space="preserve" font-family="ArialMT,Arial" font-size="44.0" fill="#000000" transform="matrix(1.00, 0.00, -0.00, -1.00, 121.0, 452.8)">n</text><text xml:space="preserve" font-family="ArialMT,Arial" font-size="44.0" fill="#000000" transform="matrix(1.00, 0.00, -0.00, -1.00, 145.5, 452.8)">c</text><text xml:space="preserve" font-family="ArialMT,Arial" font-size="44.0" fill="#000000" transform="matrix(1.00, 0.00, -0.00, -1.00, 167.5, 452.8)">u</text><text xml:space="preserve" font-family="ArialMT,Arial" font-size="44.0" fill="#000000" transform="matrix(1.00, 0.00, -0.00, -1.00, 191.9, 452.8)">b</text><text xml:space="preserve" font-family="ArialMT,Arial" font-size="44.0" fill="#000000" transform="matrix(1.00, 0.00, -0.00, -1.00, 216.4, 452.8)">a</text><text xml:space="preserve" font-family="ArialMT,Arial" font-size="44.0" fill="#000000" transform="matrix(1.00, 0.00, -0.00, -1.00, 240.9, 452.8)">t</text><text xml:space="preserve" font-family="ArialMT,Arial" font-size="44.0" fill="#000000" transform="matrix(1.00, 0.00, -0.00, -1.00, 253.1, 452.8)">i</text><text xml:space="preserve" font-family="ArialMT,Arial" font-size="44.0" fill="#000000" transform="matrix(1.00, 0.00, -0.00, -1.00, 262.9, 452.8)">o</text><text xml:space="preserve" font-family="ArialMT,Arial" font-size="44.0" fill="#000000" transform="matrix(1.00, 0.00, -0.00, -1.00, 287.4, 452.8)">n</text><text xml:space="preserve" font-family="ArialMT,Arial" font-size="44.0" fill="#000000" transform="matrix(1.00, 0.00, -0.00, -1.00, 311.9, 452.8)"> </text><text xml:space="preserve" font-family="ArialMT,Arial" font-size="44.0" fill="#000000" transform="matrix(1.00, 0.00, -0.00, -1.00, 324.1, 452.8)">t</text><text xml:space="preserve" font-family="ArialMT,Arial" font-size="44.0" fill="#000000" transform="matrix(1.00, 0.00, -0.00, -1.00, 336.3, 452.8)">e</text><text xml:space="preserve" font-family="ArialMT,Arial" font-size="44.0" fill="#000000" transform="matrix(1.00, 0.00, -0.00, -1.00, 360.8, 452.8)">m</text><text xml:space="preserve" font-family="ArialMT,Arial" font-size="44.0" fill="#000000" transform="matrix(1.00, 0.00, -0.00, -1.00, 397.4, 452.8)">p</text><text xml:space="preserve" font-family="ArialMT,Arial" font-size="44.0" fill="#000000" transform="matrix(1.00, 0.00, -0.00, -1.00, 421.9, 452.8)">e</text><text xml:space="preserve" font-family="ArialMT,Arial" font-size="44.0" fill="#000000" transform="matrix(1.00, 0.00, -0.00, -1.00, 446.4, 452.8)">r</text><text xml:space="preserve" font-family="ArialMT,Arial" font-size="44.0" fill="#000000" transform="matrix(1.00, 0.00, -0.00, -1.00, 461.0, 452.8)">a</text><text xml:space="preserve" font-family="ArialMT,Arial" font-size="44.0" fill="#000000" transform="matrix(1.00, 0.00, -0.00, -1.00, 485.5, 452.8)">t</text><text xml:space="preserve" font-family="ArialMT,Arial" font-size="44.0" fill="#000000" transform="matrix(1.00, 0.00, -0.00, -1.00, 497.7, 452.8)">u</text><text xml:space="preserve" font-family="ArialMT,Arial" font-size="44.0" fill="#000000" transform="matrix(1.00, 0.00, -0.00, -1.00, 522.2, 452.8)">r</text><text xml:space="preserve" font-family="ArialMT,Arial" font-size="44.0" fill="#000000" transform="matrix(1.00, 0.00, -0.00, -1.00, 536.9, 452.8)">e</text><text xml:space="preserve" font-family="ArialMT,Arial" font-size="44.0" fill="#000000" transform="matrix(1.00, 0.00, -0.00, -1.00, 561.3, 452.8)"> </text><text xml:space="preserve" font-family="ArialMT,Arial" font-size="44.0" fill="#000000" transform="matrix(1.00, 0.00, -0.00, -1.00, 84.2, 392.2)">•</text><text xml:space="preserve" font-family="ArialMT,Arial" font-size="44.0" fill="#000000" transform="matrix(1.00, 0.00, -0.00, -1.00, 111.2, 392.2)">F</text><text xml:space="preserve" font-family="ArialMT,Arial" font-size="44.0" fill="#000000" transform="matrix(1.00, 0.00, -0.00, -1.00, 138.1, 392.2)">o</text><text xml:space="preserve" font-family="ArialMT,Arial" font-size="44.0" fill="#000000" transform="matrix(1.00, 0.00, -0.00, -1.00, 162.5, 392.2)">r</text><text xml:space="preserve" font-family="ArialMT,Arial" font-size="44.0" fill="#000000" transform="matrix(1.00, 0.00, -0.00, -1.00, 177.2, 392.2)"> </text><text xml:space="preserve" font-family="ArialMT,Arial" font-size="44.0" fill="#000000" transform="matrix(1.00, 0.00, -0.00, -1.00, 189.4, 392.2)">e</text><text xml:space="preserve" font-family="ArialMT,Arial" font-size="44.0" fill="#000000" transform="matrix(1.00, 0.00, -0.00, -1.00, 213.9, 392.2)">x</text><text xml:space="preserve" font-family="ArialMT,Arial" font-size="44.0" fill="#000000" transform="matrix(1.00, 0.00, -0.00, -1.00, 235.9, 392.2)">a</text><text xml:space="preserve" font-family="ArialMT,Arial" font-size="44.0" fill="#000000" transform="matrix(1.00, 0.00, -0.00, -1.00, 260.4, 392.2)">m</text><text xml:space="preserve" font-family="ArialMT,Arial" font-size="44.0" fill="#000000" transform="matrix(1.00, 0.00, -0.00, -1.00, 297.0, 392.2)">p</text><text xml:space="preserve" font-family="ArialMT,Arial" font-size="44.0" fill="#000000" transform="matrix(1.00, 0.00, -0.00, -1.00, 321.5, 392.2)">l</text><text xml:space="preserve" font-family="ArialMT,Arial" font-size="44.0" fill="#000000" transform="matrix(1.00, 0.00, -0.00, -1.00, 331.3, 392.2)">e</text><text xml:space="preserve" font-family="ArialMT,Arial" font-size="44.0" fill="#000000" transform="matrix(1.00, 0.00, -0.00, -1.00, 355.8, 392.2)">,</text><text xml:space="preserve" font-family="ArialMT,Arial" font-size="44.0" fill="#000000" transform="matrix(1.00, 0.00, -0.00, -1.00, 368.0, 392.2)"> </text><text xml:space="preserve" font-family="ArialMT,Arial" font-size="44.0" fill="#000000" transform="matrix(1.00, 0.00, -0.00, -1.00, 380.2, 392.2)">i</text><text xml:space="preserve" font-family="ArialMT,Arial" font-size="44.0" fill="#000000" transform="matrix(1.00, 0.00, -0.00, -1.00, 390.0, 392.2)">f</text><text xml:space="preserve" font-family="ArialMT,Arial" font-size="44.0" fill="#000000" transform="matrix(1.00, 0.00, -0.00, -1.00, 402.2, 392.2)"> </text><text xml:space="preserve" font-family="ArialMT,Arial" font-size="44.0" fill="#000000" transform="matrix(1.00, 0.00, -0.00, -1.00, 414.4, 392.2)">b</text><text xml:space="preserve" font-family="ArialMT,Arial" font-size="44.0" fill="#000000" transform="matrix(1.00, 0.00, -0.00, -1.00, 438.9, 392.2)">i</text><text xml:space="preserve" font-family="ArialMT,Arial" font-size="44.0" fill="#000000" transform="matrix(1.00, 0.00, -0.00, -1.00, 448.7, 392.2)">g</text><text xml:space="preserve" font-family="ArialMT,Arial" font-size="44.0" fill="#000000" transform="matrix(1.00, 0.00, -0.00, -1.00, 473.2, 392.2)">g</text><text xml:space="preserve" font-family="ArialMT,Arial" font-size="44.0" fill="#000000" transform="matrix(1.00, 0.00, -0.00, -1.00, 497.6, 392.2)">e</text><text xml:space="preserve" font-family="ArialMT,Arial" font-size="44.0" fill="#000000" transform="matrix(1.00, 0.00, -0.00, -1.00, 522.1, 392.2)">r</text><text xml:space="preserve" font-family="ArialMT,Arial" font-size="44.0" fill="#000000" transform="matrix(1.00, 0.00, -0.00, -1.00, 536.8, 392.2)"> </text><text xml:space="preserve" font-family="ArialMT,Arial" font-size="44.0" fill="#000000" transform="matrix(1.00, 0.00, -0.00, -1.00, 549.0, 392.2)">i</text><text xml:space="preserve" font-family="ArialMT,Arial" font-size="44.0" fill="#000000" transform="matrix(1.00, 0.00, -0.00, -1.00, 558.8, 392.2)">s</text><text xml:space="preserve" font-family="ArialMT,Arial" font-size="44.0" fill="#000000" transform="matrix(1.00, 0.00, -0.00, -1.00, 580.8, 392.2)"> </text><text xml:space="preserve" font-family="ArialMT,Arial" font-size="44.0" fill="#000000" transform="matrix(1.00, 0.00, -0.00, -1.00, 593.0, 392.2)">b</text><text xml:space="preserve" font-family="ArialMT,Arial" font-size="44.0" fill="#000000" transform="matrix(1.00, 0.00, -0.00, -1.00, 617.5, 392.2)">e</text><text xml:space="preserve" font-family="ArialMT,Arial" font-size="44.0" fill="#000000" transform="matrix(1.00, 0.00, -0.00, -1.00, 641.9, 392.2)">t</text><text xml:space="preserve" font-family="ArialMT,Arial" font-size="44.0" fill="#000000" transform="matrix(1.00, 0.00, -0.00, -1.00, 654.2, 392.2)">t</text><text xml:space="preserve" font-family="ArialMT,Arial" font-size="44.0" fill="#000000" transform="matrix(1.00, 0.00, -0.00, -1.00, 666.4, 392.2)">e</text><text xml:space="preserve" font-family="ArialMT,Arial" font-size="44.0" fill="#000000" transform="matrix(1.00, 0.00, -0.00, -1.00, 690.9, 392.2)">r</text><text xml:space="preserve" font-family="ArialMT,Arial" font-size="44.0" fill="#000000" transform="matrix(1.00, 0.00, -0.00, -1.00, 703.1, 392.2)">,</text><text xml:space="preserve" font-family="ArialMT,Arial" font-size="44.0" fill="#000000" transform="matrix(1.00, 0.00, -0.00, -1.00, 715.3, 392.2)"> </text><text xml:space="preserve" font-family="ArialMT,Arial" font-size="44.0" fill="#000000" transform="matrix(1.00, 0.00, -0.00, -1.00, 727.5, 392.2)">b</text><text xml:space="preserve" font-family="ArialMT,Arial" font-size="44.0" fill="#000000" transform="matrix(1.00, 0.00, -0.00, -1.00, 752.0, 392.2)">u</text><text xml:space="preserve" font-family="ArialMT,Arial" font-size="44.0" fill="#000000" transform="matrix(1.00, 0.00, -0.00, -1.00, 776.5, 392.2)">t</text><text xml:space="preserve" font-family="ArialMT,Arial" font-size="44.0" fill="#000000" transform="matrix(1.00, 0.00, -0.00, -1.00, 788.7, 392.2)"> </text><text xml:space="preserve" font-family="ArialMT,Arial" font-size="44.0" fill="#000000" transform="matrix(1.00, 0.00, -0.00, -1.00, 800.9, 392.2)">o</text><text xml:space="preserve" font-family="ArialMT,Arial" font-size="44.0" fill="#000000" transform="matrix(1.00, 0.00, -0.00, -1.00, 825.4, 392.2)">n</text><text xml:space="preserve" font-family="ArialMT,Arial" font-size="44.0" fill="#000000" transform="matrix(1.00, 0.00, -0.00, -1.00, 849.9, 392.2)">l</text><text xml:space="preserve" font-family="ArialMT,Arial" font-size="44.0" fill="#000000" transform="matrix(1.00, 0.00, -0.00, -1.00, 859.6, 392.2)">y</text><text xml:space="preserve" font-family="ArialMT,Arial" font-size="44.0" fill="#000000" transform="matrix(1.00, 0.00, -0.00, -1.00, 881.6, 392.2)"> </text><text xml:space="preserve" font-family="ArialMT,Arial" font-size="44.0" fill="#000000" transform="matrix(1.00, 0.00, -0.00, -1.00, 111.2, 342.2)">f</text><text xml:space="preserve" font-family="ArialMT,Arial" font-size="44.0" fill="#000000" transform="matrix(1.00, 0.00, -0.00, -1.00, 123.4, 342.2)">o</text><text xml:space="preserve" font-family="ArialMT,Arial" font-size="44.0" fill="#000000" transform="matrix(1.00, 0.00, -0.00, -1.00, 147.9, 342.2)">r</text><text xml:space="preserve" font-family="ArialMT,Arial" font-size="44.0" fill="#000000" transform="matrix(1.00, 0.00, -0.00, -1.00, 162.5, 342.2)"> </text><text xml:space="preserve" font-family="ArialMT,Arial" font-size="44.0" fill="#000000" transform="matrix(1.00, 0.00, -0.00, -1.00, 174.8, 342.2)">f</text><text xml:space="preserve" font-family="ArialMT,Arial" font-size="44.0" fill="#000000" transform="matrix(1.00, 0.00, -0.00, -1.00, 187.0, 342.2)">e</text><text xml:space="preserve" font-family="ArialMT,Arial" font-size="44.0" fill="#000000" transform="matrix(1.00, 0.00, -0.00, -1.00, 211.5, 342.2)">m</text><text xml:space="preserve" font-family="ArialMT,Arial" font-size="44.0" fill="#000000" transform="matrix(1.00, 0.00, -0.00, -1.00, 248.1, 342.2)">a</text><text xml:space="preserve" font-family="ArialMT,Arial" font-size="44.0" fill="#000000" transform="matrix(1.00, 0.00, -0.00, -1.00, 272.6, 342.2)">l</text><text xml:space="preserve" font-family="ArialMT,Arial" font-size="44.0" fill="#000000" transform="matrix(1.00, 0.00, -0.00, -1.00, 282.4, 342.2)">e</text><text xml:space="preserve" font-family="ArialMT,Arial" font-size="44.0" fill="#000000" transform="matrix(1.00, 0.00, -0.00, -1.00, 306.9, 342.2)">s</text><text xml:space="preserve" font-family="ArialMT,Arial" font-size="44.0" fill="#000000" transform="matrix(1.00, 0.00, -0.00, -1.00, 328.9, 342.2)"> </text><text xml:space="preserve" font-family="ArialMT,Arial" font-size="44.0" fill="#000000" transform="matrix(1.00, 0.00, -0.00, -1.00, 84.2, 281.7)">•</text><text xml:space="preserve" font-family="ArialMT,Arial" font-size="44.0" fill="#000000" transform="matrix(1.00, 0.00, -0.00, -1.00, 111.2, 281.7)">C</text><text xml:space="preserve" font-family="ArialMT,Arial" font-size="44.0" fill="#000000" transform="matrix(1.00, 0.00, -0.00, -1.00, 143.0, 281.7)">a</text><text xml:space="preserve" font-family="ArialMT,Arial" font-size="44.0" fill="#000000" transform="matrix(1.00, 0.00, -0.00, -1.00, 167.5, 281.7)">n</text><text xml:space="preserve" font-family="ArialMT,Arial" font-size="44.0" fill="#000000" transform="matrix(1.00, 0.00, -0.00, -1.00, 191.9, 281.7)"> </text><text xml:space="preserve" font-family="ArialMT,Arial" font-size="44.0" fill="#000000" transform="matrix(1.00, 0.00, -0.00, -1.00, 204.2, 281.7)">f</text><text xml:space="preserve" font-family="ArialMT,Arial" font-size="44.0" fill="#000000" transform="matrix(1.00, 0.00, -0.00, -1.00, 216.4, 281.7)">e</text><text xml:space="preserve" font-family="ArialMT,Arial" font-size="44.0" fill="#000000" transform="matrix(1.00, 0.00, -0.00, -1.00, 240.9, 281.7)">m</text><text xml:space="preserve" font-family="ArialMT,Arial" font-size="44.0" fill="#000000" transform="matrix(1.00, 0.00, -0.00, -1.00, 277.5, 281.7)">a</text><text xml:space="preserve" font-family="ArialMT,Arial" font-size="44.0" fill="#000000" transform="matrix(1.00, 0.00, -0.00, -1.00, 302.0, 281.7)">l</text><text xml:space="preserve" font-family="ArialMT,Arial" font-size="44.0" fill="#000000" transform="matrix(1.00, 0.00, -0.00, -1.00, 311.8, 281.7)">e</text><text xml:space="preserve" font-family="ArialMT,Arial" font-size="44.0" fill="#000000" transform="matrix(1.00, 0.00, -0.00, -1.00, 336.2, 281.7)">s</text><text xml:space="preserve" font-family="ArialMT,Arial" font-size="44.0" fill="#000000" transform="matrix(1.00, 0.00, -0.00, -1.00, 358.2, 281.7)"> </text><text xml:space="preserve" font-family="ArialMT,Arial" font-size="44.0" fill="#000000" transform="matrix(1.00, 0.00, -0.00, -1.00, 370.5, 281.7)">c</text><text xml:space="preserve" font-family="ArialMT,Arial" font-size="44.0" fill="#000000" transform="matrix(1.00, 0.00, -0.00, -1.00, 392.5, 281.7)">h</text><text xml:space="preserve" font-family="ArialMT,Arial" font-size="44.0" fill="#000000" transform="matrix(1.00, 0.00, -0.00, -1.00, 416.9, 281.7)">o</text><text xml:space="preserve" font-family="ArialMT,Arial" font-size="44.0" fill="#000000" transform="matrix(1.00, 0.00, -0.00, -1.00, 441.4, 281.7)">o</text><text xml:space="preserve" font-family="ArialMT,Arial" font-size="44.0" fill="#000000" transform="matrix(1.00, 0.00, -0.00, -1.00, 465.9, 281.7)">s</text><text xml:space="preserve" font-family="ArialMT,Arial" font-size="44.0" fill="#000000" transform="matrix(1.00, 0.00, -0.00, -1.00, 487.9, 281.7)">e</text><text xml:space="preserve" font-family="ArialMT,Arial" font-size="44.0" fill="#000000" transform="matrix(1.00, 0.00, -0.00, -1.00, 512.4, 281.7)"> </text><text xml:space="preserve" font-family="ArialMT,Arial" font-size="44.0" fill="#000000" transform="matrix(1.00, 0.00, -0.00, -1.00, 524.6, 281.7)">s</text><text xml:space="preserve" font-family="ArialMT,Arial" font-size="44.0" fill="#000000" transform="matrix(1.00, 0.00, -0.00, -1.00, 546.6, 281.7)">e</text><text xml:space="preserve" font-family="ArialMT,Arial" font-size="44.0" fill="#000000" transform="matrix(1.00, 0.00, -0.00, -1.00, 571.1, 281.7)">x</text><text xml:space="preserve" font-family="ArialMT,Arial" font-size="44.0" fill="#000000" transform="matrix(1.00, 0.00, -0.00, -1.00, 593.1, 281.7)"> </text><text xml:space="preserve" font-family="ArialMT,Arial" font-size="44.0" fill="#000000" transform="matrix(1.00, 0.00, -0.00, -1.00, 605.3, 281.7)">t</text><text xml:space="preserve" font-family="ArialMT,Arial" font-size="44.0" fill="#000000" transform="matrix(1.00, 0.00, -0.00, -1.00, 617.5, 281.7)">h</text><text xml:space="preserve" font-family="ArialMT,Arial" font-size="44.0" fill="#000000" transform="matrix(1.00, 0.00, -0.00, -1.00, 642.0, 281.7)">r</text><text xml:space="preserve" font-family="ArialMT,Arial" font-size="44.0" fill="#000000" transform="matrix(1.00, 0.00, -0.00, -1.00, 656.6, 281.7)">o</text><text xml:space="preserve" font-family="ArialMT,Arial" font-size="44.0" fill="#000000" transform="matrix(1.00, 0.00, -0.00, -1.00, 681.1, 281.7)">u</text><text xml:space="preserve" font-family="ArialMT,Arial" font-size="44.0" fill="#000000" transform="matrix(1.00, 0.00, -0.00, -1.00, 705.6, 281.7)">g</text><text xml:space="preserve" font-family="ArialMT,Arial" font-size="44.0" fill="#000000" transform="matrix(1.00, 0.00, -0.00, -1.00, 730.1, 281.7)">h</text><text xml:space="preserve" font-family="ArialMT,Arial" font-size="44.0" fill="#000000" transform="matrix(1.00, 0.00, -0.00, -1.00, 754.6, 281.7)"> </text><text xml:space="preserve" font-family="ArialMT,Arial" font-size="44.0" fill="#000000" transform="matrix(1.00, 0.00, -0.00, -1.00, 766.8, 281.7)">n</text><text xml:space="preserve" font-family="ArialMT,Arial" font-size="44.0" fill="#000000" transform="matrix(1.00, 0.00, -0.00, -1.00, 791.3, 281.7)">e</text><text xml:space="preserve" font-family="ArialMT,Arial" font-size="44.0" fill="#000000" transform="matrix(1.00, 0.00, -0.00, -1.00, 815.7, 281.7)">s</text><text xml:space="preserve" font-family="ArialMT,Arial" font-size="44.0" fill="#000000" transform="matrix(1.00, 0.00, -0.00, -1.00, 837.7, 281.7)">t</text><text xml:space="preserve" font-family="ArialMT,Arial" font-size="44.0" fill="#000000" transform="matrix(1.00, 0.00, -0.00, -1.00, 850.0, 281.7)"> </text><text xml:space="preserve" font-family="ArialMT,Arial" font-size="44.0" fill="#000000" transform="matrix(1.00, 0.00, -0.00, -1.00, 862.2, 281.7)">s</text><text xml:space="preserve" font-family="ArialMT,Arial" font-size="44.0" fill="#000000" transform="matrix(1.00, 0.00, -0.00, -1.00, 884.2, 281.7)">i</text><text xml:space="preserve" font-family="ArialMT,Arial" font-size="44.0" fill="#000000" transform="matrix(1.00, 0.00, -0.00, -1.00, 894.0, 281.7)">t</text><text xml:space="preserve" font-family="ArialMT,Arial" font-size="44.0" fill="#000000" transform="matrix(1.00, 0.00, -0.00, -1.00, 906.2, 281.7)">e</text><text xml:space="preserve" font-family="ArialMT,Arial" font-size="44.0" fill="#000000" transform="matrix(1.00, 0.00, -0.00, -1.00, 930.6, 281.7)"> </text><text xml:space="preserve" font-family="ArialMT,Arial" font-size="44.0" fill="#000000" transform="matrix(1.00, 0.00, -0.00, -1.00, 111.2, 231.7)">s</text><text xml:space="preserve" font-family="ArialMT,Arial" font-size="44.0" fill="#000000" transform="matrix(1.00, 0.00, -0.00, -1.00, 133.2, 231.7)">e</text><text xml:space="preserve" font-family="ArialMT,Arial" font-size="44.0" fill="#000000" transform="matrix(1.00, 0.00, -0.00, -1.00, 157.7, 231.7)">l</text><text xml:space="preserve" font-family="ArialMT,Arial" font-size="44.0" fill="#000000" transform="matrix(1.00, 0.00, -0.00, -1.00, 167.5, 231.7)">e</text><text xml:space="preserve" font-family="ArialMT,Arial" font-size="44.0" fill="#000000" transform="matrix(1.00, 0.00, -0.00, -1.00, 191.9, 231.7)">c</text><text xml:space="preserve" font-family="ArialMT,Arial" font-size="44.0" fill="#000000" transform="matrix(1.00, 0.00, -0.00, -1.00, 213.9, 231.7)">t</text><text xml:space="preserve" font-family="ArialMT,Arial" font-size="44.0" fill="#000000" transform="matrix(1.00, 0.00, -0.00, -1.00, 226.2, 231.7)">i</text><text xml:space="preserve" font-family="ArialMT,Arial" font-size="44.0" fill="#000000" transform="matrix(1.00, 0.00, -0.00, -1.00, 235.9, 231.7)">o</text><text xml:space="preserve" font-family="ArialMT,Arial" font-size="44.0" fill="#000000" transform="matrix(1.00, 0.00, -0.00, -1.00, 260.4, 231.7)">n</text><text xml:space="preserve" font-family="ArialMT,Arial" font-size="44.0" fill="#000000" transform="matrix(1.00, 0.00, -0.00, -1.00, 284.9, 231.7)">?</text><text xml:space="preserve" font-family="ArialMT,Arial" font-size="44.0" fill="#000000" transform="matrix(1.00, 0.00, -0.00, -1.00, 309.4, 231.7)"> </text><text xml:space="preserve" font-family="ArialMT,Arial" font-size="44.0" fill="#000000" transform="matrix(1.00, 0.00, -0.00, -1.00, 84.2, 171.2)">•</text><text xml:space="preserve" font-family="ArialMT,Arial" font-size="44.0" fill="#000000" transform="matrix(1.00, 0.00, -0.00, -1.00, 111.2, 171.2)">L</text><text xml:space="preserve" font-family="ArialMT,Arial" font-size="44.0" fill="#000000" transform="matrix(1.00, 0.00, -0.00, -1.00, 135.7, 171.2)">i</text><text xml:space="preserve" font-family="ArialMT,Arial" font-size="44.0" fill="#000000" transform="matrix(1.00, 0.00, -0.00, -1.00, 145.5, 171.2)">t</text><text xml:space="preserve" font-family="ArialMT,Arial" font-size="44.0" fill="#000000" transform="matrix(1.00, 0.00, -0.00, -1.00, 157.7, 171.2)">t</text><text xml:space="preserve" font-family="ArialMT,Arial" font-size="44.0" fill="#000000" transform="matrix(1.00, 0.00, -0.00, -1.00, 169.9, 171.2)">l</text><text xml:space="preserve" font-family="ArialMT,Arial" font-size="44.0" fill="#000000" transform="matrix(1.00, 0.00, -0.00, -1.00, 179.7, 171.2)">e</text><text xml:space="preserve" font-family="ArialMT,Arial" font-size="44.0" fill="#000000" transform="matrix(1.00, 0.00, -0.00, -1.00, 204.2, 171.2)"> </text><text xml:space="preserve" font-family="ArialMT,Arial" font-size="44.0" fill="#000000" transform="matrix(1.00, 0.00, -0.00, -1.00, 216.4, 171.2)">e</text><text xml:space="preserve" font-family="ArialMT,Arial" font-size="44.0" fill="#000000" transform="matrix(1.00, 0.00, -0.00, -1.00, 240.9, 171.2)">v</text><text xml:space="preserve" font-family="ArialMT,Arial" font-size="44.0" fill="#000000" transform="matrix(1.00, 0.00, -0.00, -1.00, 262.9, 171.2)">i</text><text xml:space="preserve" font-family="ArialMT,Arial" font-size="44.0" fill="#000000" transform="matrix(1.00, 0.00, -0.00, -1.00, 272.6, 171.2)">d</text><text xml:space="preserve" font-family="ArialMT,Arial" font-size="44.0" fill="#000000" transform="matrix(1.00, 0.00, -0.00, -1.00, 297.1, 171.2)">e</text><text xml:space="preserve" font-family="ArialMT,Arial" font-size="44.0" fill="#000000" transform="matrix(1.00, 0.00, -0.00, -1.00, 321.6, 171.2)">n</text><text xml:space="preserve" font-family="ArialMT,Arial" font-size="44.0" fill="#000000" transform="matrix(1.00, 0.00, -0.00, -1.00, 346.1, 171.2)">c</text><text xml:space="preserve" font-family="ArialMT,Arial" font-size="44.0" fill="#000000" transform="matrix(1.00, 0.00, -0.00, -1.00, 368.1, 171.2)">e</text></g></svg>