<?xml version="1.0" encoding="UTF-8" standalone="no"?><svg xmlns="http://www.w3.org/2000/svg" xmlns:xlink="http://www.w3.org/1999/xlink" clip-rule="evenodd" stroke-miterlimit="10" viewBox="0 0 720 540"><desc>SVG generated by Keynote</desc><defs></defs><g transform="matrix(1.00, 0.00, -0.00, -1.00, 0.0, 540.0)"><path d="M 0.0 540.0 L 720.0 540.0 L 720.0 0.0 L 0.0 0.0 Z M 0.0 540.0 " fill="#FEFFFF"></path><image xlink:href="8818C927858018675F56177581EC439F.png" width="720.00" height="1086.00" transform="matrix(1.00, 0.00, -0.00, -1.00, 10.0, 666.0)"></image><path d="M 1.0 577.0 L 785.0 577.0 L 785.0 387.0 L 1.0 387.0 Z M 1.0 577.0 " fill="#FFFFFF"></path><path d="M 0.0 0.0 L 784.0 0.0 L 784.0 190.0 L 0.0 190.0 Z M 0.0 0.0 " fill="none" stroke="#000000" stroke-opacity="0.00" stroke-width="2.00" transform="matrix(1.00, 0.00, 0.00, -1.00, 1.0, 577.0)"></path><path d="M 1.0 122.0 L 785.0 122.0 L 785.0 -68.0 L 1.0 -68.0 Z M 1.0 122.0 " fill="#FFFFFF"></path><path d="M 0.0 0.0 L 784.0 0.0 L 784.0 190.0 L 0.0 190.0 Z M 0.0 0.0 " fill="none" stroke="#000000" stroke-opacity="0.00" stroke-width="2.00" transform="matrix(1.00, 0.00, 0.00, -1.00, 1.0, 122.0)"></path><text xml:space="preserve" font-family="GillSans,Gill Sans" font-size="28.0" fill="#000000" transform="matrix(1.00, 0.00, -0.00, -1.00, 131.9, 472.5)">E</text><text xml:space="preserve" font-family="GillSans,Gill Sans" font-size="28.0" fill="#000000" transform="matrix(1.00, 0.00, -0.00, -1.00, 145.9, 472.5)">x</text><text xml:space="preserve" font-family="GillSans,Gill Sans" font-size="28.0" fill="#000000" transform="matrix(1.00, 0.00, -0.00, -1.00, 159.9, 472.5)">t</text><text xml:space="preserve" font-family="GillSans,Gill Sans" font-size="28.0" fill="#000000" transform="matrix(1.00, 0.00, -0.00, -1.00, 169.3, 472.5)">e</text><text xml:space="preserve" font-family="GillSans,Gill Sans" font-size="28.0" fill="#000000" transform="matrix(1.00, 0.00, -0.00, -1.00, 182.7, 472.5)">n</text><text xml:space="preserve" font-family="GillSans,Gill Sans" font-size="28.0" fill="#000000" transform="matrix(1.00, 0.00, -0.00, -1.00, 196.7, 472.5)">s</text><text xml:space="preserve" font-family="GillSans,Gill Sans" font-size="28.0" fill="#000000" transform="matrix(1.00, 0.00, -0.00, -1.00, 207.4, 472.5)">i</text><text xml:space="preserve" font-family="GillSans,Gill Sans" font-size="28.0" fill="#000000" transform="matrix(1.00, 0.00, -0.00, -1.00, 213.6, 472.5)">v</text><text xml:space="preserve" font-family="GillSans,Gill Sans" font-size="28.0" fill="#000000" transform="matrix(1.00, 0.00, -0.00, -1.00, 225.3, 472.5)">e</text><text xml:space="preserve" font-family="GillSans,Gill Sans" font-size="28.0" fill="#000000" transform="matrix(1.00, 0.00, -0.00, -1.00, 238.7, 472.5)"> </text><text xml:space="preserve" font-family="GillSans,Gill Sans" font-size="28.0" fill="#000000" transform="matrix(1.00, 0.00, -0.00, -1.00, 246.5, 472.5)">g</text><text xml:space="preserve" font-family="GillSans,Gill Sans" font-size="28.0" fill="#000000" transform="matrix(1.00, 0.00, -0.00, -1.00, 258.4, 472.5)">e</text><text xml:space="preserve" font-family="GillSans,Gill Sans" font-size="28.0" fill="#000000" transform="matrix(1.00, 0.00, -0.00, -1.00, 271.8, 472.5)">o</text><text xml:space="preserve" font-family="GillSans,Gill Sans" font-size="28.0" fill="#000000" transform="matrix(1.00, 0.00, -0.00, -1.00, 287.3, 472.5)">g</text><text xml:space="preserve" font-family="GillSans,Gill Sans" font-size="28.0" fill="#000000" transform="matrix(1.00, 0.00, -0.00, -1.00, 299.2, 472.5)">r</text><text xml:space="preserve" font-family="GillSans,Gill Sans" font-size="28.0" fill="#000000" transform="matrix(1.00, 0.00, -0.00, -1.00, 310.3, 472.5)">a</text><text xml:space="preserve" font-family="GillSans,Gill Sans" font-size="28.0" fill="#000000" transform="matrix(1.00, 0.00, -0.00, -1.00, 322.0, 472.5)">p</text><text xml:space="preserve" font-family="GillSans,Gill Sans" font-size="28.0" fill="#000000" transform="matrix(1.00, 0.00, -0.00, -1.00, 336.0, 472.5)">h</text><text xml:space="preserve" font-family="GillSans,Gill Sans" font-size="28.0" fill="#000000" transform="matrix(1.00, 0.00, -0.00, -1.00, 350.0, 472.5)">i</text><text xml:space="preserve" font-family="GillSans,Gill Sans" font-size="28.0" fill="#000000" transform="matrix(1.00, 0.00, -0.00, -1.00, 356.1, 472.5)">c</text><text xml:space="preserve" font-family="GillSans,Gill Sans" font-size="28.0" fill="#000000" transform="matrix(1.00, 0.00, -0.00, -1.00, 368.4, 472.5)"> </text><text xml:space="preserve" font-family="GillSans,Gill Sans" font-size="28.0" fill="#000000" transform="matrix(1.00, 0.00, -0.00, -1.00, 376.1, 472.5)">s</text><text xml:space="preserve" font-family="GillSans,Gill Sans" font-size="28.0" fill="#000000" transform="matrix(1.00, 0.00, -0.00, -1.00, 386.9, 472.5)">a</text><text xml:space="preserve" font-family="GillSans,Gill Sans" font-size="28.0" fill="#000000" transform="matrix(1.00, 0.00, -0.00, -1.00, 398.9, 472.5)">m</text><text xml:space="preserve" font-family="GillSans,Gill Sans" font-size="28.0" fill="#000000" transform="matrix(1.00, 0.00, -0.00, -1.00, 420.4, 472.5)">p</text><text xml:space="preserve" font-family="GillSans,Gill Sans" font-size="28.0" fill="#000000" transform="matrix(1.00, 0.00, -0.00, -1.00, 434.4, 472.5)">l</text><text xml:space="preserve" font-family="GillSans,Gill Sans" font-size="28.0" fill="#000000" transform="matrix(1.00, 0.00, -0.00, -1.00, 440.6, 472.5)">e</text><text xml:space="preserve" font-family="GillSans,Gill Sans" font-size="28.0" fill="#000000" transform="matrix(1.00, 0.00, -0.00, -1.00, 454.0, 472.5)">s</text><text xml:space="preserve" font-family="GillSans,Gill Sans" font-size="28.0" fill="#000000" transform="matrix(1.00, 0.00, -0.00, -1.00, 464.8, 472.5)"> </text><text xml:space="preserve" font-family="GillSans,Gill Sans" font-size="28.0" fill="#000000" transform="matrix(1.00, 0.00, -0.00, -1.00, 472.5, 472.5)">f</text><text xml:space="preserve" font-family="GillSans,Gill Sans" font-size="28.0" fill="#000000" transform="matrix(1.00, 0.00, -0.00, -1.00, 479.5, 472.5)">r</text><text xml:space="preserve" font-family="GillSans,Gill Sans" font-size="28.0" fill="#000000" transform="matrix(1.00, 0.00, -0.00, -1.00, 489.9, 472.5)">o</text><text xml:space="preserve" font-family="GillSans,Gill Sans" font-size="28.0" fill="#000000" transform="matrix(1.00, 0.00, -0.00, -1.00, 505.4, 472.5)">m</text><text xml:space="preserve" font-family="GillSans,Gill Sans" font-size="28.0" fill="#000000" transform="matrix(1.00, 0.00, -0.00, -1.00, 527.0, 472.5)"> </text><text xml:space="preserve" font-family="GillSans,Gill Sans" font-size="28.0" fill="#000000" transform="matrix(1.00, 0.00, -0.00, -1.00, 534.7, 472.5)">a</text><text xml:space="preserve" font-family="GillSans,Gill Sans" font-size="28.0" fill="#000000" transform="matrix(1.00, 0.00, -0.00, -1.00, 546.7, 472.5)">n</text><text xml:space="preserve" font-family="GillSans,Gill Sans" font-size="28.0" fill="#000000" transform="matrix(1.00, 0.00, -0.00, -1.00, 560.7, 472.5)">o</text><text xml:space="preserve" font-family="GillSans,Gill Sans" font-size="28.0" fill="#000000" transform="matrix(1.00, 0.00, -0.00, -1.00, 576.1, 472.5)">l</text><text xml:space="preserve" font-family="GillSans,Gill Sans" font-size="28.0" fill="#000000" transform="matrix(1.00, 0.00, -0.00, -1.00, 582.3, 472.5)">e</text><text xml:space="preserve" font-family="GillSans,Gill Sans" font-size="28.0" fill="#000000" transform="matrix(1.00, 0.00, -0.00, -1.00, 595.7, 472.5)">s</text></g></svg>