<?xml version="1.0" encoding="UTF-8" standalone="no"?><svg xmlns="http://www.w3.org/2000/svg" xmlns:xlink="http://www.w3.org/1999/xlink" clip-rule="evenodd" stroke-miterlimit="10" viewBox="0 0 770 41"><desc>SVG generated by Keynote</desc><defs></defs><g transform="matrix(1.00, 0.00, -0.00, -1.00, 0.0, 41.0)"><text xml:space="preserve" font-family="GillSans,Gill Sans" font-size="42.0" fill="#000000" transform="matrix(1.00, 0.00, -0.00, -1.00, 1.9, 10.7)">w</text><text xml:space="preserve" font-family="GillSans,Gill Sans" font-size="42.0" fill="#000000" transform="matrix(1.00, 0.00, -0.00, -1.00, 32.1, 10.7)">h</text><text xml:space="preserve" font-family="GillSans,Gill Sans" font-size="42.0" fill="#000000" transform="matrix(1.00, 0.00, -0.00, -1.00, 53.1, 10.7)">e</text><text xml:space="preserve" font-family="GillSans,Gill Sans" font-size="42.0" fill="#000000" transform="matrix(1.00, 0.00, -0.00, -1.00, 73.2, 10.7)">n</text><text xml:space="preserve" font-family="GillSans,Gill Sans" font-size="42.0" fill="#000000" transform="matrix(1.00, 0.00, -0.00, -1.00, 94.2, 10.7)"> </text><text xml:space="preserve" font-family="GillSans-Italic,Gill Sans" font-style="italic" font-size="42.0" fill="#000000" transform="matrix(1.00, 0.00, -0.00, -1.00, 105.9, 10.7)">e</text><text xml:space="preserve" font-family="GillSans-Italic,Gill Sans" font-style="italic" font-size="42.0" fill="#000000" transform="matrix(1.00, 0.00, -0.00, -1.00, 124.2, 10.7)">s</text><text xml:space="preserve" font-family="GillSans-Italic,Gill Sans" font-style="italic" font-size="42.0" fill="#000000" transform="matrix(1.00, 0.00, -0.00, -1.00, 139.1, 10.7)">c</text><text xml:space="preserve" font-family="GillSans-Italic,Gill Sans" font-style="italic" font-size="42.0" fill="#000000" transform="matrix(1.00, 0.00, -0.00, -1.00, 155.3, 10.7)">u</text><text xml:space="preserve" font-family="GillSans-Italic,Gill Sans" font-style="italic" font-size="42.0" fill="#000000" transform="matrix(1.00, 0.00, -0.00, -1.00, 175.0, 10.7)">l</text><text xml:space="preserve" font-family="GillSans-Italic,Gill Sans" font-style="italic" font-size="42.0" fill="#000000" transform="matrix(1.00, 0.00, -0.00, -1.00, 182.9, 10.7)">e</text><text xml:space="preserve" font-family="GillSans-Italic,Gill Sans" font-style="italic" font-size="42.0" fill="#000000" transform="matrix(1.00, 0.00, -0.00, -1.00, 201.3, 10.7)">n</text><text xml:space="preserve" font-family="GillSans-Italic,Gill Sans" font-style="italic" font-size="42.0" fill="#000000" transform="matrix(1.00, 0.00, -0.00, -1.00, 221.0, 10.7)">t</text><text xml:space="preserve" font-family="GillSans-Italic,Gill Sans" font-style="italic" font-size="42.0" fill="#000000" transform="matrix(1.00, 0.00, -0.00, -1.00, 232.8, 10.7)">a</text><text xml:space="preserve" font-family="GillSans-Italic,Gill Sans" font-style="italic" font-size="42.0" fill="#000000" transform="matrix(1.00, 0.00, -0.00, -1.00, 252.5, 10.7)"> </text><text xml:space="preserve" font-family="GillSans,Gill Sans" font-size="42.0" fill="#000000" transform="matrix(1.00, 0.00, -0.00, -1.00, 264.2, 10.7)">a</text><text xml:space="preserve" font-family="GillSans,Gill Sans" font-size="42.0" fill="#000000" transform="matrix(1.00, 0.00, -0.00, -1.00, 282.1, 10.7)">n</text><text xml:space="preserve" font-family="GillSans,Gill Sans" font-size="42.0" fill="#000000" transform="matrix(1.00, 0.00, -0.00, -1.00, 303.1, 10.7)">d</text><text xml:space="preserve" font-family="GillSans,Gill Sans" font-size="42.0" fill="#000000" transform="matrix(1.00, 0.00, -0.00, -1.00, 324.5, 10.7)"> </text><text xml:space="preserve" font-family="GillSans-Italic,Gill Sans" font-style="italic" font-size="42.0" fill="#000000" transform="matrix(1.00, 0.00, -0.00, -1.00, 336.2, 10.7)">l</text><text xml:space="preserve" font-family="GillSans-Italic,Gill Sans" font-style="italic" font-size="42.0" fill="#000000" transform="matrix(1.00, 0.00, -0.00, -1.00, 344.0, 10.7)">e</text><text xml:space="preserve" font-family="GillSans-Italic,Gill Sans" font-style="italic" font-size="42.0" fill="#000000" transform="matrix(1.00, 0.00, -0.00, -1.00, 362.4, 10.7)">s</text><text xml:space="preserve" font-family="GillSans-Italic,Gill Sans" font-style="italic" font-size="42.0" fill="#000000" transform="matrix(1.00, 0.00, -0.00, -1.00, 377.3, 10.7)">s</text><text xml:space="preserve" font-family="GillSans-Italic,Gill Sans" font-style="italic" font-size="42.0" fill="#000000" transform="matrix(1.00, 0.00, -0.00, -1.00, 392.2, 10.7)">o</text><text xml:space="preserve" font-family="GillSans-Italic,Gill Sans" font-style="italic" font-size="42.0" fill="#000000" transform="matrix(1.00, 0.00, -0.00, -1.00, 411.0, 10.7)">n</text><text xml:space="preserve" font-family="GillSans-Italic,Gill Sans" font-style="italic" font-size="42.0" fill="#000000" transform="matrix(1.00, 0.00, -0.00, -1.00, 430.7, 10.7)">a</text><text xml:space="preserve" font-family="GillSans-Italic,Gill Sans" font-style="italic" font-size="42.0" fill="#000000" transform="matrix(1.00, 0.00, -0.00, -1.00, 450.4, 10.7)">e</text><text xml:space="preserve" font-family="GillSans-Italic,Gill Sans" font-style="italic" font-size="42.0" fill="#000000" transform="matrix(1.00, 0.00, -0.00, -1.00, 468.8, 10.7)"> </text><text xml:space="preserve" font-family="GillSans,Gill Sans" font-size="42.0" fill="#000000" transform="matrix(1.00, 0.00, -0.00, -1.00, 480.5, 10.7)">o</text><text xml:space="preserve" font-family="GillSans,Gill Sans" font-size="42.0" fill="#000000" transform="matrix(1.00, 0.00, -0.00, -1.00, 503.7, 10.7)">c</text><text xml:space="preserve" font-family="GillSans,Gill Sans" font-size="42.0" fill="#000000" transform="matrix(1.00, 0.00, -0.00, -1.00, 522.0, 10.7)">c</text><text xml:space="preserve" font-family="GillSans,Gill Sans" font-size="42.0" fill="#000000" transform="matrix(1.00, 0.00, -0.00, -1.00, 540.4, 10.7)">u</text><text xml:space="preserve" font-family="GillSans,Gill Sans" font-size="42.0" fill="#000000" transform="matrix(1.00, 0.00, -0.00, -1.00, 561.4, 10.7)">r</text><text xml:space="preserve" font-family="GillSans,Gill Sans" font-size="42.0" fill="#000000" transform="matrix(1.00, 0.00, -0.00, -1.00, 578.1, 10.7)"> </text><text xml:space="preserve" font-family="GillSans,Gill Sans" font-size="42.0" fill="#000000" transform="matrix(1.00, 0.00, -0.00, -1.00, 589.7, 10.7)">t</text><text xml:space="preserve" font-family="GillSans,Gill Sans" font-size="42.0" fill="#000000" transform="matrix(1.00, 0.00, -0.00, -1.00, 603.7, 10.7)">o</text><text xml:space="preserve" font-family="GillSans,Gill Sans" font-size="42.0" fill="#000000" transform="matrix(1.00, 0.00, -0.00, -1.00, 626.9, 10.7)">g</text><text xml:space="preserve" font-family="GillSans,Gill Sans" font-size="42.0" fill="#000000" transform="matrix(1.00, 0.00, -0.00, -1.00, 644.8, 10.7)">e</text><text xml:space="preserve" font-family="GillSans,Gill Sans" font-size="42.0" fill="#000000" transform="matrix(1.00, 0.00, -0.00, -1.00, 664.9, 10.7)">t</text><text xml:space="preserve" font-family="GillSans,Gill Sans" font-size="42.0" fill="#000000" transform="matrix(1.00, 0.00, -0.00, -1.00, 678.9, 10.7)">h</text><text xml:space="preserve" font-family="GillSans,Gill Sans" font-size="42.0" fill="#000000" transform="matrix(1.00, 0.00, -0.00, -1.00, 699.9, 10.7)">e</text><text xml:space="preserve" font-family="GillSans,Gill Sans" font-size="42.0" fill="#000000" transform="matrix(1.00, 0.00, -0.00, -1.00, 720.0, 10.7)">r</text><text xml:space="preserve" font-family="GillSans,Gill Sans" font-size="42.0" fill="#000000" transform="matrix(1.00, 0.00, -0.00, -1.00, 732.5, 10.7)">.</text><text xml:space="preserve" font-family="GillSans,Gill Sans" font-size="42.0" fill="#000000" transform="matrix(1.00, 0.00, -0.00, -1.00, 741.7, 10.7)">.</text><text xml:space="preserve" font-family="GillSans,Gill Sans" font-size="42.0" fill="#000000" transform="matrix(1.00, 0.00, -0.00, -1.00, 750.9, 10.7)">.</text><text xml:space="preserve" font-family="GillSans,Gill Sans" font-size="42.0" fill="#000000" transform="matrix(1.00, 0.00, -0.00, -1.00, 760.1, 10.7)">.</text></g></svg>