<?xml version="1.0" encoding="UTF-8" standalone="no"?><svg xmlns="http://www.w3.org/2000/svg" xmlns:xlink="http://www.w3.org/1999/xlink" clip-rule="evenodd" stroke-miterlimit="10" viewBox="0 0 1024 768"><desc>SVG generated by Keynote</desc><defs></defs><g transform="matrix(1.00, 0.00, -0.00, -1.00, 0.0, 768.0)"><path d="M 0.0 768.0 L 1024.0 768.0 L 1024.0 0.0 L 0.0 0.0 Z M 0.0 768.0 " fill="#FEFFFF"></path><text xml:space="preserve" font-family="ArialMT,Arial" font-size="62.0" fill="#000000" transform="matrix(1.00, 0.00, -0.00, -1.00, 93.3, 614.8)">G</text><text xml:space="preserve" font-family="ArialMT,Arial" font-size="62.0" fill="#000000" transform="matrix(1.00, 0.00, -0.00, -1.00, 141.5, 614.8)">a</text><text xml:space="preserve" font-family="ArialMT,Arial" font-size="62.0" fill="#000000" transform="matrix(1.00, 0.00, -0.00, -1.00, 176.0, 614.8)">s</text><text xml:space="preserve" font-family="ArialMT,Arial" font-size="62.0" fill="#000000" transform="matrix(1.00, 0.00, -0.00, -1.00, 207.0, 614.8)"> </text><text xml:space="preserve" font-family="ArialMT,Arial" font-size="62.0" fill="#000000" transform="matrix(1.00, 0.00, -0.00, -1.00, 224.2, 614.8)">E</text><text xml:space="preserve" font-family="ArialMT,Arial" font-size="62.0" fill="#000000" transform="matrix(1.00, 0.00, -0.00, -1.00, 265.5, 614.8)">x</text><text xml:space="preserve" font-family="ArialMT,Arial" font-size="62.0" fill="#000000" transform="matrix(1.00, 0.00, -0.00, -1.00, 296.5, 614.8)">c</text><text xml:space="preserve" font-family="ArialMT,Arial" font-size="62.0" fill="#000000" transform="matrix(1.00, 0.00, -0.00, -1.00, 327.5, 614.8)">h</text><text xml:space="preserve" font-family="ArialMT,Arial" font-size="62.0" fill="#000000" transform="matrix(1.00, 0.00, -0.00, -1.00, 362.0, 614.8)">a</text><text xml:space="preserve" font-family="ArialMT,Arial" font-size="62.0" fill="#000000" transform="matrix(1.00, 0.00, -0.00, -1.00, 396.5, 614.8)">n</text><text xml:space="preserve" font-family="ArialMT,Arial" font-size="62.0" fill="#000000" transform="matrix(1.00, 0.00, -0.00, -1.00, 431.0, 614.8)">g</text><text xml:space="preserve" font-family="ArialMT,Arial" font-size="62.0" fill="#000000" transform="matrix(1.00, 0.00, -0.00, -1.00, 465.5, 614.8)">e</text><text xml:space="preserve" font-family="ArialMT,Arial" font-size="62.0" fill="#000000" transform="matrix(1.00, 0.00, -0.00, -1.00, 500.0, 614.8)"> </text><text xml:space="preserve" font-family="ArialMT,Arial" font-size="62.0" fill="#000000" transform="matrix(1.00, 0.00, -0.00, -1.00, 517.2, 614.8)">a</text><text xml:space="preserve" font-family="ArialMT,Arial" font-size="62.0" fill="#000000" transform="matrix(1.00, 0.00, -0.00, -1.00, 551.7, 614.8)">n</text><text xml:space="preserve" font-family="ArialMT,Arial" font-size="62.0" fill="#000000" transform="matrix(1.00, 0.00, -0.00, -1.00, 586.2, 614.8)">d</text><text xml:space="preserve" font-family="ArialMT,Arial" font-size="62.0" fill="#000000" transform="matrix(1.00, 0.00, -0.00, -1.00, 620.7, 614.8)"> </text><text xml:space="preserve" font-family="ArialMT,Arial" font-size="62.0" fill="#000000" transform="matrix(1.00, 0.00, -0.00, -1.00, 637.9, 614.8)">C</text><text xml:space="preserve" font-family="ArialMT,Arial" font-size="62.0" fill="#000000" transform="matrix(1.00, 0.00, -0.00, -1.00, 682.7, 614.8)">i</text><text xml:space="preserve" font-family="ArialMT,Arial" font-size="62.0" fill="#000000" transform="matrix(1.00, 0.00, -0.00, -1.00, 696.5, 614.8)">r</text><text xml:space="preserve" font-family="ArialMT,Arial" font-size="62.0" fill="#000000" transform="matrix(1.00, 0.00, -0.00, -1.00, 717.1, 614.8)">c</text><text xml:space="preserve" font-family="ArialMT,Arial" font-size="62.0" fill="#000000" transform="matrix(1.00, 0.00, -0.00, -1.00, 748.1, 614.8)">u</text><text xml:space="preserve" font-family="ArialMT,Arial" font-size="62.0" fill="#000000" transform="matrix(1.00, 0.00, -0.00, -1.00, 782.6, 614.8)">l</text><text xml:space="preserve" font-family="ArialMT,Arial" font-size="62.0" fill="#000000" transform="matrix(1.00, 0.00, -0.00, -1.00, 796.4, 614.8)">a</text><text xml:space="preserve" font-family="ArialMT,Arial" font-size="62.0" fill="#000000" transform="matrix(1.00, 0.00, -0.00, -1.00, 830.9, 614.8)">t</text><text xml:space="preserve" font-family="ArialMT,Arial" font-size="62.0" fill="#000000" transform="matrix(1.00, 0.00, -0.00, -1.00, 848.1, 614.8)">i</text><text xml:space="preserve" font-family="ArialMT,Arial" font-size="62.0" fill="#000000" transform="matrix(1.00, 0.00, -0.00, -1.00, 861.9, 614.8)">o</text><text xml:space="preserve" font-family="ArialMT,Arial" font-size="62.0" fill="#000000" transform="matrix(1.00, 0.00, -0.00, -1.00, 896.4, 614.8)">n</text><text xml:space="preserve" font-family="ArialMT,Arial" font-size="44.0" fill="#000000" transform="matrix(1.00, 0.00, -0.00, -1.00, 85.7, 501.2)">•</text><text xml:space="preserve" font-family="ArialMT,Arial" font-size="44.0" fill="#000000" transform="matrix(1.00, 0.00, -0.00, -1.00, 122.8, 501.2)">H</text><text xml:space="preserve" font-family="ArialMT,Arial" font-size="44.0" fill="#000000" transform="matrix(1.00, 0.00, -0.00, -1.00, 154.6, 501.2)">e</text><text xml:space="preserve" font-family="ArialMT,Arial" font-size="44.0" fill="#000000" transform="matrix(1.00, 0.00, -0.00, -1.00, 179.1, 501.2)">r</text><text xml:space="preserve" font-family="ArialMT,Arial" font-size="44.0" fill="#000000" transform="matrix(1.00, 0.00, -0.00, -1.00, 193.7, 501.2)">p</text><text xml:space="preserve" font-family="ArialMT,Arial" font-size="44.0" fill="#000000" transform="matrix(1.00, 0.00, -0.00, -1.00, 218.2, 501.2)">s</text><text xml:space="preserve" font-family="ArialMT,Arial" font-size="44.0" fill="#000000" transform="matrix(1.00, 0.00, -0.00, -1.00, 240.2, 501.2)"> </text><text xml:space="preserve" font-family="ArialMT,Arial" font-size="44.0" fill="#000000" transform="matrix(1.00, 0.00, -0.00, -1.00, 252.4, 501.2)">o</text><text xml:space="preserve" font-family="ArialMT,Arial" font-size="44.0" fill="#000000" transform="matrix(1.00, 0.00, -0.00, -1.00, 276.9, 501.2)">b</text><text xml:space="preserve" font-family="ArialMT,Arial" font-size="44.0" fill="#000000" transform="matrix(1.00, 0.00, -0.00, -1.00, 301.4, 501.2)">t</text><text xml:space="preserve" font-family="ArialMT,Arial" font-size="44.0" fill="#000000" transform="matrix(1.00, 0.00, -0.00, -1.00, 313.6, 501.2)">a</text><text xml:space="preserve" font-family="ArialMT,Arial" font-size="44.0" fill="#000000" transform="matrix(1.00, 0.00, -0.00, -1.00, 338.1, 501.2)">i</text><text xml:space="preserve" font-family="ArialMT,Arial" font-size="44.0" fill="#000000" transform="matrix(1.00, 0.00, -0.00, -1.00, 347.9, 501.2)">n</text><text xml:space="preserve" font-family="ArialMT,Arial" font-size="44.0" fill="#000000" transform="matrix(1.00, 0.00, -0.00, -1.00, 372.3, 501.2)"> </text><text xml:space="preserve" font-family="ArialMT,Arial" font-size="44.0" fill="#000000" transform="matrix(1.00, 0.00, -0.00, -1.00, 384.6, 501.2)">o</text><text xml:space="preserve" font-family="ArialMT,Arial" font-size="44.0" fill="#000000" transform="matrix(1.00, 0.00, -0.00, -1.00, 409.0, 501.2)">x</text><text xml:space="preserve" font-family="ArialMT,Arial" font-size="44.0" fill="#000000" transform="matrix(1.00, 0.00, -0.00, -1.00, 431.0, 501.2)">y</text><text xml:space="preserve" font-family="ArialMT,Arial" font-size="44.0" fill="#000000" transform="matrix(1.00, 0.00, -0.00, -1.00, 453.0, 501.2)">g</text><text xml:space="preserve" font-family="ArialMT,Arial" font-size="44.0" fill="#000000" transform="matrix(1.00, 0.00, -0.00, -1.00, 477.5, 501.2)">e</text><text xml:space="preserve" font-family="ArialMT,Arial" font-size="44.0" fill="#000000" transform="matrix(1.00, 0.00, -0.00, -1.00, 502.0, 501.2)">n</text><text xml:space="preserve" font-family="ArialMT,Arial" font-size="44.0" fill="#000000" transform="matrix(1.00, 0.00, -0.00, -1.00, 526.5, 501.2)"> </text><text xml:space="preserve" font-family="ArialMT,Arial" font-size="44.0" fill="#000000" transform="matrix(1.00, 0.00, -0.00, -1.00, 538.7, 501.2)">f</text><text xml:space="preserve" font-family="ArialMT,Arial" font-size="44.0" fill="#000000" transform="matrix(1.00, 0.00, -0.00, -1.00, 550.9, 501.2)">r</text><text xml:space="preserve" font-family="ArialMT,Arial" font-size="44.0" fill="#000000" transform="matrix(1.00, 0.00, -0.00, -1.00, 565.6, 501.2)">o</text><text xml:space="preserve" font-family="ArialMT,Arial" font-size="44.0" fill="#000000" transform="matrix(1.00, 0.00, -0.00, -1.00, 590.0, 501.2)">m</text><text xml:space="preserve" font-family="ArialMT,Arial" font-size="44.0" fill="#000000" transform="matrix(1.00, 0.00, -0.00, -1.00, 626.7, 501.2)"> </text><text xml:space="preserve" font-family="ArialMT,Arial" font-size="44.0" fill="#000000" transform="matrix(1.00, 0.00, -0.00, -1.00, 638.9, 501.2)">t</text><text xml:space="preserve" font-family="ArialMT,Arial" font-size="44.0" fill="#000000" transform="matrix(1.00, 0.00, -0.00, -1.00, 651.1, 501.2)">h</text><text xml:space="preserve" font-family="ArialMT,Arial" font-size="44.0" fill="#000000" transform="matrix(1.00, 0.00, -0.00, -1.00, 675.6, 501.2)">e</text><text xml:space="preserve" font-family="ArialMT,Arial" font-size="44.0" fill="#000000" transform="matrix(1.00, 0.00, -0.00, -1.00, 700.1, 501.2)"> </text><text xml:space="preserve" font-family="ArialMT,Arial" font-size="44.0" fill="#000000" transform="matrix(1.00, 0.00, -0.00, -1.00, 122.8, 451.2)">e</text><text xml:space="preserve" font-family="ArialMT,Arial" font-size="44.0" fill="#000000" transform="matrix(1.00, 0.00, -0.00, -1.00, 147.3, 451.2)">n</text><text xml:space="preserve" font-family="ArialMT,Arial" font-size="44.0" fill="#000000" transform="matrix(1.00, 0.00, -0.00, -1.00, 171.8, 451.2)">v</text><text xml:space="preserve" font-family="ArialMT,Arial" font-size="44.0" fill="#000000" transform="matrix(1.00, 0.00, -0.00, -1.00, 193.8, 451.2)">i</text><text xml:space="preserve" font-family="ArialMT,Arial" font-size="44.0" fill="#000000" transform="matrix(1.00, 0.00, -0.00, -1.00, 203.6, 451.2)">r</text><text xml:space="preserve" font-family="ArialMT,Arial" font-size="44.0" fill="#000000" transform="matrix(1.00, 0.00, -0.00, -1.00, 218.2, 451.2)">o</text><text xml:space="preserve" font-family="ArialMT,Arial" font-size="44.0" fill="#000000" transform="matrix(1.00, 0.00, -0.00, -1.00, 242.7, 451.2)">n</text><text xml:space="preserve" font-family="ArialMT,Arial" font-size="44.0" fill="#000000" transform="matrix(1.00, 0.00, -0.00, -1.00, 267.2, 451.2)">m</text><text xml:space="preserve" font-family="ArialMT,Arial" font-size="44.0" fill="#000000" transform="matrix(1.00, 0.00, -0.00, -1.00, 303.8, 451.2)">e</text><text xml:space="preserve" font-family="ArialMT,Arial" font-size="44.0" fill="#000000" transform="matrix(1.00, 0.00, -0.00, -1.00, 328.3, 451.2)">n</text><text xml:space="preserve" font-family="ArialMT,Arial" font-size="44.0" fill="#000000" transform="matrix(1.00, 0.00, -0.00, -1.00, 352.8, 451.2)">t</text><text xml:space="preserve" font-family="ArialMT,Arial" font-size="44.0" fill="#000000" transform="matrix(1.00, 0.00, -0.00, -1.00, 365.0, 451.2)"> </text><text xml:space="preserve" font-family="ArialMT,Arial" font-size="44.0" fill="#000000" transform="matrix(1.00, 0.00, -0.00, -1.00, 377.2, 451.2)">a</text><text xml:space="preserve" font-family="ArialMT,Arial" font-size="44.0" fill="#000000" transform="matrix(1.00, 0.00, -0.00, -1.00, 401.7, 451.2)">n</text><text xml:space="preserve" font-family="ArialMT,Arial" font-size="44.0" fill="#000000" transform="matrix(1.00, 0.00, -0.00, -1.00, 426.2, 451.2)">d</text><text xml:space="preserve" font-family="ArialMT,Arial" font-size="44.0" fill="#000000" transform="matrix(1.00, 0.00, -0.00, -1.00, 450.6, 451.2)"> </text><text xml:space="preserve" font-family="ArialMT,Arial" font-size="44.0" fill="#000000" transform="matrix(1.00, 0.00, -0.00, -1.00, 462.9, 451.2)">t</text><text xml:space="preserve" font-family="ArialMT,Arial" font-size="44.0" fill="#000000" transform="matrix(1.00, 0.00, -0.00, -1.00, 475.1, 451.2)">r</text><text xml:space="preserve" font-family="ArialMT,Arial" font-size="44.0" fill="#000000" transform="matrix(1.00, 0.00, -0.00, -1.00, 489.7, 451.2)">a</text><text xml:space="preserve" font-family="ArialMT,Arial" font-size="44.0" fill="#000000" transform="matrix(1.00, 0.00, -0.00, -1.00, 514.2, 451.2)">n</text><text xml:space="preserve" font-family="ArialMT,Arial" font-size="44.0" fill="#000000" transform="matrix(1.00, 0.00, -0.00, -1.00, 538.7, 451.2)">s</text><text xml:space="preserve" font-family="ArialMT,Arial" font-size="44.0" fill="#000000" transform="matrix(1.00, 0.00, -0.00, -1.00, 560.7, 451.2)">p</text><text xml:space="preserve" font-family="ArialMT,Arial" font-size="44.0" fill="#000000" transform="matrix(1.00, 0.00, -0.00, -1.00, 585.2, 451.2)">o</text><text xml:space="preserve" font-family="ArialMT,Arial" font-size="44.0" fill="#000000" transform="matrix(1.00, 0.00, -0.00, -1.00, 609.7, 451.2)">r</text><text xml:space="preserve" font-family="ArialMT,Arial" font-size="44.0" fill="#000000" transform="matrix(1.00, 0.00, -0.00, -1.00, 624.3, 451.2)">t</text><text xml:space="preserve" font-family="ArialMT,Arial" font-size="44.0" fill="#000000" transform="matrix(1.00, 0.00, -0.00, -1.00, 636.5, 451.2)"> </text><text xml:space="preserve" font-family="ArialMT,Arial" font-size="44.0" fill="#000000" transform="matrix(1.00, 0.00, -0.00, -1.00, 648.7, 451.2)">i</text><text xml:space="preserve" font-family="ArialMT,Arial" font-size="44.0" fill="#000000" transform="matrix(1.00, 0.00, -0.00, -1.00, 658.5, 451.2)">t</text><text xml:space="preserve" font-family="ArialMT,Arial" font-size="44.0" fill="#000000" transform="matrix(1.00, 0.00, -0.00, -1.00, 670.7, 451.2)"> </text><text xml:space="preserve" font-family="ArialMT,Arial" font-size="44.0" fill="#000000" transform="matrix(1.00, 0.00, -0.00, -1.00, 683.0, 451.2)">t</text><text xml:space="preserve" font-family="ArialMT,Arial" font-size="44.0" fill="#000000" transform="matrix(1.00, 0.00, -0.00, -1.00, 695.2, 451.2)">o</text><text xml:space="preserve" font-family="ArialMT,Arial" font-size="44.0" fill="#000000" transform="matrix(1.00, 0.00, -0.00, -1.00, 719.6, 451.2)"> </text><text xml:space="preserve" font-family="ArialMT,Arial" font-size="44.0" fill="#000000" transform="matrix(1.00, 0.00, -0.00, -1.00, 731.9, 451.2)">t</text><text xml:space="preserve" font-family="ArialMT,Arial" font-size="44.0" fill="#000000" transform="matrix(1.00, 0.00, -0.00, -1.00, 744.1, 451.2)">h</text><text xml:space="preserve" font-family="ArialMT,Arial" font-size="44.0" fill="#000000" transform="matrix(1.00, 0.00, -0.00, -1.00, 768.6, 451.2)">e</text><text xml:space="preserve" font-family="ArialMT,Arial" font-size="44.0" fill="#000000" transform="matrix(1.00, 0.00, -0.00, -1.00, 793.0, 451.2)">i</text><text xml:space="preserve" font-family="ArialMT,Arial" font-size="44.0" fill="#000000" transform="matrix(1.00, 0.00, -0.00, -1.00, 802.8, 451.2)">r</text><text xml:space="preserve" font-family="ArialMT,Arial" font-size="44.0" fill="#000000" transform="matrix(1.00, 0.00, -0.00, -1.00, 817.5, 451.2)"> </text><text xml:space="preserve" font-family="ArialMT,Arial" font-size="44.0" fill="#000000" transform="matrix(1.00, 0.00, -0.00, -1.00, 122.8, 401.2)">t</text><text xml:space="preserve" font-family="ArialMT,Arial" font-size="44.0" fill="#000000" transform="matrix(1.00, 0.00, -0.00, -1.00, 135.0, 401.2)">i</text><text xml:space="preserve" font-family="ArialMT,Arial" font-size="44.0" fill="#000000" transform="matrix(1.00, 0.00, -0.00, -1.00, 144.8, 401.2)">s</text><text xml:space="preserve" font-family="ArialMT,Arial" font-size="44.0" fill="#000000" transform="matrix(1.00, 0.00, -0.00, -1.00, 166.8, 401.2)">s</text><text xml:space="preserve" font-family="ArialMT,Arial" font-size="44.0" fill="#000000" transform="matrix(1.00, 0.00, -0.00, -1.00, 188.8, 401.2)">u</text><text xml:space="preserve" font-family="ArialMT,Arial" font-size="44.0" fill="#000000" transform="matrix(1.00, 0.00, -0.00, -1.00, 213.3, 401.2)">e</text><text xml:space="preserve" font-family="ArialMT,Arial" font-size="44.0" fill="#000000" transform="matrix(1.00, 0.00, -0.00, -1.00, 237.8, 401.2)">s</text><text xml:space="preserve" font-family="ArialMT,Arial" font-size="44.0" fill="#000000" transform="matrix(1.00, 0.00, -0.00, -1.00, 259.8, 401.2)"> </text><text xml:space="preserve" font-family="ArialMT,Arial" font-size="44.0" fill="#000000" transform="matrix(1.00, 0.00, -0.00, -1.00, 85.7, 343.8)">•</text><text xml:space="preserve" font-family="ArialMT,Arial" font-size="44.0" fill="#000000" transform="matrix(1.00, 0.00, -0.00, -1.00, 122.8, 343.8)">T</text><text xml:space="preserve" font-family="ArialMT,Arial" font-size="44.0" fill="#000000" transform="matrix(1.00, 0.00, -0.00, -1.00, 149.7, 343.8)">h</text><text xml:space="preserve" font-family="ArialMT,Arial" font-size="44.0" fill="#000000" transform="matrix(1.00, 0.00, -0.00, -1.00, 174.2, 343.8)">e</text><text xml:space="preserve" font-family="ArialMT,Arial" font-size="44.0" fill="#000000" transform="matrix(1.00, 0.00, -0.00, -1.00, 198.6, 343.8)"> </text><text xml:space="preserve" font-family="ArialMT,Arial" font-size="44.0" fill="#000000" transform="matrix(1.00, 0.00, -0.00, -1.00, 210.9, 343.8)">d</text><text xml:space="preserve" font-family="ArialMT,Arial" font-size="44.0" fill="#000000" transform="matrix(1.00, 0.00, -0.00, -1.00, 235.3, 343.8)">e</text><text xml:space="preserve" font-family="ArialMT,Arial" font-size="44.0" fill="#000000" transform="matrix(1.00, 0.00, -0.00, -1.00, 259.8, 343.8)">t</text><text xml:space="preserve" font-family="ArialMT,Arial" font-size="44.0" fill="#000000" transform="matrix(1.00, 0.00, -0.00, -1.00, 272.0, 343.8)">a</text><text xml:space="preserve" font-family="ArialMT,Arial" font-size="44.0" fill="#000000" transform="matrix(1.00, 0.00, -0.00, -1.00, 296.5, 343.8)">i</text><text xml:space="preserve" font-family="ArialMT,Arial" font-size="44.0" fill="#000000" transform="matrix(1.00, 0.00, -0.00, -1.00, 306.3, 343.8)">l</text><text xml:space="preserve" font-family="ArialMT,Arial" font-size="44.0" fill="#000000" transform="matrix(1.00, 0.00, -0.00, -1.00, 316.1, 343.8)">s</text><text xml:space="preserve" font-family="ArialMT,Arial" font-size="44.0" fill="#000000" transform="matrix(1.00, 0.00, -0.00, -1.00, 338.1, 343.8)"> </text><text xml:space="preserve" font-family="ArialMT,Arial" font-size="44.0" fill="#000000" transform="matrix(1.00, 0.00, -0.00, -1.00, 350.3, 343.8)">o</text><text xml:space="preserve" font-family="ArialMT,Arial" font-size="44.0" fill="#000000" transform="matrix(1.00, 0.00, -0.00, -1.00, 374.8, 343.8)">f</text><text xml:space="preserve" font-family="ArialMT,Arial" font-size="44.0" fill="#000000" transform="matrix(1.00, 0.00, -0.00, -1.00, 387.0, 343.8)"> </text><text xml:space="preserve" font-family="ArialMT,Arial" font-size="44.0" fill="#000000" transform="matrix(1.00, 0.00, -0.00, -1.00, 399.2, 343.8)">h</text><text xml:space="preserve" font-family="ArialMT,Arial" font-size="44.0" fill="#000000" transform="matrix(1.00, 0.00, -0.00, -1.00, 423.7, 343.8)">o</text><text xml:space="preserve" font-family="ArialMT,Arial" font-size="44.0" fill="#000000" transform="matrix(1.00, 0.00, -0.00, -1.00, 448.2, 343.8)">w</text><text xml:space="preserve" font-family="ArialMT,Arial" font-size="44.0" fill="#000000" transform="matrix(1.00, 0.00, -0.00, -1.00, 479.9, 343.8)"> </text><text xml:space="preserve" font-family="ArialMT,Arial" font-size="44.0" fill="#000000" transform="matrix(1.00, 0.00, -0.00, -1.00, 492.2, 343.8)">t</text><text xml:space="preserve" font-family="ArialMT,Arial" font-size="44.0" fill="#000000" transform="matrix(1.00, 0.00, -0.00, -1.00, 504.4, 343.8)">h</text><text xml:space="preserve" font-family="ArialMT,Arial" font-size="44.0" fill="#000000" transform="matrix(1.00, 0.00, -0.00, -1.00, 528.9, 343.8)">i</text><text xml:space="preserve" font-family="ArialMT,Arial" font-size="44.0" fill="#000000" transform="matrix(1.00, 0.00, -0.00, -1.00, 538.6, 343.8)">s</text><text xml:space="preserve" font-family="ArialMT,Arial" font-size="44.0" fill="#000000" transform="matrix(1.00, 0.00, -0.00, -1.00, 560.6, 343.8)"> </text><text xml:space="preserve" font-family="ArialMT,Arial" font-size="44.0" fill="#000000" transform="matrix(1.00, 0.00, -0.00, -1.00, 572.9, 343.8)">o</text><text xml:space="preserve" font-family="ArialMT,Arial" font-size="44.0" fill="#000000" transform="matrix(1.00, 0.00, -0.00, -1.00, 597.3, 343.8)">c</text><text xml:space="preserve" font-family="ArialMT,Arial" font-size="44.0" fill="#000000" transform="matrix(1.00, 0.00, -0.00, -1.00, 619.3, 343.8)">c</text><text xml:space="preserve" font-family="ArialMT,Arial" font-size="44.0" fill="#000000" transform="matrix(1.00, 0.00, -0.00, -1.00, 641.3, 343.8)">u</text><text xml:space="preserve" font-family="ArialMT,Arial" font-size="44.0" fill="#000000" transform="matrix(1.00, 0.00, -0.00, -1.00, 665.8, 343.8)">r</text><text xml:space="preserve" font-family="ArialMT,Arial" font-size="44.0" fill="#000000" transform="matrix(1.00, 0.00, -0.00, -1.00, 680.5, 343.8)">s</text><text xml:space="preserve" font-family="ArialMT,Arial" font-size="44.0" fill="#000000" transform="matrix(1.00, 0.00, -0.00, -1.00, 702.5, 343.8)"> </text><text xml:space="preserve" font-family="ArialMT,Arial" font-size="44.0" fill="#000000" transform="matrix(1.00, 0.00, -0.00, -1.00, 714.7, 343.8)">d</text><text xml:space="preserve" font-family="ArialMT,Arial" font-size="44.0" fill="#000000" transform="matrix(1.00, 0.00, -0.00, -1.00, 739.2, 343.8)">i</text><text xml:space="preserve" font-family="ArialMT,Arial" font-size="44.0" fill="#000000" transform="matrix(1.00, 0.00, -0.00, -1.00, 749.0, 343.8)">f</text><text xml:space="preserve" font-family="ArialMT,Arial" font-size="44.0" fill="#000000" transform="matrix(1.00, 0.00, -0.00, -1.00, 760.4, 343.8)">f</text><text xml:space="preserve" font-family="ArialMT,Arial" font-size="44.0" fill="#000000" transform="matrix(1.00, 0.00, -0.00, -1.00, 772.6, 343.8)">e</text><text xml:space="preserve" font-family="ArialMT,Arial" font-size="44.0" fill="#000000" transform="matrix(1.00, 0.00, -0.00, -1.00, 797.1, 343.8)">r</text><text xml:space="preserve" font-family="ArialMT,Arial" font-size="44.0" fill="#000000" transform="matrix(1.00, 0.00, -0.00, -1.00, 811.7, 343.8)">s</text><text xml:space="preserve" font-family="ArialMT,Arial" font-size="44.0" fill="#000000" transform="matrix(1.00, 0.00, -0.00, -1.00, 833.7, 343.8)"> </text><text xml:space="preserve" font-family="ArialMT,Arial" font-size="44.0" fill="#000000" transform="matrix(1.00, 0.00, -0.00, -1.00, 122.8, 293.8)">d</text><text xml:space="preserve" font-family="ArialMT,Arial" font-size="44.0" fill="#000000" transform="matrix(1.00, 0.00, -0.00, -1.00, 147.3, 293.8)">r</text><text xml:space="preserve" font-family="ArialMT,Arial" font-size="44.0" fill="#000000" transform="matrix(1.00, 0.00, -0.00, -1.00, 161.9, 293.8)">a</text><text xml:space="preserve" font-family="ArialMT,Arial" font-size="44.0" fill="#000000" transform="matrix(1.00, 0.00, -0.00, -1.00, 186.4, 293.8)">s</text><text xml:space="preserve" font-family="ArialMT,Arial" font-size="44.0" fill="#000000" transform="matrix(1.00, 0.00, -0.00, -1.00, 208.4, 293.8)">t</text><text xml:space="preserve" font-family="ArialMT,Arial" font-size="44.0" fill="#000000" transform="matrix(1.00, 0.00, -0.00, -1.00, 220.6, 293.8)">i</text><text xml:space="preserve" font-family="ArialMT,Arial" font-size="44.0" fill="#000000" transform="matrix(1.00, 0.00, -0.00, -1.00, 230.4, 293.8)">c</text><text xml:space="preserve" font-family="ArialMT,Arial" font-size="44.0" fill="#000000" transform="matrix(1.00, 0.00, -0.00, -1.00, 252.4, 293.8)">a</text><text xml:space="preserve" font-family="ArialMT,Arial" font-size="44.0" fill="#000000" transform="matrix(1.00, 0.00, -0.00, -1.00, 276.9, 293.8)">l</text><text xml:space="preserve" font-family="ArialMT,Arial" font-size="44.0" fill="#000000" transform="matrix(1.00, 0.00, -0.00, -1.00, 286.7, 293.8)">l</text><text xml:space="preserve" font-family="ArialMT,Arial" font-size="44.0" fill="#000000" transform="matrix(1.00, 0.00, -0.00, -1.00, 296.5, 293.8)">y</text><text xml:space="preserve" font-family="ArialMT,Arial" font-size="44.0" fill="#000000" transform="matrix(1.00, 0.00, -0.00, -1.00, 318.5, 293.8)"> </text><text xml:space="preserve" font-family="ArialMT,Arial" font-size="44.0" fill="#000000" transform="matrix(1.00, 0.00, -0.00, -1.00, 330.7, 293.8)">a</text><text xml:space="preserve" font-family="ArialMT,Arial" font-size="44.0" fill="#000000" transform="matrix(1.00, 0.00, -0.00, -1.00, 355.2, 293.8)">m</text><text xml:space="preserve" font-family="ArialMT,Arial" font-size="44.0" fill="#000000" transform="matrix(1.00, 0.00, -0.00, -1.00, 391.8, 293.8)">o</text><text xml:space="preserve" font-family="ArialMT,Arial" font-size="44.0" fill="#000000" transform="matrix(1.00, 0.00, -0.00, -1.00, 416.3, 293.8)">n</text><text xml:space="preserve" font-family="ArialMT,Arial" font-size="44.0" fill="#000000" transform="matrix(1.00, 0.00, -0.00, -1.00, 440.8, 293.8)">g</text><text xml:space="preserve" font-family="ArialMT,Arial" font-size="44.0" fill="#000000" transform="matrix(1.00, 0.00, -0.00, -1.00, 465.3, 293.8)"> </text><text xml:space="preserve" font-family="ArialMT,Arial" font-size="44.0" fill="#000000" transform="matrix(1.00, 0.00, -0.00, -1.00, 477.5, 293.8)">t</text><text xml:space="preserve" font-family="ArialMT,Arial" font-size="44.0" fill="#000000" transform="matrix(1.00, 0.00, -0.00, -1.00, 489.7, 293.8)">h</text><text xml:space="preserve" font-family="ArialMT,Arial" font-size="44.0" fill="#000000" transform="matrix(1.00, 0.00, -0.00, -1.00, 514.2, 293.8)">e</text><text xml:space="preserve" font-family="ArialMT,Arial" font-size="44.0" fill="#000000" transform="matrix(1.00, 0.00, -0.00, -1.00, 538.6, 293.8)"> </text><text xml:space="preserve" font-family="ArialMT,Arial" font-size="44.0" fill="#000000" transform="matrix(1.00, 0.00, -0.00, -1.00, 550.9, 293.8)">m</text><text xml:space="preserve" font-family="ArialMT,Arial" font-size="44.0" fill="#000000" transform="matrix(1.00, 0.00, -0.00, -1.00, 587.5, 293.8)">a</text><text xml:space="preserve" font-family="ArialMT,Arial" font-size="44.0" fill="#000000" transform="matrix(1.00, 0.00, -0.00, -1.00, 612.0, 293.8)">j</text><text xml:space="preserve" font-family="ArialMT,Arial" font-size="44.0" fill="#000000" transform="matrix(1.00, 0.00, -0.00, -1.00, 621.8, 293.8)">o</text><text xml:space="preserve" font-family="ArialMT,Arial" font-size="44.0" fill="#000000" transform="matrix(1.00, 0.00, -0.00, -1.00, 646.3, 293.8)">r</text><text xml:space="preserve" font-family="ArialMT,Arial" font-size="44.0" fill="#000000" transform="matrix(1.00, 0.00, -0.00, -1.00, 660.9, 293.8)"> </text><text xml:space="preserve" font-family="ArialMT,Arial" font-size="44.0" fill="#000000" transform="matrix(1.00, 0.00, -0.00, -1.00, 673.1, 293.8)">g</text><text xml:space="preserve" font-family="ArialMT,Arial" font-size="44.0" fill="#000000" transform="matrix(1.00, 0.00, -0.00, -1.00, 697.6, 293.8)">r</text><text xml:space="preserve" font-family="ArialMT,Arial" font-size="44.0" fill="#000000" transform="matrix(1.00, 0.00, -0.00, -1.00, 712.3, 293.8)">o</text><text xml:space="preserve" font-family="ArialMT,Arial" font-size="44.0" fill="#000000" transform="matrix(1.00, 0.00, -0.00, -1.00, 736.7, 293.8)">u</text><text xml:space="preserve" font-family="ArialMT,Arial" font-size="44.0" fill="#000000" transform="matrix(1.00, 0.00, -0.00, -1.00, 761.2, 293.8)">p</text><text xml:space="preserve" font-family="ArialMT,Arial" font-size="44.0" fill="#000000" transform="matrix(1.00, 0.00, -0.00, -1.00, 785.7, 293.8)">s</text><text xml:space="preserve" font-family="ArialMT,Arial" font-size="44.0" fill="#000000" transform="matrix(1.00, 0.00, -0.00, -1.00, 807.7, 293.8)"> </text><text xml:space="preserve" font-family="ArialMT,Arial" font-size="44.0" fill="#000000" transform="matrix(1.00, 0.00, -0.00, -1.00, 819.9, 293.8)">o</text><text xml:space="preserve" font-family="ArialMT,Arial" font-size="44.0" fill="#000000" transform="matrix(1.00, 0.00, -0.00, -1.00, 844.4, 293.8)">f</text><text xml:space="preserve" font-family="ArialMT,Arial" font-size="44.0" fill="#000000" transform="matrix(1.00, 0.00, -0.00, -1.00, 856.6, 293.8)"> </text><text xml:space="preserve" font-family="ArialMT,Arial" font-size="44.0" fill="#000000" transform="matrix(1.00, 0.00, -0.00, -1.00, 122.8, 243.8)">h</text><text xml:space="preserve" font-family="ArialMT,Arial" font-size="44.0" fill="#000000" transform="matrix(1.00, 0.00, -0.00, -1.00, 147.3, 243.8)">e</text><text xml:space="preserve" font-family="ArialMT,Arial" font-size="44.0" fill="#000000" transform="matrix(1.00, 0.00, -0.00, -1.00, 171.8, 243.8)">r</text><text xml:space="preserve" font-family="ArialMT,Arial" font-size="44.0" fill="#000000" transform="matrix(1.00, 0.00, -0.00, -1.00, 186.4, 243.8)">p</text><text xml:space="preserve" font-family="ArialMT,Arial" font-size="44.0" fill="#000000" transform="matrix(1.00, 0.00, -0.00, -1.00, 210.9, 243.8)">s</text></g></svg>