<?xml version="1.0" encoding="UTF-8" standalone="no"?><svg xmlns="http://www.w3.org/2000/svg" xmlns:xlink="http://www.w3.org/1999/xlink" clip-rule="evenodd" stroke-miterlimit="10" viewBox="0 0 628 78"><desc>SVG generated by Keynote</desc><defs></defs><g transform="matrix(1.00, 0.00, -0.00, -1.00, 0.0, 78.0)"><text xml:space="preserve" font-family="Helvetica,Helvetica" font-size="32.0" fill="#FFFFFF" transform="matrix(1.00, 0.00, -0.00, -1.00, -1.0, 53.4)">D</text><text xml:space="preserve" font-family="Helvetica,Helvetica" font-size="32.0" fill="#FFFFFF" transform="matrix(1.00, 0.00, -0.00, -1.00, 22.1, 53.4)">r</text><text xml:space="preserve" font-family="Helvetica,Helvetica" font-size="32.0" fill="#FFFFFF" transform="matrix(1.00, 0.00, -0.00, -1.00, 31.0, 53.4)">.</text><text xml:space="preserve" font-family="Helvetica,Helvetica" font-size="32.0" fill="#FFFFFF" transform="matrix(1.00, 0.00, -0.00, -1.00, 39.9, 53.4)"> </text><text xml:space="preserve" font-family="Helvetica,Helvetica" font-size="32.0" fill="#FFFFFF" transform="matrix(1.00, 0.00, -0.00, -1.00, 48.8, 53.4)">L</text><text xml:space="preserve" font-family="Helvetica,Helvetica" font-size="32.0" fill="#FFFFFF" transform="matrix(1.00, 0.00, -0.00, -1.00, 66.6, 53.4)">u</text><text xml:space="preserve" font-family="Helvetica,Helvetica" font-size="32.0" fill="#FFFFFF" transform="matrix(1.00, 0.00, -0.00, -1.00, 84.4, 53.4)">k</text><text xml:space="preserve" font-family="Helvetica,Helvetica" font-size="32.0" fill="#FFFFFF" transform="matrix(1.00, 0.00, -0.00, -1.00, 100.4, 53.4)">e</text><text xml:space="preserve" font-family="Helvetica,Helvetica" font-size="32.0" fill="#FFFFFF" transform="matrix(1.00, 0.00, -0.00, -1.00, 118.2, 53.4)"> </text><text xml:space="preserve" font-family="Helvetica,Helvetica" font-size="32.0" fill="#FFFFFF" transform="matrix(1.00, 0.00, -0.00, -1.00, 127.1, 53.4)">J</text><text xml:space="preserve" font-family="Helvetica,Helvetica" font-size="32.0" fill="#FFFFFF" transform="matrix(1.00, 0.00, -0.00, -1.00, 143.1, 53.4)">.</text><text xml:space="preserve" font-family="Helvetica,Helvetica" font-size="32.0" fill="#FFFFFF" transform="matrix(1.00, 0.00, -0.00, -1.00, 152.0, 53.4)"> </text><text xml:space="preserve" font-family="Helvetica,Helvetica" font-size="32.0" fill="#FFFFFF" transform="matrix(1.00, 0.00, -0.00, -1.00, 160.9, 53.4)">H</text><text xml:space="preserve" font-family="Helvetica,Helvetica" font-size="32.0" fill="#FFFFFF" transform="matrix(1.00, 0.00, -0.00, -1.00, 184.0, 53.4)">a</text><text xml:space="preserve" font-family="Helvetica,Helvetica" font-size="32.0" fill="#FFFFFF" transform="matrix(1.00, 0.00, -0.00, -1.00, 201.8, 53.4)">r</text><text xml:space="preserve" font-family="Helvetica,Helvetica" font-size="32.0" fill="#FFFFFF" transform="matrix(1.00, 0.00, -0.00, -1.00, 212.4, 53.4)">m</text><text xml:space="preserve" font-family="Helvetica,Helvetica" font-size="32.0" fill="#FFFFFF" transform="matrix(1.00, 0.00, -0.00, -1.00, 239.1, 53.4)">o</text><text xml:space="preserve" font-family="Helvetica,Helvetica" font-size="32.0" fill="#FFFFFF" transform="matrix(1.00, 0.00, -0.00, -1.00, 256.9, 53.4)">n</text><text xml:space="preserve" font-family="Helvetica,Helvetica" font-size="32.0" fill="#FFFFFF" transform="matrix(1.00, 0.00, -0.00, -1.00, 274.7, 53.4)">,</text><text xml:space="preserve" font-family="Helvetica,Helvetica" font-size="32.0" fill="#FFFFFF" transform="matrix(1.00, 0.00, -0.00, -1.00, 283.6, 53.4)"> </text><text xml:space="preserve" font-family="Helvetica,Helvetica" font-size="32.0" fill="#FFFFFF" transform="matrix(1.00, 0.00, -0.00, -1.00, 292.5, 53.4)">L</text><text xml:space="preserve" font-family="Helvetica,Helvetica" font-size="32.0" fill="#FFFFFF" transform="matrix(1.00, 0.00, -0.00, -1.00, 310.3, 53.4)">S</text><text xml:space="preserve" font-family="Helvetica,Helvetica" font-size="32.0" fill="#FFFFFF" transform="matrix(1.00, 0.00, -0.00, -1.00, 331.6, 53.4)">S</text><text xml:space="preserve" font-family="Helvetica,Helvetica" font-size="32.0" fill="#FFFFFF" transform="matrix(1.00, 0.00, -0.00, -1.00, 352.9, 53.4)"> </text><text xml:space="preserve" font-family="Helvetica,Helvetica" font-size="32.0" fill="#FFFFFF" transform="matrix(1.00, 0.00, -0.00, -1.00, 361.8, 53.4)">3</text><text xml:space="preserve" font-family="Helvetica,Helvetica" font-size="32.0" fill="#FFFFFF" transform="matrix(1.00, 0.00, -0.00, -1.00, 379.6, 53.4)">4</text><text xml:space="preserve" font-family="Helvetica,Helvetica" font-size="32.0" fill="#FFFFFF" transform="matrix(1.00, 0.00, -0.00, -1.00, 397.4, 53.4)">7</text><text xml:space="preserve" font-family="Helvetica,Helvetica" font-size="32.0" fill="#FFFFFF" transform="matrix(1.00, 0.00, -0.00, -1.00, -1.0, 8.0)">P</text><text xml:space="preserve" font-family="Helvetica,Helvetica" font-size="32.0" fill="#FFFFFF" transform="matrix(1.00, 0.00, -0.00, -1.00, 20.3, 8.0)">h</text><text xml:space="preserve" font-family="Helvetica,Helvetica" font-size="32.0" fill="#FFFFFF" transform="matrix(1.00, 0.00, -0.00, -1.00, 38.1, 8.0)">o</text><text xml:space="preserve" font-family="Helvetica,Helvetica" font-size="32.0" fill="#FFFFFF" transform="matrix(1.00, 0.00, -0.00, -1.00, 56.0, 8.0)">n</text><text xml:space="preserve" font-family="Helvetica,Helvetica" font-size="32.0" fill="#FFFFFF" transform="matrix(1.00, 0.00, -0.00, -1.00, 73.8, 8.0)">e</text><text xml:space="preserve" font-family="Helvetica,Helvetica" font-size="32.0" fill="#FFFFFF" transform="matrix(1.00, 0.00, -0.00, -1.00, 91.6, 8.0)">:</text><text xml:space="preserve" font-family="Helvetica,Helvetica" font-size="32.0" fill="#FFFFFF" transform="matrix(1.00, 0.00, -0.00, -1.00, 100.4, 8.0)"> </text><text xml:space="preserve" font-family="Helvetica,Helvetica" font-size="32.0" fill="#FFFFFF" transform="matrix(1.00, 0.00, -0.00, -1.00, 109.3, 8.0)">8</text><text xml:space="preserve" font-family="Helvetica,Helvetica" font-size="32.0" fill="#FFFFFF" transform="matrix(1.00, 0.00, -0.00, -1.00, 127.1, 8.0)">8</text><text xml:space="preserve" font-family="Helvetica,Helvetica" font-size="32.0" fill="#FFFFFF" transform="matrix(1.00, 0.00, -0.00, -1.00, 144.9, 8.0)">5</text><text xml:space="preserve" font-family="Helvetica,Helvetica" font-size="32.0" fill="#FFFFFF" transform="matrix(1.00, 0.00, -0.00, -1.00, 162.7, 8.0)">-</text><text xml:space="preserve" font-family="Helvetica,Helvetica" font-size="32.0" fill="#FFFFFF" transform="matrix(1.00, 0.00, -0.00, -1.00, 173.4, 8.0)">0</text><text xml:space="preserve" font-family="Helvetica,Helvetica" font-size="32.0" fill="#FFFFFF" transform="matrix(1.00, 0.00, -0.00, -1.00, 191.2, 8.0)">3</text><text xml:space="preserve" font-family="Helvetica,Helvetica" font-size="32.0" fill="#FFFFFF" transform="matrix(1.00, 0.00, -0.00, -1.00, 209.0, 8.0)">4</text><text xml:space="preserve" font-family="Helvetica,Helvetica" font-size="32.0" fill="#FFFFFF" transform="matrix(1.00, 0.00, -0.00, -1.00, 226.8, 8.0)">6</text><text xml:space="preserve" font-family="Helvetica,Helvetica" font-size="32.0" fill="#FFFFFF" transform="matrix(1.00, 0.00, -0.00, -1.00, 244.6, 8.0)">;</text><text xml:space="preserve" font-family="Helvetica,Helvetica" font-size="32.0" fill="#FFFFFF" transform="matrix(1.00, 0.00, -0.00, -1.00, 253.5, 8.0)"> </text><text xml:space="preserve" font-family="Helvetica,Helvetica" font-size="32.0" fill="#FFFFFF" transform="matrix(1.00, 0.00, -0.00, -1.00, 262.4, 8.0)">E</text><text xml:space="preserve" font-family="Helvetica,Helvetica" font-size="32.0" fill="#FFFFFF" transform="matrix(1.00, 0.00, -0.00, -1.00, 283.7, 8.0)">m</text><text xml:space="preserve" font-family="Helvetica,Helvetica" font-size="32.0" fill="#FFFFFF" transform="matrix(1.00, 0.00, -0.00, -1.00, 310.4, 8.0)">a</text><text xml:space="preserve" font-family="Helvetica,Helvetica" font-size="32.0" fill="#FFFFFF" transform="matrix(1.00, 0.00, -0.00, -1.00, 328.2, 8.0)">i</text><text xml:space="preserve" font-family="Helvetica,Helvetica" font-size="32.0" fill="#FFFFFF" transform="matrix(1.00, 0.00, -0.00, -1.00, 335.3, 8.0)">l</text><text xml:space="preserve" font-family="Helvetica,Helvetica" font-size="32.0" fill="#FFFFFF" transform="matrix(1.00, 0.00, -0.00, -1.00, 342.4, 8.0)">:</text><text xml:space="preserve" font-family="Helvetica,Helvetica" font-size="32.0" fill="#FFFFFF" transform="matrix(1.00, 0.00, -0.00, -1.00, 351.3, 8.0)"> </text><text xml:space="preserve" font-family="Helvetica,Helvetica" font-size="32.0" fill="#000000" transform="matrix(1.00, 0.00, -0.00, -1.00, 360.1, 8.0)">l</text><text xml:space="preserve" font-family="Helvetica,Helvetica" font-size="32.0" fill="#000000" transform="matrix(1.00, 0.00, -0.00, -1.00, 367.2, 8.0)">u</text><text xml:space="preserve" font-family="Helvetica,Helvetica" font-size="32.0" fill="#000000" transform="matrix(1.00, 0.00, -0.00, -1.00, 385.0, 8.0)">k</text><text xml:space="preserve" font-family="Helvetica,Helvetica" font-size="32.0" fill="#000000" transform="matrix(1.00, 0.00, -0.00, -1.00, 401.0, 8.0)">e</text><text xml:space="preserve" font-family="Helvetica,Helvetica" font-size="32.0" fill="#000000" transform="matrix(1.00, 0.00, -0.00, -1.00, 418.8, 8.0)">h</text><text xml:space="preserve" font-family="Helvetica,Helvetica" font-size="32.0" fill="#000000" transform="matrix(1.00, 0.00, -0.00, -1.00, 436.7, 8.0)">@</text><text xml:space="preserve" font-family="Helvetica,Helvetica" font-size="32.0" fill="#000000" transform="matrix(1.00, 0.00, -0.00, -1.00, 469.1, 8.0)">u</text><text xml:space="preserve" font-family="Helvetica,Helvetica" font-size="32.0" fill="#000000" transform="matrix(1.00, 0.00, -0.00, -1.00, 486.9, 8.0)">i</text><text xml:space="preserve" font-family="Helvetica,Helvetica" font-size="32.0" fill="#000000" transform="matrix(1.00, 0.00, -0.00, -1.00, 494.1, 8.0)">d</text><text xml:space="preserve" font-family="Helvetica,Helvetica" font-size="32.0" fill="#000000" transform="matrix(1.00, 0.00, -0.00, -1.00, 511.9, 8.0)">a</text><text xml:space="preserve" font-family="Helvetica,Helvetica" font-size="32.0" fill="#000000" transform="matrix(1.00, 0.00, -0.00, -1.00, 529.7, 8.0)">h</text><text xml:space="preserve" font-family="Helvetica,Helvetica" font-size="32.0" fill="#000000" transform="matrix(1.00, 0.00, -0.00, -1.00, 547.5, 8.0)">o</text><text xml:space="preserve" font-family="Helvetica,Helvetica" font-size="32.0" fill="#000000" transform="matrix(1.00, 0.00, -0.00, -1.00, 565.3, 8.0)">.</text><text xml:space="preserve" font-family="Helvetica,Helvetica" font-size="32.0" fill="#000000" transform="matrix(1.00, 0.00, -0.00, -1.00, 574.2, 8.0)">e</text><text xml:space="preserve" font-family="Helvetica,Helvetica" font-size="32.0" fill="#000000" transform="matrix(1.00, 0.00, -0.00, -1.00, 592.0, 8.0)">d</text><text xml:space="preserve" font-family="Helvetica,Helvetica" font-size="32.0" fill="#000000" transform="matrix(1.00, 0.00, -0.00, -1.00, 609.8, 8.0)">u</text><g><clipPath id="clip0x6000012b0e00"><path d="M 359.1 3.7 L 627.5 3.7 L 627.5 7.3 L 359.1 7.3 Z M 359.1 3.7 "></path></clipPath><g clip-path="url(#clip0x6000012b0e00)"><path d="M 392.1 82.5 L 659.5 82.5 " fill="none" stroke="#000000" stroke-width="1.58" transform="matrix(1.00, 0.00, 0.00, -1.00, -32.0, 88.0)"></path></g></g></g></svg>