<?xml version="1.0" encoding="UTF-8" standalone="no"?><svg xmlns="http://www.w3.org/2000/svg" xmlns:xlink="http://www.w3.org/1999/xlink" clip-rule="evenodd" stroke-miterlimit="10" viewBox="0 0 126 26"><desc>SVG generated by Keynote</desc><defs></defs><g transform="matrix(1.00, 0.00, -0.00, -1.00, 0.0, 26.0)"><text xml:space="preserve" font-family="GillSans,Gill Sans" font-size="26.0" fill="#0056D5" transform="matrix(1.00, 0.00, -0.00, -1.00, 0.4, 7.0)">l</text><text xml:space="preserve" font-family="GillSans,Gill Sans" font-size="26.0" fill="#0056D5" transform="matrix(1.00, 0.00, -0.00, -1.00, 6.1, 7.0)">i</text><text xml:space="preserve" font-family="GillSans,Gill Sans" font-size="26.0" fill="#0056D5" transform="matrix(1.00, 0.00, -0.00, -1.00, 11.8, 7.0)">s</text><text xml:space="preserve" font-family="GillSans,Gill Sans" font-size="26.0" fill="#0056D5" transform="matrix(1.00, 0.00, -0.00, -1.00, 21.8, 7.0)">s</text><text xml:space="preserve" font-family="GillSans,Gill Sans" font-size="26.0" fill="#0056D5" transform="matrix(1.00, 0.00, -0.00, -1.00, 31.8, 7.0)">a</text><text xml:space="preserve" font-family="GillSans,Gill Sans" font-size="26.0" fill="#0056D5" transform="matrix(1.00, 0.00, -0.00, -1.00, 42.9, 7.0)">m</text><text xml:space="preserve" font-family="GillSans,Gill Sans" font-size="26.0" fill="#0056D5" transform="matrix(1.00, 0.00, -0.00, -1.00, 63.0, 7.0)">p</text><text xml:space="preserve" font-family="GillSans,Gill Sans" font-size="26.0" fill="#0056D5" transform="matrix(1.00, 0.00, -0.00, -1.00, 76.0, 7.0)">h</text><text xml:space="preserve" font-family="GillSans,Gill Sans" font-size="26.0" fill="#0056D5" transform="matrix(1.00, 0.00, -0.00, -1.00, 89.0, 7.0)">i</text><text xml:space="preserve" font-family="GillSans,Gill Sans" font-size="26.0" fill="#0056D5" transform="matrix(1.00, 0.00, -0.00, -1.00, 94.7, 7.0)">b</text><text xml:space="preserve" font-family="GillSans,Gill Sans" font-size="26.0" fill="#0056D5" transform="matrix(1.00, 0.00, -0.00, -1.00, 107.7, 7.0)">i</text><text xml:space="preserve" font-family="GillSans,Gill Sans" font-size="26.0" fill="#0056D5" transform="matrix(1.00, 0.00, -0.00, -1.00, 113.4, 7.0)">a</text></g></svg>