<?xml version="1.0" encoding="UTF-8" standalone="no"?><svg xmlns="http://www.w3.org/2000/svg" xmlns:xlink="http://www.w3.org/1999/xlink" clip-rule="evenodd" stroke-miterlimit="10" viewBox="0 0 64 10"><desc>SVG generated by Keynote</desc><defs></defs><g transform="matrix(1.00, 0.00, -0.00, -1.00, 0.0, 10.0)"><text xml:space="preserve" font-family="GillSans,Gill Sans" font-size="14.0" fill="#000000" transform="matrix(1.00, 0.00, -0.00, -1.00, 1.0, 1.2)">s</text><text xml:space="preserve" font-family="GillSans,Gill Sans" font-size="14.0" fill="#000000" transform="matrix(1.00, 0.00, -0.00, -1.00, 6.4, 1.2)">t</text><text xml:space="preserve" font-family="GillSans,Gill Sans" font-size="14.0" fill="#000000" transform="matrix(1.00, 0.00, -0.00, -1.00, 11.1, 1.2)">e</text><text xml:space="preserve" font-family="GillSans,Gill Sans" font-size="14.0" fill="#000000" transform="matrix(1.00, 0.00, -0.00, -1.00, 17.8, 1.2)">m</text><text xml:space="preserve" font-family="GillSans,Gill Sans" font-size="14.0" fill="#000000" transform="matrix(1.00, 0.00, -0.00, -1.00, 28.6, 1.2)"> </text><text xml:space="preserve" font-family="GillSans,Gill Sans" font-size="14.0" fill="#000000" transform="matrix(1.00, 0.00, -0.00, -1.00, 32.4, 1.2)">n</text><text xml:space="preserve" font-family="GillSans,Gill Sans" font-size="14.0" fill="#000000" transform="matrix(1.00, 0.00, -0.00, -1.00, 39.4, 1.2)">a</text><text xml:space="preserve" font-family="GillSans,Gill Sans" font-size="14.0" fill="#000000" transform="matrix(1.00, 0.00, -0.00, -1.00, 45.4, 1.2)">m</text><text xml:space="preserve" font-family="GillSans,Gill Sans" font-size="14.0" fill="#000000" transform="matrix(1.00, 0.00, -0.00, -1.00, 56.2, 1.2)">e</text></g></svg>