<?xml version="1.0" encoding="UTF-8" standalone="no"?><svg xmlns="http://www.w3.org/2000/svg" xmlns:xlink="http://www.w3.org/1999/xlink" clip-rule="evenodd" stroke-miterlimit="10" viewBox="0 0 115 21"><desc>SVG generated by Keynote</desc><defs></defs><g transform="matrix(1.00, 0.00, -0.00, -1.00, 0.0, 21.0)"><text xml:space="preserve" font-family="GillSans,Gill Sans" font-size="26.0" fill="#000000" transform="matrix(1.00, 0.00, -0.00, -1.00, 1.1, 2.0)">o</text><text xml:space="preserve" font-family="GillSans,Gill Sans" font-size="26.0" fill="#000000" transform="matrix(1.00, 0.00, -0.00, -1.00, 15.5, 2.0)">t</text><text xml:space="preserve" font-family="GillSans,Gill Sans" font-size="26.0" fill="#000000" transform="matrix(1.00, 0.00, -0.00, -1.00, 24.1, 2.0)">h</text><text xml:space="preserve" font-family="GillSans,Gill Sans" font-size="26.0" fill="#000000" transform="matrix(1.00, 0.00, -0.00, -1.00, 37.1, 2.0)">e</text><text xml:space="preserve" font-family="GillSans,Gill Sans" font-size="26.0" fill="#000000" transform="matrix(1.00, 0.00, -0.00, -1.00, 49.6, 2.0)">r</text><text xml:space="preserve" font-family="GillSans,Gill Sans" font-size="26.0" fill="#000000" transform="matrix(1.00, 0.00, -0.00, -1.00, 59.9, 2.0)"> </text><text xml:space="preserve" font-family="GillSans,Gill Sans" font-size="26.0" fill="#000000" transform="matrix(1.00, 0.00, -0.00, -1.00, 67.1, 2.0)">s</text><text xml:space="preserve" font-family="GillSans,Gill Sans" font-size="26.0" fill="#000000" transform="matrix(1.00, 0.00, -0.00, -1.00, 77.1, 2.0)">t</text><text xml:space="preserve" font-family="GillSans,Gill Sans" font-size="26.0" fill="#000000" transform="matrix(1.00, 0.00, -0.00, -1.00, 85.8, 2.0)">u</text><text xml:space="preserve" font-family="GillSans,Gill Sans" font-size="26.0" fill="#000000" transform="matrix(1.00, 0.00, -0.00, -1.00, 98.8, 2.0)">f</text><text xml:space="preserve" font-family="GillSans,Gill Sans" font-size="26.0" fill="#000000" transform="matrix(1.00, 0.00, -0.00, -1.00, 105.3, 2.0)">f</text></g></svg>