<?xml version="1.0" encoding="UTF-8" standalone="no"?><svg xmlns="http://www.w3.org/2000/svg" xmlns:xlink="http://www.w3.org/1999/xlink" clip-rule="evenodd" stroke-miterlimit="10" viewBox="0 0 118 56"><desc>SVG generated by Keynote</desc><defs></defs><g transform="matrix(1.00, 0.00, -0.00, -1.00, 0.0, 56.0)"><text xml:space="preserve" font-family="GillSans,Gill Sans" font-size="26.0" fill="#000000" transform="matrix(1.00, 0.00, -0.00, -1.00, 32.2, 37.0)">l</text><text xml:space="preserve" font-family="GillSans,Gill Sans" font-size="26.0" fill="#000000" transform="matrix(1.00, 0.00, -0.00, -1.00, 37.9, 37.0)">i</text><text xml:space="preserve" font-family="GillSans,Gill Sans" font-size="26.0" fill="#000000" transform="matrix(1.00, 0.00, -0.00, -1.00, 43.6, 37.0)">v</text><text xml:space="preserve" font-family="GillSans,Gill Sans" font-size="26.0" fill="#000000" transform="matrix(1.00, 0.00, -0.00, -1.00, 55.0, 37.0)">i</text><text xml:space="preserve" font-family="GillSans,Gill Sans" font-size="26.0" fill="#000000" transform="matrix(1.00, 0.00, -0.00, -1.00, 60.7, 37.0)">n</text><text xml:space="preserve" font-family="GillSans,Gill Sans" font-size="26.0" fill="#000000" transform="matrix(1.00, 0.00, -0.00, -1.00, 73.7, 37.0)">g</text><text xml:space="preserve" font-family="GillSans,Gill Sans" font-size="26.0" fill="#000000" transform="matrix(1.00, 0.00, -0.00, -1.00, 84.8, 37.0)"> </text><text xml:space="preserve" font-family="GillSans,Gill Sans" font-size="26.0" fill="#000000" transform="matrix(1.00, 0.00, -0.00, -1.00, 0.6, 7.0)">a</text><text xml:space="preserve" font-family="GillSans,Gill Sans" font-size="26.0" fill="#000000" transform="matrix(1.00, 0.00, -0.00, -1.00, 11.7, 7.0)">m</text><text xml:space="preserve" font-family="GillSans,Gill Sans" font-size="26.0" fill="#000000" transform="matrix(1.00, 0.00, -0.00, -1.00, 31.8, 7.0)">p</text><text xml:space="preserve" font-family="GillSans,Gill Sans" font-size="26.0" fill="#000000" transform="matrix(1.00, 0.00, -0.00, -1.00, 44.8, 7.0)">h</text><text xml:space="preserve" font-family="GillSans,Gill Sans" font-size="26.0" fill="#000000" transform="matrix(1.00, 0.00, -0.00, -1.00, 57.8, 7.0)">i</text><text xml:space="preserve" font-family="GillSans,Gill Sans" font-size="26.0" fill="#000000" transform="matrix(1.00, 0.00, -0.00, -1.00, 63.5, 7.0)">b</text><text xml:space="preserve" font-family="GillSans,Gill Sans" font-size="26.0" fill="#000000" transform="matrix(1.00, 0.00, -0.00, -1.00, 76.5, 7.0)">i</text><text xml:space="preserve" font-family="GillSans,Gill Sans" font-size="26.0" fill="#000000" transform="matrix(1.00, 0.00, -0.00, -1.00, 82.2, 7.0)">a</text><text xml:space="preserve" font-family="GillSans,Gill Sans" font-size="26.0" fill="#000000" transform="matrix(1.00, 0.00, -0.00, -1.00, 93.3, 7.0)">n</text><text xml:space="preserve" font-family="GillSans,Gill Sans" font-size="26.0" fill="#000000" transform="matrix(1.00, 0.00, -0.00, -1.00, 106.3, 7.0)">s</text></g></svg>