<?xml version="1.0" encoding="UTF-8" standalone="no"?><svg xmlns="http://www.w3.org/2000/svg" xmlns:xlink="http://www.w3.org/1999/xlink" clip-rule="evenodd" stroke-miterlimit="10" viewBox="0 0 720 540"><desc>SVG generated by Keynote</desc><defs></defs><g transform="matrix(1.00, 0.00, -0.00, -1.00, 0.0, 540.0)"><path d="M 0.0 540.0 L 720.0 540.0 L 720.0 0.0 L 0.0 0.0 Z M 0.0 540.0 " fill="#FEFFFF"></path><image xlink:href="../../07830FD0-B307-413B-B2AD-55854FD6470B/assets/74424D9BBA34FB3414AA23B29B1C62A3.png" width="1494.00" height="445.00" transform="matrix(0.46, 0.00, -0.00, -0.46, 19.0, 372.0)"></image><text xml:space="preserve" font-family="GillSans,Gill Sans" font-size="18.0" fill="#000000" transform="matrix(1.00, 0.00, -0.00, -1.00, 460.7, 6.6)">R</text><text xml:space="preserve" font-family="GillSans,Gill Sans" font-size="18.0" fill="#000000" transform="matrix(1.00, 0.00, -0.00, -1.00, 471.6, 6.6)">o</text><text xml:space="preserve" font-family="GillSans,Gill Sans" font-size="18.0" fill="#000000" transform="matrix(1.00, 0.00, -0.00, -1.00, 481.5, 6.6)">e</text><text xml:space="preserve" font-family="GillSans,Gill Sans" font-size="18.0" fill="#000000" transform="matrix(1.00, 0.00, -0.00, -1.00, 490.2, 6.6)">l</text><text xml:space="preserve" font-family="GillSans,Gill Sans" font-size="18.0" fill="#000000" transform="matrix(1.00, 0.00, -0.00, -1.00, 494.1, 6.6)">a</text><text xml:space="preserve" font-family="GillSans,Gill Sans" font-size="18.0" fill="#000000" transform="matrix(1.00, 0.00, -0.00, -1.00, 501.8, 6.6)">n</text><text xml:space="preserve" font-family="GillSans,Gill Sans" font-size="18.0" fill="#000000" transform="matrix(1.00, 0.00, -0.00, -1.00, 510.8, 6.6)">t</text><text xml:space="preserve" font-family="GillSans,Gill Sans" font-size="18.0" fill="#000000" transform="matrix(1.00, 0.00, -0.00, -1.00, 516.8, 6.6)">s</text><text xml:space="preserve" font-family="GillSans,Gill Sans" font-size="18.0" fill="#000000" transform="matrix(1.00, 0.00, -0.00, -1.00, 523.7, 6.6)"> </text><text xml:space="preserve" font-family="GillSans,Gill Sans" font-size="18.0" fill="#000000" transform="matrix(1.00, 0.00, -0.00, -1.00, 528.7, 6.6)">e</text><text xml:space="preserve" font-family="GillSans,Gill Sans" font-size="18.0" fill="#000000" transform="matrix(1.00, 0.00, -0.00, -1.00, 537.3, 6.6)">t</text><text xml:space="preserve" font-family="GillSans,Gill Sans" font-size="18.0" fill="#000000" transform="matrix(1.00, 0.00, -0.00, -1.00, 543.3, 6.6)"> </text><text xml:space="preserve" font-family="GillSans,Gill Sans" font-size="18.0" fill="#000000" transform="matrix(1.00, 0.00, -0.00, -1.00, 548.3, 6.6)">a</text><text xml:space="preserve" font-family="GillSans,Gill Sans" font-size="18.0" fill="#000000" transform="matrix(1.00, 0.00, -0.00, -1.00, 556.0, 6.6)">l</text><text xml:space="preserve" font-family="GillSans,Gill Sans" font-size="18.0" fill="#000000" transform="matrix(1.00, 0.00, -0.00, -1.00, 559.9, 6.6)">.</text><text xml:space="preserve" font-family="GillSans,Gill Sans" font-size="18.0" fill="#000000" transform="matrix(1.00, 0.00, -0.00, -1.00, 562.1, 6.6)"> </text><text xml:space="preserve" font-family="GillSans,Gill Sans" font-size="18.0" fill="#000000" transform="matrix(1.00, 0.00, -0.00, -1.00, 567.1, 6.6)">2</text><text xml:space="preserve" font-family="GillSans,Gill Sans" font-size="18.0" fill="#000000" transform="matrix(1.00, 0.00, -0.00, -1.00, 576.1, 6.6)">0</text><text xml:space="preserve" font-family="GillSans,Gill Sans" font-size="18.0" fill="#000000" transform="matrix(1.00, 0.00, -0.00, -1.00, 585.1, 6.6)">0</text><text xml:space="preserve" font-family="GillSans,Gill Sans" font-size="18.0" fill="#000000" transform="matrix(1.00, 0.00, -0.00, -1.00, 594.1, 6.6)">7</text><text xml:space="preserve" font-family="GillSans,Gill Sans" font-size="18.0" fill="#000000" transform="matrix(1.00, 0.00, -0.00, -1.00, 603.1, 6.6)"> </text><text xml:space="preserve" font-family="GillSans,Gill Sans" font-size="18.0" fill="#000000" transform="matrix(1.00, 0.00, -0.00, -1.00, 608.1, 6.6)">P</text><text xml:space="preserve" font-family="GillSans,Gill Sans" font-size="18.0" fill="#000000" transform="matrix(1.00, 0.00, -0.00, -1.00, 617.2, 6.6)">N</text><text xml:space="preserve" font-family="GillSans,Gill Sans" font-size="18.0" fill="#000000" transform="matrix(1.00, 0.00, -0.00, -1.00, 631.3, 6.6)">A</text><text xml:space="preserve" font-family="GillSans,Gill Sans" font-size="18.0" fill="#000000" transform="matrix(1.00, 0.00, -0.00, -1.00, 643.3, 6.6)">S</text><text xml:space="preserve" font-family="GillSans,Gill Sans" font-size="18.0" fill="#000000" transform="matrix(1.00, 0.00, -0.00, -1.00, 651.5, 6.6)"> </text><text xml:space="preserve" font-family="GillSans,Gill Sans" font-size="18.0" fill="#000000" transform="matrix(1.00, 0.00, -0.00, -1.00, 656.5, 6.6)">1</text><text xml:space="preserve" font-family="GillSans,Gill Sans" font-size="18.0" fill="#000000" transform="matrix(1.00, 0.00, -0.00, -1.00, 665.5, 6.6)">0</text><text xml:space="preserve" font-family="GillSans,Gill Sans" font-size="18.0" fill="#000000" transform="matrix(1.00, 0.00, -0.00, -1.00, 674.5, 6.6)">4</text><text xml:space="preserve" font-family="GillSans,Gill Sans" font-size="18.0" fill="#000000" transform="matrix(1.00, 0.00, -0.00, -1.00, 683.5, 6.6)">:</text><text xml:space="preserve" font-family="GillSans,Gill Sans" font-size="18.0" fill="#000000" transform="matrix(1.00, 0.00, -0.00, -1.00, 685.7, 6.6)"> </text><text xml:space="preserve" font-family="GillSans,Gill Sans" font-size="18.0" fill="#000000" transform="matrix(1.00, 0.00, -0.00, -1.00, 690.7, 6.6)">8</text><text xml:space="preserve" font-family="GillSans,Gill Sans" font-size="18.0" fill="#000000" transform="matrix(1.00, 0.00, -0.00, -1.00, 699.7, 6.6)">8</text><text xml:space="preserve" font-family="GillSans,Gill Sans" font-size="18.0" fill="#000000" transform="matrix(1.00, 0.00, -0.00, -1.00, 708.7, 6.6)">7</text></g></svg>