<?xml version="1.0" encoding="UTF-8" standalone="no"?><svg xmlns="http://www.w3.org/2000/svg" xmlns:xlink="http://www.w3.org/1999/xlink" clip-rule="evenodd" stroke-miterlimit="4.00" viewBox="0 0 1024 768"><desc>SVG generated by Keynote</desc><defs></defs><g transform="matrix(1.00, 0.00, -0.00, -1.00, 0.0, 768.0)"><g><clipPath id="clip-84"><path d="M 0.0 768.0 L 1024.0 768.0 L 1024.0 0.0 L 0.0 0.0 Z M 0.0 768.0 "></path></clipPath><g clip-path="url(#clip-84)"><image xlink:href="../../C9BB2F21-7097-4279-8A02-40FCEE817F8A/assets/5E504543DA7BCE62C2A0475F0A9742EF.jpeg" width="1365.00" height="767.00" transform="matrix(2.81, 0.00, -0.00, -2.82, -1408.0, 1464.0)"></image></g></g><path d="M 0.0 0.0 L 980.0 0.0 L 980.0 726.0 L 0.0 726.0 Z M 0.0 0.0 " fill="none" stroke="#A2A0A6" stroke-width="2.00" transform="matrix(1.00, 0.00, 0.00, -1.00, 22.3, 746.0)"></path><path d="M 0.0 0.0 L 981.1 0.0 " fill="none" stroke="#A2A0A6" stroke-width="2.00" transform="matrix(1.00, 0.00, 0.00, -1.00, 21.9, 110.0)"></path><g><clipPath id="clip-85"><path d="M 677.0 530.0 L 995.0 530.0 L 995.0 326.0 L 677.0 326.0 Z M 677.0 530.0 "></path></clipPath><g clip-path="url(#clip-85)"><image xlink:href="../../D2BB2F21-7097-4279-8A02-40FCEE817F8A/assets/DC230575FFF2221261DAF29A82D1E1E0.jpeg" width="318.00" height="253.00" transform="matrix(1.00, 0.00, -0.00, -1.00, 677.0, 555.0)"></image></g></g><g><clipPath id="clip-86"><path d="M 677.0 320.0 L 995.0 320.0 L 995.0 117.0 L 677.0 117.0 Z M 677.0 320.0 "></path></clipPath><g clip-path="url(#clip-86)"><image xlink:href="../../D2BB2F21-7097-4279-8A02-40FCEE817F8A/assets/3C646D2D0C61F91C4C1382D080093F2A.jpeg" width="318.00" height="221.00" transform="matrix(1.00, 0.00, -0.00, -1.00, 677.0, 329.0)"></image></g></g><g><clipPath id="clip-87"><path d="M 29.0 739.0 L 671.0 739.0 L 671.0 117.0 L 29.0 117.0 Z M 29.0 739.0 "></path></clipPath><g clip-path="url(#clip-87)"><image xlink:href="../../D2BB2F21-7097-4279-8A02-40FCEE817F8A/assets/9CE33B0CAF13C741DDB551A3EAB0F0CF.jpeg" width="800.00" height="600.00" transform="matrix(1.04, 0.00, -0.00, -1.04, -65.0, 739.0)"></image></g></g><g><clipPath id="clip-88"><path d="M 677.0 739.0 L 995.0 739.0 L 995.0 536.0 L 677.0 536.0 Z M 677.0 739.0 "></path></clipPath><g clip-path="url(#clip-88)"><image xlink:href="../../D2BB2F21-7097-4279-8A02-40FCEE817F8A/assets/03630D4D045D4D54E00B706A648FED2A.jpeg" width="318.00" height="266.00" transform="matrix(1.00, 0.00, -0.00, -1.00, 677.0, 745.0)"></image></g></g><text xml:space="preserve" font-family="HelveticaNeue-CondensedBold" font-weight="bold" font-size="37.8" fill="#DDDCDE" transform="matrix(1.00, 0.00, -0.00, -1.00, 33.0, 69.0)">C</text><text xml:space="preserve" font-family="HelveticaNeue-CondensedBold" font-weight="bold" font-size="37.8" fill="#DDDCDE" transform="matrix(1.00, 0.00, -0.00, -1.00, 53.3, 69.0)">H</text><text xml:space="preserve" font-family="HelveticaNeue-CondensedBold" font-weight="bold" font-size="37.8" fill="#DDDCDE" transform="matrix(1.00, 0.00, -0.00, -1.00, 74.3, 69.0)">A</text><text xml:space="preserve" font-family="HelveticaNeue-CondensedBold" font-weight="bold" font-size="37.8" fill="#DDDCDE" transform="matrix(1.00, 0.00, -0.00, -1.00, 95.3, 69.0)">R</text><text xml:space="preserve" font-family="HelveticaNeue-CondensedBold" font-weight="bold" font-size="37.8" fill="#DDDCDE" transform="matrix(1.00, 0.00, -0.00, -1.00, 116.3, 69.0)">I</text><text xml:space="preserve" font-family="HelveticaNeue-CondensedBold" font-weight="bold" font-size="37.8" fill="#DDDCDE" transform="matrix(1.00, 0.00, -0.00, -1.00, 126.1, 69.0)">S</text><text xml:space="preserve" font-family="HelveticaNeue-CondensedBold" font-weight="bold" font-size="37.8" fill="#DDDCDE" transform="matrix(1.00, 0.00, -0.00, -1.00, 145.7, 69.0)">M</text><text xml:space="preserve" font-family="HelveticaNeue-CondensedBold" font-weight="bold" font-size="37.8" fill="#DDDCDE" transform="matrix(1.00, 0.00, -0.00, -1.00, 173.7, 69.0)">A</text><text xml:space="preserve" font-family="HelveticaNeue-CondensedBold" font-weight="bold" font-size="37.8" fill="#DDDCDE" transform="matrix(1.00, 0.00, -0.00, -1.00, 192.6, 69.0)">T</text><text xml:space="preserve" font-family="HelveticaNeue-CondensedBold" font-weight="bold" font-size="37.8" fill="#DDDCDE" transform="matrix(1.00, 0.00, -0.00, -1.00, 210.8, 69.0)">I</text><text xml:space="preserve" font-family="HelveticaNeue-CondensedBold" font-weight="bold" font-size="37.8" fill="#DDDCDE" transform="matrix(1.00, 0.00, -0.00, -1.00, 220.5, 69.0)">C</text><text xml:space="preserve" font-family="HelveticaNeue-CondensedBold" font-weight="bold" font-size="37.8" fill="#DDDCDE" transform="matrix(1.00, 0.00, -0.00, -1.00, 240.8, 69.0)"> </text><text xml:space="preserve" font-family="HelveticaNeue-CondensedBold" font-weight="bold" font-size="37.8" fill="#DDDCDE" transform="matrix(1.00, 0.00, -0.00, -1.00, 249.9, 69.0)">S</text><text xml:space="preserve" font-family="HelveticaNeue-CondensedBold" font-weight="bold" font-size="37.8" fill="#DDDCDE" transform="matrix(1.00, 0.00, -0.00, -1.00, 269.5, 69.0)">P</text><text xml:space="preserve" font-family="HelveticaNeue-CondensedBold" font-weight="bold" font-size="37.8" fill="#DDDCDE" transform="matrix(1.00, 0.00, -0.00, -1.00, 289.1, 69.0)">E</text><text xml:space="preserve" font-family="HelveticaNeue-CondensedBold" font-weight="bold" font-size="37.8" fill="#DDDCDE" transform="matrix(1.00, 0.00, -0.00, -1.00, 307.3, 69.0)">C</text><text xml:space="preserve" font-family="HelveticaNeue-CondensedBold" font-weight="bold" font-size="37.8" fill="#DDDCDE" transform="matrix(1.00, 0.00, -0.00, -1.00, 327.6, 69.0)">I</text><text xml:space="preserve" font-family="HelveticaNeue-CondensedBold" font-weight="bold" font-size="37.8" fill="#DDDCDE" transform="matrix(1.00, 0.00, -0.00, -1.00, 337.4, 69.0)">E</text><text xml:space="preserve" font-family="HelveticaNeue-CondensedBold" font-weight="bold" font-size="37.8" fill="#DDDCDE" transform="matrix(1.00, 0.00, -0.00, -1.00, 355.5, 69.0)">S</text><text xml:space="preserve" font-family="HelveticaNeue-CondensedBold" font-weight="bold" font-size="21.1" fill="#6596B5" transform="matrix(1.00, 0.00, -0.00, -1.00, 33.0, 33.0)">S</text><text xml:space="preserve" font-family="HelveticaNeue-CondensedBold" font-weight="bold" font-size="21.1" fill="#6596B5" transform="matrix(1.00, 0.00, -0.00, -1.00, 44.0, 33.0)">P</text><text xml:space="preserve" font-family="HelveticaNeue-CondensedBold" font-weight="bold" font-size="21.1" fill="#6596B5" transform="matrix(1.00, 0.00, -0.00, -1.00, 54.9, 33.0)">E</text><text xml:space="preserve" font-family="HelveticaNeue-CondensedBold" font-weight="bold" font-size="21.1" fill="#6596B5" transform="matrix(1.00, 0.00, -0.00, -1.00, 65.1, 33.0)">C</text><text xml:space="preserve" font-family="HelveticaNeue-CondensedBold" font-weight="bold" font-size="21.1" fill="#6596B5" transform="matrix(1.00, 0.00, -0.00, -1.00, 76.4, 33.0)">I</text><text xml:space="preserve" font-family="HelveticaNeue-CondensedBold" font-weight="bold" font-size="21.1" fill="#6596B5" transform="matrix(1.00, 0.00, -0.00, -1.00, 81.9, 33.0)">E</text><text xml:space="preserve" font-family="HelveticaNeue-CondensedBold" font-weight="bold" font-size="21.1" fill="#6596B5" transform="matrix(1.00, 0.00, -0.00, -1.00, 92.0, 33.0)">S</text><text xml:space="preserve" font-family="HelveticaNeue-CondensedBold" font-weight="bold" font-size="21.1" fill="#6596B5" transform="matrix(1.00, 0.00, -0.00, -1.00, 103.0, 33.0)"> </text><text xml:space="preserve" font-family="HelveticaNeue-CondensedBold" font-weight="bold" font-size="21.1" fill="#6596B5" transform="matrix(1.00, 0.00, -0.00, -1.00, 107.3, 33.0)">T</text><text xml:space="preserve" font-family="HelveticaNeue-CondensedBold" font-weight="bold" font-size="21.1" fill="#6596B5" transform="matrix(1.00, 0.00, -0.00, -1.00, 117.4, 33.0)">H</text><text xml:space="preserve" font-family="HelveticaNeue-CondensedBold" font-weight="bold" font-size="21.1" fill="#6596B5" transform="matrix(1.00, 0.00, -0.00, -1.00, 129.2, 33.0)">A</text><text xml:space="preserve" font-family="HelveticaNeue-CondensedBold" font-weight="bold" font-size="21.1" fill="#6596B5" transform="matrix(1.00, 0.00, -0.00, -1.00, 139.7, 33.0)">T</text><text xml:space="preserve" font-family="HelveticaNeue-CondensedBold" font-weight="bold" font-size="21.1" fill="#6596B5" transform="matrix(1.00, 0.00, -0.00, -1.00, 149.9, 33.0)"> </text><text xml:space="preserve" font-family="HelveticaNeue-CondensedBold" font-weight="bold" font-size="21.1" fill="#6596B5" transform="matrix(1.00, 0.00, -0.00, -1.00, 154.2, 33.0)">A</text><text xml:space="preserve" font-family="HelveticaNeue-CondensedBold" font-weight="bold" font-size="21.1" fill="#6596B5" transform="matrix(1.00, 0.00, -0.00, -1.00, 165.9, 33.0)">R</text><text xml:space="preserve" font-family="HelveticaNeue-CondensedBold" font-weight="bold" font-size="21.1" fill="#6596B5" transform="matrix(1.00, 0.00, -0.00, -1.00, 177.7, 33.0)">E</text><text xml:space="preserve" font-family="HelveticaNeue-CondensedBold" font-weight="bold" font-size="21.1" fill="#6596B5" transform="matrix(1.00, 0.00, -0.00, -1.00, 187.8, 33.0)"> </text><text xml:space="preserve" font-family="HelveticaNeue-CondensedBold" font-weight="bold" font-size="21.1" fill="#6596B5" transform="matrix(1.00, 0.00, -0.00, -1.00, 192.9, 33.0)">L</text><text xml:space="preserve" font-family="HelveticaNeue-CondensedBold" font-weight="bold" font-size="21.1" fill="#6596B5" transform="matrix(1.00, 0.00, -0.00, -1.00, 202.7, 33.0)">A</text><text xml:space="preserve" font-family="HelveticaNeue-CondensedBold" font-weight="bold" font-size="21.1" fill="#6596B5" transform="matrix(1.00, 0.00, -0.00, -1.00, 214.4, 33.0)">R</text><text xml:space="preserve" font-family="HelveticaNeue-CondensedBold" font-weight="bold" font-size="21.1" fill="#6596B5" transform="matrix(1.00, 0.00, -0.00, -1.00, 226.1, 33.0)">G</text><text xml:space="preserve" font-family="HelveticaNeue-CondensedBold" font-weight="bold" font-size="21.1" fill="#6596B5" transform="matrix(1.00, 0.00, -0.00, -1.00, 237.9, 33.0)">E</text><text xml:space="preserve" font-family="HelveticaNeue-CondensedBold" font-weight="bold" font-size="21.1" fill="#6596B5" transform="matrix(1.00, 0.00, -0.00, -1.00, 248.0, 33.0)">,</text><text xml:space="preserve" font-family="HelveticaNeue-CondensedBold" font-weight="bold" font-size="21.1" fill="#6596B5" transform="matrix(1.00, 0.00, -0.00, -1.00, 252.3, 33.0)"> </text><text xml:space="preserve" font-family="HelveticaNeue-CondensedBold" font-weight="bold" font-size="21.1" fill="#6596B5" transform="matrix(1.00, 0.00, -0.00, -1.00, 257.4, 33.0)">B</text><text xml:space="preserve" font-family="HelveticaNeue-CondensedBold" font-weight="bold" font-size="21.1" fill="#6596B5" transform="matrix(1.00, 0.00, -0.00, -1.00, 269.1, 33.0)">R</text><text xml:space="preserve" font-family="HelveticaNeue-CondensedBold" font-weight="bold" font-size="21.1" fill="#6596B5" transform="matrix(1.00, 0.00, -0.00, -1.00, 280.9, 33.0)">I</text><text xml:space="preserve" font-family="HelveticaNeue-CondensedBold" font-weight="bold" font-size="21.1" fill="#6596B5" transform="matrix(1.00, 0.00, -0.00, -1.00, 286.3, 33.0)">G</text><text xml:space="preserve" font-family="HelveticaNeue-CondensedBold" font-weight="bold" font-size="21.1" fill="#6596B5" transform="matrix(1.00, 0.00, -0.00, -1.00, 298.1, 33.0)">H</text><text xml:space="preserve" font-family="HelveticaNeue-CondensedBold" font-weight="bold" font-size="21.1" fill="#6596B5" transform="matrix(1.00, 0.00, -0.00, -1.00, 309.8, 33.0)">T</text><text xml:space="preserve" font-family="HelveticaNeue-CondensedBold" font-weight="bold" font-size="21.1" fill="#6596B5" transform="matrix(1.00, 0.00, -0.00, -1.00, 320.0, 33.0)">L</text><text xml:space="preserve" font-family="HelveticaNeue-CondensedBold" font-weight="bold" font-size="21.1" fill="#6596B5" transform="matrix(1.00, 0.00, -0.00, -1.00, 327.8, 33.0)">Y</text><text xml:space="preserve" font-family="HelveticaNeue-CondensedBold" font-weight="bold" font-size="21.1" fill="#6596B5" transform="matrix(1.00, 0.00, -0.00, -1.00, 338.8, 33.0)"> </text><text xml:space="preserve" font-family="HelveticaNeue-CondensedBold" font-weight="bold" font-size="21.1" fill="#6596B5" transform="matrix(1.00, 0.00, -0.00, -1.00, 343.8, 33.0)">C</text><text xml:space="preserve" font-family="HelveticaNeue-CondensedBold" font-weight="bold" font-size="21.1" fill="#6596B5" transform="matrix(1.00, 0.00, -0.00, -1.00, 355.2, 33.0)">O</text><text xml:space="preserve" font-family="HelveticaNeue-CondensedBold" font-weight="bold" font-size="21.1" fill="#6596B5" transform="matrix(1.00, 0.00, -0.00, -1.00, 366.9, 33.0)">L</text><text xml:space="preserve" font-family="HelveticaNeue-CondensedBold" font-weight="bold" font-size="21.1" fill="#6596B5" transform="matrix(1.00, 0.00, -0.00, -1.00, 376.7, 33.0)">O</text><text xml:space="preserve" font-family="HelveticaNeue-CondensedBold" font-weight="bold" font-size="21.1" fill="#6596B5" transform="matrix(1.00, 0.00, -0.00, -1.00, 388.4, 33.0)">R</text><text xml:space="preserve" font-family="HelveticaNeue-CondensedBold" font-weight="bold" font-size="21.1" fill="#6596B5" transform="matrix(1.00, 0.00, -0.00, -1.00, 400.2, 33.0)">E</text><text xml:space="preserve" font-family="HelveticaNeue-CondensedBold" font-weight="bold" font-size="21.1" fill="#6596B5" transform="matrix(1.00, 0.00, -0.00, -1.00, 410.4, 33.0)">D</text><text xml:space="preserve" font-family="HelveticaNeue-CondensedBold" font-weight="bold" font-size="21.1" fill="#6596B5" transform="matrix(1.00, 0.00, -0.00, -1.00, 422.5, 33.0)">,</text><text xml:space="preserve" font-family="HelveticaNeue-CondensedBold" font-weight="bold" font-size="21.1" fill="#6596B5" transform="matrix(1.00, 0.00, -0.00, -1.00, 426.8, 33.0)"> </text><text xml:space="preserve" font-family="HelveticaNeue-CondensedBold" font-weight="bold" font-size="21.1" fill="#6596B5" transform="matrix(1.00, 0.00, -0.00, -1.00, 431.8, 33.0)">O</text><text xml:space="preserve" font-family="HelveticaNeue-CondensedBold" font-weight="bold" font-size="21.1" fill="#6596B5" transform="matrix(1.00, 0.00, -0.00, -1.00, 443.6, 33.0)">R</text><text xml:space="preserve" font-family="HelveticaNeue-CondensedBold" font-weight="bold" font-size="21.1" fill="#6596B5" transform="matrix(1.00, 0.00, -0.00, -1.00, 455.3, 33.0)"> </text><text xml:space="preserve" font-family="HelveticaNeue-CondensedBold" font-weight="bold" font-size="21.1" fill="#6596B5" transform="matrix(1.00, 0.00, -0.00, -1.00, 460.4, 33.0)">O</text><text xml:space="preserve" font-family="HelveticaNeue-CondensedBold" font-weight="bold" font-size="21.1" fill="#6596B5" transform="matrix(1.00, 0.00, -0.00, -1.00, 472.1, 33.0)">T</text><text xml:space="preserve" font-family="HelveticaNeue-CondensedBold" font-weight="bold" font-size="21.1" fill="#6596B5" transform="matrix(1.00, 0.00, -0.00, -1.00, 482.3, 33.0)">H</text><text xml:space="preserve" font-family="HelveticaNeue-CondensedBold" font-weight="bold" font-size="21.1" fill="#6596B5" transform="matrix(1.00, 0.00, -0.00, -1.00, 494.0, 33.0)">E</text><text xml:space="preserve" font-family="HelveticaNeue-CondensedBold" font-weight="bold" font-size="21.1" fill="#6596B5" transform="matrix(1.00, 0.00, -0.00, -1.00, 504.2, 33.0)">R</text><text xml:space="preserve" font-family="HelveticaNeue-CondensedBold" font-weight="bold" font-size="21.1" fill="#6596B5" transform="matrix(1.00, 0.00, -0.00, -1.00, 516.3, 33.0)">W</text><text xml:space="preserve" font-family="HelveticaNeue-CondensedBold" font-weight="bold" font-size="21.1" fill="#6596B5" transform="matrix(1.00, 0.00, -0.00, -1.00, 532.4, 33.0)">I</text><text xml:space="preserve" font-family="HelveticaNeue-CondensedBold" font-weight="bold" font-size="21.1" fill="#6596B5" transform="matrix(1.00, 0.00, -0.00, -1.00, 537.8, 33.0)">S</text><text xml:space="preserve" font-family="HelveticaNeue-CondensedBold" font-weight="bold" font-size="21.1" fill="#6596B5" transform="matrix(1.00, 0.00, -0.00, -1.00, 548.8, 33.0)">E</text><text xml:space="preserve" font-family="HelveticaNeue-CondensedBold" font-weight="bold" font-size="21.1" fill="#6596B5" transform="matrix(1.00, 0.00, -0.00, -1.00, 559.0, 33.0)"> </text><text xml:space="preserve" font-family="HelveticaNeue-CondensedBold" font-weight="bold" font-size="21.1" fill="#6596B5" transform="matrix(1.00, 0.00, -0.00, -1.00, 563.2, 33.0)">“</text><text xml:space="preserve" font-family="HelveticaNeue-CondensedBold" font-weight="bold" font-size="21.1" fill="#6596B5" transform="matrix(1.00, 0.00, -0.00, -1.00, 573.0, 33.0)">A</text><text xml:space="preserve" font-family="HelveticaNeue-CondensedBold" font-weight="bold" font-size="21.1" fill="#6596B5" transform="matrix(1.00, 0.00, -0.00, -1.00, 584.3, 33.0)">W</text><text xml:space="preserve" font-family="HelveticaNeue-CondensedBold" font-weight="bold" font-size="21.1" fill="#6596B5" transform="matrix(1.00, 0.00, -0.00, -1.00, 600.4, 33.0)">E</text><text xml:space="preserve" font-family="HelveticaNeue-CondensedBold" font-weight="bold" font-size="21.1" fill="#6596B5" transform="matrix(1.00, 0.00, -0.00, -1.00, 610.5, 33.0)">S</text><text xml:space="preserve" font-family="HelveticaNeue-CondensedBold" font-weight="bold" font-size="21.1" fill="#6596B5" transform="matrix(1.00, 0.00, -0.00, -1.00, 621.5, 33.0)">O</text><text xml:space="preserve" font-family="HelveticaNeue-CondensedBold" font-weight="bold" font-size="21.1" fill="#6596B5" transform="matrix(1.00, 0.00, -0.00, -1.00, 633.3, 33.0)">M</text><text xml:space="preserve" font-family="HelveticaNeue-CondensedBold" font-weight="bold" font-size="21.1" fill="#6596B5" transform="matrix(1.00, 0.00, -0.00, -1.00, 648.9, 33.0)">E</text><text xml:space="preserve" font-family="HelveticaNeue-CondensedBold" font-weight="bold" font-size="21.1" fill="#6596B5" transform="matrix(1.00, 0.00, -0.00, -1.00, 659.0, 33.0)">”</text></g></svg>