<?xml version="1.0" encoding="UTF-8" standalone="no"?><svg xmlns="http://www.w3.org/2000/svg" xmlns:xlink="http://www.w3.org/1999/xlink" clip-rule="evenodd" stroke-miterlimit="10" viewBox="0 0 1024 768"><desc>SVG generated by Keynote</desc><defs><pattern id="13FBBFCD-1F4E-45D9-88F3-354EAF08F5EC" patternUnits="userSpaceOnUse" width="300" height="300" viewBox="0 0 300 300"><image xlink:href="../../9D8150EA-3D34-4856-BCE2-BE38EADF62D9/assets/D49104237B6EEC8B7192E15227E1FFFD.jpeg" width="300.00" height="300.00"></image></pattern></defs><g transform="matrix(1.00, 0.00, -0.00, -1.00, 0.0, 768.0)"><path d="M 0.0 768.0 L 1024.0 768.0 L 1024.0 0.0 L 0.0 0.0 Z M 0.0 768.0 " fill="#FEFFFF"></path><g><clipPath id="clip0x7fbd90d00d00"><path d="M 307.0 745.0 L 718.0 745.0 L 718.0 622.0 L 307.0 622.0 Z M 307.0 745.0 "></path></clipPath><g clip-path="url(#clip0x7fbd90d00d00)"><path d="M 307.0 622.0 L 718.0 622.0 L 718.0 745.0 L 307.0 745.0 Z M 307.0 622.0 " fill="url(#13FBBFCD-1F4E-45D9-88F3-354EAF08F5EC)"></path></g></g><path d="M 0.0 0.0 L 411.0 0.0 L 411.0 123.0 L 0.0 123.0 Z M 0.0 0.0 " fill="none" stroke="#000000" stroke-width="2.00" transform="matrix(1.00, 0.00, 0.00, -1.00, 307.0, 745.0)"></path><image xlink:href="../../9D8150EA-3D34-4856-BCE2-BE38EADF62D9/assets/2724EC1B45EB4C908E02F70002CEDB82.png" width="210.00" height="35.00" transform="matrix(1.00, 0.00, -0.00, -1.00, 409.0, 707.0)"></image><g><clipPath id="clip0x7fbd90ad0a40"><path d="M 297.5 623.0 L 727.5 623.0 L 727.5 744.0 L 297.5 744.0 Z M 297.5 623.0 "></path></clipPath><g clip-path="url(#clip0x7fbd90ad0a40)"><text xml:space="preserve" font-family="GillSans,Gill Sans" font-size="40.0" fill="#FEFFFF" transform="matrix(1.00, 0.00, -0.00, -1.00, 409.5, 677.2)">E</text><text xml:space="preserve" font-family="GillSans,Gill Sans" font-size="40.0" fill="#FEFFFF" transform="matrix(1.00, 0.00, -0.00, -1.00, 429.5, 677.2)">n</text><text xml:space="preserve" font-family="GillSans,Gill Sans" font-size="40.0" fill="#FEFFFF" transform="matrix(1.00, 0.00, -0.00, -1.00, 448.9, 677.2)">v</text><text xml:space="preserve" font-family="GillSans,Gill Sans" font-size="40.0" fill="#FEFFFF" transform="matrix(1.00, 0.00, -0.00, -1.00, 466.5, 677.2)">i</text><text xml:space="preserve" font-family="GillSans,Gill Sans" font-size="40.0" fill="#FEFFFF" transform="matrix(1.00, 0.00, -0.00, -1.00, 475.2, 677.2)">r</text><text xml:space="preserve" font-family="GillSans,Gill Sans" font-size="40.0" fill="#FEFFFF" transform="matrix(1.00, 0.00, -0.00, -1.00, 490.1, 677.2)">o</text><text xml:space="preserve" font-family="GillSans,Gill Sans" font-size="40.0" fill="#FEFFFF" transform="matrix(1.00, 0.00, -0.00, -1.00, 512.1, 677.2)">n</text><text xml:space="preserve" font-family="GillSans,Gill Sans" font-size="40.0" fill="#FEFFFF" transform="matrix(1.00, 0.00, -0.00, -1.00, 532.1, 677.2)">m</text><text xml:space="preserve" font-family="GillSans,Gill Sans" font-size="40.0" fill="#FEFFFF" transform="matrix(1.00, 0.00, -0.00, -1.00, 563.0, 677.2)">e</text><text xml:space="preserve" font-family="GillSans,Gill Sans" font-size="40.0" fill="#FEFFFF" transform="matrix(1.00, 0.00, -0.00, -1.00, 582.1, 677.2)">n</text><text xml:space="preserve" font-family="GillSans,Gill Sans" font-size="40.0" fill="#FEFFFF" transform="matrix(1.00, 0.00, -0.00, -1.00, 602.1, 677.2)">t</text></g></g><image xlink:href="../../9D8150EA-3D34-4856-BCE2-BE38EADF62D9/assets/3048059D778E75E17161CC746F6B596A.png" width="295.00" height="18.00" transform="matrix(1.00, 0.00, -0.00, -1.00, 365.0, 667.0)"></image><g><clipPath id="clip0x7fbd90ad7a20"><path d="M 297.5 623.0 L 727.5 623.0 L 727.5 744.0 L 297.5 744.0 Z M 297.5 623.0 "></path></clipPath><g clip-path="url(#clip0x7fbd90ad7a20)"><text xml:space="preserve" font-family="GillSans,Gill Sans" font-size="13.0" fill="#FEFFFF" transform="matrix(1.00, 0.00, -0.00, -1.00, 367.9, 656.0)">r</text><text xml:space="preserve" font-family="GillSans,Gill Sans" font-size="13.0" fill="#FEFFFF" transform="matrix(1.00, 0.00, -0.00, -1.00, 373.0, 656.0)">a</text><text xml:space="preserve" font-family="GillSans,Gill Sans" font-size="13.0" fill="#FEFFFF" transform="matrix(1.00, 0.00, -0.00, -1.00, 378.6, 656.0)">i</text><text xml:space="preserve" font-family="GillSans,Gill Sans" font-size="13.0" fill="#FEFFFF" transform="matrix(1.00, 0.00, -0.00, -1.00, 381.4, 656.0)">n</text><text xml:space="preserve" font-family="GillSans,Gill Sans" font-size="13.0" fill="#FEFFFF" transform="matrix(1.00, 0.00, -0.00, -1.00, 387.9, 656.0)">f</text><text xml:space="preserve" font-family="GillSans,Gill Sans" font-size="13.0" fill="#FEFFFF" transform="matrix(1.00, 0.00, -0.00, -1.00, 391.2, 656.0)">a</text><text xml:space="preserve" font-family="GillSans,Gill Sans" font-size="13.0" fill="#FEFFFF" transform="matrix(1.00, 0.00, -0.00, -1.00, 396.7, 656.0)">l</text><text xml:space="preserve" font-family="GillSans,Gill Sans" font-size="13.0" fill="#FEFFFF" transform="matrix(1.00, 0.00, -0.00, -1.00, 399.6, 656.0)">l</text><text xml:space="preserve" font-family="GillSans,Gill Sans" font-size="13.0" fill="#FEFFFF" transform="matrix(1.00, 0.00, -0.00, -1.00, 402.4, 656.0)">,</text><text xml:space="preserve" font-family="GillSans,Gill Sans" font-size="13.0" fill="#FEFFFF" transform="matrix(1.00, 0.00, -0.00, -1.00, 404.0, 656.0)"> </text><text xml:space="preserve" font-family="GillSans,Gill Sans" font-size="13.0" fill="#FEFFFF" transform="matrix(1.00, 0.00, -0.00, -1.00, 407.6, 656.0)">t</text><text xml:space="preserve" font-family="GillSans,Gill Sans" font-size="13.0" fill="#FEFFFF" transform="matrix(1.00, 0.00, -0.00, -1.00, 411.9, 656.0)">e</text><text xml:space="preserve" font-family="GillSans,Gill Sans" font-size="13.0" fill="#FEFFFF" transform="matrix(1.00, 0.00, -0.00, -1.00, 418.1, 656.0)">m</text><text xml:space="preserve" font-family="GillSans,Gill Sans" font-size="13.0" fill="#FEFFFF" transform="matrix(1.00, 0.00, -0.00, -1.00, 428.1, 656.0)">p</text><text xml:space="preserve" font-family="GillSans,Gill Sans" font-size="13.0" fill="#FEFFFF" transform="matrix(1.00, 0.00, -0.00, -1.00, 434.6, 656.0)">e</text><text xml:space="preserve" font-family="GillSans,Gill Sans" font-size="13.0" fill="#FEFFFF" transform="matrix(1.00, 0.00, -0.00, -1.00, 440.9, 656.0)">r</text><text xml:space="preserve" font-family="GillSans,Gill Sans" font-size="13.0" fill="#FEFFFF" transform="matrix(1.00, 0.00, -0.00, -1.00, 446.0, 656.0)">a</text><text xml:space="preserve" font-family="GillSans,Gill Sans" font-size="13.0" fill="#FEFFFF" transform="matrix(1.00, 0.00, -0.00, -1.00, 451.6, 656.0)">t</text><text xml:space="preserve" font-family="GillSans,Gill Sans" font-size="13.0" fill="#FEFFFF" transform="matrix(1.00, 0.00, -0.00, -1.00, 455.9, 656.0)">u</text><text xml:space="preserve" font-family="GillSans,Gill Sans" font-size="13.0" fill="#FEFFFF" transform="matrix(1.00, 0.00, -0.00, -1.00, 462.4, 656.0)">r</text><text xml:space="preserve" font-family="GillSans,Gill Sans" font-size="13.0" fill="#FEFFFF" transform="matrix(1.00, 0.00, -0.00, -1.00, 467.3, 656.0)">e</text><text xml:space="preserve" font-family="GillSans,Gill Sans" font-size="13.0" fill="#FEFFFF" transform="matrix(1.00, 0.00, -0.00, -1.00, 473.8, 656.0)">,</text><text xml:space="preserve" font-family="GillSans,Gill Sans" font-size="13.0" fill="#FEFFFF" transform="matrix(1.00, 0.00, -0.00, -1.00, 475.3, 656.0)"> </text><text xml:space="preserve" font-family="GillSans,Gill Sans" font-size="13.0" fill="#FEFFFF" transform="matrix(1.00, 0.00, -0.00, -1.00, 478.9, 656.0)">d</text><text xml:space="preserve" font-family="GillSans,Gill Sans" font-size="13.0" fill="#FEFFFF" transform="matrix(1.00, 0.00, -0.00, -1.00, 485.6, 656.0)">a</text><text xml:space="preserve" font-family="GillSans,Gill Sans" font-size="13.0" fill="#FEFFFF" transform="matrix(1.00, 0.00, -0.00, -1.00, 490.6, 656.0)">y</text><text xml:space="preserve" font-family="GillSans,Gill Sans" font-size="13.0" fill="#FEFFFF" transform="matrix(1.00, 0.00, -0.00, -1.00, 496.3, 656.0)"> </text><text xml:space="preserve" font-family="GillSans,Gill Sans" font-size="13.0" fill="#FEFFFF" transform="matrix(1.00, 0.00, -0.00, -1.00, 499.9, 656.0)">l</text><text xml:space="preserve" font-family="GillSans,Gill Sans" font-size="13.0" fill="#FEFFFF" transform="matrix(1.00, 0.00, -0.00, -1.00, 502.7, 656.0)">e</text><text xml:space="preserve" font-family="GillSans,Gill Sans" font-size="13.0" fill="#FEFFFF" transform="matrix(1.00, 0.00, -0.00, -1.00, 509.0, 656.0)">n</text><text xml:space="preserve" font-family="GillSans,Gill Sans" font-size="13.0" fill="#FEFFFF" transform="matrix(1.00, 0.00, -0.00, -1.00, 515.5, 656.0)">g</text><text xml:space="preserve" font-family="GillSans,Gill Sans" font-size="13.0" fill="#FEFFFF" transform="matrix(1.00, 0.00, -0.00, -1.00, 521.0, 656.0)">t</text><text xml:space="preserve" font-family="GillSans,Gill Sans" font-size="13.0" fill="#FEFFFF" transform="matrix(1.00, 0.00, -0.00, -1.00, 525.3, 656.0)">h</text><text xml:space="preserve" font-family="GillSans,Gill Sans" font-size="13.0" fill="#FEFFFF" transform="matrix(1.00, 0.00, -0.00, -1.00, 531.8, 656.0)">,</text><text xml:space="preserve" font-family="GillSans,Gill Sans" font-size="13.0" fill="#FEFFFF" transform="matrix(1.00, 0.00, -0.00, -1.00, 533.4, 656.0)"> </text><text xml:space="preserve" font-family="GillSans,Gill Sans" font-size="13.0" fill="#FEFFFF" transform="matrix(1.00, 0.00, -0.00, -1.00, 537.0, 656.0)">r</text><text xml:space="preserve" font-family="GillSans,Gill Sans" font-size="13.0" fill="#FEFFFF" transform="matrix(1.00, 0.00, -0.00, -1.00, 541.9, 656.0)">e</text><text xml:space="preserve" font-family="GillSans,Gill Sans" font-size="13.0" fill="#FEFFFF" transform="matrix(1.00, 0.00, -0.00, -1.00, 548.1, 656.0)">s</text><text xml:space="preserve" font-family="GillSans,Gill Sans" font-size="13.0" fill="#FEFFFF" transform="matrix(1.00, 0.00, -0.00, -1.00, 553.1, 656.0)">o</text><text xml:space="preserve" font-family="GillSans,Gill Sans" font-size="13.0" fill="#FEFFFF" transform="matrix(1.00, 0.00, -0.00, -1.00, 560.3, 656.0)">u</text><text xml:space="preserve" font-family="GillSans,Gill Sans" font-size="13.0" fill="#FEFFFF" transform="matrix(1.00, 0.00, -0.00, -1.00, 566.8, 656.0)">r</text><text xml:space="preserve" font-family="GillSans,Gill Sans" font-size="13.0" fill="#FEFFFF" transform="matrix(1.00, 0.00, -0.00, -1.00, 571.6, 656.0)">c</text><text xml:space="preserve" font-family="GillSans,Gill Sans" font-size="13.0" fill="#FEFFFF" transform="matrix(1.00, 0.00, -0.00, -1.00, 577.3, 656.0)">e</text><text xml:space="preserve" font-family="GillSans,Gill Sans" font-size="13.0" fill="#FEFFFF" transform="matrix(1.00, 0.00, -0.00, -1.00, 583.5, 656.0)">s</text><text xml:space="preserve" font-family="GillSans,Gill Sans" font-size="13.0" fill="#FEFFFF" transform="matrix(1.00, 0.00, -0.00, -1.00, 588.5, 656.0)">,</text><text xml:space="preserve" font-family="GillSans,Gill Sans" font-size="13.0" fill="#FEFFFF" transform="matrix(1.00, 0.00, -0.00, -1.00, 590.1, 656.0)"> </text><text xml:space="preserve" font-family="GillSans,Gill Sans" font-size="13.0" fill="#FEFFFF" transform="matrix(1.00, 0.00, -0.00, -1.00, 593.7, 656.0)">s</text><text xml:space="preserve" font-family="GillSans,Gill Sans" font-size="13.0" fill="#FEFFFF" transform="matrix(1.00, 0.00, -0.00, -1.00, 598.7, 656.0)">o</text><text xml:space="preserve" font-family="GillSans,Gill Sans" font-size="13.0" fill="#FEFFFF" transform="matrix(1.00, 0.00, -0.00, -1.00, 605.9, 656.0)">c</text><text xml:space="preserve" font-family="GillSans,Gill Sans" font-size="13.0" fill="#FEFFFF" transform="matrix(1.00, 0.00, -0.00, -1.00, 611.5, 656.0)">i</text><text xml:space="preserve" font-family="GillSans,Gill Sans" font-size="13.0" fill="#FEFFFF" transform="matrix(1.00, 0.00, -0.00, -1.00, 614.4, 656.0)">a</text><text xml:space="preserve" font-family="GillSans,Gill Sans" font-size="13.0" fill="#FEFFFF" transform="matrix(1.00, 0.00, -0.00, -1.00, 619.9, 656.0)">l</text><text xml:space="preserve" font-family="GillSans,Gill Sans" font-size="13.0" fill="#FEFFFF" transform="matrix(1.00, 0.00, -0.00, -1.00, 622.8, 656.0)"> </text><text xml:space="preserve" font-family="GillSans,Gill Sans" font-size="13.0" fill="#FEFFFF" transform="matrix(1.00, 0.00, -0.00, -1.00, 626.4, 656.0)">s</text><text xml:space="preserve" font-family="GillSans,Gill Sans" font-size="13.0" fill="#FEFFFF" transform="matrix(1.00, 0.00, -0.00, -1.00, 631.4, 656.0)">t</text><text xml:space="preserve" font-family="GillSans,Gill Sans" font-size="13.0" fill="#FEFFFF" transform="matrix(1.00, 0.00, -0.00, -1.00, 635.7, 656.0)">a</text><text xml:space="preserve" font-family="GillSans,Gill Sans" font-size="13.0" fill="#FEFFFF" transform="matrix(1.00, 0.00, -0.00, -1.00, 641.3, 656.0)">t</text><text xml:space="preserve" font-family="GillSans,Gill Sans" font-size="13.0" fill="#FEFFFF" transform="matrix(1.00, 0.00, -0.00, -1.00, 645.6, 656.0)">u</text><text xml:space="preserve" font-family="GillSans,Gill Sans" font-size="13.0" fill="#FEFFFF" transform="matrix(1.00, 0.00, -0.00, -1.00, 652.1, 656.0)">s</text></g></g><g><clipPath id="clip0x7fbd90ad8c40"><path d="M 343.0 442.0 L 683.0 442.0 L 683.0 569.0 L 343.0 569.0 Z M 343.0 442.0 "></path></clipPath><g clip-path="url(#clip0x7fbd90ad8c40)"><path d="M 345.0 459.0 L 345.0 552.0 C 345.0 560.3 351.7 567.0 360.0 567.0 L 666.0 567.0 C 674.3 567.0 681.0 560.3 681.0 552.0 L 681.0 459.0 C 681.0 450.7 674.3 444.0 666.0 444.0 L 360.0 444.0 C 351.7 444.0 345.0 450.7 345.0 459.0 Z M 345.0 459.0 " fill="#BE37F3"></path><path d="M 0.0 108.0 L 0.0 15.0 C 0.0 6.7 6.7 0.0 15.0 0.0 L 321.0 0.0 C 329.3 0.0 336.0 6.7 336.0 15.0 L 336.0 108.0 C 336.0 116.3 329.3 123.0 321.0 123.0 L 15.0 123.0 C 6.7 123.0 0.0 116.3 0.0 108.0 Z M 0.0 108.0 " fill="none" stroke="#000000" stroke-width="2.00" transform="matrix(1.00, 0.00, 0.00, -1.00, 345.0, 567.0)"></path></g></g><image xlink:href="../../C5ACCAD4-1191-47EC-86AE-63F48870DE5E/assets/5D3BA246FFA3CD537F4A5B036D586F02.png" width="211.00" height="40.00" transform="matrix(1.00, 0.00, -0.00, -1.00, 408.0, 528.0)"></image><g><clipPath id="clip0x7fbd90af3670"><path d="M 336.7 444.0 L 689.3 444.0 L 689.3 567.0 L 336.7 567.0 Z M 336.7 444.0 "></path></clipPath><g clip-path="url(#clip0x7fbd90af3670)"><text xml:space="preserve" font-family="GillSans,Gill Sans" font-size="36.0" fill="#FEFFFF" transform="matrix(1.00, 0.00, -0.00, -1.00, 409.1, 500.8)">H</text><text xml:space="preserve" font-family="GillSans,Gill Sans" font-size="36.0" fill="#FEFFFF" transform="matrix(1.00, 0.00, -0.00, -1.00, 435.4, 500.8)">y</text><text xml:space="preserve" font-family="GillSans,Gill Sans" font-size="36.0" fill="#FEFFFF" transform="matrix(1.00, 0.00, -0.00, -1.00, 451.1, 500.8)">p</text><text xml:space="preserve" font-family="GillSans,Gill Sans" font-size="36.0" fill="#FEFFFF" transform="matrix(1.00, 0.00, -0.00, -1.00, 469.1, 500.8)">o</text><text xml:space="preserve" font-family="GillSans,Gill Sans" font-size="36.0" fill="#FEFFFF" transform="matrix(1.00, 0.00, -0.00, -1.00, 489.0, 500.8)">t</text><text xml:space="preserve" font-family="GillSans,Gill Sans" font-size="36.0" fill="#FEFFFF" transform="matrix(1.00, 0.00, -0.00, -1.00, 501.0, 500.8)">h</text><text xml:space="preserve" font-family="GillSans,Gill Sans" font-size="36.0" fill="#FEFFFF" transform="matrix(1.00, 0.00, -0.00, -1.00, 519.0, 500.8)">a</text><text xml:space="preserve" font-family="GillSans,Gill Sans" font-size="36.0" fill="#FEFFFF" transform="matrix(1.00, 0.00, -0.00, -1.00, 534.3, 500.8)">l</text><text xml:space="preserve" font-family="GillSans,Gill Sans" font-size="36.0" fill="#FEFFFF" transform="matrix(1.00, 0.00, -0.00, -1.00, 542.2, 500.8)">a</text><text xml:space="preserve" font-family="GillSans,Gill Sans" font-size="36.0" fill="#FEFFFF" transform="matrix(1.00, 0.00, -0.00, -1.00, 557.6, 500.8)">m</text><text xml:space="preserve" font-family="GillSans,Gill Sans" font-size="36.0" fill="#FEFFFF" transform="matrix(1.00, 0.00, -0.00, -1.00, 585.0, 500.8)">u</text><text xml:space="preserve" font-family="GillSans,Gill Sans" font-size="36.0" fill="#FEFFFF" transform="matrix(1.00, 0.00, -0.00, -1.00, 603.0, 500.8)">s</text></g></g><image xlink:href="../../C5ACCAD4-1191-47EC-86AE-63F48870DE5E/assets/E82F628430D3ADEFCA61D680F3F92186.png" width="201.00" height="20.00" transform="matrix(1.00, 0.00, -0.00, -1.00, 413.0, 492.0)"></image><g><clipPath id="clip0x7fbd90afa1d0"><path d="M 336.7 444.0 L 689.3 444.0 L 689.3 567.0 L 336.7 567.0 Z M 336.7 444.0 "></path></clipPath><g clip-path="url(#clip0x7fbd90afa1d0)"><text xml:space="preserve" font-family="GillSans,Gill Sans" font-size="14.0" fill="#FEFFFF" transform="matrix(1.00, 0.00, -0.00, -1.00, 415.1, 479.7)">M</text><text xml:space="preserve" font-family="GillSans,Gill Sans" font-size="14.0" fill="#FEFFFF" transform="matrix(1.00, 0.00, -0.00, -1.00, 426.0, 479.7)">e</text><text xml:space="preserve" font-family="GillSans,Gill Sans" font-size="14.0" fill="#FEFFFF" transform="matrix(1.00, 0.00, -0.00, -1.00, 432.7, 479.7)">d</text><text xml:space="preserve" font-family="GillSans,Gill Sans" font-size="14.0" fill="#FEFFFF" transform="matrix(1.00, 0.00, -0.00, -1.00, 439.9, 479.7)">i</text><text xml:space="preserve" font-family="GillSans,Gill Sans" font-size="14.0" fill="#FEFFFF" transform="matrix(1.00, 0.00, -0.00, -1.00, 442.9, 479.7)">a</text><text xml:space="preserve" font-family="GillSans,Gill Sans" font-size="14.0" fill="#FEFFFF" transform="matrix(1.00, 0.00, -0.00, -1.00, 448.9, 479.7)">t</text><text xml:space="preserve" font-family="GillSans,Gill Sans" font-size="14.0" fill="#FEFFFF" transform="matrix(1.00, 0.00, -0.00, -1.00, 453.6, 479.7)">e</text><text xml:space="preserve" font-family="GillSans,Gill Sans" font-size="14.0" fill="#FEFFFF" transform="matrix(1.00, 0.00, -0.00, -1.00, 460.3, 479.7)">d</text><text xml:space="preserve" font-family="GillSans,Gill Sans" font-size="14.0" fill="#FEFFFF" transform="matrix(1.00, 0.00, -0.00, -1.00, 467.4, 479.7)"> </text><text xml:space="preserve" font-family="GillSans,Gill Sans" font-size="14.0" fill="#FEFFFF" transform="matrix(1.00, 0.00, -0.00, -1.00, 471.3, 479.7)">b</text><text xml:space="preserve" font-family="GillSans,Gill Sans" font-size="14.0" fill="#FEFFFF" transform="matrix(1.00, 0.00, -0.00, -1.00, 478.1, 479.7)">y</text><text xml:space="preserve" font-family="GillSans,Gill Sans" font-size="14.0" fill="#FEFFFF" transform="matrix(1.00, 0.00, -0.00, -1.00, 484.3, 479.7)"> </text><text xml:space="preserve" font-family="GillSans,Gill Sans" font-size="14.0" fill="#FEFFFF" transform="matrix(1.00, 0.00, -0.00, -1.00, 488.2, 479.7)">n</text><text xml:space="preserve" font-family="GillSans,Gill Sans" font-size="14.0" fill="#FEFFFF" transform="matrix(1.00, 0.00, -0.00, -1.00, 495.2, 479.7)">e</text><text xml:space="preserve" font-family="GillSans,Gill Sans" font-size="14.0" fill="#FEFFFF" transform="matrix(1.00, 0.00, -0.00, -1.00, 501.9, 479.7)">r</text><text xml:space="preserve" font-family="GillSans,Gill Sans" font-size="14.0" fill="#FEFFFF" transform="matrix(1.00, 0.00, -0.00, -1.00, 507.8, 479.7)">v</text><text xml:space="preserve" font-family="GillSans,Gill Sans" font-size="14.0" fill="#FEFFFF" transform="matrix(1.00, 0.00, -0.00, -1.00, 513.7, 479.7)">o</text><text xml:space="preserve" font-family="GillSans,Gill Sans" font-size="14.0" fill="#FEFFFF" transform="matrix(1.00, 0.00, -0.00, -1.00, 521.4, 479.7)">u</text><text xml:space="preserve" font-family="GillSans,Gill Sans" font-size="14.0" fill="#FEFFFF" transform="matrix(1.00, 0.00, -0.00, -1.00, 528.4, 479.7)">s</text><text xml:space="preserve" font-family="GillSans,Gill Sans" font-size="14.0" fill="#FEFFFF" transform="matrix(1.00, 0.00, -0.00, -1.00, 533.8, 479.7)"> </text><text xml:space="preserve" font-family="GillSans,Gill Sans" font-size="14.0" fill="#FEFFFF" transform="matrix(1.00, 0.00, -0.00, -1.00, 537.7, 479.7)">s</text><text xml:space="preserve" font-family="GillSans,Gill Sans" font-size="14.0" fill="#FEFFFF" transform="matrix(1.00, 0.00, -0.00, -1.00, 543.1, 479.7)">y</text><text xml:space="preserve" font-family="GillSans,Gill Sans" font-size="14.0" fill="#FEFFFF" transform="matrix(1.00, 0.00, -0.00, -1.00, 549.2, 479.7)">s</text><text xml:space="preserve" font-family="GillSans,Gill Sans" font-size="14.0" fill="#FEFFFF" transform="matrix(1.00, 0.00, -0.00, -1.00, 554.6, 479.7)">t</text><text xml:space="preserve" font-family="GillSans,Gill Sans" font-size="14.0" fill="#FEFFFF" transform="matrix(1.00, 0.00, -0.00, -1.00, 559.2, 479.7)">e</text><text xml:space="preserve" font-family="GillSans,Gill Sans" font-size="14.0" fill="#FEFFFF" transform="matrix(1.00, 0.00, -0.00, -1.00, 565.9, 479.7)">m</text><text xml:space="preserve" font-family="GillSans,Gill Sans" font-size="14.0" fill="#FEFFFF" transform="matrix(1.00, 0.00, -0.00, -1.00, 576.7, 479.7)">,</text><text xml:space="preserve" font-family="GillSans,Gill Sans" font-size="14.0" fill="#FEFFFF" transform="matrix(1.00, 0.00, -0.00, -1.00, 578.4, 479.7)"> </text><text xml:space="preserve" font-family="GillSans,Gill Sans" font-size="14.0" fill="#FEFFFF" transform="matrix(1.00, 0.00, -0.00, -1.00, 582.3, 479.7)">b</text><text xml:space="preserve" font-family="GillSans,Gill Sans" font-size="14.0" fill="#FEFFFF" transform="matrix(1.00, 0.00, -0.00, -1.00, 589.3, 479.7)">r</text><text xml:space="preserve" font-family="GillSans,Gill Sans" font-size="14.0" fill="#FEFFFF" transform="matrix(1.00, 0.00, -0.00, -1.00, 594.8, 479.7)">a</text><text xml:space="preserve" font-family="GillSans,Gill Sans" font-size="14.0" fill="#FEFFFF" transform="matrix(1.00, 0.00, -0.00, -1.00, 600.8, 479.7)">i</text><text xml:space="preserve" font-family="GillSans,Gill Sans" font-size="14.0" fill="#FEFFFF" transform="matrix(1.00, 0.00, -0.00, -1.00, 603.9, 479.7)">n</text></g></g><g><clipPath id="clip0x7fbd90af8f80"><path d="M 493.6 569.0 L 493.6 620.0 L 530.4 620.0 L 530.4 569.0 Z M 493.6 569.0 "></path></clipPath><g clip-path="url(#clip0x7fbd90af8f80)"><path d="M 22.0 0.5 L 26.1 0.5 L 49.0 0.5 " fill="none" stroke="#000000" stroke-width="9.00" transform="matrix(0.00, 1.00, 1.00, 0.00, 512.0, 570.0)"></path><path d="M 495.1 605.2 L 512.5 570.4 L 529.9 605.2 L 512.5 596.5 Z M 495.1 605.2 " fill="#000000"></path></g></g><g><clipPath id="clip0x7fbd90e0c4e0"><path d="M 361.0 298.0 L 664.0 298.0 L 664.0 391.0 L 361.0 391.0 Z M 361.0 298.0 "></path></clipPath><g clip-path="url(#clip0x7fbd90e0c4e0)"><path d="M 363.0 389.0 L 662.0 389.0 L 662.0 300.0 L 363.0 300.0 Z M 363.0 389.0 " fill="#76BA40"></path><path d="M 0.0 0.0 L 299.0 0.0 L 299.0 89.0 L 0.0 89.0 Z M 0.0 0.0 " fill="none" stroke="#000000" stroke-width="2.00" transform="matrix(1.00, 0.00, 0.00, -1.00, 363.0, 389.0)"></path></g></g><image xlink:href="../../C5ACCAD4-1191-47EC-86AE-63F48870DE5E/assets/4AC6956866B112DF66F45D0DD76B21A9.png" width="140.00" height="43.00" transform="matrix(1.00, 0.00, -0.00, -1.00, 444.0, 360.0)"></image><g><clipPath id="clip0x7fbd90e0fad0"><path d="M 353.5 301.0 L 671.5 301.0 L 671.5 388.0 L 353.5 388.0 Z M 353.5 301.0 "></path></clipPath><g clip-path="url(#clip0x7fbd90e0fad0)"><text xml:space="preserve" font-family="GillSans,Gill Sans" font-size="40.0" fill="#FEFFFF" transform="matrix(1.00, 0.00, -0.00, -1.00, 444.4, 330.2)">P</text><text xml:space="preserve" font-family="GillSans,Gill Sans" font-size="40.0" fill="#FEFFFF" transform="matrix(1.00, 0.00, -0.00, -1.00, 464.8, 330.2)">i</text><text xml:space="preserve" font-family="GillSans,Gill Sans" font-size="40.0" fill="#FEFFFF" transform="matrix(1.00, 0.00, -0.00, -1.00, 473.6, 330.2)">t</text><text xml:space="preserve" font-family="GillSans,Gill Sans" font-size="40.0" fill="#FEFFFF" transform="matrix(1.00, 0.00, -0.00, -1.00, 486.9, 330.2)">u</text><text xml:space="preserve" font-family="GillSans,Gill Sans" font-size="40.0" fill="#FEFFFF" transform="matrix(1.00, 0.00, -0.00, -1.00, 506.9, 330.2)">i</text><text xml:space="preserve" font-family="GillSans,Gill Sans" font-size="40.0" fill="#FEFFFF" transform="matrix(1.00, 0.00, -0.00, -1.00, 515.7, 330.2)">t</text><text xml:space="preserve" font-family="GillSans,Gill Sans" font-size="40.0" fill="#FEFFFF" transform="matrix(1.00, 0.00, -0.00, -1.00, 529.0, 330.2)">a</text><text xml:space="preserve" font-family="GillSans,Gill Sans" font-size="40.0" fill="#FEFFFF" transform="matrix(1.00, 0.00, -0.00, -1.00, 546.0, 330.2)">r</text><text xml:space="preserve" font-family="GillSans,Gill Sans" font-size="40.0" fill="#FEFFFF" transform="matrix(1.00, 0.00, -0.00, -1.00, 563.1, 330.2)">y</text></g></g><g><clipPath id="clip0x7fbd90e13610"><path d="M 422.6 391.0 L 422.6 442.0 L 459.4 442.0 L 459.4 391.0 Z M 422.6 391.0 "></path></clipPath><g clip-path="url(#clip0x7fbd90e13610)"><path d="M 22.0 0.5 L 26.1 0.5 L 49.0 0.5 " fill="none" stroke="#000000" stroke-width="9.00" transform="matrix(0.00, 1.00, 1.00, 0.00, 441.0, 392.0)"></path><path d="M 424.1 427.2 L 441.5 392.4 L 458.9 427.2 L 441.5 418.5 Z M 424.1 427.2 " fill="#000000"></path></g></g><g><clipPath id="clip0x7fbd90e14c50"><path d="M 455.4 385.7 L 569.7 385.7 L 569.7 447.3 L 455.4 447.3 Z M 455.4 385.7 "></path></clipPath><g clip-path="url(#clip0x7fbd90e14c50)"><text xml:space="preserve" font-family="GillSans,Gill Sans" font-size="36.0" fill="#000000" transform="matrix(1.00, 0.00, -0.00, -1.00, 466.3, 404.3)">G</text><text xml:space="preserve" font-family="GillSans,Gill Sans" font-size="36.0" fill="#000000" transform="matrix(1.00, 0.00, -0.00, -1.00, 492.9, 404.3)">n</text><text xml:space="preserve" font-family="GillSans,Gill Sans" font-size="36.0" fill="#000000" transform="matrix(1.00, 0.00, -0.00, -1.00, 510.9, 404.3)">R</text><text xml:space="preserve" font-family="GillSans,Gill Sans" font-size="36.0" fill="#000000" transform="matrix(1.00, 0.00, -0.00, -1.00, 532.7, 404.3)">H</text></g></g><g><clipPath id="clip0x7fbd90e17110"><path d="M 565.6 391.0 L 565.6 442.0 L 602.4 442.0 L 602.4 391.0 Z M 565.6 391.0 "></path></clipPath><g clip-path="url(#clip0x7fbd90e17110)"><path d="M 22.0 0.5 L 26.1 0.5 L 49.0 0.5 " fill="none" stroke="#000000" stroke-width="9.00" transform="matrix(0.00, 1.00, 1.00, 0.00, 584.0, 392.0)"></path><path d="M 567.1 427.2 L 584.5 392.4 L 601.9 427.2 L 584.5 418.5 Z M 567.1 427.2 " fill="#000000"></path></g></g><g><clipPath id="clip0x7fbd90e18710"><path d="M 385.0 178.0 L 515.0 178.0 L 515.0 251.0 L 385.0 251.0 Z M 385.0 178.0 "></path></clipPath><g clip-path="url(#clip0x7fbd90e18710)"><path d="M 19.3 53.2 L 23.3 51.2 L 124.0 0.0 " fill="none" stroke="#000000" stroke-width="9.00" transform="matrix(1.00, 0.00, 0.00, -1.00, 388.0, 246.0)"></path><path d="M 411.1 214.3 L 388.0 183.0 L 426.9 183.2 L 411.3 194.8 Z M 411.1 214.3 " fill="#000000"></path></g></g><g><clipPath id="clip0x7fbd90e19d90"><path d="M 391.5 241.7 L 634.2 241.7 L 634.2 303.3 L 391.5 303.3 Z M 391.5 241.7 "></path></clipPath><g clip-path="url(#clip0x7fbd90e19d90)"><text xml:space="preserve" font-family="GillSans,Gill Sans" font-size="36.0" fill="#000000" transform="matrix(1.00, 0.00, -0.00, -1.00, 402.3, 260.3)">G</text><text xml:space="preserve" font-family="GillSans,Gill Sans" font-size="36.0" fill="#000000" transform="matrix(1.00, 0.00, -0.00, -1.00, 429.0, 260.3)">o</text><text xml:space="preserve" font-family="GillSans,Gill Sans" font-size="36.0" fill="#000000" transform="matrix(1.00, 0.00, -0.00, -1.00, 448.8, 260.3)">n</text><text xml:space="preserve" font-family="GillSans,Gill Sans" font-size="36.0" fill="#000000" transform="matrix(1.00, 0.00, -0.00, -1.00, 466.8, 260.3)">a</text><text xml:space="preserve" font-family="GillSans,Gill Sans" font-size="36.0" fill="#000000" transform="matrix(1.00, 0.00, -0.00, -1.00, 482.2, 260.3)">d</text><text xml:space="preserve" font-family="GillSans,Gill Sans" font-size="36.0" fill="#000000" transform="matrix(1.00, 0.00, -0.00, -1.00, 500.5, 260.3)">o</text><text xml:space="preserve" font-family="GillSans,Gill Sans" font-size="36.0" fill="#000000" transform="matrix(1.00, 0.00, -0.00, -1.00, 520.4, 260.3)">t</text><text xml:space="preserve" font-family="GillSans,Gill Sans" font-size="36.0" fill="#000000" transform="matrix(1.00, 0.00, -0.00, -1.00, 532.4, 260.3)">r</text><text xml:space="preserve" font-family="GillSans,Gill Sans" font-size="36.0" fill="#000000" transform="matrix(1.00, 0.00, -0.00, -1.00, 545.7, 260.3)">o</text><text xml:space="preserve" font-family="GillSans,Gill Sans" font-size="36.0" fill="#000000" transform="matrix(1.00, 0.00, -0.00, -1.00, 565.6, 260.3)">p</text><text xml:space="preserve" font-family="GillSans,Gill Sans" font-size="36.0" fill="#000000" transform="matrix(1.00, 0.00, -0.00, -1.00, 583.6, 260.3)">i</text><text xml:space="preserve" font-family="GillSans,Gill Sans" font-size="36.0" fill="#000000" transform="matrix(1.00, 0.00, -0.00, -1.00, 591.5, 260.3)">n</text><text xml:space="preserve" font-family="GillSans,Gill Sans" font-size="36.0" fill="#000000" transform="matrix(1.00, 0.00, -0.00, -1.00, 609.5, 260.3)">s</text></g></g><g><clipPath id="clip0x7fbd90e1fa40"><path d="M 508.4 188.8 L 649.6 188.8 L 649.6 252.2 L 508.4 252.2 Z M 508.4 188.8 "></path></clipPath><g clip-path="url(#clip0x7fbd90e1fa40)"><path d="M 115.9 45.2 L 111.7 43.5 L 0.0 0.0 " fill="none" stroke="#000000" stroke-width="9.00" transform="matrix(1.00, 0.00, 0.00, -1.00, 511.0, 247.0)"></path><path d="M 608.3 190.4 L 647.0 194.0 L 620.9 222.8 L 622.7 203.5 Z M 608.3 190.4 " fill="#000000"></path></g></g><g><clipPath id="clip0x7fbd90e21040"><path d="M 277.0 99.0 L 381.0 99.0 L 381.0 203.0 L 277.0 203.0 Z M 277.0 99.0 "></path></clipPath><g clip-path="url(#clip0x7fbd90e21040)"><path d="M 364.4 186.4 C 383.9 166.8 383.9 135.2 364.4 115.6 C 344.8 96.1 313.2 96.1 293.6 115.6 C 274.1 135.2 274.1 166.8 293.6 186.4 C 313.2 205.9 344.8 205.9 364.4 186.4 " fill="#0061FE"></path><path d="M 85.4 14.6 C 104.9 34.2 104.9 65.8 85.4 85.4 C 65.8 104.9 34.2 104.9 14.6 85.4 C -4.9 65.8 -4.9 34.2 14.6 14.6 C 34.2 -4.9 65.8 -4.9 85.4 14.6 " fill="none" stroke="#000000" stroke-width="2.00" transform="matrix(1.00, 0.00, 0.00, -1.00, 279.0, 201.0)"></path></g></g><image xlink:href="../../C5ACCAD4-1191-47EC-86AE-63F48870DE5E/assets/3616AAFD40E35702A74AA37EDFBB0092.png" width="63.00" height="20.00" transform="matrix(1.00, 0.00, -0.00, -1.00, 297.0, 158.0)"></image><g><clipPath id="clip0x7fbd90e237b0"><path d="M 276.5 101.0 L 381.5 101.0 L 381.5 201.0 L 276.5 201.0 Z M 276.5 101.0 "></path></clipPath><g clip-path="url(#clip0x7fbd90e237b0)"><text xml:space="preserve" font-family="GillSans,Gill Sans" font-size="24.0" fill="#FEFFFF" transform="matrix(1.00, 0.00, -0.00, -1.00, 300.3, 142.5)">t</text><text xml:space="preserve" font-family="GillSans,Gill Sans" font-size="24.0" fill="#FEFFFF" transform="matrix(1.00, 0.00, -0.00, -1.00, 308.3, 142.5)">e</text><text xml:space="preserve" font-family="GillSans,Gill Sans" font-size="24.0" fill="#FEFFFF" transform="matrix(1.00, 0.00, -0.00, -1.00, 319.8, 142.5)">s</text><text xml:space="preserve" font-family="GillSans,Gill Sans" font-size="24.0" fill="#FEFFFF" transform="matrix(1.00, 0.00, -0.00, -1.00, 329.0, 142.5)">t</text><text xml:space="preserve" font-family="GillSans,Gill Sans" font-size="24.0" fill="#FEFFFF" transform="matrix(1.00, 0.00, -0.00, -1.00, 337.0, 142.5)">e</text><text xml:space="preserve" font-family="GillSans,Gill Sans" font-size="24.0" fill="#FEFFFF" transform="matrix(1.00, 0.00, -0.00, -1.00, 348.5, 142.5)">s</text></g></g><g><clipPath id="clip0x7fbd90e26fd0"><path d="M 642.0 99.0 L 746.0 99.0 L 746.0 203.0 L 642.0 203.0 Z M 642.0 99.0 "></path></clipPath><g clip-path="url(#clip0x7fbd90e26fd0)"><path d="M 729.4 186.4 C 748.9 166.8 748.9 135.2 729.4 115.6 C 709.8 96.1 678.2 96.1 658.6 115.6 C 639.1 135.2 639.1 166.8 658.6 186.4 C 678.2 205.9 709.8 205.9 729.4 186.4 " fill="#0061FE"></path><path d="M 85.4 14.6 C 104.9 34.2 104.9 65.8 85.4 85.4 C 65.8 104.9 34.2 104.9 14.6 85.4 C -4.9 65.8 -4.9 34.2 14.6 14.6 C 34.2 -4.9 65.8 -4.9 85.4 14.6 " fill="none" stroke="#000000" stroke-width="2.00" transform="matrix(1.00, 0.00, 0.00, -1.00, 644.0, 201.0)"></path></g></g><image xlink:href="../../C5ACCAD4-1191-47EC-86AE-63F48870DE5E/assets/10EA5F9A5D538C6740BBB0C7EACB7A67.png" width="74.00" height="22.00" transform="matrix(1.00, 0.00, -0.00, -1.00, 657.0, 160.0)"></image><g><clipPath id="clip0x7fbd90e297c0"><path d="M 641.6 101.0 L 746.4 101.0 L 746.4 201.0 L 641.6 201.0 Z M 641.6 101.0 "></path></clipPath><g clip-path="url(#clip0x7fbd90e297c0)"><text xml:space="preserve" font-family="GillSans,Gill Sans" font-size="24.0" fill="#FEFFFF" transform="matrix(1.00, 0.00, -0.00, -1.00, 659.4, 142.7)">o</text><text xml:space="preserve" font-family="GillSans,Gill Sans" font-size="24.0" fill="#FEFFFF" transform="matrix(1.00, 0.00, -0.00, -1.00, 672.4, 142.7)">v</text><text xml:space="preserve" font-family="GillSans,Gill Sans" font-size="24.0" fill="#FEFFFF" transform="matrix(1.00, 0.00, -0.00, -1.00, 682.9, 142.7)">a</text><text xml:space="preserve" font-family="GillSans,Gill Sans" font-size="24.0" fill="#FEFFFF" transform="matrix(1.00, 0.00, -0.00, -1.00, 693.1, 142.7)">r</text><text xml:space="preserve" font-family="GillSans,Gill Sans" font-size="24.0" fill="#FEFFFF" transform="matrix(1.00, 0.00, -0.00, -1.00, 702.6, 142.7)">i</text><text xml:space="preserve" font-family="GillSans,Gill Sans" font-size="24.0" fill="#FEFFFF" transform="matrix(1.00, 0.00, -0.00, -1.00, 707.9, 142.7)">e</text><text xml:space="preserve" font-family="GillSans,Gill Sans" font-size="24.0" fill="#FEFFFF" transform="matrix(1.00, 0.00, -0.00, -1.00, 719.4, 142.7)">s</text></g></g><g><clipPath id="clip0x7fbd90e2d650"><path d="M 180.5 168.2 L 269.1 168.2 L 269.1 512.0 L 180.5 512.0 Z M 180.5 168.2 "></path></clipPath><g clip-path="url(#clip0x7fbd90e2d650)"><path d="M 73.7 336.0 C -57.1 198.2 17.8 72.9 58.7 22.9 L 61.4 20.0 " fill="none" stroke="#0056D5" stroke-width="8.00" transform="matrix(1.00, 0.00, 0.00, -1.00, 185.5, 508.0)"></path><path d="M 255.7 474.5 L 265.4 508.0 L 232.8 495.7 Z M 255.7 474.5 " fill="#0056D5"></path></g></g><g><clipPath id="clip0x7fbd90e2ee70"><path d="M 5.8 276.6 L 186.8 276.6 L 186.8 365.9 L 5.8 365.9 Z M 5.8 276.6 "></path></clipPath><g clip-path="url(#clip0x7fbd90e2ee70)"><text xml:space="preserve" font-family="GillSans,Gill Sans" font-size="36.0" fill="#0061FE" transform="matrix(1.00, 0.00, -0.00, -1.00, 19.9, 322.9)">a</text><text xml:space="preserve" font-family="GillSans,Gill Sans" font-size="36.0" fill="#0061FE" transform="matrix(1.00, 0.00, -0.00, -1.00, 35.3, 322.9)">n</text><text xml:space="preserve" font-family="GillSans,Gill Sans" font-size="36.0" fill="#0061FE" transform="matrix(1.00, 0.00, -0.00, -1.00, 53.3, 322.9)">d</text><text xml:space="preserve" font-family="GillSans,Gill Sans" font-size="36.0" fill="#0061FE" transform="matrix(1.00, 0.00, -0.00, -1.00, 71.6, 322.9)">r</text><text xml:space="preserve" font-family="GillSans,Gill Sans" font-size="36.0" fill="#0061FE" transform="matrix(1.00, 0.00, -0.00, -1.00, 85.0, 322.9)">o</text><text xml:space="preserve" font-family="GillSans,Gill Sans" font-size="36.0" fill="#0061FE" transform="matrix(1.00, 0.00, -0.00, -1.00, 104.9, 322.9)">g</text><text xml:space="preserve" font-family="GillSans,Gill Sans" font-size="36.0" fill="#0061FE" transform="matrix(1.00, 0.00, -0.00, -1.00, 120.2, 322.9)">e</text><text xml:space="preserve" font-family="GillSans,Gill Sans" font-size="36.0" fill="#0061FE" transform="matrix(1.00, 0.00, -0.00, -1.00, 137.5, 322.9)">n</text><text xml:space="preserve" font-family="GillSans,Gill Sans" font-size="36.0" fill="#0061FE" transform="matrix(1.00, 0.00, -0.00, -1.00, 155.5, 322.9)">s</text><text xml:space="preserve" font-family="GillSans,Gill Sans" font-size="12.0" fill="#0061FE" transform="matrix(1.00, 0.00, -0.00, -1.00, 73.8, 303.4)">b</text><text xml:space="preserve" font-family="GillSans,Gill Sans" font-size="12.0" fill="#0061FE" transform="matrix(1.00, 0.00, -0.00, -1.00, 79.8, 303.4)">e</text><text xml:space="preserve" font-family="GillSans,Gill Sans" font-size="12.0" fill="#0061FE" transform="matrix(1.00, 0.00, -0.00, -1.00, 85.5, 303.4)">h</text><text xml:space="preserve" font-family="GillSans,Gill Sans" font-size="12.0" fill="#0061FE" transform="matrix(1.00, 0.00, -0.00, -1.00, 91.5, 303.4)">a</text><text xml:space="preserve" font-family="GillSans,Gill Sans" font-size="12.0" fill="#0061FE" transform="matrix(1.00, 0.00, -0.00, -1.00, 96.2, 303.4)">v</text><text xml:space="preserve" font-family="GillSans,Gill Sans" font-size="12.0" fill="#0061FE" transform="matrix(1.00, 0.00, -0.00, -1.00, 101.5, 303.4)">i</text><text xml:space="preserve" font-family="GillSans,Gill Sans" font-size="12.0" fill="#0061FE" transform="matrix(1.00, 0.00, -0.00, -1.00, 104.1, 303.4)">o</text><text xml:space="preserve" font-family="GillSans,Gill Sans" font-size="12.0" fill="#0061FE" transform="matrix(1.00, 0.00, -0.00, -1.00, 110.7, 303.4)">r</text><text xml:space="preserve" font-family="GillSans,Gill Sans" font-size="12.0" fill="#0061FE" transform="matrix(1.00, 0.00, -0.00, -1.00, 26.6, 289.4)">s</text><text xml:space="preserve" font-family="GillSans,Gill Sans" font-size="12.0" fill="#0061FE" transform="matrix(1.00, 0.00, -0.00, -1.00, 31.2, 289.4)">e</text><text xml:space="preserve" font-family="GillSans,Gill Sans" font-size="12.0" fill="#0061FE" transform="matrix(1.00, 0.00, -0.00, -1.00, 36.9, 289.4)">c</text><text xml:space="preserve" font-family="GillSans,Gill Sans" font-size="12.0" fill="#0061FE" transform="matrix(1.00, 0.00, -0.00, -1.00, 42.2, 289.4)">o</text><text xml:space="preserve" font-family="GillSans,Gill Sans" font-size="12.0" fill="#0061FE" transform="matrix(1.00, 0.00, -0.00, -1.00, 48.8, 289.4)">n</text><text xml:space="preserve" font-family="GillSans,Gill Sans" font-size="12.0" fill="#0061FE" transform="matrix(1.00, 0.00, -0.00, -1.00, 54.8, 289.4)">d</text><text xml:space="preserve" font-family="GillSans,Gill Sans" font-size="12.0" fill="#0061FE" transform="matrix(1.00, 0.00, -0.00, -1.00, 60.9, 289.4)">a</text><text xml:space="preserve" font-family="GillSans,Gill Sans" font-size="12.0" fill="#0061FE" transform="matrix(1.00, 0.00, -0.00, -1.00, 66.0, 289.4)">r</text><text xml:space="preserve" font-family="GillSans,Gill Sans" font-size="12.0" fill="#0061FE" transform="matrix(1.00, 0.00, -0.00, -1.00, 71.2, 289.4)">y</text><text xml:space="preserve" font-family="GillSans,Gill Sans" font-size="12.0" fill="#0061FE" transform="matrix(1.00, 0.00, -0.00, -1.00, 76.4, 289.4)"> </text><text xml:space="preserve" font-family="GillSans,Gill Sans" font-size="12.0" fill="#0061FE" transform="matrix(1.00, 0.00, -0.00, -1.00, 79.7, 289.4)">s</text><text xml:space="preserve" font-family="GillSans,Gill Sans" font-size="12.0" fill="#0061FE" transform="matrix(1.00, 0.00, -0.00, -1.00, 84.4, 289.4)">e</text><text xml:space="preserve" font-family="GillSans,Gill Sans" font-size="12.0" fill="#0061FE" transform="matrix(1.00, 0.00, -0.00, -1.00, 90.1, 289.4)">x</text><text xml:space="preserve" font-family="GillSans,Gill Sans" font-size="12.0" fill="#0061FE" transform="matrix(1.00, 0.00, -0.00, -1.00, 96.1, 289.4)">u</text><text xml:space="preserve" font-family="GillSans,Gill Sans" font-size="12.0" fill="#0061FE" transform="matrix(1.00, 0.00, -0.00, -1.00, 102.1, 289.4)">a</text><text xml:space="preserve" font-family="GillSans,Gill Sans" font-size="12.0" fill="#0061FE" transform="matrix(1.00, 0.00, -0.00, -1.00, 107.2, 289.4)">l</text><text xml:space="preserve" font-family="GillSans,Gill Sans" font-size="12.0" fill="#0061FE" transform="matrix(1.00, 0.00, -0.00, -1.00, 109.9, 289.4)"> </text><text xml:space="preserve" font-family="GillSans,Gill Sans" font-size="12.0" fill="#0061FE" transform="matrix(1.00, 0.00, -0.00, -1.00, 113.2, 289.4)">s</text><text xml:space="preserve" font-family="GillSans,Gill Sans" font-size="12.0" fill="#0061FE" transform="matrix(1.00, 0.00, -0.00, -1.00, 117.8, 289.4)">t</text><text xml:space="preserve" font-family="GillSans,Gill Sans" font-size="12.0" fill="#0061FE" transform="matrix(1.00, 0.00, -0.00, -1.00, 121.8, 289.4)">r</text><text xml:space="preserve" font-family="GillSans,Gill Sans" font-size="12.0" fill="#0061FE" transform="matrix(1.00, 0.00, -0.00, -1.00, 126.6, 289.4)">u</text><text xml:space="preserve" font-family="GillSans,Gill Sans" font-size="12.0" fill="#0061FE" transform="matrix(1.00, 0.00, -0.00, -1.00, 132.6, 289.4)">c</text><text xml:space="preserve" font-family="GillSans,Gill Sans" font-size="12.0" fill="#0061FE" transform="matrix(1.00, 0.00, -0.00, -1.00, 137.8, 289.4)">t</text><text xml:space="preserve" font-family="GillSans,Gill Sans" font-size="12.0" fill="#0061FE" transform="matrix(1.00, 0.00, -0.00, -1.00, 141.8, 289.4)">u</text><text xml:space="preserve" font-family="GillSans,Gill Sans" font-size="12.0" fill="#0061FE" transform="matrix(1.00, 0.00, -0.00, -1.00, 147.8, 289.4)">r</text><text xml:space="preserve" font-family="GillSans,Gill Sans" font-size="12.0" fill="#0061FE" transform="matrix(1.00, 0.00, -0.00, -1.00, 152.3, 289.4)">e</text><text xml:space="preserve" font-family="GillSans,Gill Sans" font-size="12.0" fill="#0061FE" transform="matrix(1.00, 0.00, -0.00, -1.00, 158.1, 289.4)">s</text></g></g><g><clipPath id="clip0x7fbd90e40f20"><path d="M 738.5 168.2 L 833.0 168.2 L 833.0 523.0 L 738.5 523.0 Z M 738.5 168.2 "></path></clipPath><g clip-path="url(#clip0x7fbd90e40f20)"><path d="M 79.2 347.0 C -62.5 203.5 20.5 73.1 64.2 22.4 L 67.0 19.5 " fill="none" stroke="#ED709E" stroke-width="8.00" transform="matrix(-1.00, 0.00, 0.00, -1.00, 828.0, 519.0)"></path><path d="M 752.6 485.7 L 742.1 519.0 L 775.0 507.4 Z M 752.6 485.7 " fill="#ED709E"></path></g></g><g><clipPath id="clip0x7fbd90e425f0"><path d="M 835.6 272.9 L 1015.3 272.9 L 1015.3 371.9 L 835.6 371.9 Z M 835.6 272.9 "></path></clipPath><g clip-path="url(#clip0x7fbd90e425f0)"><text xml:space="preserve" font-family="GillSans,Gill Sans" font-size="36.0" fill="#ED709E" transform="matrix(1.00, 0.00, -0.00, -1.00, 855.1, 324.2)">e</text><text xml:space="preserve" font-family="GillSans,Gill Sans" font-size="36.0" fill="#ED709E" transform="matrix(1.00, 0.00, -0.00, -1.00, 872.3, 324.2)">s</text><text xml:space="preserve" font-family="GillSans,Gill Sans" font-size="36.0" fill="#ED709E" transform="matrix(1.00, 0.00, -0.00, -1.00, 886.2, 324.2)">t</text><text xml:space="preserve" font-family="GillSans,Gill Sans" font-size="36.0" fill="#ED709E" transform="matrix(1.00, 0.00, -0.00, -1.00, 898.1, 324.2)">r</text><text xml:space="preserve" font-family="GillSans,Gill Sans" font-size="36.0" fill="#ED709E" transform="matrix(1.00, 0.00, -0.00, -1.00, 911.5, 324.2)">o</text><text xml:space="preserve" font-family="GillSans,Gill Sans" font-size="36.0" fill="#ED709E" transform="matrix(1.00, 0.00, -0.00, -1.00, 931.4, 324.2)">g</text><text xml:space="preserve" font-family="GillSans,Gill Sans" font-size="36.0" fill="#ED709E" transform="matrix(1.00, 0.00, -0.00, -1.00, 946.7, 324.2)">e</text><text xml:space="preserve" font-family="GillSans,Gill Sans" font-size="36.0" fill="#ED709E" transform="matrix(1.00, 0.00, -0.00, -1.00, 964.0, 324.2)">n</text><text xml:space="preserve" font-family="GillSans,Gill Sans" font-size="36.0" fill="#ED709E" transform="matrix(1.00, 0.00, -0.00, -1.00, 982.0, 324.2)">s</text><text xml:space="preserve" font-family="GillSans,Gill Sans" font-size="12.0" fill="#ED709E" transform="matrix(1.00, 0.00, -0.00, -1.00, 904.6, 304.7)">b</text><text xml:space="preserve" font-family="GillSans,Gill Sans" font-size="12.0" fill="#ED709E" transform="matrix(1.00, 0.00, -0.00, -1.00, 910.6, 304.7)">e</text><text xml:space="preserve" font-family="GillSans,Gill Sans" font-size="12.0" fill="#ED709E" transform="matrix(1.00, 0.00, -0.00, -1.00, 916.3, 304.7)">h</text><text xml:space="preserve" font-family="GillSans,Gill Sans" font-size="12.0" fill="#ED709E" transform="matrix(1.00, 0.00, -0.00, -1.00, 922.3, 304.7)">a</text><text xml:space="preserve" font-family="GillSans,Gill Sans" font-size="12.0" fill="#ED709E" transform="matrix(1.00, 0.00, -0.00, -1.00, 927.0, 304.7)">v</text><text xml:space="preserve" font-family="GillSans,Gill Sans" font-size="12.0" fill="#ED709E" transform="matrix(1.00, 0.00, -0.00, -1.00, 932.3, 304.7)">i</text><text xml:space="preserve" font-family="GillSans,Gill Sans" font-size="12.0" fill="#ED709E" transform="matrix(1.00, 0.00, -0.00, -1.00, 934.9, 304.7)">o</text><text xml:space="preserve" font-family="GillSans,Gill Sans" font-size="12.0" fill="#ED709E" transform="matrix(1.00, 0.00, -0.00, -1.00, 941.6, 304.7)">r</text><text xml:space="preserve" font-family="GillSans,Gill Sans" font-size="12.0" fill="#ED709E" transform="matrix(1.00, 0.00, -0.00, -1.00, 857.4, 290.7)">s</text><text xml:space="preserve" font-family="GillSans,Gill Sans" font-size="12.0" fill="#ED709E" transform="matrix(1.00, 0.00, -0.00, -1.00, 862.0, 290.7)">e</text><text xml:space="preserve" font-family="GillSans,Gill Sans" font-size="12.0" fill="#ED709E" transform="matrix(1.00, 0.00, -0.00, -1.00, 867.8, 290.7)">c</text><text xml:space="preserve" font-family="GillSans,Gill Sans" font-size="12.0" fill="#ED709E" transform="matrix(1.00, 0.00, -0.00, -1.00, 873.0, 290.7)">o</text><text xml:space="preserve" font-family="GillSans,Gill Sans" font-size="12.0" fill="#ED709E" transform="matrix(1.00, 0.00, -0.00, -1.00, 879.6, 290.7)">n</text><text xml:space="preserve" font-family="GillSans,Gill Sans" font-size="12.0" fill="#ED709E" transform="matrix(1.00, 0.00, -0.00, -1.00, 885.6, 290.7)">d</text><text xml:space="preserve" font-family="GillSans,Gill Sans" font-size="12.0" fill="#ED709E" transform="matrix(1.00, 0.00, -0.00, -1.00, 891.7, 290.7)">a</text><text xml:space="preserve" font-family="GillSans,Gill Sans" font-size="12.0" fill="#ED709E" transform="matrix(1.00, 0.00, -0.00, -1.00, 896.9, 290.7)">r</text><text xml:space="preserve" font-family="GillSans,Gill Sans" font-size="12.0" fill="#ED709E" transform="matrix(1.00, 0.00, -0.00, -1.00, 902.0, 290.7)">y</text><text xml:space="preserve" font-family="GillSans,Gill Sans" font-size="12.0" fill="#ED709E" transform="matrix(1.00, 0.00, -0.00, -1.00, 907.2, 290.7)"> </text><text xml:space="preserve" font-family="GillSans,Gill Sans" font-size="12.0" fill="#ED709E" transform="matrix(1.00, 0.00, -0.00, -1.00, 910.6, 290.7)">s</text><text xml:space="preserve" font-family="GillSans,Gill Sans" font-size="12.0" fill="#ED709E" transform="matrix(1.00, 0.00, -0.00, -1.00, 915.2, 290.7)">e</text><text xml:space="preserve" font-family="GillSans,Gill Sans" font-size="12.0" fill="#ED709E" transform="matrix(1.00, 0.00, -0.00, -1.00, 920.9, 290.7)">x</text><text xml:space="preserve" font-family="GillSans,Gill Sans" font-size="12.0" fill="#ED709E" transform="matrix(1.00, 0.00, -0.00, -1.00, 926.9, 290.7)">u</text><text xml:space="preserve" font-family="GillSans,Gill Sans" font-size="12.0" fill="#ED709E" transform="matrix(1.00, 0.00, -0.00, -1.00, 932.9, 290.7)">a</text><text xml:space="preserve" font-family="GillSans,Gill Sans" font-size="12.0" fill="#ED709E" transform="matrix(1.00, 0.00, -0.00, -1.00, 938.0, 290.7)">l</text><text xml:space="preserve" font-family="GillSans,Gill Sans" font-size="12.0" fill="#ED709E" transform="matrix(1.00, 0.00, -0.00, -1.00, 940.7, 290.7)"> </text><text xml:space="preserve" font-family="GillSans,Gill Sans" font-size="12.0" fill="#ED709E" transform="matrix(1.00, 0.00, -0.00, -1.00, 944.0, 290.7)">s</text><text xml:space="preserve" font-family="GillSans,Gill Sans" font-size="12.0" fill="#ED709E" transform="matrix(1.00, 0.00, -0.00, -1.00, 948.6, 290.7)">t</text><text xml:space="preserve" font-family="GillSans,Gill Sans" font-size="12.0" fill="#ED709E" transform="matrix(1.00, 0.00, -0.00, -1.00, 952.6, 290.7)">r</text><text xml:space="preserve" font-family="GillSans,Gill Sans" font-size="12.0" fill="#ED709E" transform="matrix(1.00, 0.00, -0.00, -1.00, 957.4, 290.7)">u</text><text xml:space="preserve" font-family="GillSans,Gill Sans" font-size="12.0" fill="#ED709E" transform="matrix(1.00, 0.00, -0.00, -1.00, 963.4, 290.7)">c</text><text xml:space="preserve" font-family="GillSans,Gill Sans" font-size="12.0" fill="#ED709E" transform="matrix(1.00, 0.00, -0.00, -1.00, 968.6, 290.7)">t</text><text xml:space="preserve" font-family="GillSans,Gill Sans" font-size="12.0" fill="#ED709E" transform="matrix(1.00, 0.00, -0.00, -1.00, 972.6, 290.7)">u</text><text xml:space="preserve" font-family="GillSans,Gill Sans" font-size="12.0" fill="#ED709E" transform="matrix(1.00, 0.00, -0.00, -1.00, 978.6, 290.7)">r</text><text xml:space="preserve" font-family="GillSans,Gill Sans" font-size="12.0" fill="#ED709E" transform="matrix(1.00, 0.00, -0.00, -1.00, 983.1, 290.7)">e</text><text xml:space="preserve" font-family="GillSans,Gill Sans" font-size="12.0" fill="#ED709E" transform="matrix(1.00, 0.00, -0.00, -1.00, 988.9, 290.7)">s</text></g></g></g></svg>