<?xml version="1.0" encoding="UTF-8" standalone="no"?><svg xmlns="http://www.w3.org/2000/svg" xmlns:xlink="http://www.w3.org/1999/xlink" clip-rule="evenodd" stroke-miterlimit="10" viewBox="0 0 469 199"><desc>SVG generated by Keynote</desc><defs></defs><g transform="matrix(1.00, 0.00, -0.00, -1.00, 0.0, 199.0)"><g><clipPath id="clip0x7fbd90b73ba0"><path d="M 108.0 79.0 L 238.0 79.0 L 238.0 152.0 L 108.0 152.0 Z M 108.0 79.0 "></path></clipPath><g clip-path="url(#clip0x7fbd90b73ba0)"><path d="M 19.3 53.2 L 23.3 51.2 L 124.0 0.0 " fill="none" stroke="#000000" stroke-width="9.00" transform="matrix(1.00, 0.00, 0.00, -1.00, 111.0, 147.0)"></path><path d="M 134.1 115.3 L 111.0 84.0 L 149.9 84.2 L 134.3 95.8 Z M 134.1 115.3 " fill="#000000"></path></g></g><g><clipPath id="clip0x7fbd90b6e3b0"><path d="M 114.5 142.7 L 357.2 142.7 L 357.2 204.3 L 114.5 204.3 Z M 114.5 142.7 "></path></clipPath><g clip-path="url(#clip0x7fbd90b6e3b0)"><text xml:space="preserve" font-family="GillSans,Gill Sans" font-size="36.0" fill="#000000" transform="matrix(1.00, 0.00, -0.00, -1.00, 125.3, 161.3)">G</text><text xml:space="preserve" font-family="GillSans,Gill Sans" font-size="36.0" fill="#000000" transform="matrix(1.00, 0.00, -0.00, -1.00, 152.0, 161.3)">o</text><text xml:space="preserve" font-family="GillSans,Gill Sans" font-size="36.0" fill="#000000" transform="matrix(1.00, 0.00, -0.00, -1.00, 171.8, 161.3)">n</text><text xml:space="preserve" font-family="GillSans,Gill Sans" font-size="36.0" fill="#000000" transform="matrix(1.00, 0.00, -0.00, -1.00, 189.8, 161.3)">a</text><text xml:space="preserve" font-family="GillSans,Gill Sans" font-size="36.0" fill="#000000" transform="matrix(1.00, 0.00, -0.00, -1.00, 205.2, 161.3)">d</text><text xml:space="preserve" font-family="GillSans,Gill Sans" font-size="36.0" fill="#000000" transform="matrix(1.00, 0.00, -0.00, -1.00, 223.5, 161.3)">o</text><text xml:space="preserve" font-family="GillSans,Gill Sans" font-size="36.0" fill="#000000" transform="matrix(1.00, 0.00, -0.00, -1.00, 243.4, 161.3)">t</text><text xml:space="preserve" font-family="GillSans,Gill Sans" font-size="36.0" fill="#000000" transform="matrix(1.00, 0.00, -0.00, -1.00, 255.4, 161.3)">r</text><text xml:space="preserve" font-family="GillSans,Gill Sans" font-size="36.0" fill="#000000" transform="matrix(1.00, 0.00, -0.00, -1.00, 268.7, 161.3)">o</text><text xml:space="preserve" font-family="GillSans,Gill Sans" font-size="36.0" fill="#000000" transform="matrix(1.00, 0.00, -0.00, -1.00, 288.6, 161.3)">p</text><text xml:space="preserve" font-family="GillSans,Gill Sans" font-size="36.0" fill="#000000" transform="matrix(1.00, 0.00, -0.00, -1.00, 306.6, 161.3)">i</text><text xml:space="preserve" font-family="GillSans,Gill Sans" font-size="36.0" fill="#000000" transform="matrix(1.00, 0.00, -0.00, -1.00, 314.5, 161.3)">n</text><text xml:space="preserve" font-family="GillSans,Gill Sans" font-size="36.0" fill="#000000" transform="matrix(1.00, 0.00, -0.00, -1.00, 332.5, 161.3)">s</text></g></g><g><clipPath id="clip0x7fbd90b7ab90"><path d="M 231.4 89.8 L 372.6 89.8 L 372.6 153.2 L 231.4 153.2 Z M 231.4 89.8 "></path></clipPath><g clip-path="url(#clip0x7fbd90b7ab90)"><path d="M 115.9 45.2 L 111.7 43.5 L 0.0 0.0 " fill="none" stroke="#000000" stroke-width="9.00" transform="matrix(1.00, 0.00, 0.00, -1.00, 234.0, 148.0)"></path><path d="M 331.3 91.4 L 370.0 95.0 L 343.9 123.8 L 345.7 104.5 Z M 331.3 91.4 " fill="#000000"></path></g></g><g><clipPath id="clip0x7fbd90b7c190"><path d="M 0.0 0.0 L 104.0 0.0 L 104.0 104.0 L 0.0 104.0 Z M 0.0 0.0 "></path></clipPath><g clip-path="url(#clip0x7fbd90b7c190)"><path d="M 87.4 87.4 C 106.9 67.8 106.9 36.2 87.4 16.6 C 67.8 -2.9 36.2 -2.9 16.6 16.6 C -2.9 36.2 -2.9 67.8 16.6 87.4 C 36.2 106.9 67.8 106.9 87.4 87.4 " fill="#0061FE"></path><path d="M 85.4 14.6 C 104.9 34.2 104.9 65.8 85.4 85.4 C 65.8 104.9 34.2 104.9 14.6 85.4 C -4.9 65.8 -4.9 34.2 14.6 14.6 C 34.2 -4.9 65.8 -4.9 85.4 14.6 " fill="none" stroke="#000000" stroke-width="2.00" transform="matrix(1.00, 0.00, 0.00, -1.00, 2.0, 102.0)"></path></g></g><image xlink:href="3616AAFD40E35702A74AA37EDFBB0092.png" width="63.00" height="20.00" transform="matrix(1.00, 0.00, -0.00, -1.00, 20.0, 59.0)"></image><g><clipPath id="clip0x7fbd90b7e750"><path d="M -0.5 2.0 L 104.5 2.0 L 104.5 102.0 L -0.5 102.0 Z M -0.5 2.0 "></path></clipPath><g clip-path="url(#clip0x7fbd90b7e750)"><text xml:space="preserve" font-family="GillSans,Gill Sans" font-size="24.0" fill="#FEFFFF" transform="matrix(1.00, 0.00, -0.00, -1.00, 23.3, 43.5)">t</text><text xml:space="preserve" font-family="GillSans,Gill Sans" font-size="24.0" fill="#FEFFFF" transform="matrix(1.00, 0.00, -0.00, -1.00, 31.3, 43.5)">e</text><text xml:space="preserve" font-family="GillSans,Gill Sans" font-size="24.0" fill="#FEFFFF" transform="matrix(1.00, 0.00, -0.00, -1.00, 42.8, 43.5)">s</text><text xml:space="preserve" font-family="GillSans,Gill Sans" font-size="24.0" fill="#FEFFFF" transform="matrix(1.00, 0.00, -0.00, -1.00, 52.0, 43.5)">t</text><text xml:space="preserve" font-family="GillSans,Gill Sans" font-size="24.0" fill="#FEFFFF" transform="matrix(1.00, 0.00, -0.00, -1.00, 60.0, 43.5)">e</text><text xml:space="preserve" font-family="GillSans,Gill Sans" font-size="24.0" fill="#FEFFFF" transform="matrix(1.00, 0.00, -0.00, -1.00, 71.5, 43.5)">s</text></g></g><g><clipPath id="clip0x7fbd90b81e20"><path d="M 365.0 0.0 L 469.0 0.0 L 469.0 104.0 L 365.0 104.0 Z M 365.0 0.0 "></path></clipPath><g clip-path="url(#clip0x7fbd90b81e20)"><path d="M 452.4 87.4 C 471.9 67.8 471.9 36.2 452.4 16.6 C 432.8 -2.9 401.2 -2.9 381.6 16.6 C 362.1 36.2 362.1 67.8 381.6 87.4 C 401.2 106.9 432.8 106.9 452.4 87.4 " fill="#0061FE"></path><path d="M 85.4 14.6 C 104.9 34.2 104.9 65.8 85.4 85.4 C 65.8 104.9 34.2 104.9 14.6 85.4 C -4.9 65.8 -4.9 34.2 14.6 14.6 C 34.2 -4.9 65.8 -4.9 85.4 14.6 " fill="none" stroke="#000000" stroke-width="2.00" transform="matrix(1.00, 0.00, 0.00, -1.00, 367.0, 102.0)"></path></g></g><image xlink:href="10EA5F9A5D538C6740BBB0C7EACB7A67.png" width="74.00" height="22.00" transform="matrix(1.00, 0.00, -0.00, -1.00, 380.0, 61.0)"></image><g><clipPath id="clip0x7fbd90b84400"><path d="M 364.6 2.0 L 469.4 2.0 L 469.4 102.0 L 364.6 102.0 Z M 364.6 2.0 "></path></clipPath><g clip-path="url(#clip0x7fbd90b84400)"><text xml:space="preserve" font-family="GillSans,Gill Sans" font-size="24.0" fill="#FEFFFF" transform="matrix(1.00, 0.00, -0.00, -1.00, 382.4, 43.7)">o</text><text xml:space="preserve" font-family="GillSans,Gill Sans" font-size="24.0" fill="#FEFFFF" transform="matrix(1.00, 0.00, -0.00, -1.00, 395.4, 43.7)">v</text><text xml:space="preserve" font-family="GillSans,Gill Sans" font-size="24.0" fill="#FEFFFF" transform="matrix(1.00, 0.00, -0.00, -1.00, 405.9, 43.7)">a</text><text xml:space="preserve" font-family="GillSans,Gill Sans" font-size="24.0" fill="#FEFFFF" transform="matrix(1.00, 0.00, -0.00, -1.00, 416.1, 43.7)">r</text><text xml:space="preserve" font-family="GillSans,Gill Sans" font-size="24.0" fill="#FEFFFF" transform="matrix(1.00, 0.00, -0.00, -1.00, 425.6, 43.7)">i</text><text xml:space="preserve" font-family="GillSans,Gill Sans" font-size="24.0" fill="#FEFFFF" transform="matrix(1.00, 0.00, -0.00, -1.00, 430.9, 43.7)">e</text><text xml:space="preserve" font-family="GillSans,Gill Sans" font-size="24.0" fill="#FEFFFF" transform="matrix(1.00, 0.00, -0.00, -1.00, 442.4, 43.7)">s</text></g></g></g></svg>