<?xml version="1.0" encoding="UTF-8" standalone="no"?><svg xmlns="http://www.w3.org/2000/svg" xmlns:xlink="http://www.w3.org/1999/xlink" clip-rule="evenodd" stroke-miterlimit="10" viewBox="0 0 1024 768"><desc>SVG generated by Keynote</desc><defs></defs><g transform="matrix(1.00, 0.00, -0.00, -1.00, 0.0, 768.0)"><path d="M 0.0 768.0 L 1024.0 768.0 L 1024.0 0.0 L 0.0 0.0 Z M 0.0 768.0 " fill="#FEFFFF"></path><text xml:space="preserve" font-family="ArialMT,Arial" font-size="62.0" fill="#000000" transform="matrix(1.00, 0.00, -0.00, -1.00, 108.7, 614.8)">N</text><text xml:space="preserve" font-family="ArialMT,Arial" font-size="62.0" fill="#000000" transform="matrix(1.00, 0.00, -0.00, -1.00, 153.5, 614.8)">o</text><text xml:space="preserve" font-family="ArialMT,Arial" font-size="62.0" fill="#000000" transform="matrix(1.00, 0.00, -0.00, -1.00, 188.0, 614.8)">n</text><text xml:space="preserve" font-family="ArialMT,Arial" font-size="62.0" fill="#000000" transform="matrix(1.00, 0.00, -0.00, -1.00, 222.5, 614.8)">p</text><text xml:space="preserve" font-family="ArialMT,Arial" font-size="62.0" fill="#000000" transform="matrix(1.00, 0.00, -0.00, -1.00, 257.0, 614.8)">u</text><text xml:space="preserve" font-family="ArialMT,Arial" font-size="62.0" fill="#000000" transform="matrix(1.00, 0.00, -0.00, -1.00, 291.5, 614.8)">l</text><text xml:space="preserve" font-family="ArialMT,Arial" font-size="62.0" fill="#000000" transform="matrix(1.00, 0.00, -0.00, -1.00, 305.3, 614.8)">m</text><text xml:space="preserve" font-family="ArialMT,Arial" font-size="62.0" fill="#000000" transform="matrix(1.00, 0.00, -0.00, -1.00, 356.9, 614.8)">o</text><text xml:space="preserve" font-family="ArialMT,Arial" font-size="62.0" fill="#000000" transform="matrix(1.00, 0.00, -0.00, -1.00, 391.4, 614.8)">n</text><text xml:space="preserve" font-family="ArialMT,Arial" font-size="62.0" fill="#000000" transform="matrix(1.00, 0.00, -0.00, -1.00, 425.9, 614.8)">a</text><text xml:space="preserve" font-family="ArialMT,Arial" font-size="62.0" fill="#000000" transform="matrix(1.00, 0.00, -0.00, -1.00, 460.4, 614.8)">r</text><text xml:space="preserve" font-family="ArialMT,Arial" font-size="62.0" fill="#000000" transform="matrix(1.00, 0.00, -0.00, -1.00, 481.1, 614.8)">y</text><text xml:space="preserve" font-family="ArialMT,Arial" font-size="62.0" fill="#000000" transform="matrix(1.00, 0.00, -0.00, -1.00, 512.1, 614.8)"> </text><text xml:space="preserve" font-family="ArialMT,Arial" font-size="62.0" fill="#000000" transform="matrix(1.00, 0.00, -0.00, -1.00, 529.3, 614.8)">g</text><text xml:space="preserve" font-family="ArialMT,Arial" font-size="62.0" fill="#000000" transform="matrix(1.00, 0.00, -0.00, -1.00, 563.8, 614.8)">a</text><text xml:space="preserve" font-family="ArialMT,Arial" font-size="62.0" fill="#000000" transform="matrix(1.00, 0.00, -0.00, -1.00, 598.3, 614.8)">s</text><text xml:space="preserve" font-family="ArialMT,Arial" font-size="62.0" fill="#000000" transform="matrix(1.00, 0.00, -0.00, -1.00, 629.3, 614.8)"> </text><text xml:space="preserve" font-family="ArialMT,Arial" font-size="62.0" fill="#000000" transform="matrix(1.00, 0.00, -0.00, -1.00, 646.5, 614.8)">e</text><text xml:space="preserve" font-family="ArialMT,Arial" font-size="62.0" fill="#000000" transform="matrix(1.00, 0.00, -0.00, -1.00, 681.0, 614.8)">x</text><text xml:space="preserve" font-family="ArialMT,Arial" font-size="62.0" fill="#000000" transform="matrix(1.00, 0.00, -0.00, -1.00, 712.0, 614.8)">c</text><text xml:space="preserve" font-family="ArialMT,Arial" font-size="62.0" fill="#000000" transform="matrix(1.00, 0.00, -0.00, -1.00, 743.0, 614.8)">h</text><text xml:space="preserve" font-family="ArialMT,Arial" font-size="62.0" fill="#000000" transform="matrix(1.00, 0.00, -0.00, -1.00, 777.5, 614.8)">a</text><text xml:space="preserve" font-family="ArialMT,Arial" font-size="62.0" fill="#000000" transform="matrix(1.00, 0.00, -0.00, -1.00, 812.0, 614.8)">n</text><text xml:space="preserve" font-family="ArialMT,Arial" font-size="62.0" fill="#000000" transform="matrix(1.00, 0.00, -0.00, -1.00, 846.5, 614.8)">g</text><text xml:space="preserve" font-family="ArialMT,Arial" font-size="62.0" fill="#000000" transform="matrix(1.00, 0.00, -0.00, -1.00, 880.9, 614.8)">e</text><g><clipPath id="clip0x6080018ac540"><path d="M 145.0 39.0 L 870.0 39.0 L 870.0 563.0 L 145.0 563.0 Z M 145.0 39.0 "></path></clipPath><g clip-path="url(#clip0x6080018ac540)"><path d="M 145.0 563.0 L 870.0 563.0 L 870.0 39.0 L 145.0 39.0 Z M 145.0 563.0 " fill="#FFFFFF"></path><image xlink:href="../../A197FA95-28B2-4527-B806-60E16779DC83/assets/167CB2065BA34A7FEAE2E9FED92A1201.png" width="300.00" height="217.00" transform="matrix(2.42, 0.00, -0.00, -2.41, 145.0, 563.0)"></image></g></g><text xml:space="preserve" font-family="ArialMT,Arial" font-size="18.0" fill="#000000" transform="matrix(1.00, 0.00, -0.00, -1.00, 566.2, 11.8)">h</text><text xml:space="preserve" font-family="ArialMT,Arial" font-size="18.0" fill="#000000" transform="matrix(1.00, 0.00, -0.00, -1.00, 576.2, 11.8)">t</text><text xml:space="preserve" font-family="ArialMT,Arial" font-size="18.0" fill="#000000" transform="matrix(1.00, 0.00, -0.00, -1.00, 581.2, 11.8)">t</text><text xml:space="preserve" font-family="ArialMT,Arial" font-size="18.0" fill="#000000" transform="matrix(1.00, 0.00, -0.00, -1.00, 586.2, 11.8)">p</text><text xml:space="preserve" font-family="ArialMT,Arial" font-size="18.0" fill="#000000" transform="matrix(1.00, 0.00, -0.00, -1.00, 596.2, 11.8)">:</text><text xml:space="preserve" font-family="ArialMT,Arial" font-size="18.0" fill="#000000" transform="matrix(1.00, 0.00, -0.00, -1.00, 601.2, 11.8)">/</text><text xml:space="preserve" font-family="ArialMT,Arial" font-size="18.0" fill="#000000" transform="matrix(1.00, 0.00, -0.00, -1.00, 606.2, 11.8)">/</text><text xml:space="preserve" font-family="ArialMT,Arial" font-size="18.0" fill="#000000" transform="matrix(1.00, 0.00, -0.00, -1.00, 611.2, 11.8)">w</text><text xml:space="preserve" font-family="ArialMT,Arial" font-size="18.0" fill="#000000" transform="matrix(1.00, 0.00, -0.00, -1.00, 624.2, 11.8)">w</text><text xml:space="preserve" font-family="ArialMT,Arial" font-size="18.0" fill="#000000" transform="matrix(1.00, 0.00, -0.00, -1.00, 637.2, 11.8)">w</text><text xml:space="preserve" font-family="ArialMT,Arial" font-size="18.0" fill="#000000" transform="matrix(1.00, 0.00, -0.00, -1.00, 649.3, 11.8)">.</text><text xml:space="preserve" font-family="ArialMT,Arial" font-size="18.0" fill="#000000" transform="matrix(1.00, 0.00, -0.00, -1.00, 654.2, 11.8)">s</text><text xml:space="preserve" font-family="ArialMT,Arial" font-size="18.0" fill="#000000" transform="matrix(1.00, 0.00, -0.00, -1.00, 663.2, 11.8)">t</text><text xml:space="preserve" font-family="ArialMT,Arial" font-size="18.0" fill="#000000" transform="matrix(1.00, 0.00, -0.00, -1.00, 668.2, 11.8)">r</text><text xml:space="preserve" font-family="ArialMT,Arial" font-size="18.0" fill="#000000" transform="matrix(1.00, 0.00, -0.00, -1.00, 674.2, 11.8)">a</text><text xml:space="preserve" font-family="ArialMT,Arial" font-size="18.0" fill="#000000" transform="matrix(1.00, 0.00, -0.00, -1.00, 684.3, 11.8)">i</text><text xml:space="preserve" font-family="ArialMT,Arial" font-size="18.0" fill="#000000" transform="matrix(1.00, 0.00, -0.00, -1.00, 688.3, 11.8)">g</text><text xml:space="preserve" font-family="ArialMT,Arial" font-size="18.0" fill="#000000" transform="matrix(1.00, 0.00, -0.00, -1.00, 698.3, 11.8)">h</text><text xml:space="preserve" font-family="ArialMT,Arial" font-size="18.0" fill="#000000" transform="matrix(1.00, 0.00, -0.00, -1.00, 708.3, 11.8)">t</text><text xml:space="preserve" font-family="ArialMT,Arial" font-size="18.0" fill="#000000" transform="matrix(1.00, 0.00, -0.00, -1.00, 713.3, 11.8)">d</text><text xml:space="preserve" font-family="ArialMT,Arial" font-size="18.0" fill="#000000" transform="matrix(1.00, 0.00, -0.00, -1.00, 723.3, 11.8)">o</text><text xml:space="preserve" font-family="ArialMT,Arial" font-size="18.0" fill="#000000" transform="matrix(1.00, 0.00, -0.00, -1.00, 733.3, 11.8)">p</text><text xml:space="preserve" font-family="ArialMT,Arial" font-size="18.0" fill="#000000" transform="matrix(1.00, 0.00, -0.00, -1.00, 743.3, 11.8)">e</text><text xml:space="preserve" font-family="ArialMT,Arial" font-size="18.0" fill="#000000" transform="matrix(1.00, 0.00, -0.00, -1.00, 753.3, 11.8)">.</text><text xml:space="preserve" font-family="ArialMT,Arial" font-size="18.0" fill="#000000" transform="matrix(1.00, 0.00, -0.00, -1.00, 758.3, 11.8)">c</text><text xml:space="preserve" font-family="ArialMT,Arial" font-size="18.0" fill="#000000" transform="matrix(1.00, 0.00, -0.00, -1.00, 767.3, 11.8)">o</text><text xml:space="preserve" font-family="ArialMT,Arial" font-size="18.0" fill="#000000" transform="matrix(1.00, 0.00, -0.00, -1.00, 777.4, 11.8)">m</text><text xml:space="preserve" font-family="ArialMT,Arial" font-size="18.0" fill="#000000" transform="matrix(1.00, 0.00, -0.00, -1.00, 792.3, 11.8)">/</text><text xml:space="preserve" font-family="ArialMT,Arial" font-size="18.0" fill="#000000" transform="matrix(1.00, 0.00, -0.00, -1.00, 797.3, 11.8)">c</text><text xml:space="preserve" font-family="ArialMT,Arial" font-size="18.0" fill="#000000" transform="matrix(1.00, 0.00, -0.00, -1.00, 806.3, 11.8)">o</text><text xml:space="preserve" font-family="ArialMT,Arial" font-size="18.0" fill="#000000" transform="matrix(1.00, 0.00, -0.00, -1.00, 816.4, 11.8)">l</text><text xml:space="preserve" font-family="ArialMT,Arial" font-size="18.0" fill="#000000" transform="matrix(1.00, 0.00, -0.00, -1.00, 820.4, 11.8)">u</text><text xml:space="preserve" font-family="ArialMT,Arial" font-size="18.0" fill="#000000" transform="matrix(1.00, 0.00, -0.00, -1.00, 830.4, 11.8)">m</text><text xml:space="preserve" font-family="ArialMT,Arial" font-size="18.0" fill="#000000" transform="matrix(1.00, 0.00, -0.00, -1.00, 845.4, 11.8)">n</text><text xml:space="preserve" font-family="ArialMT,Arial" font-size="18.0" fill="#000000" transform="matrix(1.00, 0.00, -0.00, -1.00, 855.4, 11.8)">s</text><text xml:space="preserve" font-family="ArialMT,Arial" font-size="18.0" fill="#000000" transform="matrix(1.00, 0.00, -0.00, -1.00, 864.4, 11.8)">/</text><text xml:space="preserve" font-family="ArialMT,Arial" font-size="18.0" fill="#000000" transform="matrix(1.00, 0.00, -0.00, -1.00, 869.4, 11.8)">0</text><text xml:space="preserve" font-family="ArialMT,Arial" font-size="18.0" fill="#000000" transform="matrix(1.00, 0.00, -0.00, -1.00, 879.4, 11.8)">1</text><text xml:space="preserve" font-family="ArialMT,Arial" font-size="18.0" fill="#000000" transform="matrix(1.00, 0.00, -0.00, -1.00, 888.1, 11.8)">1</text><text xml:space="preserve" font-family="ArialMT,Arial" font-size="18.0" fill="#000000" transform="matrix(1.00, 0.00, -0.00, -1.00, 896.7, 11.8)">1</text><text xml:space="preserve" font-family="ArialMT,Arial" font-size="18.0" fill="#000000" transform="matrix(1.00, 0.00, -0.00, -1.00, 905.4, 11.8)">1</text><text xml:space="preserve" font-family="ArialMT,Arial" font-size="18.0" fill="#000000" transform="matrix(1.00, 0.00, -0.00, -1.00, 915.4, 11.8)">6</text><text xml:space="preserve" font-family="ArialMT,Arial" font-size="18.0" fill="#000000" transform="matrix(1.00, 0.00, -0.00, -1.00, 925.5, 11.8)">.</text><text xml:space="preserve" font-family="ArialMT,Arial" font-size="18.0" fill="#000000" transform="matrix(1.00, 0.00, -0.00, -1.00, 930.5, 11.8)">h</text><text xml:space="preserve" font-family="ArialMT,Arial" font-size="18.0" fill="#000000" transform="matrix(1.00, 0.00, -0.00, -1.00, 940.5, 11.8)">t</text><text xml:space="preserve" font-family="ArialMT,Arial" font-size="18.0" fill="#000000" transform="matrix(1.00, 0.00, -0.00, -1.00, 945.5, 11.8)">m</text><text xml:space="preserve" font-family="ArialMT,Arial" font-size="18.0" fill="#000000" transform="matrix(1.00, 0.00, -0.00, -1.00, 960.5, 11.8)">l</text></g></svg>