<?xml version="1.0" encoding="UTF-8" standalone="no"?><svg xmlns="http://www.w3.org/2000/svg" xmlns:xlink="http://www.w3.org/1999/xlink" clip-rule="evenodd" stroke-miterlimit="10" viewBox="0 0 1024 768"><desc>SVG generated by Keynote</desc><defs></defs><g transform="matrix(1.00, 0.00, -0.00, -1.00, 0.0, 768.0)"><path d="M 0.0 768.0 L 1024.0 768.0 L 1024.0 0.0 L 0.0 0.0 Z M 0.0 768.0 " fill="#FEFFFF"></path><image xlink:href="621BBACD7D45EDA0293A6553A8EBBBF5.png" width="669.00" height="394.00" transform="matrix(1.53, 0.00, -0.00, -1.53, 0.0, 657.0)"></image><text xml:space="preserve" font-family="ArialMT,Arial" font-size="34.0" fill="#000000" transform="matrix(1.00, 0.00, -0.00, -1.00, 128.2, 14.8)">h</text><text xml:space="preserve" font-family="ArialMT,Arial" font-size="34.0" fill="#000000" transform="matrix(1.00, 0.00, -0.00, -1.00, 147.1, 14.8)">t</text><text xml:space="preserve" font-family="ArialMT,Arial" font-size="34.0" fill="#000000" transform="matrix(1.00, 0.00, -0.00, -1.00, 156.5, 14.8)">t</text><text xml:space="preserve" font-family="ArialMT,Arial" font-size="34.0" fill="#000000" transform="matrix(1.00, 0.00, -0.00, -1.00, 166.0, 14.8)">p</text><text xml:space="preserve" font-family="ArialMT,Arial" font-size="34.0" fill="#000000" transform="matrix(1.00, 0.00, -0.00, -1.00, 184.9, 14.8)">:</text><text xml:space="preserve" font-family="ArialMT,Arial" font-size="34.0" fill="#000000" transform="matrix(1.00, 0.00, -0.00, -1.00, 194.3, 14.8)">/</text><text xml:space="preserve" font-family="ArialMT,Arial" font-size="34.0" fill="#000000" transform="matrix(1.00, 0.00, -0.00, -1.00, 203.8, 14.8)">/</text><text xml:space="preserve" font-family="ArialMT,Arial" font-size="34.0" fill="#000000" transform="matrix(1.00, 0.00, -0.00, -1.00, 213.2, 14.8)">w</text><text xml:space="preserve" font-family="ArialMT,Arial" font-size="34.0" fill="#000000" transform="matrix(1.00, 0.00, -0.00, -1.00, 237.8, 14.8)">w</text><text xml:space="preserve" font-family="ArialMT,Arial" font-size="34.0" fill="#000000" transform="matrix(1.00, 0.00, -0.00, -1.00, 262.3, 14.8)">w</text><text xml:space="preserve" font-family="ArialMT,Arial" font-size="34.0" fill="#000000" transform="matrix(1.00, 0.00, -0.00, -1.00, 285.0, 14.8)">.</text><text xml:space="preserve" font-family="ArialMT,Arial" font-size="34.0" fill="#000000" transform="matrix(1.00, 0.00, -0.00, -1.00, 294.5, 14.8)">u</text><text xml:space="preserve" font-family="ArialMT,Arial" font-size="34.0" fill="#000000" transform="matrix(1.00, 0.00, -0.00, -1.00, 313.4, 14.8)">q</text><text xml:space="preserve" font-family="ArialMT,Arial" font-size="34.0" fill="#000000" transform="matrix(1.00, 0.00, -0.00, -1.00, 332.3, 14.8)">.</text><text xml:space="preserve" font-family="ArialMT,Arial" font-size="34.0" fill="#000000" transform="matrix(1.00, 0.00, -0.00, -1.00, 341.7, 14.8)">e</text><text xml:space="preserve" font-family="ArialMT,Arial" font-size="34.0" fill="#000000" transform="matrix(1.00, 0.00, -0.00, -1.00, 360.6, 14.8)">d</text><text xml:space="preserve" font-family="ArialMT,Arial" font-size="34.0" fill="#000000" transform="matrix(1.00, 0.00, -0.00, -1.00, 379.6, 14.8)">u</text><text xml:space="preserve" font-family="ArialMT,Arial" font-size="34.0" fill="#000000" transform="matrix(1.00, 0.00, -0.00, -1.00, 398.5, 14.8)">.</text><text xml:space="preserve" font-family="ArialMT,Arial" font-size="34.0" fill="#000000" transform="matrix(1.00, 0.00, -0.00, -1.00, 407.9, 14.8)">a</text><text xml:space="preserve" font-family="ArialMT,Arial" font-size="34.0" fill="#000000" transform="matrix(1.00, 0.00, -0.00, -1.00, 426.8, 14.8)">u</text><text xml:space="preserve" font-family="ArialMT,Arial" font-size="34.0" fill="#000000" transform="matrix(1.00, 0.00, -0.00, -1.00, 445.7, 14.8)">/</text><text xml:space="preserve" font-family="ArialMT,Arial" font-size="34.0" fill="#000000" transform="matrix(1.00, 0.00, -0.00, -1.00, 455.2, 14.8)">e</text><text xml:space="preserve" font-family="ArialMT,Arial" font-size="34.0" fill="#000000" transform="matrix(1.00, 0.00, -0.00, -1.00, 474.1, 14.8)">c</text><text xml:space="preserve" font-family="ArialMT,Arial" font-size="34.0" fill="#000000" transform="matrix(1.00, 0.00, -0.00, -1.00, 491.1, 14.8)">o</text><text xml:space="preserve" font-family="ArialMT,Arial" font-size="34.0" fill="#000000" transform="matrix(1.00, 0.00, -0.00, -1.00, 510.0, 14.8)">-</text><text xml:space="preserve" font-family="ArialMT,Arial" font-size="34.0" fill="#000000" transform="matrix(1.00, 0.00, -0.00, -1.00, 521.3, 14.8)">l</text><text xml:space="preserve" font-family="ArialMT,Arial" font-size="34.0" fill="#000000" transform="matrix(1.00, 0.00, -0.00, -1.00, 528.9, 14.8)">a</text><text xml:space="preserve" font-family="ArialMT,Arial" font-size="34.0" fill="#000000" transform="matrix(1.00, 0.00, -0.00, -1.00, 547.8, 14.8)">b</text><text xml:space="preserve" font-family="ArialMT,Arial" font-size="34.0" fill="#000000" transform="matrix(1.00, 0.00, -0.00, -1.00, 566.7, 14.8)">/</text><text xml:space="preserve" font-family="ArialMT,Arial" font-size="34.0" fill="#000000" transform="matrix(1.00, 0.00, -0.00, -1.00, 576.2, 14.8)">b</text><text xml:space="preserve" font-family="ArialMT,Arial" font-size="34.0" fill="#000000" transform="matrix(1.00, 0.00, -0.00, -1.00, 595.1, 14.8)">i</text><text xml:space="preserve" font-family="ArialMT,Arial" font-size="34.0" fill="#000000" transform="matrix(1.00, 0.00, -0.00, -1.00, 602.6, 14.8)">m</text><text xml:space="preserve" font-family="ArialMT,Arial" font-size="34.0" fill="#000000" transform="matrix(1.00, 0.00, -0.00, -1.00, 631.0, 14.8)">o</text><text xml:space="preserve" font-family="ArialMT,Arial" font-size="34.0" fill="#000000" transform="matrix(1.00, 0.00, -0.00, -1.00, 649.9, 14.8)">d</text><text xml:space="preserve" font-family="ArialMT,Arial" font-size="34.0" fill="#000000" transform="matrix(1.00, 0.00, -0.00, -1.00, 668.8, 14.8)">a</text><text xml:space="preserve" font-family="ArialMT,Arial" font-size="34.0" fill="#000000" transform="matrix(1.00, 0.00, -0.00, -1.00, 687.7, 14.8)">l</text><text xml:space="preserve" font-family="ArialMT,Arial" font-size="34.0" fill="#000000" transform="matrix(1.00, 0.00, -0.00, -1.00, 695.3, 14.8)">-</text><text xml:space="preserve" font-family="ArialMT,Arial" font-size="34.0" fill="#000000" transform="matrix(1.00, 0.00, -0.00, -1.00, 706.6, 14.8)">r</text><text xml:space="preserve" font-family="ArialMT,Arial" font-size="34.0" fill="#000000" transform="matrix(1.00, 0.00, -0.00, -1.00, 717.9, 14.8)">e</text><text xml:space="preserve" font-family="ArialMT,Arial" font-size="34.0" fill="#000000" transform="matrix(1.00, 0.00, -0.00, -1.00, 736.8, 14.8)">s</text><text xml:space="preserve" font-family="ArialMT,Arial" font-size="34.0" fill="#000000" transform="matrix(1.00, 0.00, -0.00, -1.00, 753.8, 14.8)">p</text><text xml:space="preserve" font-family="ArialMT,Arial" font-size="34.0" fill="#000000" transform="matrix(1.00, 0.00, -0.00, -1.00, 772.8, 14.8)">i</text><text xml:space="preserve" font-family="ArialMT,Arial" font-size="34.0" fill="#000000" transform="matrix(1.00, 0.00, -0.00, -1.00, 780.3, 14.8)">r</text><text xml:space="preserve" font-family="ArialMT,Arial" font-size="34.0" fill="#000000" transform="matrix(1.00, 0.00, -0.00, -1.00, 791.6, 14.8)">a</text><text xml:space="preserve" font-family="ArialMT,Arial" font-size="34.0" fill="#000000" transform="matrix(1.00, 0.00, -0.00, -1.00, 810.6, 14.8)">t</text><text xml:space="preserve" font-family="ArialMT,Arial" font-size="34.0" fill="#000000" transform="matrix(1.00, 0.00, -0.00, -1.00, 820.0, 14.8)">i</text><text xml:space="preserve" font-family="ArialMT,Arial" font-size="34.0" fill="#000000" transform="matrix(1.00, 0.00, -0.00, -1.00, 827.6, 14.8)">o</text><text xml:space="preserve" font-family="ArialMT,Arial" font-size="34.0" fill="#000000" transform="matrix(1.00, 0.00, -0.00, -1.00, 846.5, 14.8)">n</text><text xml:space="preserve" font-family="ArialMT,Arial" font-size="34.0" fill="#000000" transform="matrix(1.00, 0.00, -0.00, -1.00, 865.4, 14.8)">-</text><text xml:space="preserve" font-family="ArialMT,Arial" font-size="34.0" fill="#000000" transform="matrix(1.00, 0.00, -0.00, -1.00, 876.7, 14.8)">i</text><text xml:space="preserve" font-family="ArialMT,Arial" font-size="34.0" fill="#000000" transform="matrix(1.00, 0.00, -0.00, -1.00, 884.3, 14.8)">n</text><text xml:space="preserve" font-family="ArialMT,Arial" font-size="34.0" fill="#000000" transform="matrix(1.00, 0.00, -0.00, -1.00, 903.2, 14.8)">-</text><text xml:space="preserve" font-family="ArialMT,Arial" font-size="34.0" fill="#000000" transform="matrix(1.00, 0.00, -0.00, -1.00, 914.5, 14.8)">t</text><text xml:space="preserve" font-family="ArialMT,Arial" font-size="34.0" fill="#000000" transform="matrix(1.00, 0.00, -0.00, -1.00, 923.9, 14.8)">u</text><text xml:space="preserve" font-family="ArialMT,Arial" font-size="34.0" fill="#000000" transform="matrix(1.00, 0.00, -0.00, -1.00, 942.9, 14.8)">r</text><text xml:space="preserve" font-family="ArialMT,Arial" font-size="34.0" fill="#000000" transform="matrix(1.00, 0.00, -0.00, -1.00, 954.2, 14.8)">t</text><text xml:space="preserve" font-family="ArialMT,Arial" font-size="34.0" fill="#000000" transform="matrix(1.00, 0.00, -0.00, -1.00, 963.6, 14.8)">l</text><text xml:space="preserve" font-family="ArialMT,Arial" font-size="34.0" fill="#000000" transform="matrix(1.00, 0.00, -0.00, -1.00, 971.2, 14.8)">e</text><text xml:space="preserve" font-family="ArialMT,Arial" font-size="34.0" fill="#000000" transform="matrix(1.00, 0.00, -0.00, -1.00, 990.1, 14.8)">s</text></g></svg>