<?xml version="1.0" encoding="UTF-8" standalone="no"?><svg xmlns="http://www.w3.org/2000/svg" xmlns:xlink="http://www.w3.org/1999/xlink" clip-rule="evenodd" stroke-miterlimit="10" viewBox="0 0 720 540"><desc>SVG generated by Keynote</desc><defs><linearGradient id="gradSh1.44" x1="0.0" y1="0.0" x2="100.0" y2="0.0" gradientUnits="userSpaceOnUse" gradientTransform="matrix(0.00, -1.67, -1.68, 0.00, 559.0, 438.0)"><stop offset="0.00000" stop-color="#51A7F9"></stop><stop offset="0.00073" stop-color="#52A7F9"></stop><stop offset="0.30792" stop-color="#877FAD"></stop><stop offset="0.30865" stop-color="#877FAC"></stop><stop offset="0.80352" stop-color="#DD3F31"></stop><stop offset="0.80572" stop-color="#DD3F30"></stop><stop offset="1.00000" stop-color="#FF2600"></stop></linearGradient><linearGradient id="gradSh2.45" x1="0.0" y1="0.0" x2="100.0" y2="0.0" gradientUnits="userSpaceOnUse" gradientTransform="matrix(0.00, -1.67, -1.68, 0.00, 161.0, 243.0)"><stop offset="0.00000" stop-color="#51A7F9"></stop><stop offset="0.00073" stop-color="#52A7F9"></stop><stop offset="0.30792" stop-color="#877FAD"></stop><stop offset="0.30865" stop-color="#877FAC"></stop><stop offset="0.80352" stop-color="#DD3F31"></stop><stop offset="0.80572" stop-color="#DD3F30"></stop><stop offset="1.00000" stop-color="#FF2600"></stop></linearGradient><linearGradient id="gradSh3.46" x1="0.0" y1="0.0" x2="100.0" y2="0.0" gradientUnits="userSpaceOnUse" gradientTransform="matrix(0.00, -1.67, -1.67, 0.00, 360.0, 242.5)"><stop offset="0.00000" stop-color="#51A7F9"></stop><stop offset="0.00073" stop-color="#52A7F9"></stop><stop offset="0.30792" stop-color="#877FAD"></stop><stop offset="0.30865" stop-color="#877FAC"></stop><stop offset="0.80352" stop-color="#DD3F31"></stop><stop offset="0.80572" stop-color="#DD3F30"></stop><stop offset="1.00000" stop-color="#FF2600"></stop></linearGradient><linearGradient id="gradSh2.47" x1="0.0" y1="0.0" x2="100.0" y2="0.0" gradientUnits="userSpaceOnUse" gradientTransform="matrix(0.00, -1.67, -1.68, 0.00, 559.0, 243.0)"><stop offset="0.00000" stop-color="#51A7F9"></stop><stop offset="0.00073" stop-color="#52A7F9"></stop><stop offset="0.30792" stop-color="#877FAD"></stop><stop offset="0.30865" stop-color="#877FAC"></stop><stop offset="0.80352" stop-color="#DD3F31"></stop><stop offset="0.80572" stop-color="#DD3F30"></stop><stop offset="1.00000" stop-color="#FF2600"></stop></linearGradient></defs><g transform="matrix(1.00, 0.00, -0.00, -1.00, 0.0, 540.0)"><path d="M 0.0 540.0 L 720.0 540.0 L 720.0 0.0 L 0.0 0.0 Z M 0.0 540.0 " fill="#FEFFFF"></path><text xml:space="preserve" font-family="GillSans,Gill Sans" font-size="28.0" fill="#000000" transform="matrix(1.00, 0.00, -0.00, -1.00, 225.3, 473.5)">H</text><text xml:space="preserve" font-family="GillSans,Gill Sans" font-size="28.0" fill="#000000" transform="matrix(1.00, 0.00, -0.00, -1.00, 245.7, 473.5)">e</text><text xml:space="preserve" font-family="GillSans,Gill Sans" font-size="28.0" fill="#000000" transform="matrix(1.00, 0.00, -0.00, -1.00, 259.1, 473.5)">a</text><text xml:space="preserve" font-family="GillSans,Gill Sans" font-size="28.0" fill="#000000" transform="matrix(1.00, 0.00, -0.00, -1.00, 271.0, 473.5)">t</text><text xml:space="preserve" font-family="GillSans,Gill Sans" font-size="28.0" fill="#000000" transform="matrix(1.00, 0.00, -0.00, -1.00, 280.4, 473.5)"> </text><text xml:space="preserve" font-family="GillSans,Gill Sans" font-size="28.0" fill="#000000" transform="matrix(1.00, 0.00, -0.00, -1.00, 288.1, 473.5)">t</text><text xml:space="preserve" font-family="GillSans,Gill Sans" font-size="28.0" fill="#000000" transform="matrix(1.00, 0.00, -0.00, -1.00, 297.5, 473.5)">r</text><text xml:space="preserve" font-family="GillSans,Gill Sans" font-size="28.0" fill="#000000" transform="matrix(1.00, 0.00, -0.00, -1.00, 308.5, 473.5)">a</text><text xml:space="preserve" font-family="GillSans,Gill Sans" font-size="28.0" fill="#000000" transform="matrix(1.00, 0.00, -0.00, -1.00, 320.5, 473.5)">n</text><text xml:space="preserve" font-family="GillSans,Gill Sans" font-size="28.0" fill="#000000" transform="matrix(1.00, 0.00, -0.00, -1.00, 334.5, 473.5)">s</text><text xml:space="preserve" font-family="GillSans,Gill Sans" font-size="28.0" fill="#000000" transform="matrix(1.00, 0.00, -0.00, -1.00, 345.3, 473.5)">f</text><text xml:space="preserve" font-family="GillSans,Gill Sans" font-size="28.0" fill="#000000" transform="matrix(1.00, 0.00, -0.00, -1.00, 352.0, 473.5)">e</text><text xml:space="preserve" font-family="GillSans,Gill Sans" font-size="28.0" fill="#000000" transform="matrix(1.00, 0.00, -0.00, -1.00, 365.4, 473.5)">r</text><text xml:space="preserve" font-family="GillSans,Gill Sans" font-size="28.0" fill="#000000" transform="matrix(1.00, 0.00, -0.00, -1.00, 376.5, 473.5)"> </text><text xml:space="preserve" font-family="GillSans,Gill Sans" font-size="28.0" fill="#000000" transform="matrix(1.00, 0.00, -0.00, -1.00, 384.3, 473.5)">i</text><text xml:space="preserve" font-family="GillSans,Gill Sans" font-size="28.0" fill="#000000" transform="matrix(1.00, 0.00, -0.00, -1.00, 390.4, 473.5)">n</text><text xml:space="preserve" font-family="GillSans,Gill Sans" font-size="28.0" fill="#000000" transform="matrix(1.00, 0.00, -0.00, -1.00, 404.4, 473.5)"> </text><text xml:space="preserve" font-family="GillSans,Gill Sans" font-size="28.0" fill="#000000" transform="matrix(1.00, 0.00, -0.00, -1.00, 412.2, 473.5)">a</text><text xml:space="preserve" font-family="GillSans,Gill Sans" font-size="28.0" fill="#000000" transform="matrix(1.00, 0.00, -0.00, -1.00, 424.1, 473.5)">n</text><text xml:space="preserve" font-family="GillSans,Gill Sans" font-size="28.0" fill="#000000" transform="matrix(1.00, 0.00, -0.00, -1.00, 438.1, 473.5)">i</text><text xml:space="preserve" font-family="GillSans,Gill Sans" font-size="28.0" fill="#000000" transform="matrix(1.00, 0.00, -0.00, -1.00, 444.3, 473.5)">m</text><text xml:space="preserve" font-family="GillSans,Gill Sans" font-size="28.0" fill="#000000" transform="matrix(1.00, 0.00, -0.00, -1.00, 465.8, 473.5)">a</text><text xml:space="preserve" font-family="GillSans,Gill Sans" font-size="28.0" fill="#000000" transform="matrix(1.00, 0.00, -0.00, -1.00, 477.8, 473.5)">l</text><text xml:space="preserve" font-family="GillSans,Gill Sans" font-size="28.0" fill="#000000" transform="matrix(1.00, 0.00, -0.00, -1.00, 483.9, 473.5)">s</text><image xlink:href="../../A94295E2-8EDF-4A7D-9C61-E7E544C51C3D/assets/2F71F36FD360BA904BAC24463BC8923A.png" width="171.00" height="171.00" transform="matrix(1.00, 0.00, -0.00, -1.00, 75.4, 438.0)" opacity="0.50"></image><g><clipPath id="clip0x7fce07cee120"><path d="M 78.4 296.6 L 78.0 412.2 C 78.0 425.9 89.5 437.0 103.2 437.0 L 218.8 437.0 C 232.5 437.0 244.0 425.9 244.0 412.2 L 244.0 296.6 C 244.0 282.9 232.5 272.0 218.8 272.0 L 103.2 272.0 C 89.5 272.0 78.4 282.9 78.4 296.6 Z M 78.4 296.6 "></path></clipPath><g clip-path="url(#clip0x7fce07cee120)"><image xlink:href="../../A94295E2-8EDF-4A7D-9C61-E7E544C51C3D/assets/BE3F922761C840FCF041793E32558358.png" width="600.00" height="600.00" transform="matrix(0.50, 0.00, -0.00, -0.50, 78.0, 437.0)"></image></g></g><image xlink:href="../../A94295E2-8EDF-4A7D-9C61-E7E544C51C3D/assets/213AEA009655F15E3C308450D340C66D.png" width="57.00" height="25.00" transform="matrix(1.00, 0.00, -0.00, -1.00, 133.0, 381.0)"></image><g><clipPath id="clip0x7fce07cf5e20"><path d="M 72.0 271.8 L 250.0 271.8 L 250.0 437.0 L 72.0 437.0 Z M 72.0 271.8 "></path></clipPath><g clip-path="url(#clip0x7fce07cf5e20)"><text xml:space="preserve" font-family="GillSans,Gill Sans" font-size="26.0" fill="#FEFFFF" transform="matrix(1.00, 0.00, -0.00, -1.00, 135.3, 360.5)">s</text><text xml:space="preserve" font-family="GillSans,Gill Sans" font-size="26.0" fill="#FEFFFF" transform="matrix(1.00, 0.00, -0.00, -1.00, 145.3, 360.5)">o</text><text xml:space="preserve" font-family="GillSans,Gill Sans" font-size="26.0" fill="#FEFFFF" transform="matrix(1.00, 0.00, -0.00, -1.00, 159.6, 360.5)">l</text><text xml:space="preserve" font-family="GillSans,Gill Sans" font-size="26.0" fill="#FEFFFF" transform="matrix(1.00, 0.00, -0.00, -1.00, 165.3, 360.5)">a</text><text xml:space="preserve" font-family="GillSans,Gill Sans" font-size="26.0" fill="#FEFFFF" transform="matrix(1.00, 0.00, -0.00, -1.00, 176.4, 360.5)">r</text></g></g><image xlink:href="../../A94295E2-8EDF-4A7D-9C61-E7E544C51C3D/assets/CEC5D3147A40C708B2B2F70EA353C130.png" width="96.00" height="25.00" transform="matrix(1.00, 0.00, -0.00, -1.00, 113.0, 351.0)"></image><g><clipPath id="clip0x7fce07cfa210"><path d="M 72.0 271.8 L 250.0 271.8 L 250.0 437.0 L 72.0 437.0 Z M 72.0 271.8 "></path></clipPath><g clip-path="url(#clip0x7fce07cfa210)"><text xml:space="preserve" font-family="GillSans,Gill Sans" font-size="26.0" fill="#FEFFFF" transform="matrix(1.00, 0.00, -0.00, -1.00, 114.4, 330.5)">r</text><text xml:space="preserve" font-family="GillSans,Gill Sans" font-size="26.0" fill="#FEFFFF" transform="matrix(1.00, 0.00, -0.00, -1.00, 124.7, 330.5)">a</text><text xml:space="preserve" font-family="GillSans,Gill Sans" font-size="26.0" fill="#FEFFFF" transform="matrix(1.00, 0.00, -0.00, -1.00, 135.8, 330.5)">d</text><text xml:space="preserve" font-family="GillSans,Gill Sans" font-size="26.0" fill="#FEFFFF" transform="matrix(1.00, 0.00, -0.00, -1.00, 149.1, 330.5)">i</text><text xml:space="preserve" font-family="GillSans,Gill Sans" font-size="26.0" fill="#FEFFFF" transform="matrix(1.00, 0.00, -0.00, -1.00, 154.8, 330.5)">a</text><text xml:space="preserve" font-family="GillSans,Gill Sans" font-size="26.0" fill="#FEFFFF" transform="matrix(1.00, 0.00, -0.00, -1.00, 165.9, 330.5)">t</text><text xml:space="preserve" font-family="GillSans,Gill Sans" font-size="26.0" fill="#FEFFFF" transform="matrix(1.00, 0.00, -0.00, -1.00, 174.5, 330.5)">i</text><text xml:space="preserve" font-family="GillSans,Gill Sans" font-size="26.0" fill="#FEFFFF" transform="matrix(1.00, 0.00, -0.00, -1.00, 180.2, 330.5)">o</text><text xml:space="preserve" font-family="GillSans,Gill Sans" font-size="26.0" fill="#FEFFFF" transform="matrix(1.00, 0.00, -0.00, -1.00, 194.6, 330.5)">n</text></g></g><image xlink:href="../../A94295E2-8EDF-4A7D-9C61-E7E544C51C3D/assets/2F71F36FD360BA904BAC24463BC8923A.png" width="171.00" height="171.00" transform="matrix(1.00, 0.00, -0.00, -1.00, 274.4, 438.0)" opacity="0.50"></image><g><clipPath id="clip0x7fce07e03e00"><path d="M 277.4 296.6 L 277.0 412.2 C 277.0 425.9 288.5 437.0 302.2 437.0 L 417.8 437.0 C 431.5 437.0 443.0 425.9 443.0 412.2 L 443.0 296.6 C 443.0 282.9 431.5 272.0 417.8 272.0 L 302.2 272.0 C 288.5 272.0 277.4 282.9 277.4 296.6 Z M 277.4 296.6 "></path></clipPath><g clip-path="url(#clip0x7fce07e03e00)"><image xlink:href="../../A94295E2-8EDF-4A7D-9C61-E7E544C51C3D/assets/BE3F922761C840FCF041793E32558358.png" width="600.00" height="600.00" transform="matrix(0.50, 0.00, -0.00, -0.50, 277.0, 437.0)"></image></g></g><image xlink:href="../../A94295E2-8EDF-4A7D-9C61-E7E544C51C3D/assets/C5A772E4C02D7AF0F2E9DBA5F89FF41C.png" width="107.00" height="25.00" transform="matrix(1.00, 0.00, -0.00, -1.00, 307.0, 381.0)"></image><g><clipPath id="clip0x7fce07fe8ea0"><path d="M 271.0 271.8 L 449.0 271.8 L 449.0 437.0 L 271.0 437.0 Z M 271.0 271.8 "></path></clipPath><g clip-path="url(#clip0x7fce07fe8ea0)"><text xml:space="preserve" font-family="GillSans,Gill Sans" font-size="26.0" fill="#FEFFFF" transform="matrix(1.00, 0.00, -0.00, -1.00, 308.8, 360.5)">m</text><text xml:space="preserve" font-family="GillSans,Gill Sans" font-size="26.0" fill="#FEFFFF" transform="matrix(1.00, 0.00, -0.00, -1.00, 328.9, 360.5)">e</text><text xml:space="preserve" font-family="GillSans,Gill Sans" font-size="26.0" fill="#FEFFFF" transform="matrix(1.00, 0.00, -0.00, -1.00, 341.3, 360.5)">t</text><text xml:space="preserve" font-family="GillSans,Gill Sans" font-size="26.0" fill="#FEFFFF" transform="matrix(1.00, 0.00, -0.00, -1.00, 350.0, 360.5)">a</text><text xml:space="preserve" font-family="GillSans,Gill Sans" font-size="26.0" fill="#FEFFFF" transform="matrix(1.00, 0.00, -0.00, -1.00, 361.1, 360.5)">b</text><text xml:space="preserve" font-family="GillSans,Gill Sans" font-size="26.0" fill="#FEFFFF" transform="matrix(1.00, 0.00, -0.00, -1.00, 374.1, 360.5)">o</text><text xml:space="preserve" font-family="GillSans,Gill Sans" font-size="26.0" fill="#FEFFFF" transform="matrix(1.00, 0.00, -0.00, -1.00, 388.4, 360.5)">l</text><text xml:space="preserve" font-family="GillSans,Gill Sans" font-size="26.0" fill="#FEFFFF" transform="matrix(1.00, 0.00, -0.00, -1.00, 394.1, 360.5)">i</text><text xml:space="preserve" font-family="GillSans,Gill Sans" font-size="26.0" fill="#FEFFFF" transform="matrix(1.00, 0.00, -0.00, -1.00, 399.8, 360.5)">c</text><text xml:space="preserve" font-family="GillSans,Gill Sans" font-size="26.0" fill="#FEFFFF" transform="matrix(1.00, 0.00, -0.00, -1.00, 411.2, 360.5)"> </text></g></g><image xlink:href="../../A94295E2-8EDF-4A7D-9C61-E7E544C51C3D/assets/43CFB03E3DFCE0A6F4482B454D42675E.png" width="51.00" height="25.00" transform="matrix(1.00, 0.00, -0.00, -1.00, 335.0, 351.0)"></image><g><clipPath id="clip0x7fce07fef370"><path d="M 271.0 271.8 L 449.0 271.8 L 449.0 437.0 L 271.0 437.0 Z M 271.0 271.8 "></path></clipPath><g clip-path="url(#clip0x7fce07fef370)"><text xml:space="preserve" font-family="GillSans,Gill Sans" font-size="26.0" fill="#FEFFFF" transform="matrix(1.00, 0.00, -0.00, -1.00, 337.4, 330.5)">h</text><text xml:space="preserve" font-family="GillSans,Gill Sans" font-size="26.0" fill="#FEFFFF" transform="matrix(1.00, 0.00, -0.00, -1.00, 350.4, 330.5)">e</text><text xml:space="preserve" font-family="GillSans,Gill Sans" font-size="26.0" fill="#FEFFFF" transform="matrix(1.00, 0.00, -0.00, -1.00, 362.8, 330.5)">a</text><text xml:space="preserve" font-family="GillSans,Gill Sans" font-size="26.0" fill="#FEFFFF" transform="matrix(1.00, 0.00, -0.00, -1.00, 373.9, 330.5)">t</text></g></g><image xlink:href="../../A94295E2-8EDF-4A7D-9C61-E7E544C51C3D/assets/2F71F36FD360BA904BAC24463BC8923A.png" width="171.00" height="171.00" transform="matrix(1.00, 0.00, -0.00, -1.00, 473.4, 438.0)" opacity="0.50"></image><g><clipPath id="clip0x7fce07ff3a10"><path d="M 476.4 296.6 L 476.0 412.2 C 476.0 425.9 487.5 437.0 501.2 437.0 L 616.8 437.0 C 630.5 437.0 642.0 425.9 642.0 412.2 L 642.0 296.6 C 642.0 282.9 630.5 272.0 616.8 272.0 L 501.2 272.0 C 487.5 272.0 476.4 282.9 476.4 296.6 Z M 476.4 296.6 "></path></clipPath><g clip-path="url(#clip0x7fce07ff3a10)"><path d="M 476.4 296.6 L 476.0 412.2 C 476.0 425.9 487.5 437.0 501.2 437.0 L 616.8 437.0 C 630.5 437.0 642.0 425.9 642.0 412.2 L 642.0 296.6 C 642.0 282.9 630.5 272.0 616.8 272.0 L 501.2 272.0 C 487.5 272.0 476.4 282.9 476.4 296.6 Z M 476.4 296.6 " fill="url(#gradSh1.44)"></path></g></g><image xlink:href="../../A94295E2-8EDF-4A7D-9C61-E7E544C51C3D/assets/7C2BC39282EE090F96F89F8FB4E85673.png" width="86.00" height="25.00" transform="matrix(1.00, 0.00, -0.00, -1.00, 516.0, 366.0)"></image><g><clipPath id="clip0x7fce08045040"><path d="M 470.0 271.8 L 648.0 271.8 L 648.0 437.0 L 470.0 437.0 Z M 470.0 271.8 "></path></clipPath><g clip-path="url(#clip0x7fce08045040)"><text xml:space="preserve" font-family="GillSans,Gill Sans" font-size="26.0" fill="#FEFFFF" transform="matrix(1.00, 0.00, -0.00, -1.00, 518.0, 345.2)">i</text><text xml:space="preserve" font-family="GillSans,Gill Sans" font-size="26.0" fill="#FEFFFF" transform="matrix(1.00, 0.00, -0.00, -1.00, 523.7, 345.2)">n</text><text xml:space="preserve" font-family="GillSans,Gill Sans" font-size="26.0" fill="#FEFFFF" transform="matrix(1.00, 0.00, -0.00, -1.00, 536.7, 345.2)">f</text><text xml:space="preserve" font-family="GillSans,Gill Sans" font-size="26.0" fill="#FEFFFF" transform="matrix(1.00, 0.00, -0.00, -1.00, 543.2, 345.2)">r</text><text xml:space="preserve" font-family="GillSans,Gill Sans" font-size="26.0" fill="#FEFFFF" transform="matrix(1.00, 0.00, -0.00, -1.00, 553.5, 345.2)">a</text><text xml:space="preserve" font-family="GillSans,Gill Sans" font-size="26.0" fill="#FEFFFF" transform="matrix(1.00, 0.00, -0.00, -1.00, 564.6, 345.2)">r</text><text xml:space="preserve" font-family="GillSans,Gill Sans" font-size="26.0" fill="#FEFFFF" transform="matrix(1.00, 0.00, -0.00, -1.00, 574.3, 345.2)">e</text><text xml:space="preserve" font-family="GillSans,Gill Sans" font-size="26.0" fill="#FEFFFF" transform="matrix(1.00, 0.00, -0.00, -1.00, 586.8, 345.2)">d</text></g></g><image xlink:href="../../A94295E2-8EDF-4A7D-9C61-E7E544C51C3D/assets/2F71F36FD360BA904BAC24463BC8923A.png" width="171.00" height="171.00" transform="matrix(1.00, 0.00, -0.00, -1.00, 75.4, 243.0)" opacity="0.50"></image><g><clipPath id="clip0x7fce0804ada0"><path d="M 78.4 101.6 L 78.0 217.2 C 78.0 230.9 89.5 242.0 103.2 242.0 L 218.8 242.0 C 232.5 242.0 244.0 230.9 244.0 217.2 L 244.0 101.6 C 244.0 87.9 232.5 77.0 218.8 77.0 L 103.2 77.0 C 89.5 77.0 78.4 87.9 78.4 101.6 Z M 78.4 101.6 "></path></clipPath><g clip-path="url(#clip0x7fce0804ada0)"><path d="M 78.4 101.6 L 78.0 217.2 C 78.0 230.9 89.5 242.0 103.2 242.0 L 218.8 242.0 C 232.5 242.0 244.0 230.9 244.0 217.2 L 244.0 101.6 C 244.0 87.9 232.5 77.0 218.8 77.0 L 103.2 77.0 C 89.5 77.0 78.4 87.9 78.4 101.6 Z M 78.4 101.6 " fill="url(#gradSh2.45)"></path></g></g><image xlink:href="../../A94295E2-8EDF-4A7D-9C61-E7E544C51C3D/assets/BD853B37AF0DCF1D8A89C4ED24646570.png" width="119.00" height="23.00" transform="matrix(1.00, 0.00, -0.00, -1.00, 101.0, 169.0)"></image><g><clipPath id="clip0x7fce0809bc20"><path d="M 72.0 76.8 L 250.0 76.8 L 250.0 242.0 L 72.0 242.0 Z M 72.0 76.8 "></path></clipPath><g clip-path="url(#clip0x7fce0809bc20)"><text xml:space="preserve" font-family="GillSans,Gill Sans" font-size="26.0" fill="#FEFFFF" transform="matrix(1.00, 0.00, -0.00, -1.00, 103.6, 150.2)">c</text><text xml:space="preserve" font-family="GillSans,Gill Sans" font-size="26.0" fill="#FEFFFF" transform="matrix(1.00, 0.00, -0.00, -1.00, 115.0, 150.2)">o</text><text xml:space="preserve" font-family="GillSans,Gill Sans" font-size="26.0" fill="#FEFFFF" transform="matrix(1.00, 0.00, -0.00, -1.00, 129.4, 150.2)">n</text><text xml:space="preserve" font-family="GillSans,Gill Sans" font-size="26.0" fill="#FEFFFF" transform="matrix(1.00, 0.00, -0.00, -1.00, 142.0, 150.2)">v</text><text xml:space="preserve" font-family="GillSans,Gill Sans" font-size="26.0" fill="#FEFFFF" transform="matrix(1.00, 0.00, -0.00, -1.00, 152.8, 150.2)">e</text><text xml:space="preserve" font-family="GillSans,Gill Sans" font-size="26.0" fill="#FEFFFF" transform="matrix(1.00, 0.00, -0.00, -1.00, 165.3, 150.2)">c</text><text xml:space="preserve" font-family="GillSans,Gill Sans" font-size="26.0" fill="#FEFFFF" transform="matrix(1.00, 0.00, -0.00, -1.00, 176.7, 150.2)">t</text><text xml:space="preserve" font-family="GillSans,Gill Sans" font-size="26.0" fill="#FEFFFF" transform="matrix(1.00, 0.00, -0.00, -1.00, 185.3, 150.2)">i</text><text xml:space="preserve" font-family="GillSans,Gill Sans" font-size="26.0" fill="#FEFFFF" transform="matrix(1.00, 0.00, -0.00, -1.00, 191.0, 150.2)">o</text><text xml:space="preserve" font-family="GillSans,Gill Sans" font-size="26.0" fill="#FEFFFF" transform="matrix(1.00, 0.00, -0.00, -1.00, 205.4, 150.2)">n</text></g></g><image xlink:href="../../FA3C3451-919D-44E4-97E2-1683B5B55293/assets/5E10313417074665109A3E5161C9A773.png" width="176.00" height="176.00" transform="matrix(1.00, 0.00, -0.00, -1.00, 271.9, 245.5)" opacity="0.50"></image><g><clipPath id="clip0x7fce07e056c0"><path d="M 277.5 102.0 L 277.5 217.2 C 277.5 230.9 288.5 241.5 302.2 241.5 L 417.8 241.5 C 431.5 241.5 442.5 230.9 442.5 217.2 L 442.5 101.6 C 442.5 87.9 431.5 76.5 417.8 76.5 L 302.2 76.5 C 288.5 76.5 277.5 88.3 277.5 102.0 Z M 277.4 101.6 "></path></clipPath><g clip-path="url(#clip0x7fce07e056c0)"><path d="M 277.5 102.0 L 277.5 217.2 C 277.5 230.9 288.5 241.5 302.2 241.5 L 417.8 241.5 C 431.5 241.5 442.5 230.9 442.5 217.2 L 442.5 101.6 C 442.5 87.9 431.5 76.5 417.8 76.5 L 302.2 76.5 C 288.5 76.5 277.5 88.3 277.5 102.0 Z M 277.4 101.6 " fill="url(#gradSh3.46)"></path></g></g><path d="M 0.1 140.0 L 0.1 24.8 C 0.1 11.1 11.1 0.5 24.8 0.5 L 140.4 0.5 C 154.1 0.5 165.1 11.1 165.1 24.8 L 165.1 140.4 C 165.1 154.1 154.1 165.5 140.4 165.5 L 24.8 165.5 C 11.1 165.5 0.1 153.7 0.1 140.0 Z M 0.0 140.4 " fill="none" stroke="#000000" stroke-width="5.00" transform="matrix(1.00, 0.00, 0.00, -1.00, 277.4, 242.0)"></path><image xlink:href="../../20E8EA6F-8E00-4914-833F-453FAE20F390/assets/C413F3AED13D398DD0575861E36A449A.png" width="153.00" height="25.00" transform="matrix(1.00, 0.00, -0.00, -1.00, 284.0, 186.0)"></image><g><clipPath id="clip0x7fce07e5af90"><path d="M 273.5 76.8 L 448.4 76.8 L 448.4 242.0 L 273.5 242.0 Z M 273.5 76.8 "></path></clipPath><g clip-path="url(#clip0x7fce07e5af90)"><text xml:space="preserve" font-family="GillSans,Gill Sans" font-size="26.0" fill="#FEFFFF" transform="matrix(1.00, 0.00, -0.00, -1.00, 286.2, 165.8)">c</text><text xml:space="preserve" font-family="GillSans,Gill Sans" font-size="26.0" fill="#FEFFFF" transform="matrix(1.00, 0.00, -0.00, -1.00, 297.6, 165.8)">o</text><text xml:space="preserve" font-family="GillSans,Gill Sans" font-size="26.0" fill="#FEFFFF" transform="matrix(1.00, 0.00, -0.00, -1.00, 312.0, 165.8)">n</text><text xml:space="preserve" font-family="GillSans,Gill Sans" font-size="26.0" fill="#FEFFFF" transform="matrix(1.00, 0.00, -0.00, -1.00, 325.0, 165.8)">d</text><text xml:space="preserve" font-family="GillSans,Gill Sans" font-size="26.0" fill="#FEFFFF" transform="matrix(1.00, 0.00, -0.00, -1.00, 338.2, 165.8)">e</text><text xml:space="preserve" font-family="GillSans,Gill Sans" font-size="26.0" fill="#FEFFFF" transform="matrix(1.00, 0.00, -0.00, -1.00, 350.7, 165.8)">n</text><text xml:space="preserve" font-family="GillSans,Gill Sans" font-size="26.0" fill="#FEFFFF" transform="matrix(1.00, 0.00, -0.00, -1.00, 363.7, 165.8)">s</text><text xml:space="preserve" font-family="GillSans,Gill Sans" font-size="26.0" fill="#FEFFFF" transform="matrix(1.00, 0.00, -0.00, -1.00, 373.7, 165.8)">a</text><text xml:space="preserve" font-family="GillSans,Gill Sans" font-size="26.0" fill="#FEFFFF" transform="matrix(1.00, 0.00, -0.00, -1.00, 384.7, 165.8)">t</text><text xml:space="preserve" font-family="GillSans,Gill Sans" font-size="26.0" fill="#FEFFFF" transform="matrix(1.00, 0.00, -0.00, -1.00, 393.4, 165.8)">i</text><text xml:space="preserve" font-family="GillSans,Gill Sans" font-size="26.0" fill="#FEFFFF" transform="matrix(1.00, 0.00, -0.00, -1.00, 399.1, 165.8)">o</text><text xml:space="preserve" font-family="GillSans,Gill Sans" font-size="26.0" fill="#FEFFFF" transform="matrix(1.00, 0.00, -0.00, -1.00, 413.5, 165.8)">n</text><text xml:space="preserve" font-family="GillSans,Gill Sans" font-size="26.0" fill="#FEFFFF" transform="matrix(1.00, 0.00, -0.00, -1.00, 426.5, 165.8)">/</text></g></g><image xlink:href="../../20E8EA6F-8E00-4914-833F-453FAE20F390/assets/ED344B520319B2C02BFB590E39A53BB4.png" width="129.00" height="30.00" transform="matrix(1.00, 0.00, -0.00, -1.00, 295.0, 155.0)"></image><g><clipPath id="clip0x7fce07e623d0"><path d="M 273.5 76.8 L 448.4 76.8 L 448.4 242.0 L 273.5 242.0 Z M 273.5 76.8 "></path></clipPath><g clip-path="url(#clip0x7fce07e623d0)"><text xml:space="preserve" font-family="GillSans,Gill Sans" font-size="26.0" fill="#FEFFFF" transform="matrix(1.00, 0.00, -0.00, -1.00, 297.6, 135.8)">e</text><text xml:space="preserve" font-family="GillSans,Gill Sans" font-size="26.0" fill="#FEFFFF" transform="matrix(1.00, 0.00, -0.00, -1.00, 309.7, 135.8)">v</text><text xml:space="preserve" font-family="GillSans,Gill Sans" font-size="26.0" fill="#FEFFFF" transform="matrix(1.00, 0.00, -0.00, -1.00, 321.1, 135.8)">a</text><text xml:space="preserve" font-family="GillSans,Gill Sans" font-size="26.0" fill="#FEFFFF" transform="matrix(1.00, 0.00, -0.00, -1.00, 331.9, 135.8)">p</text><text xml:space="preserve" font-family="GillSans,Gill Sans" font-size="26.0" fill="#FEFFFF" transform="matrix(1.00, 0.00, -0.00, -1.00, 344.9, 135.8)">o</text><text xml:space="preserve" font-family="GillSans,Gill Sans" font-size="26.0" fill="#FEFFFF" transform="matrix(1.00, 0.00, -0.00, -1.00, 359.3, 135.8)">r</text><text xml:space="preserve" font-family="GillSans,Gill Sans" font-size="26.0" fill="#FEFFFF" transform="matrix(1.00, 0.00, -0.00, -1.00, 369.6, 135.8)">a</text><text xml:space="preserve" font-family="GillSans,Gill Sans" font-size="26.0" fill="#FEFFFF" transform="matrix(1.00, 0.00, -0.00, -1.00, 380.6, 135.8)">t</text><text xml:space="preserve" font-family="GillSans,Gill Sans" font-size="26.0" fill="#FEFFFF" transform="matrix(1.00, 0.00, -0.00, -1.00, 389.3, 135.8)">i</text><text xml:space="preserve" font-family="GillSans,Gill Sans" font-size="26.0" fill="#FEFFFF" transform="matrix(1.00, 0.00, -0.00, -1.00, 395.0, 135.8)">o</text><text xml:space="preserve" font-family="GillSans,Gill Sans" font-size="26.0" fill="#FEFFFF" transform="matrix(1.00, 0.00, -0.00, -1.00, 409.3, 135.8)">n</text></g></g><image xlink:href="../../A94295E2-8EDF-4A7D-9C61-E7E544C51C3D/assets/2F71F36FD360BA904BAC24463BC8923A.png" width="171.00" height="171.00" transform="matrix(1.00, 0.00, -0.00, -1.00, 473.4, 243.0)" opacity="0.50"></image><g><clipPath id="clip0x7fce07e684d0"><path d="M 476.4 101.6 L 476.0 217.2 C 476.0 230.9 487.5 242.0 501.2 242.0 L 616.8 242.0 C 630.5 242.0 642.0 230.9 642.0 217.2 L 642.0 101.6 C 642.0 87.9 630.5 77.0 616.8 77.0 L 501.2 77.0 C 487.5 77.0 476.4 87.9 476.4 101.6 Z M 476.4 101.6 "></path></clipPath><g clip-path="url(#clip0x7fce07e684d0)"><path d="M 476.4 101.6 L 476.0 217.2 C 476.0 230.9 487.5 242.0 501.2 242.0 L 616.8 242.0 C 630.5 242.0 642.0 230.9 642.0 217.2 L 642.0 101.6 C 642.0 87.9 630.5 77.0 616.8 77.0 L 501.2 77.0 C 487.5 77.0 476.4 87.9 476.4 101.6 Z M 476.4 101.6 " fill="url(#gradSh2.47)"></path></g></g><image xlink:href="../../A94295E2-8EDF-4A7D-9C61-E7E544C51C3D/assets/AEED656DD18D14C84C87AB1822E62451.png" width="123.00" height="25.00" transform="matrix(1.00, 0.00, -0.00, -1.00, 497.0, 171.0)"></image><g><clipPath id="clip0x7fce07eba150"><path d="M 470.0 76.8 L 648.0 76.8 L 648.0 242.0 L 470.0 242.0 Z M 470.0 76.8 "></path></clipPath><g clip-path="url(#clip0x7fce07eba150)"><text xml:space="preserve" font-family="GillSans,Gill Sans" font-size="26.0" fill="#FEFFFF" transform="matrix(1.00, 0.00, -0.00, -1.00, 500.0, 150.8)">c</text><text xml:space="preserve" font-family="GillSans,Gill Sans" font-size="26.0" fill="#FEFFFF" transform="matrix(1.00, 0.00, -0.00, -1.00, 511.3, 150.8)">o</text><text xml:space="preserve" font-family="GillSans,Gill Sans" font-size="26.0" fill="#FEFFFF" transform="matrix(1.00, 0.00, -0.00, -1.00, 525.7, 150.8)">n</text><text xml:space="preserve" font-family="GillSans,Gill Sans" font-size="26.0" fill="#FEFFFF" transform="matrix(1.00, 0.00, -0.00, -1.00, 538.7, 150.8)">d</text><text xml:space="preserve" font-family="GillSans,Gill Sans" font-size="26.0" fill="#FEFFFF" transform="matrix(1.00, 0.00, -0.00, -1.00, 551.9, 150.8)">u</text><text xml:space="preserve" font-family="GillSans,Gill Sans" font-size="26.0" fill="#FEFFFF" transform="matrix(1.00, 0.00, -0.00, -1.00, 564.9, 150.8)">c</text><text xml:space="preserve" font-family="GillSans,Gill Sans" font-size="26.0" fill="#FEFFFF" transform="matrix(1.00, 0.00, -0.00, -1.00, 576.3, 150.8)">t</text><text xml:space="preserve" font-family="GillSans,Gill Sans" font-size="26.0" fill="#FEFFFF" transform="matrix(1.00, 0.00, -0.00, -1.00, 585.0, 150.8)">i</text><text xml:space="preserve" font-family="GillSans,Gill Sans" font-size="26.0" fill="#FEFFFF" transform="matrix(1.00, 0.00, -0.00, -1.00, 590.7, 150.8)">o</text><text xml:space="preserve" font-family="GillSans,Gill Sans" font-size="26.0" fill="#FEFFFF" transform="matrix(1.00, 0.00, -0.00, -1.00, 605.0, 150.8)">n</text></g></g></g></svg>