<?xml version="1.0" encoding="UTF-8" standalone="no"?><svg xmlns="http://www.w3.org/2000/svg" xmlns:xlink="http://www.w3.org/1999/xlink" clip-rule="evenodd" stroke-miterlimit="10" viewBox="0 0 1024 768"><desc>SVG generated by Keynote</desc><defs></defs><g transform="matrix(1.00, 0.00, -0.00, -1.00, 0.0, 768.0)"><path d="M 0.0 768.0 L 1024.0 768.0 L 1024.0 0.0 L 0.0 0.0 Z M 0.0 768.0 " fill="#FEFFFF"></path><text xml:space="preserve" font-family="GillSans,Gill Sans" font-size="42.0" fill="#E22400" transform="matrix(1.00, 0.00, -0.00, -1.00, 186.4, 720.7)">P</text><text xml:space="preserve" font-family="GillSans,Gill Sans" font-size="42.0" fill="#E22400" transform="matrix(1.00, 0.00, -0.00, -1.00, 207.8, 720.7)">a</text><text xml:space="preserve" font-family="GillSans,Gill Sans" font-size="42.0" fill="#E22400" transform="matrix(1.00, 0.00, -0.00, -1.00, 225.7, 720.7)">r</text><text xml:space="preserve" font-family="GillSans,Gill Sans" font-size="42.0" fill="#E22400" transform="matrix(1.00, 0.00, -0.00, -1.00, 241.5, 720.7)">e</text><text xml:space="preserve" font-family="GillSans,Gill Sans" font-size="42.0" fill="#E22400" transform="matrix(1.00, 0.00, -0.00, -1.00, 261.6, 720.7)">n</text><text xml:space="preserve" font-family="GillSans,Gill Sans" font-size="42.0" fill="#E22400" transform="matrix(1.00, 0.00, -0.00, -1.00, 282.6, 720.7)">t</text><text xml:space="preserve" font-family="GillSans,Gill Sans" font-size="42.0" fill="#E22400" transform="matrix(1.00, 0.00, -0.00, -1.00, 296.6, 720.7)">s</text><text xml:space="preserve" font-family="GillSans,Gill Sans" font-size="42.0" fill="#E22400" transform="matrix(1.00, 0.00, -0.00, -1.00, 397.7, 720.7)">G</text><text xml:space="preserve" font-family="GillSans,Gill Sans" font-size="42.0" fill="#E22400" transform="matrix(1.00, 0.00, -0.00, -1.00, 428.8, 720.7)">a</text><text xml:space="preserve" font-family="GillSans,Gill Sans" font-size="42.0" fill="#E22400" transform="matrix(1.00, 0.00, -0.00, -1.00, 446.7, 720.7)">m</text><text xml:space="preserve" font-family="GillSans,Gill Sans" font-size="42.0" fill="#E22400" transform="matrix(1.00, 0.00, -0.00, -1.00, 479.1, 720.7)">e</text><text xml:space="preserve" font-family="GillSans,Gill Sans" font-size="42.0" fill="#E22400" transform="matrix(1.00, 0.00, -0.00, -1.00, 499.2, 720.7)">t</text><text xml:space="preserve" font-family="GillSans,Gill Sans" font-size="42.0" fill="#E22400" transform="matrix(1.00, 0.00, -0.00, -1.00, 513.2, 720.7)">e</text><text xml:space="preserve" font-family="GillSans,Gill Sans" font-size="42.0" fill="#E22400" transform="matrix(1.00, 0.00, -0.00, -1.00, 533.3, 720.7)">s</text></g></svg>