<?xml version="1.0" encoding="UTF-8" standalone="no"?><svg xmlns="http://www.w3.org/2000/svg" xmlns:xlink="http://www.w3.org/1999/xlink" clip-rule="evenodd" stroke-miterlimit="10" viewBox="0 0 720 540"><desc>SVG generated by Keynote</desc><defs></defs><g transform="matrix(1.00, 0.00, -0.00, -1.00, 0.0, 540.0)"><path d="M 0.0 540.0 L 720.0 540.0 L 720.0 0.0 L 0.0 0.0 Z M 0.0 540.0 " fill="#FEFFFF"></path><path d="M 0.5 101.5 L 720.5 101.5 L 720.5 -0.5 L 0.5 -0.5 Z M 0.0 102.0 " fill="#AB4500"></path><path d="M 0.5 0.5 L 720.5 0.5 L 720.5 102.5 L 0.5 102.5 Z M 0.0 0.0 " fill="none" stroke="#000000" stroke-width="1.00" stroke-linejoin="round" transform="matrix(1.00, 0.00, 0.00, -1.00, 0.0, 102.0)"></path><g><clipPath id="clip0x7fce05e85660"><path d="M 240.0 127.0 L 498.0 127.0 L 498.0 300.0 L 240.0 300.0 Z M 240.0 127.0 "></path></clipPath><g clip-path="url(#clip0x7fce05e85660)"><path d="M 240.0 300.0 L 498.0 300.0 L 498.0 127.0 L 240.0 127.0 Z M 240.0 300.0 " fill="#FFFFFF"></path><image xlink:href="../../20DFFD47-D2F4-429B-8B89-FD0CE749FC6B/assets/6FAE0BA32A84D57C070D54F70EC52139.png" width="640.00" height="428.00" transform="matrix(0.40, 0.00, -0.00, -0.40, 240.0, 300.0)"></image></g></g><path d="M 54.0 0.0 L 13.6 31.4 L 11.2 33.3 " fill="none" stroke="#000000" stroke-width="6.00" stroke-linejoin="round" transform="matrix(1.00, 0.00, 0.00, -1.00, 270.0, 126.0)"></path><path d="M 288.9 87.8 L 270.0 84.0 L 278.3 101.3 Z M 288.9 87.8 " fill="#000000"></path><path d="M 54.0 0.0 L 13.6 31.4 L 11.2 33.3 " fill="none" stroke="#000000" stroke-width="6.00" stroke-linejoin="round" transform="matrix(1.00, 0.00, 0.00, -1.00, 318.0, 126.0)"></path><path d="M 336.9 87.8 L 318.0 84.0 L 326.3 101.3 Z M 336.9 87.8 " fill="#000000"></path><path d="M 54.0 0.0 L 13.6 31.4 L 11.2 33.3 " fill="none" stroke="#000000" stroke-width="6.00" stroke-linejoin="round" transform="matrix(1.00, 0.00, 0.00, -1.00, 294.0, 126.0)"></path><path d="M 312.9 87.8 L 294.0 84.0 L 302.3 101.3 Z M 312.9 87.8 " fill="#000000"></path><path d="M 0.0 54.0 L 0.0 0.0 " fill="none" stroke="#000000" stroke-width="6.00" stroke-linejoin="round" transform="matrix(1.00, 0.00, 0.00, -1.00, 372.0, 126.0)"></path><path d="M 0.0 54.0 L 0.0 0.0 " fill="none" stroke="#000000" stroke-width="6.00" stroke-linejoin="round" transform="matrix(1.00, 0.00, 0.00, -1.00, 348.0, 126.0)"></path><path d="M 0.0 54.0 L 0.0 0.0 " fill="none" stroke="#000000" stroke-width="6.00" stroke-linejoin="round" transform="matrix(1.00, 0.00, 0.00, -1.00, 324.0, 126.0)"></path></g></svg>