<?xml version="1.0" encoding="UTF-8" standalone="no"?><svg xmlns="http://www.w3.org/2000/svg" xmlns:xlink="http://www.w3.org/1999/xlink" clip-rule="evenodd" stroke-miterlimit="10" viewBox="0 0 720 540"><desc>SVG generated by Keynote</desc><defs></defs><g transform="matrix(1.00, 0.00, -0.00, -1.00, 0.0, 540.0)"><path d="M 0.0 540.0 L 720.0 540.0 L 720.0 0.0 L 0.0 0.0 Z M 0.0 540.0 " fill="#FEFFFF"></path><text xml:space="preserve" font-family="ArialMT,Arial" font-size="12.0" fill="#000000" transform="matrix(1.00, 0.00, -0.00, -1.00, 584.3, 32.9)">9</text><text xml:space="preserve" font-family="ArialMT,Arial" font-size="12.0" fill="#000000" transform="matrix(1.00, 0.00, -0.00, -1.00, 591.0, 32.9)">7</text><image xlink:href="6AA198215269CED630290648E1366052.png" width="772.00" height="540.00" transform="matrix(0.93, 0.00, -0.00, -0.93, 0.0, 503.0)"></image><text xml:space="preserve" font-family="ArialMT,Arial" font-size="22.0" fill="#000000" transform="matrix(1.00, 0.00, -0.00, -1.00, 314.2, 515.4)">D</text><text xml:space="preserve" font-family="ArialMT,Arial" font-size="22.0" fill="#000000" transform="matrix(1.00, 0.00, -0.00, -1.00, 330.1, 515.4)">e</text><text xml:space="preserve" font-family="ArialMT,Arial" font-size="22.0" fill="#000000" transform="matrix(1.00, 0.00, -0.00, -1.00, 342.3, 515.4)">v</text><text xml:space="preserve" font-family="ArialMT,Arial" font-size="22.0" fill="#000000" transform="matrix(1.00, 0.00, -0.00, -1.00, 353.3, 515.4)">o</text><text xml:space="preserve" font-family="ArialMT,Arial" font-size="22.0" fill="#000000" transform="matrix(1.00, 0.00, -0.00, -1.00, 365.6, 515.4)">n</text><text xml:space="preserve" font-family="ArialMT,Arial" font-size="22.0" fill="#000000" transform="matrix(1.00, 0.00, -0.00, -1.00, 377.8, 515.4)">i</text><text xml:space="preserve" font-family="ArialMT,Arial" font-size="22.0" fill="#000000" transform="matrix(1.00, 0.00, -0.00, -1.00, 382.7, 515.4)">a</text><text xml:space="preserve" font-family="ArialMT,Arial" font-size="22.0" fill="#000000" transform="matrix(1.00, 0.00, -0.00, -1.00, 394.9, 515.4)">n</text></g></svg>