<?xml version="1.0" encoding="UTF-8" standalone="no"?><svg xmlns="http://www.w3.org/2000/svg" xmlns:xlink="http://www.w3.org/1999/xlink" clip-rule="evenodd" stroke-miterlimit="4.00" viewBox="0 0 669 39"><desc>SVG generated by Keynote</desc><defs></defs><g transform="matrix(1.00, 0.00, -0.00, -1.00, 0.0, 39.0)"><text xml:space="preserve" font-family="ArialNarrow" font-size="32.0" fill="#000000" transform="matrix(1.00, 0.00, -0.00, -1.00, 0.7, 9.0)">2</text><text xml:space="preserve" font-family="ArialNarrow" font-size="32.0" fill="#000000" transform="matrix(1.00, 0.00, -0.00, -1.00, 15.3, 9.0)">)</text><text xml:space="preserve" font-family="ArialNarrow" font-size="32.0" fill="#000000" transform="matrix(1.00, 0.00, -0.00, -1.00, 49.0, 9.0)">E</text><text xml:space="preserve" font-family="ArialNarrow" font-size="32.0" fill="#000000" transform="matrix(1.00, 0.00, -0.00, -1.00, 66.5, 9.0)">n</text><text xml:space="preserve" font-family="ArialNarrow" font-size="32.0" fill="#000000" transform="matrix(1.00, 0.00, -0.00, -1.00, 81.1, 9.0)">v</text><text xml:space="preserve" font-family="ArialNarrow" font-size="32.0" fill="#000000" transform="matrix(1.00, 0.00, -0.00, -1.00, 94.2, 9.0)">i</text><text xml:space="preserve" font-family="ArialNarrow" font-size="32.0" fill="#000000" transform="matrix(1.00, 0.00, -0.00, -1.00, 100.1, 9.0)">r</text><text xml:space="preserve" font-family="ArialNarrow" font-size="32.0" fill="#000000" transform="matrix(1.00, 0.00, -0.00, -1.00, 108.8, 9.0)">o</text><text xml:space="preserve" font-family="ArialNarrow" font-size="32.0" fill="#000000" transform="matrix(1.00, 0.00, -0.00, -1.00, 123.4, 9.0)">n</text><text xml:space="preserve" font-family="ArialNarrow" font-size="32.0" fill="#000000" transform="matrix(1.00, 0.00, -0.00, -1.00, 138.0, 9.0)">m</text><text xml:space="preserve" font-family="ArialNarrow" font-size="32.0" fill="#000000" transform="matrix(1.00, 0.00, -0.00, -1.00, 159.8, 9.0)">e</text><text xml:space="preserve" font-family="ArialNarrow" font-size="32.0" fill="#000000" transform="matrix(1.00, 0.00, -0.00, -1.00, 174.4, 9.0)">n</text><text xml:space="preserve" font-family="ArialNarrow" font-size="32.0" fill="#000000" transform="matrix(1.00, 0.00, -0.00, -1.00, 189.0, 9.0)">t</text><text xml:space="preserve" font-family="ArialNarrow" font-size="32.0" fill="#000000" transform="matrix(1.00, 0.00, -0.00, -1.00, 196.3, 9.0)"> </text><text xml:space="preserve" font-family="ArialNarrow" font-size="32.0" fill="#000000" transform="matrix(1.00, 0.00, -0.00, -1.00, 203.6, 9.0)">h</text><text xml:space="preserve" font-family="ArialNarrow" font-size="32.0" fill="#000000" transform="matrix(1.00, 0.00, -0.00, -1.00, 218.2, 9.0)">a</text><text xml:space="preserve" font-family="ArialNarrow" font-size="32.0" fill="#000000" transform="matrix(1.00, 0.00, -0.00, -1.00, 232.8, 9.0)">s</text><text xml:space="preserve" font-family="ArialNarrow" font-size="32.0" fill="#000000" transform="matrix(1.00, 0.00, -0.00, -1.00, 246.0, 9.0)"> </text><text xml:space="preserve" font-family="ArialNarrow" font-size="32.0" fill="#000000" transform="matrix(1.00, 0.00, -0.00, -1.00, 253.3, 9.0)">c</text><text xml:space="preserve" font-family="ArialNarrow" font-size="32.0" fill="#000000" transform="matrix(1.00, 0.00, -0.00, -1.00, 266.4, 9.0)">h</text><text xml:space="preserve" font-family="ArialNarrow" font-size="32.0" fill="#000000" transform="matrix(1.00, 0.00, -0.00, -1.00, 281.0, 9.0)">a</text><text xml:space="preserve" font-family="ArialNarrow" font-size="32.0" fill="#000000" transform="matrix(1.00, 0.00, -0.00, -1.00, 295.6, 9.0)">n</text><text xml:space="preserve" font-family="ArialNarrow" font-size="32.0" fill="#000000" transform="matrix(1.00, 0.00, -0.00, -1.00, 310.2, 9.0)">g</text><text xml:space="preserve" font-family="ArialNarrow" font-size="32.0" fill="#000000" transform="matrix(1.00, 0.00, -0.00, -1.00, 324.8, 9.0)">e</text><text xml:space="preserve" font-family="ArialNarrow" font-size="32.0" fill="#000000" transform="matrix(1.00, 0.00, -0.00, -1.00, 339.4, 9.0)">d</text><text xml:space="preserve" font-family="ArialNarrow" font-size="32.0" fill="#000000" transform="matrix(1.00, 0.00, -0.00, -1.00, 354.0, 9.0)"> </text><text xml:space="preserve" font-family="ArialNarrow" font-size="32.0" fill="#000000" transform="matrix(1.00, 0.00, -0.00, -1.00, 361.3, 9.0)">(</text><text xml:space="preserve" font-family="ArialNarrow" font-size="32.0" fill="#000000" transform="matrix(1.00, 0.00, -0.00, -1.00, 370.0, 9.0)">d</text><text xml:space="preserve" font-family="ArialNarrow" font-size="32.0" fill="#000000" transform="matrix(1.00, 0.00, -0.00, -1.00, 384.6, 9.0)">i</text><text xml:space="preserve" font-family="ArialNarrow" font-size="32.0" fill="#000000" transform="matrix(1.00, 0.00, -0.00, -1.00, 390.4, 9.0)">s</text><text xml:space="preserve" font-family="ArialNarrow" font-size="32.0" fill="#000000" transform="matrix(1.00, 0.00, -0.00, -1.00, 403.6, 9.0)">e</text><text xml:space="preserve" font-family="ArialNarrow" font-size="32.0" fill="#000000" transform="matrix(1.00, 0.00, -0.00, -1.00, 418.2, 9.0)">a</text><text xml:space="preserve" font-family="ArialNarrow" font-size="32.0" fill="#000000" transform="matrix(1.00, 0.00, -0.00, -1.00, 432.7, 9.0)">s</text><text xml:space="preserve" font-family="ArialNarrow" font-size="32.0" fill="#000000" transform="matrix(1.00, 0.00, -0.00, -1.00, 445.9, 9.0)">e</text><text xml:space="preserve" font-family="ArialNarrow" font-size="32.0" fill="#000000" transform="matrix(1.00, 0.00, -0.00, -1.00, 460.5, 9.0)"> </text><text xml:space="preserve" font-family="ArialNarrow" font-size="32.0" fill="#000000" transform="matrix(1.00, 0.00, -0.00, -1.00, 467.8, 9.0)">i</text><text xml:space="preserve" font-family="ArialNarrow" font-size="32.0" fill="#000000" transform="matrix(1.00, 0.00, -0.00, -1.00, 473.6, 9.0)">s</text><text xml:space="preserve" font-family="ArialNarrow" font-size="32.0" fill="#000000" transform="matrix(1.00, 0.00, -0.00, -1.00, 486.7, 9.0)"> </text><text xml:space="preserve" font-family="ArialNarrow" font-size="32.0" fill="#000000" transform="matrix(1.00, 0.00, -0.00, -1.00, 494.0, 9.0)">o</text><text xml:space="preserve" font-family="ArialNarrow" font-size="32.0" fill="#000000" transform="matrix(1.00, 0.00, -0.00, -1.00, 508.6, 9.0)">l</text><text xml:space="preserve" font-family="ArialNarrow" font-size="32.0" fill="#000000" transform="matrix(1.00, 0.00, -0.00, -1.00, 514.5, 9.0)">d</text><text xml:space="preserve" font-family="ArialNarrow" font-size="32.0" fill="#000000" transform="matrix(1.00, 0.00, -0.00, -1.00, 529.1, 9.0)">;</text><text xml:space="preserve" font-family="ArialNarrow" font-size="32.0" fill="#000000" transform="matrix(1.00, 0.00, -0.00, -1.00, 536.4, 9.0)"> </text><text xml:space="preserve" font-family="ArialNarrow" font-size="32.0" fill="#000000" transform="matrix(1.00, 0.00, -0.00, -1.00, 543.7, 9.0)">“</text><text xml:space="preserve" font-family="ArialNarrow" font-size="32.0" fill="#000000" transform="matrix(1.00, 0.00, -0.00, -1.00, 552.4, 9.0)">e</text><text xml:space="preserve" font-family="ArialNarrow" font-size="32.0" fill="#000000" transform="matrix(1.00, 0.00, -0.00, -1.00, 567.0, 9.0)">n</text><text xml:space="preserve" font-family="ArialNarrow" font-size="32.0" fill="#000000" transform="matrix(1.00, 0.00, -0.00, -1.00, 581.6, 9.0)">d</text><text xml:space="preserve" font-family="ArialNarrow" font-size="32.0" fill="#000000" transform="matrix(1.00, 0.00, -0.00, -1.00, 596.2, 9.0)">e</text><text xml:space="preserve" font-family="ArialNarrow" font-size="32.0" fill="#000000" transform="matrix(1.00, 0.00, -0.00, -1.00, 610.8, 9.0)">m</text><text xml:space="preserve" font-family="ArialNarrow" font-size="32.0" fill="#000000" transform="matrix(1.00, 0.00, -0.00, -1.00, 632.6, 9.0)">i</text><text xml:space="preserve" font-family="ArialNarrow" font-size="32.0" fill="#000000" transform="matrix(1.00, 0.00, -0.00, -1.00, 638.5, 9.0)">c</text><text xml:space="preserve" font-family="ArialNarrow" font-size="32.0" fill="#000000" transform="matrix(1.00, 0.00, -0.00, -1.00, 651.6, 9.0)">”</text><text xml:space="preserve" font-family="ArialNarrow" font-size="32.0" fill="#000000" transform="matrix(1.00, 0.00, -0.00, -1.00, 660.3, 9.0)">)</text></g></svg>