<?xml version="1.0" encoding="UTF-8" standalone="no"?><svg xmlns="http://www.w3.org/2000/svg" xmlns:xlink="http://www.w3.org/1999/xlink" clip-rule="evenodd" stroke-miterlimit="4.00" viewBox="0 0 762 42"><desc>SVG generated by Keynote</desc><defs></defs><g transform="matrix(1.00, 0.00, -0.00, -1.00, 0.0, 42.0)"><text xml:space="preserve" font-family="ArialNarrow" font-size="32.0" fill="#000000" transform="matrix(1.00, 0.00, -0.00, -1.00, 0.7, 9.1)">1</text><text xml:space="preserve" font-family="ArialNarrow" font-size="32.0" fill="#000000" transform="matrix(1.00, 0.00, -0.00, -1.00, 15.3, 9.1)">)</text><text xml:space="preserve" font-family="ArialNarrow" font-size="32.0" fill="#000000" transform="matrix(1.00, 0.00, -0.00, -1.00, 49.0, 9.0)">B</text><text xml:space="preserve" font-family="ArialNarrow" font-size="32.0" fill="#000000" transform="matrix(1.00, 0.00, -0.00, -1.00, 66.5, 9.0)">e</text><text xml:space="preserve" font-family="ArialNarrow" font-size="32.0" fill="#000000" transform="matrix(1.00, 0.00, -0.00, -1.00, 81.1, 9.0)">c</text><text xml:space="preserve" font-family="ArialNarrow" font-size="32.0" fill="#000000" transform="matrix(1.00, 0.00, -0.00, -1.00, 94.2, 9.0)">a</text><text xml:space="preserve" font-family="ArialNarrow" font-size="32.0" fill="#000000" transform="matrix(1.00, 0.00, -0.00, -1.00, 108.8, 9.0)">u</text><text xml:space="preserve" font-family="ArialNarrow" font-size="32.0" fill="#000000" transform="matrix(1.00, 0.00, -0.00, -1.00, 123.4, 9.0)">s</text><text xml:space="preserve" font-family="ArialNarrow" font-size="32.0" fill="#000000" transform="matrix(1.00, 0.00, -0.00, -1.00, 136.6, 9.0)">e</text><text xml:space="preserve" font-family="ArialNarrow" font-size="32.0" fill="#000000" transform="matrix(1.00, 0.00, -0.00, -1.00, 151.1, 9.0)"> </text><text xml:space="preserve" font-family="ArialNarrow" font-size="32.0" fill="#000000" transform="matrix(1.00, 0.00, -0.00, -1.00, 158.4, 9.0)">d</text><text xml:space="preserve" font-family="ArialNarrow" font-size="32.0" fill="#000000" transform="matrix(1.00, 0.00, -0.00, -1.00, 173.0, 9.0)">i</text><text xml:space="preserve" font-family="ArialNarrow" font-size="32.0" fill="#000000" transform="matrix(1.00, 0.00, -0.00, -1.00, 178.9, 9.0)">s</text><text xml:space="preserve" font-family="ArialNarrow" font-size="32.0" fill="#000000" transform="matrix(1.00, 0.00, -0.00, -1.00, 192.0, 9.0)">e</text><text xml:space="preserve" font-family="ArialNarrow" font-size="32.0" fill="#000000" transform="matrix(1.00, 0.00, -0.00, -1.00, 206.6, 9.0)">a</text><text xml:space="preserve" font-family="ArialNarrow" font-size="32.0" fill="#000000" transform="matrix(1.00, 0.00, -0.00, -1.00, 221.2, 9.0)">s</text><text xml:space="preserve" font-family="ArialNarrow" font-size="32.0" fill="#000000" transform="matrix(1.00, 0.00, -0.00, -1.00, 234.3, 9.0)">e</text><text xml:space="preserve" font-family="ArialNarrow" font-size="32.0" fill="#000000" transform="matrix(1.00, 0.00, -0.00, -1.00, 248.9, 9.0)"> </text><text xml:space="preserve" font-family="ArialNarrow" font-size="32.0" fill="#000000" transform="matrix(1.00, 0.00, -0.00, -1.00, 256.2, 9.0)">h</text><text xml:space="preserve" font-family="ArialNarrow" font-size="32.0" fill="#000000" transform="matrix(1.00, 0.00, -0.00, -1.00, 270.8, 9.0)">a</text><text xml:space="preserve" font-family="ArialNarrow" font-size="32.0" fill="#000000" transform="matrix(1.00, 0.00, -0.00, -1.00, 285.4, 9.0)">s</text><text xml:space="preserve" font-family="ArialNarrow" font-size="32.0" fill="#000000" transform="matrix(1.00, 0.00, -0.00, -1.00, 298.5, 9.0)"> </text><text xml:space="preserve" font-family="ArialNarrow" font-size="32.0" fill="#000000" transform="matrix(1.00, 0.00, -0.00, -1.00, 305.8, 9.0)">e</text><text xml:space="preserve" font-family="ArialNarrow" font-size="32.0" fill="#000000" transform="matrix(1.00, 0.00, -0.00, -1.00, 320.4, 9.0)">x</text><text xml:space="preserve" font-family="ArialNarrow" font-size="32.0" fill="#000000" transform="matrix(1.00, 0.00, -0.00, -1.00, 333.6, 9.0)">p</text><text xml:space="preserve" font-family="ArialNarrow" font-size="32.0" fill="#000000" transform="matrix(1.00, 0.00, -0.00, -1.00, 348.2, 9.0)">a</text><text xml:space="preserve" font-family="ArialNarrow" font-size="32.0" fill="#000000" transform="matrix(1.00, 0.00, -0.00, -1.00, 362.8, 9.0)">n</text><text xml:space="preserve" font-family="ArialNarrow" font-size="32.0" fill="#000000" transform="matrix(1.00, 0.00, -0.00, -1.00, 377.4, 9.0)">d</text><text xml:space="preserve" font-family="ArialNarrow" font-size="32.0" fill="#000000" transform="matrix(1.00, 0.00, -0.00, -1.00, 392.0, 9.0)">e</text><text xml:space="preserve" font-family="ArialNarrow" font-size="32.0" fill="#000000" transform="matrix(1.00, 0.00, -0.00, -1.00, 406.6, 9.0)">d</text><text xml:space="preserve" font-family="ArialNarrow" font-size="32.0" fill="#000000" transform="matrix(1.00, 0.00, -0.00, -1.00, 421.2, 9.0)"> </text><text xml:space="preserve" font-family="ArialNarrow" font-size="32.0" fill="#000000" transform="matrix(1.00, 0.00, -0.00, -1.00, 428.5, 9.0)">i</text><text xml:space="preserve" font-family="ArialNarrow" font-size="32.0" fill="#000000" transform="matrix(1.00, 0.00, -0.00, -1.00, 434.3, 9.0)">t</text><text xml:space="preserve" font-family="ArialNarrow" font-size="32.0" fill="#000000" transform="matrix(1.00, 0.00, -0.00, -1.00, 441.6, 9.0)">s</text><text xml:space="preserve" font-family="ArialNarrow" font-size="32.0" fill="#000000" transform="matrix(1.00, 0.00, -0.00, -1.00, 454.7, 9.0)"> </text><text xml:space="preserve" font-family="ArialNarrow" font-size="32.0" fill="#000000" transform="matrix(1.00, 0.00, -0.00, -1.00, 462.0, 9.0)">r</text><text xml:space="preserve" font-family="ArialNarrow" font-size="32.0" fill="#000000" transform="matrix(1.00, 0.00, -0.00, -1.00, 470.7, 9.0)">a</text><text xml:space="preserve" font-family="ArialNarrow" font-size="32.0" fill="#000000" transform="matrix(1.00, 0.00, -0.00, -1.00, 485.3, 9.0)">n</text><text xml:space="preserve" font-family="ArialNarrow" font-size="32.0" fill="#000000" transform="matrix(1.00, 0.00, -0.00, -1.00, 499.9, 9.0)">g</text><text xml:space="preserve" font-family="ArialNarrow" font-size="32.0" fill="#000000" transform="matrix(1.00, 0.00, -0.00, -1.00, 514.5, 9.0)">e</text><text xml:space="preserve" font-family="ArialNarrow" font-size="32.0" fill="#000000" transform="matrix(1.00, 0.00, -0.00, -1.00, 529.1, 9.0)"> </text><text xml:space="preserve" font-family="ArialNarrow" font-size="32.0" fill="#000000" transform="matrix(1.00, 0.00, -0.00, -1.00, 536.4, 9.0)">(</text><text xml:space="preserve" font-family="ArialNarrow" font-size="32.0" fill="#000000" transform="matrix(1.00, 0.00, -0.00, -1.00, 545.2, 9.0)">“</text><text xml:space="preserve" font-family="ArialNarrow" font-size="32.0" fill="#000000" transform="matrix(1.00, 0.00, -0.00, -1.00, 553.9, 9.0)">n</text><text xml:space="preserve" font-family="ArialNarrow" font-size="32.0" fill="#000000" transform="matrix(1.00, 0.00, -0.00, -1.00, 568.5, 9.0)">o</text><text xml:space="preserve" font-family="ArialNarrow" font-size="32.0" fill="#000000" transform="matrix(1.00, 0.00, -0.00, -1.00, 583.1, 9.0)">v</text><text xml:space="preserve" font-family="ArialNarrow" font-size="32.0" fill="#000000" transform="matrix(1.00, 0.00, -0.00, -1.00, 596.2, 9.0)">e</text><text xml:space="preserve" font-family="ArialNarrow" font-size="32.0" fill="#000000" transform="matrix(1.00, 0.00, -0.00, -1.00, 610.8, 9.0)">l</text><text xml:space="preserve" font-family="ArialNarrow" font-size="32.0" fill="#000000" transform="matrix(1.00, 0.00, -0.00, -1.00, 616.6, 9.0)">”</text><text xml:space="preserve" font-family="ArialNarrow" font-size="32.0" fill="#000000" transform="matrix(1.00, 0.00, -0.00, -1.00, 625.4, 9.0)">)</text><text xml:space="preserve" font-family="ArialNarrow" font-size="40.0" fill="#000000" transform="matrix(1.00, 0.00, -0.00, -1.00, 634.0, 9.0)"> </text><text xml:space="preserve" font-family="ArialNarrow" font-size="40.0" fill="#000000" transform="matrix(1.00, 0.00, -0.00, -1.00, 643.1, 9.0)"> </text><text xml:space="preserve" font-family="ArialNarrow" font-size="40.0" fill="#000000" transform="matrix(1.00, 0.00, -0.00, -1.00, 652.2, 9.0)"> </text><text xml:space="preserve" font-family="ArialNarrow" font-size="40.0" fill="#000000" transform="matrix(1.00, 0.00, -0.00, -1.00, 661.3, 9.0)"> </text><text xml:space="preserve" font-family="ArialNarrow" font-size="40.0" fill="#000000" transform="matrix(1.00, 0.00, -0.00, -1.00, 670.5, 9.0)"> </text><text xml:space="preserve" font-family="ArialNarrow" font-size="40.0" fill="#000000" transform="matrix(1.00, 0.00, -0.00, -1.00, 679.6, 9.0)"> </text><text xml:space="preserve" font-family="ArialNarrow" font-size="40.0" fill="#000000" transform="matrix(1.00, 0.00, -0.00, -1.00, 688.7, 9.0)"> </text><text xml:space="preserve" font-family="ArialNarrow" font-size="40.0" fill="#000000" transform="matrix(1.00, 0.00, -0.00, -1.00, 697.8, 9.0)"> </text><text xml:space="preserve" font-family="ArialNarrow" font-size="40.0" fill="#000000" transform="matrix(1.00, 0.00, -0.00, -1.00, 707.0, 9.0)"> </text><text xml:space="preserve" font-family="ArialNarrow" font-size="40.0" fill="#000000" transform="matrix(1.00, 0.00, -0.00, -1.00, 716.1, 9.0)"> </text><text xml:space="preserve" font-family="ArialNarrow" font-size="40.0" fill="#000000" transform="matrix(1.00, 0.00, -0.00, -1.00, 725.2, 9.0)"> </text><text xml:space="preserve" font-family="ArialNarrow" font-size="40.0" fill="#000000" transform="matrix(1.00, 0.00, -0.00, -1.00, 734.3, 9.0)"> </text><text xml:space="preserve" font-family="ArialNarrow" font-size="40.0" fill="#000000" transform="matrix(1.00, 0.00, -0.00, -1.00, 743.4, 9.0)"> </text><text xml:space="preserve" font-family="ArialNarrow" font-size="40.0" fill="#000000" transform="matrix(1.00, 0.00, -0.00, -1.00, 752.6, 9.0)"> </text><text xml:space="preserve" font-family="ArialNarrow" font-size="40.0" fill="#000000" transform="matrix(1.00, 0.00, -0.00, -1.00, 761.7, 9.0)"> </text></g></svg>