<?xml version="1.0" encoding="UTF-8" standalone="no"?><svg xmlns="http://www.w3.org/2000/svg" xmlns:xlink="http://www.w3.org/1999/xlink" clip-rule="evenodd" stroke-miterlimit="4.00" viewBox="0 0 720 540"><desc>SVG generated by Keynote</desc><defs></defs><g transform="matrix(1.00, 0.00, -0.00, -1.00, 0.0, 540.0)"><path d="M 0.0 540.0 L 720.0 540.0 L 720.0 0.0 L 0.0 0.0 Z M 0.0 540.0 " fill="#FEFFFF"></path><text xml:space="preserve" font-family="ArialNarrow" font-size="40.0" fill="#000000" transform="matrix(1.00, 0.00, -0.00, -1.00, 71.0, 482.0)">E</text><text xml:space="preserve" font-family="ArialNarrow" font-size="40.0" fill="#000000" transform="matrix(1.00, 0.00, -0.00, -1.00, 92.9, 482.0)">m</text><text xml:space="preserve" font-family="ArialNarrow" font-size="40.0" fill="#000000" transform="matrix(1.00, 0.00, -0.00, -1.00, 120.2, 482.0)">e</text><text xml:space="preserve" font-family="ArialNarrow" font-size="40.0" fill="#000000" transform="matrix(1.00, 0.00, -0.00, -1.00, 138.4, 482.0)">r</text><text xml:space="preserve" font-family="ArialNarrow" font-size="40.0" fill="#000000" transform="matrix(1.00, 0.00, -0.00, -1.00, 149.4, 482.0)">g</text><text xml:space="preserve" font-family="ArialNarrow" font-size="40.0" fill="#000000" transform="matrix(1.00, 0.00, -0.00, -1.00, 167.6, 482.0)">i</text><text xml:space="preserve" font-family="ArialNarrow" font-size="40.0" fill="#000000" transform="matrix(1.00, 0.00, -0.00, -1.00, 174.9, 482.0)">n</text><text xml:space="preserve" font-family="ArialNarrow" font-size="40.0" fill="#000000" transform="matrix(1.00, 0.00, -0.00, -1.00, 193.1, 482.0)">g</text><text xml:space="preserve" font-family="ArialNarrow" font-size="40.0" fill="#000000" transform="matrix(1.00, 0.00, -0.00, -1.00, 211.4, 482.0)"> </text><text xml:space="preserve" font-family="ArialNarrow" font-size="40.0" fill="#000000" transform="matrix(1.00, 0.00, -0.00, -1.00, 220.5, 482.0)">i</text><text xml:space="preserve" font-family="ArialNarrow" font-size="40.0" fill="#000000" transform="matrix(1.00, 0.00, -0.00, -1.00, 227.8, 482.0)">n</text><text xml:space="preserve" font-family="ArialNarrow" font-size="40.0" fill="#000000" transform="matrix(1.00, 0.00, -0.00, -1.00, 246.0, 482.0)">f</text><text xml:space="preserve" font-family="ArialNarrow" font-size="40.0" fill="#000000" transform="matrix(1.00, 0.00, -0.00, -1.00, 255.2, 482.0)">e</text><text xml:space="preserve" font-family="ArialNarrow" font-size="40.0" fill="#000000" transform="matrix(1.00, 0.00, -0.00, -1.00, 273.4, 482.0)">c</text><text xml:space="preserve" font-family="ArialNarrow" font-size="40.0" fill="#000000" transform="matrix(1.00, 0.00, -0.00, -1.00, 289.8, 482.0)">t</text><text xml:space="preserve" font-family="ArialNarrow" font-size="40.0" fill="#000000" transform="matrix(1.00, 0.00, -0.00, -1.00, 298.9, 482.0)">i</text><text xml:space="preserve" font-family="ArialNarrow" font-size="40.0" fill="#000000" transform="matrix(1.00, 0.00, -0.00, -1.00, 306.2, 482.0)">o</text><text xml:space="preserve" font-family="ArialNarrow" font-size="40.0" fill="#000000" transform="matrix(1.00, 0.00, -0.00, -1.00, 324.5, 482.0)">u</text><text xml:space="preserve" font-family="ArialNarrow" font-size="40.0" fill="#000000" transform="matrix(1.00, 0.00, -0.00, -1.00, 342.7, 482.0)">s</text><text xml:space="preserve" font-family="ArialNarrow" font-size="40.0" fill="#000000" transform="matrix(1.00, 0.00, -0.00, -1.00, 359.1, 482.0)"> </text><text xml:space="preserve" font-family="ArialNarrow" font-size="40.0" fill="#000000" transform="matrix(1.00, 0.00, -0.00, -1.00, 368.3, 482.0)">d</text><text xml:space="preserve" font-family="ArialNarrow" font-size="40.0" fill="#000000" transform="matrix(1.00, 0.00, -0.00, -1.00, 386.5, 482.0)">i</text><text xml:space="preserve" font-family="ArialNarrow" font-size="40.0" fill="#000000" transform="matrix(1.00, 0.00, -0.00, -1.00, 393.8, 482.0)">s</text><text xml:space="preserve" font-family="ArialNarrow" font-size="40.0" fill="#000000" transform="matrix(1.00, 0.00, -0.00, -1.00, 410.2, 482.0)">e</text><text xml:space="preserve" font-family="ArialNarrow" font-size="40.0" fill="#000000" transform="matrix(1.00, 0.00, -0.00, -1.00, 428.5, 482.0)">a</text><text xml:space="preserve" font-family="ArialNarrow" font-size="40.0" fill="#000000" transform="matrix(1.00, 0.00, -0.00, -1.00, 446.7, 482.0)">s</text><text xml:space="preserve" font-family="ArialNarrow" font-size="40.0" fill="#000000" transform="matrix(1.00, 0.00, -0.00, -1.00, 463.1, 482.0)">e</text><text xml:space="preserve" font-family="ArialNarrow" font-size="40.0" fill="#000000" transform="matrix(1.00, 0.00, -0.00, -1.00, 481.4, 482.0)">s</text><text xml:space="preserve" font-family="ArialNarrow" font-size="40.0" fill="#000000" transform="matrix(1.00, 0.00, -0.00, -1.00, 497.8, 482.0)">:</text><text xml:space="preserve" font-family="ArialNarrow" font-size="40.0" fill="#000000" transform="matrix(1.00, 0.00, -0.00, -1.00, 506.9, 482.0)"> </text><text xml:space="preserve" font-family="ArialNarrow" font-size="40.0" fill="#000000" transform="matrix(1.00, 0.00, -0.00, -1.00, 514.2, 482.0)">A</text><text xml:space="preserve" font-family="ArialNarrow" font-size="40.0" fill="#000000" transform="matrix(1.00, 0.00, -0.00, -1.00, 534.3, 482.0)"> </text><text xml:space="preserve" font-family="ArialNarrow" font-size="40.0" fill="#000000" transform="matrix(1.00, 0.00, -0.00, -1.00, 543.4, 482.0)">l</text><text xml:space="preserve" font-family="ArialNarrow" font-size="40.0" fill="#000000" transform="matrix(1.00, 0.00, -0.00, -1.00, 550.7, 482.0)">e</text><text xml:space="preserve" font-family="ArialNarrow" font-size="40.0" fill="#000000" transform="matrix(1.00, 0.00, -0.00, -1.00, 569.0, 482.0)">a</text><text xml:space="preserve" font-family="ArialNarrow" font-size="40.0" fill="#000000" transform="matrix(1.00, 0.00, -0.00, -1.00, 587.2, 482.0)">d</text><text xml:space="preserve" font-family="ArialNarrow" font-size="40.0" fill="#000000" transform="matrix(1.00, 0.00, -0.00, -1.00, 605.4, 482.0)">i</text><text xml:space="preserve" font-family="ArialNarrow" font-size="40.0" fill="#000000" transform="matrix(1.00, 0.00, -0.00, -1.00, 612.7, 482.0)">n</text><text xml:space="preserve" font-family="ArialNarrow" font-size="40.0" fill="#000000" transform="matrix(1.00, 0.00, -0.00, -1.00, 631.0, 482.0)">g</text><text xml:space="preserve" font-family="ArialNarrow" font-size="40.0" fill="#000000" transform="matrix(1.00, 0.00, -0.00, -1.00, 649.2, 482.0)"> </text><text xml:space="preserve" font-family="ArialNarrow" font-size="40.0" fill="#000000" transform="matrix(1.00, 0.00, -0.00, -1.00, 121.0, 437.0)">t</text><text xml:space="preserve" font-family="ArialNarrow" font-size="40.0" fill="#000000" transform="matrix(1.00, 0.00, -0.00, -1.00, 130.1, 437.0)">h</text><text xml:space="preserve" font-family="ArialNarrow" font-size="40.0" fill="#000000" transform="matrix(1.00, 0.00, -0.00, -1.00, 148.4, 437.0)">r</text><text xml:space="preserve" font-family="ArialNarrow" font-size="40.0" fill="#000000" transform="matrix(1.00, 0.00, -0.00, -1.00, 159.3, 437.0)">e</text><text xml:space="preserve" font-family="ArialNarrow" font-size="40.0" fill="#000000" transform="matrix(1.00, 0.00, -0.00, -1.00, 177.5, 437.0)">a</text><text xml:space="preserve" font-family="ArialNarrow" font-size="40.0" fill="#000000" transform="matrix(1.00, 0.00, -0.00, -1.00, 195.8, 437.0)">t</text><text xml:space="preserve" font-family="ArialNarrow" font-size="40.0" fill="#000000" transform="matrix(1.00, 0.00, -0.00, -1.00, 204.9, 437.0)"> </text><text xml:space="preserve" font-family="ArialNarrow" font-size="40.0" fill="#000000" transform="matrix(1.00, 0.00, -0.00, -1.00, 214.0, 437.0)">t</text><text xml:space="preserve" font-family="ArialNarrow" font-size="40.0" fill="#000000" transform="matrix(1.00, 0.00, -0.00, -1.00, 223.1, 437.0)">o</text><text xml:space="preserve" font-family="ArialNarrow" font-size="40.0" fill="#000000" transform="matrix(1.00, 0.00, -0.00, -1.00, 241.4, 437.0)"> </text><text xml:space="preserve" font-family="ArialNarrow" font-size="40.0" fill="#000000" transform="matrix(1.00, 0.00, -0.00, -1.00, 250.5, 437.0)">p</text><text xml:space="preserve" font-family="ArialNarrow" font-size="40.0" fill="#000000" transform="matrix(1.00, 0.00, -0.00, -1.00, 268.8, 437.0)">u</text><text xml:space="preserve" font-family="ArialNarrow" font-size="40.0" fill="#000000" transform="matrix(1.00, 0.00, -0.00, -1.00, 287.0, 437.0)">b</text><text xml:space="preserve" font-family="ArialNarrow" font-size="40.0" fill="#000000" transform="matrix(1.00, 0.00, -0.00, -1.00, 305.2, 437.0)">l</text><text xml:space="preserve" font-family="ArialNarrow" font-size="40.0" fill="#000000" transform="matrix(1.00, 0.00, -0.00, -1.00, 312.5, 437.0)">i</text><text xml:space="preserve" font-family="ArialNarrow" font-size="40.0" fill="#000000" transform="matrix(1.00, 0.00, -0.00, -1.00, 319.8, 437.0)">c</text><text xml:space="preserve" font-family="ArialNarrow" font-size="40.0" fill="#000000" transform="matrix(1.00, 0.00, -0.00, -1.00, 336.2, 437.0)"> </text><text xml:space="preserve" font-family="ArialNarrow" font-size="40.0" fill="#000000" transform="matrix(1.00, 0.00, -0.00, -1.00, 345.4, 437.0)">a</text><text xml:space="preserve" font-family="ArialNarrow" font-size="40.0" fill="#000000" transform="matrix(1.00, 0.00, -0.00, -1.00, 363.6, 437.0)">n</text><text xml:space="preserve" font-family="ArialNarrow" font-size="40.0" fill="#000000" transform="matrix(1.00, 0.00, -0.00, -1.00, 381.8, 437.0)">d</text><text xml:space="preserve" font-family="ArialNarrow" font-size="40.0" fill="#000000" transform="matrix(1.00, 0.00, -0.00, -1.00, 400.1, 437.0)"> </text><text xml:space="preserve" font-family="ArialNarrow" font-size="40.0" fill="#000000" transform="matrix(1.00, 0.00, -0.00, -1.00, 409.2, 437.0)">w</text><text xml:space="preserve" font-family="ArialNarrow" font-size="40.0" fill="#000000" transform="matrix(1.00, 0.00, -0.00, -1.00, 432.9, 437.0)">i</text><text xml:space="preserve" font-family="ArialNarrow" font-size="40.0" fill="#000000" transform="matrix(1.00, 0.00, -0.00, -1.00, 440.2, 437.0)">l</text><text xml:space="preserve" font-family="ArialNarrow" font-size="40.0" fill="#000000" transform="matrix(1.00, 0.00, -0.00, -1.00, 447.5, 437.0)">d</text><text xml:space="preserve" font-family="ArialNarrow" font-size="40.0" fill="#000000" transform="matrix(1.00, 0.00, -0.00, -1.00, 465.7, 437.0)">l</text><text xml:space="preserve" font-family="ArialNarrow" font-size="40.0" fill="#000000" transform="matrix(1.00, 0.00, -0.00, -1.00, 473.0, 437.0)">i</text><text xml:space="preserve" font-family="ArialNarrow" font-size="40.0" fill="#000000" transform="matrix(1.00, 0.00, -0.00, -1.00, 480.3, 437.0)">f</text><text xml:space="preserve" font-family="ArialNarrow" font-size="40.0" fill="#000000" transform="matrix(1.00, 0.00, -0.00, -1.00, 489.4, 437.0)">e</text><text xml:space="preserve" font-family="ArialNarrow" font-size="40.0" fill="#000000" transform="matrix(1.00, 0.00, -0.00, -1.00, 507.7, 437.0)"> </text><text xml:space="preserve" font-family="ArialNarrow" font-size="40.0" fill="#000000" transform="matrix(1.00, 0.00, -0.00, -1.00, 516.8, 437.0)">h</text><text xml:space="preserve" font-family="ArialNarrow" font-size="40.0" fill="#000000" transform="matrix(1.00, 0.00, -0.00, -1.00, 535.0, 437.0)">e</text><text xml:space="preserve" font-family="ArialNarrow" font-size="40.0" fill="#000000" transform="matrix(1.00, 0.00, -0.00, -1.00, 553.3, 437.0)">a</text><text xml:space="preserve" font-family="ArialNarrow" font-size="40.0" fill="#000000" transform="matrix(1.00, 0.00, -0.00, -1.00, 571.5, 437.0)">t</text><text xml:space="preserve" font-family="ArialNarrow" font-size="40.0" fill="#000000" transform="matrix(1.00, 0.00, -0.00, -1.00, 580.6, 437.0)">h</text><text xml:space="preserve" font-family="ArialNarrow" font-size="36.0" fill="#000000" transform="matrix(1.00, 0.00, -0.00, -1.00, 24.0, 357.0)">W</text><text xml:space="preserve" font-family="ArialNarrow" font-size="36.0" fill="#000000" transform="matrix(1.00, 0.00, -0.00, -1.00, 51.9, 357.0)">h</text><text xml:space="preserve" font-family="ArialNarrow" font-size="36.0" fill="#000000" transform="matrix(1.00, 0.00, -0.00, -1.00, 68.3, 357.0)">y</text><text xml:space="preserve" font-family="ArialNarrow" font-size="36.0" fill="#000000" transform="matrix(1.00, 0.00, -0.00, -1.00, 83.1, 357.0)"> </text><text xml:space="preserve" font-family="ArialNarrow" font-size="36.0" fill="#000000" transform="matrix(1.00, 0.00, -0.00, -1.00, 91.3, 357.0)">d</text><text xml:space="preserve" font-family="ArialNarrow" font-size="36.0" fill="#000000" transform="matrix(1.00, 0.00, -0.00, -1.00, 107.7, 357.0)">o</text><text xml:space="preserve" font-family="ArialNarrow" font-size="36.0" fill="#000000" transform="matrix(1.00, 0.00, -0.00, -1.00, 124.1, 357.0)"> </text><text xml:space="preserve" font-family="ArialNarrow" font-size="36.0" fill="#000000" transform="matrix(1.00, 0.00, -0.00, -1.00, 132.3, 357.0)">d</text><text xml:space="preserve" font-family="ArialNarrow" font-size="36.0" fill="#000000" transform="matrix(1.00, 0.00, -0.00, -1.00, 148.7, 357.0)">i</text><text xml:space="preserve" font-family="ArialNarrow" font-size="36.0" fill="#000000" transform="matrix(1.00, 0.00, -0.00, -1.00, 155.3, 357.0)">s</text><text xml:space="preserve" font-family="ArialNarrow" font-size="36.0" fill="#000000" transform="matrix(1.00, 0.00, -0.00, -1.00, 170.1, 357.0)">e</text><text xml:space="preserve" font-family="ArialNarrow" font-size="36.0" fill="#000000" transform="matrix(1.00, 0.00, -0.00, -1.00, 186.5, 357.0)">a</text><text xml:space="preserve" font-family="ArialNarrow" font-size="36.0" fill="#000000" transform="matrix(1.00, 0.00, -0.00, -1.00, 202.9, 357.0)">s</text><text xml:space="preserve" font-family="ArialNarrow" font-size="36.0" fill="#000000" transform="matrix(1.00, 0.00, -0.00, -1.00, 217.7, 357.0)">e</text><text xml:space="preserve" font-family="ArialNarrow" font-size="36.0" fill="#000000" transform="matrix(1.00, 0.00, -0.00, -1.00, 234.1, 357.0)">s</text><text xml:space="preserve" font-family="ArialNarrow" font-size="36.0" fill="#000000" transform="matrix(1.00, 0.00, -0.00, -1.00, 248.9, 357.0)"> </text><text xml:space="preserve" font-family="ArialNarrow" font-size="36.0" fill="#000000" transform="matrix(1.00, 0.00, -0.00, -1.00, 257.1, 357.0)">(</text><text xml:space="preserve" font-family="ArialNarrow" font-size="36.0" fill="#000000" transform="matrix(1.00, 0.00, -0.00, -1.00, 266.9, 357.0)">s</text><text xml:space="preserve" font-family="ArialNarrow" font-size="36.0" fill="#000000" transform="matrix(1.00, 0.00, -0.00, -1.00, 281.7, 357.0)">u</text><text xml:space="preserve" font-family="ArialNarrow" font-size="36.0" fill="#000000" transform="matrix(1.00, 0.00, -0.00, -1.00, 298.1, 357.0)">c</text><text xml:space="preserve" font-family="ArialNarrow" font-size="36.0" fill="#000000" transform="matrix(1.00, 0.00, -0.00, -1.00, 312.9, 357.0)">h</text><text xml:space="preserve" font-family="ArialNarrow" font-size="36.0" fill="#000000" transform="matrix(1.00, 0.00, -0.00, -1.00, 329.3, 357.0)"> </text><text xml:space="preserve" font-family="ArialNarrow" font-size="36.0" fill="#000000" transform="matrix(1.00, 0.00, -0.00, -1.00, 337.5, 357.0)">a</text><text xml:space="preserve" font-family="ArialNarrow" font-size="36.0" fill="#000000" transform="matrix(1.00, 0.00, -0.00, -1.00, 353.9, 357.0)">s</text><text xml:space="preserve" font-family="ArialNarrow" font-size="36.0" fill="#000000" transform="matrix(1.00, 0.00, -0.00, -1.00, 368.7, 357.0)"> </text><text xml:space="preserve" font-family="ArialNarrow" font-size="36.0" fill="#000000" transform="matrix(1.00, 0.00, -0.00, -1.00, 376.9, 357.0)">c</text><text xml:space="preserve" font-family="ArialNarrow" font-size="36.0" fill="#000000" transform="matrix(1.00, 0.00, -0.00, -1.00, 391.7, 357.0)">h</text><text xml:space="preserve" font-family="ArialNarrow" font-size="36.0" fill="#000000" transform="matrix(1.00, 0.00, -0.00, -1.00, 408.1, 357.0)">y</text><text xml:space="preserve" font-family="ArialNarrow" font-size="36.0" fill="#000000" transform="matrix(1.00, 0.00, -0.00, -1.00, 422.9, 357.0)">t</text><text xml:space="preserve" font-family="ArialNarrow" font-size="36.0" fill="#000000" transform="matrix(1.00, 0.00, -0.00, -1.00, 431.1, 357.0)">r</text><text xml:space="preserve" font-family="ArialNarrow" font-size="36.0" fill="#000000" transform="matrix(1.00, 0.00, -0.00, -1.00, 440.9, 357.0)">i</text><text xml:space="preserve" font-family="ArialNarrow" font-size="36.0" fill="#000000" transform="matrix(1.00, 0.00, -0.00, -1.00, 447.5, 357.0)">d</text><text xml:space="preserve" font-family="ArialNarrow" font-size="36.0" fill="#000000" transform="matrix(1.00, 0.00, -0.00, -1.00, 463.9, 357.0)">)</text><text xml:space="preserve" font-family="ArialNarrow" font-size="36.0" fill="#000000" transform="matrix(1.00, 0.00, -0.00, -1.00, 473.7, 357.0)"> </text><text xml:space="preserve" font-family="ArialNarrow" font-size="36.0" fill="#000000" transform="matrix(1.00, 0.00, -0.00, -1.00, 481.9, 357.0)">“</text><text xml:space="preserve" font-family="ArialNarrow" font-size="36.0" fill="#000000" transform="matrix(1.00, 0.00, -0.00, -1.00, 491.7, 357.0)">e</text><text xml:space="preserve" font-family="ArialNarrow" font-size="36.0" fill="#000000" transform="matrix(1.00, 0.00, -0.00, -1.00, 508.2, 357.0)">m</text><text xml:space="preserve" font-family="ArialNarrow" font-size="36.0" fill="#000000" transform="matrix(1.00, 0.00, -0.00, -1.00, 532.8, 357.0)">e</text><text xml:space="preserve" font-family="ArialNarrow" font-size="36.0" fill="#000000" transform="matrix(1.00, 0.00, -0.00, -1.00, 549.2, 357.0)">r</text><text xml:space="preserve" font-family="ArialNarrow" font-size="36.0" fill="#000000" transform="matrix(1.00, 0.00, -0.00, -1.00, 559.0, 357.0)">g</text><text xml:space="preserve" font-family="ArialNarrow" font-size="36.0" fill="#000000" transform="matrix(1.00, 0.00, -0.00, -1.00, 575.4, 357.0)">e</text><text xml:space="preserve" font-family="ArialNarrow" font-size="36.0" fill="#000000" transform="matrix(1.00, 0.00, -0.00, -1.00, 591.8, 357.0)">”</text><text xml:space="preserve" font-family="ArialNarrow" font-size="36.0" fill="#000000" transform="matrix(1.00, 0.00, -0.00, -1.00, 601.7, 357.0)">?</text><text xml:space="preserve" font-family="ArialNarrow" font-size="32.0" fill="#000000" transform="matrix(1.00, 0.00, -0.00, -1.00, 23.7, 255.1)">1</text><text xml:space="preserve" font-family="ArialNarrow" font-size="32.0" fill="#000000" transform="matrix(1.00, 0.00, -0.00, -1.00, 38.3, 255.1)">)</text><text xml:space="preserve" font-family="ArialNarrow" font-size="32.0" fill="#000000" transform="matrix(1.00, 0.00, -0.00, -1.00, 72.0, 255.0)">B</text><text xml:space="preserve" font-family="ArialNarrow" font-size="32.0" fill="#000000" transform="matrix(1.00, 0.00, -0.00, -1.00, 89.5, 255.0)">e</text><text xml:space="preserve" font-family="ArialNarrow" font-size="32.0" fill="#000000" transform="matrix(1.00, 0.00, -0.00, -1.00, 104.1, 255.0)">c</text><text xml:space="preserve" font-family="ArialNarrow" font-size="32.0" fill="#000000" transform="matrix(1.00, 0.00, -0.00, -1.00, 117.2, 255.0)">a</text><text xml:space="preserve" font-family="ArialNarrow" font-size="32.0" fill="#000000" transform="matrix(1.00, 0.00, -0.00, -1.00, 131.8, 255.0)">u</text><text xml:space="preserve" font-family="ArialNarrow" font-size="32.0" fill="#000000" transform="matrix(1.00, 0.00, -0.00, -1.00, 146.4, 255.0)">s</text><text xml:space="preserve" font-family="ArialNarrow" font-size="32.0" fill="#000000" transform="matrix(1.00, 0.00, -0.00, -1.00, 159.6, 255.0)">e</text><text xml:space="preserve" font-family="ArialNarrow" font-size="32.0" fill="#000000" transform="matrix(1.00, 0.00, -0.00, -1.00, 174.1, 255.0)"> </text><text xml:space="preserve" font-family="ArialNarrow" font-size="32.0" fill="#000000" transform="matrix(1.00, 0.00, -0.00, -1.00, 181.4, 255.0)">d</text><text xml:space="preserve" font-family="ArialNarrow" font-size="32.0" fill="#000000" transform="matrix(1.00, 0.00, -0.00, -1.00, 196.0, 255.0)">i</text><text xml:space="preserve" font-family="ArialNarrow" font-size="32.0" fill="#000000" transform="matrix(1.00, 0.00, -0.00, -1.00, 201.9, 255.0)">s</text><text xml:space="preserve" font-family="ArialNarrow" font-size="32.0" fill="#000000" transform="matrix(1.00, 0.00, -0.00, -1.00, 215.0, 255.0)">e</text><text xml:space="preserve" font-family="ArialNarrow" font-size="32.0" fill="#000000" transform="matrix(1.00, 0.00, -0.00, -1.00, 229.6, 255.0)">a</text><text xml:space="preserve" font-family="ArialNarrow" font-size="32.0" fill="#000000" transform="matrix(1.00, 0.00, -0.00, -1.00, 244.2, 255.0)">s</text><text xml:space="preserve" font-family="ArialNarrow" font-size="32.0" fill="#000000" transform="matrix(1.00, 0.00, -0.00, -1.00, 257.3, 255.0)">e</text><text xml:space="preserve" font-family="ArialNarrow" font-size="32.0" fill="#000000" transform="matrix(1.00, 0.00, -0.00, -1.00, 271.9, 255.0)"> </text><text xml:space="preserve" font-family="ArialNarrow" font-size="32.0" fill="#000000" transform="matrix(1.00, 0.00, -0.00, -1.00, 279.2, 255.0)">h</text><text xml:space="preserve" font-family="ArialNarrow" font-size="32.0" fill="#000000" transform="matrix(1.00, 0.00, -0.00, -1.00, 293.8, 255.0)">a</text><text xml:space="preserve" font-family="ArialNarrow" font-size="32.0" fill="#000000" transform="matrix(1.00, 0.00, -0.00, -1.00, 308.4, 255.0)">s</text><text xml:space="preserve" font-family="ArialNarrow" font-size="32.0" fill="#000000" transform="matrix(1.00, 0.00, -0.00, -1.00, 321.5, 255.0)"> </text><text xml:space="preserve" font-family="ArialNarrow" font-size="32.0" fill="#000000" transform="matrix(1.00, 0.00, -0.00, -1.00, 328.8, 255.0)">e</text><text xml:space="preserve" font-family="ArialNarrow" font-size="32.0" fill="#000000" transform="matrix(1.00, 0.00, -0.00, -1.00, 343.4, 255.0)">x</text><text xml:space="preserve" font-family="ArialNarrow" font-size="32.0" fill="#000000" transform="matrix(1.00, 0.00, -0.00, -1.00, 356.6, 255.0)">p</text><text xml:space="preserve" font-family="ArialNarrow" font-size="32.0" fill="#000000" transform="matrix(1.00, 0.00, -0.00, -1.00, 371.2, 255.0)">a</text><text xml:space="preserve" font-family="ArialNarrow" font-size="32.0" fill="#000000" transform="matrix(1.00, 0.00, -0.00, -1.00, 385.8, 255.0)">n</text><text xml:space="preserve" font-family="ArialNarrow" font-size="32.0" fill="#000000" transform="matrix(1.00, 0.00, -0.00, -1.00, 400.4, 255.0)">d</text><text xml:space="preserve" font-family="ArialNarrow" font-size="32.0" fill="#000000" transform="matrix(1.00, 0.00, -0.00, -1.00, 415.0, 255.0)">e</text><text xml:space="preserve" font-family="ArialNarrow" font-size="32.0" fill="#000000" transform="matrix(1.00, 0.00, -0.00, -1.00, 429.6, 255.0)">d</text><text xml:space="preserve" font-family="ArialNarrow" font-size="32.0" fill="#000000" transform="matrix(1.00, 0.00, -0.00, -1.00, 444.2, 255.0)"> </text><text xml:space="preserve" font-family="ArialNarrow" font-size="32.0" fill="#000000" transform="matrix(1.00, 0.00, -0.00, -1.00, 451.5, 255.0)">i</text><text xml:space="preserve" font-family="ArialNarrow" font-size="32.0" fill="#000000" transform="matrix(1.00, 0.00, -0.00, -1.00, 457.3, 255.0)">t</text><text xml:space="preserve" font-family="ArialNarrow" font-size="32.0" fill="#000000" transform="matrix(1.00, 0.00, -0.00, -1.00, 464.6, 255.0)">s</text><text xml:space="preserve" font-family="ArialNarrow" font-size="32.0" fill="#000000" transform="matrix(1.00, 0.00, -0.00, -1.00, 477.7, 255.0)"> </text><text xml:space="preserve" font-family="ArialNarrow" font-size="32.0" fill="#000000" transform="matrix(1.00, 0.00, -0.00, -1.00, 485.0, 255.0)">r</text><text xml:space="preserve" font-family="ArialNarrow" font-size="32.0" fill="#000000" transform="matrix(1.00, 0.00, -0.00, -1.00, 493.7, 255.0)">a</text><text xml:space="preserve" font-family="ArialNarrow" font-size="32.0" fill="#000000" transform="matrix(1.00, 0.00, -0.00, -1.00, 508.3, 255.0)">n</text><text xml:space="preserve" font-family="ArialNarrow" font-size="32.0" fill="#000000" transform="matrix(1.00, 0.00, -0.00, -1.00, 522.9, 255.0)">g</text><text xml:space="preserve" font-family="ArialNarrow" font-size="32.0" fill="#000000" transform="matrix(1.00, 0.00, -0.00, -1.00, 537.5, 255.0)">e</text><text xml:space="preserve" font-family="ArialNarrow" font-size="32.0" fill="#000000" transform="matrix(1.00, 0.00, -0.00, -1.00, 552.1, 255.0)"> </text><text xml:space="preserve" font-family="ArialNarrow" font-size="32.0" fill="#000000" transform="matrix(1.00, 0.00, -0.00, -1.00, 559.4, 255.0)">(</text><text xml:space="preserve" font-family="ArialNarrow" font-size="32.0" fill="#000000" transform="matrix(1.00, 0.00, -0.00, -1.00, 568.2, 255.0)">“</text><text xml:space="preserve" font-family="ArialNarrow" font-size="32.0" fill="#000000" transform="matrix(1.00, 0.00, -0.00, -1.00, 576.9, 255.0)">n</text><text xml:space="preserve" font-family="ArialNarrow" font-size="32.0" fill="#000000" transform="matrix(1.00, 0.00, -0.00, -1.00, 591.5, 255.0)">o</text><text xml:space="preserve" font-family="ArialNarrow" font-size="32.0" fill="#000000" transform="matrix(1.00, 0.00, -0.00, -1.00, 606.1, 255.0)">v</text><text xml:space="preserve" font-family="ArialNarrow" font-size="32.0" fill="#000000" transform="matrix(1.00, 0.00, -0.00, -1.00, 619.2, 255.0)">e</text><text xml:space="preserve" font-family="ArialNarrow" font-size="32.0" fill="#000000" transform="matrix(1.00, 0.00, -0.00, -1.00, 633.8, 255.0)">l</text><text xml:space="preserve" font-family="ArialNarrow" font-size="32.0" fill="#000000" transform="matrix(1.00, 0.00, -0.00, -1.00, 639.6, 255.0)">”</text><text xml:space="preserve" font-family="ArialNarrow" font-size="32.0" fill="#000000" transform="matrix(1.00, 0.00, -0.00, -1.00, 648.4, 255.0)">)</text><text xml:space="preserve" font-family="ArialNarrow" font-size="40.0" fill="#000000" transform="matrix(1.00, 0.00, -0.00, -1.00, 657.0, 255.0)"> </text><text xml:space="preserve" font-family="ArialNarrow" font-size="40.0" fill="#000000" transform="matrix(1.00, 0.00, -0.00, -1.00, 666.1, 255.0)"> </text><text xml:space="preserve" font-family="ArialNarrow" font-size="40.0" fill="#000000" transform="matrix(1.00, 0.00, -0.00, -1.00, 675.2, 255.0)"> </text><text xml:space="preserve" font-family="ArialNarrow" font-size="40.0" fill="#000000" transform="matrix(1.00, 0.00, -0.00, -1.00, 684.3, 255.0)"> </text><text xml:space="preserve" font-family="ArialNarrow" font-size="40.0" fill="#000000" transform="matrix(1.00, 0.00, -0.00, -1.00, 693.5, 255.0)"> </text><text xml:space="preserve" font-family="ArialNarrow" font-size="40.0" fill="#000000" transform="matrix(1.00, 0.00, -0.00, -1.00, 702.6, 255.0)"> </text><text xml:space="preserve" font-family="ArialNarrow" font-size="40.0" fill="#000000" transform="matrix(1.00, 0.00, -0.00, -1.00, 711.7, 255.0)"> </text><text xml:space="preserve" font-family="ArialNarrow" font-size="40.0" fill="#000000" transform="matrix(1.00, 0.00, -0.00, -1.00, 720.8, 255.0)"> </text><text xml:space="preserve" font-family="ArialNarrow" font-size="40.0" fill="#000000" transform="matrix(1.00, 0.00, -0.00, -1.00, 730.0, 255.0)"> </text><text xml:space="preserve" font-family="ArialNarrow" font-size="40.0" fill="#000000" transform="matrix(1.00, 0.00, -0.00, -1.00, 739.1, 255.0)"> </text><text xml:space="preserve" font-family="ArialNarrow" font-size="40.0" fill="#000000" transform="matrix(1.00, 0.00, -0.00, -1.00, 748.2, 255.0)"> </text><text xml:space="preserve" font-family="ArialNarrow" font-size="40.0" fill="#000000" transform="matrix(1.00, 0.00, -0.00, -1.00, 757.3, 255.0)"> </text><text xml:space="preserve" font-family="ArialNarrow" font-size="40.0" fill="#000000" transform="matrix(1.00, 0.00, -0.00, -1.00, 766.4, 255.0)"> </text><text xml:space="preserve" font-family="ArialNarrow" font-size="40.0" fill="#000000" transform="matrix(1.00, 0.00, -0.00, -1.00, 775.6, 255.0)"> </text><text xml:space="preserve" font-family="ArialNarrow" font-size="40.0" fill="#000000" transform="matrix(1.00, 0.00, -0.00, -1.00, 784.7, 255.0)"> </text></g></svg>