<?xml version="1.0" encoding="UTF-8" standalone="no"?><svg xmlns="http://www.w3.org/2000/svg" xmlns:xlink="http://www.w3.org/1999/xlink" clip-rule="evenodd" stroke-miterlimit="4.00" viewBox="0 0 579 86"><desc>SVG generated by Keynote</desc><defs></defs><g transform="matrix(1.00, 0.00, -0.00, -1.00, 0.0, 86.0)"><text xml:space="preserve" font-family="ArialNarrow" font-size="40.0" fill="#000000" transform="matrix(1.00, 0.00, -0.00, -1.00, -1.0, 55.0)">E</text><text xml:space="preserve" font-family="ArialNarrow" font-size="40.0" fill="#000000" transform="matrix(1.00, 0.00, -0.00, -1.00, 20.9, 55.0)">m</text><text xml:space="preserve" font-family="ArialNarrow" font-size="40.0" fill="#000000" transform="matrix(1.00, 0.00, -0.00, -1.00, 48.2, 55.0)">e</text><text xml:space="preserve" font-family="ArialNarrow" font-size="40.0" fill="#000000" transform="matrix(1.00, 0.00, -0.00, -1.00, 66.4, 55.0)">r</text><text xml:space="preserve" font-family="ArialNarrow" font-size="40.0" fill="#000000" transform="matrix(1.00, 0.00, -0.00, -1.00, 77.4, 55.0)">g</text><text xml:space="preserve" font-family="ArialNarrow" font-size="40.0" fill="#000000" transform="matrix(1.00, 0.00, -0.00, -1.00, 95.6, 55.0)">i</text><text xml:space="preserve" font-family="ArialNarrow" font-size="40.0" fill="#000000" transform="matrix(1.00, 0.00, -0.00, -1.00, 102.9, 55.0)">n</text><text xml:space="preserve" font-family="ArialNarrow" font-size="40.0" fill="#000000" transform="matrix(1.00, 0.00, -0.00, -1.00, 121.1, 55.0)">g</text><text xml:space="preserve" font-family="ArialNarrow" font-size="40.0" fill="#000000" transform="matrix(1.00, 0.00, -0.00, -1.00, 139.4, 55.0)"> </text><text xml:space="preserve" font-family="ArialNarrow" font-size="40.0" fill="#000000" transform="matrix(1.00, 0.00, -0.00, -1.00, 148.5, 55.0)">i</text><text xml:space="preserve" font-family="ArialNarrow" font-size="40.0" fill="#000000" transform="matrix(1.00, 0.00, -0.00, -1.00, 155.8, 55.0)">n</text><text xml:space="preserve" font-family="ArialNarrow" font-size="40.0" fill="#000000" transform="matrix(1.00, 0.00, -0.00, -1.00, 174.0, 55.0)">f</text><text xml:space="preserve" font-family="ArialNarrow" font-size="40.0" fill="#000000" transform="matrix(1.00, 0.00, -0.00, -1.00, 183.2, 55.0)">e</text><text xml:space="preserve" font-family="ArialNarrow" font-size="40.0" fill="#000000" transform="matrix(1.00, 0.00, -0.00, -1.00, 201.4, 55.0)">c</text><text xml:space="preserve" font-family="ArialNarrow" font-size="40.0" fill="#000000" transform="matrix(1.00, 0.00, -0.00, -1.00, 217.8, 55.0)">t</text><text xml:space="preserve" font-family="ArialNarrow" font-size="40.0" fill="#000000" transform="matrix(1.00, 0.00, -0.00, -1.00, 226.9, 55.0)">i</text><text xml:space="preserve" font-family="ArialNarrow" font-size="40.0" fill="#000000" transform="matrix(1.00, 0.00, -0.00, -1.00, 234.2, 55.0)">o</text><text xml:space="preserve" font-family="ArialNarrow" font-size="40.0" fill="#000000" transform="matrix(1.00, 0.00, -0.00, -1.00, 252.5, 55.0)">u</text><text xml:space="preserve" font-family="ArialNarrow" font-size="40.0" fill="#000000" transform="matrix(1.00, 0.00, -0.00, -1.00, 270.7, 55.0)">s</text><text xml:space="preserve" font-family="ArialNarrow" font-size="40.0" fill="#000000" transform="matrix(1.00, 0.00, -0.00, -1.00, 287.1, 55.0)"> </text><text xml:space="preserve" font-family="ArialNarrow" font-size="40.0" fill="#000000" transform="matrix(1.00, 0.00, -0.00, -1.00, 296.3, 55.0)">d</text><text xml:space="preserve" font-family="ArialNarrow" font-size="40.0" fill="#000000" transform="matrix(1.00, 0.00, -0.00, -1.00, 314.5, 55.0)">i</text><text xml:space="preserve" font-family="ArialNarrow" font-size="40.0" fill="#000000" transform="matrix(1.00, 0.00, -0.00, -1.00, 321.8, 55.0)">s</text><text xml:space="preserve" font-family="ArialNarrow" font-size="40.0" fill="#000000" transform="matrix(1.00, 0.00, -0.00, -1.00, 338.2, 55.0)">e</text><text xml:space="preserve" font-family="ArialNarrow" font-size="40.0" fill="#000000" transform="matrix(1.00, 0.00, -0.00, -1.00, 356.5, 55.0)">a</text><text xml:space="preserve" font-family="ArialNarrow" font-size="40.0" fill="#000000" transform="matrix(1.00, 0.00, -0.00, -1.00, 374.7, 55.0)">s</text><text xml:space="preserve" font-family="ArialNarrow" font-size="40.0" fill="#000000" transform="matrix(1.00, 0.00, -0.00, -1.00, 391.1, 55.0)">e</text><text xml:space="preserve" font-family="ArialNarrow" font-size="40.0" fill="#000000" transform="matrix(1.00, 0.00, -0.00, -1.00, 409.4, 55.0)">s</text><text xml:space="preserve" font-family="ArialNarrow" font-size="40.0" fill="#000000" transform="matrix(1.00, 0.00, -0.00, -1.00, 425.8, 55.0)">:</text><text xml:space="preserve" font-family="ArialNarrow" font-size="40.0" fill="#000000" transform="matrix(1.00, 0.00, -0.00, -1.00, 434.9, 55.0)"> </text><text xml:space="preserve" font-family="ArialNarrow" font-size="40.0" fill="#000000" transform="matrix(1.00, 0.00, -0.00, -1.00, 442.2, 55.0)">A</text><text xml:space="preserve" font-family="ArialNarrow" font-size="40.0" fill="#000000" transform="matrix(1.00, 0.00, -0.00, -1.00, 462.3, 55.0)"> </text><text xml:space="preserve" font-family="ArialNarrow" font-size="40.0" fill="#000000" transform="matrix(1.00, 0.00, -0.00, -1.00, 471.4, 55.0)">l</text><text xml:space="preserve" font-family="ArialNarrow" font-size="40.0" fill="#000000" transform="matrix(1.00, 0.00, -0.00, -1.00, 478.7, 55.0)">e</text><text xml:space="preserve" font-family="ArialNarrow" font-size="40.0" fill="#000000" transform="matrix(1.00, 0.00, -0.00, -1.00, 497.0, 55.0)">a</text><text xml:space="preserve" font-family="ArialNarrow" font-size="40.0" fill="#000000" transform="matrix(1.00, 0.00, -0.00, -1.00, 515.2, 55.0)">d</text><text xml:space="preserve" font-family="ArialNarrow" font-size="40.0" fill="#000000" transform="matrix(1.00, 0.00, -0.00, -1.00, 533.4, 55.0)">i</text><text xml:space="preserve" font-family="ArialNarrow" font-size="40.0" fill="#000000" transform="matrix(1.00, 0.00, -0.00, -1.00, 540.7, 55.0)">n</text><text xml:space="preserve" font-family="ArialNarrow" font-size="40.0" fill="#000000" transform="matrix(1.00, 0.00, -0.00, -1.00, 559.0, 55.0)">g</text><text xml:space="preserve" font-family="ArialNarrow" font-size="40.0" fill="#000000" transform="matrix(1.00, 0.00, -0.00, -1.00, 577.2, 55.0)"> </text><text xml:space="preserve" font-family="ArialNarrow" font-size="40.0" fill="#000000" transform="matrix(1.00, 0.00, -0.00, -1.00, 49.0, 10.0)">t</text><text xml:space="preserve" font-family="ArialNarrow" font-size="40.0" fill="#000000" transform="matrix(1.00, 0.00, -0.00, -1.00, 58.1, 10.0)">h</text><text xml:space="preserve" font-family="ArialNarrow" font-size="40.0" fill="#000000" transform="matrix(1.00, 0.00, -0.00, -1.00, 76.4, 10.0)">r</text><text xml:space="preserve" font-family="ArialNarrow" font-size="40.0" fill="#000000" transform="matrix(1.00, 0.00, -0.00, -1.00, 87.3, 10.0)">e</text><text xml:space="preserve" font-family="ArialNarrow" font-size="40.0" fill="#000000" transform="matrix(1.00, 0.00, -0.00, -1.00, 105.5, 10.0)">a</text><text xml:space="preserve" font-family="ArialNarrow" font-size="40.0" fill="#000000" transform="matrix(1.00, 0.00, -0.00, -1.00, 123.8, 10.0)">t</text><text xml:space="preserve" font-family="ArialNarrow" font-size="40.0" fill="#000000" transform="matrix(1.00, 0.00, -0.00, -1.00, 132.9, 10.0)"> </text><text xml:space="preserve" font-family="ArialNarrow" font-size="40.0" fill="#000000" transform="matrix(1.00, 0.00, -0.00, -1.00, 142.0, 10.0)">t</text><text xml:space="preserve" font-family="ArialNarrow" font-size="40.0" fill="#000000" transform="matrix(1.00, 0.00, -0.00, -1.00, 151.1, 10.0)">o</text><text xml:space="preserve" font-family="ArialNarrow" font-size="40.0" fill="#000000" transform="matrix(1.00, 0.00, -0.00, -1.00, 169.4, 10.0)"> </text><text xml:space="preserve" font-family="ArialNarrow" font-size="40.0" fill="#000000" transform="matrix(1.00, 0.00, -0.00, -1.00, 178.5, 10.0)">p</text><text xml:space="preserve" font-family="ArialNarrow" font-size="40.0" fill="#000000" transform="matrix(1.00, 0.00, -0.00, -1.00, 196.8, 10.0)">u</text><text xml:space="preserve" font-family="ArialNarrow" font-size="40.0" fill="#000000" transform="matrix(1.00, 0.00, -0.00, -1.00, 215.0, 10.0)">b</text><text xml:space="preserve" font-family="ArialNarrow" font-size="40.0" fill="#000000" transform="matrix(1.00, 0.00, -0.00, -1.00, 233.2, 10.0)">l</text><text xml:space="preserve" font-family="ArialNarrow" font-size="40.0" fill="#000000" transform="matrix(1.00, 0.00, -0.00, -1.00, 240.5, 10.0)">i</text><text xml:space="preserve" font-family="ArialNarrow" font-size="40.0" fill="#000000" transform="matrix(1.00, 0.00, -0.00, -1.00, 247.8, 10.0)">c</text><text xml:space="preserve" font-family="ArialNarrow" font-size="40.0" fill="#000000" transform="matrix(1.00, 0.00, -0.00, -1.00, 264.2, 10.0)"> </text><text xml:space="preserve" font-family="ArialNarrow" font-size="40.0" fill="#000000" transform="matrix(1.00, 0.00, -0.00, -1.00, 273.4, 10.0)">a</text><text xml:space="preserve" font-family="ArialNarrow" font-size="40.0" fill="#000000" transform="matrix(1.00, 0.00, -0.00, -1.00, 291.6, 10.0)">n</text><text xml:space="preserve" font-family="ArialNarrow" font-size="40.0" fill="#000000" transform="matrix(1.00, 0.00, -0.00, -1.00, 309.8, 10.0)">d</text><text xml:space="preserve" font-family="ArialNarrow" font-size="40.0" fill="#000000" transform="matrix(1.00, 0.00, -0.00, -1.00, 328.1, 10.0)"> </text><text xml:space="preserve" font-family="ArialNarrow" font-size="40.0" fill="#000000" transform="matrix(1.00, 0.00, -0.00, -1.00, 337.2, 10.0)">w</text><text xml:space="preserve" font-family="ArialNarrow" font-size="40.0" fill="#000000" transform="matrix(1.00, 0.00, -0.00, -1.00, 360.9, 10.0)">i</text><text xml:space="preserve" font-family="ArialNarrow" font-size="40.0" fill="#000000" transform="matrix(1.00, 0.00, -0.00, -1.00, 368.2, 10.0)">l</text><text xml:space="preserve" font-family="ArialNarrow" font-size="40.0" fill="#000000" transform="matrix(1.00, 0.00, -0.00, -1.00, 375.5, 10.0)">d</text><text xml:space="preserve" font-family="ArialNarrow" font-size="40.0" fill="#000000" transform="matrix(1.00, 0.00, -0.00, -1.00, 393.7, 10.0)">l</text><text xml:space="preserve" font-family="ArialNarrow" font-size="40.0" fill="#000000" transform="matrix(1.00, 0.00, -0.00, -1.00, 401.0, 10.0)">i</text><text xml:space="preserve" font-family="ArialNarrow" font-size="40.0" fill="#000000" transform="matrix(1.00, 0.00, -0.00, -1.00, 408.3, 10.0)">f</text><text xml:space="preserve" font-family="ArialNarrow" font-size="40.0" fill="#000000" transform="matrix(1.00, 0.00, -0.00, -1.00, 417.4, 10.0)">e</text><text xml:space="preserve" font-family="ArialNarrow" font-size="40.0" fill="#000000" transform="matrix(1.00, 0.00, -0.00, -1.00, 435.7, 10.0)"> </text><text xml:space="preserve" font-family="ArialNarrow" font-size="40.0" fill="#000000" transform="matrix(1.00, 0.00, -0.00, -1.00, 444.8, 10.0)">h</text><text xml:space="preserve" font-family="ArialNarrow" font-size="40.0" fill="#000000" transform="matrix(1.00, 0.00, -0.00, -1.00, 463.0, 10.0)">e</text><text xml:space="preserve" font-family="ArialNarrow" font-size="40.0" fill="#000000" transform="matrix(1.00, 0.00, -0.00, -1.00, 481.3, 10.0)">a</text><text xml:space="preserve" font-family="ArialNarrow" font-size="40.0" fill="#000000" transform="matrix(1.00, 0.00, -0.00, -1.00, 499.5, 10.0)">t</text><text xml:space="preserve" font-family="ArialNarrow" font-size="40.0" fill="#000000" transform="matrix(1.00, 0.00, -0.00, -1.00, 508.6, 10.0)">h</text></g></svg>