<?xml version="1.0" encoding="UTF-8" standalone="no"?><svg xmlns="http://www.w3.org/2000/svg" xmlns:xlink="http://www.w3.org/1999/xlink" clip-rule="evenodd" stroke-miterlimit="4.00" viewBox="0 0 596 37"><desc>SVG generated by Keynote</desc><defs></defs><g transform="matrix(1.00, 0.00, -0.00, -1.00, 0.0, 37.0)"><text xml:space="preserve" font-family="ArialNarrow" font-size="36.0" fill="#000000" transform="matrix(1.00, 0.00, -0.00, -1.00, 2.0, 9.0)">W</text><text xml:space="preserve" font-family="ArialNarrow" font-size="36.0" fill="#000000" transform="matrix(1.00, 0.00, -0.00, -1.00, 29.9, 9.0)">h</text><text xml:space="preserve" font-family="ArialNarrow" font-size="36.0" fill="#000000" transform="matrix(1.00, 0.00, -0.00, -1.00, 46.3, 9.0)">y</text><text xml:space="preserve" font-family="ArialNarrow" font-size="36.0" fill="#000000" transform="matrix(1.00, 0.00, -0.00, -1.00, 61.1, 9.0)"> </text><text xml:space="preserve" font-family="ArialNarrow" font-size="36.0" fill="#000000" transform="matrix(1.00, 0.00, -0.00, -1.00, 69.3, 9.0)">d</text><text xml:space="preserve" font-family="ArialNarrow" font-size="36.0" fill="#000000" transform="matrix(1.00, 0.00, -0.00, -1.00, 85.7, 9.0)">o</text><text xml:space="preserve" font-family="ArialNarrow" font-size="36.0" fill="#000000" transform="matrix(1.00, 0.00, -0.00, -1.00, 102.1, 9.0)"> </text><text xml:space="preserve" font-family="ArialNarrow" font-size="36.0" fill="#000000" transform="matrix(1.00, 0.00, -0.00, -1.00, 110.3, 9.0)">d</text><text xml:space="preserve" font-family="ArialNarrow" font-size="36.0" fill="#000000" transform="matrix(1.00, 0.00, -0.00, -1.00, 126.7, 9.0)">i</text><text xml:space="preserve" font-family="ArialNarrow" font-size="36.0" fill="#000000" transform="matrix(1.00, 0.00, -0.00, -1.00, 133.3, 9.0)">s</text><text xml:space="preserve" font-family="ArialNarrow" font-size="36.0" fill="#000000" transform="matrix(1.00, 0.00, -0.00, -1.00, 148.1, 9.0)">e</text><text xml:space="preserve" font-family="ArialNarrow" font-size="36.0" fill="#000000" transform="matrix(1.00, 0.00, -0.00, -1.00, 164.5, 9.0)">a</text><text xml:space="preserve" font-family="ArialNarrow" font-size="36.0" fill="#000000" transform="matrix(1.00, 0.00, -0.00, -1.00, 180.9, 9.0)">s</text><text xml:space="preserve" font-family="ArialNarrow" font-size="36.0" fill="#000000" transform="matrix(1.00, 0.00, -0.00, -1.00, 195.7, 9.0)">e</text><text xml:space="preserve" font-family="ArialNarrow" font-size="36.0" fill="#000000" transform="matrix(1.00, 0.00, -0.00, -1.00, 212.1, 9.0)">s</text><text xml:space="preserve" font-family="ArialNarrow" font-size="36.0" fill="#000000" transform="matrix(1.00, 0.00, -0.00, -1.00, 226.9, 9.0)"> </text><text xml:space="preserve" font-family="ArialNarrow" font-size="36.0" fill="#000000" transform="matrix(1.00, 0.00, -0.00, -1.00, 235.1, 9.0)">(</text><text xml:space="preserve" font-family="ArialNarrow" font-size="36.0" fill="#000000" transform="matrix(1.00, 0.00, -0.00, -1.00, 244.9, 9.0)">s</text><text xml:space="preserve" font-family="ArialNarrow" font-size="36.0" fill="#000000" transform="matrix(1.00, 0.00, -0.00, -1.00, 259.7, 9.0)">u</text><text xml:space="preserve" font-family="ArialNarrow" font-size="36.0" fill="#000000" transform="matrix(1.00, 0.00, -0.00, -1.00, 276.1, 9.0)">c</text><text xml:space="preserve" font-family="ArialNarrow" font-size="36.0" fill="#000000" transform="matrix(1.00, 0.00, -0.00, -1.00, 290.9, 9.0)">h</text><text xml:space="preserve" font-family="ArialNarrow" font-size="36.0" fill="#000000" transform="matrix(1.00, 0.00, -0.00, -1.00, 307.3, 9.0)"> </text><text xml:space="preserve" font-family="ArialNarrow" font-size="36.0" fill="#000000" transform="matrix(1.00, 0.00, -0.00, -1.00, 315.5, 9.0)">a</text><text xml:space="preserve" font-family="ArialNarrow" font-size="36.0" fill="#000000" transform="matrix(1.00, 0.00, -0.00, -1.00, 331.9, 9.0)">s</text><text xml:space="preserve" font-family="ArialNarrow" font-size="36.0" fill="#000000" transform="matrix(1.00, 0.00, -0.00, -1.00, 346.7, 9.0)"> </text><text xml:space="preserve" font-family="ArialNarrow" font-size="36.0" fill="#000000" transform="matrix(1.00, 0.00, -0.00, -1.00, 354.9, 9.0)">c</text><text xml:space="preserve" font-family="ArialNarrow" font-size="36.0" fill="#000000" transform="matrix(1.00, 0.00, -0.00, -1.00, 369.7, 9.0)">h</text><text xml:space="preserve" font-family="ArialNarrow" font-size="36.0" fill="#000000" transform="matrix(1.00, 0.00, -0.00, -1.00, 386.1, 9.0)">y</text><text xml:space="preserve" font-family="ArialNarrow" font-size="36.0" fill="#000000" transform="matrix(1.00, 0.00, -0.00, -1.00, 400.9, 9.0)">t</text><text xml:space="preserve" font-family="ArialNarrow" font-size="36.0" fill="#000000" transform="matrix(1.00, 0.00, -0.00, -1.00, 409.1, 9.0)">r</text><text xml:space="preserve" font-family="ArialNarrow" font-size="36.0" fill="#000000" transform="matrix(1.00, 0.00, -0.00, -1.00, 418.9, 9.0)">i</text><text xml:space="preserve" font-family="ArialNarrow" font-size="36.0" fill="#000000" transform="matrix(1.00, 0.00, -0.00, -1.00, 425.5, 9.0)">d</text><text xml:space="preserve" font-family="ArialNarrow" font-size="36.0" fill="#000000" transform="matrix(1.00, 0.00, -0.00, -1.00, 441.9, 9.0)">)</text><text xml:space="preserve" font-family="ArialNarrow" font-size="36.0" fill="#000000" transform="matrix(1.00, 0.00, -0.00, -1.00, 451.7, 9.0)"> </text><text xml:space="preserve" font-family="ArialNarrow" font-size="36.0" fill="#000000" transform="matrix(1.00, 0.00, -0.00, -1.00, 459.9, 9.0)">“</text><text xml:space="preserve" font-family="ArialNarrow" font-size="36.0" fill="#000000" transform="matrix(1.00, 0.00, -0.00, -1.00, 469.7, 9.0)">e</text><text xml:space="preserve" font-family="ArialNarrow" font-size="36.0" fill="#000000" transform="matrix(1.00, 0.00, -0.00, -1.00, 486.2, 9.0)">m</text><text xml:space="preserve" font-family="ArialNarrow" font-size="36.0" fill="#000000" transform="matrix(1.00, 0.00, -0.00, -1.00, 510.8, 9.0)">e</text><text xml:space="preserve" font-family="ArialNarrow" font-size="36.0" fill="#000000" transform="matrix(1.00, 0.00, -0.00, -1.00, 527.2, 9.0)">r</text><text xml:space="preserve" font-family="ArialNarrow" font-size="36.0" fill="#000000" transform="matrix(1.00, 0.00, -0.00, -1.00, 537.0, 9.0)">g</text><text xml:space="preserve" font-family="ArialNarrow" font-size="36.0" fill="#000000" transform="matrix(1.00, 0.00, -0.00, -1.00, 553.4, 9.0)">e</text><text xml:space="preserve" font-family="ArialNarrow" font-size="36.0" fill="#000000" transform="matrix(1.00, 0.00, -0.00, -1.00, 569.8, 9.0)">”</text><text xml:space="preserve" font-family="ArialNarrow" font-size="36.0" fill="#000000" transform="matrix(1.00, 0.00, -0.00, -1.00, 579.7, 9.0)">?</text></g></svg>