<?xml version="1.0" encoding="UTF-8" standalone="no"?><svg xmlns="http://www.w3.org/2000/svg" xmlns:xlink="http://www.w3.org/1999/xlink" clip-rule="evenodd" stroke-miterlimit="10" viewBox="0 0 720 540"><desc>SVG generated by Keynote</desc><defs></defs><g transform="matrix(1.00, 0.00, -0.00, -1.00, 0.0, 540.0)"><path d="M 0.0 540.0 L 720.0 540.0 L 720.0 0.0 L 0.0 0.0 Z M 0.0 540.0 " fill="#FEFFFF"></path><image xlink:href="../../0760AF2B-0DE5-488C-9548-130D006D75C6/assets/609AA82D5F1BE24903BFB2BA000FDE74.png" width="750.00" height="335.00" transform="matrix(0.97, 0.00, -0.00, -0.97, -15.0, 451.0)"></image><text xml:space="preserve" font-family="Helvetica-Oblique,Helvetica" font-style="italic" font-size="64.0" fill="#0B0080" transform="matrix(1.00, 0.00, -0.00, -1.00, 162.0, 49.2)">C</text><text xml:space="preserve" font-family="Helvetica-Oblique,Helvetica" font-style="italic" font-size="64.0" fill="#0B0080" transform="matrix(1.00, 0.00, -0.00, -1.00, 208.2, 49.2)">y</text><text xml:space="preserve" font-family="Helvetica-Oblique,Helvetica" font-style="italic" font-size="64.0" fill="#0B0080" transform="matrix(1.00, 0.00, -0.00, -1.00, 240.2, 49.2)">n</text><text xml:space="preserve" font-family="Helvetica-Oblique,Helvetica" font-style="italic" font-size="64.0" fill="#0B0080" transform="matrix(1.00, 0.00, -0.00, -1.00, 275.8, 49.2)">o</text><text xml:space="preserve" font-family="Helvetica-Oblique,Helvetica" font-style="italic" font-size="64.0" fill="#0B0080" transform="matrix(1.00, 0.00, -0.00, -1.00, 311.4, 49.2)">g</text><text xml:space="preserve" font-family="Helvetica-Oblique,Helvetica" font-style="italic" font-size="64.0" fill="#0B0080" transform="matrix(1.00, 0.00, -0.00, -1.00, 347.1, 49.2)">n</text><text xml:space="preserve" font-family="Helvetica-Oblique,Helvetica" font-style="italic" font-size="64.0" fill="#0B0080" transform="matrix(1.00, 0.00, -0.00, -1.00, 382.7, 49.2)">a</text><text xml:space="preserve" font-family="Helvetica-Oblique,Helvetica" font-style="italic" font-size="64.0" fill="#0B0080" transform="matrix(1.00, 0.00, -0.00, -1.00, 418.3, 49.2)">t</text><text xml:space="preserve" font-family="Helvetica-Oblique,Helvetica" font-style="italic" font-size="64.0" fill="#0B0080" transform="matrix(1.00, 0.00, -0.00, -1.00, 436.0, 49.2)">h</text><text xml:space="preserve" font-family="Helvetica-Oblique,Helvetica" font-style="italic" font-size="64.0" fill="#0B0080" transform="matrix(1.00, 0.00, -0.00, -1.00, 471.6, 49.2)">u</text><text xml:space="preserve" font-family="Helvetica-Oblique,Helvetica" font-style="italic" font-size="64.0" fill="#0B0080" transform="matrix(1.00, 0.00, -0.00, -1.00, 507.2, 49.2)">s</text><text xml:space="preserve" font-family="Helvetica,Helvetica" font-size="64.0" fill="#000000" transform="matrix(1.00, 0.00, -0.00, -1.00, 539.2, 49.2)"> </text><g><clipPath id="clip0x6000026a4fe0"><path d="M 161.0 41.8 L 539.2 41.8 L 539.2 47.0 L 161.0 47.0 Z M 161.0 41.8 "></path></clipPath><g clip-path="url(#clip0x6000026a4fe0)"><path d="M 3.0 70.1 L 380.2 70.1 " fill="none" stroke="#0B0080" stroke-width="3.16" transform="matrix(1.00, 0.00, 0.00, -1.00, 159.0, 114.5)"></path></g></g></g></svg>