<?xml version="1.0" encoding="UTF-8" standalone="no"?><svg xmlns="http://www.w3.org/2000/svg" xmlns:xlink="http://www.w3.org/1999/xlink" clip-rule="evenodd" stroke-miterlimit="10" viewBox="0 0 720 540"><desc>SVG generated by Keynote</desc><defs></defs><g transform="matrix(1.00, 0.00, -0.00, -1.00, 0.0, 540.0)"><path d="M 0.0 540.0 L 720.0 540.0 L 720.0 0.0 L 0.0 0.0 Z M 0.0 540.0 " fill="#FEFFFF"></path><text xml:space="preserve" font-family="ArialMT,Arial" font-size="44.0" fill="#000000" transform="matrix(1.00, 0.00, -0.00, -1.00, 90.0, 509.8)">C</text><text xml:space="preserve" font-family="ArialMT,Arial" font-size="44.0" fill="#000000" transform="matrix(1.00, 0.00, -0.00, -1.00, 121.8, 509.8)">o</text><text xml:space="preserve" font-family="ArialMT,Arial" font-size="44.0" fill="#000000" transform="matrix(1.00, 0.00, -0.00, -1.00, 146.3, 509.8)">l</text><text xml:space="preserve" font-family="ArialMT,Arial" font-size="44.0" fill="#000000" transform="matrix(1.00, 0.00, -0.00, -1.00, 156.1, 509.8)">u</text><text xml:space="preserve" font-family="ArialMT,Arial" font-size="44.0" fill="#000000" transform="matrix(1.00, 0.00, -0.00, -1.00, 180.6, 509.8)">b</text><text xml:space="preserve" font-family="ArialMT,Arial" font-size="44.0" fill="#000000" transform="matrix(1.00, 0.00, -0.00, -1.00, 205.0, 509.8)">r</text><text xml:space="preserve" font-family="ArialMT,Arial" font-size="44.0" fill="#000000" transform="matrix(1.00, 0.00, -0.00, -1.00, 219.7, 509.8)">i</text><text xml:space="preserve" font-family="ArialMT,Arial" font-size="44.0" fill="#000000" transform="matrix(1.00, 0.00, -0.00, -1.00, 229.5, 509.8)">d</text><text xml:space="preserve" font-family="ArialMT,Arial" font-size="44.0" fill="#000000" transform="matrix(1.00, 0.00, -0.00, -1.00, 254.0, 509.8)"> </text><text xml:space="preserve" font-family="ArialMT,Arial" font-size="44.0" fill="#000000" transform="matrix(1.00, 0.00, -0.00, -1.00, 266.2, 509.8)">s</text><text xml:space="preserve" font-family="ArialMT,Arial" font-size="44.0" fill="#000000" transform="matrix(1.00, 0.00, -0.00, -1.00, 288.2, 509.8)">n</text><text xml:space="preserve" font-family="ArialMT,Arial" font-size="44.0" fill="#000000" transform="matrix(1.00, 0.00, -0.00, -1.00, 312.7, 509.8)">a</text><text xml:space="preserve" font-family="ArialMT,Arial" font-size="44.0" fill="#000000" transform="matrix(1.00, 0.00, -0.00, -1.00, 337.1, 509.8)">k</text><text xml:space="preserve" font-family="ArialMT,Arial" font-size="44.0" fill="#000000" transform="matrix(1.00, 0.00, -0.00, -1.00, 359.1, 509.8)">e</text><text xml:space="preserve" font-family="ArialMT,Arial" font-size="44.0" fill="#000000" transform="matrix(1.00, 0.00, -0.00, -1.00, 383.6, 509.8)"> </text><text xml:space="preserve" font-family="ArialMT,Arial" font-size="44.0" fill="#000000" transform="matrix(1.00, 0.00, -0.00, -1.00, 395.8, 509.8)">p</text><text xml:space="preserve" font-family="ArialMT,Arial" font-size="44.0" fill="#000000" transform="matrix(1.00, 0.00, -0.00, -1.00, 420.3, 509.8)">h</text><text xml:space="preserve" font-family="ArialMT,Arial" font-size="44.0" fill="#000000" transform="matrix(1.00, 0.00, -0.00, -1.00, 444.8, 509.8)">y</text><text xml:space="preserve" font-family="ArialMT,Arial" font-size="44.0" fill="#000000" transform="matrix(1.00, 0.00, -0.00, -1.00, 466.8, 509.8)">l</text><text xml:space="preserve" font-family="ArialMT,Arial" font-size="44.0" fill="#000000" transform="matrix(1.00, 0.00, -0.00, -1.00, 476.6, 509.8)">o</text><text xml:space="preserve" font-family="ArialMT,Arial" font-size="44.0" fill="#000000" transform="matrix(1.00, 0.00, -0.00, -1.00, 501.1, 509.8)">g</text><text xml:space="preserve" font-family="ArialMT,Arial" font-size="44.0" fill="#000000" transform="matrix(1.00, 0.00, -0.00, -1.00, 525.5, 509.8)">e</text><text xml:space="preserve" font-family="ArialMT,Arial" font-size="44.0" fill="#000000" transform="matrix(1.00, 0.00, -0.00, -1.00, 550.0, 509.8)">n</text><text xml:space="preserve" font-family="ArialMT,Arial" font-size="44.0" fill="#000000" transform="matrix(1.00, 0.00, -0.00, -1.00, 574.5, 509.8)">e</text><text xml:space="preserve" font-family="ArialMT,Arial" font-size="44.0" fill="#000000" transform="matrix(1.00, 0.00, -0.00, -1.00, 599.0, 509.8)">t</text><text xml:space="preserve" font-family="ArialMT,Arial" font-size="44.0" fill="#000000" transform="matrix(1.00, 0.00, -0.00, -1.00, 611.2, 509.8)">i</text><text xml:space="preserve" font-family="ArialMT,Arial" font-size="44.0" fill="#000000" transform="matrix(1.00, 0.00, -0.00, -1.00, 621.0, 509.8)">c</text><text xml:space="preserve" font-family="ArialMT,Arial" font-size="44.0" fill="#000000" transform="matrix(1.00, 0.00, -0.00, -1.00, 643.0, 509.8)"> </text><g><clipPath id="clip0x6000016b9e00"><path d="M 46.7 459.0 L 686.2 459.0 L 686.2 540.0 L 46.7 540.0 Z M 46.7 459.0 "></path></clipPath><g clip-path="url(#clip0x6000016b9e00)"><text xml:space="preserve" font-family="ArialMT,Arial" font-size="44.0" fill="#000000" transform="matrix(1.00, 0.00, -0.00, -1.00, 328.5, 459.8)">t</text><text xml:space="preserve" font-family="ArialMT,Arial" font-size="44.0" fill="#000000" transform="matrix(1.00, 0.00, -0.00, -1.00, 340.7, 459.8)">r</text><text xml:space="preserve" font-family="ArialMT,Arial" font-size="44.0" fill="#000000" transform="matrix(1.00, 0.00, -0.00, -1.00, 355.4, 459.8)">e</text><text xml:space="preserve" font-family="ArialMT,Arial" font-size="44.0" fill="#000000" transform="matrix(1.00, 0.00, -0.00, -1.00, 379.9, 459.8)">e</text></g></g><path d="M 0.0 0.0 L 277.2 300.6 " fill="none" stroke="#000000" stroke-width="7.00" stroke-linejoin="round" transform="matrix(1.00, 0.00, 0.00, -1.00, 80.2, 364.4)"></path><path d="M 0.0 359.6 L 276.2 0.0 " fill="none" stroke="#000000" stroke-width="7.00" stroke-linejoin="round" transform="matrix(1.00, 0.00, 0.00, -1.00, 333.0, 380.6)"></path><path d="M 27.8 206.5 L 0.0 0.0 " fill="none" stroke="#000000" stroke-width="7.00" stroke-linejoin="round" transform="matrix(1.00, 0.00, 0.00, -1.00, 333.9, 267.0)"></path><path d="M 0.0 83.5 L 79.1 0.0 " fill="none" stroke="#000000" stroke-width="7.00" stroke-linejoin="round" transform="matrix(1.00, 0.00, 0.00, -1.00, 158.4, 366.4)"></path><path d="M 0.0 105.0 L 59.9 0.0 " fill="none" stroke="#000000" stroke-width="7.00" stroke-linejoin="round" transform="matrix(1.00, 0.00, 0.00, -1.00, 335.0, 369.6)"></path><path d="M 58.1 105.0 L 0.0 0.0 " fill="none" stroke="#000000" stroke-width="7.00" stroke-linejoin="round" transform="matrix(1.00, 0.00, 0.00, -1.00, 277.1, 369.6)"></path><path d="M 57.0 78.5 L 0.0 0.0 " fill="none" stroke="#000000" stroke-width="7.00" stroke-linejoin="round" transform="matrix(1.00, 0.00, 0.00, -1.00, 487.4, 376.8)"></path><text xml:space="preserve" font-family="TimesNewRomanPSMT,Times New Roman" font-size="22.0" fill="#000000" transform="matrix(1.00, 0.00, -0.00, -1.00, 503.6, 384.7)">C</text><text xml:space="preserve" font-family="TimesNewRomanPSMT,Times New Roman" font-size="22.0" fill="#000000" transform="matrix(1.00, 0.00, -0.00, -1.00, 518.3, 384.7)">o</text><text xml:space="preserve" font-family="TimesNewRomanPSMT,Times New Roman" font-size="22.0" fill="#000000" transform="matrix(1.00, 0.00, -0.00, -1.00, 529.3, 384.7)">l</text><text xml:space="preserve" font-family="TimesNewRomanPSMT,Times New Roman" font-size="22.0" fill="#000000" transform="matrix(1.00, 0.00, -0.00, -1.00, 535.4, 384.7)">u</text><text xml:space="preserve" font-family="TimesNewRomanPSMT,Times New Roman" font-size="22.0" fill="#000000" transform="matrix(1.00, 0.00, -0.00, -1.00, 546.4, 384.7)">b</text><text xml:space="preserve" font-family="TimesNewRomanPSMT,Times New Roman" font-size="22.0" fill="#000000" transform="matrix(1.00, 0.00, -0.00, -1.00, 557.4, 384.7)">r</text><text xml:space="preserve" font-family="TimesNewRomanPSMT,Times New Roman" font-size="22.0" fill="#000000" transform="matrix(1.00, 0.00, -0.00, -1.00, 564.7, 384.7)">i</text><text xml:space="preserve" font-family="TimesNewRomanPSMT,Times New Roman" font-size="22.0" fill="#000000" transform="matrix(1.00, 0.00, -0.00, -1.00, 570.8, 384.7)">n</text><text xml:space="preserve" font-family="TimesNewRomanPSMT,Times New Roman" font-size="22.0" fill="#000000" transform="matrix(1.00, 0.00, -0.00, -1.00, 581.8, 384.7)">e</text><text xml:space="preserve" font-family="TimesNewRomanPSMT,Times New Roman" font-size="22.0" fill="#000000" transform="matrix(1.00, 0.00, -0.00, -1.00, 591.6, 384.7)">s</text><text xml:space="preserve" font-family="TimesNewRomanPSMT,Times New Roman" font-size="22.0" fill="#FF7C41" transform="matrix(1.00, 0.00, -0.00, -1.00, 277.2, 400.8)">S</text><text xml:space="preserve" font-family="TimesNewRomanPSMT,Times New Roman" font-size="22.0" fill="#FF7C41" transform="matrix(1.00, 0.00, -0.00, -1.00, 289.5, 400.8)">o</text><text xml:space="preserve" font-family="TimesNewRomanPSMT,Times New Roman" font-size="22.0" fill="#FF7C41" transform="matrix(1.00, 0.00, -0.00, -1.00, 300.5, 400.8)">u</text><text xml:space="preserve" font-family="TimesNewRomanPSMT,Times New Roman" font-size="22.0" fill="#FF7C41" transform="matrix(1.00, 0.00, -0.00, -1.00, 311.5, 400.8)">t</text><text xml:space="preserve" font-family="TimesNewRomanPSMT,Times New Roman" font-size="22.0" fill="#FF7C41" transform="matrix(1.00, 0.00, -0.00, -1.00, 317.6, 400.8)">h</text><text xml:space="preserve" font-family="TimesNewRomanPSMT,Times New Roman" font-size="22.0" fill="#FF7C41" transform="matrix(1.00, 0.00, -0.00, -1.00, 328.6, 400.8)"> </text><text xml:space="preserve" font-family="TimesNewRomanPSMT,Times New Roman" font-size="22.0" fill="#FF7C41" transform="matrix(1.00, 0.00, -0.00, -1.00, 332.9, 400.8)">A</text><text xml:space="preserve" font-family="TimesNewRomanPSMT,Times New Roman" font-size="22.0" fill="#FF7C41" transform="matrix(1.00, 0.00, -0.00, -1.00, 348.8, 400.8)">m</text><text xml:space="preserve" font-family="TimesNewRomanPSMT,Times New Roman" font-size="22.0" fill="#FF7C41" transform="matrix(1.00, 0.00, -0.00, -1.00, 365.9, 400.8)">e</text><text xml:space="preserve" font-family="TimesNewRomanPSMT,Times New Roman" font-size="22.0" fill="#FF7C41" transform="matrix(1.00, 0.00, -0.00, -1.00, 375.6, 400.8)">r</text><text xml:space="preserve" font-family="TimesNewRomanPSMT,Times New Roman" font-size="22.0" fill="#FF7C41" transform="matrix(1.00, 0.00, -0.00, -1.00, 383.0, 400.8)">i</text><text xml:space="preserve" font-family="TimesNewRomanPSMT,Times New Roman" font-size="22.0" fill="#FF7C41" transform="matrix(1.00, 0.00, -0.00, -1.00, 389.1, 400.8)">c</text><text xml:space="preserve" font-family="TimesNewRomanPSMT,Times New Roman" font-size="22.0" fill="#FF7C41" transform="matrix(1.00, 0.00, -0.00, -1.00, 398.8, 400.8)">a</text><text xml:space="preserve" font-family="TimesNewRomanPSMT,Times New Roman" font-size="22.0" fill="#FF7C41" transform="matrix(1.00, 0.00, -0.00, -1.00, 408.6, 400.8)">n</text><text xml:space="preserve" font-family="TimesNewRomanPSMT,Times New Roman" font-size="22.0" fill="#FF7C41" transform="matrix(1.00, 0.00, -0.00, -1.00, 419.6, 400.8)"> </text><text xml:space="preserve" font-family="TimesNewRomanPSMT,Times New Roman" font-size="22.0" fill="#FF7C41" transform="matrix(1.00, 0.00, -0.00, -1.00, 277.2, 376.1)">X</text><text xml:space="preserve" font-family="TimesNewRomanPSMT,Times New Roman" font-size="22.0" fill="#FF7C41" transform="matrix(1.00, 0.00, -0.00, -1.00, 293.1, 376.1)">e</text><text xml:space="preserve" font-family="TimesNewRomanPSMT,Times New Roman" font-size="22.0" fill="#FF7C41" transform="matrix(1.00, 0.00, -0.00, -1.00, 302.9, 376.1)">n</text><text xml:space="preserve" font-family="TimesNewRomanPSMT,Times New Roman" font-size="22.0" fill="#FF7C41" transform="matrix(1.00, 0.00, -0.00, -1.00, 313.9, 376.1)">o</text><text xml:space="preserve" font-family="TimesNewRomanPSMT,Times New Roman" font-size="22.0" fill="#FF7C41" transform="matrix(1.00, 0.00, -0.00, -1.00, 324.9, 376.1)">d</text><text xml:space="preserve" font-family="TimesNewRomanPSMT,Times New Roman" font-size="22.0" fill="#FF7C41" transform="matrix(1.00, 0.00, -0.00, -1.00, 335.9, 376.1)">o</text><text xml:space="preserve" font-family="TimesNewRomanPSMT,Times New Roman" font-size="22.0" fill="#FF7C41" transform="matrix(1.00, 0.00, -0.00, -1.00, 346.9, 376.1)">n</text><text xml:space="preserve" font-family="TimesNewRomanPSMT,Times New Roman" font-size="22.0" fill="#FF7C41" transform="matrix(1.00, 0.00, -0.00, -1.00, 357.9, 376.1)">t</text><text xml:space="preserve" font-family="TimesNewRomanPSMT,Times New Roman" font-size="22.0" fill="#FF7C41" transform="matrix(1.00, 0.00, -0.00, -1.00, 364.0, 376.1)">i</text><text xml:space="preserve" font-family="TimesNewRomanPSMT,Times New Roman" font-size="22.0" fill="#FF7C41" transform="matrix(1.00, 0.00, -0.00, -1.00, 370.1, 376.1)">n</text><text xml:space="preserve" font-family="TimesNewRomanPSMT,Times New Roman" font-size="22.0" fill="#FF7C41" transform="matrix(1.00, 0.00, -0.00, -1.00, 381.1, 376.1)">e</text><text xml:space="preserve" font-family="TimesNewRomanPSMT,Times New Roman" font-size="22.0" fill="#FF7C41" transform="matrix(1.00, 0.00, -0.00, -1.00, 390.9, 376.1)">s</text><text xml:space="preserve" font-family="TimesNewRomanPSMT,Times New Roman" font-size="22.0" fill="#37D179" transform="matrix(1.00, 0.00, -0.00, -1.00, 87.2, 398.3)">C</text><text xml:space="preserve" font-family="TimesNewRomanPSMT,Times New Roman" font-size="22.0" fill="#37D179" transform="matrix(1.00, 0.00, -0.00, -1.00, 101.9, 398.3)">e</text><text xml:space="preserve" font-family="TimesNewRomanPSMT,Times New Roman" font-size="22.0" fill="#37D179" transform="matrix(1.00, 0.00, -0.00, -1.00, 111.7, 398.3)">n</text><text xml:space="preserve" font-family="TimesNewRomanPSMT,Times New Roman" font-size="22.0" fill="#37D179" transform="matrix(1.00, 0.00, -0.00, -1.00, 122.7, 398.3)">t</text><text xml:space="preserve" font-family="TimesNewRomanPSMT,Times New Roman" font-size="22.0" fill="#37D179" transform="matrix(1.00, 0.00, -0.00, -1.00, 128.8, 398.3)">r</text><text xml:space="preserve" font-family="TimesNewRomanPSMT,Times New Roman" font-size="22.0" fill="#37D179" transform="matrix(1.00, 0.00, -0.00, -1.00, 136.1, 398.3)">a</text><text xml:space="preserve" font-family="TimesNewRomanPSMT,Times New Roman" font-size="22.0" fill="#37D179" transform="matrix(1.00, 0.00, -0.00, -1.00, 145.9, 398.3)">l</text><text xml:space="preserve" font-family="TimesNewRomanPSMT,Times New Roman" font-size="22.0" fill="#37D179" transform="matrix(1.00, 0.00, -0.00, -1.00, 152.0, 398.3)"> </text><text xml:space="preserve" font-family="TimesNewRomanPSMT,Times New Roman" font-size="22.0" fill="#37D179" transform="matrix(1.00, 0.00, -0.00, -1.00, 156.3, 398.3)">A</text><text xml:space="preserve" font-family="TimesNewRomanPSMT,Times New Roman" font-size="22.0" fill="#37D179" transform="matrix(1.00, 0.00, -0.00, -1.00, 172.2, 398.3)">m</text><text xml:space="preserve" font-family="TimesNewRomanPSMT,Times New Roman" font-size="22.0" fill="#37D179" transform="matrix(1.00, 0.00, -0.00, -1.00, 189.3, 398.3)">e</text><text xml:space="preserve" font-family="TimesNewRomanPSMT,Times New Roman" font-size="22.0" fill="#37D179" transform="matrix(1.00, 0.00, -0.00, -1.00, 199.0, 398.3)">r</text><text xml:space="preserve" font-family="TimesNewRomanPSMT,Times New Roman" font-size="22.0" fill="#37D179" transform="matrix(1.00, 0.00, -0.00, -1.00, 206.4, 398.3)">i</text><text xml:space="preserve" font-family="TimesNewRomanPSMT,Times New Roman" font-size="22.0" fill="#37D179" transform="matrix(1.00, 0.00, -0.00, -1.00, 212.5, 398.3)">c</text><text xml:space="preserve" font-family="TimesNewRomanPSMT,Times New Roman" font-size="22.0" fill="#37D179" transform="matrix(1.00, 0.00, -0.00, -1.00, 222.2, 398.3)">a</text><text xml:space="preserve" font-family="TimesNewRomanPSMT,Times New Roman" font-size="22.0" fill="#37D179" transform="matrix(1.00, 0.00, -0.00, -1.00, 232.0, 398.3)">n</text><text xml:space="preserve" font-family="TimesNewRomanPSMT,Times New Roman" font-size="22.0" fill="#37D179" transform="matrix(1.00, 0.00, -0.00, -1.00, 243.0, 398.3)"> </text><text xml:space="preserve" font-family="TimesNewRomanPSMT,Times New Roman" font-size="22.0" fill="#37D179" transform="matrix(1.00, 0.00, -0.00, -1.00, 87.2, 373.6)">X</text><text xml:space="preserve" font-family="TimesNewRomanPSMT,Times New Roman" font-size="22.0" fill="#37D179" transform="matrix(1.00, 0.00, -0.00, -1.00, 103.1, 373.6)">e</text><text xml:space="preserve" font-family="TimesNewRomanPSMT,Times New Roman" font-size="22.0" fill="#37D179" transform="matrix(1.00, 0.00, -0.00, -1.00, 112.9, 373.6)">n</text><text xml:space="preserve" font-family="TimesNewRomanPSMT,Times New Roman" font-size="22.0" fill="#37D179" transform="matrix(1.00, 0.00, -0.00, -1.00, 123.9, 373.6)">o</text><text xml:space="preserve" font-family="TimesNewRomanPSMT,Times New Roman" font-size="22.0" fill="#37D179" transform="matrix(1.00, 0.00, -0.00, -1.00, 134.9, 373.6)">d</text><text xml:space="preserve" font-family="TimesNewRomanPSMT,Times New Roman" font-size="22.0" fill="#37D179" transform="matrix(1.00, 0.00, -0.00, -1.00, 145.9, 373.6)">o</text><text xml:space="preserve" font-family="TimesNewRomanPSMT,Times New Roman" font-size="22.0" fill="#37D179" transform="matrix(1.00, 0.00, -0.00, -1.00, 156.9, 373.6)">n</text><text xml:space="preserve" font-family="TimesNewRomanPSMT,Times New Roman" font-size="22.0" fill="#37D179" transform="matrix(1.00, 0.00, -0.00, -1.00, 167.9, 373.6)">t</text><text xml:space="preserve" font-family="TimesNewRomanPSMT,Times New Roman" font-size="22.0" fill="#37D179" transform="matrix(1.00, 0.00, -0.00, -1.00, 174.0, 373.6)">i</text><text xml:space="preserve" font-family="TimesNewRomanPSMT,Times New Roman" font-size="22.0" fill="#37D179" transform="matrix(1.00, 0.00, -0.00, -1.00, 180.1, 373.6)">n</text><text xml:space="preserve" font-family="TimesNewRomanPSMT,Times New Roman" font-size="22.0" fill="#37D179" transform="matrix(1.00, 0.00, -0.00, -1.00, 191.1, 373.6)">e</text><text xml:space="preserve" font-family="TimesNewRomanPSMT,Times New Roman" font-size="22.0" fill="#37D179" transform="matrix(1.00, 0.00, -0.00, -1.00, 200.9, 373.6)">s</text><text xml:space="preserve" font-family="TimesNewRomanPSMT,Times New Roman" font-size="33.0" fill="#000000" transform="matrix(1.00, 0.00, -0.00, -1.00, 388.0, 58.7)">T</text><text xml:space="preserve" font-family="TimesNewRomanPSMT,Times New Roman" font-size="33.0" fill="#000000" transform="matrix(1.00, 0.00, -0.00, -1.00, 408.2, 58.7)">h</text><text xml:space="preserve" font-family="TimesNewRomanPSMT,Times New Roman" font-size="33.0" fill="#000000" transform="matrix(1.00, 0.00, -0.00, -1.00, 424.7, 58.7)">r</text><text xml:space="preserve" font-family="TimesNewRomanPSMT,Times New Roman" font-size="33.0" fill="#000000" transform="matrix(1.00, 0.00, -0.00, -1.00, 435.6, 58.7)">e</text><text xml:space="preserve" font-family="TimesNewRomanPSMT,Times New Roman" font-size="33.0" fill="#000000" transform="matrix(1.00, 0.00, -0.00, -1.00, 450.3, 58.7)">e</text><text xml:space="preserve" font-family="TimesNewRomanPSMT,Times New Roman" font-size="33.0" fill="#000000" transform="matrix(1.00, 0.00, -0.00, -1.00, 464.9, 58.7)"> </text><text xml:space="preserve" font-family="TimesNewRomanPSMT,Times New Roman" font-size="33.0" fill="#000000" transform="matrix(1.00, 0.00, -0.00, -1.00, 473.2, 58.7)">m</text><text xml:space="preserve" font-family="TimesNewRomanPSMT,Times New Roman" font-size="33.0" fill="#000000" transform="matrix(1.00, 0.00, -0.00, -1.00, 498.8, 58.7)">a</text><text xml:space="preserve" font-family="TimesNewRomanPSMT,Times New Roman" font-size="33.0" fill="#000000" transform="matrix(1.00, 0.00, -0.00, -1.00, 513.5, 58.7)">j</text><text xml:space="preserve" font-family="TimesNewRomanPSMT,Times New Roman" font-size="33.0" fill="#000000" transform="matrix(1.00, 0.00, -0.00, -1.00, 522.6, 58.7)">o</text><text xml:space="preserve" font-family="TimesNewRomanPSMT,Times New Roman" font-size="33.0" fill="#000000" transform="matrix(1.00, 0.00, -0.00, -1.00, 539.1, 58.7)">r</text><text xml:space="preserve" font-family="TimesNewRomanPSMT,Times New Roman" font-size="33.0" fill="#000000" transform="matrix(1.00, 0.00, -0.00, -1.00, 550.1, 58.7)"> </text><text xml:space="preserve" font-family="TimesNewRomanPSMT,Times New Roman" font-size="33.0" fill="#000000" transform="matrix(1.00, 0.00, -0.00, -1.00, 558.4, 58.7)">e</text><text xml:space="preserve" font-family="TimesNewRomanPSMT,Times New Roman" font-size="33.0" fill="#000000" transform="matrix(1.00, 0.00, -0.00, -1.00, 573.0, 58.7)">v</text><text xml:space="preserve" font-family="TimesNewRomanPSMT,Times New Roman" font-size="33.0" fill="#000000" transform="matrix(1.00, 0.00, -0.00, -1.00, 589.5, 58.7)">o</text><text xml:space="preserve" font-family="TimesNewRomanPSMT,Times New Roman" font-size="33.0" fill="#000000" transform="matrix(1.00, 0.00, -0.00, -1.00, 606.0, 58.7)">l</text><text xml:space="preserve" font-family="TimesNewRomanPSMT,Times New Roman" font-size="33.0" fill="#000000" transform="matrix(1.00, 0.00, -0.00, -1.00, 615.2, 58.7)">u</text><text xml:space="preserve" font-family="TimesNewRomanPSMT,Times New Roman" font-size="33.0" fill="#000000" transform="matrix(1.00, 0.00, -0.00, -1.00, 631.7, 58.7)">t</text><text xml:space="preserve" font-family="TimesNewRomanPSMT,Times New Roman" font-size="33.0" fill="#000000" transform="matrix(1.00, 0.00, -0.00, -1.00, 640.8, 58.7)">i</text><text xml:space="preserve" font-family="TimesNewRomanPSMT,Times New Roman" font-size="33.0" fill="#000000" transform="matrix(1.00, 0.00, -0.00, -1.00, 650.0, 58.7)">o</text><text xml:space="preserve" font-family="TimesNewRomanPSMT,Times New Roman" font-size="33.0" fill="#000000" transform="matrix(1.00, 0.00, -0.00, -1.00, 666.5, 58.7)">n</text><text xml:space="preserve" font-family="TimesNewRomanPSMT,Times New Roman" font-size="33.0" fill="#000000" transform="matrix(1.00, 0.00, -0.00, -1.00, 683.0, 58.7)">a</text><text xml:space="preserve" font-family="TimesNewRomanPSMT,Times New Roman" font-size="33.0" fill="#000000" transform="matrix(1.00, 0.00, -0.00, -1.00, 697.6, 58.7)">r</text><text xml:space="preserve" font-family="TimesNewRomanPSMT,Times New Roman" font-size="33.0" fill="#000000" transform="matrix(1.00, 0.00, -0.00, -1.00, 708.6, 58.7)">y</text><text xml:space="preserve" font-family="TimesNewRomanPSMT,Times New Roman" font-size="33.0" fill="#000000" transform="matrix(1.00, 0.00, -0.00, -1.00, 725.1, 58.7)"> </text><text xml:space="preserve" font-family="TimesNewRomanPSMT,Times New Roman" font-size="33.0" fill="#000000" transform="matrix(1.00, 0.00, -0.00, -1.00, 388.0, 23.4)">g</text><text xml:space="preserve" font-family="TimesNewRomanPSMT,Times New Roman" font-size="33.0" fill="#000000" transform="matrix(1.00, 0.00, -0.00, -1.00, 404.5, 23.4)">r</text><text xml:space="preserve" font-family="TimesNewRomanPSMT,Times New Roman" font-size="33.0" fill="#000000" transform="matrix(1.00, 0.00, -0.00, -1.00, 415.5, 23.4)">o</text><text xml:space="preserve" font-family="TimesNewRomanPSMT,Times New Roman" font-size="33.0" fill="#000000" transform="matrix(1.00, 0.00, -0.00, -1.00, 432.0, 23.4)">u</text><text xml:space="preserve" font-family="TimesNewRomanPSMT,Times New Roman" font-size="33.0" fill="#000000" transform="matrix(1.00, 0.00, -0.00, -1.00, 448.5, 23.4)">p</text><text xml:space="preserve" font-family="TimesNewRomanPSMT,Times New Roman" font-size="33.0" fill="#000000" transform="matrix(1.00, 0.00, -0.00, -1.00, 465.0, 23.4)">s</text><text xml:space="preserve" font-family="TimesNewRomanPSMT,Times New Roman" font-size="33.0" fill="#000000" transform="matrix(1.00, 0.00, -0.00, -1.00, 477.8, 23.4)"> </text><text xml:space="preserve" font-family="TimesNewRomanPSMT,Times New Roman" font-size="33.0" fill="#000000" transform="matrix(1.00, 0.00, -0.00, -1.00, 486.1, 23.4)">o</text><text xml:space="preserve" font-family="TimesNewRomanPSMT,Times New Roman" font-size="33.0" fill="#000000" transform="matrix(1.00, 0.00, -0.00, -1.00, 502.6, 23.4)">f</text><text xml:space="preserve" font-family="TimesNewRomanPSMT,Times New Roman" font-size="33.0" fill="#000000" transform="matrix(1.00, 0.00, -0.00, -1.00, 513.6, 23.4)"> </text><text xml:space="preserve" font-family="TimesNewRomanPSMT,Times New Roman" font-size="33.0" fill="#000000" transform="matrix(1.00, 0.00, -0.00, -1.00, 521.8, 23.4)">s</text><text xml:space="preserve" font-family="TimesNewRomanPSMT,Times New Roman" font-size="33.0" fill="#000000" transform="matrix(1.00, 0.00, -0.00, -1.00, 534.7, 23.4)">n</text><text xml:space="preserve" font-family="TimesNewRomanPSMT,Times New Roman" font-size="33.0" fill="#000000" transform="matrix(1.00, 0.00, -0.00, -1.00, 551.2, 23.4)">a</text><text xml:space="preserve" font-family="TimesNewRomanPSMT,Times New Roman" font-size="33.0" fill="#000000" transform="matrix(1.00, 0.00, -0.00, -1.00, 565.8, 23.4)">k</text><text xml:space="preserve" font-family="TimesNewRomanPSMT,Times New Roman" font-size="33.0" fill="#000000" transform="matrix(1.00, 0.00, -0.00, -1.00, 582.3, 23.4)">e</text><text xml:space="preserve" font-family="TimesNewRomanPSMT,Times New Roman" font-size="33.0" fill="#000000" transform="matrix(1.00, 0.00, -0.00, -1.00, 597.0, 23.4)">s</text><text xml:space="preserve" font-family="TimesNewRomanPSMT,Times New Roman" font-size="33.0" fill="#000000" transform="matrix(1.00, 0.00, -0.00, -1.00, 609.8, 23.4)">.</text><text xml:space="preserve" font-family="TimesNewRomanPSMT,Times New Roman" font-size="33.0" fill="#000000" transform="matrix(1.00, 0.00, -0.00, -1.00, 618.1, 23.4)">.</text><text xml:space="preserve" font-family="TimesNewRomanPSMT,Times New Roman" font-size="33.0" fill="#000000" transform="matrix(1.00, 0.00, -0.00, -1.00, 626.3, 23.4)">.</text><text xml:space="preserve" font-family="TimesNewRomanPSMT,Times New Roman" font-size="22.0" fill="#000000" transform="matrix(1.00, 0.00, -0.00, -1.00, 0.0, 4.2)">C</text><text xml:space="preserve" font-family="TimesNewRomanPSMT,Times New Roman" font-size="22.0" fill="#000000" transform="matrix(1.00, 0.00, -0.00, -1.00, 14.7, 4.2)">a</text><text xml:space="preserve" font-family="TimesNewRomanPSMT,Times New Roman" font-size="22.0" fill="#000000" transform="matrix(1.00, 0.00, -0.00, -1.00, 24.4, 4.2)">d</text><text xml:space="preserve" font-family="TimesNewRomanPSMT,Times New Roman" font-size="22.0" fill="#000000" transform="matrix(1.00, 0.00, -0.00, -1.00, 35.4, 4.2)">l</text><text xml:space="preserve" font-family="TimesNewRomanPSMT,Times New Roman" font-size="22.0" fill="#000000" transform="matrix(1.00, 0.00, -0.00, -1.00, 41.5, 4.2)">e</text><text xml:space="preserve" font-family="TimesNewRomanPSMT,Times New Roman" font-size="22.0" fill="#000000" transform="matrix(1.00, 0.00, -0.00, -1.00, 51.3, 4.2)"> </text><text xml:space="preserve" font-family="TimesNewRomanPSMT,Times New Roman" font-size="22.0" fill="#000000" transform="matrix(1.00, 0.00, -0.00, -1.00, 56.8, 4.2)">a</text><text xml:space="preserve" font-family="TimesNewRomanPSMT,Times New Roman" font-size="22.0" fill="#000000" transform="matrix(1.00, 0.00, -0.00, -1.00, 66.6, 4.2)">n</text><text xml:space="preserve" font-family="TimesNewRomanPSMT,Times New Roman" font-size="22.0" fill="#000000" transform="matrix(1.00, 0.00, -0.00, -1.00, 77.6, 4.2)">d</text><text xml:space="preserve" font-family="TimesNewRomanPSMT,Times New Roman" font-size="22.0" fill="#000000" transform="matrix(1.00, 0.00, -0.00, -1.00, 88.6, 4.2)"> </text><text xml:space="preserve" font-family="TimesNewRomanPSMT,Times New Roman" font-size="22.0" fill="#000000" transform="matrix(1.00, 0.00, -0.00, -1.00, 94.1, 4.2)">G</text><text xml:space="preserve" font-family="TimesNewRomanPSMT,Times New Roman" font-size="22.0" fill="#000000" transform="matrix(1.00, 0.00, -0.00, -1.00, 110.0, 4.2)">r</text><text xml:space="preserve" font-family="TimesNewRomanPSMT,Times New Roman" font-size="22.0" fill="#000000" transform="matrix(1.00, 0.00, -0.00, -1.00, 117.3, 4.2)">e</text><text xml:space="preserve" font-family="TimesNewRomanPSMT,Times New Roman" font-size="22.0" fill="#000000" transform="matrix(1.00, 0.00, -0.00, -1.00, 127.0, 4.2)">e</text><text xml:space="preserve" font-family="TimesNewRomanPSMT,Times New Roman" font-size="22.0" fill="#000000" transform="matrix(1.00, 0.00, -0.00, -1.00, 136.8, 4.2)">n</text><text xml:space="preserve" font-family="TimesNewRomanPSMT,Times New Roman" font-size="22.0" fill="#000000" transform="matrix(1.00, 0.00, -0.00, -1.00, 147.8, 4.2)"> </text><text xml:space="preserve" font-family="TimesNewRomanPSMT,Times New Roman" font-size="22.0" fill="#000000" transform="matrix(1.00, 0.00, -0.00, -1.00, 153.3, 4.2)">1</text><text xml:space="preserve" font-family="TimesNewRomanPSMT,Times New Roman" font-size="22.0" fill="#000000" transform="matrix(1.00, 0.00, -0.00, -1.00, 164.3, 4.2)">9</text><text xml:space="preserve" font-family="TimesNewRomanPSMT,Times New Roman" font-size="22.0" fill="#000000" transform="matrix(1.00, 0.00, -0.00, -1.00, 175.3, 4.2)">9</text><text xml:space="preserve" font-family="TimesNewRomanPSMT,Times New Roman" font-size="22.0" fill="#000000" transform="matrix(1.00, 0.00, -0.00, -1.00, 186.3, 4.2)">3</text><image xlink:href="../../539FCA88-A76B-40A9-9D4A-8A9078F05580/assets/722D4E1FF2699D4C45B43CBC7EBC5F43.png" width="300.00" height="200.00" transform="matrix(0.22, 0.00, -0.00, -0.22, 300.0, 364.0)"></image><image xlink:href="../../539FCA88-A76B-40A9-9D4A-8A9078F05580/assets/59FC42690FE8352E7FA7865CC68D432E.png" width="288.00" height="288.00" transform="matrix(0.23, 0.00, -0.00, -0.23, 515.0, 379.0)"></image><image xlink:href="../../539FCA88-A76B-40A9-9D4A-8A9078F05580/assets/2F1CE011375C657FBD639CB23E4E888C.png" width="300.00" height="230.00" transform="matrix(0.23, 0.00, -0.00, -0.23, 126.0, 367.0)"></image></g></svg>