<?xml version="1.0" encoding="UTF-8" standalone="no"?><svg xmlns="http://www.w3.org/2000/svg" xmlns:xlink="http://www.w3.org/1999/xlink" clip-rule="evenodd" stroke-miterlimit="10" viewBox="0 0 1024 768"><desc>SVG generated by Keynote</desc><defs></defs><g transform="matrix(1.00, 0.00, -0.00, -1.00, 0.0, 768.0)"><path d="M 0.0 768.0 L 1024.0 768.0 L 1024.0 0.0 L 0.0 0.0 Z M 0.0 768.0 " fill="#FEFFFF"></path><text xml:space="preserve" font-family="ArialMT,Arial" font-size="62.0" fill="#000000" transform="matrix(1.00, 0.00, -0.00, -1.00, 362.7, 614.2)">W</text><text xml:space="preserve" font-family="ArialMT,Arial" font-size="62.0" fill="#000000" transform="matrix(1.00, 0.00, -0.00, -1.00, 421.2, 614.2)">h</text><text xml:space="preserve" font-family="ArialMT,Arial" font-size="62.0" fill="#000000" transform="matrix(1.00, 0.00, -0.00, -1.00, 455.7, 614.2)">y</text><text xml:space="preserve" font-family="ArialMT,Arial" font-size="62.0" fill="#000000" transform="matrix(1.00, 0.00, -0.00, -1.00, 486.7, 614.2)"> </text><text xml:space="preserve" font-family="ArialMT,Arial" font-size="62.0" fill="#000000" transform="matrix(1.00, 0.00, -0.00, -1.00, 502.8, 614.2)">T</text><text xml:space="preserve" font-family="ArialMT,Arial" font-size="62.0" fill="#000000" transform="matrix(1.00, 0.00, -0.00, -1.00, 540.7, 614.2)">S</text><text xml:space="preserve" font-family="ArialMT,Arial" font-size="62.0" fill="#000000" transform="matrix(1.00, 0.00, -0.00, -1.00, 582.0, 614.2)">D</text><text xml:space="preserve" font-family="ArialMT,Arial" font-size="62.0" fill="#000000" transform="matrix(1.00, 0.00, -0.00, -1.00, 626.8, 614.2)">?</text><path d="M 230.2 460.2 C 241.9 448.5 241.9 429.5 230.2 417.8 C 218.5 406.1 199.5 406.1 187.8 417.8 C 176.1 429.5 176.1 448.5 187.8 460.2 C 199.5 471.9 218.5 471.9 230.2 460.2 " fill="#FEFFFF"></path><path d="M 51.2 8.8 C 62.9 20.5 62.9 39.5 51.2 51.2 C 39.5 62.9 20.5 62.9 8.8 51.2 C -2.9 39.5 -2.9 20.5 8.8 8.8 C 20.5 -2.9 39.5 -2.9 51.2 8.8 " fill="none" stroke="#000000" stroke-width="1.00" stroke-linejoin="round" transform="matrix(1.00, 0.00, 0.00, -1.00, 179.0, 469.0)"></path><path d="M 256.2 443.2 C 267.9 431.5 267.9 412.5 256.2 400.8 C 244.5 389.1 225.5 389.1 213.8 400.8 C 202.1 412.5 202.1 431.5 213.8 443.2 C 225.5 454.9 244.5 454.9 256.2 443.2 " fill="#FEFFFF"></path><path d="M 51.2 8.8 C 62.9 20.5 62.9 39.5 51.2 51.2 C 39.5 62.9 20.5 62.9 8.8 51.2 C -2.9 39.5 -2.9 20.5 8.8 8.8 C 20.5 -2.9 39.5 -2.9 51.2 8.8 " fill="none" stroke="#000000" stroke-width="1.00" stroke-linejoin="round" transform="matrix(1.00, 0.00, 0.00, -1.00, 205.0, 452.0)"></path><path d="M 273.2 469.2 C 284.9 457.5 284.9 438.5 273.2 426.8 C 261.5 415.1 242.5 415.1 230.8 426.8 C 219.1 438.5 219.1 457.5 230.8 469.2 C 242.5 480.9 261.5 480.9 273.2 469.2 " fill="#FEFFFF"></path><path d="M 51.2 8.8 C 62.9 20.5 62.9 39.5 51.2 51.2 C 39.5 62.9 20.5 62.9 8.8 51.2 C -2.9 39.5 -2.9 20.5 8.8 8.8 C 20.5 -2.9 39.5 -2.9 51.2 8.8 " fill="none" stroke="#000000" stroke-width="1.00" stroke-linejoin="round" transform="matrix(1.00, 0.00, 0.00, -1.00, 222.0, 478.0)"></path><path d="M 222.2 426.2 C 233.9 414.5 233.9 395.5 222.2 383.8 C 210.5 372.1 191.5 372.1 179.8 383.8 C 168.1 395.5 168.1 414.5 179.8 426.2 C 191.5 437.9 210.5 437.9 222.2 426.2 " fill="#FEFFFF"></path><path d="M 51.2 8.8 C 62.9 20.5 62.9 39.5 51.2 51.2 C 39.5 62.9 20.5 62.9 8.8 51.2 C -2.9 39.5 -2.9 20.5 8.8 8.8 C 20.5 -2.9 39.5 -2.9 51.2 8.8 " fill="none" stroke="#000000" stroke-width="1.00" stroke-linejoin="round" transform="matrix(1.00, 0.00, 0.00, -1.00, 171.0, 435.0)"></path><path d="M 580.2 460.2 C 591.9 448.5 591.9 429.5 580.2 417.8 C 568.5 406.1 549.5 406.1 537.8 417.8 C 526.1 429.5 526.1 448.5 537.8 460.2 C 549.5 471.9 568.5 471.9 580.2 460.2 " fill="#FEFFFF"></path><path d="M 51.2 8.8 C 62.9 20.5 62.9 39.5 51.2 51.2 C 39.5 62.9 20.5 62.9 8.8 51.2 C -2.9 39.5 -2.9 20.5 8.8 8.8 C 20.5 -2.9 39.5 -2.9 51.2 8.8 " fill="none" stroke="#000000" stroke-width="1.00" stroke-linejoin="round" transform="matrix(1.00, 0.00, 0.00, -1.00, 529.0, 469.0)"></path><path d="M 606.2 443.2 C 617.9 431.5 617.9 412.5 606.2 400.8 C 594.5 389.1 575.5 389.1 563.8 400.8 C 552.1 412.5 552.1 431.5 563.8 443.2 C 575.5 454.9 594.5 454.9 606.2 443.2 " fill="#FEFFFF"></path><path d="M 51.2 8.8 C 62.9 20.5 62.9 39.5 51.2 51.2 C 39.5 62.9 20.5 62.9 8.8 51.2 C -2.9 39.5 -2.9 20.5 8.8 8.8 C 20.5 -2.9 39.5 -2.9 51.2 8.8 " fill="none" stroke="#000000" stroke-width="1.00" stroke-linejoin="round" transform="matrix(1.00, 0.00, 0.00, -1.00, 555.0, 452.0)"></path><path d="M 623.2 469.2 C 634.9 457.5 634.9 438.5 623.2 426.8 C 611.5 415.1 592.5 415.1 580.8 426.8 C 569.1 438.5 569.1 457.5 580.8 469.2 C 592.5 480.9 611.5 480.9 623.2 469.2 " fill="#FEFFFF"></path><path d="M 51.2 8.8 C 62.9 20.5 62.9 39.5 51.2 51.2 C 39.5 62.9 20.5 62.9 8.8 51.2 C -2.9 39.5 -2.9 20.5 8.8 8.8 C 20.5 -2.9 39.5 -2.9 51.2 8.8 " fill="none" stroke="#000000" stroke-width="1.00" stroke-linejoin="round" transform="matrix(1.00, 0.00, 0.00, -1.00, 572.0, 478.0)"></path><path d="M 572.2 426.2 C 583.9 414.5 583.9 395.5 572.2 383.8 C 560.5 372.1 541.5 372.1 529.8 383.8 C 518.1 395.5 518.1 414.5 529.8 426.2 C 541.5 437.9 560.5 437.9 572.2 426.2 " fill="#FEFFFF"></path><path d="M 51.2 8.8 C 62.9 20.5 62.9 39.5 51.2 51.2 C 39.5 62.9 20.5 62.9 8.8 51.2 C -2.9 39.5 -2.9 20.5 8.8 8.8 C 20.5 -2.9 39.5 -2.9 51.2 8.8 " fill="none" stroke="#000000" stroke-width="1.00" stroke-linejoin="round" transform="matrix(1.00, 0.00, 0.00, -1.00, 521.0, 435.0)"></path><g><clipPath id="clip0x7fbd94b1d510"><path d="M 102.0 32.0 L 320.0 32.0 L 320.0 316.0 L 102.0 316.0 Z M 102.0 32.0 "></path></clipPath><g clip-path="url(#clip0x7fbd94b1d510)"><path d="M 102.0 316.0 L 320.0 316.0 L 320.0 32.0 L 102.0 32.0 Z M 102.0 316.0 " fill="#FFFFFF"></path><image xlink:href="64E7CA84FB9652FBBBF61B20F0918143.png" width="153.00" height="200.00" transform="matrix(1.42, 0.00, -0.00, -1.42, 102.0, 316.0)"></image></g></g><g><clipPath id="clip0x7fbd94b1ee70"><path d="M 478.0 60.0 L 713.0 60.0 L 713.0 299.0 L 478.0 299.0 Z M 478.0 60.0 "></path></clipPath><g clip-path="url(#clip0x7fbd94b1ee70)"><path d="M 478.0 299.0 L 713.0 299.0 L 713.0 60.0 L 478.0 60.0 Z M 478.0 299.0 " fill="#FFFFFF"></path><image xlink:href="82F8CCC6F9169E7F9D1A6E91C4A84122.png" width="165.00" height="168.00" transform="matrix(1.42, 0.00, -0.00, -1.42, 478.0, 299.0)"></image></g></g></g></svg>