<?xml version="1.0" encoding="UTF-8" standalone="no"?><svg xmlns="http://www.w3.org/2000/svg" xmlns:xlink="http://www.w3.org/1999/xlink" clip-rule="evenodd" stroke-miterlimit="10" viewBox="0 0 720 540"><desc>SVG generated by Keynote</desc><defs></defs><g transform="matrix(1.00, 0.00, -0.00, -1.00, 0.0, 540.0)"><path d="M 0.0 540.0 L 720.0 540.0 L 720.0 0.0 L 0.0 0.0 Z M 0.0 540.0 " fill="#FEFFFF"></path><image xlink:href="../../8D78C6F8-57DE-422C-9718-23F7B11E9472/assets/50011B608901AF30AE42F6C6FF78CB9D.jpeg" width="786.00" height="1472.00" transform="matrix(0.27, 0.00, -0.00, -0.27, 48.0, 516.0)"></image><text xml:space="preserve" font-family="ArialMT,Arial" font-size="16.0" fill="#000000" transform="matrix(1.00, 0.00, -0.00, -1.00, 73.2, 89.9)">H</text><text xml:space="preserve" font-family="ArialMT,Arial" font-size="16.0" fill="#000000" transform="matrix(1.00, 0.00, -0.00, -1.00, 84.8, 89.9)">o</text><text xml:space="preserve" font-family="ArialMT,Arial" font-size="16.0" fill="#000000" transform="matrix(1.00, 0.00, -0.00, -1.00, 93.7, 89.9)">m</text><text xml:space="preserve" font-family="ArialMT,Arial" font-size="16.0" fill="#000000" transform="matrix(1.00, 0.00, -0.00, -1.00, 107.0, 89.9)">e</text><text xml:space="preserve" font-family="ArialMT,Arial" font-size="16.0" fill="#000000" transform="matrix(1.00, 0.00, -0.00, -1.00, 115.9, 89.9)"> </text><text xml:space="preserve" font-family="ArialMT,Arial" font-size="16.0" fill="#000000" transform="matrix(1.00, 0.00, -0.00, -1.00, 120.3, 89.9)">r</text><text xml:space="preserve" font-family="ArialMT,Arial" font-size="16.0" fill="#000000" transform="matrix(1.00, 0.00, -0.00, -1.00, 125.7, 89.9)">a</text><text xml:space="preserve" font-family="ArialMT,Arial" font-size="16.0" fill="#000000" transform="matrix(1.00, 0.00, -0.00, -1.00, 134.6, 89.9)">n</text><text xml:space="preserve" font-family="ArialMT,Arial" font-size="16.0" fill="#000000" transform="matrix(1.00, 0.00, -0.00, -1.00, 143.5, 89.9)">g</text><text xml:space="preserve" font-family="ArialMT,Arial" font-size="16.0" fill="#000000" transform="matrix(1.00, 0.00, -0.00, -1.00, 152.4, 89.9)">e</text><text xml:space="preserve" font-family="ArialMT,Arial" font-size="16.0" fill="#000000" transform="matrix(1.00, 0.00, -0.00, -1.00, 161.3, 89.9)">s</text><text xml:space="preserve" font-family="ArialMT,Arial" font-size="16.0" fill="#000000" transform="matrix(1.00, 0.00, -0.00, -1.00, 169.3, 89.9)"> </text><text xml:space="preserve" font-family="ArialMT,Arial" font-size="16.0" fill="#000000" transform="matrix(1.00, 0.00, -0.00, -1.00, 173.7, 89.9)">o</text><text xml:space="preserve" font-family="ArialMT,Arial" font-size="16.0" fill="#000000" transform="matrix(1.00, 0.00, -0.00, -1.00, 182.6, 89.9)">f</text><text xml:space="preserve" font-family="ArialMT,Arial" font-size="16.0" fill="#000000" transform="matrix(1.00, 0.00, -0.00, -1.00, 187.1, 89.9)"> </text><text xml:space="preserve" font-family="Arial-ItalicMT,Arial" font-style="italic" font-size="16.0" fill="#000000" transform="matrix(1.00, 0.00, -0.00, -1.00, 73.2, 71.9)">P</text><text xml:space="preserve" font-family="Arial-ItalicMT,Arial" font-style="italic" font-size="16.0" fill="#000000" transform="matrix(1.00, 0.00, -0.00, -1.00, 83.9, 71.9)">l</text><text xml:space="preserve" font-family="Arial-ItalicMT,Arial" font-style="italic" font-size="16.0" fill="#000000" transform="matrix(1.00, 0.00, -0.00, -1.00, 87.4, 71.9)">e</text><text xml:space="preserve" font-family="Arial-ItalicMT,Arial" font-style="italic" font-size="16.0" fill="#000000" transform="matrix(1.00, 0.00, -0.00, -1.00, 96.3, 71.9)">t</text><text xml:space="preserve" font-family="Arial-ItalicMT,Arial" font-style="italic" font-size="16.0" fill="#000000" transform="matrix(1.00, 0.00, -0.00, -1.00, 100.8, 71.9)">h</text><text xml:space="preserve" font-family="Arial-ItalicMT,Arial" font-style="italic" font-size="16.0" fill="#000000" transform="matrix(1.00, 0.00, -0.00, -1.00, 109.7, 71.9)">o</text><text xml:space="preserve" font-family="Arial-ItalicMT,Arial" font-style="italic" font-size="16.0" fill="#000000" transform="matrix(1.00, 0.00, -0.00, -1.00, 118.6, 71.9)">d</text><text xml:space="preserve" font-family="Arial-ItalicMT,Arial" font-style="italic" font-size="16.0" fill="#000000" transform="matrix(1.00, 0.00, -0.00, -1.00, 127.5, 71.9)">o</text><text xml:space="preserve" font-family="Arial-ItalicMT,Arial" font-style="italic" font-size="16.0" fill="#000000" transform="matrix(1.00, 0.00, -0.00, -1.00, 136.4, 71.9)">n</text><text xml:space="preserve" font-family="Arial-ItalicMT,Arial" font-style="italic" font-size="16.0" fill="#000000" transform="matrix(1.00, 0.00, -0.00, -1.00, 145.3, 71.9)"> </text><text xml:space="preserve" font-family="Arial-ItalicMT,Arial" font-style="italic" font-size="16.0" fill="#000000" transform="matrix(1.00, 0.00, -0.00, -1.00, 149.7, 71.9)">t</text><text xml:space="preserve" font-family="Arial-ItalicMT,Arial" font-style="italic" font-size="16.0" fill="#000000" transform="matrix(1.00, 0.00, -0.00, -1.00, 154.2, 71.9)">e</text><text xml:space="preserve" font-family="Arial-ItalicMT,Arial" font-style="italic" font-size="16.0" fill="#000000" transform="matrix(1.00, 0.00, -0.00, -1.00, 163.1, 71.9)">y</text><text xml:space="preserve" font-family="Arial-ItalicMT,Arial" font-style="italic" font-size="16.0" fill="#000000" transform="matrix(1.00, 0.00, -0.00, -1.00, 171.1, 71.9)">a</text><text xml:space="preserve" font-family="Arial-ItalicMT,Arial" font-style="italic" font-size="16.0" fill="#000000" transform="matrix(1.00, 0.00, -0.00, -1.00, 180.0, 71.9)">h</text><text xml:space="preserve" font-family="Arial-ItalicMT,Arial" font-style="italic" font-size="16.0" fill="#000000" transform="matrix(1.00, 0.00, -0.00, -1.00, 188.9, 71.9)">a</text><text xml:space="preserve" font-family="Arial-ItalicMT,Arial" font-style="italic" font-size="16.0" fill="#000000" transform="matrix(1.00, 0.00, -0.00, -1.00, 197.8, 71.9)">l</text><text xml:space="preserve" font-family="Arial-ItalicMT,Arial" font-style="italic" font-size="16.0" fill="#000000" transform="matrix(1.00, 0.00, -0.00, -1.00, 201.3, 71.9)">e</text><text xml:space="preserve" font-family="Arial-ItalicMT,Arial" font-style="italic" font-size="16.0" fill="#000000" transform="matrix(1.00, 0.00, -0.00, -1.00, 210.2, 71.9)">e</text><text xml:space="preserve" font-family="ArialMT,Arial" font-size="16.0" fill="#000000" transform="matrix(1.00, 0.00, -0.00, -1.00, 219.1, 71.9)"> </text><text xml:space="preserve" font-family="ArialMT,Arial" font-size="16.0" fill="#000000" transform="matrix(1.00, 0.00, -0.00, -1.00, 73.2, 53.9)">i</text><text xml:space="preserve" font-family="ArialMT,Arial" font-size="16.0" fill="#000000" transform="matrix(1.00, 0.00, -0.00, -1.00, 76.8, 53.9)">n</text><text xml:space="preserve" font-family="ArialMT,Arial" font-size="16.0" fill="#000000" transform="matrix(1.00, 0.00, -0.00, -1.00, 85.7, 53.9)"> </text><text xml:space="preserve" font-family="ArialMT,Arial" font-size="16.0" fill="#000000" transform="matrix(1.00, 0.00, -0.00, -1.00, 90.1, 53.9)">t</text><text xml:space="preserve" font-family="ArialMT,Arial" font-size="16.0" fill="#000000" transform="matrix(1.00, 0.00, -0.00, -1.00, 94.5, 53.9)">w</text><text xml:space="preserve" font-family="ArialMT,Arial" font-size="16.0" fill="#000000" transform="matrix(1.00, 0.00, -0.00, -1.00, 106.1, 53.9)">o</text><text xml:space="preserve" font-family="ArialMT,Arial" font-size="16.0" fill="#000000" transform="matrix(1.00, 0.00, -0.00, -1.00, 115.0, 53.9)"> </text><text xml:space="preserve" font-family="ArialMT,Arial" font-size="16.0" fill="#000000" transform="matrix(1.00, 0.00, -0.00, -1.00, 119.4, 53.9)">t</text><text xml:space="preserve" font-family="ArialMT,Arial" font-size="16.0" fill="#000000" transform="matrix(1.00, 0.00, -0.00, -1.00, 123.9, 53.9)">y</text><text xml:space="preserve" font-family="ArialMT,Arial" font-size="16.0" fill="#000000" transform="matrix(1.00, 0.00, -0.00, -1.00, 131.9, 53.9)">p</text><text xml:space="preserve" font-family="ArialMT,Arial" font-size="16.0" fill="#000000" transform="matrix(1.00, 0.00, -0.00, -1.00, 140.8, 53.9)">e</text><text xml:space="preserve" font-family="ArialMT,Arial" font-size="16.0" fill="#000000" transform="matrix(1.00, 0.00, -0.00, -1.00, 149.7, 53.9)">s</text><text xml:space="preserve" font-family="ArialMT,Arial" font-size="16.0" fill="#000000" transform="matrix(1.00, 0.00, -0.00, -1.00, 157.7, 53.9)"> </text><text xml:space="preserve" font-family="ArialMT,Arial" font-size="16.0" fill="#000000" transform="matrix(1.00, 0.00, -0.00, -1.00, 162.1, 53.9)">o</text><text xml:space="preserve" font-family="ArialMT,Arial" font-size="16.0" fill="#000000" transform="matrix(1.00, 0.00, -0.00, -1.00, 171.0, 53.9)">f</text><text xml:space="preserve" font-family="ArialMT,Arial" font-size="16.0" fill="#000000" transform="matrix(1.00, 0.00, -0.00, -1.00, 175.5, 53.9)"> </text><text xml:space="preserve" font-family="ArialMT,Arial" font-size="16.0" fill="#000000" transform="matrix(1.00, 0.00, -0.00, -1.00, 73.2, 27.9)">h</text><text xml:space="preserve" font-family="ArialMT,Arial" font-size="16.0" fill="#000000" transform="matrix(1.00, 0.00, -0.00, -1.00, 82.1, 27.9)">a</text><text xml:space="preserve" font-family="ArialMT,Arial" font-size="16.0" fill="#000000" transform="matrix(1.00, 0.00, -0.00, -1.00, 91.0, 27.9)">b</text><text xml:space="preserve" font-family="ArialMT,Arial" font-size="16.0" fill="#000000" transform="matrix(1.00, 0.00, -0.00, -1.00, 99.9, 27.9)">i</text><text xml:space="preserve" font-family="ArialMT,Arial" font-size="16.0" fill="#000000" transform="matrix(1.00, 0.00, -0.00, -1.00, 103.5, 27.9)">t</text><text xml:space="preserve" font-family="ArialMT,Arial" font-size="16.0" fill="#000000" transform="matrix(1.00, 0.00, -0.00, -1.00, 107.9, 27.9)">a</text><text xml:space="preserve" font-family="ArialMT,Arial" font-size="16.0" fill="#000000" transform="matrix(1.00, 0.00, -0.00, -1.00, 116.8, 27.9)">t</text><text xml:space="preserve" font-family="ArialMT,Arial" font-size="24.0" fill="#000000" transform="matrix(1.00, 0.00, -0.00, -1.00, 121.2, 27.9)"> </text></g></svg>