<?xml version="1.0" encoding="UTF-8" standalone="no"?><svg xmlns="http://www.w3.org/2000/svg" xmlns:xlink="http://www.w3.org/1999/xlink" clip-rule="evenodd" stroke-miterlimit="10" viewBox="0 0 720 540"><desc>SVG generated by Keynote</desc><defs></defs><g transform="matrix(1.00, 0.00, -0.00, -1.00, 0.0, 540.0)"><path d="M 0.0 540.0 L 720.0 540.0 L 720.0 0.0 L 0.0 0.0 Z M 0.0 540.0 " fill="#FEFFFF"></path><text xml:space="preserve" font-family="ArialMT,Arial" font-size="42.0" fill="#000000" transform="matrix(1.00, 0.00, -0.00, -1.00, 105.5, 432.3)">E</text><text xml:space="preserve" font-family="ArialMT,Arial" font-size="42.0" fill="#000000" transform="matrix(1.00, 0.00, -0.00, -1.00, 133.6, 432.3)">a</text><text xml:space="preserve" font-family="ArialMT,Arial" font-size="42.0" fill="#000000" transform="matrix(1.00, 0.00, -0.00, -1.00, 156.9, 432.3)">r</text><text xml:space="preserve" font-family="ArialMT,Arial" font-size="42.0" fill="#000000" transform="matrix(1.00, 0.00, -0.00, -1.00, 170.9, 432.3)">l</text><text xml:space="preserve" font-family="ArialMT,Arial" font-size="42.0" fill="#000000" transform="matrix(1.00, 0.00, -0.00, -1.00, 180.2, 432.3)">y</text><text xml:space="preserve" font-family="ArialMT,Arial" font-size="42.0" fill="#000000" transform="matrix(1.00, 0.00, -0.00, -1.00, 201.2, 432.3)"> </text><text xml:space="preserve" font-family="ArialMT,Arial" font-size="42.0" fill="#000000" transform="matrix(1.00, 0.00, -0.00, -1.00, 212.9, 432.3)">E</text><text xml:space="preserve" font-family="ArialMT,Arial" font-size="42.0" fill="#000000" transform="matrix(1.00, 0.00, -0.00, -1.00, 240.9, 432.3)">v</text><text xml:space="preserve" font-family="ArialMT,Arial" font-size="42.0" fill="#000000" transform="matrix(1.00, 0.00, -0.00, -1.00, 261.9, 432.3)">o</text><text xml:space="preserve" font-family="ArialMT,Arial" font-size="42.0" fill="#000000" transform="matrix(1.00, 0.00, -0.00, -1.00, 285.3, 432.3)">l</text><text xml:space="preserve" font-family="ArialMT,Arial" font-size="42.0" fill="#000000" transform="matrix(1.00, 0.00, -0.00, -1.00, 294.6, 432.3)">u</text><text xml:space="preserve" font-family="ArialMT,Arial" font-size="42.0" fill="#000000" transform="matrix(1.00, 0.00, -0.00, -1.00, 318.0, 432.3)">t</text><text xml:space="preserve" font-family="ArialMT,Arial" font-size="42.0" fill="#000000" transform="matrix(1.00, 0.00, -0.00, -1.00, 329.7, 432.3)">i</text><text xml:space="preserve" font-family="ArialMT,Arial" font-size="42.0" fill="#000000" transform="matrix(1.00, 0.00, -0.00, -1.00, 339.0, 432.3)">o</text><text xml:space="preserve" font-family="ArialMT,Arial" font-size="42.0" fill="#000000" transform="matrix(1.00, 0.00, -0.00, -1.00, 362.4, 432.3)">n</text><text xml:space="preserve" font-family="ArialMT,Arial" font-size="42.0" fill="#000000" transform="matrix(1.00, 0.00, -0.00, -1.00, 385.7, 432.3)"> </text><text xml:space="preserve" font-family="ArialMT,Arial" font-size="42.0" fill="#000000" transform="matrix(1.00, 0.00, -0.00, -1.00, 397.4, 432.3)">i</text><text xml:space="preserve" font-family="ArialMT,Arial" font-size="42.0" fill="#000000" transform="matrix(1.00, 0.00, -0.00, -1.00, 406.7, 432.3)">n</text><text xml:space="preserve" font-family="ArialMT,Arial" font-size="42.0" fill="#000000" transform="matrix(1.00, 0.00, -0.00, -1.00, 430.1, 432.3)"> </text><text xml:space="preserve" font-family="ArialMT,Arial" font-size="42.0" fill="#000000" transform="matrix(1.00, 0.00, -0.00, -1.00, 439.4, 432.3)">A</text><text xml:space="preserve" font-family="ArialMT,Arial" font-size="42.0" fill="#000000" transform="matrix(1.00, 0.00, -0.00, -1.00, 467.5, 432.3)">m</text><text xml:space="preserve" font-family="ArialMT,Arial" font-size="42.0" fill="#000000" transform="matrix(1.00, 0.00, -0.00, -1.00, 502.4, 432.3)">n</text><text xml:space="preserve" font-family="ArialMT,Arial" font-size="42.0" fill="#000000" transform="matrix(1.00, 0.00, -0.00, -1.00, 525.8, 432.3)">i</text><text xml:space="preserve" font-family="ArialMT,Arial" font-size="42.0" fill="#000000" transform="matrix(1.00, 0.00, -0.00, -1.00, 535.1, 432.3)">o</text><text xml:space="preserve" font-family="ArialMT,Arial" font-size="42.0" fill="#000000" transform="matrix(1.00, 0.00, -0.00, -1.00, 558.5, 432.3)">t</text><text xml:space="preserve" font-family="ArialMT,Arial" font-size="42.0" fill="#000000" transform="matrix(1.00, 0.00, -0.00, -1.00, 570.2, 432.3)">e</text><text xml:space="preserve" font-family="ArialMT,Arial" font-size="42.0" fill="#000000" transform="matrix(1.00, 0.00, -0.00, -1.00, 593.5, 432.3)">s</text><text xml:space="preserve" font-family="ArialMT,Arial" font-size="30.0" fill="#000000" transform="matrix(1.00, 0.00, -0.00, -1.00, 61.2, 371.3)">•</text><text xml:space="preserve" font-family="ArialMT,Arial" font-size="30.0" fill="#000000" transform="matrix(1.00, 0.00, -0.00, -1.00, 88.2, 371.3)">A</text><text xml:space="preserve" font-family="ArialMT,Arial" font-size="30.0" fill="#000000" transform="matrix(1.00, 0.00, -0.00, -1.00, 106.6, 371.3)"> </text><text xml:space="preserve" font-family="ArialMT,Arial" font-size="30.0" fill="#000000" transform="matrix(1.00, 0.00, -0.00, -1.00, 114.9, 371.3)">l</text><text xml:space="preserve" font-family="ArialMT,Arial" font-size="30.0" fill="#000000" transform="matrix(1.00, 0.00, -0.00, -1.00, 121.6, 371.3)">a</text><text xml:space="preserve" font-family="ArialMT,Arial" font-size="30.0" fill="#000000" transform="matrix(1.00, 0.00, -0.00, -1.00, 138.2, 371.3)">r</text><text xml:space="preserve" font-family="ArialMT,Arial" font-size="30.0" fill="#000000" transform="matrix(1.00, 0.00, -0.00, -1.00, 148.2, 371.3)">g</text><text xml:space="preserve" font-family="ArialMT,Arial" font-size="30.0" fill="#000000" transform="matrix(1.00, 0.00, -0.00, -1.00, 164.9, 371.3)">e</text><text xml:space="preserve" font-family="ArialMT,Arial" font-size="30.0" fill="#000000" transform="matrix(1.00, 0.00, -0.00, -1.00, 181.6, 371.3)"> </text><text xml:space="preserve" font-family="ArialMT,Arial" font-size="30.0" fill="#000000" transform="matrix(1.00, 0.00, -0.00, -1.00, 189.9, 371.3)">n</text><text xml:space="preserve" font-family="ArialMT,Arial" font-size="30.0" fill="#000000" transform="matrix(1.00, 0.00, -0.00, -1.00, 206.6, 371.3)">u</text><text xml:space="preserve" font-family="ArialMT,Arial" font-size="30.0" fill="#000000" transform="matrix(1.00, 0.00, -0.00, -1.00, 223.3, 371.3)">m</text><text xml:space="preserve" font-family="ArialMT,Arial" font-size="30.0" fill="#000000" transform="matrix(1.00, 0.00, -0.00, -1.00, 248.3, 371.3)">b</text><text xml:space="preserve" font-family="ArialMT,Arial" font-size="30.0" fill="#000000" transform="matrix(1.00, 0.00, -0.00, -1.00, 265.0, 371.3)">e</text><text xml:space="preserve" font-family="ArialMT,Arial" font-size="30.0" fill="#000000" transform="matrix(1.00, 0.00, -0.00, -1.00, 281.7, 371.3)">r</text><text xml:space="preserve" font-family="ArialMT,Arial" font-size="30.0" fill="#000000" transform="matrix(1.00, 0.00, -0.00, -1.00, 291.7, 371.3)"> </text><text xml:space="preserve" font-family="ArialMT,Arial" font-size="30.0" fill="#000000" transform="matrix(1.00, 0.00, -0.00, -1.00, 300.0, 371.3)">o</text><text xml:space="preserve" font-family="ArialMT,Arial" font-size="30.0" fill="#000000" transform="matrix(1.00, 0.00, -0.00, -1.00, 316.7, 371.3)">f</text><text xml:space="preserve" font-family="ArialMT,Arial" font-size="30.0" fill="#000000" transform="matrix(1.00, 0.00, -0.00, -1.00, 325.0, 371.3)"> </text><text xml:space="preserve" font-family="ArialMT,Arial" font-size="30.0" fill="#000000" transform="matrix(1.00, 0.00, -0.00, -1.00, 333.4, 371.3)">d</text><text xml:space="preserve" font-family="ArialMT,Arial" font-size="30.0" fill="#000000" transform="matrix(1.00, 0.00, -0.00, -1.00, 350.1, 371.3)">e</text><text xml:space="preserve" font-family="ArialMT,Arial" font-size="30.0" fill="#000000" transform="matrix(1.00, 0.00, -0.00, -1.00, 366.7, 371.3)">r</text><text xml:space="preserve" font-family="ArialMT,Arial" font-size="30.0" fill="#000000" transform="matrix(1.00, 0.00, -0.00, -1.00, 376.7, 371.3)">i</text><text xml:space="preserve" font-family="ArialMT,Arial" font-size="30.0" fill="#000000" transform="matrix(1.00, 0.00, -0.00, -1.00, 383.4, 371.3)">v</text><text xml:space="preserve" font-family="ArialMT,Arial" font-size="30.0" fill="#000000" transform="matrix(1.00, 0.00, -0.00, -1.00, 398.4, 371.3)">e</text><text xml:space="preserve" font-family="ArialMT,Arial" font-size="30.0" fill="#000000" transform="matrix(1.00, 0.00, -0.00, -1.00, 415.1, 371.3)">d</text><text xml:space="preserve" font-family="ArialMT,Arial" font-size="30.0" fill="#000000" transform="matrix(1.00, 0.00, -0.00, -1.00, 431.8, 371.3)"> </text><text xml:space="preserve" font-family="ArialMT,Arial" font-size="30.0" fill="#000000" transform="matrix(1.00, 0.00, -0.00, -1.00, 440.1, 371.3)">t</text><text xml:space="preserve" font-family="ArialMT,Arial" font-size="30.0" fill="#000000" transform="matrix(1.00, 0.00, -0.00, -1.00, 448.4, 371.3)">r</text><text xml:space="preserve" font-family="ArialMT,Arial" font-size="30.0" fill="#000000" transform="matrix(1.00, 0.00, -0.00, -1.00, 458.4, 371.3)">a</text><text xml:space="preserve" font-family="ArialMT,Arial" font-size="30.0" fill="#000000" transform="matrix(1.00, 0.00, -0.00, -1.00, 475.1, 371.3)">i</text><text xml:space="preserve" font-family="ArialMT,Arial" font-size="30.0" fill="#000000" transform="matrix(1.00, 0.00, -0.00, -1.00, 481.8, 371.3)">t</text><text xml:space="preserve" font-family="ArialMT,Arial" font-size="30.0" fill="#000000" transform="matrix(1.00, 0.00, -0.00, -1.00, 490.1, 371.3)">s</text><text xml:space="preserve" font-family="ArialMT,Arial" font-size="30.0" fill="#000000" transform="matrix(1.00, 0.00, -0.00, -1.00, 505.1, 371.3)"> </text><text xml:space="preserve" font-family="ArialMT,Arial" font-size="30.0" fill="#000000" transform="matrix(1.00, 0.00, -0.00, -1.00, 513.5, 371.3)">a</text><text xml:space="preserve" font-family="ArialMT,Arial" font-size="30.0" fill="#000000" transform="matrix(1.00, 0.00, -0.00, -1.00, 530.1, 371.3)">r</text><text xml:space="preserve" font-family="ArialMT,Arial" font-size="30.0" fill="#000000" transform="matrix(1.00, 0.00, -0.00, -1.00, 540.1, 371.3)">e</text><text xml:space="preserve" font-family="ArialMT,Arial" font-size="30.0" fill="#000000" transform="matrix(1.00, 0.00, -0.00, -1.00, 556.8, 371.3)"> </text><text xml:space="preserve" font-family="ArialMT,Arial" font-size="30.0" fill="#000000" transform="matrix(1.00, 0.00, -0.00, -1.00, 565.2, 371.3)">s</text><text xml:space="preserve" font-family="ArialMT,Arial" font-size="30.0" fill="#000000" transform="matrix(1.00, 0.00, -0.00, -1.00, 580.2, 371.3)">h</text><text xml:space="preserve" font-family="ArialMT,Arial" font-size="30.0" fill="#000000" transform="matrix(1.00, 0.00, -0.00, -1.00, 596.8, 371.3)">a</text><text xml:space="preserve" font-family="ArialMT,Arial" font-size="30.0" fill="#000000" transform="matrix(1.00, 0.00, -0.00, -1.00, 613.5, 371.3)">r</text><text xml:space="preserve" font-family="ArialMT,Arial" font-size="30.0" fill="#000000" transform="matrix(1.00, 0.00, -0.00, -1.00, 623.5, 371.3)">e</text><text xml:space="preserve" font-family="ArialMT,Arial" font-size="30.0" fill="#000000" transform="matrix(1.00, 0.00, -0.00, -1.00, 640.2, 371.3)">d</text><text xml:space="preserve" font-family="ArialMT,Arial" font-size="30.0" fill="#000000" transform="matrix(1.00, 0.00, -0.00, -1.00, 656.9, 371.3)"> </text><text xml:space="preserve" font-family="ArialMT,Arial" font-size="30.0" fill="#000000" transform="matrix(1.00, 0.00, -0.00, -1.00, 88.2, 337.3)">b</text><text xml:space="preserve" font-family="ArialMT,Arial" font-size="30.0" fill="#000000" transform="matrix(1.00, 0.00, -0.00, -1.00, 104.9, 337.3)">y</text><text xml:space="preserve" font-family="ArialMT,Arial" font-size="30.0" fill="#000000" transform="matrix(1.00, 0.00, -0.00, -1.00, 119.9, 337.3)"> </text><text xml:space="preserve" font-family="ArialMT,Arial" font-size="30.0" fill="#000000" transform="matrix(1.00, 0.00, -0.00, -1.00, 128.2, 337.3)">d</text><text xml:space="preserve" font-family="ArialMT,Arial" font-size="30.0" fill="#000000" transform="matrix(1.00, 0.00, -0.00, -1.00, 144.9, 337.3)">i</text><text xml:space="preserve" font-family="ArialMT,Arial" font-size="30.0" fill="#000000" transform="matrix(1.00, 0.00, -0.00, -1.00, 151.6, 337.3)">d</text><text xml:space="preserve" font-family="ArialMT,Arial" font-size="30.0" fill="#000000" transform="matrix(1.00, 0.00, -0.00, -1.00, 168.3, 337.3)">a</text><text xml:space="preserve" font-family="ArialMT,Arial" font-size="30.0" fill="#000000" transform="matrix(1.00, 0.00, -0.00, -1.00, 185.0, 337.3)">c</text><text xml:space="preserve" font-family="ArialMT,Arial" font-size="30.0" fill="#000000" transform="matrix(1.00, 0.00, -0.00, -1.00, 200.0, 337.3)">t</text><text xml:space="preserve" font-family="ArialMT,Arial" font-size="30.0" fill="#000000" transform="matrix(1.00, 0.00, -0.00, -1.00, 208.3, 337.3)">o</text><text xml:space="preserve" font-family="ArialMT,Arial" font-size="30.0" fill="#000000" transform="matrix(1.00, 0.00, -0.00, -1.00, 225.0, 337.3)">m</text><text xml:space="preserve" font-family="ArialMT,Arial" font-size="30.0" fill="#000000" transform="matrix(1.00, 0.00, -0.00, -1.00, 250.0, 337.3)">o</text><text xml:space="preserve" font-family="ArialMT,Arial" font-size="30.0" fill="#000000" transform="matrix(1.00, 0.00, -0.00, -1.00, 266.7, 337.3)">r</text><text xml:space="preserve" font-family="ArialMT,Arial" font-size="30.0" fill="#000000" transform="matrix(1.00, 0.00, -0.00, -1.00, 276.7, 337.3)">p</text><text xml:space="preserve" font-family="ArialMT,Arial" font-size="30.0" fill="#000000" transform="matrix(1.00, 0.00, -0.00, -1.00, 293.3, 337.3)">h</text><text xml:space="preserve" font-family="ArialMT,Arial" font-size="30.0" fill="#000000" transform="matrix(1.00, 0.00, -0.00, -1.00, 310.0, 337.3)">s</text><text xml:space="preserve" font-family="ArialMT,Arial" font-size="30.0" fill="#000000" transform="matrix(1.00, 0.00, -0.00, -1.00, 325.0, 337.3)"> </text><text xml:space="preserve" font-family="ArialMT,Arial" font-size="30.0" fill="#000000" transform="matrix(1.00, 0.00, -0.00, -1.00, 333.4, 337.3)">a</text><text xml:space="preserve" font-family="ArialMT,Arial" font-size="30.0" fill="#000000" transform="matrix(1.00, 0.00, -0.00, -1.00, 350.1, 337.3)">n</text><text xml:space="preserve" font-family="ArialMT,Arial" font-size="30.0" fill="#000000" transform="matrix(1.00, 0.00, -0.00, -1.00, 366.7, 337.3)">d</text><text xml:space="preserve" font-family="ArialMT,Arial" font-size="30.0" fill="#000000" transform="matrix(1.00, 0.00, -0.00, -1.00, 383.4, 337.3)"> </text><text xml:space="preserve" font-family="ArialMT,Arial" font-size="30.0" fill="#000000" transform="matrix(1.00, 0.00, -0.00, -1.00, 391.8, 337.3)">a</text><text xml:space="preserve" font-family="ArialMT,Arial" font-size="30.0" fill="#000000" transform="matrix(1.00, 0.00, -0.00, -1.00, 408.5, 337.3)">m</text><text xml:space="preserve" font-family="ArialMT,Arial" font-size="30.0" fill="#000000" transform="matrix(1.00, 0.00, -0.00, -1.00, 433.4, 337.3)">n</text><text xml:space="preserve" font-family="ArialMT,Arial" font-size="30.0" fill="#000000" transform="matrix(1.00, 0.00, -0.00, -1.00, 450.1, 337.3)">i</text><text xml:space="preserve" font-family="ArialMT,Arial" font-size="30.0" fill="#000000" transform="matrix(1.00, 0.00, -0.00, -1.00, 456.8, 337.3)">o</text><text xml:space="preserve" font-family="ArialMT,Arial" font-size="30.0" fill="#000000" transform="matrix(1.00, 0.00, -0.00, -1.00, 473.5, 337.3)">t</text><text xml:space="preserve" font-family="ArialMT,Arial" font-size="30.0" fill="#000000" transform="matrix(1.00, 0.00, -0.00, -1.00, 481.8, 337.3)">e</text><text xml:space="preserve" font-family="ArialMT,Arial" font-size="30.0" fill="#000000" transform="matrix(1.00, 0.00, -0.00, -1.00, 498.5, 337.3)">s</text><text xml:space="preserve" font-family="ArialMT,Arial" font-size="30.0" fill="#000000" transform="matrix(1.00, 0.00, -0.00, -1.00, 513.5, 337.3)"> </text><text xml:space="preserve" font-family="ArialMT,Arial" font-size="30.0" fill="#000000" transform="matrix(1.00, 0.00, -0.00, -1.00, 61.2, 295.9)">•</text><text xml:space="preserve" font-family="ArialMT,Arial" font-size="30.0" fill="#000000" transform="matrix(1.00, 0.00, -0.00, -1.00, 88.2, 295.9)">S</text><text xml:space="preserve" font-family="ArialMT,Arial" font-size="30.0" fill="#000000" transform="matrix(1.00, 0.00, -0.00, -1.00, 108.2, 295.9)">o</text><text xml:space="preserve" font-family="ArialMT,Arial" font-size="30.0" fill="#000000" transform="matrix(1.00, 0.00, -0.00, -1.00, 124.9, 295.9)">o</text><text xml:space="preserve" font-family="ArialMT,Arial" font-size="30.0" fill="#000000" transform="matrix(1.00, 0.00, -0.00, -1.00, 141.6, 295.9)">n</text><text xml:space="preserve" font-family="ArialMT,Arial" font-size="30.0" fill="#000000" transform="matrix(1.00, 0.00, -0.00, -1.00, 158.3, 295.9)"> </text><text xml:space="preserve" font-family="ArialMT,Arial" font-size="30.0" fill="#000000" transform="matrix(1.00, 0.00, -0.00, -1.00, 166.6, 295.9)">a</text><text xml:space="preserve" font-family="ArialMT,Arial" font-size="30.0" fill="#000000" transform="matrix(1.00, 0.00, -0.00, -1.00, 183.3, 295.9)">f</text><text xml:space="preserve" font-family="ArialMT,Arial" font-size="30.0" fill="#000000" transform="matrix(1.00, 0.00, -0.00, -1.00, 191.6, 295.9)">t</text><text xml:space="preserve" font-family="ArialMT,Arial" font-size="30.0" fill="#000000" transform="matrix(1.00, 0.00, -0.00, -1.00, 200.0, 295.9)">e</text><text xml:space="preserve" font-family="ArialMT,Arial" font-size="30.0" fill="#000000" transform="matrix(1.00, 0.00, -0.00, -1.00, 216.6, 295.9)">r</text><text xml:space="preserve" font-family="ArialMT,Arial" font-size="30.0" fill="#000000" transform="matrix(1.00, 0.00, -0.00, -1.00, 225.0, 295.9)">,</text><text xml:space="preserve" font-family="ArialMT,Arial" font-size="30.0" fill="#000000" transform="matrix(1.00, 0.00, -0.00, -1.00, 233.3, 295.9)"> </text><text xml:space="preserve" font-family="ArialMT,Arial" font-size="30.0" fill="#000000" transform="matrix(1.00, 0.00, -0.00, -1.00, 241.6, 295.9)">t</text><text xml:space="preserve" font-family="ArialMT,Arial" font-size="30.0" fill="#000000" transform="matrix(1.00, 0.00, -0.00, -1.00, 250.0, 295.9)">h</text><text xml:space="preserve" font-family="ArialMT,Arial" font-size="30.0" fill="#000000" transform="matrix(1.00, 0.00, -0.00, -1.00, 266.7, 295.9)">e</text><text xml:space="preserve" font-family="ArialMT,Arial" font-size="30.0" fill="#000000" transform="matrix(1.00, 0.00, -0.00, -1.00, 283.4, 295.9)">r</text><text xml:space="preserve" font-family="ArialMT,Arial" font-size="30.0" fill="#000000" transform="matrix(1.00, 0.00, -0.00, -1.00, 293.3, 295.9)">e</text><text xml:space="preserve" font-family="ArialMT,Arial" font-size="30.0" fill="#000000" transform="matrix(1.00, 0.00, -0.00, -1.00, 310.0, 295.9)"> </text><text xml:space="preserve" font-family="ArialMT,Arial" font-size="30.0" fill="#000000" transform="matrix(1.00, 0.00, -0.00, -1.00, 318.4, 295.9)">i</text><text xml:space="preserve" font-family="ArialMT,Arial" font-size="30.0" fill="#000000" transform="matrix(1.00, 0.00, -0.00, -1.00, 325.0, 295.9)">s</text><text xml:space="preserve" font-family="ArialMT,Arial" font-size="30.0" fill="#000000" transform="matrix(1.00, 0.00, -0.00, -1.00, 340.0, 295.9)"> </text><text xml:space="preserve" font-family="ArialMT,Arial" font-size="30.0" fill="#000000" transform="matrix(1.00, 0.00, -0.00, -1.00, 348.4, 295.9)">a</text><text xml:space="preserve" font-family="ArialMT,Arial" font-size="30.0" fill="#000000" transform="matrix(1.00, 0.00, -0.00, -1.00, 365.1, 295.9)"> </text><text xml:space="preserve" font-family="ArialMT,Arial" font-size="30.0" fill="#000000" transform="matrix(1.00, 0.00, -0.00, -1.00, 373.4, 295.9)">m</text><text xml:space="preserve" font-family="ArialMT,Arial" font-size="30.0" fill="#000000" transform="matrix(1.00, 0.00, -0.00, -1.00, 398.4, 295.9)">a</text><text xml:space="preserve" font-family="ArialMT,Arial" font-size="30.0" fill="#000000" transform="matrix(1.00, 0.00, -0.00, -1.00, 415.1, 295.9)">j</text><text xml:space="preserve" font-family="ArialMT,Arial" font-size="30.0" fill="#000000" transform="matrix(1.00, 0.00, -0.00, -1.00, 421.7, 295.9)">o</text><text xml:space="preserve" font-family="ArialMT,Arial" font-size="30.0" fill="#000000" transform="matrix(1.00, 0.00, -0.00, -1.00, 438.4, 295.9)">r</text><text xml:space="preserve" font-family="ArialMT,Arial" font-size="30.0" fill="#000000" transform="matrix(1.00, 0.00, -0.00, -1.00, 448.4, 295.9)"> </text><text xml:space="preserve" font-family="ArialMT,Arial" font-size="30.0" fill="#000000" transform="matrix(1.00, 0.00, -0.00, -1.00, 456.7, 295.9)">s</text><text xml:space="preserve" font-family="ArialMT,Arial" font-size="30.0" fill="#000000" transform="matrix(1.00, 0.00, -0.00, -1.00, 471.7, 295.9)">p</text><text xml:space="preserve" font-family="ArialMT,Arial" font-size="30.0" fill="#000000" transform="matrix(1.00, 0.00, -0.00, -1.00, 488.4, 295.9)">l</text><text xml:space="preserve" font-family="ArialMT,Arial" font-size="30.0" fill="#000000" transform="matrix(1.00, 0.00, -0.00, -1.00, 495.1, 295.9)">i</text><text xml:space="preserve" font-family="ArialMT,Arial" font-size="30.0" fill="#000000" transform="matrix(1.00, 0.00, -0.00, -1.00, 501.8, 295.9)">t</text><text xml:space="preserve" font-family="ArialMT,Arial" font-size="30.0" fill="#000000" transform="matrix(1.00, 0.00, -0.00, -1.00, 510.1, 295.9)"> </text><text xml:space="preserve" font-family="ArialMT,Arial" font-size="30.0" fill="#000000" transform="matrix(1.00, 0.00, -0.00, -1.00, 518.4, 295.9)">i</text><text xml:space="preserve" font-family="ArialMT,Arial" font-size="30.0" fill="#000000" transform="matrix(1.00, 0.00, -0.00, -1.00, 525.1, 295.9)">n</text><text xml:space="preserve" font-family="ArialMT,Arial" font-size="30.0" fill="#000000" transform="matrix(1.00, 0.00, -0.00, -1.00, 541.8, 295.9)"> </text><text xml:space="preserve" font-family="ArialMT,Arial" font-size="30.0" fill="#000000" transform="matrix(1.00, 0.00, -0.00, -1.00, 550.1, 295.9)">t</text><text xml:space="preserve" font-family="ArialMT,Arial" font-size="30.0" fill="#000000" transform="matrix(1.00, 0.00, -0.00, -1.00, 558.5, 295.9)">h</text><text xml:space="preserve" font-family="ArialMT,Arial" font-size="30.0" fill="#000000" transform="matrix(1.00, 0.00, -0.00, -1.00, 575.1, 295.9)">e</text><text xml:space="preserve" font-family="ArialMT,Arial" font-size="30.0" fill="#000000" transform="matrix(1.00, 0.00, -0.00, -1.00, 591.8, 295.9)"> </text><text xml:space="preserve" font-family="ArialMT,Arial" font-size="30.0" fill="#000000" transform="matrix(1.00, 0.00, -0.00, -1.00, 88.2, 261.9)">a</text><text xml:space="preserve" font-family="ArialMT,Arial" font-size="30.0" fill="#000000" transform="matrix(1.00, 0.00, -0.00, -1.00, 104.9, 261.9)">m</text><text xml:space="preserve" font-family="ArialMT,Arial" font-size="30.0" fill="#000000" transform="matrix(1.00, 0.00, -0.00, -1.00, 129.9, 261.9)">n</text><text xml:space="preserve" font-family="ArialMT,Arial" font-size="30.0" fill="#000000" transform="matrix(1.00, 0.00, -0.00, -1.00, 146.6, 261.9)">i</text><text xml:space="preserve" font-family="ArialMT,Arial" font-size="30.0" fill="#000000" transform="matrix(1.00, 0.00, -0.00, -1.00, 153.2, 261.9)">o</text><text xml:space="preserve" font-family="ArialMT,Arial" font-size="30.0" fill="#000000" transform="matrix(1.00, 0.00, -0.00, -1.00, 169.9, 261.9)">t</text><text xml:space="preserve" font-family="ArialMT,Arial" font-size="30.0" fill="#000000" transform="matrix(1.00, 0.00, -0.00, -1.00, 178.3, 261.9)">e</text><text xml:space="preserve" font-family="ArialMT,Arial" font-size="30.0" fill="#000000" transform="matrix(1.00, 0.00, -0.00, -1.00, 195.0, 261.9)">s</text><g><clipPath id="clip0x6080024bc140"><path d="M 138.0 37.0 L 602.0 37.0 L 602.0 210.0 L 138.0 210.0 Z M 138.0 37.0 "></path></clipPath><g clip-path="url(#clip0x6080024bc140)"><path d="M 138.0 210.0 L 602.0 210.0 L 602.0 37.0 L 138.0 37.0 Z M 138.0 210.0 " fill="#FFFFFF"></path><image xlink:href="../../A6F2F9ED-85D7-4DB4-AF2C-235555125532/assets/081B089A5B46E640A05D02FA3416C0DC.png" width="800.00" height="298.00" transform="matrix(0.58, 0.00, -0.00, -0.58, 138.0, 210.0)"></image></g></g><text xml:space="preserve" font-family="ArialMT,Arial" font-size="22.0" fill="#000000" transform="matrix(1.00, 0.00, -0.00, -1.00, 223.2, 29.4)">D</text><text xml:space="preserve" font-family="ArialMT,Arial" font-size="22.0" fill="#000000" transform="matrix(1.00, 0.00, -0.00, -1.00, 239.1, 29.4)">i</text><text xml:space="preserve" font-family="ArialMT,Arial" font-size="22.0" fill="#000000" transform="matrix(1.00, 0.00, -0.00, -1.00, 244.0, 29.4)">a</text><text xml:space="preserve" font-family="ArialMT,Arial" font-size="22.0" fill="#000000" transform="matrix(1.00, 0.00, -0.00, -1.00, 256.2, 29.4)">d</text><text xml:space="preserve" font-family="ArialMT,Arial" font-size="22.0" fill="#000000" transform="matrix(1.00, 0.00, -0.00, -1.00, 268.5, 29.4)">e</text><text xml:space="preserve" font-family="ArialMT,Arial" font-size="22.0" fill="#000000" transform="matrix(1.00, 0.00, -0.00, -1.00, 280.7, 29.4)">c</text><text xml:space="preserve" font-family="ArialMT,Arial" font-size="22.0" fill="#000000" transform="matrix(1.00, 0.00, -0.00, -1.00, 291.7, 29.4)">t</text><text xml:space="preserve" font-family="ArialMT,Arial" font-size="22.0" fill="#000000" transform="matrix(1.00, 0.00, -0.00, -1.00, 297.8, 29.4)">e</text><text xml:space="preserve" font-family="ArialMT,Arial" font-size="22.0" fill="#000000" transform="matrix(1.00, 0.00, -0.00, -1.00, 310.1, 29.4)">s</text><text xml:space="preserve" font-family="ArialMT,Arial" font-size="22.0" fill="#000000" transform="matrix(1.00, 0.00, -0.00, -1.00, 321.1, 29.4)">,</text><text xml:space="preserve" font-family="ArialMT,Arial" font-size="22.0" fill="#000000" transform="matrix(1.00, 0.00, -0.00, -1.00, 327.2, 29.4)"> </text><text xml:space="preserve" font-family="ArialMT,Arial" font-size="22.0" fill="#000000" transform="matrix(1.00, 0.00, -0.00, -1.00, 333.3, 29.4)">f</text><text xml:space="preserve" font-family="ArialMT,Arial" font-size="22.0" fill="#000000" transform="matrix(1.00, 0.00, -0.00, -1.00, 339.4, 29.4)">r</text><text xml:space="preserve" font-family="ArialMT,Arial" font-size="22.0" fill="#000000" transform="matrix(1.00, 0.00, -0.00, -1.00, 346.7, 29.4)">o</text><text xml:space="preserve" font-family="ArialMT,Arial" font-size="22.0" fill="#000000" transform="matrix(1.00, 0.00, -0.00, -1.00, 358.9, 29.4)">m</text><text xml:space="preserve" font-family="ArialMT,Arial" font-size="22.0" fill="#000000" transform="matrix(1.00, 0.00, -0.00, -1.00, 377.3, 29.4)"> </text><text xml:space="preserve" font-family="ArialMT,Arial" font-size="22.0" fill="#000000" transform="matrix(1.00, 0.00, -0.00, -1.00, 383.4, 29.4)">w</text><text xml:space="preserve" font-family="ArialMT,Arial" font-size="22.0" fill="#000000" transform="matrix(1.00, 0.00, -0.00, -1.00, 399.3, 29.4)">i</text><text xml:space="preserve" font-family="ArialMT,Arial" font-size="22.0" fill="#000000" transform="matrix(1.00, 0.00, -0.00, -1.00, 404.2, 29.4)">k</text><text xml:space="preserve" font-family="ArialMT,Arial" font-size="22.0" fill="#000000" transform="matrix(1.00, 0.00, -0.00, -1.00, 415.2, 29.4)">i</text><text xml:space="preserve" font-family="ArialMT,Arial" font-size="22.0" fill="#000000" transform="matrix(1.00, 0.00, -0.00, -1.00, 420.1, 29.4)">p</text><text xml:space="preserve" font-family="ArialMT,Arial" font-size="22.0" fill="#000000" transform="matrix(1.00, 0.00, -0.00, -1.00, 432.3, 29.4)">e</text><text xml:space="preserve" font-family="ArialMT,Arial" font-size="22.0" fill="#000000" transform="matrix(1.00, 0.00, -0.00, -1.00, 444.5, 29.4)">d</text><text xml:space="preserve" font-family="ArialMT,Arial" font-size="22.0" fill="#000000" transform="matrix(1.00, 0.00, -0.00, -1.00, 456.8, 29.4)">i</text><text xml:space="preserve" font-family="ArialMT,Arial" font-size="22.0" fill="#000000" transform="matrix(1.00, 0.00, -0.00, -1.00, 461.7, 29.4)">a</text></g></svg>