<?xml version="1.0" encoding="UTF-8" standalone="no"?><svg xmlns="http://www.w3.org/2000/svg" xmlns:xlink="http://www.w3.org/1999/xlink" clip-rule="evenodd" stroke-miterlimit="10" viewBox="0 0 407 371"><desc>SVG generated by Keynote</desc><defs></defs><g transform="matrix(1.00, 0.00, -0.00, -1.00, 0.0, 371.0)"><g><clipPath id="clip0x7fbd956cd9c0"><path d="M 125.5 304.9 L 171.6 304.9 L 171.6 378.1 L 125.5 378.1 Z M 125.5 304.9 "></path></clipPath><g clip-path="url(#clip0x7fbd956cd9c0)"><text xml:space="preserve" font-family="GillSans,Gill Sans" font-size="42.0" fill="#000000" transform="matrix(1.00, 0.00, -0.00, -1.00, 138.1, 326.7)">x</text></g></g><g><clipPath id="clip0x7fbd956e5100"><path d="M 0.0 62.5 L 298.0 62.5 L 298.0 286.0 L 0.0 286.0 Z M 0.0 62.5 "></path></clipPath><g clip-path="url(#clip0x7fbd956e5100)"><image xlink:href="61DE8D73C5889533B6541FECB96F1FDD.png" width="800.00" height="600.00" transform="matrix(0.37, 0.00, -0.00, -0.37, 0.0, 286.0)"></image></g></g><g><clipPath id="clip0x7fbd956e64c0"><path d="M 21.0 -7.1 L 276.2 -7.1 L 276.2 66.1 L 21.0 66.1 Z M 21.0 -7.1 "></path></clipPath><g clip-path="url(#clip0x7fbd956e64c0)"><text xml:space="preserve" font-family="GillSans-Italic,Gill Sans" font-style="italic" font-size="42.0" fill="#000000" transform="matrix(1.00, 0.00, -0.00, -1.00, 33.5, 14.7)">R</text><text xml:space="preserve" font-family="GillSans-Italic,Gill Sans" font-style="italic" font-size="42.0" fill="#000000" transform="matrix(1.00, 0.00, -0.00, -1.00, 55.8, 14.7)">.</text><text xml:space="preserve" font-family="GillSans-Italic,Gill Sans" font-style="italic" font-size="42.0" fill="#000000" transform="matrix(1.00, 0.00, -0.00, -1.00, 59.9, 14.7)"> </text><text xml:space="preserve" font-family="GillSans-Italic,Gill Sans" font-style="italic" font-size="42.0" fill="#000000" transform="matrix(1.00, 0.00, -0.00, -1.00, 71.6, 14.7)">l</text><text xml:space="preserve" font-family="GillSans-Italic,Gill Sans" font-style="italic" font-size="42.0" fill="#000000" transform="matrix(1.00, 0.00, -0.00, -1.00, 79.5, 14.7)">e</text><text xml:space="preserve" font-family="GillSans-Italic,Gill Sans" font-style="italic" font-size="42.0" fill="#000000" transform="matrix(1.00, 0.00, -0.00, -1.00, 97.9, 14.7)">s</text><text xml:space="preserve" font-family="GillSans-Italic,Gill Sans" font-style="italic" font-size="42.0" fill="#000000" transform="matrix(1.00, 0.00, -0.00, -1.00, 112.7, 14.7)">s</text><text xml:space="preserve" font-family="GillSans-Italic,Gill Sans" font-style="italic" font-size="42.0" fill="#000000" transform="matrix(1.00, 0.00, -0.00, -1.00, 127.6, 14.7)">o</text><text xml:space="preserve" font-family="GillSans-Italic,Gill Sans" font-style="italic" font-size="42.0" fill="#000000" transform="matrix(1.00, 0.00, -0.00, -1.00, 146.4, 14.7)">n</text><text xml:space="preserve" font-family="GillSans-Italic,Gill Sans" font-style="italic" font-size="42.0" fill="#000000" transform="matrix(1.00, 0.00, -0.00, -1.00, 166.2, 14.7)">a</text><text xml:space="preserve" font-family="GillSans-Italic,Gill Sans" font-style="italic" font-size="42.0" fill="#000000" transform="matrix(1.00, 0.00, -0.00, -1.00, 185.9, 14.7)">e</text><text xml:space="preserve" font-family="GillSans,Gill Sans" font-size="42.0" fill="#000000" transform="matrix(1.00, 0.00, -0.00, -1.00, 204.3, 14.7)"> </text><text xml:space="preserve" font-family="GillSans,Gill Sans" font-size="42.0" fill="#000000" transform="matrix(1.00, 0.00, -0.00, -1.00, 215.9, 14.7)">(</text><text xml:space="preserve" font-family="GillSans,Gill Sans" font-size="42.0" fill="#000000" transform="matrix(1.00, 0.00, -0.00, -1.00, 229.5, 14.7)">L</text><text xml:space="preserve" font-family="GillSans,Gill Sans" font-size="42.0" fill="#000000" transform="matrix(1.00, 0.00, -0.00, -1.00, 250.1, 14.7)">)</text></g></g><g><clipPath id="clip0x7fbd956f10b0"><path d="M 395.5 224.5 C 408.2 211.8 408.2 191.2 395.5 178.5 C 382.8 165.8 362.2 165.8 349.5 178.5 C 336.8 191.2 336.8 211.8 349.5 224.5 C 362.2 237.2 382.8 237.2 395.5 224.5 "></path></clipPath><g clip-path="url(#clip0x7fbd956f10b0)"><g><clipPath id="clip0x7fbd956f1920"><path d="M 338.0 167.0 L 407.0 167.0 L 407.0 236.0 L 338.0 236.0 Z M 338.0 167.0 "></path></clipPath><g clip-path="url(#clip0x7fbd956f1920)"><image xlink:href="../../9D8150EA-3D34-4856-BCE2-BE38EADF62D9/assets/D49104237B6EEC8B7192E15227E1FFFD.jpeg" width="300.00" height="300.00" transform="matrix(1.00, 0.00, -0.00, -1.00, 340.0, 234.0)"></image></g></g></g></g><g><clipPath id="clip0x7fbd96119300"><path d="M 338.0 167.0 L 407.0 167.0 L 407.0 236.0 L 338.0 236.0 Z M 338.0 167.0 "></path></clipPath><g clip-path="url(#clip0x7fbd96119300)"><path d="M 55.5 9.5 C 68.2 22.2 68.2 42.8 55.5 55.5 C 42.8 68.2 22.2 68.2 9.5 55.5 C -3.2 42.8 -3.2 22.2 9.5 9.5 C 22.2 -3.2 42.8 -3.2 55.5 9.5 " fill="none" stroke="#000000" stroke-width="2.00" transform="matrix(1.00, 0.00, 0.00, -1.00, 340.0, 234.0)"></path></g></g><image xlink:href="8D0E68CAE7AD005274267FAF01CE9BAE.png" width="23.00" height="34.00" transform="matrix(1.00, 0.00, -0.00, -1.00, 362.0, 217.0)"></image><g><clipPath id="clip0x7fbd956f2a80"><path d="M 340.0 163.0 L 405.0 163.0 L 405.0 238.0 L 340.0 238.0 Z M 340.0 163.0 "></path></clipPath><g clip-path="url(#clip0x7fbd956f2a80)"><text xml:space="preserve" font-family="GillSans,Gill Sans" font-size="40.0" fill="#FEFFFF" transform="matrix(1.00, 0.00, -0.00, -1.00, 362.7, 187.7)">L</text></g></g><g><clipPath id="clip0x7fbd9576eb10"><path d="M 395.5 142.5 C 408.2 129.8 408.2 109.2 395.5 96.5 C 382.8 83.8 362.2 83.8 349.5 96.5 C 336.8 109.2 336.8 129.8 349.5 142.5 C 362.2 155.2 382.8 155.2 395.5 142.5 "></path></clipPath><g clip-path="url(#clip0x7fbd9576eb10)"><g><clipPath id="clip0x7fbd9576f320"><path d="M 338.0 85.0 L 407.0 85.0 L 407.0 154.0 L 338.0 154.0 Z M 338.0 85.0 "></path></clipPath><g clip-path="url(#clip0x7fbd9576f320)"><image xlink:href="../../9D8150EA-3D34-4856-BCE2-BE38EADF62D9/assets/D49104237B6EEC8B7192E15227E1FFFD.jpeg" width="300.00" height="300.00" transform="matrix(1.00, 0.00, -0.00, -1.00, 340.0, 152.0)"></image></g></g></g></g><g><clipPath id="clip0x7fbd960281f0"><path d="M 338.0 85.0 L 407.0 85.0 L 407.0 154.0 L 338.0 154.0 Z M 338.0 85.0 "></path></clipPath><g clip-path="url(#clip0x7fbd960281f0)"><path d="M 55.5 9.5 C 68.2 22.2 68.2 42.8 55.5 55.5 C 42.8 68.2 22.2 68.2 9.5 55.5 C -3.2 42.8 -3.2 22.2 9.5 9.5 C 22.2 -3.2 42.8 -3.2 55.5 9.5 " fill="none" stroke="#000000" stroke-width="2.00" transform="matrix(1.00, 0.00, 0.00, -1.00, 340.0, 152.0)"></path></g></g><image xlink:href="../../D4BC38C2-3481-47AE-94C2-36115222C330/assets/8D0E68CAE7AD005274267FAF01CE9BAE.png" width="23.00" height="34.00" transform="matrix(1.00, 0.00, -0.00, -1.00, 362.0, 135.0)"></image><g><clipPath id="clip0x7fbd9602a410"><path d="M 340.0 81.0 L 405.0 81.0 L 405.0 156.0 L 340.0 156.0 Z M 340.0 81.0 "></path></clipPath><g clip-path="url(#clip0x7fbd9602a410)"><text xml:space="preserve" font-family="GillSans,Gill Sans" font-size="40.0" fill="#FEFFFF" transform="matrix(1.00, 0.00, -0.00, -1.00, 362.7, 105.7)">L</text></g></g></g></svg>