<?xml version="1.0" encoding="UTF-8" standalone="no"?><svg xmlns="http://www.w3.org/2000/svg" xmlns:xlink="http://www.w3.org/1999/xlink" clip-rule="evenodd" stroke-miterlimit="10" viewBox="0 0 1024 768"><desc>SVG generated by Keynote</desc><defs></defs><g transform="matrix(1.00, 0.00, -0.00, -1.00, 0.0, 768.0)"><path d="M 0.0 768.0 L 1024.0 768.0 L 1024.0 0.0 L 0.0 0.0 Z M 0.0 768.0 " fill="#FEFFFF"></path><text xml:space="preserve" font-family="ArialMT,Arial" font-size="62.0" fill="#000000" transform="matrix(1.00, 0.00, -0.00, -1.00, 186.3, 614.8)">B</text><text xml:space="preserve" font-family="ArialMT,Arial" font-size="62.0" fill="#000000" transform="matrix(1.00, 0.00, -0.00, -1.00, 227.7, 614.8)">r</text><text xml:space="preserve" font-family="ArialMT,Arial" font-size="62.0" fill="#000000" transform="matrix(1.00, 0.00, -0.00, -1.00, 248.3, 614.8)">e</text><text xml:space="preserve" font-family="ArialMT,Arial" font-size="62.0" fill="#000000" transform="matrix(1.00, 0.00, -0.00, -1.00, 282.8, 614.8)">a</text><text xml:space="preserve" font-family="ArialMT,Arial" font-size="62.0" fill="#000000" transform="matrix(1.00, 0.00, -0.00, -1.00, 317.3, 614.8)">t</text><text xml:space="preserve" font-family="ArialMT,Arial" font-size="62.0" fill="#000000" transform="matrix(1.00, 0.00, -0.00, -1.00, 334.5, 614.8)">h</text><text xml:space="preserve" font-family="ArialMT,Arial" font-size="62.0" fill="#000000" transform="matrix(1.00, 0.00, -0.00, -1.00, 369.0, 614.8)">i</text><text xml:space="preserve" font-family="ArialMT,Arial" font-size="62.0" fill="#000000" transform="matrix(1.00, 0.00, -0.00, -1.00, 382.8, 614.8)">n</text><text xml:space="preserve" font-family="ArialMT,Arial" font-size="62.0" fill="#000000" transform="matrix(1.00, 0.00, -0.00, -1.00, 417.3, 614.8)">g</text><text xml:space="preserve" font-family="ArialMT,Arial" font-size="62.0" fill="#000000" transform="matrix(1.00, 0.00, -0.00, -1.00, 451.8, 614.8)"> </text><text xml:space="preserve" font-family="ArialMT,Arial" font-size="62.0" fill="#000000" transform="matrix(1.00, 0.00, -0.00, -1.00, 469.0, 614.8)">i</text><text xml:space="preserve" font-family="ArialMT,Arial" font-size="62.0" fill="#000000" transform="matrix(1.00, 0.00, -0.00, -1.00, 482.8, 614.8)">n</text><text xml:space="preserve" font-family="ArialMT,Arial" font-size="62.0" fill="#000000" transform="matrix(1.00, 0.00, -0.00, -1.00, 517.3, 614.8)"> </text><text xml:space="preserve" font-family="ArialMT,Arial" font-size="62.0" fill="#000000" transform="matrix(1.00, 0.00, -0.00, -1.00, 534.5, 614.8)">s</text><text xml:space="preserve" font-family="ArialMT,Arial" font-size="62.0" fill="#000000" transform="matrix(1.00, 0.00, -0.00, -1.00, 565.5, 614.8)">q</text><text xml:space="preserve" font-family="ArialMT,Arial" font-size="62.0" fill="#000000" transform="matrix(1.00, 0.00, -0.00, -1.00, 600.0, 614.8)">u</text><text xml:space="preserve" font-family="ArialMT,Arial" font-size="62.0" fill="#000000" transform="matrix(1.00, 0.00, -0.00, -1.00, 634.5, 614.8)">a</text><text xml:space="preserve" font-family="ArialMT,Arial" font-size="62.0" fill="#000000" transform="matrix(1.00, 0.00, -0.00, -1.00, 669.0, 614.8)">m</text><text xml:space="preserve" font-family="ArialMT,Arial" font-size="62.0" fill="#000000" transform="matrix(1.00, 0.00, -0.00, -1.00, 720.6, 614.8)">a</text><text xml:space="preserve" font-family="ArialMT,Arial" font-size="62.0" fill="#000000" transform="matrix(1.00, 0.00, -0.00, -1.00, 755.1, 614.8)">t</text><text xml:space="preserve" font-family="ArialMT,Arial" font-size="62.0" fill="#000000" transform="matrix(1.00, 0.00, -0.00, -1.00, 772.3, 614.8)">e</text><text xml:space="preserve" font-family="ArialMT,Arial" font-size="62.0" fill="#000000" transform="matrix(1.00, 0.00, -0.00, -1.00, 806.8, 614.8)">s</text><text xml:space="preserve" font-family="ArialMT,Arial" font-size="44.0" fill="#000000" transform="matrix(1.00, 0.00, -0.00, -1.00, 85.7, 501.2)">•</text><text xml:space="preserve" font-family="ArialMT,Arial" font-size="44.0" fill="#000000" transform="matrix(1.00, 0.00, -0.00, -1.00, 122.8, 501.2)">L</text><text xml:space="preserve" font-family="ArialMT,Arial" font-size="44.0" fill="#000000" transform="matrix(1.00, 0.00, -0.00, -1.00, 147.3, 501.2)">i</text><text xml:space="preserve" font-family="ArialMT,Arial" font-size="44.0" fill="#000000" transform="matrix(1.00, 0.00, -0.00, -1.00, 157.1, 501.2)">z</text><text xml:space="preserve" font-family="ArialMT,Arial" font-size="44.0" fill="#000000" transform="matrix(1.00, 0.00, -0.00, -1.00, 179.1, 501.2)">a</text><text xml:space="preserve" font-family="ArialMT,Arial" font-size="44.0" fill="#000000" transform="matrix(1.00, 0.00, -0.00, -1.00, 203.6, 501.2)">r</text><text xml:space="preserve" font-family="ArialMT,Arial" font-size="44.0" fill="#000000" transform="matrix(1.00, 0.00, -0.00, -1.00, 218.2, 501.2)">d</text><text xml:space="preserve" font-family="ArialMT,Arial" font-size="44.0" fill="#000000" transform="matrix(1.00, 0.00, -0.00, -1.00, 242.7, 501.2)">s</text><text xml:space="preserve" font-family="ArialMT,Arial" font-size="44.0" fill="#000000" transform="matrix(1.00, 0.00, -0.00, -1.00, 264.7, 501.2)"> </text><text xml:space="preserve" font-family="ArialMT,Arial" font-size="44.0" fill="#000000" transform="matrix(1.00, 0.00, -0.00, -1.00, 276.9, 501.2)">c</text><text xml:space="preserve" font-family="ArialMT,Arial" font-size="44.0" fill="#000000" transform="matrix(1.00, 0.00, -0.00, -1.00, 298.9, 501.2)">a</text><text xml:space="preserve" font-family="ArialMT,Arial" font-size="44.0" fill="#000000" transform="matrix(1.00, 0.00, -0.00, -1.00, 323.4, 501.2)">n</text><text xml:space="preserve" font-family="ArialMT,Arial" font-size="44.0" fill="#000000" transform="matrix(1.00, 0.00, -0.00, -1.00, 347.9, 501.2)">’</text><text xml:space="preserve" font-family="ArialMT,Arial" font-size="44.0" fill="#000000" transform="matrix(1.00, 0.00, -0.00, -1.00, 357.6, 501.2)">t</text><text xml:space="preserve" font-family="ArialMT,Arial" font-size="44.0" fill="#000000" transform="matrix(1.00, 0.00, -0.00, -1.00, 369.9, 501.2)"> </text><text xml:space="preserve" font-family="ArialMT,Arial" font-size="44.0" fill="#000000" transform="matrix(1.00, 0.00, -0.00, -1.00, 382.1, 501.2)">r</text><text xml:space="preserve" font-family="ArialMT,Arial" font-size="44.0" fill="#000000" transform="matrix(1.00, 0.00, -0.00, -1.00, 396.7, 501.2)">u</text><text xml:space="preserve" font-family="ArialMT,Arial" font-size="44.0" fill="#000000" transform="matrix(1.00, 0.00, -0.00, -1.00, 421.2, 501.2)">n</text><text xml:space="preserve" font-family="ArialMT,Arial" font-size="44.0" fill="#000000" transform="matrix(1.00, 0.00, -0.00, -1.00, 445.7, 501.2)"> </text><text xml:space="preserve" font-family="ArialMT,Arial" font-size="44.0" fill="#000000" transform="matrix(1.00, 0.00, -0.00, -1.00, 457.9, 501.2)">a</text><text xml:space="preserve" font-family="ArialMT,Arial" font-size="44.0" fill="#000000" transform="matrix(1.00, 0.00, -0.00, -1.00, 482.4, 501.2)">n</text><text xml:space="preserve" font-family="ArialMT,Arial" font-size="44.0" fill="#000000" transform="matrix(1.00, 0.00, -0.00, -1.00, 506.9, 501.2)">d</text><text xml:space="preserve" font-family="ArialMT,Arial" font-size="44.0" fill="#000000" transform="matrix(1.00, 0.00, -0.00, -1.00, 531.3, 501.2)"> </text><text xml:space="preserve" font-family="ArialMT,Arial" font-size="44.0" fill="#000000" transform="matrix(1.00, 0.00, -0.00, -1.00, 543.6, 501.2)">b</text><text xml:space="preserve" font-family="ArialMT,Arial" font-size="44.0" fill="#000000" transform="matrix(1.00, 0.00, -0.00, -1.00, 568.0, 501.2)">r</text><text xml:space="preserve" font-family="ArialMT,Arial" font-size="44.0" fill="#000000" transform="matrix(1.00, 0.00, -0.00, -1.00, 582.7, 501.2)">e</text><text xml:space="preserve" font-family="ArialMT,Arial" font-size="44.0" fill="#000000" transform="matrix(1.00, 0.00, -0.00, -1.00, 607.2, 501.2)">a</text><text xml:space="preserve" font-family="ArialMT,Arial" font-size="44.0" fill="#000000" transform="matrix(1.00, 0.00, -0.00, -1.00, 631.7, 501.2)">t</text><text xml:space="preserve" font-family="ArialMT,Arial" font-size="44.0" fill="#000000" transform="matrix(1.00, 0.00, -0.00, -1.00, 643.9, 501.2)">h</text><text xml:space="preserve" font-family="ArialMT,Arial" font-size="44.0" fill="#000000" transform="matrix(1.00, 0.00, -0.00, -1.00, 668.3, 501.2)">e</text><text xml:space="preserve" font-family="ArialMT,Arial" font-size="44.0" fill="#000000" transform="matrix(1.00, 0.00, -0.00, -1.00, 692.8, 501.2)"> </text><text xml:space="preserve" font-family="ArialMT,Arial" font-size="44.0" fill="#000000" transform="matrix(1.00, 0.00, -0.00, -1.00, 705.0, 501.2)">a</text><text xml:space="preserve" font-family="ArialMT,Arial" font-size="44.0" fill="#000000" transform="matrix(1.00, 0.00, -0.00, -1.00, 729.5, 501.2)">t</text><text xml:space="preserve" font-family="ArialMT,Arial" font-size="44.0" fill="#000000" transform="matrix(1.00, 0.00, -0.00, -1.00, 741.7, 501.2)"> </text><text xml:space="preserve" font-family="ArialMT,Arial" font-size="44.0" fill="#000000" transform="matrix(1.00, 0.00, -0.00, -1.00, 754.0, 501.2)">t</text><text xml:space="preserve" font-family="ArialMT,Arial" font-size="44.0" fill="#000000" transform="matrix(1.00, 0.00, -0.00, -1.00, 766.2, 501.2)">h</text><text xml:space="preserve" font-family="ArialMT,Arial" font-size="44.0" fill="#000000" transform="matrix(1.00, 0.00, -0.00, -1.00, 790.6, 501.2)">e</text><text xml:space="preserve" font-family="ArialMT,Arial" font-size="44.0" fill="#000000" transform="matrix(1.00, 0.00, -0.00, -1.00, 815.1, 501.2)"> </text><text xml:space="preserve" font-family="ArialMT,Arial" font-size="44.0" fill="#000000" transform="matrix(1.00, 0.00, -0.00, -1.00, 827.3, 501.2)">s</text><text xml:space="preserve" font-family="ArialMT,Arial" font-size="44.0" fill="#000000" transform="matrix(1.00, 0.00, -0.00, -1.00, 849.3, 501.2)">a</text><text xml:space="preserve" font-family="ArialMT,Arial" font-size="44.0" fill="#000000" transform="matrix(1.00, 0.00, -0.00, -1.00, 873.8, 501.2)">m</text><text xml:space="preserve" font-family="ArialMT,Arial" font-size="44.0" fill="#000000" transform="matrix(1.00, 0.00, -0.00, -1.00, 910.5, 501.2)">e</text><text xml:space="preserve" font-family="ArialMT,Arial" font-size="44.0" fill="#000000" transform="matrix(1.00, 0.00, -0.00, -1.00, 935.0, 501.2)"> </text><text xml:space="preserve" font-family="ArialMT,Arial" font-size="44.0" fill="#000000" transform="matrix(1.00, 0.00, -0.00, -1.00, 122.8, 451.2)">t</text><text xml:space="preserve" font-family="ArialMT,Arial" font-size="44.0" fill="#000000" transform="matrix(1.00, 0.00, -0.00, -1.00, 135.0, 451.2)">i</text><text xml:space="preserve" font-family="ArialMT,Arial" font-size="44.0" fill="#000000" transform="matrix(1.00, 0.00, -0.00, -1.00, 144.8, 451.2)">m</text><text xml:space="preserve" font-family="ArialMT,Arial" font-size="44.0" fill="#000000" transform="matrix(1.00, 0.00, -0.00, -1.00, 181.5, 451.2)">e</text><text xml:space="preserve" font-family="ArialMT,Arial" font-size="44.0" fill="#000000" transform="matrix(1.00, 0.00, -0.00, -1.00, 205.9, 451.2)"> </text><text xml:space="preserve" font-family="ArialMT,Arial" font-size="44.0" fill="#000000" transform="matrix(1.00, 0.00, -0.00, -1.00, 218.2, 451.2)">(</text><text xml:space="preserve" font-family="ArialMT,Arial" font-size="44.0" fill="#000000" transform="matrix(1.00, 0.00, -0.00, -1.00, 232.8, 451.2)">e</text><text xml:space="preserve" font-family="ArialMT,Arial" font-size="44.0" fill="#000000" transform="matrix(1.00, 0.00, -0.00, -1.00, 257.3, 451.2)">x</text><text xml:space="preserve" font-family="ArialMT,Arial" font-size="44.0" fill="#000000" transform="matrix(1.00, 0.00, -0.00, -1.00, 279.3, 451.2)">c</text><text xml:space="preserve" font-family="ArialMT,Arial" font-size="44.0" fill="#000000" transform="matrix(1.00, 0.00, -0.00, -1.00, 301.3, 451.2)">e</text><text xml:space="preserve" font-family="ArialMT,Arial" font-size="44.0" fill="#000000" transform="matrix(1.00, 0.00, -0.00, -1.00, 325.8, 451.2)">p</text><text xml:space="preserve" font-family="ArialMT,Arial" font-size="44.0" fill="#000000" transform="matrix(1.00, 0.00, -0.00, -1.00, 350.3, 451.2)">t</text><text xml:space="preserve" font-family="ArialMT,Arial" font-size="44.0" fill="#000000" transform="matrix(1.00, 0.00, -0.00, -1.00, 362.5, 451.2)"> </text><text xml:space="preserve" font-family="ArialMT,Arial" font-size="44.0" fill="#000000" transform="matrix(1.00, 0.00, -0.00, -1.00, 374.7, 451.2)">v</text><text xml:space="preserve" font-family="ArialMT,Arial" font-size="44.0" fill="#000000" transform="matrix(1.00, 0.00, -0.00, -1.00, 396.7, 451.2)">a</text><text xml:space="preserve" font-family="ArialMT,Arial" font-size="44.0" fill="#000000" transform="matrix(1.00, 0.00, -0.00, -1.00, 421.2, 451.2)">r</text><text xml:space="preserve" font-family="ArialMT,Arial" font-size="44.0" fill="#000000" transform="matrix(1.00, 0.00, -0.00, -1.00, 435.8, 451.2)">a</text><text xml:space="preserve" font-family="ArialMT,Arial" font-size="44.0" fill="#000000" transform="matrix(1.00, 0.00, -0.00, -1.00, 460.3, 451.2)">n</text><text xml:space="preserve" font-family="ArialMT,Arial" font-size="44.0" fill="#000000" transform="matrix(1.00, 0.00, -0.00, -1.00, 484.8, 451.2)">i</text><text xml:space="preserve" font-family="ArialMT,Arial" font-size="44.0" fill="#000000" transform="matrix(1.00, 0.00, -0.00, -1.00, 494.6, 451.2)">d</text><text xml:space="preserve" font-family="ArialMT,Arial" font-size="44.0" fill="#000000" transform="matrix(1.00, 0.00, -0.00, -1.00, 519.0, 451.2)">s</text><text xml:space="preserve" font-family="ArialMT,Arial" font-size="44.0" fill="#000000" transform="matrix(1.00, 0.00, -0.00, -1.00, 541.0, 451.2)">)</text><image xlink:href="../../4105EEED-B6F1-42B3-8CD3-AEC4EA4019D0/assets/599D337FC45D50CA5DAF6141EC2CA09B.jpeg" width="1198.00" height="274.00" transform="matrix(0.68, 0.00, -0.00, -0.68, 128.0, 324.0)"></image></g></svg>