<?xml version="1.0" encoding="UTF-8" standalone="no"?><svg xmlns="http://www.w3.org/2000/svg" xmlns:xlink="http://www.w3.org/1999/xlink" clip-rule="evenodd" stroke-miterlimit="10" viewBox="0 0 727 430"><desc>SVG generated by Keynote</desc><defs></defs><g transform="matrix(1.00, 0.00, -0.00, -1.00, 0.0, 430.0)"><g><clipPath id="clip0x6000018b63e0"><path d="M -1.9 391.1 L 729.9 391.1 L 729.9 432.9 L -1.9 432.9 Z M -1.9 391.1 "></path></clipPath><g clip-path="url(#clip0x6000018b63e0)"><text xml:space="preserve" font-family="GillSans,Gill Sans" font-size="24.0" fill="#0061FE" transform="matrix(1.00, 0.00, -0.00, -1.00, 22.8, 403.5)">=</text><text xml:space="preserve" font-family="GillSans,Gill Sans" font-size="24.0" fill="#0061FE" transform="matrix(1.00, 0.00, -0.00, -1.00, 36.8, 403.5)"> </text><text xml:space="preserve" font-family="GillSans,Gill Sans" font-size="24.0" fill="#0061FE" transform="matrix(1.00, 0.00, -0.00, -1.00, 41.0, 403.5)">A</text><text xml:space="preserve" font-family="GillSans,Gill Sans" font-size="24.0" fill="#0061FE" transform="matrix(1.00, 0.00, -0.00, -1.00, 57.1, 403.5)">c</text><text xml:space="preserve" font-family="GillSans,Gill Sans" font-size="24.0" fill="#0061FE" transform="matrix(1.00, 0.00, -0.00, -1.00, 67.6, 403.5)">t</text><text xml:space="preserve" font-family="GillSans,Gill Sans" font-size="24.0" fill="#0061FE" transform="matrix(1.00, 0.00, -0.00, -1.00, 75.6, 403.5)">i</text><text xml:space="preserve" font-family="GillSans,Gill Sans" font-size="24.0" fill="#0061FE" transform="matrix(1.00, 0.00, -0.00, -1.00, 80.8, 403.5)">n</text><text xml:space="preserve" font-family="GillSans,Gill Sans" font-size="24.0" fill="#0061FE" transform="matrix(1.00, 0.00, -0.00, -1.00, 92.8, 403.5)">o</text><text xml:space="preserve" font-family="GillSans,Gill Sans" font-size="24.0" fill="#0061FE" transform="matrix(1.00, 0.00, -0.00, -1.00, 106.1, 403.5)">p</text><text xml:space="preserve" font-family="GillSans,Gill Sans" font-size="24.0" fill="#0061FE" transform="matrix(1.00, 0.00, -0.00, -1.00, 118.1, 403.5)">t</text><text xml:space="preserve" font-family="GillSans,Gill Sans" font-size="24.0" fill="#0061FE" transform="matrix(1.00, 0.00, -0.00, -1.00, 126.1, 403.5)">e</text><text xml:space="preserve" font-family="GillSans,Gill Sans" font-size="24.0" fill="#0061FE" transform="matrix(1.00, 0.00, -0.00, -1.00, 137.6, 403.5)">r</text><text xml:space="preserve" font-family="GillSans,Gill Sans" font-size="24.0" fill="#0061FE" transform="matrix(1.00, 0.00, -0.00, -1.00, 147.8, 403.5)">y</text><text xml:space="preserve" font-family="GillSans,Gill Sans" font-size="24.0" fill="#0061FE" transform="matrix(1.00, 0.00, -0.00, -1.00, 158.3, 403.5)">g</text><text xml:space="preserve" font-family="GillSans,Gill Sans" font-size="24.0" fill="#0061FE" transform="matrix(1.00, 0.00, -0.00, -1.00, 168.5, 403.5)">i</text><text xml:space="preserve" font-family="GillSans,Gill Sans" font-size="24.0" fill="#0061FE" transform="matrix(1.00, 0.00, -0.00, -1.00, 173.8, 403.5)">i</text><text xml:space="preserve" font-family="GillSans,Gill Sans" font-size="24.0" fill="#0061FE" transform="matrix(1.00, 0.00, -0.00, -1.00, 179.1, 403.5)"> </text><text xml:space="preserve" font-family="GillSans,Gill Sans" font-size="24.0" fill="#0061FE" transform="matrix(1.00, 0.00, -0.00, -1.00, 185.7, 403.5)">(</text><text xml:space="preserve" font-family="GillSans,Gill Sans" font-size="24.0" fill="#0061FE" transform="matrix(1.00, 0.00, -0.00, -1.00, 193.5, 403.5)">r</text><text xml:space="preserve" font-family="GillSans,Gill Sans" font-size="24.0" fill="#0061FE" transform="matrix(1.00, 0.00, -0.00, -1.00, 203.0, 403.5)">a</text><text xml:space="preserve" font-family="GillSans,Gill Sans" font-size="24.0" fill="#0061FE" transform="matrix(1.00, 0.00, -0.00, -1.00, 212.3, 403.5)">y</text><text xml:space="preserve" font-family="GillSans,Gill Sans" font-size="24.0" fill="#0061FE" transform="matrix(1.00, 0.00, -0.00, -1.00, 222.8, 403.5)">-</text><text xml:space="preserve" font-family="GillSans,Gill Sans" font-size="24.0" fill="#0061FE" transform="matrix(1.00, 0.00, -0.00, -1.00, 230.5, 403.5)">ﬁ</text><text xml:space="preserve" font-family="GillSans,Gill Sans" font-size="24.0" fill="#0061FE" transform="matrix(1.00, 0.00, -0.00, -1.00, 242.5, 403.5)">n</text><text xml:space="preserve" font-family="GillSans,Gill Sans" font-size="24.0" fill="#0061FE" transform="matrix(1.00, 0.00, -0.00, -1.00, 254.5, 403.5)">n</text><text xml:space="preserve" font-family="GillSans,Gill Sans" font-size="24.0" fill="#0061FE" transform="matrix(1.00, 0.00, -0.00, -1.00, 266.5, 403.5)">e</text><text xml:space="preserve" font-family="GillSans,Gill Sans" font-size="24.0" fill="#0061FE" transform="matrix(1.00, 0.00, -0.00, -1.00, 278.0, 403.5)">d</text><text xml:space="preserve" font-family="GillSans,Gill Sans" font-size="24.0" fill="#0061FE" transform="matrix(1.00, 0.00, -0.00, -1.00, 290.3, 403.5)"> </text><text xml:space="preserve" font-family="GillSans,Gill Sans" font-size="24.0" fill="#0061FE" transform="matrix(1.00, 0.00, -0.00, -1.00, 296.9, 403.5)">ﬁ</text><text xml:space="preserve" font-family="GillSans,Gill Sans" font-size="24.0" fill="#0061FE" transform="matrix(1.00, 0.00, -0.00, -1.00, 308.9, 403.5)">s</text><text xml:space="preserve" font-family="GillSans,Gill Sans" font-size="24.0" fill="#0061FE" transform="matrix(1.00, 0.00, -0.00, -1.00, 318.2, 403.5)">h</text><text xml:space="preserve" font-family="GillSans,Gill Sans" font-size="24.0" fill="#0061FE" transform="matrix(1.00, 0.00, -0.00, -1.00, 330.2, 403.5)">e</text><text xml:space="preserve" font-family="GillSans,Gill Sans" font-size="24.0" fill="#0061FE" transform="matrix(1.00, 0.00, -0.00, -1.00, 341.6, 403.5)">s</text><text xml:space="preserve" font-family="GillSans,Gill Sans" font-size="24.0" fill="#0061FE" transform="matrix(1.00, 0.00, -0.00, -1.00, 350.9, 403.5)">)</text><text xml:space="preserve" font-family="GillSans,Gill Sans" font-size="24.0" fill="#0061FE" transform="matrix(1.00, 0.00, -0.00, -1.00, 358.6, 403.5)"> </text><text xml:space="preserve" font-family="GillSans,Gill Sans" font-size="24.0" fill="#0061FE" transform="matrix(1.00, 0.00, -0.00, -1.00, 365.3, 403.5)">+</text><text xml:space="preserve" font-family="GillSans,Gill Sans" font-size="24.0" fill="#FF4013" transform="matrix(1.00, 0.00, -0.00, -1.00, 379.3, 403.5)"> </text><text xml:space="preserve" font-family="GillSans,Gill Sans" font-size="24.0" fill="#659C34" transform="matrix(1.00, 0.00, -0.00, -1.00, 386.0, 403.5)">S</text><text xml:space="preserve" font-family="GillSans,Gill Sans" font-size="24.0" fill="#659C34" transform="matrix(1.00, 0.00, -0.00, -1.00, 397.0, 403.5)">a</text><text xml:space="preserve" font-family="GillSans,Gill Sans" font-size="24.0" fill="#659C34" transform="matrix(1.00, 0.00, -0.00, -1.00, 407.2, 403.5)">r</text><text xml:space="preserve" font-family="GillSans,Gill Sans" font-size="24.0" fill="#659C34" transform="matrix(1.00, 0.00, -0.00, -1.00, 416.1, 403.5)">c</text><text xml:space="preserve" font-family="GillSans,Gill Sans" font-size="24.0" fill="#659C34" transform="matrix(1.00, 0.00, -0.00, -1.00, 426.7, 403.5)">o</text><text xml:space="preserve" font-family="GillSans,Gill Sans" font-size="24.0" fill="#659C34" transform="matrix(1.00, 0.00, -0.00, -1.00, 439.9, 403.5)">p</text><text xml:space="preserve" font-family="GillSans,Gill Sans" font-size="24.0" fill="#659C34" transform="matrix(1.00, 0.00, -0.00, -1.00, 451.9, 403.5)">t</text><text xml:space="preserve" font-family="GillSans,Gill Sans" font-size="24.0" fill="#659C34" transform="matrix(1.00, 0.00, -0.00, -1.00, 459.9, 403.5)">e</text><text xml:space="preserve" font-family="GillSans,Gill Sans" font-size="24.0" fill="#659C34" transform="matrix(1.00, 0.00, -0.00, -1.00, 471.4, 403.5)">r</text><text xml:space="preserve" font-family="GillSans,Gill Sans" font-size="24.0" fill="#659C34" transform="matrix(1.00, 0.00, -0.00, -1.00, 481.6, 403.5)">y</text><text xml:space="preserve" font-family="GillSans,Gill Sans" font-size="24.0" fill="#659C34" transform="matrix(1.00, 0.00, -0.00, -1.00, 492.1, 403.5)">g</text><text xml:space="preserve" font-family="GillSans,Gill Sans" font-size="24.0" fill="#659C34" transform="matrix(1.00, 0.00, -0.00, -1.00, 502.3, 403.5)">i</text><text xml:space="preserve" font-family="GillSans,Gill Sans" font-size="24.0" fill="#659C34" transform="matrix(1.00, 0.00, -0.00, -1.00, 507.6, 403.5)">i</text><text xml:space="preserve" font-family="GillSans,Gill Sans" font-size="24.0" fill="#659C34" transform="matrix(1.00, 0.00, -0.00, -1.00, 512.9, 403.5)"> </text><text xml:space="preserve" font-family="GillSans,Gill Sans" font-size="24.0" fill="#659C34" transform="matrix(1.00, 0.00, -0.00, -1.00, 519.5, 403.5)">(</text><text xml:space="preserve" font-family="GillSans,Gill Sans" font-size="24.0" fill="#659C34" transform="matrix(1.00, 0.00, -0.00, -1.00, 527.3, 403.5)">l</text><text xml:space="preserve" font-family="GillSans,Gill Sans" font-size="24.0" fill="#659C34" transform="matrix(1.00, 0.00, -0.00, -1.00, 532.6, 403.5)">o</text><text xml:space="preserve" font-family="GillSans,Gill Sans" font-size="24.0" fill="#659C34" transform="matrix(1.00, 0.00, -0.00, -1.00, 545.8, 403.5)">b</text><text xml:space="preserve" font-family="GillSans,Gill Sans" font-size="24.0" fill="#659C34" transform="matrix(1.00, 0.00, -0.00, -1.00, 557.8, 403.5)">e</text><text xml:space="preserve" font-family="GillSans,Gill Sans" font-size="24.0" fill="#659C34" transform="matrix(1.00, 0.00, -0.00, -1.00, 569.3, 403.5)">-</text><text xml:space="preserve" font-family="GillSans,Gill Sans" font-size="24.0" fill="#659C34" transform="matrix(1.00, 0.00, -0.00, -1.00, 577.1, 403.5)">ﬁ</text><text xml:space="preserve" font-family="GillSans,Gill Sans" font-size="24.0" fill="#659C34" transform="matrix(1.00, 0.00, -0.00, -1.00, 589.1, 403.5)">n</text><text xml:space="preserve" font-family="GillSans,Gill Sans" font-size="24.0" fill="#659C34" transform="matrix(1.00, 0.00, -0.00, -1.00, 601.1, 403.5)">n</text><text xml:space="preserve" font-family="GillSans,Gill Sans" font-size="24.0" fill="#659C34" transform="matrix(1.00, 0.00, -0.00, -1.00, 613.1, 403.5)">e</text><text xml:space="preserve" font-family="GillSans,Gill Sans" font-size="24.0" fill="#659C34" transform="matrix(1.00, 0.00, -0.00, -1.00, 624.6, 403.5)">d</text><text xml:space="preserve" font-family="GillSans,Gill Sans" font-size="24.0" fill="#659C34" transform="matrix(1.00, 0.00, -0.00, -1.00, 636.8, 403.5)"> </text><text xml:space="preserve" font-family="GillSans,Gill Sans" font-size="24.0" fill="#659C34" transform="matrix(1.00, 0.00, -0.00, -1.00, 643.5, 403.5)">ﬁ</text><text xml:space="preserve" font-family="GillSans,Gill Sans" font-size="24.0" fill="#659C34" transform="matrix(1.00, 0.00, -0.00, -1.00, 655.5, 403.5)">s</text><text xml:space="preserve" font-family="GillSans,Gill Sans" font-size="24.0" fill="#659C34" transform="matrix(1.00, 0.00, -0.00, -1.00, 664.7, 403.5)">h</text><text xml:space="preserve" font-family="GillSans,Gill Sans" font-size="24.0" fill="#659C34" transform="matrix(1.00, 0.00, -0.00, -1.00, 676.7, 403.5)">e</text><text xml:space="preserve" font-family="GillSans,Gill Sans" font-size="24.0" fill="#659C34" transform="matrix(1.00, 0.00, -0.00, -1.00, 688.2, 403.5)">s</text><text xml:space="preserve" font-family="GillSans,Gill Sans" font-size="24.0" fill="#659C34" transform="matrix(1.00, 0.00, -0.00, -1.00, 697.4, 403.5)">)</text><text xml:space="preserve" font-family="GillSans,Gill Sans" font-size="24.0" fill="#659C34" transform="matrix(1.00, 0.00, -0.00, -1.00, 705.2, 403.5)"> </text></g></g><g><clipPath id="clip0x6000018b50c0"><path d="M 111.0 0.0 L 144.0 0.0 L 144.0 11.0 L 111.0 11.0 Z M 111.0 0.0 "></path></clipPath><g clip-path="url(#clip0x6000018b50c0)"><path d="M 113.0 9.0 L 142.0 9.0 L 142.0 2.0 L 113.0 2.0 Z M 113.0 9.0 " fill="#0061FE"></path><path d="M 0.0 0.0 L 29.0 0.0 L 29.0 7.0 L 0.0 7.0 Z M 0.0 0.0 " fill="none" stroke="#000000" stroke-width="2.00" transform="matrix(1.00, 0.00, 0.00, -1.00, 113.0, 9.0)"></path></g></g><g><clipPath id="clip0x6000018b6f80"><path d="M 417.0 0.0 L 450.0 0.0 L 450.0 11.0 L 417.0 11.0 Z M 417.0 0.0 "></path></clipPath><g clip-path="url(#clip0x6000018b6f80)"><path d="M 419.0 9.0 L 448.0 9.0 L 448.0 2.0 L 419.0 2.0 Z M 419.0 9.0 " fill="#76BA40"></path><path d="M 0.0 0.0 L 29.0 0.0 L 29.0 7.0 L 0.0 7.0 Z M 0.0 0.0 " fill="none" stroke="#000000" stroke-width="2.00" transform="matrix(1.00, 0.00, 0.00, -1.00, 419.0, 9.0)"></path></g></g></g></svg>