<?xml version="1.0" encoding="UTF-8" standalone="no"?><svg xmlns="http://www.w3.org/2000/svg" xmlns:xlink="http://www.w3.org/1999/xlink" clip-rule="evenodd" stroke-miterlimit="10" viewBox="0 0 720 540"><desc>SVG generated by Keynote</desc><defs></defs><g transform="matrix(1.00, 0.00, -0.00, -1.00, 0.0, 540.0)"><path d="M 0.0 540.0 L 720.0 540.0 L 720.0 0.0 L 0.0 0.0 Z M 0.0 540.0 " fill="#FEFFFF"></path><g><clipPath id="clip0x600001cb1ac0"><path d="M 99.0 522.0 L 621.0 522.0 L 621.0 86.0 L 99.0 86.0 Z M 99.0 522.0 "></path></clipPath><g clip-path="url(#clip0x600001cb1ac0)"><g><clipPath id="clip0x600001cb1c40"><path d="M 99.0 86.0 L 621.0 86.0 L 621.0 522.0 L 99.0 522.0 Z M 99.0 86.0 "></path></clipPath><g clip-path="url(#clip0x600001cb1c40)"><image xlink:href="4902990E1611A2D58CFB8F06988DF576.png" width="1179.00" height="540.00" transform="matrix(0.94, 0.00, -0.00, -0.94, 85.0, 549.0)"></image></g></g></g></g><g><clipPath id="clip0x608001ca7f80"><path d="M 218.7 53.3 L 501.6 53.3 L 501.6 58.3 L 218.7 58.3 Z M 218.7 53.3 "></path></clipPath><g clip-path="url(#clip0x608001ca7f80)"><path d="M 0.3 0.3 L 281.3 0.3 " fill="none" stroke="#000000" stroke-width="3.00" transform="matrix(1.00, 0.00, 0.00, -1.00, 219.7, 55.8)"></path></g></g><g><clipPath id="clip0x608001ca7bc0"><path d="M 317.3 -0.0 L 403.4 -0.0 L 403.4 57.3 L 317.3 57.3 Z M 317.3 -0.0 "></path></clipPath><g clip-path="url(#clip0x608001ca7bc0)"><text xml:space="preserve" font-family="GillSans,Gill Sans" font-size="28.0" fill="#000000" transform="matrix(1.00, 0.00, -0.00, -1.00, 338.7, 18.8)">1</text><text xml:space="preserve" font-family="GillSans,Gill Sans" font-size="28.0" fill="#000000" transform="matrix(1.00, 0.00, -0.00, -1.00, 352.7, 18.8)"> </text><text xml:space="preserve" font-family="GillSans,Gill Sans" font-size="28.0" fill="#000000" transform="matrix(1.00, 0.00, -0.00, -1.00, 360.4, 18.8)">m</text></g></g></g></svg>